# Blender 5.2.0 LTS
# www.blender.org
o Bow
v 0.090000 0.100000 0.020000
v 0.090000 0.118591 -0.007373
v 0.110000 0.120000 0.013583
v 0.090000 0.105153 0.003500
v 0.101547 0.108155 0.005539
v 0.104142 0.119296 -0.001037
v 0.104142 0.106150 0.018319
v 0.090000 0.462500 -0.143772
v 0.110000 0.469224 -0.124923
v 0.104142 0.464470 -0.138251
v 0.090000 0.825000 -0.259001
v 0.110000 0.829942 -0.239586
v 0.104142 0.826447 -0.253314
v 0.090000 1.187500 -0.328994
v 0.110000 1.189760 -0.309061
v 0.104142 1.188162 -0.323156
v 0.090000 1.550000 -0.341688
v 0.110000 1.548963 -0.321640
v 0.104142 1.549696 -0.335816
v 0.090000 1.912500 -0.291208
v 0.110000 1.908126 -0.271624
v 0.104142 1.911219 -0.285472
v 0.090000 2.275000 -0.178624
v 0.110000 2.267823 -0.159910
v 0.104142 2.272898 -0.173143
v 0.090000 2.637500 -0.011815
v 0.110000 2.628336 0.005985
v 0.104142 2.634816 -0.006602
v 0.090000 2.982640 0.185619
v 0.090000 3.000000 0.215550
v 0.110000 2.980000 0.207151
v 0.090000 2.995462 0.198182
v 0.101547 2.992105 0.200130
v 0.104142 2.993595 0.213407
v 0.104142 2.981320 0.192243
v 0.090000 3.000000 0.245950
v 0.090000 2.982259 0.256717
v 0.110000 2.980000 0.232995
v 0.090000 2.995272 0.258159
v 0.101547 2.992024 0.252808
v 0.104142 2.981130 0.248998
v 0.104142 2.993675 0.241385
v 0.090000 2.637500 0.077285
v 0.110000 2.645917 0.059119
v 0.104142 2.639965 0.071965
v 0.090000 2.275000 -0.070824
v 0.110000 2.281318 -0.089847
v 0.104142 2.276850 -0.076396
v 0.090000 1.912500 -0.164708
v 0.110000 1.915904 -0.184486
v 0.104142 1.913497 -0.170501
v 0.090000 1.550000 -0.196488
v 0.110000 1.550011 -0.216564
v 0.104142 1.550003 -0.202368
v 0.090000 1.187500 -0.165094
v 0.110000 1.184241 -0.184887
v 0.104142 1.186546 -0.170891
v 0.090000 0.825000 -0.076401
v 0.110000 0.819139 -0.095557
v 0.104142 0.823283 -0.082012
v 0.090000 0.462500 0.057528
v 0.110000 0.454936 0.039001
v 0.104142 0.460285 0.052102
v 0.090000 0.100000 0.200000
v 0.110000 0.120000 0.189119
v 0.090000 0.118251 0.211820
v 0.104142 0.106220 0.196254
v 0.101547 0.108083 0.207519
v 0.104142 0.119125 0.204612
v 0.090000 0.104983 0.212306
v -0.090000 0.100000 0.020000
v -0.110000 0.120000 0.013583
v -0.090000 0.118591 -0.007373
v -0.104142 0.106150 0.018319
v -0.101547 0.108155 0.005539
v -0.104142 0.119296 -0.001037
v -0.090000 0.105153 0.003500
v -0.110000 0.469224 -0.124923
v -0.090000 0.462500 -0.143772
v -0.104142 0.464470 -0.138251
v -0.110000 0.829942 -0.239586
v -0.090000 0.825000 -0.259001
v -0.104142 0.826447 -0.253314
v -0.110000 1.189759 -0.309061
v -0.090000 1.187500 -0.328994
v -0.104142 1.188162 -0.323156
v -0.110000 1.548963 -0.321640
v -0.090000 1.550000 -0.341688
v -0.104142 1.549696 -0.335816
v -0.110000 1.908126 -0.271624
v -0.090000 1.912500 -0.291208
v -0.104142 1.911219 -0.285472
v -0.110000 2.267823 -0.159910
v -0.090000 2.275000 -0.178624
v -0.104142 2.272898 -0.173143
v -0.110000 2.628336 0.005985
v -0.090000 2.637500 -0.011815
v -0.104142 2.634816 -0.006602
v -0.090000 2.982640 0.185619
v -0.110000 2.980000 0.207151
v -0.090000 3.000000 0.215550
v -0.104142 2.981320 0.192243
v -0.101547 2.992105 0.200130
v -0.104142 2.993595 0.213407
v -0.090000 2.995462 0.198182
v -0.090000 3.000000 0.245950
v -0.110000 2.980000 0.232994
v -0.090000 2.982259 0.256717
v -0.104142 2.993675 0.241385
v -0.101547 2.992024 0.252808
v -0.104142 2.981130 0.248998
v -0.090000 2.995272 0.258159
v -0.110000 2.645917 0.059119
v -0.090000 2.637500 0.077285
v -0.104142 2.639965 0.071965
v -0.110000 2.281318 -0.089847
v -0.090000 2.275000 -0.070824
v -0.104142 2.276851 -0.076396
v -0.110000 1.915904 -0.184486
v -0.090000 1.912500 -0.164708
v -0.104142 1.913497 -0.170501
v -0.110000 1.550011 -0.216564
v -0.090000 1.550000 -0.196488
v -0.104142 1.550003 -0.202368
v -0.110000 1.184241 -0.184887
v -0.090000 1.187500 -0.165094
v -0.104142 1.186546 -0.170891
v -0.110000 0.819139 -0.095557
v -0.090000 0.825000 -0.076401
v -0.104142 0.823283 -0.082012
v -0.110000 0.454936 0.039001
v -0.090000 0.462500 0.057528
v -0.104142 0.460285 0.052102
v -0.090000 0.100000 0.200000
v -0.090000 0.118251 0.211820
v -0.110000 0.120000 0.189119
v -0.090000 0.104983 0.212306
v -0.101547 0.108083 0.207519
v -0.104142 0.119125 0.204612
v -0.104142 0.106220 0.196254
v -0.090000 -0.100000 0.020000
v -0.090000 -0.118591 -0.007373
v -0.110000 -0.120000 0.013583
v -0.090000 -0.105153 0.003500
v -0.101547 -0.108155 0.005539
v -0.104142 -0.119296 -0.001037
v -0.104142 -0.106150 0.018319
v -0.090000 -0.462500 -0.143772
v -0.110000 -0.469224 -0.124923
v -0.104142 -0.464470 -0.138251
v -0.090000 -0.825000 -0.259001
v -0.110000 -0.829942 -0.239586
v -0.104142 -0.826447 -0.253314
v -0.090000 -1.187500 -0.328994
v -0.110000 -1.189760 -0.309061
v -0.104142 -1.188162 -0.323156
v -0.090000 -1.550000 -0.341688
v -0.110000 -1.548963 -0.321640
v -0.104142 -1.549696 -0.335816
v -0.090000 -1.912500 -0.291208
v -0.110000 -1.908126 -0.271624
v -0.104142 -1.911219 -0.285472
v -0.090000 -2.275000 -0.178624
v -0.110000 -2.267823 -0.159910
v -0.104142 -2.272898 -0.173143
v -0.090000 -2.637500 -0.011815
v -0.110000 -2.628336 0.005985
v -0.104142 -2.634816 -0.006602
v -0.090000 -2.982640 0.185619
v -0.090000 -3.000000 0.215550
v -0.110000 -2.980000 0.207151
v -0.090000 -2.995462 0.198182
v -0.101547 -2.992105 0.200130
v -0.104142 -2.993595 0.213407
v -0.104142 -2.981320 0.192243
v -0.090000 -3.000000 0.245950
v -0.090000 -2.982259 0.256717
v -0.110000 -2.980000 0.232995
v -0.090000 -2.995272 0.258159
v -0.101547 -2.992024 0.252808
v -0.104142 -2.981130 0.248998
v -0.104142 -2.993675 0.241385
v -0.090000 -2.637500 0.077285
v -0.110000 -2.645917 0.059119
v -0.104142 -2.639965 0.071965
v -0.090000 -2.275000 -0.070824
v -0.110000 -2.281318 -0.089847
v -0.104142 -2.276850 -0.076396
v -0.090000 -1.912500 -0.164708
v -0.110000 -1.915904 -0.184486
v -0.104142 -1.913497 -0.170501
v -0.090000 -1.550000 -0.196488
v -0.110000 -1.550011 -0.216564
v -0.104142 -1.550003 -0.202368
v -0.090000 -1.187500 -0.165094
v -0.110000 -1.184241 -0.184887
v -0.104142 -1.186546 -0.170891
v -0.090000 -0.825000 -0.076401
v -0.110000 -0.819139 -0.095557
v -0.104142 -0.823283 -0.082012
v -0.090000 -0.462500 0.057528
v -0.110000 -0.454936 0.039001
v -0.104142 -0.460285 0.052102
v -0.090000 -0.100000 0.200000
v -0.110000 -0.120000 0.189119
v -0.090000 -0.118251 0.211820
v -0.104142 -0.106220 0.196254
v -0.101547 -0.108083 0.207519
v -0.104142 -0.119125 0.204612
v -0.090000 -0.104983 0.212306
v 0.090000 -0.100000 0.020000
v 0.110000 -0.120000 0.013583
v 0.090000 -0.118591 -0.007373
v 0.104142 -0.106150 0.018319
v 0.101547 -0.108155 0.005539
v 0.104142 -0.119296 -0.001037
v 0.090000 -0.105153 0.003500
v 0.110000 -0.469224 -0.124923
v 0.090000 -0.462500 -0.143772
v 0.104142 -0.464470 -0.138251
v 0.110000 -0.829942 -0.239586
v 0.090000 -0.825000 -0.259001
v 0.104142 -0.826447 -0.253314
v 0.110000 -1.189759 -0.309061
v 0.090000 -1.187500 -0.328994
v 0.104142 -1.188162 -0.323156
v 0.110000 -1.548963 -0.321640
v 0.090000 -1.550000 -0.341688
v 0.104142 -1.549696 -0.335816
v 0.110000 -1.908126 -0.271624
v 0.090000 -1.912500 -0.291208
v 0.104142 -1.911219 -0.285472
v 0.110000 -2.267823 -0.159910
v 0.090000 -2.275000 -0.178624
v 0.104142 -2.272898 -0.173143
v 0.110000 -2.628336 0.005985
v 0.090000 -2.637500 -0.011815
v 0.104142 -2.634816 -0.006602
v 0.090000 -2.982640 0.185619
v 0.110000 -2.980000 0.207151
v 0.090000 -3.000000 0.215550
v 0.104142 -2.981320 0.192243
v 0.101547 -2.992105 0.200130
v 0.104142 -2.993595 0.213407
v 0.090000 -2.995462 0.198182
v 0.090000 -3.000000 0.245950
v 0.110000 -2.980000 0.232994
v 0.090000 -2.982259 0.256717
v 0.104142 -2.993675 0.241385
v 0.101547 -2.992024 0.252808
v 0.104142 -2.981130 0.248998
v 0.090000 -2.995272 0.258159
v 0.110000 -2.645917 0.059119
v 0.090000 -2.637500 0.077285
v 0.104142 -2.639965 0.071965
v 0.110000 -2.281318 -0.089847
v 0.090000 -2.275000 -0.070824
v 0.104142 -2.276851 -0.076396
v 0.110000 -1.915904 -0.184486
v 0.090000 -1.912500 -0.164708
v 0.104142 -1.913497 -0.170501
v 0.110000 -1.550011 -0.216564
v 0.090000 -1.550000 -0.196488
v 0.104142 -1.550003 -0.202368
v 0.110000 -1.184241 -0.184887
v 0.090000 -1.187500 -0.165094
v 0.104142 -1.186546 -0.170891
v 0.110000 -0.819139 -0.095557
v 0.090000 -0.825000 -0.076401
v 0.104142 -0.823283 -0.082012
v 0.110000 -0.454936 0.039001
v 0.090000 -0.462500 0.057528
v 0.104142 -0.460285 0.052102
v 0.090000 -0.100000 0.200000
v 0.090000 -0.118251 0.211820
v 0.110000 -0.120000 0.189119
v 0.090000 -0.104983 0.212306
v 0.101547 -0.108083 0.207519
v 0.104142 -0.119125 0.204612
v 0.104142 -0.106220 0.196254
v 0.117291 -0.444444 0.000000
v 0.105676 -0.444444 -0.050891
v 0.073130 -0.444444 -0.091702
v 0.026100 -0.444444 -0.114350
v -0.026100 -0.444444 -0.114350
v -0.073130 -0.444444 -0.091702
v -0.105676 -0.444444 -0.050891
v -0.117291 -0.444444 -0.000000
v -0.105676 -0.444444 0.050891
v -0.073130 -0.444444 0.091702
v -0.026100 -0.444444 0.114350
v 0.026100 -0.444444 0.114350
v 0.073130 -0.444444 0.091702
v 0.105676 -0.444444 0.050891
v 0.114664 -0.388889 0.000000
v 0.103309 -0.388889 -0.049751
v 0.071492 -0.388889 -0.089648
v 0.025515 -0.388889 -0.111790
v -0.025515 -0.388889 -0.111790
v -0.071492 -0.388889 -0.089648
v -0.103309 -0.388889 -0.049751
v -0.114664 -0.388889 -0.000000
v -0.103309 -0.388889 0.049751
v -0.071492 -0.388889 0.089648
v -0.025515 -0.388889 0.111790
v 0.025515 -0.388889 0.111790
v 0.071492 -0.388889 0.089648
v 0.103309 -0.388889 0.049751
v 0.118932 -0.333333 0.000000
v 0.107154 -0.333333 -0.051603
v 0.074153 -0.333333 -0.092985
v 0.026465 -0.333333 -0.115950
v -0.026465 -0.333333 -0.115950
v -0.074153 -0.333333 -0.092985
v -0.107154 -0.333333 -0.051603
v -0.118932 -0.333333 -0.000000
v -0.107154 -0.333333 0.051603
v -0.074153 -0.333333 0.092985
v -0.026465 -0.333333 0.115950
v 0.026465 -0.333333 0.115950
v 0.074153 -0.333333 0.092985
v 0.107154 -0.333333 0.051603
v 0.116571 -0.277778 0.000000
v 0.105027 -0.277778 -0.050578
v 0.072681 -0.277778 -0.091139
v 0.025939 -0.277778 -0.113648
v -0.025939 -0.277778 -0.113648
v -0.072681 -0.277778 -0.091139
v -0.105027 -0.277778 -0.050578
v -0.116571 -0.277778 -0.000000
v -0.105027 -0.277778 0.050578
v -0.072681 -0.277778 0.091139
v -0.025939 -0.277778 0.113648
v 0.025939 -0.277778 0.113648
v 0.072681 -0.277778 0.091139
v 0.105027 -0.277778 0.050578
v 0.114533 -0.222222 0.000000
v 0.103190 -0.222222 -0.049694
v 0.071410 -0.222222 -0.089545
v 0.025486 -0.222222 -0.111661
v -0.025486 -0.222222 -0.111661
v -0.071410 -0.222222 -0.089545
v -0.103190 -0.222222 -0.049694
v -0.114533 -0.222222 -0.000000
v -0.103190 -0.222222 0.049694
v -0.071410 -0.222222 0.089545
v -0.025486 -0.222222 0.111661
v 0.025486 -0.222222 0.111661
v 0.071410 -0.222222 0.089545
v 0.103190 -0.222222 0.049694
v 0.106490 -0.166667 0.000000
v 0.095944 -0.166667 -0.046204
v 0.066395 -0.166667 -0.083257
v 0.023696 -0.166667 -0.103820
v -0.023696 -0.166667 -0.103820
v -0.066395 -0.166667 -0.083257
v -0.095944 -0.166667 -0.046204
v -0.106490 -0.166667 -0.000000
v -0.095944 -0.166667 0.046204
v -0.066395 -0.166667 0.083257
v -0.023696 -0.166667 0.103820
v 0.023696 -0.166667 0.103820
v 0.066395 -0.166667 0.083257
v 0.095944 -0.166667 0.046204
v 0.105341 -0.111111 0.000000
v 0.094909 -0.111111 -0.045706
v 0.065679 -0.111111 -0.082359
v 0.023441 -0.111111 -0.102700
v -0.023441 -0.111111 -0.102700
v -0.065679 -0.111111 -0.082359
v -0.094909 -0.111111 -0.045706
v -0.105341 -0.111111 -0.000000
v -0.094909 -0.111111 0.045706
v -0.065679 -0.111111 0.082359
v -0.023441 -0.111111 0.102700
v 0.023441 -0.111111 0.102700
v 0.065679 -0.111111 0.082359
v 0.094909 -0.111111 0.045706
v 0.104637 -0.055556 0.000000
v 0.094275 -0.055556 -0.045400
v 0.065240 -0.055556 -0.081808
v 0.023284 -0.055556 -0.102014
v -0.023284 -0.055556 -0.102014
v -0.065240 -0.055556 -0.081808
v -0.094275 -0.055556 -0.045400
v -0.104637 -0.055556 -0.000000
v -0.094275 -0.055556 0.045400
v -0.065240 -0.055556 0.081808
v -0.023284 -0.055556 0.102014
v 0.023284 -0.055556 0.102014
v 0.065240 -0.055556 0.081808
v 0.094275 -0.055556 0.045400
v 0.110664 0.000000 0.000000
v 0.099705 0.000000 -0.048015
v 0.068998 0.000000 -0.086521
v 0.024625 0.000000 -0.107889
v -0.024625 0.000000 -0.107889
v -0.068998 0.000000 -0.086521
v -0.099705 0.000000 -0.048015
v -0.110664 0.000000 -0.000000
v -0.099705 0.000000 0.048015
v -0.068998 0.000000 0.086521
v -0.024625 0.000000 0.107889
v 0.024625 0.000000 0.107889
v 0.068998 0.000000 0.086521
v 0.099705 0.000000 0.048015
v 0.110915 0.055556 0.000000
v 0.099931 0.055556 -0.048124
v 0.069155 0.055556 -0.086717
v 0.024681 0.055556 -0.108134
v -0.024681 0.055556 -0.108134
v -0.069155 0.055556 -0.086717
v -0.099931 0.055556 -0.048124
v -0.110915 0.055556 -0.000000
v -0.099931 0.055556 0.048124
v -0.069155 0.055556 0.086717
v -0.024681 0.055556 0.108134
v 0.024681 0.055556 0.108134
v 0.069155 0.055556 0.086717
v 0.099931 0.055556 0.048124
v 0.111661 0.111111 0.000000
v 0.100603 0.111111 -0.048448
v 0.069620 0.111111 -0.087300
v 0.024847 0.111111 -0.108862
v -0.024847 0.111111 -0.108862
v -0.069620 0.111111 -0.087300
v -0.100603 0.111111 -0.048448
v -0.111661 0.111111 -0.000000
v -0.100603 0.111111 0.048448
v -0.069620 0.111111 0.087300
v -0.024847 0.111111 0.108862
v 0.024847 0.111111 0.108862
v 0.069620 0.111111 0.087300
v 0.100603 0.111111 0.048448
v 0.106490 0.166667 0.000000
v 0.095944 0.166667 -0.046204
v 0.066395 0.166667 -0.083257
v 0.023696 0.166667 -0.103820
v -0.023696 0.166667 -0.103820
v -0.066395 0.166667 -0.083257
v -0.095944 0.166667 -0.046204
v -0.106490 0.166667 -0.000000
v -0.095944 0.166667 0.046204
v -0.066395 0.166667 0.083257
v -0.023696 0.166667 0.103820
v 0.023696 0.166667 0.103820
v 0.066395 0.166667 0.083257
v 0.095944 0.166667 0.046204
v 0.108050 0.222222 0.000000
v 0.097349 0.222222 -0.046881
v 0.067368 0.222222 -0.084477
v 0.024043 0.222222 -0.105341
v -0.024043 0.222222 -0.105341
v -0.067368 0.222222 -0.084477
v -0.097349 0.222222 -0.046881
v -0.108050 0.222222 -0.000000
v -0.097349 0.222222 0.046881
v -0.067368 0.222222 0.084477
v -0.024043 0.222222 0.105341
v 0.024043 0.222222 0.105341
v 0.067368 0.222222 0.084477
v 0.097349 0.222222 0.046881
v 0.109973 0.277778 0.000000
v 0.099082 0.277778 -0.047715
v 0.068567 0.277778 -0.085980
v 0.024471 0.277778 -0.107215
v -0.024471 0.277778 -0.107215
v -0.068567 0.277778 -0.085980
v -0.099082 0.277778 -0.047715
v -0.109973 0.277778 -0.000000
v -0.099082 0.277778 0.047715
v -0.068567 0.277778 0.085980
v -0.024471 0.277778 0.107215
v 0.024471 0.277778 0.107215
v 0.068567 0.277778 0.085980
v 0.099082 0.277778 0.047715
v 0.118932 0.333333 0.000000
v 0.107154 0.333333 -0.051603
v 0.074153 0.333333 -0.092985
v 0.026465 0.333333 -0.115950
v -0.026465 0.333333 -0.115950
v -0.074153 0.333333 -0.092985
v -0.107154 0.333333 -0.051603
v -0.118932 0.333333 -0.000000
v -0.107154 0.333333 0.051603
v -0.074153 0.333333 0.092985
v -0.026465 0.333333 0.115950
v 0.026465 0.333333 0.115950
v 0.074153 0.333333 0.092985
v 0.107154 0.333333 0.051603
v 0.121544 0.388889 0.000000
v 0.109508 0.388889 -0.052736
v 0.075782 0.388889 -0.095027
v 0.027046 0.388889 -0.118497
v -0.027046 0.388889 -0.118497
v -0.075782 0.388889 -0.095027
v -0.109508 0.388889 -0.052736
v -0.121544 0.388889 -0.000000
v -0.109508 0.388889 0.052736
v -0.075782 0.388889 0.095027
v -0.027046 0.388889 0.118497
v 0.027046 0.388889 0.118497
v 0.075782 0.388889 0.095027
v 0.109508 0.388889 0.052736
v 0.124329 0.444444 0.000000
v 0.112016 0.444444 -0.053944
v 0.077518 0.444444 -0.097204
v 0.027666 0.444444 -0.121211
v -0.027666 0.444444 -0.121211
v -0.077518 0.444444 -0.097204
v -0.112016 0.444444 -0.053944
v -0.124329 0.444444 -0.000000
v -0.112016 0.444444 0.053944
v -0.077518 0.444444 0.097204
v -0.027666 0.444444 0.121211
v 0.027666 0.444444 0.121211
v 0.077518 0.444444 0.097204
v 0.112016 0.444444 0.053944
v 0.113846 -0.500000 -0.000000
v 0.119708 -0.494007 0.000000
v 0.118112 -0.498245 -0.000000
v 0.102571 -0.500000 -0.049396
v 0.107853 -0.494007 -0.051939
v 0.106415 -0.498245 -0.051247
v 0.070982 -0.500000 -0.089008
v 0.074637 -0.494007 -0.093591
v 0.073642 -0.498245 -0.092344
v 0.025333 -0.500000 -0.110991
v 0.026637 -0.494007 -0.116706
v 0.026282 -0.498245 -0.115151
v -0.025333 -0.500000 -0.110991
v -0.026637 -0.494007 -0.116706
v -0.026282 -0.498245 -0.115151
v -0.070982 -0.500000 -0.089008
v -0.074637 -0.494007 -0.093591
v -0.073642 -0.498245 -0.092344
v -0.102571 -0.500000 -0.049396
v -0.107853 -0.494007 -0.051939
v -0.106415 -0.498245 -0.051247
v -0.113846 -0.500000 0.000000
v -0.119708 -0.494007 -0.000000
v -0.118112 -0.498245 0.000000
v -0.102571 -0.500000 0.049396
v -0.107853 -0.494007 0.051939
v -0.106415 -0.498245 0.051247
v -0.070982 -0.500000 0.089008
v -0.074637 -0.494007 0.093591
v -0.073642 -0.498245 0.092344
v -0.025333 -0.500000 0.110991
v -0.026637 -0.494007 0.116706
v -0.026282 -0.498245 0.115151
v 0.025333 -0.500000 0.110991
v 0.026637 -0.494007 0.116706
v 0.026282 -0.498245 0.115151
v 0.070982 -0.500000 0.089008
v 0.074637 -0.494007 0.093591
v 0.073642 -0.498245 0.092344
v 0.102571 -0.500000 0.049396
v 0.107853 -0.494007 0.051939
v 0.106415 -0.498245 0.051247
v 0.113846 0.500000 0.000000
v 0.120466 0.494017 0.000000
v 0.118334 0.498248 0.000000
v 0.102571 0.500000 -0.049396
v 0.108536 0.494017 -0.052268
v 0.106615 0.498248 -0.051343
v 0.070982 0.500000 -0.089008
v 0.075109 0.494017 -0.094184
v 0.073780 0.498248 -0.092517
v 0.025333 0.500000 -0.110991
v 0.026806 0.494017 -0.117446
v 0.026332 0.498248 -0.115367
v -0.025333 0.500000 -0.110991
v -0.026806 0.494017 -0.117446
v -0.026332 0.498248 -0.115367
v -0.070982 0.500000 -0.089008
v -0.075109 0.494017 -0.094184
v -0.073780 0.498248 -0.092517
v -0.102571 0.500000 -0.049396
v -0.108536 0.494017 -0.052268
v -0.106615 0.498248 -0.051343
v -0.113846 0.500000 -0.000000
v -0.120466 0.494017 -0.000000
v -0.118334 0.498248 -0.000000
v -0.102571 0.500000 0.049396
v -0.108536 0.494017 0.052268
v -0.106615 0.498248 0.051343
v -0.070982 0.500000 0.089008
v -0.075109 0.494017 0.094184
v -0.073780 0.498248 0.092517
v -0.025333 0.500000 0.110991
v -0.026806 0.494017 0.117446
v -0.026332 0.498248 0.115367
v 0.025333 0.500000 0.110991
v 0.026806 0.494017 0.117446
v 0.026332 0.498248 0.115367
v 0.070982 0.500000 0.089008
v 0.075109 0.494017 0.094184
v 0.073780 0.498248 0.092517
v 0.102571 0.500000 0.049396
v 0.108536 0.494017 0.052268
v 0.106615 0.498248 0.051343
v 0.030000 -3.000000 0.300000
v 0.015000 -3.000000 0.274019
v -0.015000 -3.000000 0.274019
v -0.030000 -3.000000 0.300000
v -0.015000 -3.000000 0.325981
v 0.015000 -3.000000 0.325981
v 0.030000 0.000000 0.300000
v 0.015000 0.000000 0.274019
v -0.015000 0.000000 0.274019
v -0.030000 0.000000 0.300000
v -0.015000 0.000000 0.325981
v 0.015000 0.000000 0.325981
v 0.030000 3.000000 0.300000
v 0.015000 3.000000 0.274019
v -0.015000 3.000000 0.274019
v -0.030000 3.000000 0.300000
v -0.015000 3.000000 0.325981
v 0.015000 3.000000 0.325981
vn 0.1859 -0.9733 -0.1346
vn 0.1694 -0.8153 -0.5537
vn 0.3441 -0.7767 -0.5275
vn 0.3663 -0.9212 -0.1308
vn 0.1830 -0.4842 -0.8556
vn 0.3614 -0.4622 -0.8098
vn 0.9603 -0.2312 -0.1564
vn 0.9067 -0.4064 -0.1132
vn 0.8611 -0.4206 -0.2856
vn 0.9078 -0.2542 -0.3336
vn 0.1893 0.5819 -0.7909
vn 0.1778 0.8512 -0.4937
vn 0.3601 0.8070 -0.4681
vn 0.3728 0.5534 -0.7448
vn 0.1930 0.9747 -0.1126
vn 0.3788 0.9188 -0.1109
vn 0.9591 0.2450 -0.1415
vn 0.9050 0.2898 -0.3115
vn 0.8560 0.4473 -0.2594
vn 0.9033 0.4179 -0.0970
vn 0.2124 0.9612 0.1762
vn 0.1967 0.9224 0.3325
vn 0.4280 0.8596 0.2790
vn 0.4211 0.9007 0.1068
vn 0.2091 -0.2875 0.9347
vn 0.4121 -0.3219 0.8524
vn 0.4280 -0.1494 0.8913
vn 0.1967 -0.1309 0.9717
vn 0.9806 0.1035 0.1663
vn 0.9467 0.2561 0.1953
vn 0.9395 0.1778 0.2929
vn 0.9474 0.0561 0.3152
vn 0.2053 -0.9615 0.1826
vn 0.4093 -0.9045 0.1194
vn 0.4111 -0.8623 0.2957
vn 0.1915 -0.9181 0.3469
vn 0.9790 -0.1116 0.1704
vn 0.9431 -0.0666 0.3256
vn 0.9330 -0.1956 0.3020
vn 0.9428 -0.2713 0.1940
vn 0.2034 0.2268 0.9525
vn 0.1915 0.0590 0.9797
vn 0.4111 0.0828 0.9078
vn 0.4045 0.2617 0.8763
vn -0.1859 -0.9733 -0.1346
vn -0.3663 -0.9212 -0.1308
vn -0.3441 -0.7767 -0.5275
vn -0.1694 -0.8153 -0.5537
vn -0.9603 -0.2312 -0.1564
vn -0.9078 -0.2542 -0.3336
vn -0.8611 -0.4206 -0.2856
vn -0.9067 -0.4064 -0.1132
vn -0.1830 -0.4842 -0.8556
vn -0.3614 -0.4622 -0.8098
vn -0.1893 0.5819 -0.7909
vn -0.3728 0.5534 -0.7448
vn -0.3601 0.8070 -0.4681
vn -0.1778 0.8512 -0.4937
vn -0.9591 0.2450 -0.1415
vn -0.9033 0.4179 -0.0970
vn -0.8560 0.4473 -0.2594
vn -0.9050 0.2898 -0.3115
vn -0.1930 0.9747 -0.1126
vn -0.3788 0.9188 -0.1109
vn -0.2124 0.9612 0.1762
vn -0.4211 0.9007 0.1068
vn -0.4280 0.8596 0.2790
vn -0.1967 0.9224 0.3325
vn -0.9806 0.1035 0.1663
vn -0.9474 0.0561 0.3152
vn -0.9395 0.1778 0.2929
vn -0.9467 0.2561 0.1953
vn -0.2091 -0.2875 0.9347
vn -0.1967 -0.1309 0.9717
vn -0.4280 -0.1494 0.8913
vn -0.4121 -0.3219 0.8524
vn -0.2053 -0.9615 0.1826
vn -0.1915 -0.9181 0.3469
vn -0.4111 -0.8623 0.2957
vn -0.4093 -0.9045 0.1194
vn -0.2034 0.2268 0.9525
vn -0.4045 0.2617 0.8763
vn -0.4111 0.0828 0.9078
vn -0.1915 0.0590 0.9797
vn -0.9790 -0.1116 0.1704
vn -0.9428 -0.2713 0.1940
vn -0.9330 -0.1956 0.3020
vn -0.9431 -0.0666 0.3256
vn 0.1965 -0.3295 -0.9235
vn 0.3869 -0.3100 -0.8685
vn 0.9233 -0.1292 -0.3618
vn 0.9798 -0.0673 -0.1884
vn 0.1940 -0.2420 -0.9507
vn 0.3832 -0.2278 -0.8951
vn 0.9241 -0.0943 -0.3703
vn 0.9794 -0.0498 -0.1955
vn 0.1938 -0.1105 -0.9748
vn 0.3837 -0.1040 -0.9176
vn 0.9243 -0.0430 -0.3793
vn 0.9790 -0.0230 -0.2025
vn 0.1937 0.0507 -0.9797
vn 0.3839 0.0477 -0.9221
vn 0.9244 0.0197 -0.3809
vn 0.9788 0.0106 -0.2044
vn 0.1938 0.2139 -0.9575
vn 0.3838 0.2013 -0.9012
vn 0.9243 0.0832 -0.3724
vn 0.9789 0.0445 -0.1993
vn 0.1939 0.3513 -0.9160
vn 0.3834 0.3307 -0.8624
vn 0.9242 0.1368 -0.3567
vn 0.9793 0.0725 -0.1890
vn 0.1982 0.4487 -0.8714
vn 0.3905 0.4215 -0.8184
vn 0.9227 0.1767 -0.3427
vn 0.9794 0.0926 -0.1795
vn 0.1999 -0.4117 0.8891
vn 0.3895 -0.3868 0.8358
vn 0.9229 -0.1619 0.3494
vn 0.9805 -0.0826 0.1783
vn 0.1971 -0.3090 0.9304
vn 0.3834 -0.2911 0.8765
vn 0.9242 -0.1204 0.3625
vn 0.9808 -0.0615 0.1851
vn 0.1977 -0.1663 0.9661
vn 0.3838 -0.1566 0.9100
vn 0.9243 -0.0647 0.3760
vn 0.9808 -0.0330 0.1920
vn 0.1979 -0.0005 0.9802
vn 0.3839 -0.0005 0.9234
vn 0.9244 -0.0002 0.3814
vn 0.9808 -0.0001 0.1948
vn 0.1975 0.1593 0.9673
vn 0.3836 0.1500 0.9112
vn 0.9243 0.0620 0.3767
vn 0.9808 0.0317 0.1923
vn 0.1967 0.2869 0.9375
vn 0.3832 0.2703 0.8832
vn 0.9241 0.1118 0.3654
vn 0.9808 0.0571 0.1865
vn 0.1987 0.3703 0.9074
vn 0.3879 0.3481 0.8534
vn 0.9231 0.1453 0.3561
vn 0.9806 0.0742 0.1817
vn -0.9798 -0.0673 -0.1884
vn -0.9233 -0.1292 -0.3618
vn -0.3869 -0.3100 -0.8685
vn -0.1965 -0.3295 -0.9235
vn -0.9794 -0.0498 -0.1955
vn -0.9241 -0.0943 -0.3703
vn -0.3832 -0.2278 -0.8951
vn -0.1940 -0.2420 -0.9507
vn -0.9790 -0.0230 -0.2025
vn -0.9243 -0.0430 -0.3793
vn -0.3837 -0.1040 -0.9176
vn -0.1938 -0.1105 -0.9748
vn -0.9788 0.0106 -0.2044
vn -0.9244 0.0197 -0.3809
vn -0.3839 0.0477 -0.9221
vn -0.1937 0.0507 -0.9797
vn -0.9789 0.0445 -0.1993
vn -0.9243 0.0832 -0.3724
vn -0.3838 0.2013 -0.9012
vn -0.1938 0.2139 -0.9575
vn -0.9793 0.0725 -0.1890
vn -0.9242 0.1368 -0.3567
vn -0.3834 0.3307 -0.8624
vn -0.1939 0.3513 -0.9160
vn -0.9794 0.0926 -0.1795
vn -0.9227 0.1767 -0.3427
vn -0.3905 0.4215 -0.8184
vn -0.1982 0.4487 -0.8714
vn -0.9805 -0.0826 0.1783
vn -0.9229 -0.1619 0.3494
vn -0.3895 -0.3868 0.8358
vn -0.1999 -0.4117 0.8891
vn -0.9808 -0.0615 0.1851
vn -0.9242 -0.1204 0.3625
vn -0.3834 -0.2911 0.8765
vn -0.1971 -0.3090 0.9304
vn -0.9808 -0.0330 0.1920
vn -0.9243 -0.0647 0.3760
vn -0.3838 -0.1566 0.9100
vn -0.1977 -0.1663 0.9661
vn -0.9808 -0.0001 0.1948
vn -0.9244 -0.0002 0.3814
vn -0.3839 -0.0005 0.9234
vn -0.1979 -0.0005 0.9802
vn -0.9808 0.0317 0.1923
vn -0.9243 0.0620 0.3767
vn -0.3836 0.1500 0.9112
vn -0.1975 0.1593 0.9673
vn -0.9808 0.0571 0.1865
vn -0.9241 0.1118 0.3654
vn -0.3832 0.2703 0.8832
vn -0.1967 0.2869 0.9375
vn -0.9806 0.0742 0.1817
vn -0.9231 0.1453 0.3561
vn -0.3879 0.3481 0.8534
vn -0.1987 0.3703 0.9074
vn -0.1859 0.9733 -0.1346
vn -0.1694 0.8153 -0.5537
vn -0.3441 0.7767 -0.5275
vn -0.3663 0.9212 -0.1308
vn -0.1830 0.4842 -0.8556
vn -0.3614 0.4622 -0.8098
vn -0.9603 0.2312 -0.1564
vn -0.9067 0.4064 -0.1132
vn -0.8611 0.4206 -0.2856
vn -0.9078 0.2542 -0.3336
vn -0.1893 -0.5819 -0.7909
vn -0.1778 -0.8512 -0.4937
vn -0.3601 -0.8070 -0.4681
vn -0.3728 -0.5534 -0.7448
vn -0.1930 -0.9747 -0.1126
vn -0.3788 -0.9188 -0.1109
vn -0.9591 -0.2450 -0.1415
vn -0.9050 -0.2898 -0.3115
vn -0.8560 -0.4473 -0.2594
vn -0.9033 -0.4179 -0.0970
vn -0.2124 -0.9612 0.1762
vn -0.1967 -0.9224 0.3325
vn -0.4280 -0.8596 0.2790
vn -0.4211 -0.9007 0.1068
vn -0.2091 0.2875 0.9347
vn -0.4121 0.3219 0.8524
vn -0.4280 0.1494 0.8913
vn -0.1967 0.1309 0.9717
vn -0.9806 -0.1035 0.1663
vn -0.9467 -0.2561 0.1953
vn -0.9395 -0.1778 0.2929
vn -0.9474 -0.0561 0.3152
vn -0.2053 0.9615 0.1826
vn -0.4093 0.9045 0.1194
vn -0.4111 0.8623 0.2957
vn -0.1915 0.9181 0.3469
vn -0.9790 0.1116 0.1704
vn -0.9431 0.0666 0.3256
vn -0.9330 0.1956 0.3020
vn -0.9428 0.2713 0.1940
vn -0.2034 -0.2268 0.9525
vn -0.1915 -0.0590 0.9797
vn -0.4111 -0.0828 0.9078
vn -0.4045 -0.2617 0.8763
vn 0.1859 0.9733 -0.1346
vn 0.3663 0.9212 -0.1308
vn 0.3441 0.7767 -0.5275
vn 0.1694 0.8153 -0.5537
vn 0.9603 0.2312 -0.1564
vn 0.9078 0.2542 -0.3336
vn 0.8611 0.4206 -0.2856
vn 0.9067 0.4064 -0.1132
vn 0.1830 0.4842 -0.8556
vn 0.3614 0.4622 -0.8098
vn 0.1893 -0.5819 -0.7909
vn 0.3728 -0.5534 -0.7448
vn 0.3601 -0.8070 -0.4681
vn 0.1778 -0.8512 -0.4937
vn 0.9591 -0.2450 -0.1415
vn 0.9033 -0.4179 -0.0970
vn 0.8560 -0.4473 -0.2594
vn 0.9050 -0.2898 -0.3115
vn 0.1930 -0.9747 -0.1126
vn 0.3788 -0.9188 -0.1109
vn 0.2124 -0.9612 0.1762
vn 0.4211 -0.9007 0.1068
vn 0.4280 -0.8596 0.2790
vn 0.1967 -0.9224 0.3325
vn 0.9806 -0.1035 0.1663
vn 0.9474 -0.0561 0.3152
vn 0.9395 -0.1778 0.2929
vn 0.9467 -0.2561 0.1953
vn 0.2091 0.2875 0.9347
vn 0.1967 0.1309 0.9717
vn 0.4280 0.1494 0.8913
vn 0.4121 0.3219 0.8524
vn 0.2053 0.9615 0.1826
vn 0.1915 0.9181 0.3469
vn 0.4111 0.8623 0.2957
vn 0.4093 0.9045 0.1194
vn 0.2034 -0.2268 0.9525
vn 0.4045 -0.2617 0.8763
vn 0.4111 -0.0828 0.9078
vn 0.1915 -0.0590 0.9797
vn 0.9790 0.1116 0.1704
vn 0.9428 0.2713 0.1940
vn 0.9330 0.1956 0.3020
vn 0.9431 0.0666 0.3256
vn -0.1965 0.3295 -0.9235
vn -0.3869 0.3100 -0.8685
vn -0.9233 0.1292 -0.3618
vn -0.9798 0.0673 -0.1884
vn -0.1940 0.2420 -0.9507
vn -0.3832 0.2278 -0.8951
vn -0.9241 0.0943 -0.3703
vn -0.9794 0.0498 -0.1955
vn -0.1938 0.1105 -0.9748
vn -0.3837 0.1040 -0.9176
vn -0.9243 0.0430 -0.3793
vn -0.9790 0.0230 -0.2025
vn -0.1937 -0.0507 -0.9797
vn -0.3839 -0.0477 -0.9221
vn -0.9244 -0.0197 -0.3809
vn -0.9788 -0.0106 -0.2044
vn -0.1938 -0.2139 -0.9575
vn -0.3838 -0.2013 -0.9012
vn -0.9243 -0.0832 -0.3724
vn -0.9789 -0.0445 -0.1993
vn -0.1939 -0.3513 -0.9160
vn -0.3834 -0.3307 -0.8624
vn -0.9242 -0.1368 -0.3567
vn -0.9793 -0.0725 -0.1890
vn -0.1982 -0.4487 -0.8714
vn -0.3905 -0.4215 -0.8184
vn -0.9227 -0.1767 -0.3427
vn -0.9794 -0.0926 -0.1795
vn -0.1999 0.4117 0.8891
vn -0.3895 0.3868 0.8358
vn -0.9229 0.1619 0.3494
vn -0.9805 0.0826 0.1783
vn -0.1971 0.3090 0.9304
vn -0.3834 0.2911 0.8765
vn -0.9242 0.1204 0.3625
vn -0.9808 0.0615 0.1851
vn -0.1977 0.1663 0.9661
vn -0.3838 0.1566 0.9100
vn -0.9243 0.0647 0.3760
vn -0.9808 0.0330 0.1920
vn -0.1979 0.0005 0.9802
vn -0.3839 0.0005 0.9234
vn -0.9244 0.0002 0.3814
vn -0.9808 0.0001 0.1948
vn -0.1975 -0.1593 0.9673
vn -0.3836 -0.1500 0.9112
vn -0.9243 -0.0620 0.3767
vn -0.9808 -0.0317 0.1923
vn -0.1967 -0.2869 0.9375
vn -0.3832 -0.2703 0.8832
vn -0.9241 -0.1118 0.3654
vn -0.9808 -0.0571 0.1865
vn -0.1987 -0.3703 0.9074
vn -0.3879 -0.3481 0.8534
vn -0.9231 -0.1453 0.3561
vn -0.9806 -0.0742 0.1817
vn 0.9798 0.0673 -0.1884
vn 0.9233 0.1292 -0.3618
vn 0.3869 0.3100 -0.8685
vn 0.1965 0.3295 -0.9235
vn 0.9794 0.0498 -0.1955
vn 0.9241 0.0943 -0.3703
vn 0.3832 0.2278 -0.8951
vn 0.1940 0.2420 -0.9507
vn 0.9790 0.0230 -0.2025
vn 0.9243 0.0430 -0.3793
vn 0.3837 0.1040 -0.9176
vn 0.1938 0.1105 -0.9748
vn 0.9788 -0.0106 -0.2044
vn 0.9244 -0.0197 -0.3809
vn 0.3839 -0.0477 -0.9221
vn 0.1937 -0.0507 -0.9797
vn 0.9789 -0.0445 -0.1993
vn 0.9243 -0.0832 -0.3724
vn 0.3838 -0.2013 -0.9012
vn 0.1938 -0.2139 -0.9575
vn 0.9793 -0.0725 -0.1890
vn 0.9242 -0.1368 -0.3567
vn 0.3834 -0.3307 -0.8624
vn 0.1939 -0.3513 -0.9160
vn 0.9794 -0.0926 -0.1795
vn 0.9227 -0.1767 -0.3427
vn 0.3905 -0.4215 -0.8184
vn 0.1982 -0.4487 -0.8714
vn 0.9805 0.0826 0.1783
vn 0.9229 0.1619 0.3494
vn 0.3895 0.3868 0.8358
vn 0.1999 0.4117 0.8891
vn 0.9808 0.0615 0.1851
vn 0.9242 0.1204 0.3625
vn 0.3834 0.2911 0.8765
vn 0.1971 0.3090 0.9304
vn 0.9808 0.0330 0.1920
vn 0.9243 0.0647 0.3760
vn 0.3838 0.1566 0.9100
vn 0.1977 0.1663 0.9661
vn 0.9808 0.0001 0.1948
vn 0.9244 0.0002 0.3814
vn 0.3839 0.0005 0.9234
vn 0.1979 0.0005 0.9802
vn 0.9808 -0.0317 0.1923
vn 0.9243 -0.0620 0.3767
vn 0.3836 -0.1500 0.9112
vn 0.1975 -0.1593 0.9673
vn 0.9808 -0.0571 0.1865
vn 0.9241 -0.1118 0.3654
vn 0.3832 -0.2703 0.8832
vn 0.1967 -0.2869 0.9375
vn 0.9806 -0.0742 0.1817
vn 0.9231 -0.1453 0.3561
vn 0.3879 -0.3481 0.8534
vn 0.1987 -0.3703 0.9074
vn 0.9988 0.0480 -0.0000
vn 0.8999 0.0480 -0.4334
vn 0.9009 -0.0148 -0.4338
vn 0.9999 -0.0148 -0.0000
vn 0.6228 0.0480 -0.7809
vn 0.6234 -0.0148 -0.7817
vn 0.2223 0.0480 -0.9738
vn 0.2225 -0.0148 -0.9748
vn -0.2223 0.0480 -0.9738
vn -0.2225 -0.0148 -0.9748
vn -0.6228 0.0480 -0.7809
vn -0.6234 -0.0148 -0.7817
vn -0.8999 0.0480 -0.4334
vn -0.9009 -0.0148 -0.4338
vn -0.9988 0.0480 -0.0000
vn -0.9999 -0.0148 -0.0000
vn -0.8999 0.0480 0.4334
vn -0.9009 -0.0148 0.4338
vn -0.6228 0.0480 0.7809
vn -0.6234 -0.0148 0.7817
vn -0.2223 0.0480 0.9738
vn -0.2225 -0.0148 0.9748
vn 0.2223 0.0480 0.9738
vn 0.2225 -0.0148 0.9748
vn 0.6228 0.0480 0.7809
vn 0.6234 -0.0148 0.7817
vn 0.8999 0.0480 0.4334
vn 0.9009 -0.0148 0.4338
vn 0.9008 -0.0170 -0.4338
vn 0.9999 -0.0170 -0.0000
vn 0.6234 -0.0170 -0.7817
vn 0.2225 -0.0170 -0.9748
vn -0.2225 -0.0170 -0.9748
vn -0.6234 -0.0170 -0.7817
vn -0.9008 -0.0170 -0.4338
vn -0.9999 -0.0170 -0.0000
vn -0.9008 -0.0170 0.4338
vn -0.6234 -0.0170 0.7817
vn -0.2225 -0.0170 0.9748
vn 0.2225 -0.0170 0.9748
vn 0.6234 -0.0170 0.7817
vn 0.9008 -0.0170 0.4338
vn 0.9003 0.0396 -0.4335
vn 0.9992 0.0396 -0.0000
vn 0.6230 0.0396 -0.7812
vn 0.2223 0.0396 -0.9742
vn -0.2223 0.0396 -0.9742
vn -0.6230 0.0396 -0.7812
vn -0.9003 0.0396 -0.4335
vn -0.9992 0.0396 -0.0000
vn -0.9003 0.0396 0.4335
vn -0.6230 0.0396 0.7812
vn -0.2223 0.0396 0.9742
vn 0.2223 0.0396 0.9742
vn 0.6230 0.0396 0.7812
vn 0.9003 0.0396 0.4335
vn 0.8974 0.0894 -0.4321
vn 0.9960 0.0894 -0.0000
vn 0.6210 0.0894 -0.7787
vn 0.2216 0.0894 -0.9710
vn -0.2216 0.0894 -0.9710
vn -0.6210 0.0894 -0.7787
vn -0.8974 0.0894 -0.4321
vn -0.9960 0.0894 -0.0000
vn -0.8974 0.0894 0.4321
vn -0.6210 0.0894 0.7787
vn -0.2216 0.0894 0.9710
vn 0.2216 0.0894 0.9710
vn 0.6210 0.0894 0.7787
vn 0.8974 0.0894 0.4321
vn 0.8979 0.0829 -0.4324
vn 0.9966 0.0829 -0.0000
vn 0.6213 0.0829 -0.7791
vn 0.2218 0.0829 -0.9716
vn -0.2218 0.0829 -0.9716
vn -0.6213 0.0829 -0.7791
vn -0.8979 0.0829 -0.4324
vn -0.9966 0.0829 -0.0000
vn -0.8979 0.0829 0.4324
vn -0.6213 0.0829 0.7791
vn -0.2218 0.0829 0.9716
vn 0.2218 0.0829 0.9716
vn 0.6213 0.0829 0.7791
vn 0.8979 0.0829 0.4324
vn 0.9008 0.0167 -0.4338
vn 0.9999 0.0167 -0.0000
vn 0.6234 0.0167 -0.7817
vn 0.2225 0.0167 -0.9748
vn -0.2225 0.0167 -0.9748
vn -0.6234 0.0167 -0.7817
vn -0.9008 0.0167 -0.4338
vn -0.9999 0.0167 -0.0000
vn -0.9008 0.0167 0.4338
vn -0.6234 0.0167 0.7817
vn -0.2225 0.0167 0.9748
vn 0.2225 0.0167 0.9748
vn 0.6234 0.0167 0.7817
vn 0.9008 0.0167 0.4338
vn 0.8999 -0.0481 -0.4334
vn 0.9988 -0.0481 -0.0000
vn 0.6228 -0.0481 -0.7809
vn 0.2223 -0.0481 -0.9738
vn -0.2223 -0.0481 -0.9738
vn -0.6228 -0.0481 -0.7809
vn -0.8999 -0.0481 -0.4334
vn -0.9988 -0.0481 -0.0000
vn -0.8999 -0.0481 0.4334
vn -0.6228 -0.0481 0.7809
vn -0.2223 -0.0481 0.9738
vn 0.2223 -0.0481 0.9738
vn 0.6228 -0.0481 0.7809
vn 0.8999 -0.0481 0.4334
vn 0.8996 -0.0559 -0.4332
vn 0.9984 -0.0559 -0.0000
vn 0.6225 -0.0559 -0.7806
vn 0.2222 -0.0559 -0.9734
vn -0.2222 -0.0559 -0.9734
vn -0.6225 -0.0559 -0.7806
vn -0.8996 -0.0559 -0.4332
vn -0.9984 -0.0559 -0.0000
vn -0.8996 -0.0559 0.4332
vn -0.6225 -0.0559 0.7806
vn -0.2222 -0.0559 0.9734
vn 0.2222 -0.0559 0.9734
vn 0.6225 -0.0559 0.7806
vn 0.8996 -0.0559 0.4332
vn 0.9009 -0.0090 -0.4339
vn 1.0000 -0.0090 -0.0000
vn 0.6235 -0.0090 -0.7818
vn 0.2225 -0.0090 -0.9749
vn -0.2225 -0.0090 -0.9749
vn -0.6235 -0.0090 -0.7818
vn -0.9009 -0.0090 -0.4339
vn -1.0000 -0.0090 -0.0000
vn -0.9009 -0.0090 0.4339
vn -0.6235 -0.0090 0.7818
vn -0.2225 -0.0090 0.9749
vn 0.2225 -0.0090 0.9749
vn 0.6235 -0.0090 0.7818
vn 0.9009 -0.0090 0.4339
vn 0.9003 0.0394 -0.4335
vn 0.9992 0.0394 -0.0000
vn 0.6230 0.0394 -0.7812
vn 0.2223 0.0394 -0.9742
vn -0.2223 0.0394 -0.9742
vn -0.6230 0.0394 -0.7812
vn -0.9003 0.0394 -0.4335
vn -0.9992 0.0394 -0.0000
vn -0.9003 0.0394 0.4335
vn -0.6230 0.0394 0.7812
vn -0.2223 0.0394 0.9742
vn 0.2223 0.0394 0.9742
vn 0.6230 0.0394 0.7812
vn 0.9003 0.0394 0.4335
vn 0.9005 0.0326 -0.4337
vn 0.9995 0.0326 -0.0000
vn 0.6232 0.0326 -0.7814
vn 0.2224 0.0326 -0.9744
vn -0.2224 0.0326 -0.9744
vn -0.6232 0.0326 -0.7814
vn -0.9005 0.0326 -0.4337
vn -0.9995 0.0326 -0.0000
vn -0.9005 0.0326 0.4337
vn -0.6232 0.0326 0.7814
vn -0.2224 0.0326 0.9744
vn 0.2224 0.0326 0.9744
vn 0.6232 0.0326 0.7814
vn 0.9005 0.0326 0.4337
vn 0.9005 -0.0313 -0.4337
vn 0.9995 -0.0313 -0.0000
vn 0.6232 -0.0313 -0.7814
vn 0.2224 -0.0313 -0.9744
vn -0.2224 -0.0313 -0.9744
vn -0.6232 -0.0313 -0.7814
vn -0.9005 -0.0313 -0.4337
vn -0.9995 -0.0313 -0.0000
vn -0.9005 -0.0313 0.4337
vn -0.6232 -0.0313 0.7814
vn -0.2224 -0.0313 0.9744
vn 0.2224 -0.0313 0.9744
vn 0.6232 -0.0313 0.7814
vn 0.9005 -0.0313 0.4337
vn 0.8966 -0.0980 -0.4318
vn 0.9952 -0.0980 -0.0000
vn 0.6205 -0.0980 -0.7781
vn 0.2215 -0.0980 -0.9702
vn -0.2215 -0.0980 -0.9702
vn -0.6205 -0.0980 -0.7781
vn -0.8966 -0.0980 -0.4318
vn -0.9952 -0.0980 -0.0000
vn -0.8966 -0.0980 0.4318
vn -0.6205 -0.0980 0.7781
vn -0.2215 -0.0980 0.9702
vn 0.2215 -0.0980 0.9702
vn 0.6205 -0.0980 0.7781
vn 0.8966 -0.0980 0.4318
vn 0.8962 -0.1024 -0.4316
vn 0.9947 -0.1024 -0.0000
vn 0.6202 -0.1024 -0.7777
vn 0.2214 -0.1024 -0.9698
vn -0.2214 -0.1024 -0.9698
vn -0.6202 -0.1024 -0.7777
vn -0.8962 -0.1024 -0.4316
vn -0.9947 -0.1024 -0.0000
vn -0.8962 -0.1024 0.4316
vn -0.6202 -0.1024 0.7777
vn -0.2214 -0.1024 0.9698
vn 0.2214 -0.1024 0.9698
vn 0.6202 -0.1024 0.7777
vn 0.8962 -0.1024 0.4316
vn 0.8999 -0.0485 -0.4334
vn 0.9988 -0.0485 -0.0000
vn 0.6228 -0.0485 -0.7809
vn 0.2223 -0.0485 -0.9738
vn -0.2223 -0.0485 -0.9738
vn -0.6228 -0.0485 -0.7809
vn -0.8999 -0.0485 -0.4334
vn -0.9988 -0.0485 -0.0000
vn -0.8999 -0.0485 0.4334
vn -0.6228 -0.0485 0.7809
vn -0.2223 -0.0485 0.9738
vn 0.2223 -0.0485 0.9738
vn 0.6228 -0.0485 0.7809
vn 0.8999 -0.0485 0.4334
vn 0.9009 0.0137 -0.4338
vn 0.9999 0.0137 -0.0000
vn 0.6234 0.0137 -0.7818
vn 0.2225 0.0137 -0.9748
vn -0.2225 0.0137 -0.9748
vn -0.6234 0.0137 -0.7818
vn -0.9009 0.0137 -0.4338
vn -0.9999 0.0137 -0.0000
vn -0.9009 0.0137 0.4338
vn -0.6234 0.0137 0.7818
vn -0.2225 0.0137 0.9748
vn 0.2225 0.0137 0.9748
vn 0.6234 0.0137 0.7818
vn 0.9009 0.0137 0.4338
vn 0.2203 -0.9754 -0.0000
vn 0.1985 -0.9754 -0.0956
vn 0.3428 -0.9248 -0.1651
vn 0.3805 -0.9248 -0.0000
vn 0.9358 -0.3524 -0.0000
vn 0.8432 -0.3524 -0.4060
vn 0.8907 -0.1509 -0.4289
vn 0.9886 -0.1509 -0.0000
vn 0.1374 -0.9754 -0.1722
vn 0.2372 -0.9248 -0.2975
vn 0.5835 -0.3524 -0.7317
vn 0.6164 -0.1509 -0.7729
vn 0.0490 -0.9754 -0.2148
vn 0.0847 -0.9248 -0.3710
vn 0.2082 -0.3524 -0.9124
vn 0.2200 -0.1509 -0.9638
vn -0.0490 -0.9754 -0.2148
vn -0.0847 -0.9248 -0.3710
vn -0.2082 -0.3524 -0.9124
vn -0.2200 -0.1509 -0.9638
vn -0.1373 -0.9754 -0.1722
vn -0.2372 -0.9248 -0.2975
vn -0.5835 -0.3524 -0.7317
vn -0.6164 -0.1509 -0.7729
vn -0.1985 -0.9754 -0.0956
vn -0.3428 -0.9248 -0.1651
vn -0.8432 -0.3524 -0.4060
vn -0.8907 -0.1509 -0.4289
vn -0.2203 -0.9754 -0.0000
vn -0.3805 -0.9248 -0.0000
vn -0.9358 -0.3524 -0.0000
vn -0.9886 -0.1509 -0.0000
vn -0.1985 -0.9754 0.0956
vn -0.3428 -0.9248 0.1651
vn -0.8432 -0.3524 0.4060
vn -0.8907 -0.1509 0.4289
vn -0.1374 -0.9754 0.1722
vn -0.2372 -0.9248 0.2975
vn -0.5835 -0.3524 0.7317
vn -0.6164 -0.1509 0.7729
vn -0.0490 -0.9754 0.2148
vn -0.0847 -0.9248 0.3710
vn -0.2082 -0.3524 0.9124
vn -0.2200 -0.1509 0.9638
vn 0.0490 -0.9754 0.2148
vn 0.0847 -0.9248 0.3710
vn 0.2082 -0.3524 0.9124
vn 0.2200 -0.1509 0.9638
vn 0.1373 -0.9754 0.1722
vn 0.2372 -0.9248 0.2975
vn 0.5835 -0.3524 0.7317
vn 0.6164 -0.1509 0.7729
vn 0.1985 -0.9754 0.0956
vn 0.3428 -0.9248 0.1651
vn 0.8432 -0.3524 0.4060
vn 0.8907 -0.1509 0.4289
vn 0.9650 0.2621 -0.0000
vn 0.8695 0.2621 -0.4187
vn 0.8046 0.4501 -0.3875
vn 0.8930 0.4501 -0.0000
vn 0.3637 0.9315 -0.0000
vn 0.3277 0.9315 -0.1578
vn 0.1895 0.9776 -0.0912
vn 0.2103 0.9776 -0.0000
vn 0.6017 0.2621 -0.7545
vn 0.5568 0.4501 -0.6982
vn 0.2268 0.9315 -0.2843
vn 0.1311 0.9776 -0.1644
vn 0.2147 0.2621 -0.9408
vn 0.1987 0.4501 -0.8706
vn 0.0809 0.9315 -0.3546
vn 0.0468 0.9776 -0.2050
vn -0.2147 0.2621 -0.9408
vn -0.1987 0.4501 -0.8706
vn -0.0809 0.9315 -0.3546
vn -0.0468 0.9776 -0.2050
vn -0.6017 0.2621 -0.7545
vn -0.5568 0.4501 -0.6982
vn -0.2268 0.9315 -0.2843
vn -0.1311 0.9776 -0.1644
vn -0.8695 0.2621 -0.4187
vn -0.8046 0.4501 -0.3875
vn -0.3277 0.9315 -0.1578
vn -0.1895 0.9776 -0.0912
vn -0.9650 0.2621 -0.0000
vn -0.8930 0.4501 -0.0000
vn -0.3637 0.9315 -0.0000
vn -0.2103 0.9776 -0.0000
vn -0.8695 0.2621 0.4187
vn -0.8046 0.4501 0.3875
vn -0.3277 0.9315 0.1578
vn -0.1895 0.9776 0.0912
vn -0.6017 0.2621 0.7545
vn -0.5568 0.4501 0.6982
vn -0.2268 0.9315 0.2843
vn -0.1311 0.9776 0.1644
vn -0.2147 0.2621 0.9408
vn -0.1987 0.4501 0.8706
vn -0.0809 0.9315 0.3546
vn -0.0468 0.9776 0.2050
vn 0.2147 0.2621 0.9408
vn 0.1987 0.4501 0.8706
vn 0.0809 0.9315 0.3546
vn 0.0468 0.9776 0.2050
vn 0.6017 0.2621 0.7545
vn 0.5568 0.4501 0.6982
vn 0.2268 0.9315 0.2843
vn 0.1311 0.9776 0.1644
vn 0.8695 0.2621 0.4187
vn 0.8046 0.4501 0.3875
vn 0.3277 0.9315 0.1578
vn 0.1895 0.9776 0.0912
vn 0.8660 -0.0000 -0.5000
vn -0.0000 -0.0000 -1.0000
vn -0.8660 -0.0000 -0.5000
vn -0.8660 -0.0000 0.5000
vn -0.0000 -0.0000 1.0000
vn 0.8660 -0.0000 0.5000
vn -0.0000 -1.0000 -0.0000
vn -0.0000 1.0000 -0.0000
s 1
f 1//1 4//2 5//3 7//4
f 2//5 6//6 5//3 4//2
f 3//7 7//8 5//9 6//10
f 29//11 32//12 33//13 35//14
f 30//15 34//16 33//13 32//12
f 31//17 35//18 33//19 34//20
f 36//21 39//22 40//23 42//24
f 37//25 41//26 40//27 39//28
f 38//29 42//30 40//31 41//32
f 64//33 67//34 68//35 70//36
f 65//37 69//38 68//39 67//40
f 66//41 70//42 68//43 69//44
f 71//45 74//46 75//47 77//48
f 72//49 76//50 75//51 74//52
f 73//53 77//48 75//47 76//54
f 99//55 102//56 103//57 105//58
f 100//59 104//60 103//61 102//62
f 101//63 105//58 103//57 104//64
f 106//65 109//66 110//67 112//68
f 107//69 111//70 110//71 109//72
f 108//73 112//74 110//75 111//76
f 134//77 137//78 138//79 140//80
f 135//81 139//82 138//83 137//84
f 136//85 140//86 138//87 139//88
f 3//7 65//37 67//40 7//8
f 7//4 67//34 64//33 1//1
f 2//5 8//89 10//90 6//6
f 6//10 10//91 9//92 3//7
f 8//89 11//93 13//94 10//90
f 10//91 13//95 12//96 9//92
f 11//93 14//97 16//98 13//94
f 13//95 16//99 15//100 12//96
f 14//97 17//101 19//102 16//98
f 16//99 19//103 18//104 15//100
f 17//101 20//105 22//106 19//102
f 19//103 22//107 21//108 18//104
f 20//105 23//109 25//110 22//106
f 22//107 25//111 24//112 21//108
f 23//109 26//113 28//114 25//110
f 25//111 28//115 27//116 24//112
f 26//113 29//11 35//14 28//114
f 28//115 35//18 31//17 27//116
f 30//15 36//21 42//24 34//16
f 34//20 42//30 38//29 31//17
f 37//25 43//117 45//118 41//26
f 41//32 45//119 44//120 38//29
f 43//117 46//121 48//122 45//118
f 45//119 48//123 47//124 44//120
f 46//121 49//125 51//126 48//122
f 48//123 51//127 50//128 47//124
f 49//125 52//129 54//130 51//126
f 51//127 54//131 53//132 50//128
f 52//129 55//133 57//134 54//130
f 54//131 57//135 56//136 53//132
f 55//133 58//137 60//138 57//134
f 57//135 60//139 59//140 56//136
f 58//137 61//141 63//142 60//138
f 60//139 63//143 62//144 59//140
f 61//141 66//41 69//44 63//142
f 63//143 69//38 65//37 62//144
f 71//45 134//77 140//80 74//46
f 74//52 140//86 136//85 72//49
f 72//49 78//145 80//146 76//50
f 76//54 80//147 79//148 73//53
f 78//145 81//149 83//150 80//146
f 80//147 83//151 82//152 79//148
f 81//149 84//153 86//154 83//150
f 83//151 86//155 85//156 82//152
f 84//153 87//157 89//158 86//154
f 86//155 89//159 88//160 85//156
f 87//157 90//161 92//162 89//158
f 89//159 92//163 91//164 88//160
f 90//161 93//165 95//166 92//162
f 92//163 95//167 94//168 91//164
f 93//165 96//169 98//170 95//166
f 95//167 98//171 97//172 94//168
f 96//169 100//59 102//62 98//170
f 98//171 102//56 99//55 97//172
f 100//59 107//69 109//72 104//60
f 104//64 109//66 106//65 101//63
f 107//69 113//173 115//174 111//70
f 111//76 115//175 114//176 108//73
f 113//173 116//177 118//178 115//174
f 115//175 118//179 117//180 114//176
f 116//177 119//181 121//182 118//178
f 118//179 121//183 120//184 117//180
f 119//181 122//185 124//186 121//182
f 121//183 124//187 123//188 120//184
f 122//185 125//189 127//190 124//186
f 124//187 127//191 126//192 123//188
f 125//189 128//193 130//194 127//190
f 127//191 130//195 129//196 126//192
f 128//193 131//197 133//198 130//194
f 130//195 133//199 132//200 129//196
f 131//197 136//85 139//88 133//198
f 133//199 139//82 135//81 132//200
f 1//1 71//45 77//48 4//2
f 4//2 77//48 73//53 2//5
f 29//11 99//55 105//58 32//12
f 32//12 105//58 101//63 30//15
f 36//21 106//65 112//68 39//22
f 39//28 112//74 108//73 37//25
f 66//41 135//81 137//84 70//42
f 70//36 137//78 134//77 64//33
f 1//1 64//33 134//77 71//45
f 3//7 9//92 12//96 15//100 18//104 21//108 24//112 27//116 31//17 38//29 44//120 47//124 50//128 53//132 56//136 59//140 62//144 65//37
f 8//89 2//5 73//53 79//148
f 11//93 8//89 79//148 82//152
f 14//97 11//93 82//152 85//156
f 17//101 14//97 85//156 88//160
f 20//105 17//101 88//160 91//164
f 23//109 20//105 91//164 94//168
f 26//113 23//109 94//168 97//172
f 29//11 26//113 97//172 99//55
f 36//21 30//15 101//63 106//65
f 43//117 37//25 108//73 114//176
f 46//121 43//117 114//176 117//180
f 49//125 46//121 117//180 120//184
f 52//129 49//125 120//184 123//188
f 55//133 52//129 123//188 126//192
f 58//137 55//133 126//192 129//196
f 61//141 58//137 129//196 132//200
f 66//41 61//141 132//200 135//81
f 72//49 136//85 131//197 128//193 125//189 122//185 119//181 116//177 113//173 107//69 100//59 96//169 93//165 90//161 87//157 84//153 81//149 78//145
f 141//201 144//202 145//203 147//204
f 142//205 146//206 145//203 144//202
f 143//207 147//208 145//209 146//210
f 169//211 172//212 173//213 175//214
f 170//215 174//216 173//213 172//212
f 171//217 175//218 173//219 174//220
f 176//221 179//222 180//223 182//224
f 177//225 181//226 180//227 179//228
f 178//229 182//230 180//231 181//232
f 204//233 207//234 208//235 210//236
f 205//237 209//238 208//239 207//240
f 206//241 210//242 208//243 209//244
f 211//245 214//246 215//247 217//248
f 212//249 216//250 215//251 214//252
f 213//253 217//248 215//247 216//254
f 239//255 242//256 243//257 245//258
f 240//259 244//260 243//261 242//262
f 241//263 245//258 243//257 244//264
f 246//265 249//266 250//267 252//268
f 247//269 251//270 250//271 249//272
f 248//273 252//274 250//275 251//276
f 274//277 277//278 278//279 280//280
f 275//281 279//282 278//283 277//284
f 276//285 280//286 278//287 279//288
f 143//207 205//237 207//240 147//208
f 147//204 207//234 204//233 141//201
f 142//205 148//289 150//290 146//206
f 146//210 150//291 149//292 143//207
f 148//289 151//293 153//294 150//290
f 150//291 153//295 152//296 149//292
f 151//293 154//297 156//298 153//294
f 153//295 156//299 155//300 152//296
f 154//297 157//301 159//302 156//298
f 156//299 159//303 158//304 155//300
f 157//301 160//305 162//306 159//302
f 159//303 162//307 161//308 158//304
f 160//305 163//309 165//310 162//306
f 162//307 165//311 164//312 161//308
f 163//309 166//313 168//314 165//310
f 165//311 168//315 167//316 164//312
f 166//313 169//211 175//214 168//314
f 168//315 175//218 171//217 167//316
f 170//215 176//221 182//224 174//216
f 174//220 182//230 178//229 171//217
f 177//225 183//317 185//318 181//226
f 181//232 185//319 184//320 178//229
f 183//317 186//321 188//322 185//318
f 185//319 188//323 187//324 184//320
f 186//321 189//325 191//326 188//322
f 188//323 191//327 190//328 187//324
f 189//325 192//329 194//330 191//326
f 191//327 194//331 193//332 190//328
f 192//329 195//333 197//334 194//330
f 194//331 197//335 196//336 193//332
f 195//333 198//337 200//338 197//334
f 197//335 200//339 199//340 196//336
f 198//337 201//341 203//342 200//338
f 200//339 203//343 202//344 199//340
f 201//341 206//241 209//244 203//342
f 203//343 209//238 205//237 202//344
f 211//245 274//277 280//280 214//246
f 214//252 280//286 276//285 212//249
f 212//249 218//345 220//346 216//250
f 216//254 220//347 219//348 213//253
f 218//345 221//349 223//350 220//346
f 220//347 223//351 222//352 219//348
f 221//349 224//353 226//354 223//350
f 223//351 226//355 225//356 222//352
f 224//353 227//357 229//358 226//354
f 226//355 229//359 228//360 225//356
f 227//357 230//361 232//362 229//358
f 229//359 232//363 231//364 228//360
f 230//361 233//365 235//366 232//362
f 232//363 235//367 234//368 231//364
f 233//365 236//369 238//370 235//366
f 235//367 238//371 237//372 234//368
f 236//369 240//259 242//262 238//370
f 238//371 242//256 239//255 237//372
f 240//259 247//269 249//272 244//260
f 244//264 249//266 246//265 241//263
f 247//269 253//373 255//374 251//270
f 251//276 255//375 254//376 248//273
f 253//373 256//377 258//378 255//374
f 255//375 258//379 257//380 254//376
f 256//377 259//381 261//382 258//378
f 258//379 261//383 260//384 257//380
f 259//381 262//385 264//386 261//382
f 261//383 264//387 263//388 260//384
f 262//385 265//389 267//390 264//386
f 264//387 267//391 266//392 263//388
f 265//389 268//393 270//394 267//390
f 267//391 270//395 269//396 266//392
f 268//393 271//397 273//398 270//394
f 270//395 273//399 272//400 269//396
f 271//397 276//285 279//288 273//398
f 273//399 279//282 275//281 272//400
f 141//201 211//245 217//248 144//202
f 144//202 217//248 213//253 142//205
f 169//211 239//255 245//258 172//212
f 172//212 245//258 241//263 170//215
f 176//221 246//265 252//268 179//222
f 179//228 252//274 248//273 177//225
f 206//241 275//281 277//284 210//242
f 210//236 277//278 274//277 204//233
f 141//201 204//233 274//277 211//245
f 143//207 149//292 152//296 155//300 158//304 161//308 164//312 167//316 171//217 178//229 184//320 187//324 190//328 193//332 196//336 199//340 202//344 205//237
f 148//289 142//205 213//253 219//348
f 151//293 148//289 219//348 222//352
f 154//297 151//293 222//352 225//356
f 157//301 154//297 225//356 228//360
f 160//305 157//301 228//360 231//364
f 163//309 160//305 231//364 234//368
f 166//313 163//309 234//368 237//372
f 169//211 166//313 237//372 239//255
f 176//221 170//215 241//263 246//265
f 183//317 177//225 248//273 254//376
f 186//321 183//317 254//376 257//380
f 189//325 186//321 257//380 260//384
f 192//329 189//325 260//384 263//388
f 195//333 192//329 263//388 266//392
f 198//337 195//333 266//392 269//396
f 201//341 198//337 269//396 272//400
f 206//241 201//341 272//400 275//281
f 212//249 276//285 271//397 268//393 265//389 262//385 259//381 256//377 253//373 247//269 240//259 236//369 233//365 230//361 227//357 224//353 221//349 218//345
f 281//401 282//402 296//403 295//404
f 282//402 283//405 297//406 296//403
f 283//405 284//407 298//408 297//406
f 284//407 285//409 299//410 298//408
f 285//409 286//411 300//412 299//410
f 286//411 287//413 301//414 300//412
f 287//413 288//415 302//416 301//414
f 288//415 289//417 303//418 302//416
f 289//417 290//419 304//420 303//418
f 290//419 291//421 305//422 304//420
f 291//421 292//423 306//424 305//422
f 292//423 293//425 307//426 306//424
f 293//425 294//427 308//428 307//426
f 294//427 281//401 295//404 308//428
f 295//404 296//403 310//429 309//430
f 296//403 297//406 311//431 310//429
f 297//406 298//408 312//432 311//431
f 298//408 299//410 313//433 312//432
f 299//410 300//412 314//434 313//433
f 300//412 301//414 315//435 314//434
f 301//414 302//416 316//436 315//435
f 302//416 303//418 317//437 316//436
f 303//418 304//420 318//438 317//437
f 304//420 305//422 319//439 318//438
f 305//422 306//424 320//440 319//439
f 306//424 307//426 321//441 320//440
f 307//426 308//428 322//442 321//441
f 308//428 295//404 309//430 322//442
f 309//430 310//429 324//443 323//444
f 310//429 311//431 325//445 324//443
f 311//431 312//432 326//446 325//445
f 312//432 313//433 327//447 326//446
f 313//433 314//434 328//448 327//447
f 314//434 315//435 329//449 328//448
f 315//435 316//436 330//450 329//449
f 316//436 317//437 331//451 330//450
f 317//437 318//438 332//452 331//451
f 318//438 319//439 333//453 332//452
f 319//439 320//440 334//454 333//453
f 320//440 321//441 335//455 334//454
f 321//441 322//442 336//456 335//455
f 322//442 309//430 323//444 336//456
f 323//444 324//443 338//457 337//458
f 324//443 325//445 339//459 338//457
f 325//445 326//446 340//460 339//459
f 326//446 327//447 341//461 340//460
f 327//447 328//448 342//462 341//461
f 328//448 329//449 343//463 342//462
f 329//449 330//450 344//464 343//463
f 330//450 331//451 345//465 344//464
f 331//451 332//452 346//466 345//465
f 332//452 333//453 347//467 346//466
f 333//453 334//454 348//468 347//467
f 334//454 335//455 349//469 348//468
f 335//455 336//456 350//470 349//469
f 336//456 323//444 337//458 350//470
f 337//458 338//457 352//471 351//472
f 338//457 339//459 353//473 352//471
f 339//459 340//460 354//474 353//473
f 340//460 341//461 355//475 354//474
f 341//461 342//462 356//476 355//475
f 342//462 343//463 357//477 356//476
f 343//463 344//464 358//478 357//477
f 344//464 345//465 359//479 358//478
f 345//465 346//466 360//480 359//479
f 346//466 347//467 361//481 360//480
f 347//467 348//468 362//482 361//481
f 348//468 349//469 363//483 362//482
f 349//469 350//470 364//484 363//483
f 350//470 337//458 351//472 364//484
f 351//472 352//471 366//485 365//486
f 352//471 353//473 367//487 366//485
f 353//473 354//474 368//488 367//487
f 354//474 355//475 369//489 368//488
f 355//475 356//476 370//490 369//489
f 356//476 357//477 371//491 370//490
f 357//477 358//478 372//492 371//491
f 358//478 359//479 373//493 372//492
f 359//479 360//480 374//494 373//493
f 360//480 361//481 375//495 374//494
f 361//481 362//482 376//496 375//495
f 362//482 363//483 377//497 376//496
f 363//483 364//484 378//498 377//497
f 364//484 351//472 365//486 378//498
f 365//486 366//485 380//499 379//500
f 366//485 367//487 381//501 380//499
f 367//487 368//488 382//502 381//501
f 368//488 369//489 383//503 382//502
f 369//489 370//490 384//504 383//503
f 370//490 371//491 385//505 384//504
f 371//491 372//492 386//506 385//505
f 372//492 373//493 387//507 386//506
f 373//493 374//494 388//508 387//507
f 374//494 375//495 389//509 388//508
f 375//495 376//496 390//510 389//509
f 376//496 377//497 391//511 390//510
f 377//497 378//498 392//512 391//511
f 378//498 365//486 379//500 392//512
f 379//500 380//499 394//513 393//514
f 380//499 381//501 395//515 394//513
f 381//501 382//502 396//516 395//515
f 382//502 383//503 397//517 396//516
f 383//503 384//504 398//518 397//517
f 384//504 385//505 399//519 398//518
f 385//505 386//506 400//520 399//519
f 386//506 387//507 401//521 400//520
f 387//507 388//508 402//522 401//521
f 388//508 389//509 403//523 402//522
f 389//509 390//510 404//524 403//523
f 390//510 391//511 405//525 404//524
f 391//511 392//512 406//526 405//525
f 392//512 379//500 393//514 406//526
f 393//514 394//513 408//527 407//528
f 394//513 395//515 409//529 408//527
f 395//515 396//516 410//530 409//529
f 396//516 397//517 411//531 410//530
f 397//517 398//518 412//532 411//531
f 398//518 399//519 413//533 412//532
f 399//519 400//520 414//534 413//533
f 400//520 401//521 415//535 414//534
f 401//521 402//522 416//536 415//535
f 402//522 403//523 417//537 416//536
f 403//523 404//524 418//538 417//537
f 404//524 405//525 419//539 418//538
f 405//525 406//526 420//540 419//539
f 406//526 393//514 407//528 420//540
f 407//528 408//527 422//541 421//542
f 408//527 409//529 423//543 422//541
f 409//529 410//530 424//544 423//543
f 410//530 411//531 425//545 424//544
f 411//531 412//532 426//546 425//545
f 412//532 413//533 427//547 426//546
f 413//533 414//534 428//548 427//547
f 414//534 415//535 429//549 428//548
f 415//535 416//536 430//550 429//549
f 416//536 417//537 431//551 430//550
f 417//537 418//538 432//552 431//551
f 418//538 419//539 433//553 432//552
f 419//539 420//540 434//554 433//553
f 420//540 407//528 421//542 434//554
f 421//542 422//541 436//555 435//556
f 422//541 423//543 437//557 436//555
f 423//543 424//544 438//558 437//557
f 424//544 425//545 439//559 438//558
f 425//545 426//546 440//560 439//559
f 426//546 427//547 441//561 440//560
f 427//547 428//548 442//562 441//561
f 428//548 429//549 443//563 442//562
f 429//549 430//550 444//564 443//563
f 430//550 431//551 445//565 444//564
f 431//551 432//552 446//566 445//565
f 432//552 433//553 447//567 446//566
f 433//553 434//554 448//568 447//567
f 434//554 421//542 435//556 448//568
f 435//556 436//555 450//569 449//570
f 436//555 437//557 451//571 450//569
f 437//557 438//558 452//572 451//571
f 438//558 439//559 453//573 452//572
f 439//559 440//560 454//574 453//573
f 440//560 441//561 455//575 454//574
f 441//561 442//562 456//576 455//575
f 442//562 443//563 457//577 456//576
f 443//563 444//564 458//578 457//577
f 444//564 445//565 459//579 458//578
f 445//565 446//566 460//580 459//579
f 446//566 447//567 461//581 460//580
f 447//567 448//568 462//582 461//581
f 448//568 435//556 449//570 462//582
f 449//570 450//569 464//583 463//584
f 450//569 451//571 465//585 464//583
f 451//571 452//572 466//586 465//585
f 452//572 453//573 467//587 466//586
f 453//573 454//574 468//588 467//587
f 454//574 455//575 469//589 468//588
f 455//575 456//576 470//590 469//589
f 456//576 457//577 471//591 470//590
f 457//577 458//578 472//592 471//591
f 458//578 459//579 473//593 472//592
f 459//579 460//580 474//594 473//593
f 460//580 461//581 475//595 474//594
f 461//581 462//582 476//596 475//595
f 462//582 449//570 463//584 476//596
f 463//584 464//583 478//597 477//598
f 464//583 465//585 479//599 478//597
f 465//585 466//586 480//600 479//599
f 466//586 467//587 481//601 480//600
f 467//587 468//588 482//602 481//601
f 468//588 469//589 483//603 482//602
f 469//589 470//590 484//604 483//603
f 470//590 471//591 485//605 484//604
f 471//591 472//592 486//606 485//605
f 472//592 473//593 487//607 486//606
f 473//593 474//594 488//608 487//607
f 474//594 475//595 489//609 488//608
f 475//595 476//596 490//610 489//609
f 476//596 463//584 477//598 490//610
f 477//598 478//597 492//611 491//612
f 478//597 479//599 493//613 492//611
f 479//599 480//600 494//614 493//613
f 480//600 481//601 495//615 494//614
f 481//601 482//602 496//616 495//615
f 482//602 483//603 497//617 496//616
f 483//603 484//604 498//618 497//617
f 484//604 485//605 499//619 498//618
f 485//605 486//606 500//620 499//619
f 486//606 487//607 501//621 500//620
f 487//607 488//608 502//622 501//621
f 488//608 489//609 503//623 502//622
f 489//609 490//610 504//624 503//623
f 490//610 477//598 491//612 504//624
f 491//612 492//611 506//625 505//626
f 492//611 493//613 507//627 506//625
f 493//613 494//614 508//628 507//627
f 494//614 495//615 509//629 508//628
f 495//615 496//616 510//630 509//629
f 496//616 497//617 511//631 510//630
f 497//617 498//618 512//632 511//631
f 498//618 499//619 513//633 512//632
f 499//619 500//620 514//634 513//633
f 500//620 501//621 515//635 514//634
f 501//621 502//622 516//636 515//635
f 502//622 503//623 517//637 516//636
f 503//623 504//624 518//638 517//637
f 504//624 491//612 505//626 518//638
f 519//639 522//640 524//641 521//642
f 521//643 524//644 523//645 520//646
f 522//640 525//647 527//648 524//641
f 524//644 527//649 526//650 523//645
f 525//647 528//651 530//652 527//648
f 527//649 530//653 529//654 526//650
f 528//651 531//655 533//656 530//652
f 530//653 533//657 532//658 529//654
f 531//655 534//659 536//660 533//656
f 533//657 536//661 535//662 532//658
f 534//659 537//663 539//664 536//660
f 536//661 539//665 538//666 535//662
f 537//663 540//667 542//668 539//664
f 539//665 542//669 541//670 538//666
f 540//667 543//671 545//672 542//668
f 542//669 545//673 544//674 541//670
f 543//671 546//675 548//676 545//672
f 545//673 548//677 547//678 544//674
f 546//675 549//679 551//680 548//676
f 548//677 551//681 550//682 547//678
f 549//679 552//683 554//684 551//680
f 551//681 554//685 553//686 550//682
f 552//683 555//687 557//688 554//684
f 554//685 557//689 556//690 553//686
f 555//687 558//691 560//692 557//688
f 557//689 560//693 559//694 556//690
f 520//646 559//694 560//693 521//643
f 521//642 560//692 558//691 519//639
f 562//695 565//696 566//697 563//698
f 563//699 566//700 564//701 561//702
f 565//696 568//703 569//704 566//697
f 566//700 569//705 567//706 564//701
f 568//703 571//707 572//708 569//704
f 569//705 572//709 570//710 567//706
f 571//707 574//711 575//712 572//708
f 572//709 575//713 573//714 570//710
f 574//711 577//715 578//716 575//712
f 575//713 578//717 576//718 573//714
f 577//715 580//719 581//720 578//716
f 578//717 581//721 579//722 576//718
f 580//719 583//723 584//724 581//720
f 581//721 584//725 582//726 579//722
f 583//723 586//727 587//728 584//724
f 584//725 587//729 585//730 582//726
f 586//727 589//731 590//732 587//728
f 587//729 590//733 588//734 585//730
f 589//731 592//735 593//736 590//732
f 590//733 593//737 591//738 588//734
f 592//735 595//739 596//740 593//736
f 593//737 596//741 594//742 591//738
f 595//739 598//743 599//744 596//740
f 596//741 599//745 597//746 594//742
f 598//743 601//747 602//748 599//744
f 599//745 602//749 600//750 597//746
f 561//702 600//750 602//749 563//699
f 563//698 602//748 601//747 562//695
f 559//694 520//646 281//401 294//427
f 520//646 523//645 282//402 281//401
f 558//691 555//687 552//683 549//679 546//675 543//671 540//667 537//663 534//659 531//655 528//651 525//647 522//640 519//639
f 523//645 526//650 283//405 282//402
f 526//650 529//654 284//407 283//405
f 529//654 532//658 285//409 284//407
f 532//658 535//662 286//411 285//409
f 535//662 538//666 287//413 286//411
f 538//666 541//670 288//415 287//413
f 541//670 544//674 289//417 288//415
f 544//674 547//678 290//419 289//417
f 547//678 550//682 291//421 290//419
f 550//682 553//686 292//423 291//421
f 553//686 556//690 293//425 292//423
f 556//690 559//694 294//427 293//425
f 518//638 505//626 562//695 601//747
f 505//626 506//625 565//696 562//695
f 561//702 564//701 567//706 570//710 573//714 576//718 579//722 582//726 585//730 588//734 591//738 594//742 597//746 600//750
f 506//625 507//627 568//703 565//696
f 507//627 508//628 571//707 568//703
f 508//628 509//629 574//711 571//707
f 509//629 510//630 577//715 574//711
f 510//630 511//631 580//719 577//715
f 511//631 512//632 583//723 580//719
f 512//632 513//633 586//727 583//723
f 513//633 514//634 589//731 586//727
f 514//634 515//635 592//735 589//731
f 515//635 516//636 595//739 592//735
f 516//636 517//637 598//743 595//739
f 517//637 518//638 601//747 598//743
f 603//751 604//751 610//751 609//751
f 604//752 605//752 611//752 610//752
f 605//753 606//753 612//753 611//753
f 606//754 607//754 613//754 612//754
f 607//755 608//755 614//755 613//755
f 608//756 603//756 609//756 614//756
f 609//751 610//751 616//751 615//751
f 610//752 611//752 617//752 616//752
f 611//753 612//753 618//753 617//753
f 612//754 613//754 619//754 618//754
f 613//755 614//755 620//755 619//755
f 614//756 609//756 615//756 620//756
f 608//757 607//757 606//757 605//757 604//757 603//757
f 615//758 616//758 617//758 618//758 619//758 620//758
