# Blender 5.2.0 LTS
# www.blender.org
o Dagger
v 0.097743 -0.275556 0.000000
v 0.088063 -0.275556 -0.042409
v 0.060941 -0.275556 -0.076418
v 0.021750 -0.275556 -0.095292
v -0.021750 -0.275556 -0.095292
v -0.060941 -0.275556 -0.076418
v -0.088063 -0.275556 -0.042409
v -0.097743 -0.275556 -0.000000
v -0.088063 -0.275556 0.042409
v -0.060941 -0.275556 0.076418
v -0.021750 -0.275556 0.095292
v 0.021750 -0.275556 0.095292
v 0.060941 -0.275556 0.076418
v 0.088063 -0.275556 0.042409
v 0.095554 -0.241111 0.000000
v 0.086091 -0.241111 -0.041459
v 0.059577 -0.241111 -0.074707
v 0.021263 -0.241111 -0.093158
v -0.021263 -0.241111 -0.093158
v -0.059577 -0.241111 -0.074707
v -0.086091 -0.241111 -0.041459
v -0.095554 -0.241111 -0.000000
v -0.086091 -0.241111 0.041459
v -0.059577 -0.241111 0.074707
v -0.021263 -0.241111 0.093158
v 0.021263 -0.241111 0.093158
v 0.059577 -0.241111 0.074707
v 0.086091 -0.241111 0.041459
v 0.099110 -0.206667 0.000000
v 0.089295 -0.206667 -0.043002
v 0.061794 -0.206667 -0.077487
v 0.022054 -0.206667 -0.096625
v -0.022054 -0.206667 -0.096625
v -0.061794 -0.206667 -0.077487
v -0.089295 -0.206667 -0.043002
v -0.099110 -0.206667 -0.000000
v -0.089295 -0.206667 0.043002
v -0.061794 -0.206667 0.077487
v -0.022054 -0.206667 0.096625
v 0.022054 -0.206667 0.096625
v 0.061794 -0.206667 0.077487
v 0.089295 -0.206667 0.043002
v 0.097142 -0.172222 0.000000
v 0.087522 -0.172222 -0.042149
v 0.060567 -0.172222 -0.075949
v 0.021616 -0.172222 -0.094707
v -0.021616 -0.172222 -0.094707
v -0.060567 -0.172222 -0.075949
v -0.087522 -0.172222 -0.042149
v -0.097142 -0.172222 -0.000000
v -0.087522 -0.172222 0.042149
v -0.060567 -0.172222 0.075949
v -0.021616 -0.172222 0.094707
v 0.021616 -0.172222 0.094707
v 0.060567 -0.172222 0.075949
v 0.087522 -0.172222 0.042149
v 0.095444 -0.137778 0.000000
v 0.085992 -0.137778 -0.041412
v 0.059508 -0.137778 -0.074621
v 0.021238 -0.137778 -0.093051
v -0.021238 -0.137778 -0.093051
v -0.059508 -0.137778 -0.074621
v -0.085992 -0.137778 -0.041412
v -0.095444 -0.137778 -0.000000
v -0.085992 -0.137778 0.041412
v -0.059508 -0.137778 0.074621
v -0.021238 -0.137778 0.093051
v 0.021238 -0.137778 0.093051
v 0.059508 -0.137778 0.074621
v 0.085992 -0.137778 0.041412
v 0.088742 -0.103333 0.000000
v 0.079953 -0.103333 -0.038504
v 0.055330 -0.103333 -0.069381
v 0.019747 -0.103333 -0.086517
v -0.019747 -0.103333 -0.086517
v -0.055330 -0.103333 -0.069381
v -0.079953 -0.103333 -0.038504
v -0.088742 -0.103333 -0.000000
v -0.079953 -0.103333 0.038504
v -0.055330 -0.103333 0.069381
v -0.019747 -0.103333 0.086517
v 0.019747 -0.103333 0.086517
v 0.055330 -0.103333 0.069381
v 0.079953 -0.103333 0.038504
v 0.087784 -0.068889 0.000000
v 0.079091 -0.068889 -0.038088
v 0.054732 -0.068889 -0.068632
v 0.019534 -0.068889 -0.085583
v -0.019534 -0.068889 -0.085583
v -0.054732 -0.068889 -0.068632
v -0.079091 -0.068889 -0.038088
v -0.087784 -0.068889 -0.000000
v -0.079091 -0.068889 0.038088
v -0.054732 -0.068889 0.068632
v -0.019534 -0.068889 0.085583
v 0.019534 -0.068889 0.085583
v 0.054732 -0.068889 0.068632
v 0.079091 -0.068889 0.038088
v 0.087197 -0.034444 0.000000
v 0.078562 -0.034444 -0.037834
v 0.054367 -0.034444 -0.068174
v 0.019403 -0.034444 -0.085011
v -0.019403 -0.034444 -0.085011
v -0.054367 -0.034444 -0.068174
v -0.078562 -0.034444 -0.037834
v -0.087197 -0.034444 -0.000000
v -0.078562 -0.034444 0.037834
v -0.054367 -0.034444 0.068174
v -0.019403 -0.034444 0.085011
v 0.019403 -0.034444 0.085011
v 0.054367 -0.034444 0.068174
v 0.078562 -0.034444 0.037834
v 0.092220 0.000000 0.000000
v 0.083087 0.000000 -0.040013
v 0.057498 0.000000 -0.072100
v 0.020521 0.000000 -0.089908
v -0.020521 0.000000 -0.089908
v -0.057498 0.000000 -0.072100
v -0.083087 0.000000 -0.040013
v -0.092220 0.000000 -0.000000
v -0.083087 0.000000 0.040013
v -0.057498 0.000000 0.072100
v -0.020521 0.000000 0.089908
v 0.020521 0.000000 0.089908
v 0.057498 0.000000 0.072100
v 0.083087 0.000000 0.040013
v 0.092429 0.034444 0.000000
v 0.083276 0.034444 -0.040104
v 0.057629 0.034444 -0.072264
v 0.020567 0.034444 -0.090112
v -0.020567 0.034444 -0.090112
v -0.057629 0.034444 -0.072264
v -0.083276 0.034444 -0.040104
v -0.092429 0.034444 -0.000000
v -0.083276 0.034444 0.040104
v -0.057629 0.034444 0.072264
v -0.020567 0.034444 0.090112
v 0.020567 0.034444 0.090112
v 0.057629 0.034444 0.072264
v 0.083276 0.034444 0.040104
v 0.093051 0.068889 0.000000
v 0.083836 0.068889 -0.040373
v 0.058016 0.068889 -0.072750
v 0.020706 0.068889 -0.090718
v -0.020706 0.068889 -0.090718
v -0.058016 0.068889 -0.072750
v -0.083836 0.068889 -0.040373
v -0.093051 0.068889 -0.000000
v -0.083836 0.068889 0.040373
v -0.058016 0.068889 0.072750
v -0.020706 0.068889 0.090718
v 0.020706 0.068889 0.090718
v 0.058016 0.068889 0.072750
v 0.083836 0.068889 0.040373
v 0.088742 0.103333 0.000000
v 0.079953 0.103333 -0.038504
v 0.055330 0.103333 -0.069381
v 0.019747 0.103333 -0.086517
v -0.019747 0.103333 -0.086517
v -0.055330 0.103333 -0.069381
v -0.079953 0.103333 -0.038504
v -0.088742 0.103333 -0.000000
v -0.079953 0.103333 0.038504
v -0.055330 0.103333 0.069381
v -0.019747 0.103333 0.086517
v 0.019747 0.103333 0.086517
v 0.055330 0.103333 0.069381
v 0.079953 0.103333 0.038504
v 0.090041 0.137778 0.000000
v 0.081125 0.137778 -0.039068
v 0.056140 0.137778 -0.070397
v 0.020036 0.137778 -0.087784
v -0.020036 0.137778 -0.087784
v -0.056140 0.137778 -0.070397
v -0.081125 0.137778 -0.039068
v -0.090041 0.137778 -0.000000
v -0.081125 0.137778 0.039068
v -0.056140 0.137778 0.070397
v -0.020036 0.137778 0.087784
v 0.020036 0.137778 0.087784
v 0.056140 0.137778 0.070397
v 0.081125 0.137778 0.039068
v 0.091644 0.172222 0.000000
v 0.082568 0.172222 -0.039763
v 0.057139 0.172222 -0.071650
v 0.020393 0.172222 -0.089346
v -0.020393 0.172222 -0.089346
v -0.057139 0.172222 -0.071650
v -0.082568 0.172222 -0.039763
v -0.091644 0.172222 -0.000000
v -0.082568 0.172222 0.039763
v -0.057139 0.172222 0.071650
v -0.020393 0.172222 0.089346
v 0.020393 0.172222 0.089346
v 0.057139 0.172222 0.071650
v 0.082568 0.172222 0.039763
v 0.099110 0.206667 0.000000
v 0.089295 0.206667 -0.043002
v 0.061794 0.206667 -0.077487
v 0.022054 0.206667 -0.096625
v -0.022054 0.206667 -0.096625
v -0.061794 0.206667 -0.077487
v -0.089295 0.206667 -0.043002
v -0.099110 0.206667 -0.000000
v -0.089295 0.206667 0.043002
v -0.061794 0.206667 0.077487
v -0.022054 0.206667 0.096625
v 0.022054 0.206667 0.096625
v 0.061794 0.206667 0.077487
v 0.089295 0.206667 0.043002
v 0.101287 0.241111 0.000000
v 0.091256 0.241111 -0.043947
v 0.063151 0.241111 -0.079189
v 0.022538 0.241111 -0.098747
v -0.022538 0.241111 -0.098747
v -0.063151 0.241111 -0.079189
v -0.091256 0.241111 -0.043947
v -0.101287 0.241111 -0.000000
v -0.091256 0.241111 0.043947
v -0.063151 0.241111 0.079189
v -0.022538 0.241111 0.098747
v 0.022538 0.241111 0.098747
v 0.063151 0.241111 0.079189
v 0.091256 0.241111 0.043947
v 0.103607 0.275556 0.000000
v 0.093347 0.275556 -0.044953
v 0.064598 0.275556 -0.081003
v 0.023055 0.275556 -0.101009
v -0.023055 0.275556 -0.101009
v -0.064598 0.275556 -0.081003
v -0.093347 0.275556 -0.044953
v -0.103607 0.275556 -0.000000
v -0.093347 0.275556 0.044953
v -0.064598 0.275556 0.081003
v -0.023055 0.275556 0.101009
v 0.023055 0.275556 0.101009
v 0.064598 0.275556 0.081003
v 0.093347 0.275556 0.044953
v 0.093846 -0.310000 0.000000
v 0.099608 -0.304012 0.000000
v 0.098083 -0.308246 0.000000
v 0.084552 -0.310000 -0.040718
v 0.089743 -0.304012 -0.043218
v 0.088369 -0.308246 -0.042556
v 0.058512 -0.310000 -0.073372
v 0.062104 -0.304012 -0.077876
v 0.061153 -0.308246 -0.076684
v 0.020883 -0.310000 -0.091493
v 0.022165 -0.304012 -0.097110
v 0.021825 -0.308246 -0.095623
v -0.020883 -0.310000 -0.091493
v -0.022165 -0.304012 -0.097110
v -0.021825 -0.308246 -0.095623
v -0.058512 -0.310000 -0.073372
v -0.062104 -0.304012 -0.077876
v -0.061153 -0.308246 -0.076684
v -0.084552 -0.310000 -0.040718
v -0.089743 -0.304012 -0.043218
v -0.088369 -0.308246 -0.042556
v -0.093846 -0.310000 -0.000000
v -0.099608 -0.304012 -0.000000
v -0.098083 -0.308246 -0.000000
v -0.084552 -0.310000 0.040718
v -0.089743 -0.304012 0.043218
v -0.088369 -0.308246 0.042556
v -0.058512 -0.310000 0.073372
v -0.062104 -0.304012 0.077876
v -0.061153 -0.308246 0.076684
v -0.020883 -0.310000 0.091493
v -0.022165 -0.304012 0.097110
v -0.021825 -0.308246 0.095623
v 0.020883 -0.310000 0.091493
v 0.022165 -0.304012 0.097110
v 0.021825 -0.308246 0.095623
v 0.058512 -0.310000 0.073372
v 0.062104 -0.304012 0.077876
v 0.061153 -0.308246 0.076684
v 0.084552 -0.310000 0.040718
v 0.089743 -0.304012 0.043218
v 0.088369 -0.308246 0.042556
v 0.093846 0.310000 -0.000000
v 0.100625 0.304031 0.000000
v 0.098381 0.308252 -0.000000
v 0.084552 0.310000 -0.040718
v 0.090660 0.304031 -0.043660
v 0.088638 0.308252 -0.042686
v 0.058512 0.310000 -0.073372
v 0.062739 0.304031 -0.078672
v 0.061339 0.308252 -0.076917
v 0.020883 0.310000 -0.091493
v 0.022391 0.304031 -0.098102
v 0.021892 0.308252 -0.095914
v -0.020883 0.310000 -0.091493
v -0.022391 0.304031 -0.098102
v -0.021892 0.308252 -0.095914
v -0.058512 0.310000 -0.073372
v -0.062739 0.304031 -0.078672
v -0.061339 0.308252 -0.076917
v -0.084552 0.310000 -0.040718
v -0.090660 0.304031 -0.043660
v -0.088638 0.308252 -0.042686
v -0.093846 0.310000 0.000000
v -0.100625 0.304031 -0.000000
v -0.098381 0.308252 0.000000
v -0.084552 0.310000 0.040718
v -0.090660 0.304031 0.043660
v -0.088638 0.308252 0.042686
v -0.058512 0.310000 0.073372
v -0.062739 0.304031 0.078672
v -0.061339 0.308252 0.076917
v -0.020883 0.310000 0.091493
v -0.022391 0.304031 0.098102
v -0.021892 0.308252 0.095914
v 0.020883 0.310000 0.091493
v 0.022391 0.304031 0.098102
v 0.021892 0.308252 0.095914
v 0.058512 0.310000 0.073372
v 0.062739 0.304031 0.078672
v 0.061339 0.308252 0.076917
v 0.084552 0.310000 0.040718
v 0.090660 0.304031 0.043660
v 0.088638 0.308252 0.042686
v 0.020000 -0.480000 0.000000
v 0.018019 -0.480000 -0.008678
v 0.012470 -0.480000 -0.015637
v 0.004450 -0.480000 -0.019499
v -0.004450 -0.480000 -0.019499
v -0.012470 -0.480000 -0.015637
v -0.018019 -0.480000 -0.008678
v -0.020000 -0.480000 -0.000000
v -0.018019 -0.480000 0.008678
v -0.012470 -0.480000 0.015637
v -0.004450 -0.480000 0.019499
v 0.004450 -0.480000 0.019499
v 0.012470 -0.480000 0.015637
v 0.018019 -0.480000 0.008678
v 0.062903 -0.456000 0.000000
v 0.056674 -0.456000 -0.027293
v 0.039219 -0.456000 -0.049180
v 0.013997 -0.456000 -0.061326
v -0.013997 -0.456000 -0.061326
v -0.039219 -0.456000 -0.049180
v -0.056674 -0.456000 -0.027293
v -0.062903 -0.456000 -0.000000
v -0.056674 -0.456000 0.027293
v -0.039219 -0.456000 0.049180
v -0.013997 -0.456000 0.061326
v 0.013997 -0.456000 0.061326
v 0.039219 -0.456000 0.049180
v 0.056674 -0.456000 0.027293
v 0.089588 -0.432000 0.000000
v 0.080716 -0.432000 -0.038871
v 0.055857 -0.432000 -0.070043
v 0.019935 -0.432000 -0.087342
v -0.019935 -0.432000 -0.087342
v -0.055857 -0.432000 -0.070043
v -0.080716 -0.432000 -0.038871
v -0.089588 -0.432000 -0.000000
v -0.080716 -0.432000 0.038871
v -0.055857 -0.432000 0.070043
v -0.019935 -0.432000 0.087342
v 0.019935 -0.432000 0.087342
v 0.055857 -0.432000 0.070043
v 0.080716 -0.432000 0.038871
v 0.106797 -0.408000 0.000000
v 0.096221 -0.408000 -0.046337
v 0.066587 -0.408000 -0.083497
v 0.023765 -0.408000 -0.104119
v -0.023765 -0.408000 -0.104119
v -0.066587 -0.408000 -0.083497
v -0.096221 -0.408000 -0.046337
v -0.106797 -0.408000 -0.000000
v -0.096221 -0.408000 0.046337
v -0.066587 -0.408000 0.083497
v -0.023765 -0.408000 0.104119
v 0.023765 -0.408000 0.104119
v 0.066587 -0.408000 0.083497
v 0.096221 -0.408000 0.046337
v 0.116733 -0.384000 0.000000
v 0.105173 -0.384000 -0.050649
v 0.072782 -0.384000 -0.091266
v 0.025976 -0.384000 -0.113807
v -0.025976 -0.384000 -0.113807
v -0.072782 -0.384000 -0.091266
v -0.105173 -0.384000 -0.050649
v -0.116733 -0.384000 -0.000000
v -0.105173 -0.384000 0.050649
v -0.072782 -0.384000 0.091266
v -0.025976 -0.384000 0.113807
v 0.025976 -0.384000 0.113807
v 0.072782 -0.384000 0.091266
v 0.105173 -0.384000 0.050649
v 0.120000 -0.360000 0.000000
v 0.108116 -0.360000 -0.052066
v 0.074819 -0.360000 -0.093820
v 0.026703 -0.360000 -0.116991
v -0.026703 -0.360000 -0.116991
v -0.074819 -0.360000 -0.093820
v -0.108116 -0.360000 -0.052066
v -0.120000 -0.360000 -0.000000
v -0.108116 -0.360000 0.052066
v -0.074819 -0.360000 0.093820
v -0.026703 -0.360000 0.116991
v 0.026703 -0.360000 0.116991
v 0.074819 -0.360000 0.093820
v 0.108116 -0.360000 0.052066
v 0.116733 -0.336000 0.000000
v 0.105173 -0.336000 -0.050649
v 0.072782 -0.336000 -0.091266
v 0.025976 -0.336000 -0.113807
v -0.025976 -0.336000 -0.113807
v -0.072782 -0.336000 -0.091266
v -0.105173 -0.336000 -0.050649
v -0.116733 -0.336000 -0.000000
v -0.105173 -0.336000 0.050649
v -0.072782 -0.336000 0.091266
v -0.025976 -0.336000 0.113807
v 0.025976 -0.336000 0.113807
v 0.072782 -0.336000 0.091266
v 0.105173 -0.336000 0.050649
v 0.106797 -0.312000 0.000000
v 0.096221 -0.312000 -0.046337
v 0.066587 -0.312000 -0.083497
v 0.023765 -0.312000 -0.104119
v -0.023765 -0.312000 -0.104119
v -0.066587 -0.312000 -0.083497
v -0.096221 -0.312000 -0.046337
v -0.106797 -0.312000 -0.000000
v -0.096221 -0.312000 0.046337
v -0.066587 -0.312000 0.083497
v -0.023765 -0.312000 0.104119
v 0.023765 -0.312000 0.104119
v 0.066587 -0.312000 0.083497
v 0.096221 -0.312000 0.046337
v 0.089588 -0.288000 0.000000
v 0.080716 -0.288000 -0.038871
v 0.055857 -0.288000 -0.070043
v 0.019935 -0.288000 -0.087342
v -0.019935 -0.288000 -0.087342
v -0.055857 -0.288000 -0.070043
v -0.080716 -0.288000 -0.038871
v -0.089588 -0.288000 -0.000000
v -0.080716 -0.288000 0.038871
v -0.055857 -0.288000 0.070043
v -0.019935 -0.288000 0.087342
v 0.019935 -0.288000 0.087342
v 0.055857 -0.288000 0.070043
v 0.080716 -0.288000 0.038871
v 0.062903 -0.264000 0.000000
v 0.056674 -0.264000 -0.027293
v 0.039219 -0.264000 -0.049180
v 0.013997 -0.264000 -0.061326
v -0.013997 -0.264000 -0.061326
v -0.039219 -0.264000 -0.049180
v -0.056674 -0.264000 -0.027293
v -0.062903 -0.264000 -0.000000
v -0.056674 -0.264000 0.027293
v -0.039219 -0.264000 0.049180
v -0.013997 -0.264000 0.061326
v 0.013997 -0.264000 0.061326
v 0.039219 -0.264000 0.049180
v 0.056674 -0.264000 0.027293
v 0.020000 -0.240000 0.000000
v 0.018019 -0.240000 -0.008678
v 0.012470 -0.240000 -0.015637
v 0.004450 -0.240000 -0.019499
v -0.004450 -0.240000 -0.019499
v -0.012470 -0.240000 -0.015637
v -0.018019 -0.240000 -0.008678
v -0.020000 -0.240000 -0.000000
v -0.018019 -0.240000 0.008678
v -0.012470 -0.240000 0.015637
v -0.004450 -0.240000 0.019499
v 0.004450 -0.240000 0.019499
v 0.012470 -0.240000 0.015637
v 0.018019 -0.240000 0.008678
v 0.053634 0.382427 0.404064
v 0.036200 0.381600 0.420000
v 0.037573 0.398452 0.404023
v 0.047946 0.381837 0.415341
v 0.046031 0.391193 0.413256
v 0.036590 0.393168 0.415312
v 0.048918 0.393753 0.404044
v -0.036200 0.381600 0.420000
v -0.053634 0.382427 0.404064
v -0.037573 0.398452 0.404023
v -0.047946 0.381837 0.415341
v -0.046031 0.391192 0.413256
v -0.048918 0.393753 0.404044
v -0.036590 0.393168 0.415312
v -0.036200 0.298400 0.420000
v -0.037573 0.281548 0.404023
v -0.053634 0.297573 0.404064
v -0.036590 0.286832 0.415312
v -0.046031 0.288807 0.413256
v -0.048918 0.286247 0.404044
v -0.047946 0.298163 0.415341
v 0.036200 0.298400 0.420000
v 0.053634 0.297573 0.404064
v 0.037573 0.281548 0.404023
v 0.047946 0.298163 0.415341
v 0.046031 0.288807 0.413256
v 0.048918 0.286247 0.404044
v 0.036590 0.286832 0.415312
v 0.042436 0.401333 0.350000
v 0.058500 0.385311 0.350000
v 0.053795 0.396640 0.350000
v -0.058500 0.385311 0.350000
v -0.042436 0.401333 0.350000
v -0.053795 0.396640 0.350000
v -0.042436 0.278667 0.350000
v -0.058500 0.294689 0.350000
v -0.053795 0.283360 0.350000
v 0.058500 0.294689 0.350000
v 0.042436 0.278667 0.350000
v 0.053795 0.283360 0.350000
v 0.048736 0.405067 0.280000
v 0.064800 0.389044 0.280000
v 0.060095 0.400374 0.280000
v -0.064800 0.389044 0.280000
v -0.048736 0.405067 0.280000
v -0.060095 0.400374 0.280000
v -0.048736 0.274933 0.280000
v -0.064800 0.290956 0.280000
v -0.060095 0.279626 0.280000
v 0.064800 0.290956 0.280000
v 0.048736 0.274933 0.280000
v 0.060095 0.279626 0.280000
v 0.055036 0.408800 0.210000
v 0.071100 0.392777 0.210000
v 0.066395 0.404107 0.210000
v -0.071100 0.392777 0.210000
v -0.055036 0.408800 0.210000
v -0.066395 0.404107 0.210000
v -0.055036 0.271200 0.210000
v -0.071100 0.287223 0.210000
v -0.066395 0.275893 0.210000
v 0.071100 0.287223 0.210000
v 0.055036 0.271200 0.210000
v 0.066395 0.275893 0.210000
v 0.061336 0.412533 0.140000
v 0.077400 0.396511 0.140000
v 0.072695 0.407840 0.140000
v -0.077400 0.396511 0.140000
v -0.061336 0.412533 0.140000
v -0.072695 0.407840 0.140000
v -0.061336 0.267467 0.140000
v -0.077400 0.283489 0.140000
v -0.072695 0.272160 0.140000
v 0.077400 0.283489 0.140000
v 0.061336 0.267467 0.140000
v 0.072695 0.272160 0.140000
v 0.067636 0.416267 0.070000
v 0.083700 0.400244 0.070000
v 0.078995 0.411574 0.070000
v -0.083700 0.400244 0.070000
v -0.067636 0.416267 0.070000
v -0.078995 0.411574 0.070000
v -0.067636 0.263733 0.070000
v -0.083700 0.279756 0.070000
v -0.078995 0.268426 0.070000
v 0.083700 0.279756 0.070000
v 0.067636 0.263733 0.070000
v 0.078995 0.268426 0.070000
v 0.073936 0.420000 0.000000
v 0.090000 0.403977 0.000000
v 0.085295 0.415307 0.000000
v -0.090000 0.403977 0.000000
v -0.073936 0.420000 0.000000
v -0.085295 0.415307 0.000000
v -0.073936 0.260000 0.000000
v -0.090000 0.276023 0.000000
v -0.085295 0.264693 0.000000
v 0.090000 0.276023 0.000000
v 0.073936 0.260000 0.000000
v 0.085295 0.264693 0.000000
v 0.067636 0.416267 -0.070000
v 0.083700 0.400244 -0.070000
v 0.078995 0.411574 -0.070000
v -0.083700 0.400244 -0.070000
v -0.067636 0.416267 -0.070000
v -0.078995 0.411574 -0.070000
v -0.067636 0.263733 -0.070000
v -0.083700 0.279756 -0.070000
v -0.078995 0.268426 -0.070000
v 0.083700 0.279756 -0.070000
v 0.067636 0.263733 -0.070000
v 0.078995 0.268426 -0.070000
v 0.061336 0.412533 -0.140000
v 0.077400 0.396511 -0.140000
v 0.072695 0.407840 -0.140000
v -0.077400 0.396511 -0.140000
v -0.061336 0.412533 -0.140000
v -0.072695 0.407840 -0.140000
v -0.061336 0.267467 -0.140000
v -0.077400 0.283489 -0.140000
v -0.072695 0.272160 -0.140000
v 0.077400 0.283489 -0.140000
v 0.061336 0.267467 -0.140000
v 0.072695 0.272160 -0.140000
v 0.055036 0.408800 -0.210000
v 0.071100 0.392777 -0.210000
v 0.066395 0.404107 -0.210000
v -0.071100 0.392777 -0.210000
v -0.055036 0.408800 -0.210000
v -0.066395 0.404107 -0.210000
v -0.055036 0.271200 -0.210000
v -0.071100 0.287223 -0.210000
v -0.066395 0.275893 -0.210000
v 0.071100 0.287223 -0.210000
v 0.055036 0.271200 -0.210000
v 0.066395 0.275893 -0.210000
v 0.048736 0.405067 -0.280000
v 0.064800 0.389044 -0.280000
v 0.060095 0.400374 -0.280000
v -0.064800 0.389044 -0.280000
v -0.048736 0.405067 -0.280000
v -0.060095 0.400374 -0.280000
v -0.048736 0.274933 -0.280000
v -0.064800 0.290956 -0.280000
v -0.060095 0.279626 -0.280000
v 0.064800 0.290956 -0.280000
v 0.048736 0.274933 -0.280000
v 0.060095 0.279626 -0.280000
v 0.042436 0.401333 -0.350000
v 0.058500 0.385311 -0.350000
v 0.053795 0.396640 -0.350000
v -0.058500 0.385311 -0.350000
v -0.042436 0.401333 -0.350000
v -0.053795 0.396640 -0.350000
v -0.042436 0.278667 -0.350000
v -0.058500 0.294689 -0.350000
v -0.053795 0.283360 -0.350000
v 0.058500 0.294689 -0.350000
v 0.042436 0.278667 -0.350000
v 0.053795 0.283360 -0.350000
v 0.053634 0.382427 -0.404064
v 0.037573 0.398452 -0.404023
v 0.036200 0.381600 -0.420000
v 0.048918 0.393753 -0.404044
v 0.046031 0.391192 -0.413256
v 0.036590 0.393168 -0.415312
v 0.047946 0.381837 -0.415341
v -0.053634 0.382427 -0.404064
v -0.036200 0.381600 -0.420000
v -0.037573 0.398452 -0.404023
v -0.047946 0.381837 -0.415341
v -0.046031 0.391193 -0.413256
v -0.036590 0.393168 -0.415312
v -0.048918 0.393753 -0.404044
v -0.037573 0.281548 -0.404023
v -0.036200 0.298400 -0.420000
v -0.053634 0.297573 -0.404064
v -0.036590 0.286832 -0.415312
v -0.046031 0.288808 -0.413256
v -0.047946 0.298163 -0.415341
v -0.048918 0.286247 -0.404044
v 0.053634 0.297573 -0.404064
v 0.036200 0.298400 -0.420000
v 0.037573 0.281548 -0.404023
v 0.047946 0.298163 -0.415341
v 0.046031 0.288807 -0.413256
v 0.036590 0.286832 -0.415312
v 0.048918 0.286247 -0.404044
v 0.089303 0.557500 -0.062400
v 0.000000 0.557500 -0.048672
v -0.089303 0.557500 -0.062400
v -0.089303 0.557500 0.062400
v 0.000000 0.557500 0.048672
v 0.089303 0.557500 0.062400
v 0.084105 0.715000 -0.059800
v 0.000000 0.715000 -0.046644
v -0.084105 0.715000 -0.059800
v -0.084105 0.715000 0.059800
v 0.000000 0.715000 0.046644
v 0.084105 0.715000 0.059800
v 0.078907 0.872500 -0.057200
v 0.000000 0.872500 -0.044616
v -0.078907 0.872500 -0.057200
v -0.078907 0.872500 0.057200
v 0.000000 0.872500 0.044616
v 0.078907 0.872500 0.057200
v 0.073710 1.030000 -0.054600
v 0.000000 1.030000 -0.042588
v -0.073710 1.030000 -0.054600
v -0.073710 1.030000 0.054600
v 0.000000 1.030000 0.042588
v 0.073710 1.030000 0.054600
v 0.068512 1.187500 -0.052000
v 0.000000 1.187500 -0.040560
v -0.068512 1.187500 -0.052000
v -0.068512 1.187500 0.052000
v 0.000000 1.187500 0.040560
v 0.068512 1.187500 0.052000
v 0.063315 1.345000 -0.049400
v 0.000000 1.345000 -0.038532
v -0.063315 1.345000 -0.049400
v -0.063315 1.345000 0.049400
v 0.000000 1.345000 0.038532
v 0.063315 1.345000 0.049400
v 0.058118 1.502500 -0.046800
v 0.000000 1.502500 -0.036504
v -0.058118 1.502500 -0.046800
v -0.058118 1.502500 0.046800
v 0.000000 1.502500 0.036504
v 0.058118 1.502500 0.046800
v 0.052920 1.660000 -0.044200
v 0.000000 1.660000 -0.034476
v -0.052920 1.660000 -0.044200
v -0.052920 1.660000 0.044200
v 0.000000 1.660000 0.034476
v 0.052920 1.660000 0.044200
v 0.044765 1.780000 -0.034090
v 0.000000 1.780000 -0.026590
v -0.044765 1.780000 -0.034090
v -0.044765 1.780000 0.034090
v 0.000000 1.780000 0.026590
v 0.044765 1.780000 0.034090
v 0.036077 1.900000 -0.027474
v 0.000000 1.900000 -0.021430
v -0.036077 1.900000 -0.027474
v -0.036077 1.900000 0.027474
v 0.000000 1.900000 0.021430
v 0.036077 1.900000 0.027474
v 0.026617 2.020000 -0.020270
v 0.000000 2.020000 -0.015810
v -0.026617 2.020000 -0.020270
v -0.026617 2.020000 0.020270
v 0.000000 2.020000 0.015810
v 0.026617 2.020000 0.020270
v 0.015827 2.140000 -0.012053
v 0.000000 2.140000 -0.009401
v -0.015827 2.140000 -0.012053
v -0.015827 2.140000 0.012053
v 0.000000 2.140000 0.009401
v 0.015827 2.140000 0.012053
v 0.208376 0.401713 0.000843
v 0.206505 0.400000 0.000000
v 0.208376 0.401713 -0.000843
v 0.207621 0.400502 0.000742
v 0.208488 0.400733 -0.000000
v 0.207621 0.400502 -0.000742
v 0.208993 0.401758 -0.000000
v 0.094173 0.400000 -0.063217
v 0.094443 0.401713 -0.064972
v 0.094388 0.400502 -0.064470
v 0.000000 0.400000 -0.048967
v 0.000000 0.401713 -0.050678
v 0.000000 0.400502 -0.050186
v -0.094173 0.400000 -0.063217
v -0.094443 0.401713 -0.064972
v -0.094388 0.400502 -0.064470
v -0.206505 0.400000 0.000000
v -0.208376 0.401713 0.000843
v -0.208376 0.401713 -0.000843
v -0.207621 0.400502 0.000742
v -0.208488 0.400733 -0.000000
v -0.208993 0.401758 0.000000
v -0.207621 0.400502 -0.000742
v -0.094173 0.400000 0.063217
v -0.094443 0.401713 0.064972
v -0.094388 0.400502 0.064470
v -0.000000 0.400000 0.048967
v 0.000000 0.401713 0.050678
v -0.000000 0.400502 0.050186
v 0.094173 0.400000 0.063217
v 0.094443 0.401713 0.064972
v 0.094388 0.400502 0.064470
v 0.196958 0.557500 -0.000853
v 0.196958 0.557500 0.000853
v 0.197576 0.557500 0.000000
v -0.196958 0.557500 0.000853
v -0.196958 0.557500 -0.000853
v -0.197576 0.557500 0.000000
v 0.185414 0.715000 -0.000865
v 0.185414 0.715000 0.000865
v 0.186029 0.715000 0.000000
v -0.185414 0.715000 0.000865
v -0.185414 0.715000 -0.000865
v -0.186029 0.715000 0.000000
v 0.173871 0.872500 -0.000877
v 0.173871 0.872500 0.000877
v 0.174484 0.872500 0.000000
v -0.173871 0.872500 0.000877
v -0.173871 0.872500 -0.000877
v -0.174484 0.872500 0.000000
v 0.162329 1.030000 -0.000892
v 0.162329 1.030000 0.000892
v 0.162938 1.030000 0.000000
v -0.162329 1.030000 0.000892
v -0.162329 1.030000 -0.000892
v -0.162938 1.030000 0.000000
v 0.150788 1.187500 -0.000908
v 0.150788 1.187500 0.000908
v 0.151394 1.187500 0.000000
v -0.150788 1.187500 0.000908
v -0.150788 1.187500 -0.000908
v -0.151394 1.187500 0.000000
v 0.139249 1.345000 -0.000926
v 0.139249 1.345000 0.000926
v 0.139850 1.345000 0.000000
v -0.139249 1.345000 0.000926
v -0.139249 1.345000 -0.000926
v -0.139850 1.345000 0.000000
v 0.127711 1.502500 -0.000948
v 0.127711 1.502500 0.000948
v 0.128307 1.502500 0.000000
v -0.127711 1.502500 0.000948
v -0.127711 1.502500 -0.000948
v -0.128307 1.502500 0.000000
v 0.116176 1.660000 -0.000973
v 0.116176 1.660000 0.000973
v 0.116766 1.660000 0.000000
v -0.116176 1.660000 0.000973
v -0.116176 1.660000 -0.000973
v -0.116766 1.660000 0.000000
v 0.098011 1.780000 -0.000914
v 0.098011 1.780000 0.000914
v 0.098618 1.780000 0.000000
v -0.098011 1.780000 0.000914
v -0.098011 1.780000 -0.000914
v -0.098618 1.780000 0.000000
v 0.078703 1.900000 -0.000915
v 0.078703 1.900000 0.000915
v 0.079312 1.900000 0.000000
v -0.078703 1.900000 0.000915
v -0.078703 1.900000 -0.000915
v -0.079312 1.900000 0.000000
v 0.057680 2.020000 -0.000916
v 0.057680 2.020000 0.000916
v 0.058289 2.020000 0.000000
v -0.057680 2.020000 0.000916
v -0.057680 2.020000 -0.000916
v -0.058289 2.020000 0.000000
v 0.033699 2.140000 -0.000917
v 0.033699 2.140000 0.000917
v 0.034309 2.140000 0.000000
v -0.033699 2.140000 0.000917
v -0.033699 2.140000 -0.000917
v -0.034309 2.140000 0.000000
v 0.003424 2.258315 0.001382
v 0.003424 2.258315 -0.001382
v 0.001875 2.260000 -0.000000
v 0.003817 2.258417 0.000000
v 0.003343 2.259309 0.000000
v 0.002877 2.259506 -0.000857
v 0.002877 2.259506 0.000857
v 0.001180 2.260000 -0.000947
v 0.001999 2.258295 -0.003129
v 0.001677 2.259501 -0.002436
v 0.000000 2.260000 -0.000515
v 0.000000 2.258296 -0.002440
v 0.000000 2.259501 -0.001835
v -0.001180 2.260000 -0.000947
v -0.001999 2.258295 -0.003129
v -0.001677 2.259501 -0.002436
v -0.003424 2.258315 0.001382
v -0.001875 2.260000 0.000000
v -0.003424 2.258315 -0.001382
v -0.002877 2.259506 0.000857
v -0.003343 2.259309 -0.000000
v -0.002877 2.259506 -0.000857
v -0.003817 2.258417 -0.000000
v -0.001180 2.260000 0.000947
v -0.001999 2.258295 0.003129
v -0.001677 2.259501 0.002436
v -0.000000 2.260000 0.000515
v 0.000000 2.258296 0.002440
v -0.000000 2.259501 0.001835
v 0.001180 2.260000 0.000947
v 0.001999 2.258295 0.003129
v 0.001677 2.259501 0.002436
vn 0.9979 0.0644 -0.0000
vn 0.8991 0.0644 -0.4330
vn 0.9008 -0.0199 -0.4338
vn 0.9998 -0.0199 -0.0000
vn 0.6222 0.0644 -0.7802
vn 0.6234 -0.0199 -0.7817
vn 0.2221 0.0644 -0.9729
vn 0.2225 -0.0199 -0.9747
vn -0.2221 0.0644 -0.9729
vn -0.2225 -0.0199 -0.9747
vn -0.6222 0.0644 -0.7802
vn -0.6234 -0.0199 -0.7817
vn -0.8991 0.0644 -0.4330
vn -0.9008 -0.0199 -0.4338
vn -0.9979 0.0644 -0.0000
vn -0.9998 -0.0199 -0.0000
vn -0.8991 0.0644 0.4330
vn -0.9008 -0.0199 0.4338
vn -0.6222 0.0644 0.7802
vn -0.6234 -0.0199 0.7817
vn -0.2221 0.0644 0.9729
vn -0.2225 -0.0199 0.9747
vn 0.2221 0.0644 0.9729
vn 0.2225 -0.0199 0.9747
vn 0.6222 0.0644 0.7802
vn 0.6234 -0.0199 0.7817
vn 0.8991 0.0644 0.4330
vn 0.9008 -0.0199 0.4338
vn 0.9007 -0.0227 -0.4338
vn 0.9997 -0.0227 -0.0000
vn 0.6233 -0.0227 -0.7816
vn 0.2225 -0.0227 -0.9747
vn -0.2225 -0.0227 -0.9747
vn -0.6233 -0.0227 -0.7816
vn -0.9007 -0.0227 -0.4338
vn -0.9997 -0.0227 -0.0000
vn -0.9007 -0.0227 0.4338
vn -0.6233 -0.0227 0.7816
vn -0.2225 -0.0227 0.9747
vn 0.2225 -0.0227 0.9747
vn 0.6233 -0.0227 0.7816
vn 0.9007 -0.0227 0.4338
vn 0.8997 0.0532 -0.4333
vn 0.9986 0.0532 -0.0000
vn 0.6226 0.0532 -0.7807
vn 0.2222 0.0532 -0.9735
vn -0.2222 0.0532 -0.9735
vn -0.6226 0.0532 -0.7807
vn -0.8997 0.0532 -0.4333
vn -0.9986 0.0532 -0.0000
vn -0.8997 0.0532 0.4333
vn -0.6226 0.0532 0.7807
vn -0.2222 0.0532 0.9735
vn 0.2222 0.0532 0.9735
vn 0.6226 0.0532 0.7807
vn 0.8997 0.0532 0.4333
vn 0.8945 0.1192 -0.4308
vn 0.9929 0.1192 -0.0000
vn 0.6190 0.1192 -0.7763
vn 0.2209 0.1192 -0.9680
vn -0.2209 0.1192 -0.9680
vn -0.6190 0.1192 -0.7763
vn -0.8945 0.1192 -0.4308
vn -0.9929 0.1192 -0.0000
vn -0.8945 0.1192 0.4308
vn -0.6190 0.1192 0.7763
vn -0.2209 0.1192 0.9680
vn 0.2209 0.1192 0.9680
vn 0.6190 0.1192 0.7763
vn 0.8945 0.1192 0.4308
vn 0.8954 0.1111 -0.4312
vn 0.9938 0.1111 -0.0000
vn 0.6196 0.1111 -0.7770
vn 0.2211 0.1111 -0.9689
vn -0.2211 0.1111 -0.9689
vn -0.6196 0.1111 -0.7770
vn -0.8954 0.1111 -0.4312
vn -0.9938 0.1111 -0.0000
vn -0.8954 0.1111 0.4312
vn -0.6196 0.1111 0.7770
vn -0.2211 0.1111 0.9689
vn 0.2211 0.1111 0.9689
vn 0.6196 0.1111 0.7770
vn 0.8954 0.1111 0.4312
vn 0.9007 0.0224 -0.4338
vn 0.9997 0.0224 -0.0000
vn 0.6233 0.0224 -0.7816
vn 0.2225 0.0224 -0.9747
vn -0.2225 0.0224 -0.9747
vn -0.6233 0.0224 -0.7816
vn -0.9007 0.0224 -0.4338
vn -0.9997 0.0224 -0.0000
vn -0.9007 0.0224 0.4338
vn -0.6233 0.0224 0.7816
vn -0.2225 0.0224 0.9747
vn 0.2225 0.0224 0.9747
vn 0.6233 0.0224 0.7816
vn 0.9007 0.0224 0.4338
vn 0.8991 -0.0646 -0.4330
vn 0.9979 -0.0646 -0.0000
vn 0.6222 -0.0646 -0.7802
vn 0.2221 -0.0646 -0.9729
vn -0.2221 -0.0646 -0.9729
vn -0.6222 -0.0646 -0.7802
vn -0.8991 -0.0646 -0.4330
vn -0.9979 -0.0646 -0.0000
vn -0.8991 -0.0646 0.4330
vn -0.6222 -0.0646 0.7802
vn -0.2221 -0.0646 0.9729
vn 0.2221 -0.0646 0.9729
vn 0.6222 -0.0646 0.7802
vn 0.8991 -0.0646 0.4330
vn 0.8985 -0.0746 -0.4327
vn 0.9972 -0.0746 -0.0000
vn 0.6218 -0.0746 -0.7797
vn 0.2219 -0.0746 -0.9722
vn -0.2219 -0.0746 -0.9722
vn -0.6218 -0.0746 -0.7797
vn -0.8985 -0.0746 -0.4327
vn -0.9972 -0.0746 -0.0000
vn -0.8985 -0.0746 0.4327
vn -0.6218 -0.0746 0.7797
vn -0.2219 -0.0746 0.9722
vn 0.2219 -0.0746 0.9722
vn 0.6218 -0.0746 0.7797
vn 0.8985 -0.0746 0.4327
vn 0.9009 -0.0121 -0.4339
vn 0.9999 -0.0121 -0.0000
vn 0.6234 -0.0121 -0.7818
vn 0.2225 -0.0121 -0.9749
vn -0.2225 -0.0121 -0.9749
vn -0.6234 -0.0121 -0.7818
vn -0.9009 -0.0121 -0.4339
vn -0.9999 -0.0121 -0.0000
vn -0.9009 -0.0121 0.4339
vn -0.6234 -0.0121 0.7818
vn -0.2225 -0.0121 0.9749
vn 0.2225 -0.0121 0.9749
vn 0.6234 -0.0121 0.7818
vn 0.9009 -0.0121 0.4339
vn 0.8997 0.0527 -0.4333
vn 0.9986 0.0527 -0.0000
vn 0.6226 0.0527 -0.7807
vn 0.2222 0.0527 -0.9736
vn -0.2222 0.0527 -0.9736
vn -0.6226 0.0527 -0.7807
vn -0.8997 0.0527 -0.4333
vn -0.9986 0.0527 -0.0000
vn -0.8997 0.0527 0.4333
vn -0.6226 0.0527 0.7807
vn -0.2222 0.0527 0.9736
vn 0.2222 0.0527 0.9736
vn 0.6226 0.0527 0.7807
vn 0.8997 0.0527 0.4333
vn 0.9001 0.0439 -0.4335
vn 0.9990 0.0439 -0.0000
vn 0.6229 0.0439 -0.7811
vn 0.2223 0.0439 -0.9740
vn -0.2223 0.0439 -0.9740
vn -0.6229 0.0439 -0.7811
vn -0.9001 0.0439 -0.4335
vn -0.9990 0.0439 -0.0000
vn -0.9001 0.0439 0.4335
vn -0.6229 0.0439 0.7811
vn -0.2223 0.0439 0.9740
vn 0.2223 0.0439 0.9740
vn 0.6229 0.0439 0.7811
vn 0.9001 0.0439 0.4335
vn 0.9002 -0.0421 -0.4335
vn 0.9991 -0.0421 -0.0000
vn 0.6229 -0.0421 -0.7811
vn 0.2223 -0.0421 -0.9741
vn -0.2223 -0.0421 -0.9741
vn -0.6229 -0.0421 -0.7811
vn -0.9002 -0.0421 -0.4335
vn -0.9991 -0.0421 -0.0000
vn -0.9002 -0.0421 0.4335
vn -0.6229 -0.0421 0.7811
vn -0.2223 -0.0421 0.9741
vn 0.2223 -0.0421 0.9741
vn 0.6229 -0.0421 0.7811
vn 0.9002 -0.0421 0.4335
vn 0.8932 -0.1312 -0.4301
vn 0.9914 -0.1312 -0.0000
vn 0.6181 -0.1312 -0.7751
vn 0.2206 -0.1312 -0.9665
vn -0.2206 -0.1312 -0.9665
vn -0.6181 -0.1312 -0.7751
vn -0.8932 -0.1312 -0.4301
vn -0.9914 -0.1312 -0.0000
vn -0.8932 -0.1312 0.4301
vn -0.6181 -0.1312 0.7751
vn -0.2206 -0.1312 0.9665
vn 0.2206 -0.1312 0.9665
vn 0.6181 -0.1312 0.7751
vn 0.8932 -0.1312 0.4301
vn 0.8925 -0.1364 -0.4298
vn 0.9907 -0.1364 -0.0000
vn 0.6177 -0.1364 -0.7745
vn 0.2204 -0.1364 -0.9658
vn -0.2204 -0.1364 -0.9658
vn -0.6177 -0.1364 -0.7745
vn -0.8925 -0.1364 -0.4298
vn -0.9907 -0.1364 -0.0000
vn -0.8925 -0.1364 0.4298
vn -0.6177 -0.1364 0.7745
vn -0.2204 -0.1364 0.9658
vn 0.2204 -0.1364 0.9658
vn 0.6177 -0.1364 0.7745
vn 0.8925 -0.1364 0.4298
vn 0.8991 -0.0652 -0.4330
vn 0.9979 -0.0652 -0.0000
vn 0.6222 -0.0652 -0.7802
vn 0.2220 -0.0652 -0.9729
vn -0.2220 -0.0652 -0.9729
vn -0.6222 -0.0652 -0.7802
vn -0.8991 -0.0652 -0.4330
vn -0.9979 -0.0652 -0.0000
vn -0.8991 -0.0652 0.4330
vn -0.6222 -0.0652 0.7802
vn -0.2220 -0.0652 0.9729
vn 0.2220 -0.0652 0.9729
vn 0.6222 -0.0652 0.7802
vn 0.8991 -0.0652 0.4330
vn 0.9008 0.0183 -0.4338
vn 0.9998 0.0183 -0.0000
vn 0.6234 0.0183 -0.7817
vn 0.2225 0.0183 -0.9748
vn -0.2225 0.0183 -0.9748
vn -0.6234 0.0183 -0.7817
vn -0.9008 0.0183 -0.4338
vn -0.9998 0.0183 -0.0000
vn -0.9008 0.0183 0.4338
vn -0.6234 0.0183 0.7817
vn -0.2225 0.0183 0.9748
vn 0.2225 0.0183 0.9748
vn 0.6234 0.0183 0.7817
vn 0.9008 0.0183 0.4338
vn 0.2215 -0.9752 -0.0000
vn 0.1995 -0.9752 -0.0961
vn 0.3446 -0.9240 -0.1659
vn 0.3825 -0.9240 -0.0000
vn 0.9408 -0.3389 -0.0000
vn 0.8477 -0.3389 -0.4082
vn 0.8926 -0.1358 -0.4299
vn 0.9907 -0.1358 -0.0000
vn 0.1381 -0.9752 -0.1731
vn 0.2385 -0.9240 -0.2990
vn 0.5866 -0.3389 -0.7356
vn 0.6177 -0.1358 -0.7746
vn 0.0493 -0.9752 -0.2159
vn 0.0851 -0.9240 -0.3729
vn 0.2094 -0.3389 -0.9172
vn 0.2205 -0.1358 -0.9659
vn -0.0493 -0.9752 -0.2159
vn -0.0851 -0.9240 -0.3729
vn -0.2094 -0.3389 -0.9172
vn -0.2205 -0.1358 -0.9659
vn -0.1381 -0.9752 -0.1731
vn -0.2385 -0.9240 -0.2990
vn -0.5866 -0.3389 -0.7356
vn -0.6177 -0.1358 -0.7746
vn -0.1995 -0.9752 -0.0961
vn -0.3446 -0.9240 -0.1659
vn -0.8477 -0.3389 -0.4082
vn -0.8926 -0.1358 -0.4299
vn -0.2215 -0.9752 -0.0000
vn -0.3825 -0.9240 -0.0000
vn -0.9408 -0.3389 -0.0000
vn -0.9907 -0.1358 -0.0000
vn -0.1995 -0.9752 0.0961
vn -0.3446 -0.9240 0.1659
vn -0.8477 -0.3389 0.4082
vn -0.8926 -0.1358 0.4299
vn -0.1381 -0.9752 0.1731
vn -0.2385 -0.9240 0.2990
vn -0.5866 -0.3389 0.7356
vn -0.6177 -0.1358 0.7746
vn -0.0493 -0.9752 0.2159
vn -0.0851 -0.9240 0.3729
vn -0.2094 -0.3389 0.9172
vn -0.2205 -0.1358 0.9659
vn 0.0493 -0.9752 0.2159
vn 0.0851 -0.9240 0.3729
vn 0.2094 -0.3389 0.9172
vn 0.2205 -0.1358 0.9659
vn 0.1381 -0.9752 0.1731
vn 0.2385 -0.9240 0.2990
vn 0.5866 -0.3389 0.7356
vn 0.6177 -0.1358 0.7746
vn 0.1995 -0.9752 0.0961
vn 0.3446 -0.9240 0.1659
vn 0.8477 -0.3389 0.4082
vn 0.8926 -0.1358 0.4299
vn 0.9585 0.2849 -0.0000
vn 0.8636 0.2849 -0.4159
vn 0.7955 0.4695 -0.3831
vn 0.8829 0.4695 -0.0000
vn 0.3597 0.9331 -0.0000
vn 0.3241 0.9331 -0.1561
vn 0.1873 0.9781 -0.0902
vn 0.2079 0.9781 -0.0000
vn 0.5976 0.2849 -0.7494
vn 0.5505 0.4695 -0.6903
vn 0.2243 0.9331 -0.2812
vn 0.1296 0.9781 -0.1626
vn 0.2133 0.2849 -0.9345
vn 0.1965 0.4695 -0.8608
vn 0.0800 0.9331 -0.3507
vn 0.0463 0.9781 -0.2027
vn -0.2133 0.2849 -0.9345
vn -0.1965 0.4695 -0.8608
vn -0.0800 0.9331 -0.3507
vn -0.0463 0.9781 -0.2027
vn -0.5976 0.2849 -0.7494
vn -0.5505 0.4695 -0.6903
vn -0.2243 0.9331 -0.2812
vn -0.1296 0.9781 -0.1626
vn -0.8636 0.2849 -0.4159
vn -0.7955 0.4695 -0.3831
vn -0.3241 0.9331 -0.1561
vn -0.1873 0.9781 -0.0902
vn -0.9585 0.2849 -0.0000
vn -0.8829 0.4695 -0.0000
vn -0.3597 0.9331 -0.0000
vn -0.2079 0.9781 -0.0000
vn -0.8636 0.2849 0.4159
vn -0.7955 0.4695 0.3831
vn -0.3241 0.9331 0.1561
vn -0.1873 0.9781 0.0902
vn -0.5976 0.2849 0.7494
vn -0.5505 0.4695 0.6903
vn -0.2243 0.9331 0.2812
vn -0.1296 0.9781 0.1626
vn -0.2133 0.2849 0.9345
vn -0.1965 0.4695 0.8608
vn -0.0800 0.9331 0.3507
vn -0.0463 0.9781 0.2027
vn 0.2133 0.2849 0.9345
vn 0.1965 0.4695 0.8608
vn 0.0800 0.9331 0.3507
vn 0.0463 0.9781 0.2027
vn 0.5976 0.2849 0.7494
vn 0.5505 0.4695 0.6903
vn 0.2243 0.9331 0.2812
vn 0.1296 0.9781 0.1626
vn 0.8636 0.2849 0.4159
vn 0.7955 0.4695 0.3831
vn 0.3241 0.9331 0.1561
vn 0.1873 0.9781 0.0902
vn 0.2854 -0.9584 -0.0000
vn 0.2571 -0.9584 -0.1238
vn 0.5337 -0.8057 -0.2570
vn 0.5923 -0.8057 -0.0000
vn 0.1779 -0.9584 -0.2231
vn 0.3693 -0.8057 -0.4631
vn 0.0635 -0.9584 -0.2782
vn 0.1318 -0.8057 -0.5775
vn -0.0635 -0.9584 -0.2782
vn -0.1318 -0.8057 -0.5775
vn -0.1779 -0.9584 -0.2231
vn -0.3693 -0.8057 -0.4631
vn -0.2571 -0.9584 -0.1238
vn -0.5337 -0.8057 -0.2570
vn -0.2854 -0.9584 -0.0000
vn -0.5923 -0.8057 -0.0000
vn -0.2571 -0.9584 0.1238
vn -0.5337 -0.8057 0.2570
vn -0.1779 -0.9584 0.2231
vn -0.3693 -0.8057 0.4631
vn -0.0635 -0.9584 0.2782
vn -0.1318 -0.8057 0.5775
vn 0.0635 -0.9584 0.2782
vn 0.1318 -0.8057 0.5775
vn 0.1779 -0.9584 0.2231
vn 0.3693 -0.8057 0.4631
vn 0.2571 -0.9584 0.1238
vn 0.5337 -0.8057 0.2570
vn 0.6773 -0.6595 -0.3262
vn 0.7517 -0.6595 -0.0000
vn 0.4687 -0.6595 -0.5877
vn 0.1673 -0.6595 -0.7329
vn -0.1673 -0.6595 -0.7329
vn -0.4687 -0.6595 -0.5877
vn -0.6773 -0.6595 -0.3262
vn -0.7517 -0.6595 -0.0000
vn -0.6773 -0.6595 0.3262
vn -0.4687 -0.6595 0.5877
vn -0.1673 -0.6595 0.7329
vn 0.1673 -0.6595 0.7329
vn 0.4687 -0.6595 0.5877
vn 0.6773 -0.6595 0.3262
vn 0.7909 -0.4790 -0.3809
vn 0.8778 -0.4790 -0.0000
vn 0.5473 -0.4790 -0.6863
vn 0.1953 -0.4790 -0.8558
vn -0.1953 -0.4790 -0.8558
vn -0.5473 -0.4790 -0.6863
vn -0.7909 -0.4790 -0.3809
vn -0.8778 -0.4790 -0.0000
vn -0.7909 -0.4790 0.3809
vn -0.5473 -0.4790 0.6863
vn -0.1953 -0.4790 0.8558
vn 0.1953 -0.4790 0.8558
vn 0.5473 -0.4790 0.6863
vn 0.7909 -0.4790 0.3809
vn 0.8709 -0.2564 -0.4194
vn 0.9666 -0.2564 -0.0000
vn 0.6026 -0.2564 -0.7557
vn 0.2151 -0.2564 -0.9423
vn -0.2151 -0.2564 -0.9423
vn -0.6026 -0.2564 -0.7557
vn -0.8709 -0.2564 -0.4194
vn -0.9666 -0.2564 -0.0000
vn -0.8709 -0.2564 0.4194
vn -0.6026 -0.2564 0.7557
vn -0.2151 -0.2564 0.9423
vn 0.2151 -0.2564 0.9423
vn 0.6026 -0.2564 0.7557
vn 0.8709 -0.2564 0.4194
vn 0.9010 -0.0000 -0.4339
vn 1.0000 -0.0000 -0.0000
vn 0.6235 -0.0000 -0.7818
vn 0.2225 -0.0000 -0.9749
vn -0.2225 -0.0000 -0.9749
vn -0.6235 -0.0000 -0.7818
vn -0.9010 -0.0000 -0.4339
vn -1.0000 -0.0000 -0.0000
vn -0.9010 -0.0000 0.4339
vn -0.6235 -0.0000 0.7818
vn -0.2225 -0.0000 0.9749
vn 0.2225 -0.0000 0.9749
vn 0.6235 -0.0000 0.7818
vn 0.9010 -0.0000 0.4339
vn 0.8709 0.2564 -0.4194
vn 0.9666 0.2564 -0.0000
vn 0.6026 0.2564 -0.7557
vn 0.2151 0.2564 -0.9423
vn -0.2151 0.2564 -0.9423
vn -0.6026 0.2564 -0.7557
vn -0.8709 0.2564 -0.4194
vn -0.9666 0.2564 -0.0000
vn -0.8709 0.2564 0.4194
vn -0.6026 0.2564 0.7557
vn -0.2151 0.2564 0.9423
vn 0.2151 0.2564 0.9423
vn 0.6026 0.2564 0.7557
vn 0.8709 0.2564 0.4194
vn 0.7909 0.4790 -0.3809
vn 0.8778 0.4790 -0.0000
vn 0.5473 0.4790 -0.6863
vn 0.1953 0.4790 -0.8558
vn -0.1953 0.4790 -0.8558
vn -0.5473 0.4790 -0.6863
vn -0.7909 0.4790 -0.3809
vn -0.8778 0.4790 -0.0000
vn -0.7909 0.4790 0.3809
vn -0.5473 0.4790 0.6863
vn -0.1953 0.4790 0.8558
vn 0.1953 0.4790 0.8558
vn 0.5473 0.4790 0.6863
vn 0.7909 0.4790 0.3809
vn 0.6773 0.6595 -0.3262
vn 0.7517 0.6595 -0.0000
vn 0.4687 0.6595 -0.5877
vn 0.1673 0.6595 -0.7329
vn -0.1673 0.6595 -0.7329
vn -0.4687 0.6595 -0.5877
vn -0.6773 0.6595 -0.3262
vn -0.7517 0.6595 -0.0000
vn -0.6773 0.6595 0.3262
vn -0.4687 0.6595 0.5877
vn -0.1673 0.6595 0.7329
vn 0.1673 0.6595 0.7329
vn 0.4687 0.6595 0.5877
vn 0.6773 0.6595 0.3262
vn 0.5337 0.8057 -0.2570
vn 0.5923 0.8057 -0.0000
vn 0.3693 0.8057 -0.4631
vn 0.1318 0.8057 -0.5775
vn -0.1318 0.8057 -0.5775
vn -0.3693 0.8057 -0.4631
vn -0.5337 0.8057 -0.2570
vn -0.5923 0.8057 -0.0000
vn -0.5337 0.8057 0.2570
vn -0.3693 0.8057 0.4631
vn -0.1318 0.8057 0.5775
vn 0.1318 0.8057 0.5775
vn 0.3693 0.8057 0.4631
vn 0.5337 0.8057 0.2570
vn 0.2571 0.9584 -0.1238
vn 0.2854 0.9584 -0.0000
vn 0.1779 0.9584 -0.2231
vn 0.0635 0.9584 -0.2782
vn -0.0635 0.9584 -0.2782
vn -0.1779 0.9584 -0.2231
vn -0.2571 0.9584 -0.1238
vn -0.2854 0.9584 -0.0000
vn -0.2571 0.9584 0.1238
vn -0.1779 0.9584 0.2231
vn -0.0635 0.9584 0.2782
vn 0.0635 0.9584 0.2782
vn 0.1779 0.9584 0.2231
vn 0.2571 0.9584 0.1238
vn -0.9479 -0.1764 -0.2654
vn -0.8875 -0.1500 -0.4358
vn -0.8568 -0.3162 -0.4072
vn -0.9004 -0.3552 -0.2511
vn -0.1705 -0.1739 -0.9699
vn -0.1547 -0.3493 -0.9242
vn -0.3102 -0.3132 -0.8976
vn -0.3445 -0.1552 -0.9259
vn -0.1753 -0.9549 -0.2396
vn -0.3553 -0.9064 -0.2283
vn -0.3159 -0.8647 -0.3905
vn -0.1464 -0.8985 -0.4139
vn 0.1705 -0.1739 -0.9699
vn 0.3445 -0.1552 -0.9259
vn 0.3102 -0.3132 -0.8976
vn 0.1547 -0.3493 -0.9242
vn 0.9479 -0.1764 -0.2654
vn 0.9004 -0.3552 -0.2511
vn 0.8568 -0.3162 -0.4072
vn 0.8875 -0.1500 -0.4358
vn 0.1753 -0.9549 -0.2396
vn 0.1464 -0.8985 -0.4139
vn 0.3159 -0.8647 -0.3905
vn 0.3553 -0.9064 -0.2283
vn 0.1705 0.1739 -0.9699
vn 0.1547 0.3493 -0.9242
vn 0.3102 0.3132 -0.8976
vn 0.3445 0.1552 -0.9259
vn 0.1753 0.9549 -0.2396
vn 0.3553 0.9064 -0.2283
vn 0.3159 0.8647 -0.3905
vn 0.1464 0.8985 -0.4139
vn 0.9479 0.1764 -0.2654
vn 0.8875 0.1500 -0.4358
vn 0.8568 0.3162 -0.4072
vn 0.9004 0.3552 -0.2511
vn -0.1705 0.1739 -0.9699
vn -0.3445 0.1552 -0.9259
vn -0.3102 0.3132 -0.8976
vn -0.1547 0.3493 -0.9242
vn -0.9479 0.1764 -0.2654
vn -0.9004 0.3552 -0.2511
vn -0.8568 0.3162 -0.4072
vn -0.8875 0.1500 -0.4358
vn -0.1753 0.9549 -0.2396
vn -0.1464 0.8985 -0.4139
vn -0.3159 0.8647 -0.3905
vn -0.3553 0.9064 -0.2283
vn -0.9479 -0.1764 0.2654
vn -0.9004 -0.3552 0.2511
vn -0.8568 -0.3162 0.4072
vn -0.8875 -0.1500 0.4358
vn -0.1753 -0.9549 0.2396
vn -0.1464 -0.8985 0.4139
vn -0.3159 -0.8647 0.3905
vn -0.3553 -0.9064 0.2283
vn -0.1705 -0.1739 0.9699
vn -0.3445 -0.1552 0.9259
vn -0.3102 -0.3132 0.8976
vn -0.1547 -0.3493 0.9242
vn 0.9479 -0.1764 0.2654
vn 0.8875 -0.1500 0.4358
vn 0.8568 -0.3162 0.4072
vn 0.9004 -0.3552 0.2511
vn 0.1705 -0.1739 0.9699
vn 0.1547 -0.3493 0.9242
vn 0.3102 -0.3132 0.8976
vn 0.3445 -0.1552 0.9259
vn 0.1753 -0.9549 0.2396
vn 0.3553 -0.9064 0.2283
vn 0.3159 -0.8647 0.3905
vn 0.1464 -0.8985 0.4139
vn 0.1753 0.9549 0.2396
vn 0.1464 0.8985 0.4139
vn 0.3159 0.8647 0.3905
vn 0.3553 0.9064 0.2283
vn 0.1705 0.1739 0.9699
vn 0.3445 0.1552 0.9259
vn 0.3102 0.3132 0.8976
vn 0.1547 0.3493 0.9242
vn 0.9479 0.1764 0.2654
vn 0.9004 0.3552 0.2511
vn 0.8568 0.3162 0.4072
vn 0.8875 0.1500 0.4358
vn -0.9479 0.1764 0.2654
vn -0.8875 0.1500 0.4358
vn -0.8568 0.3162 0.4072
vn -0.9004 0.3552 0.2511
vn -0.1705 0.1739 0.9699
vn -0.1547 0.3493 0.9242
vn -0.3102 0.3132 0.8976
vn -0.3445 0.1552 0.9259
vn -0.1753 0.9549 0.2396
vn -0.3553 0.9064 0.2283
vn -0.3159 0.8647 0.3905
vn -0.1464 0.8985 0.4139
vn -0.1941 -0.9785 -0.0697
vn -0.3807 -0.9209 -0.0834
vn -0.9185 -0.3818 -0.1031
vn -0.9759 -0.1946 -0.0982
vn 0.9759 -0.1946 -0.0982
vn 0.9185 -0.3818 -0.1031
vn 0.3807 -0.9209 -0.0834
vn 0.1941 -0.9785 -0.0697
vn 0.1941 0.9785 -0.0697
vn 0.3807 0.9209 -0.0834
vn 0.9185 0.3818 -0.1031
vn 0.9759 0.1946 -0.0982
vn -0.9759 0.1946 -0.0982
vn -0.9185 0.3818 -0.1031
vn -0.3807 0.9209 -0.0834
vn -0.1941 0.9785 -0.0697
vn -0.1940 -0.9785 -0.0696
vn -0.3805 -0.9210 -0.0834
vn -0.9186 -0.3815 -0.1030
vn -0.9760 -0.1945 -0.0982
vn 0.9760 -0.1945 -0.0982
vn 0.9186 -0.3815 -0.1030
vn 0.3805 -0.9210 -0.0834
vn 0.1940 -0.9785 -0.0696
vn 0.1940 0.9785 -0.0696
vn 0.3805 0.9210 -0.0834
vn 0.9186 0.3815 -0.1030
vn 0.9760 0.1945 -0.0982
vn -0.9760 0.1945 -0.0982
vn -0.9186 0.3815 -0.1030
vn -0.3805 0.9210 -0.0834
vn -0.1940 0.9785 -0.0696
vn -0.2039 -0.9790 -0.0000
vn -0.3818 -0.9242 -0.0000
vn -0.9235 -0.3835 -0.0000
vn -0.9799 -0.1997 -0.0000
vn 0.9799 -0.1997 -0.0000
vn 0.9235 -0.3835 -0.0000
vn 0.3818 -0.9242 -0.0000
vn 0.2039 -0.9790 -0.0000
vn 0.2039 0.9790 -0.0000
vn 0.3818 0.9242 -0.0000
vn 0.9235 0.3835 -0.0000
vn 0.9799 0.1997 -0.0000
vn -0.9799 0.1997 -0.0000
vn -0.9235 0.3835 -0.0000
vn -0.3818 0.9242 -0.0000
vn -0.2039 0.9790 -0.0000
vn -0.1940 -0.9785 0.0696
vn -0.3805 -0.9210 0.0834
vn -0.9186 -0.3815 0.1030
vn -0.9760 -0.1945 0.0982
vn 0.9760 -0.1945 0.0982
vn 0.9186 -0.3815 0.1030
vn 0.3805 -0.9210 0.0834
vn 0.1940 -0.9785 0.0696
vn 0.1940 0.9785 0.0696
vn 0.3805 0.9210 0.0834
vn 0.9186 0.3815 0.1030
vn 0.9760 0.1945 0.0982
vn -0.9760 0.1945 0.0982
vn -0.9186 0.3815 0.1030
vn -0.3805 0.9210 0.0834
vn -0.1940 0.9785 0.0696
vn -0.1941 -0.9785 0.0697
vn -0.3807 -0.9209 0.0834
vn -0.9185 -0.3818 0.1031
vn -0.9759 -0.1946 0.0982
vn 0.9759 -0.1946 0.0982
vn 0.9185 -0.3818 0.1031
vn 0.3807 -0.9209 0.0834
vn 0.1941 -0.9785 0.0697
vn 0.1941 0.9785 0.0697
vn 0.3807 0.9209 0.0834
vn 0.9185 0.3818 0.1031
vn 0.9759 0.1946 0.0982
vn -0.9759 0.1946 0.0982
vn -0.9185 0.3818 0.1031
vn -0.3807 0.9209 0.0834
vn -0.1941 0.9785 0.0697
vn -0.1519 0.0120 -0.9883
vn -0.0000 0.0122 -0.9999
vn -0.0000 0.0121 -0.9999
vn -0.1545 0.0120 -0.9879
vn 0.1519 0.0120 -0.9883
vn 0.1545 0.0120 -0.9879
vn 0.1519 0.0120 0.9883
vn -0.0000 0.0122 0.9999
vn -0.0000 0.0121 0.9999
vn 0.1545 0.0120 0.9879
vn -0.1519 0.0120 0.9883
vn -0.1545 0.0120 0.9879
vn -0.1575 0.0119 -0.9874
vn 0.1575 0.0119 -0.9874
vn 0.1575 0.0119 0.9874
vn -0.1575 0.0119 0.9874
vn -0.0000 0.0120 -0.9999
vn -0.1609 0.0118 -0.9869
vn 0.1609 0.0118 -0.9869
vn -0.0000 0.0120 0.9999
vn 0.1609 0.0118 0.9869
vn -0.1609 0.0118 0.9869
vn -0.0000 0.0119 -0.9999
vn -0.1647 0.0118 -0.9863
vn 0.1647 0.0118 -0.9863
vn -0.0000 0.0119 0.9999
vn 0.1647 0.0118 0.9863
vn -0.1647 0.0118 0.9863
vn -0.1692 0.0117 -0.9855
vn 0.1692 0.0117 -0.9855
vn 0.1692 0.0117 0.9855
vn -0.1692 0.0117 0.9855
vn -0.0000 0.0118 -0.9999
vn -0.1745 0.0116 -0.9846
vn 0.1745 0.0116 -0.9846
vn -0.0000 0.0118 0.9999
vn 0.1745 0.0116 0.9846
vn -0.1745 0.0116 0.9846
vn -0.0000 0.0404 -0.9992
vn -0.1755 0.0386 -0.9837
vn 0.1755 0.0386 -0.9837
vn -0.0000 0.0404 0.9992
vn 0.1755 0.0386 0.9837
vn -0.1755 0.0386 0.9837
vn -0.0000 0.0558 -0.9984
vn -0.1694 0.0557 -0.9840
vn 0.1694 0.0557 -0.9840
vn -0.0000 0.0558 0.9984
vn 0.1694 0.0557 0.9840
vn -0.1694 0.0557 0.9840
vn -0.0000 0.0449 -0.9990
vn -0.1651 0.0442 -0.9853
vn 0.1651 0.0442 -0.9853
vn -0.0000 0.0449 0.9990
vn 0.1651 0.0442 0.9853
vn -0.1651 0.0442 0.9853
vn -0.0000 0.0501 -0.9987
vn -0.1650 0.0492 -0.9851
vn 0.1650 0.0492 -0.9851
vn -0.0000 0.0501 0.9987
vn 0.1650 0.0492 0.9851
vn -0.1650 0.0492 0.9851
vn -0.0000 0.0547 -0.9985
vn -0.1738 0.0538 -0.9833
vn 0.1738 0.0538 -0.9833
vn -0.0000 0.0547 0.9985
vn 0.1738 0.0538 0.9833
vn -0.1738 0.0538 0.9833
vn 0.6595 -0.1796 0.7299
vn 0.5466 -0.3826 0.7449
vn 0.6980 -0.4196 0.5803
vn 0.7815 -0.1594 0.6032
vn 0.1946 -0.9809 -0.0000
vn 0.2930 -0.9475 -0.1282
vn 0.3469 -0.9379 -0.0000
vn 0.2930 -0.9475 0.1282
vn 0.6595 -0.1796 -0.7299
vn 0.7815 -0.1594 -0.6032
vn 0.6980 -0.4196 -0.5803
vn 0.5466 -0.3826 -0.7449
vn -0.1946 -0.9809 -0.0000
vn -0.2930 -0.9475 0.1282
vn -0.3469 -0.9379 -0.0000
vn -0.2930 -0.9475 -0.1282
vn -0.6595 -0.1796 0.7299
vn -0.7815 -0.1594 0.6032
vn -0.6980 -0.4196 0.5803
vn -0.5466 -0.3826 0.7449
vn -0.6595 -0.1796 -0.7299
vn -0.5466 -0.3826 -0.7449
vn -0.6980 -0.4196 -0.5803
vn -0.7815 -0.1594 -0.6032
vn 0.7571 0.3425 0.5563
vn 0.9256 0.3786 -0.0000
vn 0.8646 0.5024 -0.0000
vn 0.7571 0.5021 0.4180
vn 0.7571 0.3425 -0.5563
vn 0.7571 0.5021 -0.4180
vn 0.2333 0.9724 -0.0000
vn 0.3534 0.9285 0.1145
vn 0.4256 0.9049 -0.0000
vn 0.3533 0.9285 -0.1145
vn -0.7571 0.3425 0.5563
vn -0.7571 0.5021 0.4180
vn -0.8646 0.5024 -0.0000
vn -0.9256 0.3786 -0.0000
vn -0.2333 0.9724 -0.0000
vn -0.3534 0.9284 -0.1145
vn -0.4256 0.9049 -0.0000
vn -0.3533 0.9285 0.1145
vn -0.7571 0.3425 -0.5563
vn -0.7571 0.5021 -0.4180
vn 0.6673 0.0474 -0.7433
vn 0.8084 0.0592 -0.5856
vn 0.8084 0.0592 0.5856
vn 0.6673 0.0474 0.7433
vn 0.0412 -0.9745 -0.2208
vn 0.0656 -0.9300 -0.3617
vn 0.1724 -0.3825 -0.9077
vn 0.1789 -0.1760 -0.9680
vn -0.0000 -0.9809 -0.1946
vn -0.0000 -0.9248 -0.3806
vn -0.0000 -0.3769 -0.9263
vn -0.0000 -0.1896 -0.9819
vn -0.0412 -0.9745 -0.2208
vn -0.0656 -0.9300 -0.3617
vn -0.1724 -0.3825 -0.9077
vn -0.1789 -0.1760 -0.9680
vn -0.6673 0.0474 0.7433
vn -0.8084 0.0592 0.5856
vn -0.8084 0.0592 -0.5856
vn -0.6673 0.0474 -0.7433
vn -0.0412 -0.9745 0.2208
vn -0.0656 -0.9300 0.3617
vn -0.1724 -0.3825 0.9077
vn -0.1789 -0.1760 0.9680
vn -0.0000 -0.9809 0.1946
vn -0.0000 -0.9248 0.3806
vn -0.0000 -0.3769 0.9263
vn -0.0000 -0.1896 0.9819
vn 0.0412 -0.9745 0.2208
vn 0.0656 -0.9300 0.3617
vn 0.1724 -0.3825 0.9077
vn 0.1789 -0.1760 0.9680
vn 0.6731 0.0478 -0.7380
vn 0.8132 0.0596 -0.5789
vn 0.8132 0.0596 0.5789
vn 0.6731 0.0478 0.7380
vn -0.6731 0.0478 0.7380
vn -0.8132 0.0596 0.5789
vn -0.8132 0.0596 -0.5789
vn -0.6731 0.0478 -0.7380
vn 0.6796 0.0482 -0.7320
vn 0.8185 0.0600 -0.5714
vn 0.8185 0.0600 0.5714
vn 0.6796 0.0482 0.7320
vn -0.6796 0.0482 0.7320
vn -0.8185 0.0600 0.5714
vn -0.8185 0.0600 -0.5714
vn -0.6796 0.0482 -0.7320
vn 0.6868 0.0486 -0.7253
vn 0.8242 0.0604 -0.5631
vn 0.8242 0.0604 0.5631
vn 0.6868 0.0486 0.7253
vn -0.6868 0.0486 0.7253
vn -0.8242 0.0604 0.5631
vn -0.8242 0.0604 -0.5631
vn -0.6868 0.0486 -0.7253
vn 0.6948 0.0490 -0.7176
vn 0.8305 0.0608 -0.5537
vn 0.8305 0.0608 0.5537
vn 0.6948 0.0490 0.7176
vn -0.6948 0.0490 0.7176
vn -0.8305 0.0608 0.5537
vn -0.8305 0.0608 -0.5537
vn -0.6948 0.0490 -0.7176
vn 0.7037 0.0495 -0.7087
vn 0.8375 0.0613 -0.5431
vn 0.8375 0.0613 0.5431
vn 0.7037 0.0495 0.7087
vn -0.7037 0.0495 0.7087
vn -0.8375 0.0613 0.5431
vn -0.8375 0.0613 -0.5431
vn -0.7037 0.0495 -0.7087
vn 0.7139 0.0501 -0.6985
vn 0.8452 0.0619 -0.5309
vn 0.8452 0.0619 0.5309
vn 0.7139 0.0501 0.6985
vn -0.7139 0.0501 0.6985
vn -0.8452 0.0619 0.5309
vn -0.8452 0.0619 -0.5309
vn -0.7139 0.0501 -0.6985
vn 0.7162 0.0820 -0.6930
vn 0.8441 0.0934 -0.5280
vn 0.8441 0.0934 0.5280
vn 0.7162 0.0820 0.6930
vn -0.7162 0.0820 0.6930
vn -0.8441 0.0934 0.5280
vn -0.8441 0.0934 -0.5280
vn -0.7162 0.0820 -0.6930
vn 0.7002 0.1128 -0.7050
vn 0.8318 0.1297 -0.5396
vn 0.8318 0.1297 0.5396
vn 0.7002 0.1128 0.7050
vn -0.7002 0.1128 0.7050
vn -0.8318 0.1297 0.5396
vn -0.8318 0.1297 -0.5396
vn -0.7002 0.1128 -0.7050
vn 0.6919 0.1163 -0.7126
vn 0.8248 0.1382 -0.5483
vn 0.8248 0.1382 0.5483
vn 0.6919 0.1163 0.7126
vn -0.6919 0.1163 0.7126
vn -0.8248 0.1382 0.5483
vn -0.8248 0.1382 -0.5483
vn -0.6919 0.1163 -0.7126
vn 0.6910 0.1296 -0.7112
vn 0.8229 0.1536 -0.5470
vn 0.8229 0.1536 0.5470
vn 0.6910 0.1296 0.7112
vn -0.6910 0.1296 0.7112
vn -0.8229 0.1536 0.5470
vn -0.8229 0.1536 -0.5470
vn -0.6910 0.1296 -0.7112
vn 0.7233 0.1635 -0.6708
vn 0.8557 0.1940 -0.4797
vn 0.8557 0.1940 0.4797
vn 0.7233 0.1635 0.6708
vn -0.7233 0.1635 0.6708
vn -0.8557 0.1940 0.4797
vn -0.8557 0.1940 -0.4797
vn -0.7233 0.1635 -0.6708
vn 0.6251 0.3174 -0.7131
vn 0.6711 0.5145 -0.5337
vn 0.0864 0.9537 -0.2880
vn 0.0543 0.9773 -0.2049
vn -0.2364 0.2095 -0.9488
vn -0.0000 0.2608 -0.9654
vn -0.0000 0.4411 -0.8975
vn -0.3002 0.4207 -0.8561
vn -0.0001 0.9349 -0.3550
vn -0.0000 0.9834 -0.1814
vn 0.2364 0.2095 -0.9488
vn 0.3002 0.4207 -0.8561
vn -0.0866 0.9537 -0.2880
vn -0.0544 0.9773 -0.2049
vn -0.6251 0.3175 -0.7131
vn -0.6711 0.5145 -0.5338
vn -0.6251 0.3174 0.7131
vn -0.6711 0.5145 0.5337
vn -0.0864 0.9537 0.2880
vn -0.0543 0.9773 0.2049
vn 0.2364 0.2095 0.9488
vn -0.0000 0.2608 0.9654
vn -0.0000 0.4411 0.8975
vn 0.3002 0.4207 0.8561
vn 0.0001 0.9349 0.3550
vn 0.0001 0.9834 0.1814
vn -0.2364 0.2095 0.9488
vn -0.3002 0.4207 0.8561
vn 0.0865 0.9537 0.2880
vn 0.0544 0.9773 0.2049
vn 0.6711 0.5145 0.5338
vn 0.6251 0.3175 0.7131
vn 0.4962 0.0335 0.8676
vn 0.4962 0.0335 -0.8676
vn -0.4962 0.0335 -0.8676
vn -0.4962 0.0335 0.8676
vn 0.5027 0.0338 0.8638
vn 0.5027 0.0338 -0.8638
vn -0.5027 0.0338 0.8638
vn -0.5027 0.0338 -0.8638
vn 0.5100 0.0342 0.8595
vn 0.5100 0.0342 -0.8595
vn -0.5100 0.0342 0.8595
vn -0.5100 0.0342 -0.8595
vn 0.5182 0.0345 0.8546
vn 0.5182 0.0345 -0.8546
vn -0.5182 0.0345 0.8546
vn -0.5182 0.0345 -0.8546
vn 0.5274 0.0350 0.8489
vn 0.5274 0.0350 -0.8489
vn -0.5274 0.0350 0.8489
vn -0.5274 0.0350 -0.8489
vn 0.5380 0.0355 0.8422
vn 0.5380 0.0355 -0.8422
vn -0.5380 0.0355 0.8422
vn -0.5380 0.0355 -0.8422
vn 0.5501 0.0360 0.8343
vn 0.5501 0.0360 -0.8343
vn -0.5501 0.0360 0.8343
vn -0.5501 0.0360 -0.8343
vn 0.5514 0.0660 0.8316
vn 0.5514 0.0660 -0.8316
vn -0.5514 0.0660 0.8316
vn -0.5514 0.0660 -0.8316
vn 0.5363 0.0899 0.8392
vn 0.5363 0.0899 -0.8392
vn -0.5363 0.0899 0.8392
vn -0.5363 0.0899 -0.8392
vn 0.5267 0.0886 0.8454
vn 0.5267 0.0886 -0.8454
vn -0.5267 0.0886 0.8454
vn -0.5267 0.0886 -0.8454
vn 0.5262 0.0988 0.8446
vn 0.5262 0.0988 -0.8446
vn -0.5262 0.0988 0.8446
vn -0.5262 0.0988 -0.8446
vn 0.5386 0.1190 0.8341
vn 0.5386 0.1190 -0.8341
vn -0.5386 0.1190 0.8341
vn -0.5386 0.1190 -0.8341
s 1
f 1//1 2//2 16//3 15//4
f 2//2 3//5 17//6 16//3
f 3//5 4//7 18//8 17//6
f 4//7 5//9 19//10 18//8
f 5//9 6//11 20//12 19//10
f 6//11 7//13 21//14 20//12
f 7//13 8//15 22//16 21//14
f 8//15 9//17 23//18 22//16
f 9//17 10//19 24//20 23//18
f 10//19 11//21 25//22 24//20
f 11//21 12//23 26//24 25//22
f 12//23 13//25 27//26 26//24
f 13//25 14//27 28//28 27//26
f 14//27 1//1 15//4 28//28
f 15//4 16//3 30//29 29//30
f 16//3 17//6 31//31 30//29
f 17//6 18//8 32//32 31//31
f 18//8 19//10 33//33 32//32
f 19//10 20//12 34//34 33//33
f 20//12 21//14 35//35 34//34
f 21//14 22//16 36//36 35//35
f 22//16 23//18 37//37 36//36
f 23//18 24//20 38//38 37//37
f 24//20 25//22 39//39 38//38
f 25//22 26//24 40//40 39//39
f 26//24 27//26 41//41 40//40
f 27//26 28//28 42//42 41//41
f 28//28 15//4 29//30 42//42
f 29//30 30//29 44//43 43//44
f 30//29 31//31 45//45 44//43
f 31//31 32//32 46//46 45//45
f 32//32 33//33 47//47 46//46
f 33//33 34//34 48//48 47//47
f 34//34 35//35 49//49 48//48
f 35//35 36//36 50//50 49//49
f 36//36 37//37 51//51 50//50
f 37//37 38//38 52//52 51//51
f 38//38 39//39 53//53 52//52
f 39//39 40//40 54//54 53//53
f 40//40 41//41 55//55 54//54
f 41//41 42//42 56//56 55//55
f 42//42 29//30 43//44 56//56
f 43//44 44//43 58//57 57//58
f 44//43 45//45 59//59 58//57
f 45//45 46//46 60//60 59//59
f 46//46 47//47 61//61 60//60
f 47//47 48//48 62//62 61//61
f 48//48 49//49 63//63 62//62
f 49//49 50//50 64//64 63//63
f 50//50 51//51 65//65 64//64
f 51//51 52//52 66//66 65//65
f 52//52 53//53 67//67 66//66
f 53//53 54//54 68//68 67//67
f 54//54 55//55 69//69 68//68
f 55//55 56//56 70//70 69//69
f 56//56 43//44 57//58 70//70
f 57//58 58//57 72//71 71//72
f 58//57 59//59 73//73 72//71
f 59//59 60//60 74//74 73//73
f 60//60 61//61 75//75 74//74
f 61//61 62//62 76//76 75//75
f 62//62 63//63 77//77 76//76
f 63//63 64//64 78//78 77//77
f 64//64 65//65 79//79 78//78
f 65//65 66//66 80//80 79//79
f 66//66 67//67 81//81 80//80
f 67//67 68//68 82//82 81//81
f 68//68 69//69 83//83 82//82
f 69//69 70//70 84//84 83//83
f 70//70 57//58 71//72 84//84
f 71//72 72//71 86//85 85//86
f 72//71 73//73 87//87 86//85
f 73//73 74//74 88//88 87//87
f 74//74 75//75 89//89 88//88
f 75//75 76//76 90//90 89//89
f 76//76 77//77 91//91 90//90
f 77//77 78//78 92//92 91//91
f 78//78 79//79 93//93 92//92
f 79//79 80//80 94//94 93//93
f 80//80 81//81 95//95 94//94
f 81//81 82//82 96//96 95//95
f 82//82 83//83 97//97 96//96
f 83//83 84//84 98//98 97//97
f 84//84 71//72 85//86 98//98
f 85//86 86//85 100//99 99//100
f 86//85 87//87 101//101 100//99
f 87//87 88//88 102//102 101//101
f 88//88 89//89 103//103 102//102
f 89//89 90//90 104//104 103//103
f 90//90 91//91 105//105 104//104
f 91//91 92//92 106//106 105//105
f 92//92 93//93 107//107 106//106
f 93//93 94//94 108//108 107//107
f 94//94 95//95 109//109 108//108
f 95//95 96//96 110//110 109//109
f 96//96 97//97 111//111 110//110
f 97//97 98//98 112//112 111//111
f 98//98 85//86 99//100 112//112
f 99//100 100//99 114//113 113//114
f 100//99 101//101 115//115 114//113
f 101//101 102//102 116//116 115//115
f 102//102 103//103 117//117 116//116
f 103//103 104//104 118//118 117//117
f 104//104 105//105 119//119 118//118
f 105//105 106//106 120//120 119//119
f 106//106 107//107 121//121 120//120
f 107//107 108//108 122//122 121//121
f 108//108 109//109 123//123 122//122
f 109//109 110//110 124//124 123//123
f 110//110 111//111 125//125 124//124
f 111//111 112//112 126//126 125//125
f 112//112 99//100 113//114 126//126
f 113//114 114//113 128//127 127//128
f 114//113 115//115 129//129 128//127
f 115//115 116//116 130//130 129//129
f 116//116 117//117 131//131 130//130
f 117//117 118//118 132//132 131//131
f 118//118 119//119 133//133 132//132
f 119//119 120//120 134//134 133//133
f 120//120 121//121 135//135 134//134
f 121//121 122//122 136//136 135//135
f 122//122 123//123 137//137 136//136
f 123//123 124//124 138//138 137//137
f 124//124 125//125 139//139 138//138
f 125//125 126//126 140//140 139//139
f 126//126 113//114 127//128 140//140
f 127//128 128//127 142//141 141//142
f 128//127 129//129 143//143 142//141
f 129//129 130//130 144//144 143//143
f 130//130 131//131 145//145 144//144
f 131//131 132//132 146//146 145//145
f 132//132 133//133 147//147 146//146
f 133//133 134//134 148//148 147//147
f 134//134 135//135 149//149 148//148
f 135//135 136//136 150//150 149//149
f 136//136 137//137 151//151 150//150
f 137//137 138//138 152//152 151//151
f 138//138 139//139 153//153 152//152
f 139//139 140//140 154//154 153//153
f 140//140 127//128 141//142 154//154
f 141//142 142//141 156//155 155//156
f 142//141 143//143 157//157 156//155
f 143//143 144//144 158//158 157//157
f 144//144 145//145 159//159 158//158
f 145//145 146//146 160//160 159//159
f 146//146 147//147 161//161 160//160
f 147//147 148//148 162//162 161//161
f 148//148 149//149 163//163 162//162
f 149//149 150//150 164//164 163//163
f 150//150 151//151 165//165 164//164
f 151//151 152//152 166//166 165//165
f 152//152 153//153 167//167 166//166
f 153//153 154//154 168//168 167//167
f 154//154 141//142 155//156 168//168
f 155//156 156//155 170//169 169//170
f 156//155 157//157 171//171 170//169
f 157//157 158//158 172//172 171//171
f 158//158 159//159 173//173 172//172
f 159//159 160//160 174//174 173//173
f 160//160 161//161 175//175 174//174
f 161//161 162//162 176//176 175//175
f 162//162 163//163 177//177 176//176
f 163//163 164//164 178//178 177//177
f 164//164 165//165 179//179 178//178
f 165//165 166//166 180//180 179//179
f 166//166 167//167 181//181 180//180
f 167//167 168//168 182//182 181//181
f 168//168 155//156 169//170 182//182
f 169//170 170//169 184//183 183//184
f 170//169 171//171 185//185 184//183
f 171//171 172//172 186//186 185//185
f 172//172 173//173 187//187 186//186
f 173//173 174//174 188//188 187//187
f 174//174 175//175 189//189 188//188
f 175//175 176//176 190//190 189//189
f 176//176 177//177 191//191 190//190
f 177//177 178//178 192//192 191//191
f 178//178 179//179 193//193 192//192
f 179//179 180//180 194//194 193//193
f 180//180 181//181 195//195 194//194
f 181//181 182//182 196//196 195//195
f 182//182 169//170 183//184 196//196
f 183//184 184//183 198//197 197//198
f 184//183 185//185 199//199 198//197
f 185//185 186//186 200//200 199//199
f 186//186 187//187 201//201 200//200
f 187//187 188//188 202//202 201//201
f 188//188 189//189 203//203 202//202
f 189//189 190//190 204//204 203//203
f 190//190 191//191 205//205 204//204
f 191//191 192//192 206//206 205//205
f 192//192 193//193 207//207 206//206
f 193//193 194//194 208//208 207//207
f 194//194 195//195 209//209 208//208
f 195//195 196//196 210//210 209//209
f 196//196 183//184 197//198 210//210
f 197//198 198//197 212//211 211//212
f 198//197 199//199 213//213 212//211
f 199//199 200//200 214//214 213//213
f 200//200 201//201 215//215 214//214
f 201//201 202//202 216//216 215//215
f 202//202 203//203 217//217 216//216
f 203//203 204//204 218//218 217//217
f 204//204 205//205 219//219 218//218
f 205//205 206//206 220//220 219//219
f 206//206 207//207 221//221 220//220
f 207//207 208//208 222//222 221//221
f 208//208 209//209 223//223 222//222
f 209//209 210//210 224//224 223//223
f 210//210 197//198 211//212 224//224
f 211//212 212//211 226//225 225//226
f 212//211 213//213 227//227 226//225
f 213//213 214//214 228//228 227//227
f 214//214 215//215 229//229 228//228
f 215//215 216//216 230//230 229//229
f 216//216 217//217 231//231 230//230
f 217//217 218//218 232//232 231//231
f 218//218 219//219 233//233 232//232
f 219//219 220//220 234//234 233//233
f 220//220 221//221 235//235 234//234
f 221//221 222//222 236//236 235//235
f 222//222 223//223 237//237 236//236
f 223//223 224//224 238//238 237//237
f 224//224 211//212 225//226 238//238
f 239//239 242//240 244//241 241//242
f 241//243 244//244 243//245 240//246
f 242//240 245//247 247//248 244//241
f 244//244 247//249 246//250 243//245
f 245//247 248//251 250//252 247//248
f 247//249 250//253 249//254 246//250
f 248//251 251//255 253//256 250//252
f 250//253 253//257 252//258 249//254
f 251//255 254//259 256//260 253//256
f 253//257 256//261 255//262 252//258
f 254//259 257//263 259//264 256//260
f 256//261 259//265 258//266 255//262
f 257//263 260//267 262//268 259//264
f 259//265 262//269 261//270 258//266
f 260//267 263//271 265//272 262//268
f 262//269 265//273 264//274 261//270
f 263//271 266//275 268//276 265//272
f 265//273 268//277 267//278 264//274
f 266//275 269//279 271//280 268//276
f 268//277 271//281 270//282 267//278
f 269//279 272//283 274//284 271//280
f 271//281 274//285 273//286 270//282
f 272//283 275//287 277//288 274//284
f 274//285 277//289 276//290 273//286
f 275//287 278//291 280//292 277//288
f 277//289 280//293 279//294 276//290
f 240//246 279//294 280//293 241//243
f 241//242 280//292 278//291 239//239
f 282//295 285//296 286//297 283//298
f 283//299 286//300 284//301 281//302
f 285//296 288//303 289//304 286//297
f 286//300 289//305 287//306 284//301
f 288//303 291//307 292//308 289//304
f 289//305 292//309 290//310 287//306
f 291//307 294//311 295//312 292//308
f 292//309 295//313 293//314 290//310
f 294//311 297//315 298//316 295//312
f 295//313 298//317 296//318 293//314
f 297//315 300//319 301//320 298//316
f 298//317 301//321 299//322 296//318
f 300//319 303//323 304//324 301//320
f 301//321 304//325 302//326 299//322
f 303//323 306//327 307//328 304//324
f 304//325 307//329 305//330 302//326
f 306//327 309//331 310//332 307//328
f 307//329 310//333 308//334 305//330
f 309//331 312//335 313//336 310//332
f 310//333 313//337 311//338 308//334
f 312//335 315//339 316//340 313//336
f 313//337 316//341 314//342 311//338
f 315//339 318//343 319//344 316//340
f 316//341 319//345 317//346 314//342
f 318//343 321//347 322//348 319//344
f 319//345 322//349 320//350 317//346
f 281//302 320//350 322//349 283//299
f 283//298 322//348 321//347 282//295
f 279//294 240//246 1//1 14//27
f 240//246 243//245 2//2 1//1
f 278//291 275//287 272//283 269//279 266//275 263//271 260//267 257//263 254//259 251//255 248//251 245//247 242//240 239//239
f 243//245 246//250 3//5 2//2
f 246//250 249//254 4//7 3//5
f 249//254 252//258 5//9 4//7
f 252//258 255//262 6//11 5//9
f 255//262 258//266 7//13 6//11
f 258//266 261//270 8//15 7//13
f 261//270 264//274 9//17 8//15
f 264//274 267//278 10//19 9//17
f 267//278 270//282 11//21 10//19
f 270//282 273//286 12//23 11//21
f 273//286 276//290 13//25 12//23
f 276//290 279//294 14//27 13//25
f 238//238 225//226 282//295 321//347
f 225//226 226//225 285//296 282//295
f 281//302 284//301 287//306 290//310 293//314 296//318 299//322 302//326 305//330 308//334 311//338 314//342 317//346 320//350
f 226//225 227//227 288//303 285//296
f 227//227 228//228 291//307 288//303
f 228//228 229//229 294//311 291//307
f 229//229 230//230 297//315 294//311
f 230//230 231//231 300//319 297//315
f 231//231 232//232 303//323 300//319
f 232//232 233//233 306//327 303//323
f 233//233 234//234 309//331 306//327
f 234//234 235//235 312//335 309//331
f 235//235 236//236 315//339 312//335
f 236//236 237//237 318//343 315//339
f 237//237 238//238 321//347 318//343
f 323//351 324//352 338//353 337//354
f 324//352 325//355 339//356 338//353
f 325//355 326//357 340//358 339//356
f 326//357 327//359 341//360 340//358
f 327//359 328//361 342//362 341//360
f 328//361 329//363 343//364 342//362
f 329//363 330//365 344//366 343//364
f 330//365 331//367 345//368 344//366
f 331//367 332//369 346//370 345//368
f 332//369 333//371 347//372 346//370
f 333//371 334//373 348//374 347//372
f 334//373 335//375 349//376 348//374
f 335//375 336//377 350//378 349//376
f 336//377 323//351 337//354 350//378
f 337//354 338//353 352//379 351//380
f 338//353 339//356 353//381 352//379
f 339//356 340//358 354//382 353//381
f 340//358 341//360 355//383 354//382
f 341//360 342//362 356//384 355//383
f 342//362 343//364 357//385 356//384
f 343//364 344//366 358//386 357//385
f 344//366 345//368 359//387 358//386
f 345//368 346//370 360//388 359//387
f 346//370 347//372 361//389 360//388
f 347//372 348//374 362//390 361//389
f 348//374 349//376 363//391 362//390
f 349//376 350//378 364//392 363//391
f 350//378 337//354 351//380 364//392
f 351//380 352//379 366//393 365//394
f 352//379 353//381 367//395 366//393
f 353//381 354//382 368//396 367//395
f 354//382 355//383 369//397 368//396
f 355//383 356//384 370//398 369//397
f 356//384 357//385 371//399 370//398
f 357//385 358//386 372//400 371//399
f 358//386 359//387 373//401 372//400
f 359//387 360//388 374//402 373//401
f 360//388 361//389 375//403 374//402
f 361//389 362//390 376//404 375//403
f 362//390 363//391 377//405 376//404
f 363//391 364//392 378//406 377//405
f 364//392 351//380 365//394 378//406
f 365//394 366//393 380//407 379//408
f 366//393 367//395 381//409 380//407
f 367//395 368//396 382//410 381//409
f 368//396 369//397 383//411 382//410
f 369//397 370//398 384//412 383//411
f 370//398 371//399 385//413 384//412
f 371//399 372//400 386//414 385//413
f 372//400 373//401 387//415 386//414
f 373//401 374//402 388//416 387//415
f 374//402 375//403 389//417 388//416
f 375//403 376//404 390//418 389//417
f 376//404 377//405 391//419 390//418
f 377//405 378//406 392//420 391//419
f 378//406 365//394 379//408 392//420
f 379//408 380//407 394//421 393//422
f 380//407 381//409 395//423 394//421
f 381//409 382//410 396//424 395//423
f 382//410 383//411 397//425 396//424
f 383//411 384//412 398//426 397//425
f 384//412 385//413 399//427 398//426
f 385//413 386//414 400//428 399//427
f 386//414 387//415 401//429 400//428
f 387//415 388//416 402//430 401//429
f 388//416 389//417 403//431 402//430
f 389//417 390//418 404//432 403//431
f 390//418 391//419 405//433 404//432
f 391//419 392//420 406//434 405//433
f 392//420 379//408 393//422 406//434
f 393//422 394//421 408//435 407//436
f 394//421 395//423 409//437 408//435
f 395//423 396//424 410//438 409//437
f 396//424 397//425 411//439 410//438
f 397//425 398//426 412//440 411//439
f 398//426 399//427 413//441 412//440
f 399//427 400//428 414//442 413//441
f 400//428 401//429 415//443 414//442
f 401//429 402//430 416//444 415//443
f 402//430 403//431 417//445 416//444
f 403//431 404//432 418//446 417//445
f 404//432 405//433 419//447 418//446
f 405//433 406//434 420//448 419//447
f 406//434 393//422 407//436 420//448
f 407//436 408//435 422//449 421//450
f 408//435 409//437 423//451 422//449
f 409//437 410//438 424//452 423//451
f 410//438 411//439 425//453 424//452
f 411//439 412//440 426//454 425//453
f 412//440 413//441 427//455 426//454
f 413//441 414//442 428//456 427//455
f 414//442 415//443 429//457 428//456
f 415//443 416//444 430//458 429//457
f 416//444 417//445 431//459 430//458
f 417//445 418//446 432//460 431//459
f 418//446 419//447 433//461 432//460
f 419//447 420//448 434//462 433//461
f 420//448 407//436 421//450 434//462
f 421//450 422//449 436//463 435//464
f 422//449 423//451 437//465 436//463
f 423//451 424//452 438//466 437//465
f 424//452 425//453 439//467 438//466
f 425//453 426//454 440//468 439//467
f 426//454 427//455 441//469 440//468
f 427//455 428//456 442//470 441//469
f 428//456 429//457 443//471 442//470
f 429//457 430//458 444//472 443//471
f 430//458 431//459 445//473 444//472
f 431//459 432//460 446//474 445//473
f 432//460 433//461 447//475 446//474
f 433//461 434//462 448//476 447//475
f 434//462 421//450 435//464 448//476
f 435//464 436//463 450//477 449//478
f 436//463 437//465 451//479 450//477
f 437//465 438//466 452//480 451//479
f 438//466 439//467 453//481 452//480
f 439//467 440//468 454//482 453//481
f 440//468 441//469 455//483 454//482
f 441//469 442//470 456//484 455//483
f 442//470 443//471 457//485 456//484
f 443//471 444//472 458//486 457//485
f 444//472 445//473 459//487 458//486
f 445//473 446//474 460//488 459//487
f 446//474 447//475 461//489 460//488
f 447//475 448//476 462//490 461//489
f 448//476 435//464 449//478 462//490
f 449//478 450//477 464//491 463//492
f 450//477 451//479 465//493 464//491
f 451//479 452//480 466//494 465//493
f 452//480 453//481 467//495 466//494
f 453//481 454//482 468//496 467//495
f 454//482 455//483 469//497 468//496
f 455//483 456//484 470//498 469//497
f 456//484 457//485 471//499 470//498
f 457//485 458//486 472//500 471//499
f 458//486 459//487 473//501 472//500
f 459//487 460//488 474//502 473//501
f 460//488 461//489 475//503 474//502
f 461//489 462//490 476//504 475//503
f 462//490 449//478 463//492 476//504
f 336//377 335//375 334//373 333//371 332//369 331//367 330//365 329//363 328//361 327//359 326//357 325//355 324//352 323//351
f 463//492 464//491 465//493 466//494 467//495 468//496 469//497 470//498 471//499 472//500 473//501 474//502 475//503 476//504
f 477//505 480//506 481//507 483//508
f 478//509 482//510 481//511 480//512
f 479//513 483//514 481//515 482//516
f 484//517 487//518 488//519 490//520
f 485//521 489//522 488//523 487//524
f 486//525 490//526 488//527 489//528
f 491//529 494//530 495//531 497//532
f 492//533 496//534 495//535 494//536
f 493//537 497//538 495//539 496//540
f 498//541 501//542 502//543 504//544
f 499//545 503//546 502//547 501//548
f 500//549 504//550 502//551 503//552
f 637//553 640//554 641//555 643//556
f 638//557 642//558 641//559 640//560
f 639//561 643//562 641//563 642//564
f 644//565 647//566 648//567 650//568
f 645//569 649//570 648//571 647//572
f 646//573 650//574 648//575 649//576
f 651//577 654//578 655//579 657//580
f 652//581 656//582 655//583 654//584
f 653//585 657//586 655//587 656//588
f 658//589 661//590 662//591 664//592
f 659//593 663//594 662//595 661//596
f 660//597 664//598 662//599 663//600
f 479//513 505//601 507//602 483//514
f 483//508 507//603 506//604 477//505
f 478//509 484//517 490//520 482//510
f 482//516 490//526 486//525 479//513
f 485//521 508//605 510//606 489//522
f 489//528 510//607 509//608 486//525
f 484//517 491//529 497//532 487//518
f 487//524 497//538 493//537 485//521
f 492//533 511//609 513//610 496//534
f 496//540 513//611 512//612 493//537
f 491//529 498//541 504//544 494//530
f 494//536 504//550 500//549 492//533
f 499//545 514//613 516//614 503//546
f 503//552 516//615 515//616 500//549
f 477//505 499//545 501//548 480//506
f 480//512 501//542 498//541 478//509
f 505//601 517//617 519//618 507//602
f 507//603 519//619 518//620 506//604
f 508//605 520//621 522//622 510//606
f 510//607 522//623 521//624 509//608
f 511//609 523//625 525//626 513//610
f 513//611 525//627 524//628 512//612
f 514//613 526//629 528//630 516//614
f 516//615 528//631 527//632 515//616
f 517//617 529//617 531//618 519//618
f 519//619 531//619 530//620 518//620
f 520//621 532//621 534//622 522//622
f 522//623 534//623 533//624 521//624
f 523//625 535//625 537//626 525//626
f 525//627 537//627 536//628 524//628
f 526//629 538//629 540//630 528//630
f 528//631 540//631 539//632 527//632
f 529//617 541//617 543//618 531//618
f 531//619 543//619 542//620 530//620
f 532//621 544//621 546//622 534//622
f 534//623 546//623 545//624 533//624
f 535//625 547//625 549//626 537//626
f 537//627 549//627 548//628 536//628
f 538//629 550//629 552//630 540//630
f 540//631 552//631 551//632 539//632
f 541//617 553//617 555//618 543//618
f 543//619 555//619 554//620 542//620
f 544//621 556//621 558//622 546//622
f 546//623 558//623 557//624 545//624
f 547//625 559//625 561//626 549//626
f 549//627 561//627 560//628 548//628
f 550//629 562//629 564//630 552//630
f 552//631 564//631 563//632 551//632
f 553//617 565//633 567//634 555//618
f 555//619 567//635 566//636 554//620
f 556//621 568//637 570//638 558//622
f 558//623 570//639 569//640 557//624
f 559//625 571//641 573//642 561//626
f 561//627 573//643 572//644 560//628
f 562//629 574//645 576//646 564//630
f 564//631 576//647 575//648 563//632
f 565//633 577//649 579//650 567//634
f 567//635 579//651 578//652 566//636
f 568//637 580//653 582//654 570//638
f 570//639 582//655 581//656 569//640
f 571//641 583//657 585//658 573//642
f 573//643 585//659 584//660 572//644
f 574//645 586//661 588//662 576//646
f 576//647 588//663 587//664 575//648
f 577//649 589//649 591//650 579//650
f 579//651 591//651 590//652 578//652
f 580//653 592//653 594//654 582//654
f 582//655 594//655 593//656 581//656
f 583//657 595//657 597//658 585//658
f 585//659 597//659 596//660 584//660
f 586//661 598//661 600//662 588//662
f 588//663 600//663 599//664 587//664
f 589//649 601//649 603//650 591//650
f 591//651 603//651 602//652 590//652
f 592//653 604//653 606//654 594//654
f 594//655 606//655 605//656 593//656
f 595//657 607//657 609//658 597//658
f 597//659 609//659 608//660 596//660
f 598//661 610//661 612//662 600//662
f 600//663 612//663 611//664 599//664
f 601//649 613//649 615//650 603//650
f 603//651 615//651 614//652 602//652
f 604//653 616//653 618//654 606//654
f 606//655 618//655 617//656 605//656
f 607//657 619//657 621//658 609//658
f 609//659 621//659 620//660 608//660
f 610//661 622//661 624//662 612//662
f 612//663 624//663 623//664 611//664
f 613//649 625//665 627//666 615//650
f 615//651 627//667 626//668 614//652
f 616//653 628//669 630//670 618//654
f 618//655 630//671 629//672 617//656
f 619//657 631//673 633//674 621//658
f 621//659 633//675 632//676 620//660
f 622//661 634//677 636//678 624//662
f 624//663 636//679 635//680 623//664
f 625//665 638//557 640//560 627//666
f 627//667 640//554 637//553 626//668
f 628//669 644//565 650//568 630//670
f 630//671 650//574 646//573 629//672
f 638//557 646//573 649//576 642//558
f 642//564 649//570 645//569 639//561
f 631//673 651//577 657//580 633//674
f 633//675 657//586 653//585 632//676
f 644//565 653//585 656//588 647//566
f 647//572 656//582 652//581 645//569
f 634//677 658//589 664//592 636//678
f 636//679 664//598 660//597 635//680
f 651//577 660//597 663//600 654//578
f 654//584 663//594 659//593 652//581
f 639//561 659//593 661//596 643//562
f 643//556 661//590 658//589 637//553
f 499//545 477//505 506//604 514//613
f 479//513 486//525 509//608 505//601
f 498//541 491//529 484//517 478//509
f 485//521 493//537 512//612 508//605
f 492//533 500//549 515//616 511//609
f 514//613 506//604 518//620 526//629
f 505//601 509//608 521//624 517//617
f 508//605 512//612 524//628 520//621
f 511//609 515//616 527//632 523//625
f 526//629 518//620 530//620 538//629
f 517//617 521//624 533//624 529//617
f 520//621 524//628 536//628 532//621
f 523//625 527//632 539//632 535//625
f 538//629 530//620 542//620 550//629
f 529//617 533//624 545//624 541//617
f 532//621 536//628 548//628 544//621
f 535//625 539//632 551//632 547//625
f 550//629 542//620 554//620 562//629
f 541//617 545//624 557//624 553//617
f 544//621 548//628 560//628 556//621
f 547//625 551//632 563//632 559//625
f 562//629 554//620 566//636 574//645
f 553//617 557//624 569//640 565//633
f 556//621 560//628 572//644 568//637
f 559//625 563//632 575//648 571//641
f 574//645 566//636 578//652 586//661
f 565//633 569//640 581//656 577//649
f 568//637 572//644 584//660 580//653
f 571//641 575//648 587//664 583//657
f 586//661 578//652 590//652 598//661
f 577//649 581//656 593//656 589//649
f 580//653 584//660 596//660 592//653
f 583//657 587//664 599//664 595//657
f 598//661 590//652 602//652 610//661
f 589//649 593//656 605//656 601//649
f 592//653 596//660 608//660 604//653
f 595//657 599//664 611//664 607//657
f 610//661 602//652 614//652 622//661
f 601//649 605//656 617//656 613//649
f 604//653 608//660 620//660 616//653
f 607//657 611//664 623//664 619//657
f 622//661 614//652 626//668 634//677
f 613//649 617//656 629//672 625//665
f 616//653 620//660 632//676 628//669
f 619//657 623//664 635//680 631//673
f 634//677 626//668 637//553 658//589
f 625//665 629//672 646//573 638//557
f 628//669 632//676 653//585 644//565
f 631//673 635//680 660//597 651//577
f 639//561 645//569 652//581 659//593
f 665//681 666//682 672//683 671//684
f 666//682 667//685 673//686 672//683
f 668//687 669//688 675//689 674//690
f 669//688 670//691 676//692 675//689
f 671//684 672//683 678//683 677//693
f 672//683 673//686 679//694 678//683
f 674//690 675//689 681//689 680//695
f 675//689 676//692 682//696 681//689
f 677//693 678//683 684//697 683//698
f 678//683 679//694 685//699 684//697
f 680//695 681//689 687//700 686//701
f 681//689 682//696 688//702 687//700
f 683//698 684//697 690//703 689//704
f 684//697 685//699 691//705 690//703
f 686//701 687//700 693//706 692//707
f 687//700 688//702 694//708 693//706
f 689//704 690//703 696//703 695//709
f 690//703 691//705 697//710 696//703
f 692//707 693//706 699//706 698//711
f 693//706 694//708 700//712 699//706
f 695//709 696//703 702//713 701//714
f 696//703 697//710 703//715 702//713
f 698//711 699//706 705//716 704//717
f 699//706 700//712 706//718 705//716
f 701//714 702//713 708//719 707//720
f 702//713 703//715 709//721 708//719
f 704//717 705//716 711//722 710//723
f 705//716 706//718 712//724 711//722
f 707//720 708//719 714//725 713//726
f 708//719 709//721 715//727 714//725
f 710//723 711//722 717//728 716//729
f 711//722 712//724 718//730 717//728
f 713//726 714//725 720//731 719//732
f 714//725 715//727 721//733 720//731
f 716//729 717//728 723//734 722//735
f 717//728 718//730 724//736 723//734
f 719//732 720//731 726//737 725//738
f 720//731 721//733 727//739 726//737
f 722//735 723//734 729//740 728//741
f 723//734 724//736 730//742 729//740
f 725//738 726//737 732//743 731//744
f 726//737 727//739 733//745 732//743
f 728//741 729//740 735//746 734//747
f 729//740 730//742 736//748 735//746
f 737//749 740//750 741//751 743//752
f 738//753 742//754 741//755 740//756
f 739//757 743//758 741//759 742//760
f 753//761 756//762 757//763 759//764
f 754//765 758//766 757//767 756//768
f 755//769 759//770 757//771 758//772
f 841//773 844//774 845//775 847//776
f 842//777 846//778 845//775 844//774
f 843//779 847//780 845//781 846//782
f 857//783 860//784 861//785 863//786
f 858//787 862//788 861//789 860//790
f 859//791 863//786 861//785 862//792
f 739//757 769//793 771//794 743//758
f 743//752 771//795 770//796 737//749
f 738//753 744//797 746//798 742//754
f 742//760 746//799 745//800 739//757
f 744//797 747//801 749//802 746//798
f 746//799 749//803 748//804 745//800
f 747//801 750//805 752//806 749//802
f 749//803 752//807 751//808 748//804
f 750//805 753//761 759//764 752//806
f 752//807 759//770 755//769 751//808
f 754//765 772//809 774//810 758//766
f 758//772 774//811 773//812 755//769
f 753//761 760//813 762//814 756//762
f 756//768 762//815 761//816 754//765
f 760//813 763//817 765//818 762//814
f 762//815 765//819 764//820 761//816
f 763//817 766//821 768//822 765//818
f 765//819 768//823 767//824 764//820
f 737//749 767//824 768//823 740//750
f 740//756 768//822 766//821 738//753
f 769//793 775//825 777//826 771//794
f 771//795 777//827 776//828 770//796
f 772//809 778//829 780//830 774//810
f 774//811 780//831 779//832 773//812
f 775//825 781//833 783//834 777//826
f 777//827 783//835 782//836 776//828
f 778//829 784//837 786//838 780//830
f 780//831 786//839 785//840 779//832
f 781//833 787//841 789//842 783//834
f 783//835 789//843 788//844 782//836
f 784//837 790//845 792//846 786//838
f 786//839 792//847 791//848 785//840
f 787//841 793//849 795//850 789//842
f 789//843 795//851 794//852 788//844
f 790//845 796//853 798//854 792//846
f 792//847 798//855 797//856 791//848
f 793//849 799//857 801//858 795//850
f 795//851 801//859 800//860 794//852
f 796//853 802//861 804//862 798//854
f 798//855 804//863 803//864 797//856
f 799//857 805//865 807//866 801//858
f 801//859 807//867 806//868 800//860
f 802//861 808//869 810//870 804//862
f 804//863 810//871 809//872 803//864
f 805//865 811//873 813//874 807//866
f 807//867 813//875 812//876 806//868
f 808//869 814//877 816//878 810//870
f 810//871 816//879 815//880 809//872
f 811//873 817//881 819//882 813//874
f 813//875 819//883 818//884 812//876
f 814//877 820//885 822//886 816//878
f 816//879 822//887 821//888 815//880
f 817//881 823//889 825//890 819//882
f 819//883 825//891 824//892 818//884
f 820//885 826//893 828//894 822//886
f 822//887 828//895 827//896 821//888
f 823//889 829//897 831//898 825//890
f 825//891 831//899 830//900 824//892
f 826//893 832//901 834//902 828//894
f 828//895 834//903 833//904 827//896
f 829//897 835//905 837//906 831//898
f 831//899 837//907 836//908 830//900
f 832//901 838//909 840//910 834//902
f 834//903 840//911 839//912 833//904
f 835//905 842//777 844//774 837//906
f 837//907 844//774 841//773 836//908
f 842//777 849//913 850//914 846//778
f 846//782 850//915 848//916 843//779
f 849//917 852//918 853//919 850//920
f 850//915 853//921 851//922 848//916
f 852//918 855//923 856//924 853//919
f 853//921 856//925 854//926 851//922
f 838//909 857//783 863//786 840//910
f 840//911 863//786 859//791 839//912
f 855//927 859//791 862//792 856//928
f 856//925 862//788 858//787 854//926
f 857//783 865//929 866//930 860//784
f 860//790 866//931 864//932 858//787
f 865//933 868//934 869//935 866//936
f 866//931 869//937 867//938 864//932
f 868//934 871//939 872//940 869//935
f 869//937 872//941 870//942 867//938
f 843//779 870//942 872//941 847//780
f 847//776 872//943 871//944 841//773
f 767//824 737//749 770//796 670//945
f 739//757 745//800 665//946 769//793
f 766//821 763//817 760//813 753//761 750//805 747//801 744//797 738//753
f 745//800 748//804 666//682 665//681
f 748//804 751//808 667//685 666//682
f 751//808 755//769 773//812 667//947
f 754//765 761//816 668//948 772//809
f 761//816 764//820 669//688 668//687
f 764//820 767//824 670//691 669//688
f 670//945 770//796 776//828 676//949
f 769//793 665//946 671//950 775//825
f 772//809 668//948 674//951 778//829
f 667//947 773//812 779//832 673//952
f 676//949 776//828 782//836 682//953
f 775//825 671//950 677//954 781//833
f 778//829 674//951 680//955 784//837
f 673//952 779//832 785//840 679//956
f 682//953 782//836 788//844 688//957
f 781//833 677//954 683//958 787//841
f 784//837 680//955 686//959 790//845
f 679//956 785//840 791//848 685//960
f 688//957 788//844 794//852 694//961
f 787//841 683//958 689//962 793//849
f 790//845 686//959 692//963 796//853
f 685//960 791//848 797//856 691//964
f 694//961 794//852 800//860 700//965
f 793//849 689//962 695//966 799//857
f 796//853 692//963 698//967 802//861
f 691//964 797//856 803//864 697//968
f 700//965 800//860 806//868 706//969
f 799//857 695//966 701//970 805//865
f 802//861 698//967 704//971 808//869
f 697//968 803//864 809//872 703//972
f 706//969 806//868 812//876 712//973
f 805//865 701//970 707//974 811//873
f 808//869 704//971 710//975 814//877
f 703//972 809//872 815//880 709//976
f 712//973 812//876 818//884 718//977
f 811//873 707//974 713//978 817//881
f 814//877 710//975 716//979 820//885
f 709//976 815//880 821//888 715//980
f 718//977 818//884 824//892 724//981
f 817//881 713//978 719//982 823//889
f 820//885 716//979 722//983 826//893
f 715//980 821//888 827//896 721//984
f 724//981 824//892 830//900 730//985
f 823//889 719//982 725//986 829//897
f 826//893 722//983 728//987 832//901
f 721//984 827//896 833//904 727//988
f 730//985 830//900 836//908 736//989
f 829//897 725//986 731//990 835//905
f 832//901 728//987 734//991 838//909
f 727//988 833//904 839//912 733//992
f 736//989 836//908 841//773 871//944
f 835//905 731//990 849//913 842//777
f 838//909 734//991 865//929 857//783
f 733//992 839//912 859//791 855//927
f 843//779 848//916 851//922 854//926 858//787 864//932 867//938 870//942
f 731//744 732//743 852//918 849//917
f 732//743 733//745 855//923 852//918
f 734//747 735//746 868//934 865//933
f 735//746 736//748 871//939 868//934
