# Blender 5.2.0 LTS
# www.blender.org
o Greataxe
v 0.128960 -0.110000 0.000000
v 0.111683 -0.110000 -0.064480
v 0.064480 -0.110000 -0.111683
v 0.000000 -0.110000 -0.128960
v -0.064480 -0.110000 -0.111683
v -0.111683 -0.110000 -0.064480
v -0.128960 -0.110000 -0.000000
v -0.111683 -0.110000 0.064480
v -0.064480 -0.110000 0.111683
v -0.000000 -0.110000 0.128960
v 0.064480 -0.110000 0.111683
v 0.111683 -0.110000 0.064480
v 0.127920 0.380000 0.000000
v 0.110782 0.380000 -0.063960
v 0.063960 0.380000 -0.110782
v 0.000000 0.380000 -0.127920
v -0.063960 0.380000 -0.110782
v -0.110782 0.380000 -0.063960
v -0.127920 0.380000 -0.000000
v -0.110782 0.380000 0.063960
v -0.063960 0.380000 0.110782
v -0.000000 0.380000 0.127920
v 0.063960 0.380000 0.110782
v 0.110782 0.380000 0.063960
v 0.126880 0.870000 0.000000
v 0.109881 0.870000 -0.063440
v 0.063440 0.870000 -0.109881
v 0.000000 0.870000 -0.126880
v -0.063440 0.870000 -0.109881
v -0.109881 0.870000 -0.063440
v -0.126880 0.870000 -0.000000
v -0.109881 0.870000 0.063440
v -0.063440 0.870000 0.109881
v -0.000000 0.870000 0.126880
v 0.063440 0.870000 0.109881
v 0.109881 0.870000 0.063440
v 0.125840 1.360000 0.000000
v 0.108981 1.360000 -0.062920
v 0.062920 1.360000 -0.108981
v 0.000000 1.360000 -0.125840
v -0.062920 1.360000 -0.108981
v -0.108981 1.360000 -0.062920
v -0.125840 1.360000 -0.000000
v -0.108981 1.360000 0.062920
v -0.062920 1.360000 0.108981
v -0.000000 1.360000 0.125840
v 0.062920 1.360000 0.108981
v 0.108981 1.360000 0.062920
v 0.124800 1.850000 0.000000
v 0.108080 1.850000 -0.062400
v 0.062400 1.850000 -0.108080
v 0.000000 1.850000 -0.124800
v -0.062400 1.850000 -0.108080
v -0.108080 1.850000 -0.062400
v -0.124800 1.850000 -0.000000
v -0.108080 1.850000 0.062400
v -0.062400 1.850000 0.108080
v -0.000000 1.850000 0.124800
v 0.062400 1.850000 0.108080
v 0.108080 1.850000 0.062400
v 0.123760 2.340000 0.000000
v 0.107179 2.340000 -0.061880
v 0.061880 2.340000 -0.107179
v 0.000000 2.340000 -0.123760
v -0.061880 2.340000 -0.107179
v -0.107179 2.340000 -0.061880
v -0.123760 2.340000 -0.000000
v -0.107179 2.340000 0.061880
v -0.061880 2.340000 0.107179
v -0.000000 2.340000 0.123760
v 0.061880 2.340000 0.107179
v 0.107179 2.340000 0.061880
v 0.122720 2.830000 0.000000
v 0.106279 2.830000 -0.061360
v 0.061360 2.830000 -0.106279
v 0.000000 2.830000 -0.122720
v -0.061360 2.830000 -0.106279
v -0.106279 2.830000 -0.061360
v -0.122720 2.830000 -0.000000
v -0.106279 2.830000 0.061360
v -0.061360 2.830000 0.106279
v -0.000000 2.830000 0.122720
v 0.061360 2.830000 0.106279
v 0.106279 2.830000 0.061360
v 0.121680 3.320000 0.000000
v 0.105378 3.320000 -0.060840
v 0.060840 3.320000 -0.105378
v 0.000000 3.320000 -0.121680
v -0.060840 3.320000 -0.105378
v -0.105378 3.320000 -0.060840
v -0.121680 3.320000 -0.000000
v -0.105378 3.320000 0.060840
v -0.060840 3.320000 0.105378
v -0.000000 3.320000 0.121680
v 0.060840 3.320000 0.105378
v 0.105378 3.320000 0.060840
v 0.120640 3.810000 0.000000
v 0.104477 3.810000 -0.060320
v 0.060320 3.810000 -0.104477
v 0.000000 3.810000 -0.120640
v -0.060320 3.810000 -0.104477
v -0.104477 3.810000 -0.060320
v -0.120640 3.810000 -0.000000
v -0.104477 3.810000 0.060320
v -0.060320 3.810000 0.104477
v -0.000000 3.810000 0.120640
v 0.060320 3.810000 0.104477
v 0.104477 3.810000 0.060320
v 0.123788 -0.600000 -0.000000
v 0.129987 -0.594000 0.000000
v 0.128177 -0.598243 -0.000000
v 0.107204 -0.600000 -0.061894
v 0.112572 -0.594000 -0.064994
v 0.111004 -0.598243 -0.064088
v 0.061894 -0.600000 -0.107204
v 0.064994 -0.594000 -0.112572
v 0.064088 -0.598243 -0.111004
v -0.000000 -0.600000 -0.123788
v 0.000000 -0.594000 -0.129987
v -0.000000 -0.598243 -0.128177
v -0.061894 -0.600000 -0.107204
v -0.064994 -0.594000 -0.112572
v -0.064088 -0.598243 -0.111004
v -0.107204 -0.600000 -0.061894
v -0.112572 -0.594000 -0.064994
v -0.111004 -0.598243 -0.064088
v -0.123788 -0.600000 0.000000
v -0.129987 -0.594000 -0.000000
v -0.128177 -0.598243 0.000000
v -0.107204 -0.600000 0.061894
v -0.112572 -0.594000 0.064994
v -0.111004 -0.598243 0.064088
v -0.061894 -0.600000 0.107204
v -0.064994 -0.594000 0.112572
v -0.064088 -0.598243 0.111004
v 0.000000 -0.600000 0.123788
v -0.000000 -0.594000 0.129987
v 0.000000 -0.598243 0.128177
v 0.061894 -0.600000 0.107204
v 0.064994 -0.594000 0.112572
v 0.064088 -0.598243 0.111004
v 0.107204 -0.600000 0.061894
v 0.112572 -0.594000 0.064994
v 0.111004 -0.598243 0.064088
v 0.113388 4.300000 -0.000000
v 0.119613 4.294000 0.000000
v 0.117784 4.298243 -0.000000
v 0.098197 4.300000 -0.056694
v 0.103588 4.294000 -0.059806
v 0.102004 4.298243 -0.058892
v 0.056694 4.300000 -0.098197
v 0.059806 4.294000 -0.103588
v 0.058892 4.298243 -0.102004
v -0.000000 4.300000 -0.113388
v 0.000000 4.294000 -0.119613
v -0.000000 4.298243 -0.117784
v -0.056694 4.300000 -0.098197
v -0.059806 4.294000 -0.103588
v -0.058892 4.298243 -0.102004
v -0.098197 4.300000 -0.056694
v -0.103588 4.294000 -0.059806
v -0.102004 4.298243 -0.058892
v -0.113388 4.300000 0.000000
v -0.119613 4.294000 -0.000000
v -0.117784 4.298243 0.000000
v -0.098197 4.300000 0.056694
v -0.103588 4.294000 0.059806
v -0.102004 4.298243 0.058892
v -0.056694 4.300000 0.098197
v -0.059806 4.294000 0.103588
v -0.058892 4.298243 0.102004
v 0.000000 4.300000 0.113388
v -0.000000 4.294000 0.119613
v 0.000000 4.298243 0.117784
v 0.056694 4.300000 0.098197
v 0.059806 4.294000 0.103588
v 0.058892 4.298243 0.102004
v 0.098197 4.300000 0.056694
v 0.103588 4.294000 0.059806
v 0.102004 4.298243 0.058892
v 0.146614 -0.488889 0.000000
v 0.132095 -0.488889 -0.063613
v 0.091412 -0.488889 -0.114627
v 0.032625 -0.488889 -0.142938
v -0.032625 -0.488889 -0.142938
v -0.091412 -0.488889 -0.114627
v -0.132095 -0.488889 -0.063613
v -0.146614 -0.488889 -0.000000
v -0.132095 -0.488889 0.063613
v -0.091412 -0.488889 0.114627
v -0.032625 -0.488889 0.142938
v 0.032625 -0.488889 0.142938
v 0.091412 -0.488889 0.114627
v 0.132095 -0.488889 0.063613
v 0.143331 -0.427778 0.000000
v 0.129136 -0.427778 -0.062189
v 0.089365 -0.427778 -0.112060
v 0.031894 -0.427778 -0.139737
v -0.031894 -0.427778 -0.139737
v -0.089365 -0.427778 -0.112060
v -0.129136 -0.427778 -0.062189
v -0.143331 -0.427778 -0.000000
v -0.129136 -0.427778 0.062189
v -0.089365 -0.427778 0.112060
v -0.031894 -0.427778 0.139737
v 0.031894 -0.427778 0.139737
v 0.089365 -0.427778 0.112060
v 0.129136 -0.427778 0.062189
v 0.148665 -0.366667 0.000000
v 0.133943 -0.366667 -0.064503
v 0.092691 -0.366667 -0.116231
v 0.033081 -0.366667 -0.144938
v -0.033081 -0.366667 -0.144938
v -0.092691 -0.366667 -0.116231
v -0.133943 -0.366667 -0.064503
v -0.148665 -0.366667 -0.000000
v -0.133943 -0.366667 0.064503
v -0.092691 -0.366667 0.116231
v -0.033081 -0.366667 0.144938
v 0.033081 -0.366667 0.144938
v 0.092691 -0.366667 0.116231
v 0.133943 -0.366667 0.064503
v 0.145714 -0.305556 0.000000
v 0.131283 -0.305556 -0.063223
v 0.090851 -0.305556 -0.113923
v 0.032424 -0.305556 -0.142060
v -0.032424 -0.305556 -0.142060
v -0.090851 -0.305556 -0.113923
v -0.131283 -0.305556 -0.063223
v -0.145714 -0.305556 -0.000000
v -0.131283 -0.305556 0.063223
v -0.090851 -0.305556 0.113923
v -0.032424 -0.305556 0.142060
v 0.032424 -0.305556 0.142060
v 0.090851 -0.305556 0.113923
v 0.131283 -0.305556 0.063223
v 0.135062 -0.244444 0.000000
v 0.121687 -0.244444 -0.058601
v 0.084210 -0.244444 -0.105596
v 0.030054 -0.244444 -0.131676
v -0.030054 -0.244444 -0.131676
v -0.084210 -0.244444 -0.105596
v -0.121687 -0.244444 -0.058601
v -0.135062 -0.244444 -0.000000
v -0.121687 -0.244444 0.058601
v -0.084210 -0.244444 0.105596
v -0.030054 -0.244444 0.131676
v 0.030054 -0.244444 0.131676
v 0.084210 -0.244444 0.105596
v 0.121687 -0.244444 0.058601
v 0.133113 -0.183333 0.000000
v 0.119930 -0.183333 -0.057755
v 0.082994 -0.183333 -0.104072
v 0.029620 -0.183333 -0.129775
v -0.029620 -0.183333 -0.129775
v -0.082994 -0.183333 -0.104072
v -0.119930 -0.183333 -0.057755
v -0.133113 -0.183333 -0.000000
v -0.119930 -0.183333 0.057755
v -0.082994 -0.183333 0.104072
v -0.029620 -0.183333 0.129775
v 0.029620 -0.183333 0.129775
v 0.082994 -0.183333 0.104072
v 0.119930 -0.183333 0.057755
v 0.139577 -0.122222 0.000000
v 0.125754 -0.122222 -0.060560
v 0.087025 -0.122222 -0.109125
v 0.031059 -0.122222 -0.136077
v -0.031059 -0.122222 -0.136077
v -0.087025 -0.122222 -0.109125
v -0.125754 -0.122222 -0.060560
v -0.139577 -0.122222 -0.000000
v -0.125754 -0.122222 0.060560
v -0.087025 -0.122222 0.109125
v -0.031059 -0.122222 0.136077
v 0.031059 -0.122222 0.136077
v 0.087025 -0.122222 0.109125
v 0.125754 -0.122222 0.060560
v 0.138644 -0.061111 0.000000
v 0.124914 -0.061111 -0.060155
v 0.086443 -0.061111 -0.108396
v 0.030851 -0.061111 -0.135168
v -0.030851 -0.061111 -0.135168
v -0.086443 -0.061111 -0.108396
v -0.124914 -0.061111 -0.060155
v -0.138644 -0.061111 -0.000000
v -0.124914 -0.061111 0.060155
v -0.086443 -0.061111 0.108396
v -0.030851 -0.061111 0.135168
v 0.030851 -0.061111 0.135168
v 0.086443 -0.061111 0.108396
v 0.124914 -0.061111 0.060155
v 0.130500 0.000000 0.000000
v 0.117576 0.000000 -0.056622
v 0.081365 0.000000 -0.102029
v 0.029039 0.000000 -0.127228
v -0.029039 0.000000 -0.127228
v -0.081365 0.000000 -0.102029
v -0.117576 0.000000 -0.056622
v -0.130500 0.000000 -0.000000
v -0.117576 0.000000 0.056622
v -0.081365 0.000000 0.102029
v -0.029039 0.000000 0.127228
v 0.029039 0.000000 0.127228
v 0.081365 0.000000 0.102029
v 0.117576 0.000000 0.056622
v 0.130796 0.061111 0.000000
v 0.117843 0.061111 -0.056750
v 0.081550 0.061111 -0.102261
v 0.029105 0.061111 -0.127517
v -0.029105 0.061111 -0.127517
v -0.081550 0.061111 -0.102261
v -0.117843 0.061111 -0.056750
v -0.130796 0.061111 -0.000000
v -0.117843 0.061111 0.056750
v -0.081550 0.061111 0.102261
v -0.029105 0.061111 0.127517
v 0.029105 0.061111 0.127517
v 0.081550 0.061111 0.102261
v 0.117843 0.061111 0.056750
v 0.131676 0.122222 0.000000
v 0.118636 0.122222 -0.057132
v 0.082099 0.122222 -0.102948
v 0.029301 0.122222 -0.128375
v -0.029301 0.122222 -0.128375
v -0.082099 0.122222 -0.102948
v -0.118636 0.122222 -0.057132
v -0.131676 0.122222 -0.000000
v -0.118636 0.122222 0.057132
v -0.082099 0.122222 0.102948
v -0.029301 0.122222 0.128375
v 0.029301 0.122222 0.128375
v 0.082099 0.122222 0.102948
v 0.118636 0.122222 0.057132
v 0.141099 0.183333 0.000000
v 0.127126 0.183333 -0.061221
v 0.087974 0.183333 -0.110316
v 0.031398 0.183333 -0.137562
v -0.031398 0.183333 -0.137562
v -0.087974 0.183333 -0.110316
v -0.127126 0.183333 -0.061221
v -0.141099 0.183333 -0.000000
v -0.127126 0.183333 0.061221
v -0.087974 0.183333 0.110316
v -0.031398 0.183333 0.137562
v 0.031398 0.183333 0.137562
v 0.087974 0.183333 0.110316
v 0.127126 0.183333 0.061221
v 0.143166 0.244444 0.000000
v 0.128988 0.244444 -0.062117
v 0.089262 0.244444 -0.111932
v 0.031857 0.244444 -0.139576
v -0.031857 0.244444 -0.139576
v -0.089262 0.244444 -0.111932
v -0.128988 0.244444 -0.062117
v -0.143166 0.244444 -0.000000
v -0.128988 0.244444 0.062117
v -0.089262 0.244444 0.111932
v -0.031857 0.244444 0.139576
v 0.031857 0.244444 0.139576
v 0.089262 0.244444 0.111932
v 0.128988 0.244444 0.062117
v 0.137466 0.305556 0.000000
v 0.123852 0.305556 -0.059644
v 0.085708 0.305556 -0.107475
v 0.030589 0.305556 -0.134019
v -0.030589 0.305556 -0.134019
v -0.085708 0.305556 -0.107475
v -0.123852 0.305556 -0.059644
v -0.137466 0.305556 -0.000000
v -0.123852 0.305556 0.059644
v -0.085708 0.305556 0.107475
v -0.030589 0.305556 0.134019
v 0.030589 0.305556 0.134019
v 0.085708 0.305556 0.107475
v 0.123852 0.305556 0.059644
v 0.140250 0.366667 0.000000
v 0.126361 0.366667 -0.060852
v 0.087444 0.366667 -0.109652
v 0.031209 0.366667 -0.136734
v -0.031209 0.366667 -0.136734
v -0.087444 0.366667 -0.109652
v -0.126361 0.366667 -0.060852
v -0.140250 0.366667 -0.000000
v -0.126361 0.366667 0.060852
v -0.087444 0.366667 0.109652
v -0.031209 0.366667 0.136734
v 0.031209 0.366667 0.136734
v 0.087444 0.366667 0.109652
v 0.126361 0.366667 0.060852
v 0.151930 0.427778 0.000000
v 0.136885 0.427778 -0.065920
v 0.094727 0.427778 -0.118784
v 0.033808 0.427778 -0.148121
v -0.033808 0.427778 -0.148121
v -0.094727 0.427778 -0.118784
v -0.136885 0.427778 -0.065920
v -0.151930 0.427778 -0.000000
v -0.136885 0.427778 0.065920
v -0.094727 0.427778 0.118784
v -0.033808 0.427778 0.148121
v 0.033808 0.427778 0.148121
v 0.094727 0.427778 0.118784
v 0.136885 0.427778 0.065920
v 0.155411 0.488889 0.000000
v 0.140020 0.488889 -0.067430
v 0.096897 0.488889 -0.121505
v 0.034582 0.488889 -0.151514
v -0.034582 0.488889 -0.151514
v -0.096897 0.488889 -0.121505
v -0.140020 0.488889 -0.067430
v -0.155411 0.488889 -0.000000
v -0.140020 0.488889 0.067430
v -0.096897 0.488889 0.121505
v -0.034582 0.488889 0.151514
v 0.034582 0.488889 0.151514
v 0.096897 0.488889 0.121505
v 0.140020 0.488889 0.067430
v 0.143846 -0.550000 0.000000
v 0.149668 -0.544009 0.000000
v 0.148100 -0.548245 0.000000
v 0.129600 -0.550000 -0.062412
v 0.134846 -0.544009 -0.064939
v 0.133434 -0.548245 -0.064258
v 0.089686 -0.550000 -0.112463
v 0.093316 -0.544009 -0.117015
v 0.092339 -0.548245 -0.115789
v 0.032009 -0.550000 -0.140239
v 0.033304 -0.544009 -0.145916
v 0.032955 -0.548245 -0.144387
v -0.032009 -0.550000 -0.140239
v -0.033304 -0.544009 -0.145916
v -0.032955 -0.548245 -0.144387
v -0.089686 -0.550000 -0.112463
v -0.093316 -0.544009 -0.117015
v -0.092339 -0.548245 -0.115789
v -0.129600 -0.550000 -0.062412
v -0.134846 -0.544009 -0.064939
v -0.133434 -0.548245 -0.064258
v -0.143846 -0.550000 0.000000
v -0.149668 -0.544009 -0.000000
v -0.148100 -0.548245 0.000000
v -0.129600 -0.550000 0.062412
v -0.134846 -0.544009 0.064939
v -0.133434 -0.548245 0.064258
v -0.089686 -0.550000 0.112463
v -0.093316 -0.544009 0.117015
v -0.092339 -0.548245 0.115789
v -0.032009 -0.550000 0.140239
v -0.033304 -0.544009 0.145916
v -0.032955 -0.548245 0.144387
v 0.032009 -0.550000 0.140239
v 0.033304 -0.544009 0.145916
v 0.032955 -0.548245 0.144387
v 0.089686 -0.550000 0.112463
v 0.093316 -0.544009 0.117015
v 0.092339 -0.548245 0.115789
v 0.129600 -0.550000 0.062412
v 0.134846 -0.544009 0.064939
v 0.133434 -0.548245 0.064258
v 0.143846 0.550000 0.000000
v 0.150529 0.544022 0.000000
v 0.148352 0.548249 0.000000
v 0.129600 0.550000 -0.062412
v 0.135622 0.544022 -0.065312
v 0.133661 0.548249 -0.064368
v 0.089686 0.550000 -0.112463
v 0.093853 0.544022 -0.117689
v 0.092496 0.548249 -0.115987
v 0.032009 0.550000 -0.140239
v 0.033496 0.544022 -0.146755
v 0.033012 0.548249 -0.144633
v -0.032009 0.550000 -0.140239
v -0.033496 0.544022 -0.146755
v -0.033012 0.548249 -0.144633
v -0.089686 0.550000 -0.112463
v -0.093853 0.544022 -0.117689
v -0.092496 0.548249 -0.115987
v -0.129600 0.550000 -0.062412
v -0.135622 0.544022 -0.065312
v -0.133661 0.548249 -0.064368
v -0.143846 0.550000 0.000000
v -0.150529 0.544022 -0.000000
v -0.148352 0.548249 0.000000
v -0.129600 0.550000 0.062412
v -0.135622 0.544022 0.065312
v -0.133661 0.548249 0.064368
v -0.089686 0.550000 0.112463
v -0.093853 0.544022 0.117689
v -0.092496 0.548249 0.115987
v -0.032009 0.550000 0.140239
v -0.033496 0.544022 0.146755
v -0.033012 0.548249 0.144633
v 0.032009 0.550000 0.140239
v 0.033496 0.544022 0.146755
v 0.033012 0.548249 0.144633
v 0.089686 0.550000 0.112463
v 0.093853 0.544022 0.117689
v 0.092496 0.548249 0.115987
v 0.129600 0.550000 0.062412
v 0.135622 0.544022 0.065312
v 0.133661 0.548249 0.064368
v -0.095000 4.125000 -0.140000
v -0.095000 4.175183 -0.171535
v -0.130000 4.138006 -0.175000
v -0.095000 4.154646 -0.148519
v -0.115207 4.151164 -0.154061
v -0.119749 4.163843 -0.173268
v -0.119749 4.128358 -0.150969
v -0.095000 4.420000 -0.680000
v -0.130000 4.386773 -0.691670
v -0.119749 4.410268 -0.683418
v -0.095000 4.532130 -1.165896
v -0.095000 4.514046 -1.223482
v -0.130000 4.501274 -1.187839
v -0.095000 4.531108 -1.197208
v -0.115207 4.524668 -1.195186
v -0.119749 4.509290 -1.212724
v -0.119749 4.522077 -1.172004
v -0.095000 4.120000 -1.580000
v -0.130000 4.103441 -1.547782
v -0.119749 4.115150 -1.570564
v -0.095000 3.660000 -1.680000
v -0.130000 3.660740 -1.644022
v -0.119749 3.660217 -1.669462
v -0.095000 3.200000 -1.560000
v -0.130000 3.218497 -1.528654
v -0.119749 3.205418 -1.550819
v -0.095000 2.844106 -1.185375
v -0.095000 2.828168 -1.125966
v -0.130000 2.858471 -1.149679
v -0.095000 2.828169 -1.157808
v -0.115207 2.834950 -1.155989
v -0.119749 2.838327 -1.132567
v -0.119749 2.849597 -1.174575
v -0.095000 2.940000 -0.660000
v -0.130000 2.972972 -0.672590
v -0.119749 2.949657 -0.663688
v -0.095000 3.255000 -0.140000
v -0.130000 3.240905 -0.175000
v -0.095000 3.203407 -0.170816
v -0.119749 3.251389 -0.151118
v -0.115207 3.228308 -0.153909
v -0.119749 3.214907 -0.172908
v -0.095000 3.224874 -0.148160
v 0.095000 4.125000 -0.140000
v 0.130000 4.138006 -0.175000
v 0.095000 4.175183 -0.171535
v 0.119749 4.128358 -0.150969
v 0.115207 4.151165 -0.154061
v 0.119749 4.163844 -0.173268
v 0.095000 4.154647 -0.148519
v 0.130000 4.386773 -0.691670
v 0.095000 4.420000 -0.680000
v 0.119749 4.410268 -0.683418
v 0.095000 4.532130 -1.165896
v 0.130000 4.501274 -1.187839
v 0.095000 4.514046 -1.223482
v 0.119749 4.522077 -1.172004
v 0.115207 4.524668 -1.195186
v 0.119749 4.509290 -1.212724
v 0.095000 4.531108 -1.197208
v 0.130000 4.103441 -1.547782
v 0.095000 4.120000 -1.580000
v 0.119749 4.115150 -1.570564
v 0.130000 3.660740 -1.644022
v 0.095000 3.660000 -1.680000
v 0.119749 3.660217 -1.669462
v 0.130000 3.218497 -1.528654
v 0.095000 3.200000 -1.560000
v 0.119749 3.205418 -1.550819
v 0.095000 2.844106 -1.185375
v 0.130000 2.858471 -1.149679
v 0.095000 2.828168 -1.125966
v 0.119749 2.849597 -1.174576
v 0.115207 2.834950 -1.155989
v 0.119749 2.838327 -1.132568
v 0.095000 2.828169 -1.157808
v 0.130000 2.972972 -0.672590
v 0.095000 2.940000 -0.660000
v 0.119749 2.949657 -0.663688
v 0.095000 3.255000 -0.140000
v 0.095000 3.203407 -0.170816
v 0.130000 3.240905 -0.175000
v 0.095000 3.224874 -0.148160
v 0.115207 3.228308 -0.153909
v 0.119749 3.214907 -0.172908
v 0.119749 3.251389 -0.151118
v 0.095000 4.125000 0.140000
v 0.095000 4.175183 0.171535
v 0.130000 4.138006 0.175000
v 0.095000 4.154646 0.148519
v 0.115207 4.151164 0.154061
v 0.119749 4.163843 0.173268
v 0.119749 4.128358 0.150969
v 0.095000 4.420000 0.680000
v 0.130000 4.386773 0.691670
v 0.119749 4.410268 0.683418
v 0.095000 4.532130 1.165896
v 0.095000 4.514046 1.223482
v 0.130000 4.501274 1.187839
v 0.095000 4.531108 1.197208
v 0.115207 4.524668 1.195186
v 0.119749 4.509290 1.212724
v 0.119749 4.522077 1.172004
v 0.095000 4.120000 1.580000
v 0.130000 4.103441 1.547782
v 0.119749 4.115150 1.570564
v 0.095000 3.660000 1.680000
v 0.130000 3.660740 1.644022
v 0.119749 3.660217 1.669462
v 0.095000 3.200000 1.560000
v 0.130000 3.218497 1.528654
v 0.119749 3.205418 1.550819
v 0.095000 2.844106 1.185375
v 0.095000 2.828168 1.125966
v 0.130000 2.858471 1.149679
v 0.095000 2.828169 1.157808
v 0.115207 2.834950 1.155989
v 0.119749 2.838327 1.132567
v 0.119749 2.849597 1.174575
v 0.095000 2.940000 0.660000
v 0.130000 2.972972 0.672590
v 0.119749 2.949657 0.663688
v 0.095000 3.255000 0.140000
v 0.130000 3.240905 0.175000
v 0.095000 3.203407 0.170816
v 0.119749 3.251389 0.151118
v 0.115207 3.228308 0.153909
v 0.119749 3.214907 0.172908
v 0.095000 3.224874 0.148160
v -0.095000 4.125000 0.140000
v -0.130000 4.138006 0.175000
v -0.095000 4.175183 0.171535
v -0.119749 4.128358 0.150969
v -0.115207 4.151165 0.154061
v -0.119749 4.163844 0.173268
v -0.095000 4.154647 0.148519
v -0.130000 4.386773 0.691670
v -0.095000 4.420000 0.680000
v -0.119749 4.410268 0.683418
v -0.095000 4.532130 1.165896
v -0.130000 4.501274 1.187839
v -0.095000 4.514046 1.223482
v -0.119749 4.522077 1.172004
v -0.115207 4.524668 1.195186
v -0.119749 4.509290 1.212724
v -0.095000 4.531108 1.197208
v -0.130000 4.103441 1.547782
v -0.095000 4.120000 1.580000
v -0.119749 4.115150 1.570564
v -0.130000 3.660740 1.644022
v -0.095000 3.660000 1.680000
v -0.119749 3.660217 1.669462
v -0.130000 3.218497 1.528654
v -0.095000 3.200000 1.560000
v -0.119749 3.205418 1.550819
v -0.095000 2.844106 1.185375
v -0.130000 2.858471 1.149679
v -0.095000 2.828168 1.125966
v -0.119749 2.849597 1.174576
v -0.115207 2.834950 1.155989
v -0.119749 2.838327 1.132568
v -0.095000 2.828169 1.157808
v -0.130000 2.972972 0.672590
v -0.095000 2.940000 0.660000
v -0.119749 2.949657 0.663688
v -0.095000 3.255000 0.140000
v -0.095000 3.203407 0.170816
v -0.130000 3.240905 0.175000
v -0.095000 3.224874 0.148160
v -0.115207 3.228308 0.153909
v -0.119749 3.214907 0.172908
v -0.119749 3.251389 0.151118
v -0.051700 2.970000 0.051700
v -0.051700 2.974800 0.055000
v -0.055000 2.974800 0.051700
v -0.051700 2.971406 0.054033
v -0.053605 2.972029 0.053605
v -0.054033 2.974800 0.054033
v -0.054033 2.971406 0.051700
v -0.051700 3.125200 0.055000
v -0.051700 3.130000 0.051700
v -0.055000 3.125200 0.051700
v -0.051700 3.128594 0.054033
v -0.053605 3.127971 0.053605
v -0.054033 3.128594 0.051700
v -0.054033 3.125200 0.054033
v -0.051700 2.970000 -0.051700
v -0.055000 2.974800 -0.051700
v -0.051700 2.974800 -0.055000
v -0.054033 2.971406 -0.051700
v -0.053605 2.972029 -0.053605
v -0.054033 2.974800 -0.054033
v -0.051700 2.971406 -0.054033
v -0.051700 3.130000 -0.051700
v -0.051700 3.125200 -0.055000
v -0.055000 3.125200 -0.051700
v -0.051700 3.128594 -0.054033
v -0.053605 3.127971 -0.053605
v -0.054033 3.125200 -0.054033
v -0.054033 3.128594 -0.051700
v 0.051700 2.970000 0.051700
v 0.055000 2.974800 0.051700
v 0.051700 2.974800 0.055000
v 0.054033 2.971406 0.051700
v 0.053605 2.972029 0.053605
v 0.054033 2.974800 0.054033
v 0.051700 2.971406 0.054033
v 0.051700 3.130000 0.051700
v 0.051700 3.125200 0.055000
v 0.055000 3.125200 0.051700
v 0.051700 3.128594 0.054033
v 0.053605 3.127971 0.053605
v 0.054033 3.125200 0.054033
v 0.054033 3.128594 0.051700
v 0.051700 2.970000 -0.051700
v 0.051700 2.974800 -0.055000
v 0.055000 2.974800 -0.051700
v 0.051700 2.971406 -0.054033
v 0.053605 2.972029 -0.053605
v 0.054033 2.974800 -0.054033
v 0.054033 2.971406 -0.051700
v 0.051700 3.130000 -0.051700
v 0.055000 3.125200 -0.051700
v 0.051700 3.125200 -0.055000
v 0.054033 3.128594 -0.051700
v 0.053605 3.127971 -0.053605
v 0.054033 3.125200 -0.054033
v 0.051700 3.128594 -0.054033
v 0.060000 4.620000 0.000000
v 0.042426 4.620000 -0.042426
v 0.000000 4.620000 -0.060000
v -0.042426 4.620000 -0.042426
v -0.060000 4.620000 -0.000000
v -0.042426 4.620000 0.042426
v -0.000000 4.620000 0.060000
v 0.042426 4.620000 0.042426
v 0.083506 4.240000 0.000000
v 0.089528 4.245984 0.000000
v 0.087959 4.241753 0.000000
v 0.059047 4.240000 -0.059047
v 0.063306 4.245984 -0.063306
v 0.062197 4.241753 -0.062197
v 0.000000 4.240000 -0.083506
v 0.000000 4.245984 -0.089528
v 0.000000 4.241753 -0.087959
v -0.059047 4.240000 -0.059047
v -0.063306 4.245984 -0.063306
v -0.062197 4.241753 -0.062197
v -0.083506 4.240000 0.000000
v -0.089528 4.245984 -0.000000
v -0.087959 4.241753 0.000000
v -0.059047 4.240000 0.059047
v -0.063306 4.245984 0.063306
v -0.062197 4.241753 0.062197
v 0.000000 4.240000 0.083506
v -0.000000 4.245984 0.089528
v 0.000000 4.241753 0.087959
v 0.059047 4.240000 0.059047
v 0.063306 4.245984 0.063306
v 0.062197 4.241753 0.062197
v 0.005506 4.920000 -0.000000
v 0.012950 4.914064 0.000000
v 0.010376 4.918262 -0.000000
v 0.003893 4.920000 -0.003893
v 0.009157 4.914064 -0.009157
v 0.007337 4.918262 -0.007337
v -0.000000 4.920000 -0.005506
v 0.000000 4.914064 -0.012950
v -0.000000 4.918262 -0.010376
v -0.003893 4.920000 -0.003893
v -0.009157 4.914064 -0.009157
v -0.007337 4.918262 -0.007337
v -0.005506 4.920000 0.000000
v -0.012950 4.914064 -0.000000
v -0.010376 4.918262 0.000000
v -0.003893 4.920000 0.003893
v -0.009157 4.914064 0.009157
v -0.007337 4.918262 0.007337
v 0.000000 4.920000 0.005506
v -0.000000 4.914064 0.012950
v 0.000000 4.918262 0.010376
v 0.003893 4.920000 0.003893
v 0.009157 4.914064 0.009157
v 0.007337 4.918262 0.007337
vn 1.0000 0.0021 -0.0000
vn 0.8660 0.0021 -0.5000
vn 0.5000 0.0021 -0.8660
vn -0.0000 0.0021 -1.0000
vn -0.5000 0.0021 -0.8660
vn -0.8660 0.0021 -0.5000
vn -1.0000 0.0021 -0.0000
vn -0.8660 0.0021 0.5000
vn -0.5000 0.0021 0.8660
vn -0.0000 0.0021 1.0000
vn 0.5000 0.0021 0.8660
vn 0.8660 0.0021 0.5000
vn 0.2193 -0.9757 -0.0000
vn 0.1899 -0.9757 -0.1097
vn 0.3220 -0.9283 -0.1859
vn 0.3718 -0.9283 -0.0000
vn 0.9198 -0.3925 -0.0000
vn 0.7965 -0.3925 -0.4599
vn 0.8497 -0.1931 -0.4906
vn 0.9812 -0.1931 -0.0000
vn 0.1097 -0.9757 -0.1899
vn 0.1859 -0.9283 -0.3220
vn 0.4599 -0.3925 -0.7965
vn 0.4906 -0.1931 -0.8497
vn -0.0000 -0.9757 -0.2193
vn -0.0000 -0.9283 -0.3718
vn -0.0000 -0.3925 -0.9198
vn -0.0000 -0.1931 -0.9812
vn -0.1097 -0.9757 -0.1899
vn -0.1859 -0.9283 -0.3220
vn -0.4599 -0.3925 -0.7965
vn -0.4906 -0.1931 -0.8497
vn -0.1899 -0.9757 -0.1097
vn -0.3220 -0.9283 -0.1859
vn -0.7965 -0.3925 -0.4599
vn -0.8497 -0.1931 -0.4906
vn -0.2193 -0.9757 -0.0000
vn -0.3718 -0.9283 -0.0000
vn -0.9198 -0.3925 -0.0000
vn -0.9812 -0.1931 -0.0000
vn -0.1899 -0.9757 0.1097
vn -0.3220 -0.9283 0.1859
vn -0.7965 -0.3925 0.4599
vn -0.8497 -0.1931 0.4906
vn -0.1097 -0.9757 0.1899
vn -0.1859 -0.9283 0.3220
vn -0.4599 -0.3925 0.7965
vn -0.4906 -0.1931 0.8497
vn -0.0000 -0.9757 0.2193
vn -0.0000 -0.9283 0.3718
vn -0.0000 -0.3925 0.9198
vn -0.0000 -0.1931 0.9812
vn 0.1097 -0.9757 0.1899
vn 0.1859 -0.9283 0.3220
vn 0.4599 -0.3925 0.7965
vn 0.4906 -0.1931 0.8497
vn 0.1899 -0.9757 0.1097
vn 0.3220 -0.9283 0.1859
vn 0.7965 -0.3925 0.4599
vn 0.8497 -0.1931 0.4906
vn 0.9804 0.1968 -0.0000
vn 0.8491 0.1968 -0.4902
vn 0.7953 0.3958 -0.4592
vn 0.9183 0.3958 -0.0000
vn 0.3713 0.9285 -0.0000
vn 0.3215 0.9285 -0.1856
vn 0.1897 0.9757 -0.1095
vn 0.2190 0.9757 -0.0000
vn 0.4902 0.1968 -0.8491
vn 0.4592 0.3958 -0.7953
vn 0.1856 0.9285 -0.3215
vn 0.1095 0.9757 -0.1897
vn -0.0000 0.1968 -0.9804
vn -0.0000 0.3958 -0.9183
vn -0.0000 0.9285 -0.3712
vn -0.0000 0.9757 -0.2190
vn -0.4902 0.1968 -0.8491
vn -0.4592 0.3958 -0.7953
vn -0.1857 0.9285 -0.3215
vn -0.1095 0.9757 -0.1897
vn -0.8491 0.1968 -0.4902
vn -0.7953 0.3958 -0.4592
vn -0.3215 0.9285 -0.1856
vn -0.1897 0.9757 -0.1095
vn -0.9804 0.1968 -0.0000
vn -0.9183 0.3958 -0.0000
vn -0.3713 0.9285 -0.0000
vn -0.2190 0.9757 -0.0000
vn -0.8491 0.1968 0.4902
vn -0.7953 0.3958 0.4592
vn -0.3215 0.9285 0.1856
vn -0.1897 0.9757 0.1095
vn -0.4902 0.1968 0.8491
vn -0.4592 0.3958 0.7953
vn -0.1856 0.9285 0.3215
vn -0.1095 0.9757 0.1897
vn -0.0000 0.1968 0.9804
vn -0.0000 0.3958 0.9183
vn -0.0000 0.9285 0.3712
vn -0.0000 0.9757 0.2190
vn 0.4902 0.1968 0.8491
vn 0.4592 0.3958 0.7953
vn 0.1857 0.9285 0.3215
vn 0.1095 0.9757 0.1897
vn 0.8491 0.1968 0.4902
vn 0.7953 0.3958 0.4592
vn 0.3216 0.9285 0.1856
vn 0.1897 0.9757 0.1095
vn 0.9985 0.0545 -0.0000
vn 0.8996 0.0545 -0.4332
vn 0.9008 -0.0169 -0.4338
vn 0.9999 -0.0169 -0.0000
vn 0.6226 0.0545 -0.7807
vn 0.6234 -0.0169 -0.7817
vn 0.2222 0.0545 -0.9735
vn 0.2225 -0.0169 -0.9748
vn -0.2222 0.0545 -0.9735
vn -0.2225 -0.0169 -0.9748
vn -0.6226 0.0545 -0.7807
vn -0.6234 -0.0169 -0.7817
vn -0.8996 0.0545 -0.4332
vn -0.9008 -0.0169 -0.4338
vn -0.9985 0.0545 -0.0000
vn -0.9999 -0.0169 -0.0000
vn -0.8996 0.0545 0.4332
vn -0.9008 -0.0169 0.4338
vn -0.6226 0.0545 0.7807
vn -0.6234 -0.0169 0.7817
vn -0.2222 0.0545 0.9735
vn -0.2225 -0.0169 0.9748
vn 0.2222 0.0545 0.9735
vn 0.2225 -0.0169 0.9748
vn 0.6226 0.0545 0.7807
vn 0.6234 -0.0169 0.7817
vn 0.8996 0.0545 0.4332
vn 0.9008 -0.0169 0.4338
vn 0.9008 -0.0192 -0.4338
vn 0.9998 -0.0192 -0.0000
vn 0.6234 -0.0192 -0.7817
vn 0.2225 -0.0192 -0.9747
vn -0.2225 -0.0192 -0.9747
vn -0.6234 -0.0192 -0.7817
vn -0.9008 -0.0192 -0.4338
vn -0.9998 -0.0192 -0.0000
vn -0.9008 -0.0192 0.4338
vn -0.6234 -0.0192 0.7817
vn -0.2225 -0.0192 0.9747
vn 0.2225 -0.0192 0.9747
vn 0.6234 -0.0192 0.7817
vn 0.9008 -0.0192 0.4338
vn 0.8956 0.1092 -0.4313
vn 0.9940 0.1092 -0.0000
vn 0.6198 0.1092 -0.7772
vn 0.2212 0.1092 -0.9691
vn -0.2212 0.1092 -0.9691
vn -0.6198 0.1092 -0.7772
vn -0.8956 0.1092 -0.4313
vn -0.9940 0.1092 -0.0000
vn -0.8956 0.1092 0.4313
vn -0.6198 0.1092 0.7772
vn -0.2212 0.1092 0.9691
vn 0.2212 0.1092 0.9691
vn 0.6198 0.1092 0.7772
vn 0.8956 0.1092 0.4313
vn 0.8962 0.1031 -0.4316
vn 0.9947 0.1031 -0.0000
vn 0.6202 0.1031 -0.7777
vn 0.2213 0.1031 -0.9697
vn -0.2213 0.1031 -0.9697
vn -0.6202 0.1031 -0.7777
vn -0.8962 0.1031 -0.4316
vn -0.9947 0.1031 -0.0000
vn -0.8962 0.1031 0.4316
vn -0.6202 0.1031 0.7777
vn -0.2213 0.1031 0.9697
vn 0.2213 0.1031 0.9697
vn 0.6202 0.1031 0.7777
vn 0.8962 0.1031 0.4316
vn 0.9003 -0.0371 -0.4336
vn 0.9993 -0.0371 -0.0000
vn 0.6231 -0.0371 -0.7813
vn 0.2224 -0.0371 -0.9743
vn -0.2224 -0.0371 -0.9743
vn -0.6231 -0.0371 -0.7813
vn -0.9003 -0.0371 -0.4336
vn -0.9993 -0.0371 -0.0000
vn -0.9003 -0.0371 0.4336
vn -0.6231 -0.0371 0.7813
vn -0.2224 -0.0371 0.9743
vn 0.2224 -0.0371 0.9743
vn 0.6231 -0.0371 0.7813
vn 0.9003 -0.0371 0.4336
vn 0.9001 -0.0447 -0.4335
vn 0.9990 -0.0447 -0.0000
vn 0.6229 -0.0447 -0.7811
vn 0.2223 -0.0447 -0.9740
vn -0.2223 -0.0447 -0.9740
vn -0.6229 -0.0447 -0.7811
vn -0.9001 -0.0447 -0.4335
vn -0.9990 -0.0447 -0.0000
vn -0.9001 -0.0447 0.4335
vn -0.6229 -0.0447 0.7811
vn -0.2223 -0.0447 0.9740
vn 0.2223 -0.0447 0.9740
vn 0.6229 -0.0447 0.7811
vn 0.9001 -0.0447 0.4335
vn 0.8986 0.0732 -0.4327
vn 0.9973 0.0732 -0.0000
vn 0.6218 0.0732 -0.7797
vn 0.2219 0.0732 -0.9723
vn -0.2219 0.0732 -0.9723
vn -0.6218 0.0732 -0.7797
vn -0.8986 0.0732 -0.4327
vn -0.9973 0.0732 -0.0000
vn -0.8986 0.0732 0.4327
vn -0.6218 0.0732 0.7797
vn -0.2219 0.0732 0.9723
vn 0.2219 0.0732 0.9723
vn 0.6218 0.0732 0.7797
vn 0.8986 0.0732 0.4327
vn 0.8991 0.0644 -0.4330
vn 0.9979 0.0644 -0.0000
vn 0.6222 0.0644 -0.7802
vn 0.2221 0.0644 -0.9729
vn -0.2221 0.0644 -0.9729
vn -0.6222 0.0644 -0.7802
vn -0.8991 0.0644 -0.4330
vn -0.9979 0.0644 -0.0000
vn -0.8991 0.0644 0.4330
vn -0.6222 0.0644 0.7802
vn -0.2221 0.0644 0.9729
vn 0.2221 0.0644 0.9729
vn 0.6222 0.0644 0.7802
vn 0.8991 0.0644 0.4330
vn 0.9009 -0.0096 -0.4339
vn 1.0000 -0.0096 -0.0000
vn 0.6235 -0.0096 -0.7818
vn 0.2225 -0.0096 -0.9749
vn -0.2225 -0.0096 -0.9749
vn -0.6235 -0.0096 -0.7818
vn -0.9009 -0.0096 -0.4339
vn -1.0000 -0.0096 -0.0000
vn -0.9009 -0.0096 0.4339
vn -0.6235 -0.0096 0.7818
vn -0.2225 -0.0096 0.9749
vn 0.2225 -0.0096 0.9749
vn 0.6235 -0.0096 0.7818
vn 0.9009 -0.0096 0.4339
vn 0.8978 -0.0844 -0.4323
vn 0.9964 -0.0844 -0.0000
vn 0.6213 -0.0844 -0.7790
vn 0.2217 -0.0844 -0.9714
vn -0.2217 -0.0844 -0.9714
vn -0.6213 -0.0844 -0.7790
vn -0.8978 -0.0844 -0.4323
vn -0.9964 -0.0844 -0.0000
vn -0.8978 -0.0844 0.4323
vn -0.6213 -0.0844 0.7790
vn -0.2217 -0.0844 0.9714
vn 0.2217 -0.0844 0.9714
vn 0.6213 -0.0844 0.7790
vn 0.8978 -0.0844 0.4323
vn 0.8971 -0.0925 -0.4320
vn 0.9957 -0.0925 -0.0000
vn 0.6208 -0.0925 -0.7785
vn 0.2216 -0.0925 -0.9707
vn -0.2216 -0.0925 -0.9707
vn -0.6208 -0.0925 -0.7785
vn -0.8971 -0.0925 -0.4320
vn -0.9957 -0.0925 -0.0000
vn -0.8971 -0.0925 0.4320
vn -0.6208 -0.0925 0.7785
vn -0.2216 -0.0925 0.9707
vn 0.2216 -0.0925 0.9707
vn 0.6208 -0.0925 0.7785
vn 0.8971 -0.0925 0.4320
vn 0.9006 0.0293 -0.4337
vn 0.9996 0.0293 -0.0000
vn 0.6232 0.0293 -0.7815
vn 0.2224 0.0293 -0.9745
vn -0.2224 0.0293 -0.9745
vn -0.6232 0.0293 -0.7815
vn -0.9006 0.0293 -0.4337
vn -0.9996 0.0293 -0.0000
vn -0.9006 0.0293 0.4337
vn -0.6232 0.0293 0.7815
vn -0.2224 0.0293 0.9745
vn 0.2224 0.0293 0.9745
vn 0.6232 0.0293 0.7815
vn 0.9006 0.0293 0.4337
vn 0.9007 0.0240 -0.4338
vn 0.9997 0.0240 -0.0000
vn 0.6233 0.0240 -0.7816
vn 0.2225 0.0240 -0.9746
vn -0.2225 0.0240 -0.9746
vn -0.6233 0.0240 -0.7816
vn -0.9007 0.0240 -0.4338
vn -0.9997 0.0240 -0.0000
vn -0.9007 0.0240 0.4338
vn -0.6233 0.0240 0.7816
vn -0.2225 0.0240 0.9746
vn 0.2225 0.0240 0.9746
vn 0.6233 0.0240 0.7816
vn 0.9007 0.0240 0.4338
vn 0.8947 -0.1181 -0.4308
vn 0.9930 -0.1181 -0.0000
vn 0.6191 -0.1181 -0.7764
vn 0.2210 -0.1181 -0.9681
vn -0.2210 -0.1181 -0.9681
vn -0.6191 -0.1181 -0.7764
vn -0.8947 -0.1181 -0.4308
vn -0.9930 -0.1181 -0.0000
vn -0.8947 -0.1181 0.4308
vn -0.6191 -0.1181 0.7764
vn -0.2210 -0.1181 0.9681
vn 0.2210 -0.1181 0.9681
vn 0.6191 -0.1181 0.7764
vn 0.8947 -0.1181 0.4308
vn 0.8943 -0.1214 -0.4307
vn 0.9926 -0.1214 -0.0000
vn 0.6189 -0.1214 -0.7760
vn 0.2209 -0.1214 -0.9677
vn -0.2209 -0.1214 -0.9677
vn -0.6189 -0.1214 -0.7760
vn -0.8943 -0.1214 -0.4307
vn -0.9926 -0.1214 -0.0000
vn -0.8943 -0.1214 0.4307
vn -0.6189 -0.1214 0.7760
vn -0.2209 -0.1214 0.9677
vn 0.2209 -0.1214 0.9677
vn 0.6189 -0.1214 0.7760
vn 0.8943 -0.1214 0.4307
vn 0.9009 0.0156 -0.4338
vn 0.9999 0.0156 -0.0000
vn 0.6234 0.0156 -0.7817
vn 0.2225 0.0156 -0.9748
vn -0.2225 0.0156 -0.9748
vn -0.6234 0.0156 -0.7817
vn -0.9009 0.0156 -0.4338
vn -0.9999 0.0156 -0.0000
vn -0.9009 0.0156 0.4338
vn -0.6234 0.0156 0.7817
vn -0.2225 0.0156 0.9748
vn 0.2225 0.0156 0.9748
vn 0.6234 0.0156 0.7817
vn 0.9009 0.0156 0.4338
vn 0.2208 -0.9753 -0.0000
vn 0.1989 -0.9753 -0.0958
vn 0.3435 -0.9244 -0.1654
vn 0.3813 -0.9244 -0.0000
vn 0.9378 -0.3471 -0.0000
vn 0.8450 -0.3471 -0.4069
vn 0.8915 -0.1449 -0.4293
vn 0.9894 -0.1449 -0.0000
vn 0.1376 -0.9753 -0.1726
vn 0.2377 -0.9244 -0.2981
vn 0.5847 -0.3471 -0.7332
vn 0.6169 -0.1449 -0.7736
vn 0.0491 -0.9753 -0.2152
vn 0.0848 -0.9244 -0.3718
vn 0.2087 -0.3471 -0.9143
vn 0.2202 -0.1449 -0.9646
vn -0.0491 -0.9753 -0.2152
vn -0.0848 -0.9244 -0.3717
vn -0.2087 -0.3471 -0.9143
vn -0.2202 -0.1449 -0.9646
vn -0.1376 -0.9753 -0.1726
vn -0.2377 -0.9244 -0.2981
vn -0.5847 -0.3471 -0.7332
vn -0.6169 -0.1449 -0.7736
vn -0.1989 -0.9753 -0.0958
vn -0.3435 -0.9244 -0.1654
vn -0.8450 -0.3471 -0.4069
vn -0.8915 -0.1449 -0.4293
vn -0.2208 -0.9753 -0.0000
vn -0.3813 -0.9244 -0.0000
vn -0.9378 -0.3471 -0.0000
vn -0.9894 -0.1449 -0.0000
vn -0.1989 -0.9753 0.0958
vn -0.3435 -0.9244 0.1654
vn -0.8450 -0.3471 0.4069
vn -0.8915 -0.1449 0.4293
vn -0.1376 -0.9753 0.1726
vn -0.2377 -0.9244 0.2981
vn -0.5847 -0.3471 0.7332
vn -0.6169 -0.1449 0.7736
vn -0.0491 -0.9753 0.2152
vn -0.0848 -0.9244 0.3718
vn -0.2087 -0.3471 0.9143
vn -0.2202 -0.1449 0.9646
vn 0.0491 -0.9753 0.2152
vn 0.0848 -0.9244 0.3717
vn 0.2087 -0.3471 0.9143
vn 0.2202 -0.1449 0.9646
vn 0.1376 -0.9753 0.1726
vn 0.2377 -0.9244 0.2981
vn 0.5847 -0.3471 0.7332
vn 0.6169 -0.1449 0.7736
vn 0.1989 -0.9753 0.0958
vn 0.3435 -0.9244 0.1654
vn 0.8450 -0.3471 0.4069
vn 0.8915 -0.1449 0.4293
vn 0.9625 0.2712 -0.0000
vn 0.8672 0.2712 -0.4176
vn 0.8010 0.4578 -0.3857
vn 0.8890 0.4578 -0.0000
vn 0.3621 0.9321 -0.0000
vn 0.3263 0.9321 -0.1571
vn 0.1886 0.9778 -0.0908
vn 0.2094 0.9778 -0.0000
vn 0.6001 0.2712 -0.7525
vn 0.5543 0.4578 -0.6951
vn 0.2258 0.9321 -0.2831
vn 0.1305 0.9778 -0.1637
vn 0.2142 0.2712 -0.9384
vn 0.1978 0.4578 -0.8667
vn 0.0806 0.9321 -0.3530
vn 0.0466 0.9778 -0.2041
vn -0.2142 0.2712 -0.9384
vn -0.1978 0.4578 -0.8667
vn -0.0806 0.9321 -0.3530
vn -0.0466 0.9778 -0.2041
vn -0.6001 0.2712 -0.7525
vn -0.5543 0.4578 -0.6951
vn -0.2258 0.9321 -0.2831
vn -0.1305 0.9778 -0.1637
vn -0.8672 0.2712 -0.4176
vn -0.8010 0.4578 -0.3857
vn -0.3263 0.9321 -0.1571
vn -0.1886 0.9778 -0.0908
vn -0.9625 0.2712 -0.0000
vn -0.8890 0.4578 -0.0000
vn -0.3621 0.9321 -0.0000
vn -0.2094 0.9778 -0.0000
vn -0.8672 0.2712 0.4176
vn -0.8010 0.4578 0.3857
vn -0.3263 0.9321 0.1571
vn -0.1886 0.9778 0.0908
vn -0.6001 0.2712 0.7525
vn -0.5543 0.4578 0.6951
vn -0.2258 0.9321 0.2831
vn -0.1305 0.9778 0.1637
vn -0.2142 0.2712 0.9384
vn -0.1978 0.4578 0.8667
vn -0.0806 0.9321 0.3530
vn -0.0466 0.9778 0.2041
vn 0.2142 0.2712 0.9384
vn 0.1978 0.4578 0.8667
vn 0.0806 0.9321 0.3530
vn 0.0466 0.9778 0.2041
vn 0.6001 0.2712 0.7525
vn 0.5543 0.4578 0.6951
vn 0.2258 0.9321 0.2831
vn 0.1305 0.9778 0.1637
vn 0.8672 0.2712 0.4176
vn 0.8010 0.4578 0.3857
vn 0.3263 0.9321 0.1571
vn 0.1886 0.9778 0.0908
vn -0.1898 0.1237 0.9740
vn -0.1731 0.5240 0.8339
vn -0.3511 0.4982 0.7928
vn -0.3730 0.1211 0.9199
vn -0.1859 0.8245 0.5344
vn -0.3664 0.7785 0.5096
vn -0.9595 0.1492 0.2388
vn -0.9047 0.1049 0.4130
vn -0.8582 0.2731 0.4346
vn -0.9063 0.3233 0.2722
vn -0.1887 0.9761 0.1080
vn -0.1770 0.9390 -0.2949
vn -0.3586 0.8906 -0.2797
vn -0.3717 0.9232 0.0977
vn -0.1887 0.7391 -0.6466
vn -0.3717 0.7016 -0.6080
vn -0.9595 0.2688 -0.0844
vn -0.9052 0.4250 -0.0027
vn -0.8563 0.4928 -0.1548
vn -0.9052 0.3503 -0.2408
vn -0.1924 -0.7785 -0.5974
vn -0.1822 -0.9497 -0.2548
vn -0.3687 -0.8978 -0.2409
vn -0.3786 -0.7369 -0.5600
vn -0.1924 -0.9730 0.1275
vn -0.3786 -0.9183 0.1159
vn -0.9593 -0.2729 -0.0732
vn -0.9040 -0.3653 -0.2220
vn -0.8547 -0.5014 -0.1345
vn -0.9040 -0.4274 0.0093
vn -0.1913 -0.1165 0.9746
vn -0.3758 -0.1143 0.9196
vn -0.3566 -0.4791 0.8021
vn -0.1759 -0.5048 0.8451
vn -0.9593 -0.1443 0.2427
vn -0.9054 -0.3159 0.2835
vn -0.8567 -0.2645 0.4429
vn -0.9041 -0.0997 0.4156
vn -0.1880 -0.8034 0.5650
vn -0.3703 -0.7573 0.5380
vn 0.1898 0.1237 0.9740
vn 0.3730 0.1211 0.9199
vn 0.3511 0.4982 0.7928
vn 0.1730 0.5240 0.8339
vn 0.9595 0.1492 0.2388
vn 0.9063 0.3233 0.2722
vn 0.8582 0.2731 0.4346
vn 0.9047 0.1049 0.4130
vn 0.1859 0.8245 0.5344
vn 0.3664 0.7785 0.5096
vn 0.1887 0.9761 0.1080
vn 0.3717 0.9232 0.0977
vn 0.3586 0.8906 -0.2797
vn 0.1770 0.9390 -0.2949
vn 0.9595 0.2688 -0.0844
vn 0.9052 0.3503 -0.2408
vn 0.8563 0.4928 -0.1548
vn 0.9052 0.4250 -0.0027
vn 0.1887 0.7391 -0.6466
vn 0.3717 0.7016 -0.6080
vn 0.1924 -0.7785 -0.5974
vn 0.3786 -0.7369 -0.5600
vn 0.3687 -0.8978 -0.2409
vn 0.1822 -0.9497 -0.2548
vn 0.9593 -0.2729 -0.0732
vn 0.9040 -0.4274 0.0093
vn 0.8547 -0.5014 -0.1345
vn 0.9040 -0.3653 -0.2220
vn 0.1924 -0.9730 0.1275
vn 0.3786 -0.9183 0.1159
vn 0.1913 -0.1165 0.9746
vn 0.1759 -0.5048 0.8451
vn 0.3566 -0.4791 0.8021
vn 0.3758 -0.1143 0.9196
vn 0.1880 -0.8034 0.5650
vn 0.3703 -0.7573 0.5380
vn 0.9593 -0.1443 0.2427
vn 0.9041 -0.0997 0.4156
vn 0.8567 -0.2645 0.4429
vn 0.9054 -0.3159 0.2835
vn -0.2003 0.9244 0.3246
vn -0.3976 0.8657 0.3040
vn -0.9224 0.3644 0.1278
vn -0.9776 0.1984 0.0696
vn -0.1987 0.4478 -0.8718
vn -0.4014 0.4183 -0.8148
vn -0.9272 0.1720 -0.3328
vn -0.9753 0.1015 -0.1962
vn -0.1944 -0.0202 -0.9807
vn -0.3918 -0.0189 -0.9198
vn -0.9276 -0.0077 -0.3736
vn -0.9761 -0.0045 -0.2174
vn -0.2002 -0.4977 -0.8439
vn -0.4050 -0.4642 -0.7877
vn -0.9275 -0.1911 -0.3214
vn -0.9749 -0.1137 -0.1912
vn -0.2019 -0.9150 0.3493
vn -0.4015 -0.8556 0.3266
vn -0.9222 -0.3614 0.1378
vn -0.9771 -0.1988 0.0758
vn 0.9776 0.1984 0.0696
vn 0.9224 0.3644 0.1278
vn 0.3976 0.8657 0.3040
vn 0.2003 0.9244 0.3246
vn 0.9753 0.1015 -0.1962
vn 0.9272 0.1720 -0.3328
vn 0.4014 0.4183 -0.8148
vn 0.1987 0.4478 -0.8718
vn 0.9761 -0.0045 -0.2173
vn 0.9276 -0.0077 -0.3736
vn 0.3918 -0.0189 -0.9198
vn 0.1944 -0.0202 -0.9807
vn 0.9749 -0.1137 -0.1912
vn 0.9275 -0.1911 -0.3214
vn 0.4050 -0.4642 -0.7877
vn 0.2002 -0.4977 -0.8439
vn 0.9771 -0.1988 0.0758
vn 0.9222 -0.3614 0.1378
vn 0.4015 -0.8556 0.3266
vn 0.2019 -0.9150 0.3493
vn 0.1898 0.1237 -0.9740
vn 0.1731 0.5240 -0.8339
vn 0.3511 0.4982 -0.7928
vn 0.3730 0.1211 -0.9199
vn 0.1859 0.8245 -0.5344
vn 0.3664 0.7785 -0.5096
vn 0.9595 0.1492 -0.2388
vn 0.9047 0.1049 -0.4130
vn 0.8582 0.2731 -0.4346
vn 0.9063 0.3233 -0.2722
vn 0.1887 0.9761 -0.1080
vn 0.1770 0.9390 0.2949
vn 0.3586 0.8906 0.2797
vn 0.3717 0.9232 -0.0977
vn 0.1887 0.7391 0.6466
vn 0.3717 0.7016 0.6080
vn 0.9595 0.2688 0.0844
vn 0.9052 0.4250 0.0027
vn 0.8563 0.4928 0.1548
vn 0.9052 0.3503 0.2408
vn 0.1924 -0.7785 0.5974
vn 0.1822 -0.9497 0.2548
vn 0.3687 -0.8978 0.2409
vn 0.3786 -0.7369 0.5600
vn 0.1924 -0.9730 -0.1275
vn 0.3786 -0.9183 -0.1159
vn 0.9593 -0.2729 0.0732
vn 0.9040 -0.3653 0.2220
vn 0.8547 -0.5014 0.1345
vn 0.9040 -0.4274 -0.0093
vn 0.1913 -0.1165 -0.9746
vn 0.3758 -0.1143 -0.9196
vn 0.3566 -0.4791 -0.8021
vn 0.1759 -0.5048 -0.8451
vn 0.9593 -0.1443 -0.2427
vn 0.9054 -0.3159 -0.2835
vn 0.8567 -0.2645 -0.4429
vn 0.9041 -0.0997 -0.4156
vn 0.1880 -0.8034 -0.5650
vn 0.3703 -0.7573 -0.5380
vn -0.1898 0.1237 -0.9740
vn -0.3730 0.1211 -0.9199
vn -0.3511 0.4982 -0.7928
vn -0.1730 0.5240 -0.8339
vn -0.9595 0.1492 -0.2388
vn -0.9063 0.3233 -0.2722
vn -0.8582 0.2731 -0.4346
vn -0.9047 0.1049 -0.4130
vn -0.1859 0.8245 -0.5344
vn -0.3664 0.7785 -0.5096
vn -0.1887 0.9761 -0.1080
vn -0.3717 0.9232 -0.0977
vn -0.3586 0.8906 0.2797
vn -0.1770 0.9390 0.2949
vn -0.9595 0.2688 0.0844
vn -0.9052 0.3503 0.2408
vn -0.8563 0.4928 0.1548
vn -0.9052 0.4250 0.0027
vn -0.1887 0.7391 0.6466
vn -0.3717 0.7016 0.6080
vn -0.1924 -0.7785 0.5974
vn -0.3786 -0.7369 0.5600
vn -0.3687 -0.8978 0.2409
vn -0.1822 -0.9497 0.2548
vn -0.9593 -0.2729 0.0732
vn -0.9040 -0.4274 -0.0093
vn -0.8547 -0.5014 0.1345
vn -0.9040 -0.3653 0.2220
vn -0.1924 -0.9730 -0.1275
vn -0.3786 -0.9183 -0.1159
vn -0.1913 -0.1165 -0.9746
vn -0.1759 -0.5048 -0.8451
vn -0.3566 -0.4791 -0.8021
vn -0.3758 -0.1143 -0.9196
vn -0.1880 -0.8034 -0.5650
vn -0.3703 -0.7573 -0.5380
vn -0.9593 -0.1443 -0.2427
vn -0.9041 -0.0997 -0.4156
vn -0.8567 -0.2645 -0.4429
vn -0.9054 -0.3159 -0.2835
vn 0.2003 0.9244 -0.3246
vn 0.3976 0.8657 -0.3040
vn 0.9224 0.3644 -0.1278
vn 0.9776 0.1984 -0.0696
vn 0.1987 0.4478 0.8718
vn 0.4014 0.4183 0.8148
vn 0.9272 0.1720 0.3328
vn 0.9753 0.1015 0.1962
vn 0.1944 -0.0202 0.9807
vn 0.3918 -0.0189 0.9198
vn 0.9276 -0.0077 0.3736
vn 0.9761 -0.0045 0.2174
vn 0.2002 -0.4977 0.8439
vn 0.4050 -0.4642 0.7877
vn 0.9275 -0.1911 0.3214
vn 0.9749 -0.1137 0.1912
vn 0.2019 -0.9150 -0.3493
vn 0.4015 -0.8556 -0.3266
vn 0.9222 -0.3614 -0.1378
vn 0.9771 -0.1988 -0.0758
vn -0.9776 0.1984 -0.0696
vn -0.9224 0.3644 -0.1278
vn -0.3976 0.8657 -0.3040
vn -0.2003 0.9244 -0.3246
vn -0.9753 0.1015 0.1962
vn -0.9272 0.1720 0.3328
vn -0.4014 0.4183 0.8148
vn -0.1987 0.4478 0.8718
vn -0.9761 -0.0045 0.2173
vn -0.9276 -0.0077 0.3736
vn -0.3918 -0.0189 0.9198
vn -0.1944 -0.0202 0.9807
vn -0.9749 -0.1137 0.1912
vn -0.9275 -0.1911 0.3214
vn -0.4050 -0.4642 0.7877
vn -0.2002 -0.4977 0.8439
vn -0.9771 -0.1988 -0.0758
vn -0.9222 -0.3614 -0.1378
vn -0.4015 -0.8556 -0.3266
vn -0.2019 -0.9150 -0.3493
vn -0.2418 -0.9397 0.2418
vn -0.2164 -0.8486 0.4827
vn -0.4253 -0.7989 0.4253
vn -0.4828 -0.8486 0.2164
vn -0.1812 -0.1274 0.9751
vn -0.3618 -0.1127 0.9254
vn -0.3345 -0.2300 0.9139
vn -0.1559 -0.2575 0.9536
vn -0.9751 -0.1274 0.1812
vn -0.9536 -0.2575 0.1559
vn -0.9139 -0.2300 0.3345
vn -0.9254 -0.1127 0.3618
vn -0.1812 0.1274 0.9751
vn -0.1559 0.2575 0.9536
vn -0.3345 0.2300 0.9139
vn -0.3618 0.1127 0.9254
vn -0.2418 0.9397 0.2418
vn -0.4827 0.8486 0.2164
vn -0.4254 0.7989 0.4253
vn -0.2164 0.8486 0.4827
vn -0.9751 0.1274 0.1812
vn -0.9254 0.1127 0.3617
vn -0.9139 0.2300 0.3345
vn -0.9536 0.2575 0.1559
vn -0.2418 -0.9397 -0.2418
vn -0.4828 -0.8486 -0.2164
vn -0.4253 -0.7989 -0.4253
vn -0.2164 -0.8486 -0.4827
vn -0.9751 -0.1274 -0.1812
vn -0.9254 -0.1127 -0.3617
vn -0.9139 -0.2300 -0.3345
vn -0.9536 -0.2575 -0.1559
vn -0.1812 -0.1274 -0.9751
vn -0.1559 -0.2575 -0.9536
vn -0.3345 -0.2300 -0.9139
vn -0.3618 -0.1127 -0.9254
vn -0.2418 0.9397 -0.2418
vn -0.2164 0.8486 -0.4827
vn -0.4253 0.7989 -0.4253
vn -0.4827 0.8486 -0.2164
vn -0.1812 0.1274 -0.9751
vn -0.3618 0.1127 -0.9254
vn -0.3345 0.2300 -0.9139
vn -0.1559 0.2575 -0.9536
vn -0.9751 0.1274 -0.1812
vn -0.9536 0.2575 -0.1559
vn -0.9139 0.2300 -0.3345
vn -0.9254 0.1127 -0.3617
vn 0.2418 -0.9397 0.2418
vn 0.4828 -0.8486 0.2164
vn 0.4253 -0.7989 0.4253
vn 0.2164 -0.8486 0.4827
vn 0.9751 -0.1274 0.1812
vn 0.9254 -0.1127 0.3617
vn 0.9139 -0.2300 0.3345
vn 0.9536 -0.2575 0.1559
vn 0.1812 -0.1274 0.9751
vn 0.1559 -0.2575 0.9536
vn 0.3345 -0.2300 0.9139
vn 0.3618 -0.1127 0.9254
vn 0.2418 0.9397 0.2418
vn 0.2164 0.8486 0.4827
vn 0.4253 0.7989 0.4253
vn 0.4827 0.8486 0.2164
vn 0.1812 0.1274 0.9751
vn 0.3618 0.1127 0.9254
vn 0.3345 0.2300 0.9139
vn 0.1559 0.2575 0.9536
vn 0.9751 0.1274 0.1812
vn 0.9536 0.2575 0.1559
vn 0.9139 0.2300 0.3345
vn 0.9254 0.1127 0.3617
vn 0.2418 -0.9397 -0.2418
vn 0.2164 -0.8486 -0.4827
vn 0.4253 -0.7989 -0.4253
vn 0.4828 -0.8486 -0.2164
vn 0.1812 -0.1274 -0.9751
vn 0.3618 -0.1127 -0.9254
vn 0.3345 -0.2300 -0.9139
vn 0.1559 -0.2575 -0.9536
vn 0.9751 -0.1274 -0.1812
vn 0.9536 -0.2575 -0.1559
vn 0.9139 -0.2300 -0.3345
vn 0.9254 -0.1127 -0.3618
vn 0.2418 0.9397 -0.2418
vn 0.4827 0.8486 -0.2164
vn 0.4254 0.7989 -0.4253
vn 0.2164 0.8486 -0.4827
vn 0.9751 0.1274 -0.1812
vn 0.9254 0.1127 -0.3617
vn 0.9139 0.2300 -0.3345
vn 0.9536 0.2575 -0.1559
vn 0.1812 0.1274 -0.9751
vn 0.1559 0.2575 -0.9536
vn 0.3345 0.2300 -0.9139
vn 0.3618 0.1127 -0.9254
vn 0.2305 -0.9731 -0.0000
vn 0.1630 -0.9731 -0.1630
vn 0.2590 -0.9305 -0.2590
vn 0.3663 -0.9305 -0.0000
vn 0.8741 -0.3239 -0.3620
vn 0.9171 -0.1211 -0.3799
vn -0.0000 -0.9731 -0.2305
vn -0.0000 -0.9305 -0.3662
vn 0.3621 -0.3239 -0.8741
vn 0.3799 -0.1212 -0.9171
vn -0.1630 -0.9731 -0.1630
vn -0.2590 -0.9305 -0.2590
vn -0.3621 -0.3239 -0.8741
vn -0.3799 -0.1212 -0.9171
vn -0.2305 -0.9731 -0.0000
vn -0.3663 -0.9305 -0.0000
vn -0.8741 -0.3239 -0.3620
vn -0.9171 -0.1211 -0.3799
vn -0.1630 -0.9731 0.1630
vn -0.2590 -0.9305 0.2590
vn -0.8741 -0.3239 0.3620
vn -0.9171 -0.1211 0.3799
vn -0.0000 -0.9731 0.2305
vn -0.0000 -0.9305 0.3662
vn -0.3621 -0.3239 0.8741
vn -0.3799 -0.1212 0.9171
vn 0.1630 -0.9731 0.1630
vn 0.2590 -0.9305 0.2590
vn 0.3621 -0.3239 0.8741
vn 0.3799 -0.1212 0.9171
vn 0.9171 -0.1211 0.3799
vn 0.8741 -0.3239 0.3620
vn 0.8785 0.3097 -0.3639
vn 0.8038 0.4929 -0.3330
vn 0.3362 0.9418 -0.0000
vn 0.2377 0.9418 -0.2377
vn 0.1494 0.9774 -0.1494
vn 0.2113 0.9774 -0.0000
vn 0.3639 0.3097 -0.8785
vn 0.3330 0.4929 -0.8038
vn -0.0000 0.9418 -0.3362
vn -0.0000 0.9774 -0.2113
vn -0.3639 0.3097 -0.8785
vn -0.3330 0.4929 -0.8038
vn -0.2377 0.9418 -0.2377
vn -0.1494 0.9774 -0.1494
vn -0.8785 0.3097 -0.3639
vn -0.8038 0.4929 -0.3330
vn -0.3362 0.9418 -0.0000
vn -0.2113 0.9774 -0.0000
vn -0.8785 0.3097 0.3639
vn -0.8038 0.4929 0.3330
vn -0.2377 0.9418 0.2377
vn -0.1494 0.9774 0.1494
vn -0.3639 0.3097 0.8785
vn -0.3330 0.4929 0.8038
vn -0.0000 0.9418 0.3362
vn -0.0000 0.9774 0.2113
vn 0.3639 0.3097 0.8785
vn 0.3330 0.4929 0.8038
vn 0.2378 0.9418 0.2377
vn 0.1495 0.9774 0.1494
vn 0.8038 0.4929 0.3330
vn 0.8785 0.3097 0.3639
vn 0.9184 0.1085 0.3804
vn 0.9184 0.1085 -0.3804
vn 0.3804 0.1085 -0.9184
vn -0.3804 0.1085 -0.9184
vn -0.9184 0.1085 -0.3804
vn -0.9184 0.1085 0.3804
vn -0.3804 0.1085 0.9184
vn 0.3804 0.1085 0.9184
s 1
f 1//1 2//2 14//2 13//1
f 2//2 3//3 15//3 14//2
f 3//3 4//4 16//4 15//3
f 4//4 5//5 17//5 16//4
f 5//5 6//6 18//6 17//5
f 6//6 7//7 19//7 18//6
f 7//7 8//8 20//8 19//7
f 8//8 9//9 21//9 20//8
f 9//9 10//10 22//10 21//9
f 10//10 11//11 23//11 22//10
f 11//11 12//12 24//12 23//11
f 12//12 1//1 13//1 24//12
f 13//1 14//2 26//2 25//1
f 14//2 15//3 27//3 26//2
f 15//3 16//4 28//4 27//3
f 16//4 17//5 29//5 28//4
f 17//5 18//6 30//6 29//5
f 18//6 19//7 31//7 30//6
f 19//7 20//8 32//8 31//7
f 20//8 21//9 33//9 32//8
f 21//9 22//10 34//10 33//9
f 22//10 23//11 35//11 34//10
f 23//11 24//12 36//12 35//11
f 24//12 13//1 25//1 36//12
f 25//1 26//2 38//2 37//1
f 26//2 27//3 39//3 38//2
f 27//3 28//4 40//4 39//3
f 28//4 29//5 41//5 40//4
f 29//5 30//6 42//6 41//5
f 30//6 31//7 43//7 42//6
f 31//7 32//8 44//8 43//7
f 32//8 33//9 45//9 44//8
f 33//9 34//10 46//10 45//9
f 34//10 35//11 47//11 46//10
f 35//11 36//12 48//12 47//11
f 36//12 25//1 37//1 48//12
f 37//1 38//2 50//2 49//1
f 38//2 39//3 51//3 50//2
f 39//3 40//4 52//4 51//3
f 40//4 41//5 53//5 52//4
f 41//5 42//6 54//6 53//5
f 42//6 43//7 55//7 54//6
f 43//7 44//8 56//8 55//7
f 44//8 45//9 57//9 56//8
f 45//9 46//10 58//10 57//9
f 46//10 47//11 59//11 58//10
f 47//11 48//12 60//12 59//11
f 48//12 37//1 49//1 60//12
f 49//1 50//2 62//2 61//1
f 50//2 51//3 63//3 62//2
f 51//3 52//4 64//4 63//3
f 52//4 53//5 65//5 64//4
f 53//5 54//6 66//6 65//5
f 54//6 55//7 67//7 66//6
f 55//7 56//8 68//8 67//7
f 56//8 57//9 69//9 68//8
f 57//9 58//10 70//10 69//9
f 58//10 59//11 71//11 70//10
f 59//11 60//12 72//12 71//11
f 60//12 49//1 61//1 72//12
f 61//1 62//2 74//2 73//1
f 62//2 63//3 75//3 74//2
f 63//3 64//4 76//4 75//3
f 64//4 65//5 77//5 76//4
f 65//5 66//6 78//6 77//5
f 66//6 67//7 79//7 78//6
f 67//7 68//8 80//8 79//7
f 68//8 69//9 81//9 80//8
f 69//9 70//10 82//10 81//9
f 70//10 71//11 83//11 82//10
f 71//11 72//12 84//12 83//11
f 72//12 61//1 73//1 84//12
f 73//1 74//2 86//2 85//1
f 74//2 75//3 87//3 86//2
f 75//3 76//4 88//4 87//3
f 76//4 77//5 89//5 88//4
f 77//5 78//6 90//6 89//5
f 78//6 79//7 91//7 90//6
f 79//7 80//8 92//8 91//7
f 80//8 81//9 93//9 92//8
f 81//9 82//10 94//10 93//9
f 82//10 83//11 95//11 94//10
f 83//11 84//12 96//12 95//11
f 84//12 73//1 85//1 96//12
f 85//1 86//2 98//2 97//1
f 86//2 87//3 99//3 98//2
f 87//3 88//4 100//4 99//3
f 88//4 89//5 101//5 100//4
f 89//5 90//6 102//6 101//5
f 90//6 91//7 103//7 102//6
f 91//7 92//8 104//8 103//7
f 92//8 93//9 105//9 104//8
f 93//9 94//10 106//10 105//9
f 94//10 95//11 107//11 106//10
f 95//11 96//12 108//12 107//11
f 96//12 85//1 97//1 108//12
f 109//13 112//14 114//15 111//16
f 111//17 114//18 113//19 110//20
f 112//14 115//21 117//22 114//15
f 114//18 117//23 116//24 113//19
f 115//21 118//25 120//26 117//22
f 117//23 120//27 119//28 116//24
f 118//25 121//29 123//30 120//26
f 120//27 123//31 122//32 119//28
f 121//29 124//33 126//34 123//30
f 123//31 126//35 125//36 122//32
f 124//33 127//37 129//38 126//34
f 126//35 129//39 128//40 125//36
f 127//37 130//41 132//42 129//38
f 129//39 132//43 131//44 128//40
f 130//41 133//45 135//46 132//42
f 132//43 135//47 134//48 131//44
f 133//45 136//49 138//50 135//46
f 135//47 138//51 137//52 134//48
f 136//49 139//53 141//54 138//50
f 138//51 141//55 140//56 137//52
f 139//53 142//57 144//58 141//54
f 141//55 144//59 143//60 140//56
f 110//20 143//60 144//59 111//17
f 111//16 144//58 142//57 109//13
f 146//61 149//62 150//63 147//64
f 147//65 150//66 148//67 145//68
f 149//62 152//69 153//70 150//63
f 150//66 153//71 151//72 148//67
f 152//69 155//73 156//74 153//70
f 153//71 156//75 154//76 151//72
f 155//73 158//77 159//78 156//74
f 156//75 159//79 157//80 154//76
f 158//77 161//81 162//82 159//78
f 159//79 162//83 160//84 157//80
f 161//81 164//85 165//86 162//82
f 162//83 165//87 163//88 160//84
f 164//85 167//89 168//90 165//86
f 165//87 168//91 166//92 163//88
f 167//89 170//93 171//94 168//90
f 168//91 171//95 169//96 166//92
f 170//93 173//97 174//98 171//94
f 171//95 174//99 172//100 169//96
f 173//97 176//101 177//102 174//98
f 174//99 177//103 175//104 172//100
f 176//101 179//105 180//106 177//102
f 177//103 180//107 178//108 175//104
f 145//68 178//108 180//107 147//65
f 147//64 180//106 179//105 146//61
f 143//60 110//20 1//1 12//12
f 110//20 113//19 2//2 1//1
f 142//57 139//53 136//49 133//45 130//41 127//37 124//33 121//29 118//25 115//21 112//14 109//13
f 113//19 116//24 3//3 2//2
f 116//24 119//28 4//4 3//3
f 119//28 122//32 5//5 4//4
f 122//32 125//36 6//6 5//5
f 125//36 128//40 7//7 6//6
f 128//40 131//44 8//8 7//7
f 131//44 134//48 9//9 8//8
f 134//48 137//52 10//10 9//9
f 137//52 140//56 11//11 10//10
f 140//56 143//60 12//12 11//11
f 108//12 97//1 146//61 179//105
f 97//1 98//2 149//62 146//61
f 145//68 148//67 151//72 154//76 157//80 160//84 163//88 166//92 169//96 172//100 175//104 178//108
f 98//2 99//3 152//69 149//62
f 99//3 100//4 155//73 152//69
f 100//4 101//5 158//77 155//73
f 101//5 102//6 161//81 158//77
f 102//6 103//7 164//85 161//81
f 103//7 104//8 167//89 164//85
f 104//8 105//9 170//93 167//89
f 105//9 106//10 173//97 170//93
f 106//10 107//11 176//101 173//97
f 107//11 108//12 179//105 176//101
f 181//109 182//110 196//111 195//112
f 182//110 183//113 197//114 196//111
f 183//113 184//115 198//116 197//114
f 184//115 185//117 199//118 198//116
f 185//117 186//119 200//120 199//118
f 186//119 187//121 201//122 200//120
f 187//121 188//123 202//124 201//122
f 188//123 189//125 203//126 202//124
f 189//125 190//127 204//128 203//126
f 190//127 191//129 205//130 204//128
f 191//129 192//131 206//132 205//130
f 192//131 193//133 207//134 206//132
f 193//133 194//135 208//136 207//134
f 194//135 181//109 195//112 208//136
f 195//112 196//111 210//137 209//138
f 196//111 197//114 211//139 210//137
f 197//114 198//116 212//140 211//139
f 198//116 199//118 213//141 212//140
f 199//118 200//120 214//142 213//141
f 200//120 201//122 215//143 214//142
f 201//122 202//124 216//144 215//143
f 202//124 203//126 217//145 216//144
f 203//126 204//128 218//146 217//145
f 204//128 205//130 219//147 218//146
f 205//130 206//132 220//148 219//147
f 206//132 207//134 221//149 220//148
f 207//134 208//136 222//150 221//149
f 208//136 195//112 209//138 222//150
f 209//138 210//137 224//151 223//152
f 210//137 211//139 225//153 224//151
f 211//139 212//140 226//154 225//153
f 212//140 213//141 227//155 226//154
f 213//141 214//142 228//156 227//155
f 214//142 215//143 229//157 228//156
f 215//143 216//144 230//158 229//157
f 216//144 217//145 231//159 230//158
f 217//145 218//146 232//160 231//159
f 218//146 219//147 233//161 232//160
f 219//147 220//148 234//162 233//161
f 220//148 221//149 235//163 234//162
f 221//149 222//150 236//164 235//163
f 222//150 209//138 223//152 236//164
f 223//152 224//151 238//165 237//166
f 224//151 225//153 239//167 238//165
f 225//153 226//154 240//168 239//167
f 226//154 227//155 241//169 240//168
f 227//155 228//156 242//170 241//169
f 228//156 229//157 243//171 242//170
f 229//157 230//158 244//172 243//171
f 230//158 231//159 245//173 244//172
f 231//159 232//160 246//174 245//173
f 232//160 233//161 247//175 246//174
f 233//161 234//162 248//176 247//175
f 234//162 235//163 249//177 248//176
f 235//163 236//164 250//178 249//177
f 236//164 223//152 237//166 250//178
f 237//166 238//165 252//179 251//180
f 238//165 239//167 253//181 252//179
f 239//167 240//168 254//182 253//181
f 240//168 241//169 255//183 254//182
f 241//169 242//170 256//184 255//183
f 242//170 243//171 257//185 256//184
f 243//171 244//172 258//186 257//185
f 244//172 245//173 259//187 258//186
f 245//173 246//174 260//188 259//187
f 246//174 247//175 261//189 260//188
f 247//175 248//176 262//190 261//189
f 248//176 249//177 263//191 262//190
f 249//177 250//178 264//192 263//191
f 250//178 237//166 251//180 264//192
f 251//180 252//179 266//193 265//194
f 252//179 253//181 267//195 266//193
f 253//181 254//182 268//196 267//195
f 254//182 255//183 269//197 268//196
f 255//183 256//184 270//198 269//197
f 256//184 257//185 271//199 270//198
f 257//185 258//186 272//200 271//199
f 258//186 259//187 273//201 272//200
f 259//187 260//188 274//202 273//201
f 260//188 261//189 275//203 274//202
f 261//189 262//190 276//204 275//203
f 262//190 263//191 277//205 276//204
f 263//191 264//192 278//206 277//205
f 264//192 251//180 265//194 278//206
f 265//194 266//193 280//207 279//208
f 266//193 267//195 281//209 280//207
f 267//195 268//196 282//210 281//209
f 268//196 269//197 283//211 282//210
f 269//197 270//198 284//212 283//211
f 270//198 271//199 285//213 284//212
f 271//199 272//200 286//214 285//213
f 272//200 273//201 287//215 286//214
f 273//201 274//202 288//216 287//215
f 274//202 275//203 289//217 288//216
f 275//203 276//204 290//218 289//217
f 276//204 277//205 291//219 290//218
f 277//205 278//206 292//220 291//219
f 278//206 265//194 279//208 292//220
f 279//208 280//207 294//221 293//222
f 280//207 281//209 295//223 294//221
f 281//209 282//210 296//224 295//223
f 282//210 283//211 297//225 296//224
f 283//211 284//212 298//226 297//225
f 284//212 285//213 299//227 298//226
f 285//213 286//214 300//228 299//227
f 286//214 287//215 301//229 300//228
f 287//215 288//216 302//230 301//229
f 288//216 289//217 303//231 302//230
f 289//217 290//218 304//232 303//231
f 290//218 291//219 305//233 304//232
f 291//219 292//220 306//234 305//233
f 292//220 279//208 293//222 306//234
f 293//222 294//221 308//235 307//236
f 294//221 295//223 309//237 308//235
f 295//223 296//224 310//238 309//237
f 296//224 297//225 311//239 310//238
f 297//225 298//226 312//240 311//239
f 298//226 299//227 313//241 312//240
f 299//227 300//228 314//242 313//241
f 300//228 301//229 315//243 314//242
f 301//229 302//230 316//244 315//243
f 302//230 303//231 317//245 316//244
f 303//231 304//232 318//246 317//245
f 304//232 305//233 319//247 318//246
f 305//233 306//234 320//248 319//247
f 306//234 293//222 307//236 320//248
f 307//236 308//235 322//249 321//250
f 308//235 309//237 323//251 322//249
f 309//237 310//238 324//252 323//251
f 310//238 311//239 325//253 324//252
f 311//239 312//240 326//254 325//253
f 312//240 313//241 327//255 326//254
f 313//241 314//242 328//256 327//255
f 314//242 315//243 329//257 328//256
f 315//243 316//244 330//258 329//257
f 316//244 317//245 331//259 330//258
f 317//245 318//246 332//260 331//259
f 318//246 319//247 333//261 332//260
f 319//247 320//248 334//262 333//261
f 320//248 307//236 321//250 334//262
f 321//250 322//249 336//263 335//264
f 322//249 323//251 337//265 336//263
f 323//251 324//252 338//266 337//265
f 324//252 325//253 339//267 338//266
f 325//253 326//254 340//268 339//267
f 326//254 327//255 341//269 340//268
f 327//255 328//256 342//270 341//269
f 328//256 329//257 343//271 342//270
f 329//257 330//258 344//272 343//271
f 330//258 331//259 345//273 344//272
f 331//259 332//260 346//274 345//273
f 332//260 333//261 347//275 346//274
f 333//261 334//262 348//276 347//275
f 334//262 321//250 335//264 348//276
f 335//264 336//263 350//277 349//278
f 336//263 337//265 351//279 350//277
f 337//265 338//266 352//280 351//279
f 338//266 339//267 353//281 352//280
f 339//267 340//268 354//282 353//281
f 340//268 341//269 355//283 354//282
f 341//269 342//270 356//284 355//283
f 342//270 343//271 357//285 356//284
f 343//271 344//272 358//286 357//285
f 344//272 345//273 359//287 358//286
f 345//273 346//274 360//288 359//287
f 346//274 347//275 361//289 360//288
f 347//275 348//276 362//290 361//289
f 348//276 335//264 349//278 362//290
f 349//278 350//277 364//291 363//292
f 350//277 351//279 365//293 364//291
f 351//279 352//280 366//294 365//293
f 352//280 353//281 367//295 366//294
f 353//281 354//282 368//296 367//295
f 354//282 355//283 369//297 368//296
f 355//283 356//284 370//298 369//297
f 356//284 357//285 371//299 370//298
f 357//285 358//286 372//300 371//299
f 358//286 359//287 373//301 372//300
f 359//287 360//288 374//302 373//301
f 360//288 361//289 375//303 374//302
f 361//289 362//290 376//304 375//303
f 362//290 349//278 363//292 376//304
f 363//292 364//291 378//305 377//306
f 364//291 365//293 379//307 378//305
f 365//293 366//294 380//308 379//307
f 366//294 367//295 381//309 380//308
f 367//295 368//296 382//310 381//309
f 368//296 369//297 383//311 382//310
f 369//297 370//298 384//312 383//311
f 370//298 371//299 385//313 384//312
f 371//299 372//300 386//314 385//313
f 372//300 373//301 387//315 386//314
f 373//301 374//302 388//316 387//315
f 374//302 375//303 389//317 388//316
f 375//303 376//304 390//318 389//317
f 376//304 363//292 377//306 390//318
f 377//306 378//305 392//319 391//320
f 378//305 379//307 393//321 392//319
f 379//307 380//308 394//322 393//321
f 380//308 381//309 395//323 394//322
f 381//309 382//310 396//324 395//323
f 382//310 383//311 397//325 396//324
f 383//311 384//312 398//326 397//325
f 384//312 385//313 399//327 398//326
f 385//313 386//314 400//328 399//327
f 386//314 387//315 401//329 400//328
f 387//315 388//316 402//330 401//329
f 388//316 389//317 403//331 402//330
f 389//317 390//318 404//332 403//331
f 390//318 377//306 391//320 404//332
f 391//320 392//319 406//333 405//334
f 392//319 393//321 407//335 406//333
f 393//321 394//322 408//336 407//335
f 394//322 395//323 409//337 408//336
f 395//323 396//324 410//338 409//337
f 396//324 397//325 411//339 410//338
f 397//325 398//326 412//340 411//339
f 398//326 399//327 413//341 412//340
f 399//327 400//328 414//342 413//341
f 400//328 401//329 415//343 414//342
f 401//329 402//330 416//344 415//343
f 402//330 403//331 417//345 416//344
f 403//331 404//332 418//346 417//345
f 404//332 391//320 405//334 418//346
f 419//347 422//348 424//349 421//350
f 421//351 424//352 423//353 420//354
f 422//348 425//355 427//356 424//349
f 424//352 427//357 426//358 423//353
f 425//355 428//359 430//360 427//356
f 427//357 430//361 429//362 426//358
f 428//359 431//363 433//364 430//360
f 430//361 433//365 432//366 429//362
f 431//363 434//367 436//368 433//364
f 433//365 436//369 435//370 432//366
f 434//367 437//371 439//372 436//368
f 436//369 439//373 438//374 435//370
f 437//371 440//375 442//376 439//372
f 439//373 442//377 441//378 438//374
f 440//375 443//379 445//380 442//376
f 442//377 445//381 444//382 441//378
f 443//379 446//383 448//384 445//380
f 445//381 448//385 447//386 444//382
f 446//383 449//387 451//388 448//384
f 448//385 451//389 450//390 447//386
f 449//387 452//391 454//392 451//388
f 451//389 454//393 453//394 450//390
f 452//391 455//395 457//396 454//392
f 454//393 457//397 456//398 453//394
f 455//395 458//399 460//400 457//396
f 457//397 460//401 459//402 456//398
f 420//354 459//402 460//401 421//351
f 421//350 460//400 458//399 419//347
f 462//403 465//404 466//405 463//406
f 463//407 466//408 464//409 461//410
f 465//404 468//411 469//412 466//405
f 466//408 469//413 467//414 464//409
f 468//411 471//415 472//416 469//412
f 469//413 472//417 470//418 467//414
f 471//415 474//419 475//420 472//416
f 472//417 475//421 473//422 470//418
f 474//419 477//423 478//424 475//420
f 475//421 478//425 476//426 473//422
f 477//423 480//427 481//428 478//424
f 478//425 481//429 479//430 476//426
f 480//427 483//431 484//432 481//428
f 481//429 484//433 482//434 479//430
f 483//431 486//435 487//436 484//432
f 484//433 487//437 485//438 482//434
f 486//435 489//439 490//440 487//436
f 487//437 490//441 488//442 485//438
f 489//439 492//443 493//444 490//440
f 490//441 493//445 491//446 488//442
f 492//443 495//447 496//448 493//444
f 493//445 496//449 494//450 491//446
f 495//447 498//451 499//452 496//448
f 496//449 499//453 497//454 494//450
f 498//451 501//455 502//456 499//452
f 499//453 502//457 500//458 497//454
f 461//410 500//458 502//457 463//407
f 463//406 502//456 501//455 462//403
f 459//402 420//354 181//109 194//135
f 420//354 423//353 182//110 181//109
f 458//399 455//395 452//391 449//387 446//383 443//379 440//375 437//371 434//367 431//363 428//359 425//355 422//348 419//347
f 423//353 426//358 183//113 182//110
f 426//358 429//362 184//115 183//113
f 429//362 432//366 185//117 184//115
f 432//366 435//370 186//119 185//117
f 435//370 438//374 187//121 186//119
f 438//374 441//378 188//123 187//121
f 441//378 444//382 189//125 188//123
f 444//382 447//386 190//127 189//125
f 447//386 450//390 191//129 190//127
f 450//390 453//394 192//131 191//129
f 453//394 456//398 193//133 192//131
f 456//398 459//402 194//135 193//133
f 418//346 405//334 462//403 501//455
f 405//334 406//333 465//404 462//403
f 461//410 464//409 467//414 470//418 473//422 476//426 479//430 482//434 485//438 488//442 491//446 494//450 497//454 500//458
f 406//333 407//335 468//411 465//404
f 407//335 408//336 471//415 468//411
f 408//336 409//337 474//419 471//415
f 409//337 410//338 477//423 474//419
f 410//338 411//339 480//427 477//423
f 411//339 412//340 483//431 480//427
f 412//340 413//341 486//435 483//431
f 413//341 414//342 489//439 486//435
f 414//342 415//343 492//443 489//439
f 415//343 416//344 495//447 492//443
f 416//344 417//345 498//451 495//447
f 417//345 418//346 501//455 498//451
f 503//459 506//460 507//461 509//462
f 504//463 508//464 507//461 506//460
f 505//465 509//466 507//467 508//468
f 513//469 516//470 517//471 519//472
f 514//473 518//474 517//471 516//470
f 515//475 519//476 517//477 518//478
f 529//479 532//480 533//481 535//482
f 530//483 534//484 533//481 532//480
f 531//485 535//486 533//487 534//488
f 539//489 542//490 543//491 545//492
f 540//493 544//494 543//495 542//496
f 541//497 545//492 543//491 544//498
f 546//499 549//500 550//501 552//502
f 547//503 551//504 550//505 549//506
f 548//507 552//502 550//501 551//508
f 556//509 559//510 560//511 562//512
f 557//513 561//514 560//515 559//516
f 558//517 562//512 560//511 561//518
f 572//519 575//520 576//521 578//522
f 573//523 577//524 576//525 575//526
f 574//527 578//522 576//521 577//528
f 582//529 585//530 586//531 588//532
f 583//533 587//534 586//531 585//530
f 584//535 588//536 586//537 587//538
f 505//465 540//493 542//496 509//466
f 509//462 542//490 539//489 503//459
f 504//463 510//539 512//540 508//464
f 508//468 512//541 511//542 505//465
f 510//539 513//469 519//472 512//540
f 512//541 519//476 515//475 511//542
f 514//473 520//543 522//544 518//474
f 518//478 522//545 521//546 515//475
f 520//543 523//547 525//548 522//544
f 522//545 525//549 524//550 521//546
f 523//547 526//551 528//552 525//548
f 525//549 528//553 527//554 524//550
f 526//551 529//479 535//482 528//552
f 528//553 535//486 531//485 527//554
f 530//483 536//555 538//556 534//484
f 534//488 538//557 537//558 531//485
f 536//555 541//497 544//498 538//556
f 538//557 544//494 540//493 537//558
f 546//499 582//529 588//532 549//500
f 549//506 588//536 584//535 547//503
f 547//503 553//559 555//560 551//504
f 551//508 555//561 554//562 548//507
f 553//559 557//513 559//516 555//560
f 555//561 559//510 556//509 554//562
f 557//513 563//563 565//564 561//514
f 561//518 565//565 564//566 558//517
f 563//563 566//567 568//568 565//564
f 565//565 568//569 567//570 564//566
f 566//567 569//571 571//572 568//568
f 568//569 571//573 570//574 567//570
f 569//571 573//523 575//526 571//572
f 571//573 575//520 572//519 570//574
f 573//523 579//575 581//576 577//524
f 577//528 581//577 580//578 574//527
f 579//575 584//535 587//538 581//576
f 581//577 587//534 583//533 580//578
f 503//459 546//499 552//502 506//460
f 506//460 552//502 548//507 504//463
f 513//469 556//509 562//512 516//470
f 516//470 562//512 558//517 514//473
f 529//479 572//519 578//522 532//480
f 532//480 578//522 574//527 530//483
f 541//497 583//533 585//530 545//492
f 545//492 585//530 582//529 539//489
f 503//459 539//489 582//529 546//499
f 505//465 511//542 515//475 521//546 524//550 527//554 531//485 537//558 540//493
f 510//539 504//463 548//507 554//562
f 513//469 510//539 554//562 556//509
f 520//543 514//473 558//517 564//566
f 523//547 520//543 564//566 567//570
f 526//551 523//547 567//570 570//574
f 529//479 526//551 570//574 572//519
f 536//555 530//483 574//527 580//578
f 541//497 536//555 580//578 583//533
f 547//503 584//535 579//575 573//523 569//571 566//567 563//563 557//513 553//559
f 589//579 592//580 593//581 595//582
f 590//583 594//584 593//581 592//580
f 591//585 595//586 593//587 594//588
f 599//589 602//590 603//591 605//592
f 600//593 604//594 603//591 602//590
f 601//595 605//596 603//597 604//598
f 615//599 618//600 619//601 621//602
f 616//603 620//604 619//601 618//600
f 617//605 621//606 619//607 620//608
f 625//609 628//610 629//611 631//612
f 626//613 630//614 629//615 628//616
f 627//617 631//612 629//611 630//618
f 632//619 635//620 636//621 638//622
f 633//623 637//624 636//625 635//626
f 634//627 638//622 636//621 637//628
f 642//629 645//630 646//631 648//632
f 643//633 647//634 646//635 645//636
f 644//637 648//632 646//631 647//638
f 658//639 661//640 662//641 664//642
f 659//643 663//644 662//645 661//646
f 660//647 664//642 662//641 663//648
f 668//649 671//650 672//651 674//652
f 669//653 673//654 672//651 671//650
f 670//655 674//656 672//657 673//658
f 591//585 626//613 628//616 595//586
f 595//582 628//610 625//609 589//579
f 590//583 596//659 598//660 594//584
f 594//588 598//661 597//662 591//585
f 596//659 599//589 605//592 598//660
f 598//661 605//596 601//595 597//662
f 600//593 606//663 608//664 604//594
f 604//598 608//665 607//666 601//595
f 606//663 609//667 611//668 608//664
f 608//665 611//669 610//670 607//666
f 609//667 612//671 614//672 611//668
f 611//669 614//673 613//674 610//670
f 612//671 615//599 621//602 614//672
f 614//673 621//606 617//605 613//674
f 616//603 622//675 624//676 620//604
f 620//608 624//677 623//678 617//605
f 622//675 627//617 630//618 624//676
f 624//677 630//614 626//613 623//678
f 632//619 668//649 674//652 635//620
f 635//626 674//656 670//655 633//623
f 633//623 639//679 641//680 637//624
f 637//628 641//681 640//682 634//627
f 639//679 643//633 645//636 641//680
f 641//681 645//630 642//629 640//682
f 643//633 649//683 651//684 647//634
f 647//638 651//685 650//686 644//637
f 649//683 652//687 654//688 651//684
f 651//685 654//689 653//690 650//686
f 652//687 655//691 657//692 654//688
f 654//689 657//693 656//694 653//690
f 655//691 659//643 661//646 657//692
f 657//693 661//640 658//639 656//694
f 659//643 665//695 667//696 663//644
f 663//648 667//697 666//698 660//647
f 665//695 670//655 673//658 667//696
f 667//697 673//654 669//653 666//698
f 589//579 632//619 638//622 592//580
f 592//580 638//622 634//627 590//583
f 599//589 642//629 648//632 602//590
f 602//590 648//632 644//637 600//593
f 615//599 658//639 664//642 618//600
f 618//600 664//642 660//647 616//603
f 627//617 669//653 671//650 631//612
f 631//612 671//650 668//649 625//609
f 589//579 625//609 668//649 632//619
f 591//585 597//662 601//595 607//666 610//670 613//674 617//605 623//678 626//613
f 596//659 590//583 634//627 640//682
f 599//589 596//659 640//682 642//629
f 606//663 600//593 644//637 650//686
f 609//667 606//663 650//686 653//690
f 612//671 609//667 653//690 656//694
f 615//599 612//671 656//694 658//639
f 622//675 616//603 660//647 666//698
f 627//617 622//675 666//698 669//653
f 633//623 670//655 665//695 659//643 655//691 652//687 649//683 643//633 639//679
f 675//699 678//700 679//701 681//702
f 676//703 680//704 679//705 678//706
f 677//707 681//708 679//709 680//710
f 682//711 685//712 686//713 688//714
f 683//715 687//716 686//717 685//718
f 684//719 688//720 686//721 687//722
f 689//723 692//724 693//725 695//726
f 690//727 694//728 693//729 692//730
f 691//731 695//732 693//733 694//734
f 696//735 699//736 700//737 702//738
f 697//739 701//740 700//741 699//742
f 698//743 702//744 700//745 701//746
f 703//747 706//748 707//749 709//750
f 704//751 708//752 707//753 706//754
f 705//755 709//756 707//757 708//758
f 710//759 713//760 714//761 716//762
f 711//763 715//764 714//765 713//766
f 712//767 716//768 714//769 715//770
f 717//771 720//772 721//773 723//774
f 718//775 722//776 721//777 720//778
f 719//779 723//780 721//781 722//782
f 724//783 727//784 728//785 730//786
f 725//787 729//788 728//789 727//790
f 726//791 730//792 728//793 729//794
f 689//723 675//699 681//702 692//724
f 692//730 681//708 677//707 690//727
f 676//703 682//711 688//714 680//704
f 680//710 688//720 684//719 677//707
f 683//715 696//735 702//738 687//716
f 687//722 702//744 698//743 684//719
f 697//739 691//731 694//734 701//740
f 701//746 694//728 690//727 698//743
f 717//771 689//723 695//726 720//772
f 720//778 695//732 691//731 718//775
f 696//735 724//783 730//786 699//736
f 699//742 730//792 726//791 697//739
f 725//787 719//779 722//782 729//788
f 729//794 722//776 718//775 726//791
f 703//747 717//771 723//774 706//748
f 706//754 723//780 719//779 704//751
f 724//783 710//759 716//762 727//784
f 727//790 716//768 712//767 725//787
f 711//763 705//755 708//758 715//764
f 715//770 708//752 704//751 712//767
f 675//699 703//747 709//750 678//700
f 678//706 709//756 705//755 676//703
f 710//759 683//715 685//718 713//760
f 713//766 685//712 682//711 711//763
f 689//723 717//771 703//747 675//699
f 677//707 684//719 698//743 690//727
f 705//755 711//763 682//711 676//703
f 724//783 696//735 683//715 710//759
f 691//731 697//739 726//791 718//775
f 719//779 725//787 712//767 704//751
f 739//795 742//796 744//797 741//798
f 741//799 744//799 743//800 740//800
f 742//796 745//801 747//802 744//797
f 744//803 747//803 746//804 743//804
f 745//801 748//805 750//806 747//802
f 747//807 750//807 749//808 746//808
f 748//805 751//809 753//810 750//806
f 750//811 753//811 752//812 749//812
f 751//809 754//813 756//814 753//810
f 753//815 756//815 755//816 752//816
f 754//813 757//817 759//818 756//814
f 756//819 759//819 758//820 755//820
f 757//817 760//821 762//822 759//818
f 759//823 762//823 761//824 758//824
f 740//825 761//825 762//826 741//826
f 741//798 762//822 760//821 739//795
f 764//827 767//827 768//828 765//828
f 765//829 768//830 766//831 763//832
f 767//833 770//833 771//834 768//834
f 768//830 771//835 769//836 766//831
f 770//837 773//837 774//838 771//838
f 771//835 774//839 772//840 769//836
f 773//841 776//841 777//842 774//842
f 774//839 777//843 775//844 772//840
f 776//845 779//845 780//846 777//846
f 777//843 780//847 778//848 775//844
f 779//849 782//849 783//850 780//850
f 780//847 783//851 781//852 778//848
f 782//853 785//853 786//854 783//854
f 783//851 786//855 784//856 781//852
f 763//832 784//856 786//855 765//829
f 765//857 786//857 785//858 764//858
f 761//825 740//825 731//859 738//859
f 740//800 743//800 732//860 731//860
f 760//821 757//817 754//813 751//809 748//805 745//801 742//796 739//795
f 743//804 746//804 733//861 732//861
f 746//808 749//808 734//862 733//862
f 749//812 752//812 735//863 734//863
f 752//816 755//816 736//864 735//864
f 755//820 758//820 737//865 736//865
f 758//824 761//824 738//866 737//866
f 738//859 731//859 764//858 785//858
f 731//860 732//860 767//827 764//827
f 763//832 766//831 769//836 772//840 775//844 778//848 781//852 784//856
f 732//861 733//861 770//833 767//833
f 733//862 734//862 773//837 770//837
f 734//863 735//863 776//841 773//841
f 735//864 736//864 779//845 776//845
f 736//865 737//865 782//849 779//849
f 737//866 738//866 785//853 782//853
