# Blender 5.2.0 LTS
# www.blender.org
o Greatsword
v 0.156388 -0.666667 0.000000
v 0.140901 -0.666667 -0.067854
v 0.097506 -0.666667 -0.122269
v 0.034800 -0.666667 -0.152467
v -0.034800 -0.666667 -0.152467
v -0.097506 -0.666667 -0.122269
v -0.140901 -0.666667 -0.067854
v -0.156388 -0.666667 -0.000000
v -0.140901 -0.666667 0.067854
v -0.097506 -0.666667 0.122269
v -0.034800 -0.666667 0.152467
v 0.034800 -0.666667 0.152467
v 0.097506 -0.666667 0.122269
v 0.140901 -0.666667 0.067854
v 0.162059 -0.583333 0.000000
v 0.146010 -0.583333 -0.070315
v 0.101042 -0.583333 -0.126703
v 0.036062 -0.583333 -0.157996
v -0.036062 -0.583333 -0.157996
v -0.101042 -0.583333 -0.126703
v -0.146010 -0.583333 -0.070315
v -0.162059 -0.583333 -0.000000
v -0.146010 -0.583333 0.070315
v -0.101042 -0.583333 0.126703
v -0.036062 -0.583333 0.157996
v 0.036062 -0.583333 0.157996
v 0.101042 -0.583333 0.126703
v 0.146010 -0.583333 0.070315
v 0.158576 -0.500000 0.000000
v 0.142872 -0.500000 -0.068804
v 0.098871 -0.500000 -0.123980
v 0.035286 -0.500000 -0.154600
v -0.035286 -0.500000 -0.154600
v -0.098871 -0.500000 -0.123980
v -0.142872 -0.500000 -0.068804
v -0.158576 -0.500000 -0.000000
v -0.142872 -0.500000 0.068804
v -0.098871 -0.500000 0.123980
v -0.035286 -0.500000 0.154600
v 0.035286 -0.500000 0.154600
v 0.098871 -0.500000 0.123980
v 0.142872 -0.500000 0.068804
v 0.146630 -0.416667 0.000000
v 0.132109 -0.416667 -0.063620
v 0.091422 -0.416667 -0.114640
v 0.032628 -0.416667 -0.142954
v -0.032628 -0.416667 -0.142954
v -0.091422 -0.416667 -0.114640
v -0.132109 -0.416667 -0.063620
v -0.146630 -0.416667 -0.000000
v -0.132109 -0.416667 0.063620
v -0.091422 -0.416667 0.114640
v -0.032628 -0.416667 0.142954
v 0.032628 -0.416667 0.142954
v 0.091422 -0.416667 0.114640
v 0.132109 -0.416667 0.063620
v 0.144066 -0.333333 0.000000
v 0.129799 -0.333333 -0.062508
v 0.089824 -0.333333 -0.112636
v 0.032058 -0.333333 -0.140454
v -0.032058 -0.333333 -0.140454
v -0.089824 -0.333333 -0.112636
v -0.129799 -0.333333 -0.062508
v -0.144066 -0.333333 -0.000000
v -0.129799 -0.333333 0.062508
v -0.089824 -0.333333 0.112636
v -0.032058 -0.333333 0.140454
v 0.032058 -0.333333 0.140454
v 0.089824 -0.333333 0.112636
v 0.129799 -0.333333 0.062508
v 0.150506 -0.250000 0.000000
v 0.135601 -0.250000 -0.065302
v 0.093839 -0.250000 -0.117670
v 0.033491 -0.250000 -0.146732
v -0.033491 -0.250000 -0.146732
v -0.093839 -0.250000 -0.117670
v -0.135601 -0.250000 -0.065302
v -0.150506 -0.250000 -0.000000
v -0.135601 -0.250000 0.065302
v -0.093839 -0.250000 0.117670
v -0.033491 -0.250000 0.146732
v 0.033491 -0.250000 0.146732
v 0.093839 -0.250000 0.117670
v 0.135601 -0.250000 0.065302
v 0.148882 -0.166667 0.000000
v 0.134138 -0.166667 -0.064597
v 0.092826 -0.166667 -0.116400
v 0.033129 -0.166667 -0.145149
v -0.033129 -0.166667 -0.145149
v -0.092826 -0.166667 -0.116400
v -0.134138 -0.166667 -0.064597
v -0.148882 -0.166667 -0.000000
v -0.134138 -0.166667 0.064597
v -0.092826 -0.166667 0.116400
v -0.033129 -0.166667 0.145149
v 0.033129 -0.166667 0.145149
v 0.092826 -0.166667 0.116400
v 0.134138 -0.166667 0.064597
v 0.139516 -0.083333 0.000000
v 0.125700 -0.083333 -0.060534
v 0.086987 -0.083333 -0.109078
v 0.031045 -0.083333 -0.136018
v -0.031045 -0.083333 -0.136018
v -0.086987 -0.083333 -0.109078
v -0.125700 -0.083333 -0.060534
v -0.139516 -0.083333 -0.000000
v -0.125700 -0.083333 0.060534
v -0.086987 -0.083333 0.109078
v -0.031045 -0.083333 0.136018
v 0.031045 -0.083333 0.136018
v 0.086987 -0.083333 0.109078
v 0.125700 -0.083333 0.060534
v 0.147552 0.000000 0.000000
v 0.132940 0.000000 -0.064020
v 0.091997 0.000000 -0.115361
v 0.032833 0.000000 -0.143853
v -0.032833 0.000000 -0.143853
v -0.091997 0.000000 -0.115361
v -0.132940 0.000000 -0.064020
v -0.147552 0.000000 -0.000000
v -0.132940 0.000000 0.064020
v -0.091997 0.000000 0.115361
v -0.032833 0.000000 0.143853
v 0.032833 0.000000 0.143853
v 0.091997 0.000000 0.115361
v 0.132940 0.000000 0.064020
v 0.147887 0.083333 0.000000
v 0.133242 0.083333 -0.064166
v 0.092206 0.083333 -0.115623
v 0.032908 0.083333 -0.144179
v -0.032908 0.083333 -0.144179
v -0.092206 0.083333 -0.115623
v -0.133242 0.083333 -0.064166
v -0.147887 0.083333 -0.000000
v -0.133242 0.083333 0.064166
v -0.092206 0.083333 0.115623
v -0.032908 0.083333 0.144179
v 0.032908 0.083333 0.144179
v 0.092206 0.083333 0.115623
v 0.133242 0.083333 0.064166
v 0.140454 0.166667 0.000000
v 0.126545 0.166667 -0.060941
v 0.087572 0.166667 -0.109812
v 0.031254 0.166667 -0.136933
v -0.031254 0.166667 -0.136933
v -0.087572 0.166667 -0.109812
v -0.126545 0.166667 -0.060941
v -0.140454 0.166667 -0.000000
v -0.126545 0.166667 0.060941
v -0.087572 0.166667 0.109812
v -0.031254 0.166667 0.136933
v 0.031254 0.166667 0.136933
v 0.087572 0.166667 0.109812
v 0.126545 0.166667 0.060941
v 0.141987 0.250000 0.000000
v 0.127926 0.250000 -0.061606
v 0.088527 0.250000 -0.111010
v 0.031595 0.250000 -0.138427
v -0.031595 0.250000 -0.138427
v -0.088527 0.250000 -0.111010
v -0.127926 0.250000 -0.061606
v -0.141987 0.250000 -0.000000
v -0.127926 0.250000 0.061606
v -0.088527 0.250000 0.111010
v -0.031595 0.250000 0.138427
v 0.031595 0.250000 0.138427
v 0.088527 0.250000 0.111010
v 0.127926 0.250000 0.061606
v 0.152710 0.333333 0.000000
v 0.137587 0.333333 -0.066258
v 0.095213 0.333333 -0.119394
v 0.033981 0.333333 -0.148881
v -0.033981 0.333333 -0.148881
v -0.095213 0.333333 -0.119394
v -0.137587 0.333333 -0.066258
v -0.152710 0.333333 -0.000000
v -0.137587 0.333333 0.066258
v -0.095213 0.333333 0.119394
v -0.033981 0.333333 0.148881
v 0.033981 0.333333 0.148881
v 0.095213 0.333333 0.119394
v 0.137587 0.333333 0.066258
v 0.155428 0.416667 0.000000
v 0.140036 0.416667 -0.067438
v 0.096908 0.416667 -0.121518
v 0.034586 0.416667 -0.151531
v -0.034586 0.416667 -0.151531
v -0.096908 0.416667 -0.121518
v -0.140036 0.416667 -0.067438
v -0.155428 0.416667 -0.000000
v -0.140036 0.416667 0.067438
v -0.096908 0.416667 0.121518
v -0.034586 0.416667 0.151531
v 0.034586 0.416667 0.151531
v 0.096908 0.416667 0.121518
v 0.140036 0.416667 0.067438
v 0.149600 0.500000 0.000000
v 0.134785 0.500000 -0.064909
v 0.093274 0.500000 -0.116962
v 0.033289 0.500000 -0.145849
v -0.033289 0.500000 -0.145849
v -0.093274 0.500000 -0.116962
v -0.134785 0.500000 -0.064909
v -0.149600 0.500000 -0.000000
v -0.134785 0.500000 0.064909
v -0.093274 0.500000 0.116962
v -0.033289 0.500000 0.145849
v 0.033289 0.500000 0.145849
v 0.093274 0.500000 0.116962
v 0.134785 0.500000 0.064909
v 0.152886 0.583333 0.000000
v 0.137746 0.583333 -0.066335
v 0.095323 0.583333 -0.119531
v 0.034020 0.583333 -0.149053
v -0.034020 0.583333 -0.149053
v -0.095323 0.583333 -0.119531
v -0.137746 0.583333 -0.066335
v -0.152886 0.583333 -0.000000
v -0.137746 0.583333 0.066335
v -0.095323 0.583333 0.119531
v -0.034020 0.583333 0.149053
v 0.034020 0.583333 0.149053
v 0.095323 0.583333 0.119531
v 0.137746 0.583333 0.066335
v 0.165771 0.666667 0.000000
v 0.149355 0.666667 -0.071926
v 0.103357 0.666667 -0.129605
v 0.036888 0.666667 -0.161615
v -0.036888 0.666667 -0.161615
v -0.103357 0.666667 -0.129605
v -0.149355 0.666667 -0.071926
v -0.165771 0.666667 -0.000000
v -0.149355 0.666667 0.071926
v -0.103357 0.666667 0.129605
v -0.036888 0.666667 0.161615
v 0.036888 0.666667 0.161615
v 0.103357 0.666667 0.129605
v 0.149355 0.666667 0.071926
v 0.153846 -0.750000 0.000000
v 0.159740 -0.744005 0.000000
v 0.158121 -0.748244 0.000000
v 0.138610 -0.750000 -0.066751
v 0.143921 -0.744005 -0.069309
v 0.142462 -0.748244 -0.068606
v 0.095921 -0.750000 -0.120281
v 0.099596 -0.744005 -0.124890
v 0.098587 -0.748244 -0.123624
v 0.034234 -0.750000 -0.149988
v 0.035546 -0.744005 -0.155735
v 0.035185 -0.748244 -0.154157
v -0.034234 -0.750000 -0.149988
v -0.035546 -0.744005 -0.155735
v -0.035185 -0.748244 -0.154157
v -0.095921 -0.750000 -0.120281
v -0.099596 -0.744005 -0.124890
v -0.098587 -0.748244 -0.123624
v -0.138610 -0.750000 -0.066751
v -0.143921 -0.744005 -0.069309
v -0.142462 -0.748244 -0.068606
v -0.153846 -0.750000 -0.000000
v -0.159740 -0.744005 -0.000000
v -0.158121 -0.748244 -0.000000
v -0.138610 -0.750000 0.066751
v -0.143921 -0.744005 0.069309
v -0.142462 -0.748244 0.068606
v -0.095921 -0.750000 0.120281
v -0.099596 -0.744005 0.124890
v -0.098587 -0.748244 0.123624
v -0.034234 -0.750000 0.149988
v -0.035546 -0.744005 0.155735
v -0.035185 -0.748244 0.154157
v 0.034234 -0.750000 0.149988
v 0.035546 -0.744005 0.155735
v 0.035185 -0.748244 0.154157
v 0.095921 -0.750000 0.120281
v 0.099596 -0.744005 0.124890
v 0.098587 -0.748244 0.123624
v 0.138610 -0.750000 0.066751
v 0.143921 -0.744005 0.069309
v 0.142462 -0.748244 0.068606
v 0.153846 0.750000 -0.000000
v 0.160415 0.744014 0.000000
v 0.158319 0.748247 -0.000000
v 0.138610 0.750000 -0.066751
v 0.144529 0.744014 -0.069601
v 0.142640 0.748247 -0.068692
v 0.095921 0.750000 -0.120281
v 0.100017 0.744014 -0.125417
v 0.098710 0.748247 -0.123779
v 0.034234 0.750000 -0.149988
v 0.035696 0.744014 -0.156393
v 0.035229 0.748247 -0.154350
v -0.034234 0.750000 -0.149988
v -0.035696 0.744014 -0.156393
v -0.035229 0.748247 -0.154350
v -0.095921 0.750000 -0.120281
v -0.100017 0.744014 -0.125417
v -0.098710 0.748247 -0.123779
v -0.138610 0.750000 -0.066751
v -0.144529 0.744014 -0.069601
v -0.142640 0.748247 -0.068692
v -0.153846 0.750000 0.000000
v -0.160415 0.744014 -0.000000
v -0.158319 0.748247 0.000000
v -0.138610 0.750000 0.066751
v -0.144529 0.744014 0.069601
v -0.142640 0.748247 0.068692
v -0.095921 0.750000 0.120281
v -0.100017 0.744014 0.125417
v -0.098710 0.748247 0.123779
v -0.034234 0.750000 0.149988
v -0.035696 0.744014 0.156393
v -0.035229 0.748247 0.154350
v 0.034234 0.750000 0.149988
v 0.035696 0.744014 0.156393
v 0.035229 0.748247 0.154350
v 0.095921 0.750000 0.120281
v 0.100017 0.744014 0.125417
v 0.098710 0.748247 0.123779
v 0.138610 0.750000 0.066751
v 0.144529 0.744014 0.069601
v 0.142640 0.748247 0.068692
v 0.020000 -1.090000 0.000000
v 0.018019 -1.090000 -0.008678
v 0.012470 -1.090000 -0.015637
v 0.004450 -1.090000 -0.019499
v -0.004450 -1.090000 -0.019499
v -0.012470 -1.090000 -0.015637
v -0.018019 -1.090000 -0.008678
v -0.020000 -1.090000 -0.000000
v -0.018019 -1.090000 0.008678
v -0.012470 -1.090000 0.015637
v -0.004450 -1.090000 0.019499
v 0.004450 -1.090000 0.019499
v 0.012470 -1.090000 0.015637
v 0.018019 -1.090000 0.008678
v 0.131048 -1.040000 0.000000
v 0.118070 -1.040000 -0.056860
v 0.081707 -1.040000 -0.102457
v 0.029161 -1.040000 -0.127762
v -0.029161 -1.040000 -0.127762
v -0.081707 -1.040000 -0.102457
v -0.118070 -1.040000 -0.056860
v -0.131048 -1.040000 -0.000000
v -0.118070 -1.040000 0.056860
v -0.081707 -1.040000 0.102457
v -0.029161 -1.040000 0.127762
v 0.029161 -1.040000 0.127762
v 0.081707 -1.040000 0.102457
v 0.118070 -1.040000 0.056860
v 0.186642 -0.990000 0.000000
v 0.168159 -0.990000 -0.080981
v 0.116370 -0.990000 -0.145923
v 0.041532 -0.990000 -0.181963
v -0.041532 -0.990000 -0.181963
v -0.116370 -0.990000 -0.145923
v -0.168159 -0.990000 -0.080981
v -0.186642 -0.990000 -0.000000
v -0.168159 -0.990000 0.080981
v -0.116370 -0.990000 0.145923
v -0.041532 -0.990000 0.181963
v 0.041532 -0.990000 0.181963
v 0.116370 -0.990000 0.145923
v 0.168159 -0.990000 0.080981
v 0.222493 -0.940000 0.000000
v 0.200459 -0.940000 -0.096536
v 0.138722 -0.940000 -0.173952
v 0.049509 -0.940000 -0.216915
v -0.049509 -0.940000 -0.216915
v -0.138722 -0.940000 -0.173952
v -0.200459 -0.940000 -0.096536
v -0.222493 -0.940000 -0.000000
v -0.200459 -0.940000 0.096536
v -0.138722 -0.940000 0.173952
v -0.049509 -0.940000 0.216915
v 0.049509 -0.940000 0.216915
v 0.138722 -0.940000 0.173952
v 0.200459 -0.940000 0.096536
v 0.243194 -0.890000 0.000000
v 0.219111 -0.890000 -0.105518
v 0.151629 -0.890000 -0.190137
v 0.054116 -0.890000 -0.237097
v -0.054116 -0.890000 -0.237097
v -0.151629 -0.890000 -0.190137
v -0.219111 -0.890000 -0.105518
v -0.243194 -0.890000 -0.000000
v -0.219111 -0.890000 0.105518
v -0.151629 -0.890000 0.190137
v -0.054116 -0.890000 0.237097
v 0.054116 -0.890000 0.237097
v 0.151629 -0.890000 0.190137
v 0.219111 -0.890000 0.105518
v 0.250000 -0.840000 0.000000
v 0.225242 -0.840000 -0.108471
v 0.155872 -0.840000 -0.195458
v 0.055630 -0.840000 -0.243732
v -0.055630 -0.840000 -0.243732
v -0.155872 -0.840000 -0.195458
v -0.225242 -0.840000 -0.108471
v -0.250000 -0.840000 -0.000000
v -0.225242 -0.840000 0.108471
v -0.155872 -0.840000 0.195458
v -0.055630 -0.840000 0.243732
v 0.055630 -0.840000 0.243732
v 0.155872 -0.840000 0.195458
v 0.225242 -0.840000 0.108471
v 0.243194 -0.790000 0.000000
v 0.219111 -0.790000 -0.105518
v 0.151629 -0.790000 -0.190137
v 0.054116 -0.790000 -0.237097
v -0.054116 -0.790000 -0.237097
v -0.151629 -0.790000 -0.190137
v -0.219111 -0.790000 -0.105518
v -0.243194 -0.790000 -0.000000
v -0.219111 -0.790000 0.105518
v -0.151629 -0.790000 0.190137
v -0.054116 -0.790000 0.237097
v 0.054116 -0.790000 0.237097
v 0.151629 -0.790000 0.190137
v 0.219111 -0.790000 0.105518
v 0.222493 -0.740000 0.000000
v 0.200459 -0.740000 -0.096536
v 0.138722 -0.740000 -0.173952
v 0.049509 -0.740000 -0.216915
v -0.049509 -0.740000 -0.216915
v -0.138722 -0.740000 -0.173952
v -0.200459 -0.740000 -0.096536
v -0.222493 -0.740000 -0.000000
v -0.200459 -0.740000 0.096536
v -0.138722 -0.740000 0.173952
v -0.049509 -0.740000 0.216915
v 0.049509 -0.740000 0.216915
v 0.138722 -0.740000 0.173952
v 0.200459 -0.740000 0.096536
v 0.186642 -0.690000 0.000000
v 0.168159 -0.690000 -0.080981
v 0.116370 -0.690000 -0.145923
v 0.041532 -0.690000 -0.181963
v -0.041532 -0.690000 -0.181963
v -0.116370 -0.690000 -0.145923
v -0.168159 -0.690000 -0.080981
v -0.186642 -0.690000 -0.000000
v -0.168159 -0.690000 0.080981
v -0.116370 -0.690000 0.145923
v -0.041532 -0.690000 0.181963
v 0.041532 -0.690000 0.181963
v 0.116370 -0.690000 0.145923
v 0.168159 -0.690000 0.080981
v 0.131048 -0.640000 0.000000
v 0.118070 -0.640000 -0.056860
v 0.081707 -0.640000 -0.102457
v 0.029161 -0.640000 -0.127762
v -0.029161 -0.640000 -0.127762
v -0.081707 -0.640000 -0.102457
v -0.118070 -0.640000 -0.056860
v -0.131048 -0.640000 -0.000000
v -0.118070 -0.640000 0.056860
v -0.081707 -0.640000 0.102457
v -0.029161 -0.640000 0.127762
v 0.029161 -0.640000 0.127762
v 0.081707 -0.640000 0.102457
v 0.118070 -0.640000 0.056860
v 0.020000 -0.590000 0.000000
v 0.018019 -0.590000 -0.008678
v 0.012470 -0.590000 -0.015637
v 0.004450 -0.590000 -0.019499
v -0.004450 -0.590000 -0.019499
v -0.012470 -0.590000 -0.015637
v -0.018019 -0.590000 -0.008678
v -0.020000 -0.590000 -0.000000
v -0.018019 -0.590000 0.008678
v -0.012470 -0.590000 0.015637
v -0.004450 -0.590000 0.019499
v 0.004450 -0.590000 0.019499
v 0.012470 -0.590000 0.015637
v 0.018019 -0.590000 0.008678
v 0.117032 0.743064 1.284033
v 0.100000 0.739200 1.300000
v 0.100968 0.759228 1.284515
v 0.111629 0.740298 1.295224
v 0.109660 0.750105 1.293353
v 0.100271 0.751727 1.295564
v 0.112314 0.754460 1.284274
v -0.100000 0.739200 1.300000
v -0.117032 0.743064 1.284033
v -0.100968 0.759228 1.284515
v -0.111616 0.741132 1.295323
v -0.109690 0.750229 1.293567
v -0.112257 0.754248 1.285300
v -0.100484 0.751693 1.295465
v -0.100000 0.540800 1.300000
v -0.100983 0.527804 1.284285
v -0.117032 0.543986 1.284033
v -0.100278 0.530329 1.295449
v -0.109663 0.532871 1.293305
v -0.112321 0.532582 1.284159
v -0.111626 0.541771 1.295271
v 0.100000 0.540800 1.300000
v 0.117032 0.543986 1.284033
v 0.100983 0.527804 1.284285
v 0.111616 0.542393 1.295323
v 0.109713 0.533018 1.293219
v 0.112356 0.532636 1.283743
v 0.100491 0.530366 1.295397
v 0.113968 0.811556 1.083333
v 0.130000 0.795276 1.083333
v 0.125304 0.806787 1.083333
v -0.130000 0.795276 1.083333
v -0.113968 0.811556 1.083333
v -0.125304 0.806787 1.083333
v -0.113967 0.566222 1.083333
v -0.130000 0.582350 1.083333
v -0.125304 0.570946 1.083333
v 0.130000 0.582350 1.083333
v 0.113967 0.566222 1.083333
v 0.125304 0.570946 1.083333
v 0.127968 0.859022 0.866667
v 0.144000 0.842766 0.866667
v 0.139304 0.854261 0.866667
v -0.144000 0.842766 0.866667
v -0.127968 0.859022 0.866667
v -0.139304 0.854261 0.866667
v -0.127967 0.598756 0.866667
v -0.144000 0.614869 0.866667
v -0.139304 0.603475 0.866667
v 0.144000 0.614869 0.866667
v 0.127967 0.598756 0.866667
v 0.139304 0.603475 0.866667
v 0.141968 0.897600 0.650000
v 0.158000 0.881372 0.650000
v 0.153304 0.892847 0.650000
v -0.158000 0.881372 0.650000
v -0.141968 0.897600 0.650000
v -0.153304 0.892847 0.650000
v -0.141967 0.622400 0.650000
v -0.158000 0.638497 0.650000
v -0.153304 0.627115 0.650000
v 0.158000 0.638497 0.650000
v 0.141967 0.622400 0.650000
v 0.153304 0.627115 0.650000
v 0.155967 0.927289 0.433333
v 0.172000 0.911086 0.433333
v 0.167304 0.922543 0.433333
v -0.172000 0.911086 0.433333
v -0.155967 0.927289 0.433333
v -0.167304 0.922543 0.433333
v -0.155967 0.637156 0.433333
v -0.172000 0.653239 0.433333
v -0.167304 0.641866 0.433333
v 0.172000 0.653239 0.433333
v 0.155967 0.637156 0.433333
v 0.167304 0.641866 0.433333
v 0.169967 0.948089 0.216667
v 0.186000 0.931903 0.216667
v 0.181304 0.943348 0.216667
v -0.186000 0.931903 0.216667
v -0.169967 0.948089 0.216667
v -0.181304 0.943348 0.216667
v -0.169967 0.643022 0.216667
v -0.186000 0.659097 0.216667
v -0.181304 0.647730 0.216667
v 0.186000 0.659097 0.216667
v 0.169967 0.643022 0.216667
v 0.181304 0.647730 0.216667
v 0.183967 0.960000 0.000000
v 0.200000 0.943820 0.000000
v 0.195304 0.955261 0.000000
v -0.200000 0.943820 0.000000
v -0.183967 0.960000 0.000000
v -0.195304 0.955261 0.000000
v -0.183967 0.640000 0.000000
v -0.200000 0.656072 0.000000
v -0.195304 0.644707 0.000000
v 0.200000 0.656072 0.000000
v 0.183967 0.640000 0.000000
v 0.195304 0.644707 0.000000
v 0.169967 0.948089 -0.216667
v 0.186000 0.931903 -0.216667
v 0.181304 0.943348 -0.216667
v -0.186000 0.931903 -0.216667
v -0.169967 0.948089 -0.216667
v -0.181304 0.943348 -0.216667
v -0.169967 0.643022 -0.216667
v -0.186000 0.659097 -0.216667
v -0.181304 0.647730 -0.216667
v 0.186000 0.659097 -0.216667
v 0.169967 0.643022 -0.216667
v 0.181304 0.647730 -0.216667
v 0.155967 0.927289 -0.433333
v 0.172000 0.911086 -0.433333
v 0.167304 0.922543 -0.433333
v -0.172000 0.911086 -0.433333
v -0.155967 0.927289 -0.433333
v -0.167304 0.922543 -0.433333
v -0.155967 0.637156 -0.433333
v -0.172000 0.653239 -0.433333
v -0.167304 0.641866 -0.433333
v 0.172000 0.653239 -0.433333
v 0.155967 0.637156 -0.433333
v 0.167304 0.641866 -0.433333
v 0.141968 0.897600 -0.650000
v 0.158000 0.881372 -0.650000
v 0.153304 0.892847 -0.650000
v -0.158000 0.881372 -0.650000
v -0.141968 0.897600 -0.650000
v -0.153304 0.892847 -0.650000
v -0.141967 0.622400 -0.650000
v -0.158000 0.638497 -0.650000
v -0.153304 0.627115 -0.650000
v 0.158000 0.638497 -0.650000
v 0.141967 0.622400 -0.650000
v 0.153304 0.627115 -0.650000
v 0.127968 0.859022 -0.866667
v 0.144000 0.842766 -0.866667
v 0.139304 0.854261 -0.866667
v -0.144000 0.842766 -0.866667
v -0.127968 0.859022 -0.866667
v -0.139304 0.854261 -0.866667
v -0.127967 0.598756 -0.866667
v -0.144000 0.614869 -0.866667
v -0.139304 0.603475 -0.866667
v 0.144000 0.614869 -0.866667
v 0.127967 0.598756 -0.866667
v 0.139304 0.603475 -0.866667
v 0.113968 0.811556 -1.083333
v 0.130000 0.795276 -1.083333
v 0.125304 0.806787 -1.083333
v -0.130000 0.795276 -1.083333
v -0.113968 0.811556 -1.083333
v -0.125304 0.806787 -1.083333
v -0.113967 0.566222 -1.083333
v -0.130000 0.582350 -1.083333
v -0.125304 0.570946 -1.083333
v 0.130000 0.582350 -1.083333
v 0.113967 0.566222 -1.083333
v 0.125304 0.570946 -1.083333
v 0.117032 0.743064 -1.284033
v 0.100968 0.759228 -1.284515
v 0.100000 0.739200 -1.300000
v 0.112257 0.754248 -1.285300
v 0.109690 0.750229 -1.293567
v 0.100484 0.751693 -1.295465
v 0.111616 0.741132 -1.295323
v -0.117032 0.743064 -1.284033
v -0.100000 0.739200 -1.300000
v -0.100968 0.759228 -1.284515
v -0.111629 0.740298 -1.295224
v -0.109660 0.750105 -1.293353
v -0.100271 0.751727 -1.295564
v -0.112314 0.754460 -1.284274
v -0.100983 0.527804 -1.284285
v -0.100000 0.540800 -1.300000
v -0.117032 0.543986 -1.284033
v -0.100491 0.530366 -1.295397
v -0.109713 0.533018 -1.293219
v -0.111616 0.542393 -1.295323
v -0.112356 0.532636 -1.283743
v 0.117032 0.543986 -1.284033
v 0.100000 0.540800 -1.300000
v 0.100983 0.527804 -1.284285
v 0.111626 0.541771 -1.295271
v 0.109663 0.532871 -1.293305
v 0.100278 0.530329 -1.295449
v 0.112321 0.532582 -1.284159
v 0.262958 1.493750 -0.144000
v 0.000000 1.493750 -0.112320
v -0.262958 1.493750 -0.144000
v -0.262958 1.493750 0.144000
v 0.000000 1.493750 0.112320
v 0.262958 1.493750 0.144000
v 0.246915 2.087500 -0.138000
v 0.000000 2.087500 -0.107640
v -0.246915 2.087500 -0.138000
v -0.246915 2.087500 0.138000
v 0.000000 2.087500 0.107640
v 0.246915 2.087500 0.138000
v 0.230872 2.681250 -0.132000
v 0.000000 2.681250 -0.102960
v -0.230872 2.681250 -0.132000
v -0.230872 2.681250 0.132000
v 0.000000 2.681250 0.102960
v 0.230872 2.681250 0.132000
v 0.214830 3.275000 -0.126000
v 0.000000 3.275000 -0.098280
v -0.214830 3.275000 -0.126000
v -0.214830 3.275000 0.126000
v 0.000000 3.275000 0.098280
v 0.214830 3.275000 0.126000
v 0.198787 3.868750 -0.120000
v 0.000000 3.868750 -0.093600
v -0.198787 3.868750 -0.120000
v -0.198787 3.868750 0.120000
v 0.000000 3.868750 0.093600
v 0.198787 3.868750 0.120000
v 0.182745 4.462500 -0.114000
v 0.000000 4.462500 -0.088920
v -0.182745 4.462500 -0.114000
v -0.182745 4.462500 0.114000
v 0.000000 4.462500 0.088920
v 0.182745 4.462500 0.114000
v 0.166702 5.056250 -0.108000
v 0.000000 5.056250 -0.084240
v -0.166702 5.056250 -0.108000
v -0.166702 5.056250 0.108000
v 0.000000 5.056250 0.084240
v 0.166702 5.056250 0.108000
v 0.150660 5.650000 -0.102000
v 0.000000 5.650000 -0.079560
v -0.150660 5.650000 -0.102000
v -0.150660 5.650000 0.102000
v 0.000000 5.650000 0.079560
v 0.150660 5.650000 0.102000
v 0.127443 5.960000 -0.078668
v 0.000000 5.960000 -0.061361
v -0.127443 5.960000 -0.078668
v -0.127443 5.960000 0.078668
v 0.000000 5.960000 0.061361
v 0.127443 5.960000 0.078668
v 0.102710 6.270000 -0.063401
v 0.000000 6.270000 -0.049453
v -0.102710 6.270000 -0.063401
v -0.102710 6.270000 0.063401
v 0.000000 6.270000 0.049453
v 0.102710 6.270000 0.063401
v 0.075778 6.580000 -0.046777
v 0.000000 6.580000 -0.036486
v -0.075778 6.580000 -0.046777
v -0.075778 6.580000 0.046777
v 0.000000 6.580000 0.036486
v 0.075778 6.580000 0.046777
v 0.045058 6.890000 -0.027813
v 0.000000 6.890000 -0.021695
v -0.045058 6.890000 -0.027813
v -0.045058 6.890000 0.027813
v 0.000000 6.890000 0.021695
v 0.045058 6.890000 0.027813
v 0.618324 0.901713 0.000692
v 0.615743 0.900000 0.000000
v 0.618324 0.901713 -0.000692
v 0.617180 0.900502 0.000679
v 0.618260 0.900732 0.000000
v 0.617180 0.900502 -0.000679
v 0.618973 0.901752 0.000000
v 0.278737 0.900000 -0.148243
v 0.278954 0.901714 -0.149983
v 0.278910 0.900502 -0.149480
v 0.000000 0.900000 -0.115274
v 0.000000 0.901714 -0.116986
v 0.000000 0.900502 -0.116491
v -0.278737 0.900000 -0.148243
v -0.278954 0.901714 -0.149983
v -0.278910 0.900502 -0.149480
v -0.615743 0.900000 0.000000
v -0.618324 0.901713 0.000692
v -0.618324 0.901713 -0.000692
v -0.617180 0.900502 0.000679
v -0.618260 0.900732 -0.000000
v -0.618973 0.901752 -0.000000
v -0.617180 0.900502 -0.000679
v -0.278737 0.900000 0.148243
v -0.278954 0.901714 0.149983
v -0.278910 0.900502 0.149480
v -0.000000 0.900000 0.115274
v 0.000000 0.901714 0.116986
v -0.000000 0.900502 0.116491
v 0.278737 0.900000 0.148243
v 0.278954 0.901714 0.149983
v 0.278910 0.900502 0.149480
v 0.582781 1.493750 -0.000703
v 0.582781 1.493750 0.000703
v 0.583431 1.493750 0.000000
v -0.582781 1.493750 0.000703
v -0.582781 1.493750 -0.000703
v -0.583431 1.493750 0.000000
v 0.547136 2.087500 -0.000715
v 0.547136 2.087500 0.000715
v 0.547784 2.087500 0.000000
v -0.547136 2.087500 0.000715
v -0.547136 2.087500 -0.000715
v -0.547784 2.087500 0.000000
v 0.511492 2.681250 -0.000729
v 0.511492 2.681250 0.000729
v 0.512137 2.681250 0.000000
v -0.511492 2.681250 0.000729
v -0.511492 2.681250 -0.000729
v -0.512137 2.681250 0.000000
v 0.475849 3.275000 -0.000744
v 0.475849 3.275000 0.000744
v 0.476491 3.275000 0.000000
v -0.475849 3.275000 0.000744
v -0.475849 3.275000 -0.000744
v -0.476491 3.275000 0.000000
v 0.440206 3.868750 -0.000762
v 0.440206 3.868750 0.000762
v 0.440846 3.868750 0.000000
v -0.440206 3.868750 0.000762
v -0.440206 3.868750 -0.000762
v -0.440846 3.868750 0.000000
v 0.404565 4.462500 -0.000783
v 0.404565 4.462500 0.000783
v 0.405201 4.462500 0.000000
v -0.404565 4.462500 0.000783
v -0.404565 4.462500 -0.000783
v -0.405201 4.462500 0.000000
v 0.368925 5.056250 -0.000808
v 0.368925 5.056250 0.000808
v 0.369557 5.056250 0.000000
v -0.368925 5.056250 0.000808
v -0.368925 5.056250 -0.000808
v -0.369557 5.056250 0.000000
v 0.333288 5.650000 -0.000838
v 0.333288 5.650000 0.000838
v 0.333914 5.650000 0.000000
v -0.333288 5.650000 0.000838
v -0.333288 5.650000 -0.000838
v -0.333914 5.650000 0.000000
v 0.281660 5.960000 -0.000781
v 0.281660 5.960000 0.000781
v 0.282300 5.960000 0.000000
v -0.281660 5.960000 0.000781
v -0.281660 5.960000 -0.000781
v -0.282300 5.960000 0.000000
v 0.226694 6.270000 -0.000782
v 0.226694 6.270000 0.000782
v 0.227336 6.270000 0.000000
v -0.226694 6.270000 0.000782
v -0.226694 6.270000 -0.000782
v -0.227336 6.270000 0.000000
v 0.166843 6.580000 -0.000784
v 0.166843 6.580000 0.000784
v 0.167486 6.580000 0.000000
v -0.166843 6.580000 0.000784
v -0.166843 6.580000 -0.000784
v -0.167486 6.580000 0.000000
v 0.098574 6.890000 -0.000785
v 0.098574 6.890000 0.000785
v 0.099218 6.890000 0.000000
v -0.098574 6.890000 0.000785
v -0.098574 6.890000 -0.000785
v -0.099218 6.890000 0.000000
v 0.003509 7.198328 0.001377
v 0.003509 7.198328 -0.001377
v 0.001875 7.200000 -0.000000
v 0.003890 7.198446 0.000000
v 0.003379 7.199317 0.000000
v 0.002908 7.199510 -0.000847
v 0.002908 7.199510 0.000847
v 0.001180 7.200000 -0.000947
v 0.002038 7.198297 -0.003136
v 0.001688 7.199501 -0.002439
v 0.000000 7.200000 -0.000515
v 0.000000 7.198299 -0.002446
v 0.000000 7.199501 -0.001836
v -0.001180 7.200000 -0.000947
v -0.002038 7.198297 -0.003136
v -0.001688 7.199501 -0.002439
v -0.003509 7.198328 0.001377
v -0.001875 7.200000 0.000000
v -0.003509 7.198328 -0.001377
v -0.002908 7.199510 0.000847
v -0.003379 7.199317 -0.000000
v -0.002908 7.199510 -0.000847
v -0.003890 7.198446 -0.000000
v -0.001180 7.200000 0.000947
v -0.002038 7.198297 0.003136
v -0.001688 7.199501 0.002439
v -0.000000 7.200000 0.000515
v 0.000000 7.198299 0.002446
v -0.000000 7.199501 0.001836
v 0.001180 7.200000 0.000947
v 0.002038 7.198297 0.003136
v 0.001688 7.199501 0.002439
vn 0.9999 -0.0124 -0.0000
vn 0.9009 -0.0124 -0.4339
vn 0.9009 -0.0130 -0.4338
vn 0.9999 -0.0130 -0.0000
vn 0.6234 -0.0124 -0.7818
vn 0.6234 -0.0130 -0.7818
vn 0.2225 -0.0124 -0.9749
vn 0.2225 -0.0130 -0.9748
vn -0.2225 -0.0124 -0.9749
vn -0.2225 -0.0130 -0.9748
vn -0.6234 -0.0124 -0.7818
vn -0.6234 -0.0130 -0.7818
vn -0.9009 -0.0124 -0.4339
vn -0.9009 -0.0130 -0.4338
vn -0.9999 -0.0124 -0.0000
vn -0.9999 -0.0130 -0.0000
vn -0.9009 -0.0124 0.4339
vn -0.9009 -0.0130 0.4338
vn -0.6234 -0.0124 0.7818
vn -0.6234 -0.0130 0.7818
vn -0.2225 -0.0124 0.9749
vn -0.2225 -0.0130 0.9748
vn 0.2225 -0.0124 0.9749
vn 0.2225 -0.0130 0.9748
vn 0.6234 -0.0124 0.7818
vn 0.6234 -0.0130 0.7818
vn 0.9009 -0.0124 0.4339
vn 0.9009 -0.0130 0.4338
vn 0.8972 0.0913 -0.4321
vn 0.9958 0.0913 -0.0000
vn 0.6209 0.0913 -0.7786
vn 0.2216 0.0913 -0.9709
vn -0.2216 0.0913 -0.9709
vn -0.6209 0.0913 -0.7786
vn -0.8972 0.0913 -0.4321
vn -0.9958 0.0913 -0.0000
vn -0.8972 0.0913 0.4321
vn -0.6209 0.0913 0.7786
vn -0.2216 0.0913 0.9709
vn 0.2216 0.0913 0.9709
vn 0.6209 0.0913 0.7786
vn 0.8972 0.0913 0.4321
vn 0.8975 0.0871 -0.4322
vn 0.9962 0.0871 -0.0000
vn 0.6211 0.0871 -0.7789
vn 0.2217 0.0871 -0.9712
vn -0.2217 0.0871 -0.9712
vn -0.6211 0.0871 -0.7789
vn -0.8975 0.0871 -0.4322
vn -0.9962 0.0871 -0.0000
vn -0.8975 0.0871 0.4322
vn -0.6211 0.0871 0.7789
vn -0.2217 0.0871 0.9712
vn 0.2217 0.0871 0.9712
vn 0.6211 0.0871 0.7789
vn 0.8975 0.0871 0.4322
vn 0.9007 -0.0234 -0.4338
vn 0.9997 -0.0234 -0.0000
vn 0.6233 -0.0234 -0.7816
vn 0.2225 -0.0234 -0.9747
vn -0.2225 -0.0234 -0.9747
vn -0.6233 -0.0234 -0.7816
vn -0.9007 -0.0234 -0.4338
vn -0.9997 -0.0234 -0.0000
vn -0.9007 -0.0234 0.4338
vn -0.6233 -0.0234 0.7816
vn -0.2225 -0.0234 0.9747
vn 0.2225 -0.0234 0.9747
vn 0.6233 -0.0234 0.7816
vn 0.9007 -0.0234 0.4338
vn 0.9006 -0.0286 -0.4337
vn 0.9996 -0.0286 -0.0000
vn 0.6232 -0.0286 -0.7815
vn 0.2224 -0.0286 -0.9745
vn -0.2224 -0.0286 -0.9745
vn -0.6232 -0.0286 -0.7815
vn -0.9006 -0.0286 -0.4337
vn -0.9996 -0.0286 -0.0000
vn -0.9006 -0.0286 0.4337
vn -0.6232 -0.0286 0.7815
vn -0.2224 -0.0286 0.9745
vn 0.2224 -0.0286 0.9745
vn 0.6232 -0.0286 0.7815
vn 0.9006 -0.0286 0.4337
vn 0.8990 0.0652 -0.4330
vn 0.9979 0.0652 -0.0000
vn 0.6222 0.0652 -0.7802
vn 0.2220 0.0652 -0.9729
vn -0.2220 0.0652 -0.9729
vn -0.6222 0.0652 -0.7802
vn -0.8990 0.0652 -0.4330
vn -0.9979 0.0652 -0.0000
vn -0.8990 0.0652 0.4330
vn -0.6222 0.0652 0.7802
vn -0.2220 0.0652 0.9729
vn 0.2220 0.0652 0.9729
vn 0.6222 0.0652 0.7802
vn 0.8990 0.0652 0.4330
vn 0.9009 0.0080 -0.4339
vn 1.0000 0.0080 -0.0000
vn 0.6235 0.0080 -0.7818
vn 0.2225 0.0080 -0.9749
vn -0.2225 0.0080 -0.9749
vn -0.6235 0.0080 -0.7818
vn -0.9009 0.0080 -0.4339
vn -1.0000 0.0080 -0.0000
vn -0.9009 0.0080 0.4339
vn -0.6235 0.0080 0.7818
vn -0.2225 0.0080 0.9749
vn 0.2225 0.0080 0.9749
vn 0.6235 0.0080 0.7818
vn 0.9009 0.0080 0.4339
vn 0.8999 -0.0497 -0.4333
vn 0.9988 -0.0497 -0.0000
vn 0.6227 -0.0497 -0.7809
vn 0.2222 -0.0497 -0.9737
vn -0.2222 -0.0497 -0.9737
vn -0.6227 -0.0497 -0.7809
vn -0.8999 -0.0497 -0.4333
vn -0.9988 -0.0497 -0.0000
vn -0.8999 -0.0497 0.4333
vn -0.6227 -0.0497 0.7809
vn -0.2222 -0.0497 0.9737
vn 0.2222 -0.0497 0.9737
vn 0.6227 -0.0497 0.7809
vn 0.8999 -0.0497 0.4333
vn 0.9002 0.0422 -0.4335
vn 0.9991 0.0422 -0.0000
vn 0.6229 0.0422 -0.7811
vn 0.2223 0.0422 -0.9741
vn -0.2223 0.0422 -0.9741
vn -0.6229 0.0422 -0.7811
vn -0.9002 0.0422 -0.4335
vn -0.9991 0.0422 -0.0000
vn -0.9002 0.0422 0.4335
vn -0.6229 0.0422 0.7811
vn -0.2223 0.0422 0.9741
vn 0.2223 0.0422 0.9741
vn 0.6229 0.0422 0.7811
vn 0.9002 0.0422 0.4335
vn 0.9004 0.0355 -0.4336
vn 0.9994 0.0355 -0.0000
vn 0.6231 0.0355 -0.7813
vn 0.2224 0.0355 -0.9743
vn -0.2224 0.0355 -0.9743
vn -0.6231 0.0355 -0.7813
vn -0.9004 0.0355 -0.4336
vn -0.9994 0.0355 -0.0000
vn -0.9004 0.0355 0.4336
vn -0.6231 0.0355 0.7813
vn -0.2224 0.0355 0.9743
vn 0.2224 0.0355 0.9743
vn 0.6231 0.0355 0.7813
vn 0.9004 0.0355 0.4336
vn 0.8985 -0.0737 -0.4327
vn 0.9973 -0.0737 -0.0000
vn 0.6218 -0.0737 -0.7797
vn 0.2219 -0.0737 -0.9723
vn -0.2219 -0.0737 -0.9723
vn -0.6218 -0.0737 -0.7797
vn -0.8985 -0.0737 -0.4327
vn -0.9973 -0.0737 -0.0000
vn -0.8985 -0.0737 0.4327
vn -0.6218 -0.0737 0.7797
vn -0.2219 -0.0737 0.9723
vn 0.2219 -0.0737 0.9723
vn 0.6218 -0.0737 0.7797
vn 0.8985 -0.0737 0.4327
vn 0.8981 -0.0797 -0.4325
vn 0.9968 -0.0797 -0.0000
vn 0.6215 -0.0797 -0.7793
vn 0.2218 -0.0797 -0.9718
vn -0.2218 -0.0797 -0.9718
vn -0.6215 -0.0797 -0.7793
vn -0.8981 -0.0797 -0.4325
vn -0.9968 -0.0797 -0.0000
vn -0.8981 -0.0797 0.4325
vn -0.6215 -0.0797 0.7793
vn -0.2218 -0.0797 0.9718
vn 0.2218 -0.0797 0.9718
vn 0.6215 -0.0797 0.7793
vn 0.8981 -0.0797 0.4325
vn 0.9008 0.0185 -0.4338
vn 0.9998 0.0185 -0.0000
vn 0.6234 0.0185 -0.7817
vn 0.2225 0.0185 -0.9748
vn -0.2225 0.0185 -0.9748
vn -0.6234 0.0185 -0.7817
vn -0.9008 0.0185 -0.4338
vn -0.9998 0.0185 -0.0000
vn -0.9008 0.0185 0.4338
vn -0.6234 0.0185 0.7817
vn -0.2225 0.0185 0.9748
vn 0.2225 0.0185 0.9748
vn 0.6234 0.0185 0.7817
vn 0.9008 0.0185 0.4338
vn 0.9009 0.0153 -0.4338
vn 0.9999 0.0153 -0.0000
vn 0.6234 0.0153 -0.7817
vn 0.2225 0.0153 -0.9748
vn -0.2225 0.0153 -0.9748
vn -0.6234 0.0153 -0.7817
vn -0.9009 0.0153 -0.4338
vn -0.9999 0.0153 -0.0000
vn -0.9009 0.0153 0.4338
vn -0.6234 0.0153 0.7817
vn -0.2225 0.0153 0.9748
vn 0.2225 0.0153 0.9748
vn 0.6234 0.0153 0.7817
vn 0.9009 0.0153 0.4338
vn 0.8967 -0.0970 -0.4318
vn 0.9953 -0.0970 -0.0000
vn 0.6205 -0.0970 -0.7781
vn 0.2215 -0.0970 -0.9703
vn -0.2215 -0.0970 -0.9703
vn -0.6205 -0.0970 -0.7781
vn -0.8967 -0.0970 -0.4318
vn -0.9953 -0.0970 -0.0000
vn -0.8967 -0.0970 0.4318
vn -0.6205 -0.0970 0.7781
vn -0.2215 -0.0970 0.9703
vn 0.2215 -0.0970 0.9703
vn 0.6205 -0.0970 0.7781
vn 0.8967 -0.0970 0.4318
vn 0.9002 -0.0415 -0.4335
vn 0.9991 -0.0415 -0.0000
vn 0.6230 -0.0415 -0.7812
vn 0.2223 -0.0415 -0.9741
vn -0.2223 -0.0415 -0.9741
vn -0.6230 -0.0415 -0.7812
vn -0.9002 -0.0415 -0.4335
vn -0.9991 -0.0415 -0.0000
vn -0.9002 -0.0415 0.4335
vn -0.6230 -0.0415 0.7812
vn -0.2223 -0.0415 0.9741
vn 0.2223 -0.0415 0.9741
vn 0.6230 -0.0415 0.7812
vn 0.9002 -0.0415 0.4335
vn 0.2199 -0.9755 -0.0000
vn 0.1981 -0.9755 -0.0954
vn 0.3422 -0.9250 -0.1648
vn 0.3799 -0.9250 -0.0000
vn 0.9342 -0.3568 -0.0000
vn 0.8417 -0.3568 -0.4053
vn 0.8900 -0.1557 -0.4286
vn 0.9878 -0.1557 -0.0000
vn 0.1371 -0.9755 -0.1719
vn 0.2368 -0.9250 -0.2970
vn 0.5825 -0.3568 -0.7304
vn 0.6159 -0.1557 -0.7723
vn 0.0489 -0.9755 -0.2144
vn 0.0845 -0.9250 -0.3703
vn 0.2079 -0.3568 -0.9108
vn 0.2198 -0.1557 -0.9630
vn -0.0489 -0.9755 -0.2144
vn -0.0845 -0.9250 -0.3703
vn -0.2079 -0.3568 -0.9108
vn -0.2198 -0.1557 -0.9630
vn -0.1371 -0.9755 -0.1719
vn -0.2368 -0.9250 -0.2970
vn -0.5825 -0.3568 -0.7304
vn -0.6159 -0.1557 -0.7723
vn -0.1981 -0.9755 -0.0954
vn -0.3422 -0.9250 -0.1648
vn -0.8417 -0.3568 -0.4053
vn -0.8900 -0.1557 -0.4286
vn -0.2199 -0.9755 -0.0000
vn -0.3799 -0.9250 -0.0000
vn -0.9342 -0.3568 -0.0000
vn -0.9878 -0.1557 -0.0000
vn -0.1981 -0.9755 0.0954
vn -0.3422 -0.9250 0.1648
vn -0.8417 -0.3568 0.4053
vn -0.8900 -0.1557 0.4286
vn -0.1371 -0.9755 0.1719
vn -0.2368 -0.9250 0.2970
vn -0.5825 -0.3568 0.7304
vn -0.6159 -0.1557 0.7723
vn -0.0489 -0.9755 0.2144
vn -0.0845 -0.9250 0.3703
vn -0.2079 -0.3568 0.9108
vn -0.2198 -0.1557 0.9630
vn 0.0489 -0.9755 0.2144
vn 0.0845 -0.9250 0.3703
vn 0.2079 -0.3568 0.9108
vn 0.2198 -0.1557 0.9630
vn 0.1371 -0.9755 0.1719
vn 0.2368 -0.9250 0.2970
vn 0.5825 -0.3568 0.7304
vn 0.6159 -0.1557 0.7723
vn 0.1981 -0.9755 0.0954
vn 0.3422 -0.9250 0.1648
vn 0.8417 -0.3568 0.4053
vn 0.8900 -0.1557 0.4286
vn 0.9670 0.2547 -0.0000
vn 0.8713 0.2547 -0.4196
vn 0.8074 0.4437 -0.3888
vn 0.8962 0.4437 -0.0000
vn 0.3649 0.9310 -0.0000
vn 0.3288 0.9310 -0.1583
vn 0.1901 0.9775 -0.0916
vn 0.2110 0.9775 -0.0000
vn 0.6029 0.2547 -0.7561
vn 0.5588 0.4437 -0.7007
vn 0.2275 0.9310 -0.2853
vn 0.1316 0.9775 -0.1650
vn 0.2152 0.2547 -0.9428
vn 0.1994 0.4437 -0.8737
vn 0.0812 0.9310 -0.3558
vn 0.0470 0.9775 -0.2058
vn -0.2152 0.2547 -0.9428
vn -0.1994 0.4437 -0.8737
vn -0.0812 0.9310 -0.3558
vn -0.0470 0.9775 -0.2058
vn -0.6029 0.2547 -0.7561
vn -0.5588 0.4437 -0.7007
vn -0.2275 0.9310 -0.2853
vn -0.1316 0.9775 -0.1650
vn -0.8713 0.2547 -0.4196
vn -0.8074 0.4437 -0.3888
vn -0.3288 0.9310 -0.1583
vn -0.1901 0.9775 -0.0916
vn -0.9670 0.2547 -0.0000
vn -0.8962 0.4437 -0.0000
vn -0.3649 0.9310 -0.0000
vn -0.2110 0.9775 -0.0000
vn -0.8713 0.2547 0.4196
vn -0.8074 0.4437 0.3888
vn -0.3288 0.9310 0.1583
vn -0.1901 0.9775 0.0916
vn -0.6029 0.2547 0.7561
vn -0.5588 0.4437 0.7007
vn -0.2275 0.9310 0.2853
vn -0.1316 0.9775 0.1650
vn -0.2152 0.2547 0.9428
vn -0.1994 0.4437 0.8737
vn -0.0812 0.9310 0.3558
vn -0.0470 0.9775 0.2058
vn 0.2152 0.2547 0.9428
vn 0.1994 0.4437 0.8737
vn 0.0812 0.9310 0.3558
vn 0.0470 0.9775 0.2058
vn 0.6029 0.2547 0.7561
vn 0.5588 0.4437 0.7007
vn 0.2275 0.9310 0.2853
vn 0.1316 0.9775 0.1650
vn 0.8713 0.2547 0.4196
vn 0.8074 0.4437 0.3888
vn 0.3288 0.9310 0.1583
vn 0.1901 0.9775 0.0916
vn 0.2382 -0.9712 -0.0000
vn 0.2147 -0.9712 -0.1034
vn 0.5056 -0.8277 -0.2435
vn 0.5612 -0.8277 -0.0000
vn 0.1485 -0.9712 -0.1863
vn 0.3499 -0.8277 -0.4388
vn 0.0530 -0.9712 -0.2323
vn 0.1249 -0.8277 -0.5471
vn -0.0530 -0.9712 -0.2323
vn -0.1249 -0.8277 -0.5471
vn -0.1485 -0.9712 -0.1863
vn -0.3499 -0.8277 -0.4388
vn -0.2147 -0.9712 -0.1034
vn -0.5056 -0.8277 -0.2435
vn -0.2382 -0.9712 -0.0000
vn -0.5612 -0.8277 -0.0000
vn -0.2147 -0.9712 0.1034
vn -0.5056 -0.8277 0.2435
vn -0.1485 -0.9712 0.1863
vn -0.3499 -0.8277 0.4388
vn -0.0530 -0.9712 0.2323
vn -0.1249 -0.8277 0.5471
vn 0.0530 -0.9712 0.2323
vn 0.1249 -0.8277 0.5471
vn 0.1485 -0.9712 0.1863
vn 0.3499 -0.8277 0.4388
vn 0.2147 -0.9712 0.1034
vn 0.5056 -0.8277 0.2435
vn 0.6773 -0.6595 -0.3262
vn 0.7517 -0.6595 -0.0000
vn 0.4687 -0.6595 -0.5877
vn 0.1673 -0.6595 -0.7329
vn -0.1673 -0.6595 -0.7329
vn -0.4687 -0.6595 -0.5877
vn -0.6773 -0.6595 -0.3262
vn -0.7517 -0.6595 -0.0000
vn -0.6773 -0.6595 0.3262
vn -0.4687 -0.6595 0.5877
vn -0.1673 -0.6595 0.7329
vn 0.1673 -0.6595 0.7329
vn 0.4687 -0.6595 0.5877
vn 0.6773 -0.6595 0.3262
vn 0.7909 -0.4790 -0.3809
vn 0.8778 -0.4790 -0.0000
vn 0.5473 -0.4790 -0.6863
vn 0.1953 -0.4790 -0.8558
vn -0.1953 -0.4790 -0.8558
vn -0.5473 -0.4790 -0.6863
vn -0.7909 -0.4790 -0.3809
vn -0.8778 -0.4790 -0.0000
vn -0.7909 -0.4790 0.3809
vn -0.5473 -0.4790 0.6863
vn -0.1953 -0.4790 0.8558
vn 0.1953 -0.4790 0.8558
vn 0.5473 -0.4790 0.6863
vn 0.7909 -0.4790 0.3809
vn 0.8709 -0.2564 -0.4194
vn 0.9666 -0.2564 -0.0000
vn 0.6026 -0.2564 -0.7557
vn 0.2151 -0.2564 -0.9423
vn -0.2151 -0.2564 -0.9423
vn -0.6026 -0.2564 -0.7557
vn -0.8709 -0.2564 -0.4194
vn -0.9666 -0.2564 -0.0000
vn -0.8709 -0.2564 0.4194
vn -0.6026 -0.2564 0.7557
vn -0.2151 -0.2564 0.9423
vn 0.2151 -0.2564 0.9423
vn 0.6026 -0.2564 0.7557
vn 0.8709 -0.2564 0.4194
vn 0.9010 -0.0000 -0.4339
vn 1.0000 -0.0000 -0.0000
vn 0.6235 -0.0000 -0.7818
vn 0.2225 -0.0000 -0.9749
vn -0.2225 -0.0000 -0.9749
vn -0.6235 -0.0000 -0.7818
vn -0.9010 -0.0000 -0.4339
vn -1.0000 -0.0000 -0.0000
vn -0.9010 -0.0000 0.4339
vn -0.6235 -0.0000 0.7818
vn -0.2225 -0.0000 0.9749
vn 0.2225 -0.0000 0.9749
vn 0.6235 -0.0000 0.7818
vn 0.9010 -0.0000 0.4339
vn 0.8709 0.2564 -0.4194
vn 0.9666 0.2564 -0.0000
vn 0.6026 0.2564 -0.7557
vn 0.2151 0.2564 -0.9423
vn -0.2151 0.2564 -0.9423
vn -0.6026 0.2564 -0.7557
vn -0.8709 0.2564 -0.4194
vn -0.9666 0.2564 -0.0000
vn -0.8709 0.2564 0.4194
vn -0.6026 0.2564 0.7557
vn -0.2151 0.2564 0.9423
vn 0.2151 0.2564 0.9423
vn 0.6026 0.2564 0.7557
vn 0.8709 0.2564 0.4194
vn 0.7909 0.4790 -0.3809
vn 0.8778 0.4790 -0.0000
vn 0.5473 0.4790 -0.6863
vn 0.1953 0.4790 -0.8558
vn -0.1953 0.4790 -0.8558
vn -0.5473 0.4790 -0.6863
vn -0.7909 0.4790 -0.3809
vn -0.8778 0.4790 -0.0000
vn -0.7909 0.4790 0.3809
vn -0.5473 0.4790 0.6863
vn -0.1953 0.4790 0.8558
vn 0.1953 0.4790 0.8558
vn 0.5473 0.4790 0.6863
vn 0.7909 0.4790 0.3809
vn 0.6773 0.6595 -0.3262
vn 0.7517 0.6595 -0.0000
vn 0.4687 0.6595 -0.5877
vn 0.1673 0.6595 -0.7329
vn -0.1673 0.6595 -0.7329
vn -0.4687 0.6595 -0.5877
vn -0.6773 0.6595 -0.3262
vn -0.7517 0.6595 -0.0000
vn -0.6773 0.6595 0.3262
vn -0.4687 0.6595 0.5877
vn -0.1673 0.6595 0.7329
vn 0.1673 0.6595 0.7329
vn 0.4687 0.6595 0.5877
vn 0.6773 0.6595 0.3262
vn 0.5056 0.8277 -0.2435
vn 0.5612 0.8277 -0.0000
vn 0.3499 0.8277 -0.4388
vn 0.1249 0.8277 -0.5471
vn -0.1249 0.8277 -0.5471
vn -0.3499 0.8277 -0.4388
vn -0.5056 0.8277 -0.2435
vn -0.5612 0.8277 -0.0000
vn -0.5056 0.8277 0.2435
vn -0.3499 0.8277 0.4388
vn -0.1249 0.8277 0.5471
vn 0.1249 0.8277 0.5471
vn 0.3499 0.8277 0.4388
vn 0.5056 0.8277 0.2435
vn 0.2147 0.9712 -0.1034
vn 0.2382 0.9712 -0.0000
vn 0.1485 0.9712 -0.1863
vn 0.0530 0.9712 -0.2323
vn -0.0530 0.9712 -0.2323
vn -0.1485 0.9712 -0.1863
vn -0.2147 0.9712 -0.1034
vn -0.2382 0.9712 -0.0000
vn -0.2147 0.9712 0.1034
vn -0.1485 0.9712 0.1863
vn -0.0530 0.9712 0.2323
vn 0.0530 0.9712 0.2323
vn 0.1485 0.9712 0.1863
vn 0.2147 0.9712 0.1034
vn -0.9476 -0.1670 -0.2723
vn -0.8880 -0.1267 -0.4420
vn -0.8454 -0.3005 -0.4416
vn -0.8950 -0.3468 -0.2804
vn -0.1735 -0.1526 -0.9729
vn -0.1581 -0.5986 -0.7853
vn -0.3255 -0.5742 -0.7512
vn -0.3458 -0.1446 -0.9271
vn -0.1729 -0.8987 -0.4031
vn -0.3464 -0.8535 -0.3893
vn 0.1676 -0.1507 -0.9743
vn 0.3299 -0.1531 -0.9315
vn 0.2977 -0.5794 -0.7587
vn 0.1466 -0.6004 -0.7862
vn 0.9500 -0.1624 -0.2667
vn 0.8959 -0.3401 -0.2857
vn 0.8512 -0.2918 -0.4363
vn 0.8891 -0.1292 -0.4392
vn 0.1668 -0.9009 -0.4007
vn 0.3303 -0.8550 -0.3998
vn 0.1798 0.1892 -0.9653
vn 0.1681 0.3707 -0.9134
vn 0.3427 0.3262 -0.8810
vn 0.3653 0.1509 -0.9186
vn 0.1829 0.9830 -0.0172
vn 0.3709 0.9287 0.0047
vn 0.3452 0.9202 -0.1846
vn 0.1592 0.9650 -0.2086
vn 0.9616 0.1815 -0.2057
vn 0.9087 0.1765 -0.3784
vn 0.8904 0.3218 -0.3218
vn 0.9191 0.3538 -0.1733
vn -0.1819 0.1911 -0.9646
vn -0.3718 0.1446 -0.9170
vn -0.3544 0.3225 -0.8777
vn -0.1759 0.3690 -0.9127
vn -0.9609 0.1830 -0.2078
vn -0.9196 0.3535 -0.1717
vn -0.8894 0.3200 -0.3265
vn -0.9080 0.1698 -0.3831
vn -0.1846 0.9826 -0.0193
vn -0.1671 0.9636 -0.2089
vn -0.3571 0.9155 -0.1853
vn -0.3757 0.9267 0.0074
vn -0.9500 -0.1624 0.2667
vn -0.8959 -0.3401 0.2857
vn -0.8512 -0.2918 0.4363
vn -0.8891 -0.1292 0.4392
vn -0.1668 -0.9009 0.4007
vn -0.1466 -0.6004 0.7862
vn -0.2977 -0.5794 0.7587
vn -0.3303 -0.8550 0.3998
vn -0.1676 -0.1507 0.9743
vn -0.3299 -0.1531 0.9315
vn 0.9476 -0.1670 0.2723
vn 0.8880 -0.1267 0.4420
vn 0.8454 -0.3005 0.4416
vn 0.8950 -0.3468 0.2804
vn 0.1735 -0.1526 0.9729
vn 0.1581 -0.5986 0.7853
vn 0.3255 -0.5742 0.7512
vn 0.3458 -0.1446 0.9271
vn 0.1729 -0.8987 0.4031
vn 0.3464 -0.8535 0.3893
vn 0.1846 0.9826 0.0193
vn 0.1671 0.9636 0.2089
vn 0.3571 0.9155 0.1853
vn 0.3757 0.9267 -0.0074
vn 0.1819 0.1911 0.9646
vn 0.3718 0.1446 0.9170
vn 0.3544 0.3225 0.8777
vn 0.1759 0.3690 0.9127
vn 0.9609 0.1830 0.2078
vn 0.9196 0.3535 0.1717
vn 0.8894 0.3200 0.3265
vn 0.9080 0.1698 0.3831
vn -0.9616 0.1815 0.2057
vn -0.9087 0.1765 0.3784
vn -0.8904 0.3218 0.3218
vn -0.9191 0.3538 0.1733
vn -0.1798 0.1892 0.9653
vn -0.1681 0.3707 0.9134
vn -0.3427 0.3262 0.8810
vn -0.3653 0.1509 0.9186
vn -0.1829 0.9830 0.0172
vn -0.3709 0.9287 -0.0047
vn -0.3452 0.9202 0.1846
vn -0.1592 0.9650 0.2086
vn -0.1919 -0.9517 -0.2398
vn -0.3775 -0.8946 -0.2391
vn -0.9155 -0.3741 -0.1479
vn -0.9750 -0.1930 -0.1098
vn 0.9751 -0.1927 -0.1097
vn 0.9157 -0.3736 -0.1477
vn 0.3764 -0.8951 -0.2391
vn 0.1913 -0.9518 -0.2397
vn 0.1950 0.9688 0.1530
vn 0.3818 0.9151 0.1299
vn 0.9245 0.3811 0.0062
vn 0.9809 0.1920 -0.0311
vn -0.9809 0.1918 -0.0311
vn -0.9247 0.3808 0.0061
vn -0.3813 0.9153 0.1300
vn -0.1948 0.9688 0.1530
vn -0.1927 -0.9601 -0.2025
vn -0.3791 -0.9026 -0.2039
vn -0.9175 -0.3749 -0.1330
vn -0.9758 -0.1933 -0.1018
vn 0.9758 -0.1933 -0.1018
vn 0.9175 -0.3749 -0.1330
vn 0.3791 -0.9026 -0.2039
vn 0.1927 -0.9601 -0.2025
vn 0.1955 0.9741 0.1138
vn 0.3826 0.9192 0.0931
vn 0.9245 0.3810 -0.0097
vn 0.9806 0.1919 -0.0389
vn -0.9806 0.1919 -0.0389
vn -0.9245 0.3810 -0.0097
vn -0.3826 0.9192 0.0931
vn -0.1955 0.9741 0.1138
vn -0.1938 -0.9672 -0.1644
vn -0.3812 -0.9091 -0.1678
vn -0.9190 -0.3761 -0.1181
vn -0.9765 -0.1940 -0.0940
vn 0.9765 -0.1940 -0.0940
vn 0.9190 -0.3761 -0.1181
vn 0.3812 -0.9091 -0.1678
vn 0.1938 -0.9672 -0.1644
vn 0.1959 0.9778 0.0741
vn 0.3834 0.9219 0.0558
vn 0.9241 0.3812 -0.0254
vn 0.9803 0.1919 -0.0466
vn -0.9803 0.1919 -0.0466
vn -0.9241 0.3812 -0.0254
vn -0.3834 0.9219 0.0558
vn -0.1959 0.9778 0.0741
vn -0.1947 -0.9728 -0.1255
vn -0.3829 -0.9145 -0.1311
vn -0.9204 -0.3772 -0.1030
vn -0.9771 -0.1946 -0.0860
vn 0.9771 -0.1946 -0.0860
vn 0.9204 -0.3772 -0.1030
vn 0.3829 -0.9145 -0.1311
vn 0.1947 -0.9728 -0.1255
vn 0.1961 0.9800 0.0340
vn 0.3837 0.9233 0.0182
vn 0.9235 0.3813 -0.0412
vn 0.9799 0.1919 -0.0544
vn -0.9799 0.1919 -0.0544
vn -0.9235 0.3813 -0.0412
vn -0.3837 0.9233 0.0182
vn -0.1961 0.9800 0.0340
vn -0.1954 -0.9769 -0.0861
vn -0.3842 -0.9185 -0.0938
vn -0.9216 -0.3781 -0.0879
vn -0.9777 -0.1951 -0.0780
vn 0.9777 -0.1951 -0.0780
vn 0.9216 -0.3781 -0.0879
vn 0.3842 -0.9185 -0.0938
vn 0.1954 -0.9769 -0.0861
vn 0.1960 0.9806 -0.0063
vn 0.3835 0.9233 -0.0195
vn 0.9227 0.3812 -0.0570
vn 0.9795 0.1919 -0.0621
vn -0.9795 0.1919 -0.0621
vn -0.9227 0.3812 -0.0570
vn -0.3835 0.9233 -0.0195
vn -0.1960 0.9806 -0.0063
vn -0.2031 -0.9792 -0.0000
vn -0.3857 -0.9226 -0.0000
vn -0.9251 -0.3796 -0.0000
vn -0.9801 -0.1984 -0.0000
vn 0.9801 -0.1984 -0.0000
vn 0.9251 -0.3796 -0.0000
vn 0.3857 -0.9226 -0.0000
vn 0.2031 -0.9792 -0.0000
vn 0.2029 0.9792 -0.0000
vn 0.3835 0.9235 -0.0000
vn 0.9242 0.3819 -0.0000
vn 0.9808 0.1948 -0.0000
vn -0.9808 0.1948 -0.0000
vn -0.9242 0.3819 -0.0000
vn -0.3835 0.9235 -0.0000
vn -0.2029 0.9792 -0.0000
vn -0.1954 -0.9769 0.0861
vn -0.3842 -0.9185 0.0938
vn -0.9216 -0.3781 0.0879
vn -0.9777 -0.1951 0.0780
vn 0.9777 -0.1951 0.0780
vn 0.9216 -0.3781 0.0879
vn 0.3842 -0.9185 0.0938
vn 0.1954 -0.9769 0.0861
vn 0.1960 0.9806 0.0063
vn 0.3835 0.9233 0.0195
vn 0.9227 0.3812 0.0570
vn 0.9795 0.1919 0.0621
vn -0.9795 0.1919 0.0621
vn -0.9227 0.3812 0.0570
vn -0.3835 0.9233 0.0195
vn -0.1960 0.9806 0.0063
vn -0.1947 -0.9728 0.1255
vn -0.3829 -0.9145 0.1311
vn -0.9204 -0.3772 0.1030
vn -0.9771 -0.1946 0.0860
vn 0.9771 -0.1946 0.0860
vn 0.9204 -0.3772 0.1030
vn 0.3829 -0.9145 0.1311
vn 0.1947 -0.9728 0.1255
vn 0.1961 0.9800 -0.0340
vn 0.3837 0.9233 -0.0182
vn 0.9235 0.3813 0.0412
vn 0.9799 0.1919 0.0544
vn -0.9799 0.1919 0.0544
vn -0.9235 0.3813 0.0412
vn -0.3837 0.9233 -0.0182
vn -0.1961 0.9800 -0.0340
vn -0.1938 -0.9672 0.1644
vn -0.3812 -0.9091 0.1678
vn -0.9190 -0.3761 0.1181
vn -0.9765 -0.1940 0.0940
vn 0.9765 -0.1940 0.0940
vn 0.9190 -0.3761 0.1181
vn 0.3812 -0.9091 0.1678
vn 0.1938 -0.9672 0.1644
vn 0.1959 0.9778 -0.0741
vn 0.3834 0.9219 -0.0558
vn 0.9241 0.3812 0.0254
vn 0.9803 0.1919 0.0466
vn -0.9803 0.1919 0.0466
vn -0.9241 0.3812 0.0254
vn -0.3834 0.9219 -0.0558
vn -0.1959 0.9778 -0.0741
vn -0.1927 -0.9601 0.2025
vn -0.3791 -0.9026 0.2039
vn -0.9175 -0.3749 0.1330
vn -0.9758 -0.1933 0.1018
vn 0.9758 -0.1933 0.1018
vn 0.9175 -0.3749 0.1330
vn 0.3791 -0.9026 0.2039
vn 0.1927 -0.9601 0.2025
vn 0.1955 0.9741 -0.1138
vn 0.3826 0.9192 -0.0931
vn 0.9245 0.3810 0.0097
vn 0.9806 0.1919 0.0389
vn -0.9806 0.1919 0.0389
vn -0.9245 0.3810 0.0097
vn -0.3826 0.9192 -0.0931
vn -0.1955 0.9741 -0.1138
vn -0.1913 -0.9518 0.2397
vn -0.3764 -0.8951 0.2391
vn -0.9157 -0.3736 0.1477
vn -0.9751 -0.1927 0.1097
vn 0.9750 -0.1930 0.1098
vn 0.9155 -0.3741 0.1479
vn 0.3775 -0.8946 0.2391
vn 0.1919 -0.9517 0.2398
vn 0.1948 0.9688 -0.1530
vn 0.3813 0.9153 -0.1300
vn 0.9247 0.3808 -0.0061
vn 0.9809 0.1918 0.0311
vn -0.9809 0.1920 0.0311
vn -0.9245 0.3811 -0.0062
vn -0.3818 0.9151 -0.1299
vn -0.1950 0.9688 -0.1530
vn 0.1501 0.0154 -0.9885
vn -0.0000 0.0074 -1.0000
vn -0.0000 0.0073 -1.0000
vn 0.1527 0.0156 -0.9881
vn -0.1501 0.0154 -0.9885
vn -0.1527 0.0156 -0.9881
vn -0.1501 0.0154 0.9885
vn -0.0000 0.0074 1.0000
vn -0.0000 0.0073 1.0000
vn -0.1527 0.0156 0.9881
vn 0.1501 0.0154 0.9885
vn 0.1527 0.0156 0.9881
vn 0.1556 0.0157 -0.9877
vn -0.1556 0.0157 -0.9877
vn -0.1556 0.0157 0.9877
vn 0.1556 0.0157 0.9877
vn -0.0000 0.0072 -1.0000
vn 0.1589 0.0159 -0.9872
vn -0.1589 0.0159 -0.9872
vn -0.0000 0.0072 1.0000
vn -0.1589 0.0159 0.9872
vn 0.1589 0.0159 0.9872
vn 0.1627 0.0162 -0.9865
vn -0.1627 0.0162 -0.9865
vn -0.1627 0.0162 0.9865
vn 0.1627 0.0162 0.9865
vn -0.0000 0.0071 -1.0000
vn 0.1671 0.0164 -0.9858
vn -0.1671 0.0164 -0.9858
vn -0.0000 0.0071 1.0000
vn -0.1671 0.0164 0.9858
vn 0.1671 0.0164 0.9858
vn 0.1722 0.0167 -0.9849
vn -0.1722 0.0167 -0.9849
vn -0.1722 0.0167 0.9849
vn 0.1722 0.0167 0.9849
vn -0.0000 0.0344 -0.9994
vn 0.1767 0.0480 -0.9831
vn -0.1767 0.0480 -0.9831
vn -0.0000 0.0344 0.9994
vn -0.1767 0.0480 0.9831
vn 0.1767 0.0480 0.9831
vn -0.0000 0.0499 -0.9988
vn 0.1689 0.0707 -0.9831
vn -0.1689 0.0707 -0.9831
vn -0.0000 0.0499 0.9988
vn -0.1689 0.0707 0.9831
vn 0.1689 0.0707 0.9831
vn -0.0000 0.0401 -0.9992
vn 0.1654 0.0644 -0.9841
vn -0.1654 0.0644 -0.9841
vn -0.0000 0.0401 0.9992
vn -0.1654 0.0644 0.9841
vn 0.1654 0.0644 0.9841
vn -0.0000 0.0447 -0.9990
vn 0.1656 0.0719 -0.9836
vn -0.1656 0.0719 -0.9836
vn -0.0000 0.0447 0.9990
vn -0.1656 0.0719 0.9836
vn 0.1656 0.0719 0.9836
vn -0.0000 0.0544 -0.9985
vn 0.1692 0.0907 -0.9814
vn -0.1692 0.0907 -0.9814
vn -0.0000 0.0544 0.9985
vn -0.1692 0.0907 0.9814
vn 0.1692 0.0907 0.9814
vn 0.5747 -0.2163 0.7892
vn 0.4349 -0.4024 0.8056
vn 0.5865 -0.4918 0.6435
vn 0.6969 -0.1876 0.6921
vn 0.1592 -0.9872 -0.0000
vn 0.2467 -0.9634 -0.1049
vn 0.2794 -0.9602 -0.0000
vn 0.2467 -0.9634 0.1049
vn 0.5747 -0.2163 -0.7892
vn 0.6969 -0.1876 -0.6921
vn 0.5866 -0.4918 -0.6435
vn 0.4349 -0.4024 -0.8056
vn -0.1592 -0.9872 -0.0000
vn -0.2467 -0.9634 0.1049
vn -0.2794 -0.9602 -0.0000
vn -0.2467 -0.9634 -0.1049
vn -0.5747 -0.2163 0.7892
vn -0.6969 -0.1876 0.6921
vn -0.5866 -0.4918 0.6435
vn -0.4349 -0.4024 0.8056
vn -0.5747 -0.2163 -0.7892
vn -0.4349 -0.4024 -0.8056
vn -0.5866 -0.4918 -0.6435
vn -0.6970 -0.1876 -0.6921
vn 0.7222 0.3688 0.5851
vn 0.9076 0.4199 -0.0000
vn 0.7201 0.6939 0.0001
vn 0.5713 0.7721 0.2784
vn 0.7221 0.3689 -0.5852
vn 0.5713 0.7721 -0.2783
vn 0.2269 0.9739 0.0001
vn -0.7222 0.3688 0.5852
vn -0.5713 0.7721 0.2783
vn -0.7201 0.6939 -0.0001
vn -0.9076 0.4199 -0.0000
vn -0.2270 0.9739 -0.0001
vn -0.5713 0.7721 -0.2784
vn -0.7222 0.3689 -0.5852
vn 0.5832 0.0339 -0.8116
vn 0.7337 0.0440 -0.6781
vn 0.7337 0.0440 0.6781
vn 0.5832 0.0339 0.8116
vn 0.0331 -0.9754 -0.2181
vn 0.0547 -0.9278 -0.3690
vn 0.1406 -0.3825 -0.9132
vn 0.1466 -0.1816 -0.9724
vn -0.0000 -0.9808 -0.1949
vn -0.0000 -0.9244 -0.3814
vn -0.0000 -0.3792 -0.9253
vn -0.0000 -0.1924 -0.9813
vn -0.0331 -0.9754 -0.2181
vn -0.0547 -0.9278 -0.3690
vn -0.1406 -0.3825 -0.9132
vn -0.1465 -0.1816 -0.9724
vn -0.5832 0.0339 0.8116
vn -0.7337 0.0440 0.6781
vn -0.7337 0.0440 -0.6781
vn -0.5832 0.0339 -0.8116
vn -0.0331 -0.9754 0.2181
vn -0.0547 -0.9278 0.3690
vn -0.1406 -0.3825 0.9132
vn -0.1466 -0.1816 0.9724
vn -0.0000 -0.9808 0.1949
vn -0.0000 -0.9244 0.3814
vn -0.0000 -0.3792 0.9253
vn -0.0000 -0.1924 0.9813
vn 0.0331 -0.9754 0.2181
vn 0.0547 -0.9278 0.3690
vn 0.1406 -0.3825 0.9132
vn 0.1465 -0.1816 0.9724
vn 0.5904 0.0343 -0.8064
vn 0.7405 0.0444 -0.6706
vn 0.7405 0.0444 0.6706
vn 0.5904 0.0343 0.8064
vn -0.5904 0.0343 0.8064
vn -0.7405 0.0444 0.6706
vn -0.7405 0.0444 -0.6706
vn -0.5904 0.0343 -0.8064
vn 0.5984 0.0347 -0.8004
vn 0.7481 0.0449 -0.6621
vn 0.7481 0.0449 0.6621
vn 0.5984 0.0347 0.8004
vn -0.5984 0.0347 0.8004
vn -0.7481 0.0449 0.6621
vn -0.7481 0.0449 -0.6621
vn -0.5984 0.0347 -0.8004
vn 0.6074 0.0351 -0.7936
vn 0.7564 0.0454 -0.6525
vn 0.7564 0.0454 0.6525
vn 0.6074 0.0351 0.7936
vn -0.6074 0.0351 0.7936
vn -0.7564 0.0454 0.6525
vn -0.7564 0.0454 -0.6525
vn -0.6074 0.0351 -0.7936
vn 0.6176 0.0356 -0.7857
vn 0.7656 0.0460 -0.6416
vn 0.7656 0.0460 0.6416
vn 0.6176 0.0356 0.7857
vn -0.6176 0.0356 0.7857
vn -0.7656 0.0460 0.6416
vn -0.7656 0.0460 -0.6416
vn -0.6176 0.0356 -0.7857
vn 0.6290 0.0362 -0.7765
vn 0.7759 0.0466 -0.6291
vn 0.7759 0.0466 0.6291
vn 0.6290 0.0362 0.7765
vn -0.6290 0.0362 0.7765
vn -0.7759 0.0466 0.6291
vn -0.7759 0.0466 -0.6291
vn -0.6290 0.0362 -0.7765
vn 0.6422 0.0369 -0.7657
vn 0.7874 0.0473 -0.6146
vn 0.7874 0.0473 0.6146
vn 0.6422 0.0369 0.7657
vn -0.6422 0.0369 0.7657
vn -0.7874 0.0473 0.6146
vn -0.7874 0.0473 -0.6146
vn -0.6422 0.0369 -0.7657
vn 0.6480 0.0751 -0.7579
vn 0.7882 0.0871 -0.6093
vn 0.7882 0.0871 0.6093
vn 0.6480 0.0751 0.7579
vn -0.6480 0.0751 0.7579
vn -0.7882 0.0871 0.6093
vn -0.7882 0.0871 -0.6093
vn -0.6480 0.0751 -0.7579
vn 0.6301 0.1116 -0.7684
vn 0.7740 0.1328 -0.6191
vn 0.7740 0.1328 0.6191
vn 0.6301 0.1116 0.7684
vn -0.6301 0.1116 0.7684
vn -0.7740 0.1328 0.6191
vn -0.7740 0.1328 -0.6191
vn -0.6301 0.1116 -0.7684
vn 0.6214 0.1151 -0.7750
vn 0.7655 0.1413 -0.6278
vn 0.7655 0.1413 0.6278
vn 0.6214 0.1151 0.7750
vn -0.6214 0.1151 0.7750
vn -0.7655 0.1413 0.6278
vn -0.7655 0.1413 -0.6278
vn -0.6214 0.1151 -0.7750
vn 0.6207 0.1283 -0.7735
vn 0.7636 0.1569 -0.6263
vn 0.7636 0.1569 0.6263
vn 0.6207 0.1283 0.7735
vn -0.6207 0.1283 0.7735
vn -0.7636 0.1569 0.6263
vn -0.7636 0.1569 -0.6263
vn -0.6207 0.1283 -0.7735
vn 0.6663 0.1768 -0.7244
vn 0.8144 0.2137 -0.5396
vn 0.8144 0.2137 0.5396
vn 0.6663 0.1768 0.7244
vn -0.6663 0.1768 0.7244
vn -0.8144 0.2137 0.5396
vn -0.8144 0.2137 -0.5396
vn -0.6663 0.1768 -0.7244
vn 0.1947 0.2985 -0.9343
vn 0.3923 0.8085 -0.4386
vn 0.0524 0.9775 -0.2043
vn -0.0000 0.2632 -0.9648
vn 0.0001 0.4423 -0.8969
vn -0.2969 0.4223 -0.8564
vn -0.0000 0.9350 -0.3548
vn -0.0000 0.9834 -0.1813
vn -0.1948 0.2985 -0.9343
vn 0.2971 0.4223 -0.8564
vn -0.3924 0.8085 -0.4385
vn -0.0524 0.9775 -0.2043
vn -0.1947 0.2985 0.9343
vn -0.3923 0.8085 0.4386
vn -0.0524 0.9775 0.2043
vn -0.0000 0.2632 0.9648
vn -0.0001 0.4423 0.8969
vn 0.2969 0.4223 0.8564
vn -0.0000 0.9350 0.3548
vn -0.0000 0.9834 0.1813
vn 0.1948 0.2985 0.9343
vn -0.2971 0.4223 0.8564
vn 0.3924 0.8085 0.4385
vn 0.0523 0.9775 0.2043
s 1
f 1//1 2//2 16//3 15//4
f 2//2 3//5 17//6 16//3
f 3//5 4//7 18//8 17//6
f 4//7 5//9 19//10 18//8
f 5//9 6//11 20//12 19//10
f 6//11 7//13 21//14 20//12
f 7//13 8//15 22//16 21//14
f 8//15 9//17 23//18 22//16
f 9//17 10//19 24//20 23//18
f 10//19 11//21 25//22 24//20
f 11//21 12//23 26//24 25//22
f 12//23 13//25 27//26 26//24
f 13//25 14//27 28//28 27//26
f 14//27 1//1 15//4 28//28
f 15//4 16//3 30//29 29//30
f 16//3 17//6 31//31 30//29
f 17//6 18//8 32//32 31//31
f 18//8 19//10 33//33 32//32
f 19//10 20//12 34//34 33//33
f 20//12 21//14 35//35 34//34
f 21//14 22//16 36//36 35//35
f 22//16 23//18 37//37 36//36
f 23//18 24//20 38//38 37//37
f 24//20 25//22 39//39 38//38
f 25//22 26//24 40//40 39//39
f 26//24 27//26 41//41 40//40
f 27//26 28//28 42//42 41//41
f 28//28 15//4 29//30 42//42
f 29//30 30//29 44//43 43//44
f 30//29 31//31 45//45 44//43
f 31//31 32//32 46//46 45//45
f 32//32 33//33 47//47 46//46
f 33//33 34//34 48//48 47//47
f 34//34 35//35 49//49 48//48
f 35//35 36//36 50//50 49//49
f 36//36 37//37 51//51 50//50
f 37//37 38//38 52//52 51//51
f 38//38 39//39 53//53 52//52
f 39//39 40//40 54//54 53//53
f 40//40 41//41 55//55 54//54
f 41//41 42//42 56//56 55//55
f 42//42 29//30 43//44 56//56
f 43//44 44//43 58//57 57//58
f 44//43 45//45 59//59 58//57
f 45//45 46//46 60//60 59//59
f 46//46 47//47 61//61 60//60
f 47//47 48//48 62//62 61//61
f 48//48 49//49 63//63 62//62
f 49//49 50//50 64//64 63//63
f 50//50 51//51 65//65 64//64
f 51//51 52//52 66//66 65//65
f 52//52 53//53 67//67 66//66
f 53//53 54//54 68//68 67//67
f 54//54 55//55 69//69 68//68
f 55//55 56//56 70//70 69//69
f 56//56 43//44 57//58 70//70
f 57//58 58//57 72//71 71//72
f 58//57 59//59 73//73 72//71
f 59//59 60//60 74//74 73//73
f 60//60 61//61 75//75 74//74
f 61//61 62//62 76//76 75//75
f 62//62 63//63 77//77 76//76
f 63//63 64//64 78//78 77//77
f 64//64 65//65 79//79 78//78
f 65//65 66//66 80//80 79//79
f 66//66 67//67 81//81 80//80
f 67//67 68//68 82//82 81//81
f 68//68 69//69 83//83 82//82
f 69//69 70//70 84//84 83//83
f 70//70 57//58 71//72 84//84
f 71//72 72//71 86//85 85//86
f 72//71 73//73 87//87 86//85
f 73//73 74//74 88//88 87//87
f 74//74 75//75 89//89 88//88
f 75//75 76//76 90//90 89//89
f 76//76 77//77 91//91 90//90
f 77//77 78//78 92//92 91//91
f 78//78 79//79 93//93 92//92
f 79//79 80//80 94//94 93//93
f 80//80 81//81 95//95 94//94
f 81//81 82//82 96//96 95//95
f 82//82 83//83 97//97 96//96
f 83//83 84//84 98//98 97//97
f 84//84 71//72 85//86 98//98
f 85//86 86//85 100//99 99//100
f 86//85 87//87 101//101 100//99
f 87//87 88//88 102//102 101//101
f 88//88 89//89 103//103 102//102
f 89//89 90//90 104//104 103//103
f 90//90 91//91 105//105 104//104
f 91//91 92//92 106//106 105//105
f 92//92 93//93 107//107 106//106
f 93//93 94//94 108//108 107//107
f 94//94 95//95 109//109 108//108
f 95//95 96//96 110//110 109//109
f 96//96 97//97 111//111 110//110
f 97//97 98//98 112//112 111//111
f 98//98 85//86 99//100 112//112
f 99//100 100//99 114//113 113//114
f 100//99 101//101 115//115 114//113
f 101//101 102//102 116//116 115//115
f 102//102 103//103 117//117 116//116
f 103//103 104//104 118//118 117//117
f 104//104 105//105 119//119 118//118
f 105//105 106//106 120//120 119//119
f 106//106 107//107 121//121 120//120
f 107//107 108//108 122//122 121//121
f 108//108 109//109 123//123 122//122
f 109//109 110//110 124//124 123//123
f 110//110 111//111 125//125 124//124
f 111//111 112//112 126//126 125//125
f 112//112 99//100 113//114 126//126
f 113//114 114//113 128//127 127//128
f 114//113 115//115 129//129 128//127
f 115//115 116//116 130//130 129//129
f 116//116 117//117 131//131 130//130
f 117//117 118//118 132//132 131//131
f 118//118 119//119 133//133 132//132
f 119//119 120//120 134//134 133//133
f 120//120 121//121 135//135 134//134
f 121//121 122//122 136//136 135//135
f 122//122 123//123 137//137 136//136
f 123//123 124//124 138//138 137//137
f 124//124 125//125 139//139 138//138
f 125//125 126//126 140//140 139//139
f 126//126 113//114 127//128 140//140
f 127//128 128//127 142//141 141//142
f 128//127 129//129 143//143 142//141
f 129//129 130//130 144//144 143//143
f 130//130 131//131 145//145 144//144
f 131//131 132//132 146//146 145//145
f 132//132 133//133 147//147 146//146
f 133//133 134//134 148//148 147//147
f 134//134 135//135 149//149 148//148
f 135//135 136//136 150//150 149//149
f 136//136 137//137 151//151 150//150
f 137//137 138//138 152//152 151//151
f 138//138 139//139 153//153 152//152
f 139//139 140//140 154//154 153//153
f 140//140 127//128 141//142 154//154
f 141//142 142//141 156//155 155//156
f 142//141 143//143 157//157 156//155
f 143//143 144//144 158//158 157//157
f 144//144 145//145 159//159 158//158
f 145//145 146//146 160//160 159//159
f 146//146 147//147 161//161 160//160
f 147//147 148//148 162//162 161//161
f 148//148 149//149 163//163 162//162
f 149//149 150//150 164//164 163//163
f 150//150 151//151 165//165 164//164
f 151//151 152//152 166//166 165//165
f 152//152 153//153 167//167 166//166
f 153//153 154//154 168//168 167//167
f 154//154 141//142 155//156 168//168
f 155//156 156//155 170//169 169//170
f 156//155 157//157 171//171 170//169
f 157//157 158//158 172//172 171//171
f 158//158 159//159 173//173 172//172
f 159//159 160//160 174//174 173//173
f 160//160 161//161 175//175 174//174
f 161//161 162//162 176//176 175//175
f 162//162 163//163 177//177 176//176
f 163//163 164//164 178//178 177//177
f 164//164 165//165 179//179 178//178
f 165//165 166//166 180//180 179//179
f 166//166 167//167 181//181 180//180
f 167//167 168//168 182//182 181//181
f 168//168 155//156 169//170 182//182
f 169//170 170//169 184//183 183//184
f 170//169 171//171 185//185 184//183
f 171//171 172//172 186//186 185//185
f 172//172 173//173 187//187 186//186
f 173//173 174//174 188//188 187//187
f 174//174 175//175 189//189 188//188
f 175//175 176//176 190//190 189//189
f 176//176 177//177 191//191 190//190
f 177//177 178//178 192//192 191//191
f 178//178 179//179 193//193 192//192
f 179//179 180//180 194//194 193//193
f 180//180 181//181 195//195 194//194
f 181//181 182//182 196//196 195//195
f 182//182 169//170 183//184 196//196
f 183//184 184//183 198//197 197//198
f 184//183 185//185 199//199 198//197
f 185//185 186//186 200//200 199//199
f 186//186 187//187 201//201 200//200
f 187//187 188//188 202//202 201//201
f 188//188 189//189 203//203 202//202
f 189//189 190//190 204//204 203//203
f 190//190 191//191 205//205 204//204
f 191//191 192//192 206//206 205//205
f 192//192 193//193 207//207 206//206
f 193//193 194//194 208//208 207//207
f 194//194 195//195 209//209 208//208
f 195//195 196//196 210//210 209//209
f 196//196 183//184 197//198 210//210
f 197//198 198//197 212//211 211//212
f 198//197 199//199 213//213 212//211
f 199//199 200//200 214//214 213//213
f 200//200 201//201 215//215 214//214
f 201//201 202//202 216//216 215//215
f 202//202 203//203 217//217 216//216
f 203//203 204//204 218//218 217//217
f 204//204 205//205 219//219 218//218
f 205//205 206//206 220//220 219//219
f 206//206 207//207 221//221 220//220
f 207//207 208//208 222//222 221//221
f 208//208 209//209 223//223 222//222
f 209//209 210//210 224//224 223//223
f 210//210 197//198 211//212 224//224
f 211//212 212//211 226//225 225//226
f 212//211 213//213 227//227 226//225
f 213//213 214//214 228//228 227//227
f 214//214 215//215 229//229 228//228
f 215//215 216//216 230//230 229//229
f 216//216 217//217 231//231 230//230
f 217//217 218//218 232//232 231//231
f 218//218 219//219 233//233 232//232
f 219//219 220//220 234//234 233//233
f 220//220 221//221 235//235 234//234
f 221//221 222//222 236//236 235//235
f 222//222 223//223 237//237 236//236
f 223//223 224//224 238//238 237//237
f 224//224 211//212 225//226 238//238
f 239//239 242//240 244//241 241//242
f 241//243 244//244 243//245 240//246
f 242//240 245//247 247//248 244//241
f 244//244 247//249 246//250 243//245
f 245//247 248//251 250//252 247//248
f 247//249 250//253 249//254 246//250
f 248//251 251//255 253//256 250//252
f 250//253 253//257 252//258 249//254
f 251//255 254//259 256//260 253//256
f 253//257 256//261 255//262 252//258
f 254//259 257//263 259//264 256//260
f 256//261 259//265 258//266 255//262
f 257//263 260//267 262//268 259//264
f 259//265 262//269 261//270 258//266
f 260//267 263//271 265//272 262//268
f 262//269 265//273 264//274 261//270
f 263//271 266//275 268//276 265//272
f 265//273 268//277 267//278 264//274
f 266//275 269//279 271//280 268//276
f 268//277 271//281 270//282 267//278
f 269//279 272//283 274//284 271//280
f 271//281 274//285 273//286 270//282
f 272//283 275//287 277//288 274//284
f 274//285 277//289 276//290 273//286
f 275//287 278//291 280//292 277//288
f 277//289 280//293 279//294 276//290
f 240//246 279//294 280//293 241//243
f 241//242 280//292 278//291 239//239
f 282//295 285//296 286//297 283//298
f 283//299 286//300 284//301 281//302
f 285//296 288//303 289//304 286//297
f 286//300 289//305 287//306 284//301
f 288//303 291//307 292//308 289//304
f 289//305 292//309 290//310 287//306
f 291//307 294//311 295//312 292//308
f 292//309 295//313 293//314 290//310
f 294//311 297//315 298//316 295//312
f 295//313 298//317 296//318 293//314
f 297//315 300//319 301//320 298//316
f 298//317 301//321 299//322 296//318
f 300//319 303//323 304//324 301//320
f 301//321 304//325 302//326 299//322
f 303//323 306//327 307//328 304//324
f 304//325 307//329 305//330 302//326
f 306//327 309//331 310//332 307//328
f 307//329 310//333 308//334 305//330
f 309//331 312//335 313//336 310//332
f 310//333 313//337 311//338 308//334
f 312//335 315//339 316//340 313//336
f 313//337 316//341 314//342 311//338
f 315//339 318//343 319//344 316//340
f 316//341 319//345 317//346 314//342
f 318//343 321//347 322//348 319//344
f 319//345 322//349 320//350 317//346
f 281//302 320//350 322//349 283//299
f 283//298 322//348 321//347 282//295
f 279//294 240//246 1//1 14//27
f 240//246 243//245 2//2 1//1
f 278//291 275//287 272//283 269//279 266//275 263//271 260//267 257//263 254//259 251//255 248//251 245//247 242//240 239//239
f 243//245 246//250 3//5 2//2
f 246//250 249//254 4//7 3//5
f 249//254 252//258 5//9 4//7
f 252//258 255//262 6//11 5//9
f 255//262 258//266 7//13 6//11
f 258//266 261//270 8//15 7//13
f 261//270 264//274 9//17 8//15
f 264//274 267//278 10//19 9//17
f 267//278 270//282 11//21 10//19
f 270//282 273//286 12//23 11//21
f 273//286 276//290 13//25 12//23
f 276//290 279//294 14//27 13//25
f 238//238 225//226 282//295 321//347
f 225//226 226//225 285//296 282//295
f 281//302 284//301 287//306 290//310 293//314 296//318 299//322 302//326 305//330 308//334 311//338 314//342 317//346 320//350
f 226//225 227//227 288//303 285//296
f 227//227 228//228 291//307 288//303
f 228//228 229//229 294//311 291//307
f 229//229 230//230 297//315 294//311
f 230//230 231//231 300//319 297//315
f 231//231 232//232 303//323 300//319
f 232//232 233//233 306//327 303//323
f 233//233 234//234 309//331 306//327
f 234//234 235//235 312//335 309//331
f 235//235 236//236 315//339 312//335
f 236//236 237//237 318//343 315//339
f 237//237 238//238 321//347 318//343
f 323//351 324//352 338//353 337//354
f 324//352 325//355 339//356 338//353
f 325//355 326//357 340//358 339//356
f 326//357 327//359 341//360 340//358
f 327//359 328//361 342//362 341//360
f 328//361 329//363 343//364 342//362
f 329//363 330//365 344//366 343//364
f 330//365 331//367 345//368 344//366
f 331//367 332//369 346//370 345//368
f 332//369 333//371 347//372 346//370
f 333//371 334//373 348//374 347//372
f 334//373 335//375 349//376 348//374
f 335//375 336//377 350//378 349//376
f 336//377 323//351 337//354 350//378
f 337//354 338//353 352//379 351//380
f 338//353 339//356 353//381 352//379
f 339//356 340//358 354//382 353//381
f 340//358 341//360 355//383 354//382
f 341//360 342//362 356//384 355//383
f 342//362 343//364 357//385 356//384
f 343//364 344//366 358//386 357//385
f 344//366 345//368 359//387 358//386
f 345//368 346//370 360//388 359//387
f 346//370 347//372 361//389 360//388
f 347//372 348//374 362//390 361//389
f 348//374 349//376 363//391 362//390
f 349//376 350//378 364//392 363//391
f 350//378 337//354 351//380 364//392
f 351//380 352//379 366//393 365//394
f 352//379 353//381 367//395 366//393
f 353//381 354//382 368//396 367//395
f 354//382 355//383 369//397 368//396
f 355//383 356//384 370//398 369//397
f 356//384 357//385 371//399 370//398
f 357//385 358//386 372//400 371//399
f 358//386 359//387 373//401 372//400
f 359//387 360//388 374//402 373//401
f 360//388 361//389 375//403 374//402
f 361//389 362//390 376//404 375//403
f 362//390 363//391 377//405 376//404
f 363//391 364//392 378//406 377//405
f 364//392 351//380 365//394 378//406
f 365//394 366//393 380//407 379//408
f 366//393 367//395 381//409 380//407
f 367//395 368//396 382//410 381//409
f 368//396 369//397 383//411 382//410
f 369//397 370//398 384//412 383//411
f 370//398 371//399 385//413 384//412
f 371//399 372//400 386//414 385//413
f 372//400 373//401 387//415 386//414
f 373//401 374//402 388//416 387//415
f 374//402 375//403 389//417 388//416
f 375//403 376//404 390//418 389//417
f 376//404 377//405 391//419 390//418
f 377//405 378//406 392//420 391//419
f 378//406 365//394 379//408 392//420
f 379//408 380//407 394//421 393//422
f 380//407 381//409 395//423 394//421
f 381//409 382//410 396//424 395//423
f 382//410 383//411 397//425 396//424
f 383//411 384//412 398//426 397//425
f 384//412 385//413 399//427 398//426
f 385//413 386//414 400//428 399//427
f 386//414 387//415 401//429 400//428
f 387//415 388//416 402//430 401//429
f 388//416 389//417 403//431 402//430
f 389//417 390//418 404//432 403//431
f 390//418 391//419 405//433 404//432
f 391//419 392//420 406//434 405//433
f 392//420 379//408 393//422 406//434
f 393//422 394//421 408//435 407//436
f 394//421 395//423 409//437 408//435
f 395//423 396//424 410//438 409//437
f 396//424 397//425 411//439 410//438
f 397//425 398//426 412//440 411//439
f 398//426 399//427 413//441 412//440
f 399//427 400//428 414//442 413//441
f 400//428 401//429 415//443 414//442
f 401//429 402//430 416//444 415//443
f 402//430 403//431 417//445 416//444
f 403//431 404//432 418//446 417//445
f 404//432 405//433 419//447 418//446
f 405//433 406//434 420//448 419//447
f 406//434 393//422 407//436 420//448
f 407//436 408//435 422//449 421//450
f 408//435 409//437 423//451 422//449
f 409//437 410//438 424//452 423//451
f 410//438 411//439 425//453 424//452
f 411//439 412//440 426//454 425//453
f 412//440 413//441 427//455 426//454
f 413//441 414//442 428//456 427//455
f 414//442 415//443 429//457 428//456
f 415//443 416//444 430//458 429//457
f 416//444 417//445 431//459 430//458
f 417//445 418//446 432//460 431//459
f 418//446 419//447 433//461 432//460
f 419//447 420//448 434//462 433//461
f 420//448 407//436 421//450 434//462
f 421//450 422//449 436//463 435//464
f 422//449 423//451 437//465 436//463
f 423//451 424//452 438//466 437//465
f 424//452 425//453 439//467 438//466
f 425//453 426//454 440//468 439//467
f 426//454 427//455 441//469 440//468
f 427//455 428//456 442//470 441//469
f 428//456 429//457 443//471 442//470
f 429//457 430//458 444//472 443//471
f 430//458 431//459 445//473 444//472
f 431//459 432//460 446//474 445//473
f 432//460 433//461 447//475 446//474
f 433//461 434//462 448//476 447//475
f 434//462 421//450 435//464 448//476
f 435//464 436//463 450//477 449//478
f 436//463 437//465 451//479 450//477
f 437//465 438//466 452//480 451//479
f 438//466 439//467 453//481 452//480
f 439//467 440//468 454//482 453//481
f 440//468 441//469 455//483 454//482
f 441//469 442//470 456//484 455//483
f 442//470 443//471 457//485 456//484
f 443//471 444//472 458//486 457//485
f 444//472 445//473 459//487 458//486
f 445//473 446//474 460//488 459//487
f 446//474 447//475 461//489 460//488
f 447//475 448//476 462//490 461//489
f 448//476 435//464 449//478 462//490
f 449//478 450//477 464//491 463//492
f 450//477 451//479 465//493 464//491
f 451//479 452//480 466//494 465//493
f 452//480 453//481 467//495 466//494
f 453//481 454//482 468//496 467//495
f 454//482 455//483 469//497 468//496
f 455//483 456//484 470//498 469//497
f 456//484 457//485 471//499 470//498
f 457//485 458//486 472//500 471//499
f 458//486 459//487 473//501 472//500
f 459//487 460//488 474//502 473//501
f 460//488 461//489 475//503 474//502
f 461//489 462//490 476//504 475//503
f 462//490 449//478 463//492 476//504
f 336//377 335//375 334//373 333//371 332//369 331//367 330//365 329//363 328//361 327//359 326//357 325//355 324//352 323//351
f 463//492 464//491 465//493 466//494 467//495 468//496 469//497 470//498 471//499 472//500 473//501 474//502 475//503 476//504
f 477//505 480//506 481//507 483//508
f 478//509 482//510 481//511 480//512
f 479//513 483//514 481//511 482//510
f 484//515 487//516 488//517 490//518
f 485//519 489//520 488//521 487//522
f 486//523 490//518 488//517 489//524
f 491//525 494//526 495//527 497//528
f 492//529 496//530 495//531 494//532
f 493//533 497//534 495//535 496//536
f 498//537 501//538 502//539 504//540
f 499//541 503//542 502//543 501//544
f 500//545 504//546 502//547 503//548
f 637//549 640//550 641//551 643//552
f 638//553 642//554 641//555 640//556
f 639//557 643//558 641//555 642//554
f 644//559 647//560 648//561 650//562
f 645//563 649//564 648//565 647//566
f 646//567 650//568 648//565 649//564
f 651//569 654//570 655//571 657//572
f 652//573 656//574 655//575 654//576
f 653//577 657//578 655//579 656//580
f 658//581 661//582 662//583 664//584
f 659//585 663//586 662//587 661//588
f 660//589 664//590 662//591 663//592
f 479//513 505//593 507//594 483//514
f 483//508 507//595 506//596 477//505
f 478//509 484//515 490//518 482//510
f 482//510 490//518 486//523 479//513
f 485//519 508//597 510//598 489//520
f 489//524 510//599 509//600 486//523
f 484//515 491//525 497//528 487//516
f 487//522 497//534 493//533 485//519
f 492//529 511//601 513//602 496//530
f 496//536 513//603 512//604 493//533
f 491//525 498//537 504//540 494//526
f 494//532 504//546 500//545 492//529
f 499//541 514//605 516//606 503//542
f 503//548 516//607 515//608 500//545
f 477//505 499//541 501//544 480//506
f 480//512 501//538 498//537 478//509
f 505//593 517//609 519//610 507//594
f 507//595 519//611 518//612 506//596
f 508//597 520//613 522//614 510//598
f 510//599 522//615 521//616 509//600
f 511//601 523//617 525//618 513//602
f 513//603 525//619 524//620 512//604
f 514//605 526//621 528//622 516//606
f 516//607 528//623 527//624 515//608
f 517//609 529//625 531//626 519//610
f 519//611 531//627 530//628 518//612
f 520//613 532//629 534//630 522//614
f 522//615 534//631 533//632 521//616
f 523//617 535//633 537//634 525//618
f 525//619 537//635 536//636 524//620
f 526//621 538//637 540//638 528//622
f 528//623 540//639 539//640 527//624
f 529//625 541//641 543//642 531//626
f 531//627 543//643 542//644 530//628
f 532//629 544//645 546//646 534//630
f 534//631 546//647 545//648 533//632
f 535//633 547//649 549//650 537//634
f 537//635 549//651 548//652 536//636
f 538//637 550//653 552//654 540//638
f 540//639 552//655 551//656 539//640
f 541//641 553//657 555//658 543//642
f 543//643 555//659 554//660 542//644
f 544//645 556//661 558//662 546//646
f 546//647 558//663 557//664 545//648
f 547//649 559//665 561//666 549//650
f 549//651 561//667 560//668 548//652
f 550//653 562//669 564//670 552//654
f 552//655 564//671 563//672 551//656
f 553//657 565//673 567//674 555//658
f 555//659 567//675 566//676 554//660
f 556//661 568//677 570//678 558//662
f 558//663 570//679 569//680 557//664
f 559//665 571//681 573//682 561//666
f 561//667 573//683 572//684 560//668
f 562//669 574//685 576//686 564//670
f 564//671 576//687 575//688 563//672
f 565//673 577//689 579//690 567//674
f 567//675 579//691 578//692 566//676
f 568//677 580//693 582//694 570//678
f 570//679 582//695 581//696 569//680
f 571//681 583//697 585//698 573//682
f 573//683 585//699 584//700 572//684
f 574//685 586//701 588//702 576//686
f 576//687 588//703 587//704 575//688
f 577//689 589//705 591//706 579//690
f 579//691 591//707 590//708 578//692
f 580//693 592//709 594//710 582//694
f 582//695 594//711 593//712 581//696
f 583//697 595//713 597//714 585//698
f 585//699 597//715 596//716 584//700
f 586//701 598//717 600//718 588//702
f 588//703 600//719 599//720 587//704
f 589//705 601//721 603//722 591//706
f 591//707 603//723 602//724 590//708
f 592//709 604//725 606//726 594//710
f 594//711 606//727 605//728 593//712
f 595//713 607//729 609//730 597//714
f 597//715 609//731 608//732 596//716
f 598//717 610//733 612//734 600//718
f 600//719 612//735 611//736 599//720
f 601//721 613//737 615//738 603//722
f 603//723 615//739 614//740 602//724
f 604//725 616//741 618//742 606//726
f 606//727 618//743 617//744 605//728
f 607//729 619//745 621//746 609//730
f 609//731 621//747 620//748 608//732
f 610//733 622//749 624//750 612//734
f 612//735 624//751 623//752 611//736
f 613//737 625//753 627//754 615//738
f 615//739 627//755 626//756 614//740
f 616//741 628//757 630//758 618//742
f 618//743 630//759 629//760 617//744
f 619//745 631//761 633//762 621//746
f 621//747 633//763 632//764 620//748
f 622//749 634//765 636//766 624//750
f 624//751 636//767 635//768 623//752
f 625//753 638//553 640//556 627//754
f 627//755 640//550 637//549 626//756
f 628//757 644//559 650//562 630//758
f 630//759 650//568 646//567 629//760
f 638//553 646//567 649//564 642//554
f 642//554 649//564 645//563 639//557
f 631//761 651//569 657//572 633//762
f 633//763 657//578 653//577 632//764
f 644//559 653//577 656//580 647//560
f 647//566 656//574 652//573 645//563
f 634//765 658//581 664//584 636//766
f 636//767 664//590 660//589 635//768
f 651//569 660//589 663//592 654//570
f 654//576 663//586 659//585 652//573
f 639//557 659//585 661//588 643//558
f 643//552 661//582 658//581 637//549
f 499//541 477//505 506//596 514//605
f 479//513 486//523 509//600 505//593
f 498//537 491//525 484//515 478//509
f 485//519 493//533 512//604 508//597
f 492//529 500//545 515//608 511//601
f 514//605 506//596 518//612 526//621
f 505//593 509//600 521//616 517//609
f 508//597 512//604 524//620 520//613
f 511//601 515//608 527//624 523//617
f 526//621 518//612 530//628 538//637
f 517//609 521//616 533//632 529//625
f 520//613 524//620 536//636 532//629
f 523//617 527//624 539//640 535//633
f 538//637 530//628 542//644 550//653
f 529//625 533//632 545//648 541//641
f 532//629 536//636 548//652 544//645
f 535//633 539//640 551//656 547//649
f 550//653 542//644 554//660 562//669
f 541//641 545//648 557//664 553//657
f 544//645 548//652 560//668 556//661
f 547//649 551//656 563//672 559//665
f 562//669 554//660 566//676 574//685
f 553//657 557//664 569//680 565//673
f 556//661 560//668 572//684 568//677
f 559//665 563//672 575//688 571//681
f 574//685 566//676 578//692 586//701
f 565//673 569//680 581//696 577//689
f 568//677 572//684 584//700 580//693
f 571//681 575//688 587//704 583//697
f 586//701 578//692 590//708 598//717
f 577//689 581//696 593//712 589//705
f 580//693 584//700 596//716 592//709
f 583//697 587//704 599//720 595//713
f 598//717 590//708 602//724 610//733
f 589//705 593//712 605//728 601//721
f 592//709 596//716 608//732 604//725
f 595//713 599//720 611//736 607//729
f 610//733 602//724 614//740 622//749
f 601//721 605//728 617//744 613//737
f 604//725 608//732 620//748 616//741
f 607//729 611//736 623//752 619//745
f 622//749 614//740 626//756 634//765
f 613//737 617//744 629//760 625//753
f 616//741 620//748 632//764 628//757
f 619//745 623//752 635//768 631//761
f 634//765 626//756 637//549 658//581
f 625//753 629//760 646//567 638//553
f 628//757 632//764 653//577 644//559
f 631//761 635//768 660//589 651//569
f 639//557 645//563 652//573 659//585
f 665//769 666//770 672//771 671//772
f 666//770 667//773 673//774 672//771
f 668//775 669//776 675//777 674//778
f 669//776 670//779 676//780 675//777
f 671//772 672//771 678//771 677//781
f 672//771 673//774 679//782 678//771
f 674//778 675//777 681//777 680//783
f 675//777 676//780 682//784 681//777
f 677//781 678//771 684//785 683//786
f 678//771 679//782 685//787 684//785
f 680//783 681//777 687//788 686//789
f 681//777 682//784 688//790 687//788
f 683//786 684//785 690//785 689//791
f 684//785 685//787 691//792 690//785
f 686//789 687//788 693//788 692//793
f 687//788 688//790 694//794 693//788
f 689//791 690//785 696//795 695//796
f 690//785 691//792 697//797 696//795
f 692//793 693//788 699//798 698//799
f 693//788 694//794 700//800 699//798
f 695//796 696//795 702//795 701//801
f 696//795 697//797 703//802 702//795
f 698//799 699//798 705//798 704//803
f 699//798 700//800 706//804 705//798
f 701//801 702//795 708//805 707//806
f 702//795 703//802 709//807 708//805
f 704//803 705//798 711//808 710//809
f 705//798 706//804 712//810 711//808
f 707//806 708//805 714//811 713//812
f 708//805 709//807 715//813 714//811
f 710//809 711//808 717//814 716//815
f 711//808 712//810 718//816 717//814
f 713//812 714//811 720//817 719//818
f 714//811 715//813 721//819 720//817
f 716//815 717//814 723//820 722//821
f 717//814 718//816 724//822 723//820
f 719//818 720//817 726//823 725//824
f 720//817 721//819 727//825 726//823
f 722//821 723//820 729//826 728//827
f 723//820 724//822 730//828 729//826
f 725//824 726//823 732//829 731//830
f 726//823 727//825 733//831 732//829
f 728//827 729//826 735//832 734//833
f 729//826 730//828 736//834 735//832
f 737//835 740//836 741//837 743//838
f 738//839 742//840 741//841 740//842
f 739//843 743//844 741//845 742//846
f 753//847 756//848 757//849 759//850
f 754//851 758//852 757//853 756//854
f 755//855 759//856 757//857 758//858
f 841//859 844//860 845//861 847//862
f 842//863 846//864 845//861 844//860
f 843//865 847//862 845//861 846//864
f 857//866 860//867 861//868 863//869
f 858//870 862//871 861//868 860//867
f 859//872 863//869 861//868 862//871
f 739//843 769//873 771//874 743//844
f 743//838 771//875 770//876 737//835
f 738//839 744//877 746//878 742//840
f 742//846 746//879 745//880 739//843
f 744//877 747//881 749//882 746//878
f 746//879 749//883 748//884 745//880
f 747//881 750//885 752//886 749//882
f 749//883 752//887 751//888 748//884
f 750//885 753//847 759//850 752//886
f 752//887 759//856 755//855 751//888
f 754//851 772//889 774//890 758//852
f 758//858 774//891 773//892 755//855
f 753//847 760//893 762//894 756//848
f 756//854 762//895 761//896 754//851
f 760//893 763//897 765//898 762//894
f 762//895 765//899 764//900 761//896
f 763//897 766//901 768//902 765//898
f 765//899 768//903 767//904 764//900
f 737//835 767//904 768//903 740//836
f 740//842 768//902 766//901 738//839
f 769//873 775//905 777//906 771//874
f 771//875 777//907 776//908 770//876
f 772//889 778//909 780//910 774//890
f 774//891 780//911 779//912 773//892
f 775//905 781//913 783//914 777//906
f 777//907 783//915 782//916 776//908
f 778//909 784//917 786//918 780//910
f 780//911 786//919 785//920 779//912
f 781//913 787//921 789//922 783//914
f 783//915 789//923 788//924 782//916
f 784//917 790//925 792//926 786//918
f 786//919 792//927 791//928 785//920
f 787//921 793//929 795//930 789//922
f 789//923 795//931 794//932 788//924
f 790//925 796//933 798//934 792//926
f 792//927 798//935 797//936 791//928
f 793//929 799//937 801//938 795//930
f 795//931 801//939 800//940 794//932
f 796//933 802//941 804//942 798//934
f 798//935 804//943 803//944 797//936
f 799//937 805//945 807//946 801//938
f 801//939 807//947 806//948 800//940
f 802//941 808//949 810//950 804//942
f 804//943 810//951 809//952 803//944
f 805//945 811//953 813//954 807//946
f 807//947 813//955 812//956 806//948
f 808//949 814//957 816//958 810//950
f 810//951 816//959 815//960 809//952
f 811//953 817//961 819//962 813//954
f 813//955 819//963 818//964 812//956
f 814//957 820//965 822//966 816//958
f 816//959 822//967 821//968 815//960
f 817//961 823//969 825//970 819//962
f 819//963 825//971 824//972 818//964
f 820//965 826//973 828//974 822//966
f 822//967 828//975 827//976 821//968
f 823//969 829//977 831//978 825//970
f 825//971 831//979 830//980 824//972
f 826//973 832//981 834//982 828//974
f 828//975 834//983 833//984 827//976
f 829//977 835//985 837//986 831//978
f 831//979 837//987 836//988 830//980
f 832//981 838//989 840//990 834//982
f 834//983 840//991 839//992 833//984
f 835//985 842//863 844//860 837//986
f 837//987 844//860 841//859 836//988
f 842//863 849//993 850//994 846//864
f 846//864 850//994 848//995 843//865
f 849//993 852//996 853//997 850//998
f 850//994 853//999 851//1000 848//995
f 852//996 855//1001 856//1002 853//997
f 853//999 856//1003 854//1004 851//1000
f 838//989 857//866 863//869 840//990
f 840//991 863//869 859//872 839//992
f 855//1001 859//872 862//871 856//1003
f 856//1003 862//871 858//870 854//1004
f 857//866 865//1005 866//1006 860//867
f 860//867 866//1006 864//1007 858//870
f 865//1005 868//1008 869//1009 866//1010
f 866//1006 869//1011 867//1012 864//1007
f 868//1008 871//1013 872//1014 869//1009
f 869//1011 872//1015 870//1016 867//1012
f 843//865 870//1016 872//1015 847//862
f 847//862 872//1015 871//1013 841//859
f 767//904 737//835 770//876 670//779
f 739//843 745//880 665//769 769//873
f 766//901 763//897 760//893 753//847 750//885 747//881 744//877 738//839
f 745//880 748//884 666//770 665//769
f 748//884 751//888 667//773 666//770
f 751//888 755//855 773//892 667//773
f 754//851 761//896 668//775 772//889
f 761//896 764//900 669//776 668//775
f 764//900 767//904 670//779 669//776
f 670//779 770//876 776//908 676//780
f 769//873 665//769 671//772 775//905
f 772//889 668//775 674//778 778//909
f 667//773 773//892 779//912 673//774
f 676//780 776//908 782//916 682//784
f 775//905 671//772 677//781 781//913
f 778//909 674//778 680//783 784//917
f 673//774 779//912 785//920 679//782
f 682//784 782//916 788//924 688//790
f 781//913 677//781 683//786 787//921
f 784//917 680//783 686//789 790//925
f 679//782 785//920 791//928 685//787
f 688//790 788//924 794//932 694//794
f 787//921 683//786 689//791 793//929
f 790//925 686//789 692//793 796//933
f 685//787 791//928 797//936 691//792
f 694//794 794//932 800//940 700//800
f 793//929 689//791 695//796 799//937
f 796//933 692//793 698//799 802//941
f 691//792 797//936 803//944 697//797
f 700//800 800//940 806//948 706//804
f 799//937 695//796 701//801 805//945
f 802//941 698//799 704//803 808//949
f 697//797 803//944 809//952 703//802
f 706//804 806//948 812//956 712//810
f 805//945 701//801 707//806 811//953
f 808//949 704//803 710//809 814//957
f 703//802 809//952 815//960 709//807
f 712//810 812//956 818//964 718//816
f 811//953 707//806 713//812 817//961
f 814//957 710//809 716//815 820//965
f 709//807 815//960 821//968 715//813
f 718//816 818//964 824//972 724//822
f 817//961 713//812 719//818 823//969
f 820//965 716//815 722//821 826//973
f 715//813 821//968 827//976 721//819
f 724//822 824//972 830//980 730//828
f 823//969 719//818 725//824 829//977
f 826//973 722//821 728//827 832//981
f 721//819 827//976 833//984 727//825
f 730//828 830//980 836//988 736//834
f 829//977 725//824 731//830 835//985
f 832//981 728//827 734//833 838//989
f 727//825 833//984 839//992 733//831
f 736//834 836//988 841//859 871//1013
f 835//985 731//830 849//993 842//863
f 838//989 734//833 865//1005 857//866
f 733//831 839//992 859//872 855//1001
f 843//865 848//995 851//1000 854//1004 858//870 864//1007 867//1012 870//1016
f 731//830 732//829 852//996 849//993
f 732//829 733//831 855//1001 852//996
f 734//833 735//832 868//1008 865//1005
f 735//832 736//834 871//1013 868//1008
