# Blender 5.2.0 LTS
# www.blender.org
o Musket
v -0.120000 0.320064 -0.054147
v -0.120000 0.297290 -0.125997
v -0.170000 0.276764 -0.079957
v -0.120000 0.321773 -0.094223
v -0.148868 0.313398 -0.091568
v -0.155355 0.291156 -0.112474
v -0.155355 0.307259 -0.061668
v -0.120000 -0.120000 -0.380000
v -0.170000 -0.135817 -0.331093
v -0.155355 -0.124633 -0.365676
v -0.120000 -0.880000 -0.440000
v -0.170000 -0.873817 -0.389356
v -0.155355 -0.878189 -0.425167
v -0.120000 -1.252566 -0.315811
v -0.120000 -1.288331 -0.251381
v -0.170000 -1.240677 -0.267070
v -0.120000 -1.282735 -0.290416
v -0.148868 -1.274974 -0.286108
v -0.155355 -1.274328 -0.255951
v -0.155355 -1.249038 -0.301510
v -0.120000 -1.191669 0.151381
v -0.120000 -1.130077 0.202773
v -0.170000 -1.140066 0.152141
v -0.120000 -1.169143 0.186989
v -0.148868 -1.163477 0.180198
v -0.155355 -1.132655 0.187527
v -0.155355 -1.176207 0.151187
v -0.120000 -0.460000 0.240000
v -0.170000 -0.462522 0.189783
v -0.155355 -0.460739 0.225292
v -0.120000 0.259936 0.084146
v -0.170000 0.205100 0.084871
v -0.120000 0.190606 0.137762
v -0.155355 0.242748 0.082901
v -0.148868 0.226400 0.112413
v -0.155355 0.193724 0.120813
v -0.120000 0.232499 0.120301
v 0.120000 0.320064 -0.054146
v 0.170000 0.276764 -0.079957
v 0.120000 0.297290 -0.125997
v 0.155355 0.307259 -0.061668
v 0.148868 0.313398 -0.091568
v 0.155355 0.291156 -0.112474
v 0.120000 0.321773 -0.094223
v 0.170000 -0.135817 -0.331093
v 0.120000 -0.120000 -0.380000
v 0.155355 -0.124633 -0.365676
v 0.170000 -0.873817 -0.389356
v 0.120000 -0.880000 -0.440000
v 0.155355 -0.878189 -0.425167
v 0.120000 -1.252566 -0.315811
v 0.170000 -1.240677 -0.267070
v 0.120000 -1.288331 -0.251381
v 0.155355 -1.249038 -0.301510
v 0.148868 -1.274974 -0.286108
v 0.155355 -1.274328 -0.255951
v 0.120000 -1.282735 -0.290416
v 0.120000 -1.191669 0.151381
v 0.170000 -1.140066 0.152141
v 0.120000 -1.130077 0.202774
v 0.155355 -1.176207 0.151187
v 0.148868 -1.163477 0.180198
v 0.155355 -1.132655 0.187527
v 0.120000 -1.169143 0.186989
v 0.170000 -0.462522 0.189783
v 0.120000 -0.460000 0.240000
v 0.155355 -0.460739 0.225292
v 0.120000 0.259936 0.084146
v 0.120000 0.190606 0.137762
v 0.170000 0.205100 0.084871
v 0.120000 0.232499 0.120301
v 0.148868 0.226400 0.112413
v 0.155355 0.193724 0.120813
v 0.155355 0.242748 0.082901
v 0.099000 0.950000 0.000000
v 0.085737 0.950000 -0.049500
v 0.049500 0.950000 -0.085737
v 0.000000 0.950000 -0.099000
v -0.049500 0.950000 -0.085737
v -0.085737 0.950000 -0.049500
v -0.099000 0.950000 -0.000000
v -0.085737 0.950000 0.049500
v -0.049500 0.950000 0.085737
v -0.000000 0.950000 0.099000
v 0.049500 0.950000 0.085737
v 0.085737 0.950000 0.049500
v 0.098000 1.300000 0.000000
v 0.084870 1.300000 -0.049000
v 0.049000 1.300000 -0.084870
v 0.000000 1.300000 -0.098000
v -0.049000 1.300000 -0.084870
v -0.084870 1.300000 -0.049000
v -0.098000 1.300000 -0.000000
v -0.084870 1.300000 0.049000
v -0.049000 1.300000 0.084870
v -0.000000 1.300000 0.098000
v 0.049000 1.300000 0.084870
v 0.084870 1.300000 0.049000
v 0.097000 1.650000 0.000000
v 0.084004 1.650000 -0.048500
v 0.048500 1.650000 -0.084004
v 0.000000 1.650000 -0.097000
v -0.048500 1.650000 -0.084004
v -0.084004 1.650000 -0.048500
v -0.097000 1.650000 -0.000000
v -0.084004 1.650000 0.048500
v -0.048500 1.650000 0.084004
v -0.000000 1.650000 0.097000
v 0.048500 1.650000 0.084004
v 0.084004 1.650000 0.048500
v 0.096000 2.000000 0.000000
v 0.083138 2.000000 -0.048000
v 0.048000 2.000000 -0.083138
v 0.000000 2.000000 -0.096000
v -0.048000 2.000000 -0.083138
v -0.083138 2.000000 -0.048000
v -0.096000 2.000000 -0.000000
v -0.083138 2.000000 0.048000
v -0.048000 2.000000 0.083138
v -0.000000 2.000000 0.096000
v 0.048000 2.000000 0.083138
v 0.083138 2.000000 0.048000
v 0.095000 2.350000 0.000000
v 0.082272 2.350000 -0.047500
v 0.047500 2.350000 -0.082272
v 0.000000 2.350000 -0.095000
v -0.047500 2.350000 -0.082272
v -0.082272 2.350000 -0.047500
v -0.095000 2.350000 -0.000000
v -0.082272 2.350000 0.047500
v -0.047500 2.350000 0.082272
v -0.000000 2.350000 0.095000
v 0.047500 2.350000 0.082272
v 0.082272 2.350000 0.047500
v 0.094000 2.700000 0.000000
v 0.081406 2.700000 -0.047000
v 0.047000 2.700000 -0.081406
v 0.000000 2.700000 -0.094000
v -0.047000 2.700000 -0.081406
v -0.081406 2.700000 -0.047000
v -0.094000 2.700000 -0.000000
v -0.081406 2.700000 0.047000
v -0.047000 2.700000 0.081406
v -0.000000 2.700000 0.094000
v 0.047000 2.700000 0.081406
v 0.081406 2.700000 0.047000
v 0.093000 3.050000 0.000000
v 0.080540 3.050000 -0.046500
v 0.046500 3.050000 -0.080540
v 0.000000 3.050000 -0.093000
v -0.046500 3.050000 -0.080540
v -0.080540 3.050000 -0.046500
v -0.093000 3.050000 -0.000000
v -0.080540 3.050000 0.046500
v -0.046500 3.050000 0.080540
v -0.000000 3.050000 0.093000
v 0.046500 3.050000 0.080540
v 0.080540 3.050000 0.046500
v 0.092000 3.400000 0.000000
v 0.079674 3.400000 -0.046000
v 0.046000 3.400000 -0.079674
v 0.000000 3.400000 -0.092000
v -0.046000 3.400000 -0.079674
v -0.079674 3.400000 -0.046000
v -0.092000 3.400000 -0.000000
v -0.079674 3.400000 0.046000
v -0.046000 3.400000 0.079674
v -0.000000 3.400000 0.092000
v 0.046000 3.400000 0.079674
v 0.079674 3.400000 0.046000
v 0.091000 3.750000 0.000000
v 0.078808 3.750000 -0.045500
v 0.045500 3.750000 -0.078808
v 0.000000 3.750000 -0.091000
v -0.045500 3.750000 -0.078808
v -0.078808 3.750000 -0.045500
v -0.091000 3.750000 -0.000000
v -0.078808 3.750000 0.045500
v -0.045500 3.750000 0.078808
v -0.000000 3.750000 0.091000
v 0.045500 3.750000 0.078808
v 0.078808 3.750000 0.045500
v 0.093788 0.600000 0.000000
v 0.099983 0.606000 0.000000
v 0.098176 0.601757 0.000000
v 0.081223 0.600000 -0.046894
v 0.086588 0.606000 -0.049991
v 0.085023 0.601757 -0.049088
v 0.046894 0.600000 -0.081223
v 0.049991 0.606000 -0.086588
v 0.049088 0.601757 -0.085023
v 0.000000 0.600000 -0.093788
v 0.000000 0.606000 -0.099983
v 0.000000 0.601757 -0.098176
v -0.046894 0.600000 -0.081223
v -0.049991 0.606000 -0.086588
v -0.049088 0.601757 -0.085023
v -0.081223 0.600000 -0.046894
v -0.086588 0.606000 -0.049991
v -0.085023 0.601757 -0.049088
v -0.093788 0.600000 0.000000
v -0.099983 0.606000 -0.000000
v -0.098176 0.601757 0.000000
v -0.081223 0.600000 0.046894
v -0.086588 0.606000 0.049991
v -0.085023 0.601757 0.049088
v -0.046894 0.600000 0.081223
v -0.049991 0.606000 0.086588
v -0.049088 0.601757 0.085023
v 0.000000 0.600000 0.093788
v -0.000000 0.606000 0.099983
v 0.000000 0.601757 0.098176
v 0.046894 0.600000 0.081223
v 0.049991 0.606000 0.086588
v 0.049088 0.601757 0.085023
v 0.081223 0.600000 0.046894
v 0.086588 0.606000 0.049991
v 0.085023 0.601757 0.049088
v 0.083788 4.100000 0.000000
v 0.090017 4.094000 0.000000
v 0.088186 4.098243 0.000000
v 0.072563 4.100000 -0.041894
v 0.077957 4.094000 -0.045009
v 0.076371 4.098243 -0.044093
v 0.041894 4.100000 -0.072563
v 0.045009 4.094000 -0.077957
v 0.044093 4.098243 -0.076371
v 0.000000 4.100000 -0.083788
v 0.000000 4.094000 -0.090017
v 0.000000 4.098243 -0.088186
v -0.041894 4.100000 -0.072563
v -0.045009 4.094000 -0.077957
v -0.044093 4.098243 -0.076371
v -0.072563 4.100000 -0.041894
v -0.077957 4.094000 -0.045009
v -0.076371 4.098243 -0.044093
v -0.083788 4.100000 0.000000
v -0.090017 4.094000 -0.000000
v -0.088186 4.098243 0.000000
v -0.072563 4.100000 0.041894
v -0.077957 4.094000 0.045009
v -0.076371 4.098243 0.044093
v -0.041894 4.100000 0.072563
v -0.045009 4.094000 0.077957
v -0.044093 4.098243 0.076371
v 0.000000 4.100000 0.083788
v -0.000000 4.094000 0.090017
v 0.000000 4.098243 0.088186
v 0.041894 4.100000 0.072563
v 0.045009 4.094000 0.077957
v 0.044093 4.098243 0.076371
v 0.072563 4.100000 0.041894
v 0.077957 4.094000 0.045009
v 0.076371 4.098243 0.044093
v -0.061100 0.400000 0.075200
v -0.061100 0.409000 0.080000
v -0.065000 0.409000 0.075200
v -0.061100 0.402636 0.078594
v -0.063352 0.403804 0.077971
v -0.063858 0.409000 0.078594
v -0.063858 0.402636 0.075200
v -0.061100 0.691000 0.080000
v -0.061100 0.700000 0.075200
v -0.065000 0.691000 0.075200
v -0.061100 0.697364 0.078594
v -0.063352 0.696196 0.077971
v -0.063858 0.697364 0.075200
v -0.063858 0.691000 0.078594
v -0.061100 0.400000 -0.075200
v -0.065000 0.409000 -0.075200
v -0.061100 0.409000 -0.080000
v -0.063858 0.402636 -0.075200
v -0.063352 0.403804 -0.077971
v -0.063858 0.409000 -0.078594
v -0.061100 0.402636 -0.078594
v -0.061100 0.700000 -0.075200
v -0.061100 0.691000 -0.080000
v -0.065000 0.691000 -0.075200
v -0.061100 0.697364 -0.078594
v -0.063352 0.696196 -0.077971
v -0.063858 0.691000 -0.078594
v -0.063858 0.697364 -0.075200
v 0.061100 0.400000 0.075200
v 0.065000 0.409000 0.075200
v 0.061100 0.409000 0.080000
v 0.063858 0.402636 0.075200
v 0.063352 0.403804 0.077971
v 0.063858 0.409000 0.078594
v 0.061100 0.402636 0.078594
v 0.061100 0.700000 0.075200
v 0.061100 0.691000 0.080000
v 0.065000 0.691000 0.075200
v 0.061100 0.697364 0.078594
v 0.063352 0.696196 0.077971
v 0.063858 0.691000 0.078594
v 0.063858 0.697364 0.075200
v 0.061100 0.400000 -0.075200
v 0.061100 0.409000 -0.080000
v 0.065000 0.409000 -0.075200
v 0.061100 0.402636 -0.078594
v 0.063352 0.403804 -0.077971
v 0.063858 0.409000 -0.078594
v 0.063858 0.402636 -0.075200
v 0.061100 0.700000 -0.075200
v 0.065000 0.691000 -0.075200
v 0.061100 0.691000 -0.080000
v 0.063858 0.697364 -0.075200
v 0.063352 0.696196 -0.077971
v 0.063858 0.691000 -0.078594
v 0.061100 0.697364 -0.078594
v -0.061100 2.150000 0.061100
v -0.061100 2.153000 0.065000
v -0.065000 2.153000 0.061100
v -0.061100 2.150879 0.063858
v -0.063352 2.151268 0.063352
v -0.063858 2.153000 0.063858
v -0.063858 2.150879 0.061100
v -0.061100 2.247000 0.065000
v -0.061100 2.250000 0.061100
v -0.065000 2.247000 0.061100
v -0.061100 2.249121 0.063858
v -0.063352 2.248732 0.063352
v -0.063858 2.249121 0.061100
v -0.063858 2.247000 0.063858
v -0.061100 2.150000 -0.061100
v -0.065000 2.153000 -0.061100
v -0.061100 2.153000 -0.065000
v -0.063858 2.150879 -0.061100
v -0.063352 2.151268 -0.063352
v -0.063858 2.153000 -0.063858
v -0.061100 2.150879 -0.063858
v -0.061100 2.250000 -0.061100
v -0.061100 2.247000 -0.065000
v -0.065000 2.247000 -0.061100
v -0.061100 2.249121 -0.063858
v -0.063352 2.248732 -0.063352
v -0.063858 2.247000 -0.063858
v -0.063858 2.249121 -0.061100
v 0.061100 2.150000 0.061100
v 0.065000 2.153000 0.061100
v 0.061100 2.153000 0.065000
v 0.063858 2.150879 0.061100
v 0.063352 2.151268 0.063352
v 0.063858 2.153000 0.063858
v 0.061100 2.150879 0.063858
v 0.061100 2.250000 0.061100
v 0.061100 2.247000 0.065000
v 0.065000 2.247000 0.061100
v 0.061100 2.249121 0.063858
v 0.063352 2.248732 0.063352
v 0.063858 2.247000 0.063858
v 0.063858 2.249121 0.061100
v 0.061100 2.150000 -0.061100
v 0.061100 2.153000 -0.065000
v 0.065000 2.153000 -0.061100
v 0.061100 2.150879 -0.063858
v 0.063352 2.151268 -0.063352
v 0.063858 2.153000 -0.063858
v 0.063858 2.150879 -0.061100
v 0.061100 2.250000 -0.061100
v 0.065000 2.247000 -0.061100
v 0.061100 2.247000 -0.065000
v 0.063858 2.249121 -0.061100
v 0.063352 2.248732 -0.063352
v 0.063858 2.247000 -0.063858
v 0.061100 2.249121 -0.063858
v 0.130000 4.220000 0.000000
v 0.112583 4.220000 -0.065000
v 0.065000 4.220000 -0.112583
v 0.000000 4.220000 -0.130000
v -0.065000 4.220000 -0.112583
v -0.112583 4.220000 -0.065000
v -0.130000 4.220000 -0.000000
v -0.112583 4.220000 0.065000
v -0.065000 4.220000 0.112583
v -0.000000 4.220000 0.130000
v 0.065000 4.220000 0.112583
v 0.112583 4.220000 0.065000
v 0.099647 4.050000 0.000000
v 0.111169 4.059936 0.000000
v 0.107310 4.052910 0.000000
v 0.086297 4.050000 -0.049824
v 0.096275 4.059936 -0.055584
v 0.092933 4.052910 -0.053655
v 0.049824 4.050000 -0.086297
v 0.055584 4.059936 -0.096275
v 0.053655 4.052910 -0.092933
v 0.000000 4.050000 -0.099647
v 0.000000 4.059936 -0.111169
v 0.000000 4.052910 -0.107310
v -0.049824 4.050000 -0.086297
v -0.055584 4.059936 -0.096275
v -0.053655 4.052910 -0.092933
v -0.086297 4.050000 -0.049824
v -0.096275 4.059936 -0.055584
v -0.092933 4.052910 -0.053655
v -0.099647 4.050000 0.000000
v -0.111169 4.059936 -0.000000
v -0.107310 4.052910 -0.000000
v -0.086297 4.050000 0.049824
v -0.096275 4.059936 0.055584
v -0.092933 4.052910 0.053655
v -0.049824 4.050000 0.086297
v -0.055584 4.059936 0.096275
v -0.053655 4.052910 0.092933
v 0.000000 4.050000 0.099647
v -0.000000 4.059936 0.111169
v -0.000000 4.052910 0.107310
v 0.049824 4.050000 0.086297
v 0.055584 4.059936 0.096275
v 0.053655 4.052910 0.092933
v 0.086297 4.050000 0.049824
v 0.096275 4.059936 0.055584
v 0.092933 4.052910 0.053655
v 0.109647 4.300000 0.000000
v 0.121241 4.290072 0.000000
v 0.117331 4.297092 0.000000
v 0.094957 4.300000 -0.054824
v 0.104998 4.290072 -0.060620
v 0.101612 4.297092 -0.058666
v 0.054824 4.300000 -0.094957
v 0.060620 4.290072 -0.104998
v 0.058666 4.297092 -0.101612
v 0.000000 4.300000 -0.109647
v 0.000000 4.290072 -0.121241
v 0.000000 4.297092 -0.117331
v -0.054824 4.300000 -0.094957
v -0.060620 4.290072 -0.104998
v -0.058666 4.297092 -0.101612
v -0.094957 4.300000 -0.054824
v -0.104998 4.290072 -0.060620
v -0.101612 4.297092 -0.058666
v -0.109647 4.300000 -0.000000
v -0.121241 4.290072 -0.000000
v -0.117331 4.297092 -0.000000
v -0.094957 4.300000 0.054824
v -0.104998 4.290072 0.060620
v -0.101612 4.297092 0.058666
v -0.054824 4.300000 0.094957
v -0.060620 4.290072 0.104998
v -0.058666 4.297092 0.101612
v -0.000000 4.300000 0.109647
v -0.000000 4.290072 0.121241
v -0.000000 4.297092 0.117331
v 0.054824 4.300000 0.094957
v 0.060620 4.290072 0.104998
v 0.058666 4.297092 0.101612
v 0.094957 4.300000 0.054824
v 0.104998 4.290072 0.060620
v 0.101612 4.297092 0.058666
v 0.030000 1.160000 0.000000
v 0.025981 1.160000 -0.015000
v 0.015000 1.160000 -0.025981
v 0.000000 1.160000 -0.030000
v -0.015000 1.160000 -0.025981
v -0.025981 1.160000 -0.015000
v -0.030000 1.160000 -0.000000
v -0.025981 1.160000 0.015000
v -0.015000 1.160000 0.025981
v -0.000000 1.160000 0.030000
v 0.015000 1.160000 0.025981
v 0.025981 1.160000 0.015000
v 0.030000 1.420000 0.000000
v 0.025981 1.420000 -0.015000
v 0.015000 1.420000 -0.025981
v 0.000000 1.420000 -0.030000
v -0.015000 1.420000 -0.025981
v -0.025981 1.420000 -0.015000
v -0.030000 1.420000 -0.000000
v -0.025981 1.420000 0.015000
v -0.015000 1.420000 0.025981
v -0.000000 1.420000 0.030000
v 0.015000 1.420000 0.025981
v 0.025981 1.420000 0.015000
v 0.030000 1.680000 0.000000
v 0.025981 1.680000 -0.015000
v 0.015000 1.680000 -0.025981
v 0.000000 1.680000 -0.030000
v -0.015000 1.680000 -0.025981
v -0.025981 1.680000 -0.015000
v -0.030000 1.680000 -0.000000
v -0.025981 1.680000 0.015000
v -0.015000 1.680000 0.025981
v -0.000000 1.680000 0.030000
v 0.015000 1.680000 0.025981
v 0.025981 1.680000 0.015000
v 0.030000 1.940000 0.000000
v 0.025981 1.940000 -0.015000
v 0.015000 1.940000 -0.025981
v 0.000000 1.940000 -0.030000
v -0.015000 1.940000 -0.025981
v -0.025981 1.940000 -0.015000
v -0.030000 1.940000 -0.000000
v -0.025981 1.940000 0.015000
v -0.015000 1.940000 0.025981
v -0.000000 1.940000 0.030000
v 0.015000 1.940000 0.025981
v 0.025981 1.940000 0.015000
v 0.030000 2.200000 0.000000
v 0.025981 2.200000 -0.015000
v 0.015000 2.200000 -0.025981
v 0.000000 2.200000 -0.030000
v -0.015000 2.200000 -0.025981
v -0.025981 2.200000 -0.015000
v -0.030000 2.200000 -0.000000
v -0.025981 2.200000 0.015000
v -0.015000 2.200000 0.025981
v -0.000000 2.200000 0.030000
v 0.015000 2.200000 0.025981
v 0.025981 2.200000 0.015000
v 0.030000 2.460000 0.000000
v 0.025981 2.460000 -0.015000
v 0.015000 2.460000 -0.025981
v 0.000000 2.460000 -0.030000
v -0.015000 2.460000 -0.025981
v -0.025981 2.460000 -0.015000
v -0.030000 2.460000 -0.000000
v -0.025981 2.460000 0.015000
v -0.015000 2.460000 0.025981
v -0.000000 2.460000 0.030000
v 0.015000 2.460000 0.025981
v 0.025981 2.460000 0.015000
v 0.030000 2.720000 0.000000
v 0.025981 2.720000 -0.015000
v 0.015000 2.720000 -0.025981
v 0.000000 2.720000 -0.030000
v -0.015000 2.720000 -0.025981
v -0.025981 2.720000 -0.015000
v -0.030000 2.720000 -0.000000
v -0.025981 2.720000 0.015000
v -0.015000 2.720000 0.025981
v -0.000000 2.720000 0.030000
v 0.015000 2.720000 0.025981
v 0.025981 2.720000 0.015000
v 0.030000 2.980000 0.000000
v 0.025981 2.980000 -0.015000
v 0.015000 2.980000 -0.025981
v 0.000000 2.980000 -0.030000
v -0.015000 2.980000 -0.025981
v -0.025981 2.980000 -0.015000
v -0.030000 2.980000 -0.000000
v -0.025981 2.980000 0.015000
v -0.015000 2.980000 0.025981
v -0.000000 2.980000 0.030000
v 0.015000 2.980000 0.025981
v 0.025981 2.980000 0.015000
v 0.030000 3.240000 0.000000
v 0.025981 3.240000 -0.015000
v 0.015000 3.240000 -0.025981
v 0.000000 3.240000 -0.030000
v -0.015000 3.240000 -0.025981
v -0.025981 3.240000 -0.015000
v -0.030000 3.240000 -0.000000
v -0.025981 3.240000 0.015000
v -0.015000 3.240000 0.025981
v -0.000000 3.240000 0.030000
v 0.015000 3.240000 0.025981
v 0.025981 3.240000 0.015000
v 0.023788 0.900000 0.000000
v 0.030000 0.906000 0.000000
v 0.028181 0.901757 0.000000
v 0.020601 0.900000 -0.011894
v 0.025981 0.906000 -0.015000
v 0.024405 0.901757 -0.014090
v 0.011894 0.900000 -0.020601
v 0.015000 0.906000 -0.025981
v 0.014090 0.901757 -0.024405
v 0.000000 0.900000 -0.023788
v 0.000000 0.906000 -0.030000
v 0.000000 0.901757 -0.028181
v -0.011894 0.900000 -0.020601
v -0.015000 0.906000 -0.025981
v -0.014090 0.901757 -0.024405
v -0.020601 0.900000 -0.011894
v -0.025981 0.906000 -0.015000
v -0.024405 0.901757 -0.014090
v -0.023788 0.900000 0.000000
v -0.030000 0.906000 -0.000000
v -0.028181 0.901757 0.000000
v -0.020601 0.900000 0.011894
v -0.025981 0.906000 0.015000
v -0.024405 0.901757 0.014090
v -0.011894 0.900000 0.020601
v -0.015000 0.906000 0.025981
v -0.014090 0.901757 0.024405
v 0.000000 0.900000 0.023788
v -0.000000 0.906000 0.030000
v 0.000000 0.901757 0.028181
v 0.011894 0.900000 0.020601
v 0.015000 0.906000 0.025981
v 0.014090 0.901757 0.024405
v 0.020601 0.900000 0.011894
v 0.025981 0.906000 0.015000
v 0.024405 0.901757 0.014090
v 0.023788 3.500000 0.000000
v 0.030000 3.494000 0.000000
v 0.028181 3.498243 0.000000
v 0.020601 3.500000 -0.011894
v 0.025981 3.494000 -0.015000
v 0.024405 3.498243 -0.014090
v 0.011894 3.500000 -0.020601
v 0.015000 3.494000 -0.025981
v 0.014090 3.498243 -0.024405
v 0.000000 3.500000 -0.023788
v 0.000000 3.494000 -0.030000
v 0.000000 3.498243 -0.028181
v -0.011894 3.500000 -0.020601
v -0.015000 3.494000 -0.025981
v -0.014090 3.498243 -0.024405
v -0.020601 3.500000 -0.011894
v -0.025981 3.494000 -0.015000
v -0.024405 3.498243 -0.014090
v -0.023788 3.500000 0.000000
v -0.030000 3.494000 -0.000000
v -0.028181 3.498243 0.000000
v -0.020601 3.500000 0.011894
v -0.025981 3.494000 0.015000
v -0.024405 3.498243 0.014090
v -0.011894 3.500000 0.020601
v -0.015000 3.494000 0.025981
v -0.014090 3.498243 0.024405
v 0.000000 3.500000 0.023788
v -0.000000 3.494000 0.030000
v 0.000000 3.498243 0.028181
v 0.011894 3.500000 0.020601
v 0.015000 3.494000 0.025981
v 0.014090 3.498243 0.024405
v 0.020601 3.500000 0.011894
v 0.025981 3.494000 0.015000
v 0.024405 3.498243 0.014090
vn -0.1832 0.9546 0.2349
vn -0.1556 0.9860 0.0598
vn -0.3175 0.9452 0.0766
vn -0.3645 0.9030 0.2272
vn -0.1782 0.6463 -0.7420
vn -0.3553 0.6110 -0.7074
vn -0.3175 0.7285 -0.6070
vn -0.1556 0.7715 -0.6169
vn -0.9638 0.2545 -0.0790
vn -0.9126 0.4083 0.0229
vn -0.8763 0.4593 -0.1456
vn -0.9143 0.3187 -0.2499
vn -0.1783 -0.4692 -0.8649
vn -0.1561 -0.6220 -0.7673
vn -0.3191 -0.5812 -0.7486
vn -0.3563 -0.4398 -0.8244
vn -0.1797 -0.9819 0.0593
vn -0.3589 -0.9313 0.0627
vn -0.3191 -0.9427 -0.0974
vn -0.1561 -0.9802 -0.1220
vn -0.9652 -0.2289 -0.1266
vn -0.9161 -0.2586 -0.3065
vn -0.8804 -0.4147 -0.2302
vn -0.9156 -0.3980 -0.0570
vn -0.1805 -0.9113 0.3700
vn -0.1665 -0.6317 0.7571
vn -0.3389 -0.6028 0.7224
vn -0.3574 -0.8647 0.3530
vn -0.1804 -0.2008 0.9629
vn -0.3572 -0.1923 0.9140
vn -0.9615 -0.1760 0.2109
vn -0.9098 -0.3564 0.2127
vn -0.8657 -0.3207 0.3844
vn -0.9098 -0.1454 0.3886
vn -0.1921 0.8526 0.4860
vn -0.3779 0.8018 0.4630
vn -0.3671 0.5690 0.7358
vn -0.1814 0.6016 0.7779
vn -0.9592 0.1728 0.2237
vn -0.9042 0.1554 0.3979
vn -0.8549 0.3174 0.4104
vn -0.9040 0.3460 0.2512
vn -0.1918 0.2550 0.9477
vn -0.3775 0.2448 0.8931
vn 0.1832 0.9546 0.2349
vn 0.3646 0.9030 0.2272
vn 0.3175 0.9452 0.0766
vn 0.1556 0.9860 0.0598
vn 0.9638 0.2545 -0.0790
vn 0.9143 0.3187 -0.2499
vn 0.8763 0.4593 -0.1456
vn 0.9126 0.4083 0.0229
vn 0.1782 0.6463 -0.7420
vn 0.1556 0.7715 -0.6169
vn 0.3175 0.7285 -0.6070
vn 0.3553 0.6110 -0.7074
vn 0.1783 -0.4692 -0.8649
vn 0.3563 -0.4398 -0.8244
vn 0.3191 -0.5812 -0.7486
vn 0.1561 -0.6220 -0.7673
vn 0.9652 -0.2289 -0.1266
vn 0.9156 -0.3980 -0.0570
vn 0.8804 -0.4147 -0.2302
vn 0.9161 -0.2586 -0.3065
vn 0.1797 -0.9819 0.0593
vn 0.1561 -0.9802 -0.1220
vn 0.3191 -0.9427 -0.0974
vn 0.3589 -0.9313 0.0627
vn 0.1805 -0.9113 0.3700
vn 0.3574 -0.8647 0.3530
vn 0.3389 -0.6028 0.7224
vn 0.1665 -0.6317 0.7571
vn 0.9615 -0.1760 0.2109
vn 0.9098 -0.1454 0.3886
vn 0.8657 -0.3207 0.3844
vn 0.9098 -0.3564 0.2127
vn 0.1804 -0.2008 0.9629
vn 0.3572 -0.1923 0.9140
vn 0.1921 0.8526 0.4860
vn 0.1814 0.6016 0.7779
vn 0.3671 0.5690 0.7358
vn 0.3779 0.8018 0.4630
vn 0.1918 0.2550 0.9477
vn 0.3775 0.2448 0.8931
vn 0.9592 0.1728 0.2237
vn 0.9040 0.3460 0.2512
vn 0.8549 0.3174 0.4104
vn 0.9042 0.1554 0.3979
vn -0.1947 0.3018 -0.9333
vn -0.3923 0.2830 -0.8752
vn -0.9275 0.1151 -0.3558
vn -0.9761 0.0670 -0.2069
vn -0.1940 -0.1189 -0.9738
vn -0.3895 -0.1116 -0.9142
vn -0.9265 -0.0456 -0.3734
vn -0.9766 -0.0261 -0.2134
vn -0.1995 0.0492 0.9787
vn -0.3958 0.0462 0.9172
vn -0.9226 0.0198 0.3852
vn -0.9778 0.0108 0.2091
vn 0.9761 0.0670 -0.2069
vn 0.9275 0.1151 -0.3558
vn 0.3923 0.2830 -0.8752
vn 0.1947 0.3018 -0.9333
vn 0.9766 -0.0261 -0.2134
vn 0.9265 -0.0456 -0.3734
vn 0.3895 -0.1116 -0.9142
vn 0.1940 -0.1189 -0.9738
vn 0.9778 0.0108 0.2091
vn 0.9226 0.0198 0.3852
vn 0.3958 0.0462 0.9172
vn 0.1995 0.0492 0.9787
vn 1.0000 0.0029 -0.0000
vn 0.8660 0.0029 -0.5000
vn 0.5000 0.0029 -0.8660
vn -0.0000 0.0029 -1.0000
vn -0.5000 0.0029 -0.8660
vn -0.8660 0.0029 -0.5000
vn -1.0000 0.0029 -0.0000
vn -0.8660 0.0029 0.5000
vn -0.5000 0.0029 0.8660
vn -0.0000 0.0029 1.0000
vn 0.5000 0.0029 0.8660
vn 0.8660 0.0029 0.5000
vn 0.2194 -0.9756 -0.0000
vn 0.1900 -0.9756 -0.1097
vn 0.3220 -0.9283 -0.1859
vn 0.3719 -0.9283 -0.0000
vn 0.9200 -0.3919 -0.0000
vn 0.7967 -0.3919 -0.4600
vn 0.8498 -0.1924 -0.4907
vn 0.9813 -0.1924 -0.0000
vn 0.1097 -0.9756 -0.1900
vn 0.1859 -0.9283 -0.3220
vn 0.4600 -0.3919 -0.7967
vn 0.4907 -0.1924 -0.8498
vn -0.0000 -0.9756 -0.2194
vn -0.0000 -0.9283 -0.3719
vn -0.0000 -0.3919 -0.9200
vn -0.0000 -0.1924 -0.9813
vn -0.1097 -0.9756 -0.1900
vn -0.1859 -0.9283 -0.3220
vn -0.4600 -0.3919 -0.7967
vn -0.4907 -0.1924 -0.8498
vn -0.1900 -0.9756 -0.1097
vn -0.3220 -0.9283 -0.1859
vn -0.7967 -0.3919 -0.4600
vn -0.8498 -0.1924 -0.4907
vn -0.2194 -0.9756 -0.0000
vn -0.3719 -0.9283 -0.0000
vn -0.9200 -0.3919 -0.0000
vn -0.9813 -0.1924 -0.0000
vn -0.1900 -0.9756 0.1097
vn -0.3220 -0.9283 0.1859
vn -0.7967 -0.3919 0.4600
vn -0.8498 -0.1924 0.4907
vn -0.1097 -0.9756 0.1900
vn -0.1859 -0.9283 0.3220
vn -0.4600 -0.3919 0.7967
vn -0.4907 -0.1924 0.8498
vn -0.0000 -0.9756 0.2194
vn -0.0000 -0.9283 0.3719
vn -0.0000 -0.3919 0.9200
vn -0.0000 -0.1924 0.9813
vn 0.1097 -0.9756 0.1900
vn 0.1859 -0.9283 0.3220
vn 0.4600 -0.3919 0.7967
vn 0.4907 -0.1924 0.8498
vn 0.1900 -0.9756 0.1097
vn 0.3220 -0.9283 0.1859
vn 0.7967 -0.3919 0.4600
vn 0.8498 -0.1924 0.4907
vn 0.9803 0.1974 -0.0000
vn 0.8490 0.1974 -0.4902
vn 0.7951 0.3963 -0.4591
vn 0.9181 0.3963 -0.0000
vn 0.3710 0.9287 -0.0000
vn 0.3213 0.9286 -0.1855
vn 0.1895 0.9758 -0.1094
vn 0.2188 0.9758 -0.0000
vn 0.4902 0.1974 -0.8490
vn 0.4591 0.3963 -0.7951
vn 0.1855 0.9286 -0.3213
vn 0.1094 0.9758 -0.1895
vn -0.0000 0.1974 -0.9803
vn -0.0000 0.3963 -0.9181
vn -0.0000 0.9286 -0.3710
vn -0.0000 0.9758 -0.2189
vn -0.4902 0.1974 -0.8490
vn -0.4591 0.3963 -0.7951
vn -0.1855 0.9286 -0.3213
vn -0.1094 0.9758 -0.1895
vn -0.8490 0.1974 -0.4902
vn -0.7951 0.3963 -0.4591
vn -0.3213 0.9286 -0.1855
vn -0.1895 0.9758 -0.1094
vn -0.9803 0.1974 -0.0000
vn -0.9181 0.3963 -0.0000
vn -0.3710 0.9287 -0.0000
vn -0.2188 0.9758 -0.0000
vn -0.8490 0.1974 0.4902
vn -0.7951 0.3963 0.4591
vn -0.3213 0.9286 0.1855
vn -0.1895 0.9758 0.1094
vn -0.4902 0.1974 0.8490
vn -0.4591 0.3963 0.7951
vn -0.1855 0.9286 0.3213
vn -0.1094 0.9758 0.1895
vn -0.0000 0.1974 0.9803
vn -0.0000 0.3963 0.9181
vn -0.0000 0.9286 0.3710
vn -0.0000 0.9758 0.2189
vn 0.4902 0.1974 0.8490
vn 0.4591 0.3963 0.7951
vn 0.1855 0.9286 0.3213
vn 0.1094 0.9758 0.1895
vn 0.8490 0.1974 0.4902
vn 0.7951 0.3963 0.4591
vn 0.3213 0.9286 0.1855
vn 0.1895 0.9758 0.1094
vn -0.3308 -0.8998 0.2844
vn -0.3076 -0.7672 0.5629
vn -0.5715 -0.6766 0.4643
vn -0.8476 -0.4904 0.2027
vn -0.2181 -0.0995 0.9708
vn -0.4313 -0.0871 0.8980
vn -0.4044 -0.1752 0.8976
vn -0.1768 -0.2027 0.9631
vn -0.9851 -0.0824 0.1513
vn -0.9476 -0.1503 0.2818
vn -0.9505 -0.0734 0.3018
vn -0.2181 0.0995 0.9708
vn -0.1768 0.2027 0.9631
vn -0.4044 0.1752 0.8976
vn -0.4313 0.0871 0.8980
vn -0.3308 0.8998 0.2844
vn -0.8476 0.4904 0.2027
vn -0.5715 0.6766 0.4643
vn -0.3076 0.7672 0.5629
vn -0.9851 0.0824 0.1513
vn -0.9505 0.0734 0.3018
vn -0.9476 0.1503 0.2818
vn -0.3308 -0.8998 -0.2844
vn -0.8476 -0.4904 -0.2027
vn -0.5715 -0.6766 -0.4643
vn -0.3076 -0.7672 -0.5629
vn -0.9851 -0.0824 -0.1513
vn -0.9505 -0.0734 -0.3018
vn -0.9476 -0.1503 -0.2818
vn -0.2181 -0.0995 -0.9708
vn -0.1768 -0.2027 -0.9631
vn -0.4044 -0.1752 -0.8976
vn -0.4313 -0.0871 -0.8980
vn -0.3308 0.8998 -0.2844
vn -0.3076 0.7672 -0.5629
vn -0.5715 0.6766 -0.4643
vn -0.8476 0.4904 -0.2027
vn -0.2181 0.0995 -0.9708
vn -0.4313 0.0871 -0.8980
vn -0.4044 0.1752 -0.8976
vn -0.1768 0.2027 -0.9631
vn -0.9851 0.0824 -0.1513
vn -0.9476 0.1503 -0.2818
vn -0.9505 0.0734 -0.3018
vn 0.3308 -0.8998 0.2844
vn 0.8476 -0.4904 0.2027
vn 0.5715 -0.6766 0.4643
vn 0.3076 -0.7672 0.5629
vn 0.9850 -0.0824 0.1513
vn 0.9505 -0.0734 0.3018
vn 0.9476 -0.1503 0.2818
vn 0.2181 -0.0995 0.9708
vn 0.1768 -0.2027 0.9631
vn 0.4044 -0.1752 0.8976
vn 0.4313 -0.0871 0.8980
vn 0.3308 0.8998 0.2844
vn 0.3076 0.7672 0.5629
vn 0.5715 0.6766 0.4643
vn 0.8476 0.4904 0.2027
vn 0.2181 0.0995 0.9708
vn 0.4313 0.0871 0.8980
vn 0.4044 0.1752 0.8976
vn 0.1768 0.2027 0.9631
vn 0.9851 0.0824 0.1513
vn 0.9476 0.1503 0.2818
vn 0.9505 0.0734 0.3018
vn 0.3308 -0.8998 -0.2844
vn 0.3076 -0.7672 -0.5629
vn 0.5715 -0.6766 -0.4643
vn 0.8476 -0.4904 -0.2027
vn 0.2181 -0.0995 -0.9708
vn 0.4313 -0.0871 -0.8980
vn 0.4044 -0.1752 -0.8976
vn 0.1768 -0.2027 -0.9631
vn 0.9850 -0.0824 -0.1513
vn 0.9476 -0.1503 -0.2818
vn 0.9505 -0.0734 -0.3018
vn 0.3308 0.8998 -0.2844
vn 0.8476 0.4904 -0.2027
vn 0.5715 0.6766 -0.4643
vn 0.3076 0.7672 -0.5629
vn 0.9851 0.0824 -0.1513
vn 0.9505 0.0734 -0.3018
vn 0.9476 0.1503 -0.2818
vn 0.2181 0.0995 -0.9708
vn 0.1768 0.2027 -0.9631
vn 0.4044 0.1752 -0.8976
vn 0.4313 0.0871 -0.8980
vn -0.1425 -0.9795 0.1425
vn -0.1251 -0.9500 0.2862
vn -0.2617 -0.9290 0.2616
vn -0.2863 -0.9500 0.1251
vn -0.1775 -0.2245 0.9582
vn -0.3579 -0.1984 0.9125
vn -0.3138 -0.4079 0.8574
vn -0.1567 -0.4473 0.8805
vn -0.9582 -0.2245 0.1775
vn -0.8805 -0.4473 0.1567
vn -0.8574 -0.4080 0.3138
vn -0.9125 -0.1984 0.3579
vn -0.1775 0.2245 0.9582
vn -0.1567 0.4473 0.8805
vn -0.3138 0.4079 0.8574
vn -0.3579 0.1984 0.9125
vn -0.1425 0.9795 0.1425
vn -0.2862 0.9500 0.1251
vn -0.2616 0.9290 0.2616
vn -0.1251 0.9500 0.2862
vn -0.9582 0.2245 0.1775
vn -0.9125 0.1984 0.3579
vn -0.8574 0.4079 0.3138
vn -0.8805 0.4473 0.1567
vn -0.1425 -0.9795 -0.1425
vn -0.2863 -0.9500 -0.1251
vn -0.2617 -0.9290 -0.2616
vn -0.1251 -0.9500 -0.2862
vn -0.9582 -0.2245 -0.1775
vn -0.9125 -0.1984 -0.3579
vn -0.8574 -0.4080 -0.3138
vn -0.8805 -0.4473 -0.1567
vn -0.1775 -0.2245 -0.9582
vn -0.1567 -0.4473 -0.8805
vn -0.3138 -0.4079 -0.8574
vn -0.3579 -0.1984 -0.9125
vn -0.1425 0.9795 -0.1425
vn -0.1251 0.9500 -0.2862
vn -0.2617 0.9290 -0.2616
vn -0.2862 0.9500 -0.1251
vn -0.1775 0.2245 -0.9582
vn -0.3579 0.1984 -0.9125
vn -0.3138 0.4079 -0.8574
vn -0.1567 0.4473 -0.8805
vn -0.9582 0.2245 -0.1775
vn -0.8805 0.4473 -0.1567
vn -0.8574 0.4079 -0.3138
vn -0.9125 0.1984 -0.3579
vn 0.1425 -0.9795 0.1425
vn 0.2863 -0.9500 0.1251
vn 0.2617 -0.9290 0.2616
vn 0.1251 -0.9500 0.2862
vn 0.9582 -0.2245 0.1775
vn 0.9125 -0.1984 0.3579
vn 0.8574 -0.4080 0.3138
vn 0.8805 -0.4473 0.1567
vn 0.1775 -0.2245 0.9582
vn 0.1567 -0.4473 0.8805
vn 0.3138 -0.4079 0.8574
vn 0.3579 -0.1984 0.9125
vn 0.1425 0.9795 0.1425
vn 0.1251 0.9500 0.2862
vn 0.2617 0.9290 0.2616
vn 0.2862 0.9500 0.1251
vn 0.1775 0.2245 0.9582
vn 0.3579 0.1984 0.9125
vn 0.3138 0.4079 0.8574
vn 0.1567 0.4473 0.8805
vn 0.9582 0.2245 0.1775
vn 0.8805 0.4473 0.1567
vn 0.8574 0.4079 0.3138
vn 0.9125 0.1984 0.3579
vn 0.1425 -0.9795 -0.1425
vn 0.1251 -0.9500 -0.2862
vn 0.2617 -0.9290 -0.2616
vn 0.2863 -0.9500 -0.1251
vn 0.1775 -0.2245 -0.9582
vn 0.3579 -0.1984 -0.9125
vn 0.3138 -0.4079 -0.8574
vn 0.1567 -0.4473 -0.8805
vn 0.9582 -0.2245 -0.1775
vn 0.8805 -0.4473 -0.1567
vn 0.8574 -0.4080 -0.3138
vn 0.9125 -0.1984 -0.3579
vn 0.1425 0.9795 -0.1425
vn 0.2862 0.9500 -0.1251
vn 0.2616 0.9290 -0.2616
vn 0.1251 0.9500 -0.2862
vn 0.9582 0.2245 -0.1775
vn 0.9125 0.1984 -0.3579
vn 0.8574 0.4079 -0.3138
vn 0.8805 0.4473 -0.1567
vn 0.1775 0.2245 -0.9582
vn 0.1567 0.4473 -0.8805
vn 0.3138 0.4079 -0.8574
vn 0.3579 0.1984 -0.9125
vn 0.2092 -0.9779 -0.0000
vn 0.1812 -0.9779 -0.1046
vn 0.3074 -0.9349 -0.1775
vn 0.3550 -0.9349 -0.0000
vn 0.8765 -0.4814 -0.0000
vn 0.7591 -0.4814 -0.4383
vn 0.8272 -0.2960 -0.4776
vn 0.9552 -0.2960 -0.0000
vn 0.1046 -0.9779 -0.1812
vn 0.1775 -0.9349 -0.3074
vn 0.4383 -0.4814 -0.7591
vn 0.4776 -0.2960 -0.8272
vn -0.0000 -0.9779 -0.2092
vn -0.0000 -0.9349 -0.3550
vn -0.0000 -0.4814 -0.8765
vn -0.0000 -0.2960 -0.9552
vn -0.1046 -0.9779 -0.1812
vn -0.1775 -0.9349 -0.3074
vn -0.4383 -0.4814 -0.7591
vn -0.4776 -0.2960 -0.8272
vn -0.1812 -0.9779 -0.1046
vn -0.3074 -0.9349 -0.1775
vn -0.7591 -0.4814 -0.4383
vn -0.8272 -0.2960 -0.4776
vn -0.2092 -0.9779 -0.0000
vn -0.3550 -0.9349 -0.0000
vn -0.8765 -0.4814 -0.0000
vn -0.9552 -0.2960 -0.0000
vn -0.1812 -0.9779 0.1046
vn -0.3074 -0.9349 0.1775
vn -0.7591 -0.4814 0.4383
vn -0.8272 -0.2960 0.4776
vn -0.1046 -0.9779 0.1812
vn -0.1775 -0.9349 0.3074
vn -0.4383 -0.4814 0.7591
vn -0.4776 -0.2960 0.8272
vn -0.0000 -0.9779 0.2092
vn -0.0000 -0.9349 0.3550
vn -0.0000 -0.4814 0.8765
vn -0.0000 -0.2960 0.9552
vn 0.1046 -0.9779 0.1812
vn 0.1775 -0.9349 0.3074
vn 0.4383 -0.4814 0.7591
vn 0.4776 -0.2960 0.8272
vn 0.1812 -0.9779 0.1046
vn 0.3074 -0.9349 0.1775
vn 0.7591 -0.4814 0.4383
vn 0.8272 -0.2960 0.4776
vn 0.9533 0.3021 -0.0000
vn 0.8256 0.3021 -0.4766
vn 0.7566 0.4866 -0.4368
vn 0.8736 0.4866 -0.0000
vn 0.3539 0.9353 -0.0000
vn 0.3065 0.9353 -0.1770
vn 0.1806 0.9780 -0.1043
vn 0.2086 0.9780 -0.0000
vn 0.4766 0.3021 -0.8256
vn 0.4368 0.4866 -0.7566
vn 0.1770 0.9353 -0.3065
vn 0.1043 0.9780 -0.1806
vn -0.0000 0.3021 -0.9533
vn -0.0000 0.4866 -0.8736
vn -0.0000 0.9353 -0.3539
vn -0.0000 0.9780 -0.2086
vn -0.4766 0.3021 -0.8256
vn -0.4368 0.4866 -0.7566
vn -0.1770 0.9353 -0.3065
vn -0.1043 0.9780 -0.1806
vn -0.8256 0.3021 -0.4766
vn -0.7566 0.4866 -0.4368
vn -0.3065 0.9353 -0.1770
vn -0.1806 0.9780 -0.1043
vn -0.9533 0.3021 -0.0000
vn -0.8736 0.4866 -0.0000
vn -0.3539 0.9353 -0.0000
vn -0.2086 0.9780 -0.0000
vn -0.8256 0.3021 0.4766
vn -0.7566 0.4866 0.4368
vn -0.3065 0.9353 0.1770
vn -0.1806 0.9780 0.1043
vn -0.4766 0.3021 0.8256
vn -0.4368 0.4866 0.7566
vn -0.1770 0.9353 0.3065
vn -0.1043 0.9780 0.1806
vn -0.0000 0.3021 0.9533
vn -0.0000 0.4866 0.8736
vn -0.0000 0.9353 0.3539
vn -0.0000 0.9780 0.2086
vn 0.4766 0.3021 0.8256
vn 0.4368 0.4866 0.7566
vn 0.1770 0.9353 0.3065
vn 0.1043 0.9780 0.1806
vn 0.8256 0.3021 0.4766
vn 0.7566 0.4866 0.4368
vn 0.3065 0.9353 0.1770
vn 0.1806 0.9780 0.1043
vn 1.0000 0.0036 -0.0000
vn 0.8660 0.0036 0.5000
vn 0.8660 0.0036 -0.5000
vn 0.5000 0.0036 -0.8660
vn -0.0000 0.0036 -1.0000
vn -0.5000 0.0036 -0.8660
vn -0.8660 0.0036 -0.5000
vn -1.0000 0.0036 -0.0000
vn -0.8660 0.0036 0.5000
vn -0.5000 0.0036 0.8660
vn -0.0000 0.0036 1.0000
vn 0.5000 0.0036 0.8660
vn 1.0000 -0.0000 -0.0000
vn 0.8660 -0.0000 -0.5000
vn 0.5000 -0.0000 -0.8660
vn -0.0000 -0.0000 -1.0000
vn -0.5000 -0.0000 -0.8660
vn -0.8660 -0.0000 -0.5000
vn -1.0000 -0.0000 -0.0000
vn -0.8660 -0.0000 0.5000
vn -0.5000 -0.0000 0.8660
vn -0.0000 -0.0000 1.0000
vn 0.5000 -0.0000 0.8660
vn 0.8660 -0.0000 0.5000
vn 0.2192 -0.9757 -0.0000
vn 0.1898 -0.9757 -0.1096
vn 0.3217 -0.9284 -0.1857
vn 0.3715 -0.9284 -0.0000
vn 0.9191 -0.3941 -0.0000
vn 0.7959 -0.3941 -0.4595
vn 0.8494 -0.1949 -0.4904
vn 0.9808 -0.1949 -0.0000
vn 0.1096 -0.9757 -0.1898
vn 0.1857 -0.9284 -0.3217
vn 0.4595 -0.3941 -0.7959
vn 0.4904 -0.1949 -0.8494
vn -0.0000 -0.9757 -0.2192
vn -0.0000 -0.9284 -0.3715
vn -0.0000 -0.3941 -0.9191
vn -0.0000 -0.1949 -0.9808
vn -0.1096 -0.9757 -0.1898
vn -0.1857 -0.9284 -0.3217
vn -0.4595 -0.3941 -0.7959
vn -0.4904 -0.1949 -0.8494
vn -0.1898 -0.9757 -0.1096
vn -0.3217 -0.9284 -0.1857
vn -0.7959 -0.3941 -0.4595
vn -0.8494 -0.1949 -0.4904
vn -0.2192 -0.9757 -0.0000
vn -0.3715 -0.9284 -0.0000
vn -0.9191 -0.3941 -0.0000
vn -0.9808 -0.1949 -0.0000
vn -0.1898 -0.9757 0.1096
vn -0.3217 -0.9284 0.1857
vn -0.7959 -0.3941 0.4595
vn -0.8494 -0.1949 0.4904
vn -0.1096 -0.9757 0.1898
vn -0.1857 -0.9284 0.3217
vn -0.4595 -0.3941 0.7959
vn -0.4904 -0.1949 0.8494
vn -0.0000 -0.9757 0.2192
vn -0.0000 -0.9284 0.3715
vn -0.0000 -0.3941 0.9191
vn -0.0000 -0.1949 0.9808
vn 0.1096 -0.9757 0.1898
vn 0.1857 -0.9284 0.3217
vn 0.4595 -0.3941 0.7959
vn 0.4904 -0.1949 0.8494
vn 0.1898 -0.9757 0.1096
vn 0.3217 -0.9284 0.1857
vn 0.7959 -0.3941 0.4595
vn 0.8494 -0.1949 0.4904
vn 0.9808 0.1949 -0.0000
vn 0.8494 0.1949 -0.4904
vn 0.7959 0.3941 -0.4595
vn 0.9191 0.3941 -0.0000
vn 0.3714 0.9285 -0.0000
vn 0.3217 0.9284 -0.1857
vn 0.1898 0.9757 -0.1096
vn 0.2191 0.9757 -0.0000
vn 0.4904 0.1949 -0.8494
vn 0.4595 0.3941 -0.7959
vn 0.1857 0.9284 -0.3217
vn 0.1096 0.9757 -0.1898
vn -0.0000 0.1949 -0.9808
vn -0.0000 0.3941 -0.9191
vn -0.0000 0.9284 -0.3715
vn -0.0000 0.9757 -0.2192
vn -0.4904 0.1949 -0.8494
vn -0.4595 0.3941 -0.7959
vn -0.1857 0.9284 -0.3217
vn -0.1096 0.9757 -0.1898
vn -0.8494 0.1949 -0.4904
vn -0.7959 0.3941 -0.4595
vn -0.3217 0.9285 -0.1857
vn -0.1898 0.9757 -0.1096
vn -0.9808 0.1949 -0.0000
vn -0.9191 0.3941 -0.0000
vn -0.3714 0.9285 -0.0000
vn -0.2191 0.9757 -0.0000
vn -0.8494 0.1949 0.4904
vn -0.7959 0.3941 0.4595
vn -0.3217 0.9284 0.1857
vn -0.1898 0.9757 0.1096
vn -0.4904 0.1949 0.8494
vn -0.4595 0.3941 0.7959
vn -0.1857 0.9284 0.3217
vn -0.1096 0.9757 0.1898
vn -0.0000 0.1949 0.9808
vn -0.0000 0.3941 0.9191
vn -0.0000 0.9284 0.3715
vn -0.0000 0.9757 0.2192
vn 0.4904 0.1949 0.8494
vn 0.4595 0.3941 0.7959
vn 0.1857 0.9284 0.3217
vn 0.1096 0.9757 0.1898
vn 0.8494 0.1949 0.4904
vn 0.7959 0.3941 0.4595
vn 0.3217 0.9285 0.1857
vn 0.1898 0.9757 0.1096
s 1
f 1//1 4//2 5//3 7//4
f 2//5 6//6 5//7 4//8
f 3//9 7//10 5//11 6//12
f 14//13 17//14 18//15 20//16
f 15//17 19//18 18//19 17//20
f 16//21 20//22 18//23 19//24
f 21//25 24//26 25//27 27//28
f 22//29 26//30 25//27 24//26
f 23//31 27//32 25//33 26//34
f 31//35 34//36 35//37 37//38
f 32//39 36//40 35//41 34//42
f 33//43 37//38 35//37 36//44
f 38//45 41//46 42//47 44//48
f 39//49 43//50 42//51 41//52
f 40//53 44//54 42//55 43//56
f 51//57 54//58 55//59 57//60
f 52//61 56//62 55//63 54//64
f 53//65 57//66 55//67 56//68
f 58//69 61//70 62//71 64//72
f 59//73 63//74 62//75 61//76
f 60//77 64//72 62//71 63//78
f 68//79 71//80 72//81 74//82
f 69//83 73//84 72//81 71//80
f 70//85 74//86 72//87 73//88
f 3//9 32//39 34//42 7//10
f 7//4 34//36 31//35 1//1
f 2//5 8//89 10//90 6//6
f 6//12 10//91 9//92 3//9
f 8//89 11//93 13//94 10//90
f 10//91 13//95 12//96 9//92
f 11//93 14//13 20//16 13//94
f 13//95 20//22 16//21 12//96
f 15//17 21//25 27//28 19//18
f 19//24 27//32 23//31 16//21
f 22//29 28//97 30//98 26//30
f 26//34 30//99 29//100 23//31
f 28//97 33//43 36//44 30//98
f 30//99 36//40 32//39 29//100
f 38//45 68//79 74//82 41//46
f 41//52 74//86 70//85 39//49
f 39//49 45//101 47//102 43//50
f 43//56 47//103 46//104 40//53
f 45//101 48//105 50//106 47//102
f 47//103 50//107 49//108 46//104
f 48//105 52//61 54//64 50//106
f 50//107 54//58 51//57 49//108
f 52//61 59//73 61//76 56//62
f 56//68 61//70 58//69 53//65
f 59//73 65//109 67//110 63//74
f 63//78 67//111 66//112 60//77
f 65//109 70//85 73//88 67//110
f 67//111 73//84 69//83 66//112
f 1//1 38//45 44//48 4//2
f 4//8 44//54 40//53 2//5
f 14//13 51//57 57//60 17//14
f 17//20 57//66 53//65 15//17
f 21//25 58//69 64//72 24//26
f 24//26 64//72 60//77 22//29
f 33//43 69//83 71//80 37//38
f 37//38 71//80 68//79 31//35
f 1//1 31//35 68//79 38//45
f 3//9 9//92 12//96 16//21 23//31 29//100 32//39
f 8//89 2//5 40//53 46//104
f 11//93 8//89 46//104 49//108
f 14//13 11//93 49//108 51//57
f 21//25 15//17 53//65 58//69
f 28//97 22//29 60//77 66//112
f 33//43 28//97 66//112 69//83
f 39//49 70//85 65//109 59//73 52//61 48//105 45//101
f 75//113 76//114 88//114 87//113
f 76//114 77//115 89//115 88//114
f 77//115 78//116 90//116 89//115
f 78//116 79//117 91//117 90//116
f 79//117 80//118 92//118 91//117
f 80//118 81//119 93//119 92//118
f 81//119 82//120 94//120 93//119
f 82//120 83//121 95//121 94//120
f 83//121 84//122 96//122 95//121
f 84//122 85//123 97//123 96//122
f 85//123 86//124 98//124 97//123
f 86//124 75//113 87//113 98//124
f 87//113 88//114 100//114 99//113
f 88//114 89//115 101//115 100//114
f 89//115 90//116 102//116 101//115
f 90//116 91//117 103//117 102//116
f 91//117 92//118 104//118 103//117
f 92//118 93//119 105//119 104//118
f 93//119 94//120 106//120 105//119
f 94//120 95//121 107//121 106//120
f 95//121 96//122 108//122 107//121
f 96//122 97//123 109//123 108//122
f 97//123 98//124 110//124 109//123
f 98//124 87//113 99//113 110//124
f 99//113 100//114 112//114 111//113
f 100//114 101//115 113//115 112//114
f 101//115 102//116 114//116 113//115
f 102//116 103//117 115//117 114//116
f 103//117 104//118 116//118 115//117
f 104//118 105//119 117//119 116//118
f 105//119 106//120 118//120 117//119
f 106//120 107//121 119//121 118//120
f 107//121 108//122 120//122 119//121
f 108//122 109//123 121//123 120//122
f 109//123 110//124 122//124 121//123
f 110//124 99//113 111//113 122//124
f 111//113 112//114 124//114 123//113
f 112//114 113//115 125//115 124//114
f 113//115 114//116 126//116 125//115
f 114//116 115//117 127//117 126//116
f 115//117 116//118 128//118 127//117
f 116//118 117//119 129//119 128//118
f 117//119 118//120 130//120 129//119
f 118//120 119//121 131//121 130//120
f 119//121 120//122 132//122 131//121
f 120//122 121//123 133//123 132//122
f 121//123 122//124 134//124 133//123
f 122//124 111//113 123//113 134//124
f 123//113 124//114 136//114 135//113
f 124//114 125//115 137//115 136//114
f 125//115 126//116 138//116 137//115
f 126//116 127//117 139//117 138//116
f 127//117 128//118 140//118 139//117
f 128//118 129//119 141//119 140//118
f 129//119 130//120 142//120 141//119
f 130//120 131//121 143//121 142//120
f 131//121 132//122 144//122 143//121
f 132//122 133//123 145//123 144//122
f 133//123 134//124 146//124 145//123
f 134//124 123//113 135//113 146//124
f 135//113 136//114 148//114 147//113
f 136//114 137//115 149//115 148//114
f 137//115 138//116 150//116 149//115
f 138//116 139//117 151//117 150//116
f 139//117 140//118 152//118 151//117
f 140//118 141//119 153//119 152//118
f 141//119 142//120 154//120 153//119
f 142//120 143//121 155//121 154//120
f 143//121 144//122 156//122 155//121
f 144//122 145//123 157//123 156//122
f 145//123 146//124 158//124 157//123
f 146//124 135//113 147//113 158//124
f 147//113 148//114 160//114 159//113
f 148//114 149//115 161//115 160//114
f 149//115 150//116 162//116 161//115
f 150//116 151//117 163//117 162//116
f 151//117 152//118 164//118 163//117
f 152//118 153//119 165//119 164//118
f 153//119 154//120 166//120 165//119
f 154//120 155//121 167//121 166//120
f 155//121 156//122 168//122 167//121
f 156//122 157//123 169//123 168//122
f 157//123 158//124 170//124 169//123
f 158//124 147//113 159//113 170//124
f 159//113 160//114 172//114 171//113
f 160//114 161//115 173//115 172//114
f 161//115 162//116 174//116 173//115
f 162//116 163//117 175//117 174//116
f 163//117 164//118 176//118 175//117
f 164//118 165//119 177//119 176//118
f 165//119 166//120 178//120 177//119
f 166//120 167//121 179//121 178//120
f 167//121 168//122 180//122 179//121
f 168//122 169//123 181//123 180//122
f 169//123 170//124 182//124 181//123
f 170//124 159//113 171//113 182//124
f 183//125 186//126 188//127 185//128
f 185//129 188//130 187//131 184//132
f 186//126 189//133 191//134 188//127
f 188//130 191//135 190//136 187//131
f 189//133 192//137 194//138 191//134
f 191//135 194//139 193//140 190//136
f 192//137 195//141 197//142 194//138
f 194//139 197//143 196//144 193//140
f 195//141 198//145 200//146 197//142
f 197//143 200//147 199//148 196//144
f 198//145 201//149 203//150 200//146
f 200//147 203//151 202//152 199//148
f 201//149 204//153 206//154 203//150
f 203//151 206//155 205//156 202//152
f 204//153 207//157 209//158 206//154
f 206//155 209//159 208//160 205//156
f 207//157 210//161 212//162 209//158
f 209//159 212//163 211//164 208//160
f 210//161 213//165 215//166 212//162
f 212//163 215//167 214//168 211//164
f 213//165 216//169 218//170 215//166
f 215//167 218//171 217//172 214//168
f 184//132 217//172 218//171 185//129
f 185//128 218//170 216//169 183//125
f 220//173 223//174 224//175 221//176
f 221//177 224//178 222//179 219//180
f 223//174 226//181 227//182 224//175
f 224//178 227//183 225//184 222//179
f 226//181 229//185 230//186 227//182
f 227//183 230//187 228//188 225//184
f 229//185 232//189 233//190 230//186
f 230//187 233//191 231//192 228//188
f 232//189 235//193 236//194 233//190
f 233//191 236//195 234//196 231//192
f 235//193 238//197 239//198 236//194
f 236//195 239//199 237//200 234//196
f 238//197 241//201 242//202 239//198
f 239//199 242//203 240//204 237//200
f 241//201 244//205 245//206 242//202
f 242//203 245//207 243//208 240//204
f 244//205 247//209 248//210 245//206
f 245//207 248//211 246//212 243//208
f 247//209 250//213 251//214 248//210
f 248//211 251//215 249//216 246//212
f 250//213 253//217 254//218 251//214
f 251//215 254//219 252//220 249//216
f 219//180 252//220 254//219 221//177
f 221//176 254//218 253//217 220//173
f 217//172 184//132 75//113 86//124
f 184//132 187//131 76//114 75//113
f 216//169 213//165 210//161 207//157 204//153 201//149 198//145 195//141 192//137 189//133 186//126 183//125
f 187//131 190//136 77//115 76//114
f 190//136 193//140 78//116 77//115
f 193//140 196//144 79//117 78//116
f 196//144 199//148 80//118 79//117
f 199//148 202//152 81//119 80//118
f 202//152 205//156 82//120 81//119
f 205//156 208//160 83//121 82//120
f 208//160 211//164 84//122 83//121
f 211//164 214//168 85//123 84//122
f 214//168 217//172 86//124 85//123
f 182//124 171//113 220//173 253//217
f 171//113 172//114 223//174 220//173
f 219//180 222//179 225//184 228//188 231//192 234//196 237//200 240//204 243//208 246//212 249//216 252//220
f 172//114 173//115 226//181 223//174
f 173//115 174//116 229//185 226//181
f 174//116 175//117 232//189 229//185
f 175//117 176//118 235//193 232//189
f 176//118 177//119 238//197 235//193
f 177//119 178//120 241//201 238//197
f 178//120 179//121 244//205 241//201
f 179//121 180//122 247//209 244//205
f 180//122 181//123 250//213 247//209
f 181//123 182//124 253//217 250//213
f 255//221 258//222 259//223 261//224
f 256//225 260//226 259//227 258//228
f 257//229 261//224 259//230 260//231
f 262//232 265//233 266//234 268//235
f 263//236 267//237 266//238 265//239
f 264//240 268//241 266//242 267//237
f 269//243 272//244 273//245 275//246
f 270//247 274//248 273//249 272//244
f 271//250 275//251 273//252 274//253
f 276//254 279//255 280//256 282//257
f 277//258 281//259 280//260 279//261
f 278//262 282//257 280//263 281//264
f 283//265 286//266 287//267 289//268
f 284//269 288//270 287//271 286//266
f 285//272 289//273 287//274 288//275
f 290//276 293//277 294//278 296//279
f 291//280 295//281 294//282 293//283
f 292//284 296//279 294//285 295//286
f 297//287 300//288 301//289 303//290
f 298//291 302//292 301//293 300//294
f 299//295 303//290 301//296 302//297
f 304//298 307//299 308//300 310//301
f 305//302 309//303 308//304 307//299
f 306//305 310//306 308//307 309//308
f 269//243 255//221 261//224 272//244
f 272//244 261//224 257//229 270//247
f 256//225 262//232 268//235 260//226
f 260//231 268//241 264//240 257//229
f 263//236 276//254 282//257 267//237
f 267//237 282//257 278//262 264//240
f 277//258 271//250 274//253 281//259
f 281//264 274//248 270//247 278//262
f 297//287 269//243 275//246 300//288
f 300//294 275//251 271//250 298//291
f 276//254 304//298 310//301 279//255
f 279//261 310//306 306//305 277//258
f 305//302 299//295 302//297 309//303
f 309//308 302//292 298//291 306//305
f 283//265 297//287 303//290 286//266
f 286//266 303//290 299//295 284//269
f 304//298 290//276 296//279 307//299
f 307//299 296//279 292//284 305//302
f 291//280 285//272 288//275 295//281
f 295//286 288//270 284//269 292//284
f 255//221 283//265 289//268 258//222
f 258//228 289//273 285//272 256//225
f 290//276 263//236 265//239 293//277
f 293//283 265//233 262//232 291//280
f 269//243 297//287 283//265 255//221
f 257//229 264//240 278//262 270//247
f 285//272 291//280 262//232 256//225
f 304//298 276//254 263//236 290//276
f 271//250 277//258 306//305 298//291
f 299//295 305//302 292//284 284//269
f 311//309 314//310 315//311 317//312
f 312//313 316//314 315//315 314//316
f 313//317 317//318 315//319 316//320
f 318//321 321//322 322//323 324//324
f 319//325 323//326 322//327 321//328
f 320//329 324//330 322//331 323//332
f 325//333 328//334 329//335 331//336
f 326//337 330//338 329//339 328//340
f 327//341 331//342 329//343 330//344
f 332//345 335//346 336//347 338//348
f 333//349 337//350 336//351 335//352
f 334//353 338//354 336//355 337//356
f 339//357 342//358 343//359 345//360
f 340//361 344//362 343//363 342//364
f 341//365 345//366 343//367 344//368
f 346//369 349//370 350//371 352//372
f 347//373 351//374 350//375 349//376
f 348//377 352//378 350//379 351//380
f 353//381 356//382 357//383 359//384
f 354//385 358//386 357//387 356//388
f 355//389 359//390 357//391 358//392
f 360//393 363//394 364//395 366//396
f 361//397 365//398 364//399 363//400
f 362//401 366//402 364//403 365//404
f 325//333 311//309 317//312 328//334
f 328//340 317//318 313//317 326//337
f 312//313 318//321 324//324 316//314
f 316//320 324//330 320//329 313//317
f 319//325 332//345 338//348 323//326
f 323//332 338//354 334//353 320//329
f 333//349 327//341 330//344 337//350
f 337//356 330//338 326//337 334//353
f 353//381 325//333 331//336 356//382
f 356//388 331//342 327//341 354//385
f 332//345 360//393 366//396 335//346
f 335//352 366//402 362//401 333//349
f 361//397 355//389 358//392 365//398
f 365//404 358//386 354//385 362//401
f 339//357 353//381 359//384 342//358
f 342//364 359//390 355//389 340//361
f 360//393 346//369 352//372 363//394
f 363//400 352//378 348//377 361//397
f 347//373 341//365 344//368 351//374
f 351//380 344//362 340//361 348//377
f 311//309 339//357 345//360 314//310
f 314//316 345//366 341//365 312//313
f 346//369 319//325 321//328 349//370
f 349//376 321//322 318//321 347//373
f 325//333 353//381 339//357 311//309
f 313//317 320//329 334//353 326//337
f 341//365 347//373 318//321 312//313
f 360//393 332//345 319//325 346//369
f 327//341 333//349 362//401 354//385
f 355//389 361//397 348//377 340//361
f 379//405 382//406 384//407 381//408
f 381//409 384//410 383//411 380//412
f 382//406 385//413 387//414 384//407
f 384//410 387//415 386//416 383//411
f 385//413 388//417 390//418 387//414
f 387//415 390//419 389//420 386//416
f 388//417 391//421 393//422 390//418
f 390//419 393//423 392//424 389//420
f 391//421 394//425 396//426 393//422
f 393//423 396//427 395//428 392//424
f 394//425 397//429 399//430 396//426
f 396//427 399//431 398//432 395//428
f 397//429 400//433 402//434 399//430
f 399//431 402//435 401//436 398//432
f 400//433 403//437 405//438 402//434
f 402//435 405//439 404//440 401//436
f 403//437 406//441 408//442 405//438
f 405//439 408//443 407//444 404//440
f 406//441 409//445 411//446 408//442
f 408//443 411//447 410//448 407//444
f 409//445 412//449 414//450 411//446
f 411//447 414//451 413//452 410//448
f 380//412 413//452 414//451 381//409
f 381//408 414//450 412//449 379//405
f 416//453 419//454 420//455 417//456
f 417//457 420//458 418//459 415//460
f 419//454 422//461 423//462 420//455
f 420//458 423//463 421//464 418//459
f 422//461 425//465 426//466 423//462
f 423//463 426//467 424//468 421//464
f 425//465 428//469 429//470 426//466
f 426//467 429//471 427//472 424//468
f 428//469 431//473 432//474 429//470
f 429//471 432//475 430//476 427//472
f 431//473 434//477 435//478 432//474
f 432//475 435//479 433//480 430//476
f 434//477 437//481 438//482 435//478
f 435//479 438//483 436//484 433//480
f 437//481 440//485 441//486 438//482
f 438//483 441//487 439//488 436//484
f 440//485 443//489 444//490 441//486
f 441//487 444//491 442//492 439//488
f 443//489 446//493 447//494 444//490
f 444//491 447//495 445//496 442//492
f 446//493 449//497 450//498 447//494
f 447//495 450//499 448//500 445//496
f 415//460 448//500 450//499 417//457
f 417//456 450//498 449//497 416//453
f 413//452 380//412 367//501 378//502
f 380//412 383//411 368//503 367//501
f 412//449 409//445 406//441 403//437 400//433 397//429 394//425 391//421 388//417 385//413 382//406 379//405
f 383//411 386//416 369//504 368//503
f 386//416 389//420 370//505 369//504
f 389//420 392//424 371//506 370//505
f 392//424 395//428 372//507 371//506
f 395//428 398//432 373//508 372//507
f 398//432 401//436 374//509 373//508
f 401//436 404//440 375//510 374//509
f 404//440 407//444 376//511 375//510
f 407//444 410//448 377//512 376//511
f 410//448 413//452 378//502 377//512
f 378//502 367//501 416//453 449//497
f 367//501 368//503 419//454 416//453
f 415//460 418//459 421//464 424//468 427//472 430//476 433//480 436//484 439//488 442//492 445//496 448//500
f 368//503 369//504 422//461 419//454
f 369//504 370//505 425//465 422//461
f 370//505 371//506 428//469 425//465
f 371//506 372//507 431//473 428//469
f 372//507 373//508 434//477 431//473
f 373//508 374//509 437//481 434//477
f 374//509 375//510 440//485 437//481
f 375//510 376//511 443//489 440//485
f 376//511 377//512 446//493 443//489
f 377//512 378//502 449//497 446//493
f 451//513 452//514 464//514 463//513
f 452//514 453//515 465//515 464//514
f 453//515 454//516 466//516 465//515
f 454//516 455//517 467//517 466//516
f 455//517 456//518 468//518 467//517
f 456//518 457//519 469//519 468//518
f 457//519 458//520 470//520 469//519
f 458//520 459//521 471//521 470//520
f 459//521 460//522 472//522 471//521
f 460//522 461//523 473//523 472//522
f 461//523 462//524 474//524 473//523
f 462//524 451//513 463//513 474//524
f 463//513 464//514 476//514 475//513
f 464//514 465//515 477//515 476//514
f 465//515 466//516 478//516 477//515
f 466//516 467//517 479//517 478//516
f 467//517 468//518 480//518 479//517
f 468//518 469//519 481//519 480//518
f 469//519 470//520 482//520 481//519
f 470//520 471//521 483//521 482//520
f 471//521 472//522 484//522 483//521
f 472//522 473//523 485//523 484//522
f 473//523 474//524 486//524 485//523
f 474//524 463//513 475//513 486//524
f 475//513 476//514 488//514 487//513
f 476//514 477//515 489//515 488//514
f 477//515 478//516 490//516 489//515
f 478//516 479//517 491//517 490//516
f 479//517 480//518 492//518 491//517
f 480//518 481//519 493//519 492//518
f 481//519 482//520 494//520 493//519
f 482//520 483//521 495//521 494//520
f 483//521 484//522 496//522 495//521
f 484//522 485//523 497//523 496//522
f 485//523 486//524 498//524 497//523
f 486//524 475//513 487//513 498//524
f 487//513 488//514 500//514 499//513
f 488//514 489//515 501//515 500//514
f 489//515 490//516 502//516 501//515
f 490//516 491//517 503//517 502//516
f 491//517 492//518 504//518 503//517
f 492//518 493//519 505//519 504//518
f 493//519 494//520 506//520 505//519
f 494//520 495//521 507//521 506//520
f 495//521 496//522 508//522 507//521
f 496//522 497//523 509//523 508//522
f 497//523 498//524 510//524 509//523
f 498//524 487//513 499//513 510//524
f 499//513 500//514 512//514 511//513
f 500//514 501//515 513//515 512//514
f 501//515 502//516 514//516 513//515
f 502//516 503//517 515//517 514//516
f 503//517 504//518 516//518 515//517
f 504//518 505//519 517//519 516//518
f 505//519 506//520 518//520 517//519
f 506//520 507//521 519//521 518//520
f 507//521 508//522 520//522 519//521
f 508//522 509//523 521//523 520//522
f 509//523 510//524 522//524 521//523
f 510//524 499//513 511//513 522//524
f 511//513 512//514 524//514 523//513
f 512//514 513//515 525//515 524//514
f 513//515 514//516 526//516 525//515
f 514//516 515//517 527//517 526//516
f 515//517 516//518 528//518 527//517
f 516//518 517//519 529//519 528//518
f 517//519 518//520 530//520 529//519
f 518//520 519//521 531//521 530//520
f 519//521 520//522 532//522 531//521
f 520//522 521//523 533//523 532//522
f 521//523 522//524 534//524 533//523
f 522//524 511//513 523//513 534//524
f 523//513 524//514 536//514 535//513
f 524//514 525//515 537//515 536//514
f 525//515 526//516 538//516 537//515
f 526//516 527//517 539//517 538//516
f 527//517 528//518 540//518 539//517
f 528//518 529//519 541//519 540//518
f 529//519 530//520 542//520 541//519
f 530//520 531//521 543//521 542//520
f 531//521 532//522 544//522 543//521
f 532//522 533//523 545//523 544//522
f 533//523 534//524 546//524 545//523
f 534//524 523//513 535//513 546//524
f 535//513 536//514 548//514 547//513
f 536//514 537//515 549//515 548//514
f 537//515 538//516 550//516 549//515
f 538//516 539//517 551//517 550//516
f 539//517 540//518 552//518 551//517
f 540//518 541//519 553//519 552//518
f 541//519 542//520 554//520 553//519
f 542//520 543//521 555//521 554//520
f 543//521 544//522 556//522 555//521
f 544//522 545//523 557//523 556//522
f 545//523 546//524 558//524 557//523
f 546//524 535//513 547//513 558//524
f 559//525 562//526 564//527 561//528
f 561//529 564//530 563//531 560//532
f 562//526 565//533 567//534 564//527
f 564//530 567//535 566//536 563//531
f 565//533 568//537 570//538 567//534
f 567//535 570//539 569//540 566//536
f 568//537 571//541 573//542 570//538
f 570//539 573//543 572//544 569//540
f 571//541 574//545 576//546 573//542
f 573//543 576//547 575//548 572//544
f 574//545 577//549 579//550 576//546
f 576//547 579//551 578//552 575//548
f 577//549 580//553 582//554 579//550
f 579//551 582//555 581//556 578//552
f 580//553 583//557 585//558 582//554
f 582//555 585//559 584//560 581//556
f 583//557 586//561 588//562 585//558
f 585//559 588//563 587//564 584//560
f 586//561 589//565 591//566 588//562
f 588//563 591//567 590//568 587//564
f 589//565 592//569 594//570 591//566
f 591//567 594//571 593//572 590//568
f 560//532 593//572 594//571 561//529
f 561//528 594//570 592//569 559//525
f 596//573 599//574 600//575 597//576
f 597//577 600//578 598//579 595//580
f 599//574 602//581 603//582 600//575
f 600//578 603//583 601//584 598//579
f 602//581 605//585 606//586 603//582
f 603//583 606//587 604//588 601//584
f 605//585 608//589 609//590 606//586
f 606//587 609//591 607//592 604//588
f 608//589 611//593 612//594 609//590
f 609//591 612//595 610//596 607//592
f 611//593 614//597 615//598 612//594
f 612//595 615//599 613//600 610//596
f 614//597 617//601 618//602 615//598
f 615//599 618//603 616//604 613//600
f 617//601 620//605 621//606 618//602
f 618//603 621//607 619//608 616//604
f 620//605 623//609 624//610 621//606
f 621//607 624//611 622//612 619//608
f 623//609 626//613 627//614 624//610
f 624//611 627//615 625//616 622//612
f 626//613 629//617 630//618 627//614
f 627//615 630//619 628//620 625//616
f 595//580 628//620 630//619 597//577
f 597//576 630//618 629//617 596//573
f 593//572 560//532 451//513 462//524
f 560//532 563//531 452//514 451//513
f 592//569 589//565 586//561 583//557 580//553 577//549 574//545 571//541 568//537 565//533 562//526 559//525
f 563//531 566//536 453//515 452//514
f 566//536 569//540 454//516 453//515
f 569//540 572//544 455//517 454//516
f 572//544 575//548 456//518 455//517
f 575//548 578//552 457//519 456//518
f 578//552 581//556 458//520 457//519
f 581//556 584//560 459//521 458//520
f 584//560 587//564 460//522 459//521
f 587//564 590//568 461//523 460//522
f 590//568 593//572 462//524 461//523
f 558//524 547//513 596//573 629//617
f 547//513 548//514 599//574 596//573
f 595//580 598//579 601//584 604//588 607//592 610//596 613//600 616//604 619//608 622//612 625//616 628//620
f 548//514 549//515 602//581 599//574
f 549//515 550//516 605//585 602//581
f 550//516 551//517 608//589 605//585
f 551//517 552//518 611//593 608//589
f 552//518 553//519 614//597 611//593
f 553//519 554//520 617//601 614//597
f 554//520 555//521 620//605 617//601
f 555//521 556//522 623//609 620//605
f 556//522 557//523 626//613 623//609
f 557//523 558//524 629//617 626//613
