# Blender 5.2.0 LTS
# www.blender.org
o NecroStaff
v 0.109120 -0.250000 0.000000
v 0.094501 -0.250000 -0.054560
v 0.054560 -0.250000 -0.094501
v 0.000000 -0.250000 -0.109120
v -0.054560 -0.250000 -0.094501
v -0.094501 -0.250000 -0.054560
v -0.109120 -0.250000 -0.000000
v -0.094501 -0.250000 0.054560
v -0.054560 -0.250000 0.094501
v -0.000000 -0.250000 0.109120
v 0.054560 -0.250000 0.094501
v 0.094501 -0.250000 0.054560
v 0.108240 0.200000 0.000000
v 0.093739 0.200000 -0.054120
v 0.054120 0.200000 -0.093739
v 0.000000 0.200000 -0.108240
v -0.054120 0.200000 -0.093739
v -0.093739 0.200000 -0.054120
v -0.108240 0.200000 -0.000000
v -0.093739 0.200000 0.054120
v -0.054120 0.200000 0.093739
v -0.000000 0.200000 0.108240
v 0.054120 0.200000 0.093739
v 0.093739 0.200000 0.054120
v 0.107360 0.650000 0.000000
v 0.092976 0.650000 -0.053680
v 0.053680 0.650000 -0.092976
v 0.000000 0.650000 -0.107360
v -0.053680 0.650000 -0.092976
v -0.092976 0.650000 -0.053680
v -0.107360 0.650000 -0.000000
v -0.092976 0.650000 0.053680
v -0.053680 0.650000 0.092976
v -0.000000 0.650000 0.107360
v 0.053680 0.650000 0.092976
v 0.092976 0.650000 0.053680
v 0.106480 1.100000 0.000000
v 0.092214 1.100000 -0.053240
v 0.053240 1.100000 -0.092214
v 0.000000 1.100000 -0.106480
v -0.053240 1.100000 -0.092214
v -0.092214 1.100000 -0.053240
v -0.106480 1.100000 -0.000000
v -0.092214 1.100000 0.053240
v -0.053240 1.100000 0.092214
v -0.000000 1.100000 0.106480
v 0.053240 1.100000 0.092214
v 0.092214 1.100000 0.053240
v 0.105600 1.550000 0.000000
v 0.091452 1.550000 -0.052800
v 0.052800 1.550000 -0.091452
v 0.000000 1.550000 -0.105600
v -0.052800 1.550000 -0.091452
v -0.091452 1.550000 -0.052800
v -0.105600 1.550000 -0.000000
v -0.091452 1.550000 0.052800
v -0.052800 1.550000 0.091452
v -0.000000 1.550000 0.105600
v 0.052800 1.550000 0.091452
v 0.091452 1.550000 0.052800
v 0.104720 2.000000 0.000000
v 0.090690 2.000000 -0.052360
v 0.052360 2.000000 -0.090690
v 0.000000 2.000000 -0.104720
v -0.052360 2.000000 -0.090690
v -0.090690 2.000000 -0.052360
v -0.104720 2.000000 -0.000000
v -0.090690 2.000000 0.052360
v -0.052360 2.000000 0.090690
v -0.000000 2.000000 0.104720
v 0.052360 2.000000 0.090690
v 0.090690 2.000000 0.052360
v 0.103840 2.450000 0.000000
v 0.089928 2.450000 -0.051920
v 0.051920 2.450000 -0.089928
v 0.000000 2.450000 -0.103840
v -0.051920 2.450000 -0.089928
v -0.089928 2.450000 -0.051920
v -0.103840 2.450000 -0.000000
v -0.089928 2.450000 0.051920
v -0.051920 2.450000 0.089928
v -0.000000 2.450000 0.103840
v 0.051920 2.450000 0.089928
v 0.089928 2.450000 0.051920
v 0.102960 2.900000 0.000000
v 0.089166 2.900000 -0.051480
v 0.051480 2.900000 -0.089166
v 0.000000 2.900000 -0.102960
v -0.051480 2.900000 -0.089166
v -0.089166 2.900000 -0.051480
v -0.102960 2.900000 -0.000000
v -0.089166 2.900000 0.051480
v -0.051480 2.900000 0.089166
v -0.000000 2.900000 0.102960
v 0.051480 2.900000 0.089166
v 0.089166 2.900000 0.051480
v 0.102080 3.350000 0.000000
v 0.088404 3.350000 -0.051040
v 0.051040 3.350000 -0.088404
v 0.000000 3.350000 -0.102080
v -0.051040 3.350000 -0.088404
v -0.088404 3.350000 -0.051040
v -0.102080 3.350000 -0.000000
v -0.088404 3.350000 0.051040
v -0.051040 3.350000 0.088404
v -0.000000 3.350000 0.102080
v 0.051040 3.350000 0.088404
v 0.088404 3.350000 0.051040
v 0.103788 -0.700000 0.000000
v 0.109988 -0.694000 0.000000
v 0.108177 -0.698243 0.000000
v 0.089883 -0.700000 -0.051894
v 0.095253 -0.694000 -0.054994
v 0.093684 -0.698243 -0.054089
v 0.051894 -0.700000 -0.089883
v 0.054994 -0.694000 -0.095253
v 0.054089 -0.698243 -0.093684
v 0.000000 -0.700000 -0.103788
v 0.000000 -0.694000 -0.109988
v 0.000000 -0.698243 -0.108177
v -0.051894 -0.700000 -0.089883
v -0.054994 -0.694000 -0.095253
v -0.054089 -0.698243 -0.093684
v -0.089883 -0.700000 -0.051894
v -0.095253 -0.694000 -0.054994
v -0.093684 -0.698243 -0.054089
v -0.103788 -0.700000 0.000000
v -0.109988 -0.694000 -0.000000
v -0.108177 -0.698243 0.000000
v -0.089883 -0.700000 0.051894
v -0.095253 -0.694000 0.054994
v -0.093684 -0.698243 0.054089
v -0.051894 -0.700000 0.089883
v -0.054994 -0.694000 0.095253
v -0.054089 -0.698243 0.093684
v 0.000000 -0.700000 0.103788
v -0.000000 -0.694000 0.109988
v 0.000000 -0.698243 0.108177
v 0.051894 -0.700000 0.089883
v 0.054994 -0.694000 0.095253
v 0.054089 -0.698243 0.093684
v 0.089883 -0.700000 0.051894
v 0.095253 -0.694000 0.054994
v 0.093684 -0.698243 0.054089
v 0.094988 3.800000 0.000000
v 0.101212 3.794000 0.000000
v 0.099384 3.798243 0.000000
v 0.082262 3.800000 -0.047494
v 0.087652 3.794000 -0.050606
v 0.086069 3.798243 -0.049692
v 0.047494 3.800000 -0.082262
v 0.050606 3.794000 -0.087652
v 0.049692 3.798243 -0.086069
v 0.000000 3.800000 -0.094988
v 0.000000 3.794000 -0.101212
v 0.000000 3.798243 -0.099384
v -0.047494 3.800000 -0.082262
v -0.050606 3.794000 -0.087652
v -0.049692 3.798243 -0.086069
v -0.082262 3.800000 -0.047494
v -0.087652 3.794000 -0.050606
v -0.086069 3.798243 -0.049692
v -0.094988 3.800000 -0.000000
v -0.101212 3.794000 -0.000000
v -0.099384 3.798243 -0.000000
v -0.082262 3.800000 0.047494
v -0.087652 3.794000 0.050606
v -0.086069 3.798243 0.049692
v -0.047494 3.800000 0.082262
v -0.050606 3.794000 0.087652
v -0.049692 3.798243 0.086069
v -0.000000 3.800000 0.094988
v -0.000000 3.794000 0.101212
v -0.000000 3.798243 0.099384
v 0.047494 3.800000 0.082262
v 0.050606 3.794000 0.087652
v 0.049692 3.798243 0.086069
v 0.082262 3.800000 0.047494
v 0.087652 3.794000 0.050606
v 0.086069 3.798243 0.049692
v 0.127065 -0.444444 0.000000
v 0.114482 -0.444444 -0.055132
v 0.079224 -0.444444 -0.099344
v 0.028275 -0.444444 -0.123880
v -0.028275 -0.444444 -0.123880
v -0.079224 -0.444444 -0.099344
v -0.114482 -0.444444 -0.055132
v -0.127065 -0.444444 -0.000000
v -0.114482 -0.444444 0.055132
v -0.079224 -0.444444 0.099344
v -0.028275 -0.444444 0.123880
v 0.028275 -0.444444 0.123880
v 0.079224 -0.444444 0.099344
v 0.114482 -0.444444 0.055132
v 0.124220 -0.388889 0.000000
v 0.111918 -0.388889 -0.053897
v 0.077450 -0.388889 -0.097119
v 0.027642 -0.388889 -0.121105
v -0.027642 -0.388889 -0.121105
v -0.077450 -0.388889 -0.097119
v -0.111918 -0.388889 -0.053897
v -0.124220 -0.388889 -0.000000
v -0.111918 -0.388889 0.053897
v -0.077450 -0.388889 0.097119
v -0.027642 -0.388889 0.121105
v 0.027642 -0.388889 0.121105
v 0.077450 -0.388889 0.097119
v 0.111918 -0.388889 0.053897
v 0.128843 -0.333333 0.000000
v 0.116084 -0.333333 -0.055903
v 0.080332 -0.333333 -0.100734
v 0.028670 -0.333333 -0.125613
v -0.028670 -0.333333 -0.125613
v -0.080332 -0.333333 -0.100734
v -0.116084 -0.333333 -0.055903
v -0.128843 -0.333333 -0.000000
v -0.116084 -0.333333 0.055903
v -0.080332 -0.333333 0.100734
v -0.028670 -0.333333 0.125613
v 0.028670 -0.333333 0.125613
v 0.080332 -0.333333 0.100734
v 0.116084 -0.333333 0.055903
v 0.126285 -0.277778 0.000000
v 0.113779 -0.277778 -0.054793
v 0.078737 -0.277778 -0.098734
v 0.028101 -0.277778 -0.123119
v -0.028101 -0.277778 -0.123119
v -0.078737 -0.277778 -0.098734
v -0.113779 -0.277778 -0.054793
v -0.126285 -0.277778 -0.000000
v -0.113779 -0.277778 0.054793
v -0.078737 -0.277778 0.098734
v -0.028101 -0.277778 0.123119
v 0.028101 -0.277778 0.123119
v 0.078737 -0.277778 0.098734
v 0.113779 -0.277778 0.054793
v 0.117054 -0.222222 0.000000
v 0.105462 -0.222222 -0.050788
v 0.072982 -0.222222 -0.091516
v 0.026047 -0.222222 -0.114119
v -0.026047 -0.222222 -0.114119
v -0.072982 -0.222222 -0.091516
v -0.105462 -0.222222 -0.050788
v -0.117054 -0.222222 -0.000000
v -0.105462 -0.222222 0.050788
v -0.072982 -0.222222 0.091516
v -0.026047 -0.222222 0.114119
v 0.026047 -0.222222 0.114119
v 0.072982 -0.222222 0.091516
v 0.105462 -0.222222 0.050788
v 0.115364 -0.166667 0.000000
v 0.103940 -0.166667 -0.050055
v 0.071928 -0.166667 -0.090195
v 0.025671 -0.166667 -0.112472
v -0.025671 -0.166667 -0.112472
v -0.071928 -0.166667 -0.090195
v -0.103940 -0.166667 -0.050055
v -0.115364 -0.166667 -0.000000
v -0.103940 -0.166667 0.050055
v -0.071928 -0.166667 0.090195
v -0.025671 -0.166667 0.112472
v 0.025671 -0.166667 0.112472
v 0.071928 -0.166667 0.090195
v 0.103940 -0.166667 0.050055
v 0.120966 -0.111111 0.000000
v 0.108987 -0.111111 -0.052485
v 0.075421 -0.111111 -0.094575
v 0.026918 -0.111111 -0.117933
v -0.026918 -0.111111 -0.117933
v -0.075421 -0.111111 -0.094575
v -0.108987 -0.111111 -0.052485
v -0.120966 -0.111111 -0.000000
v -0.108987 -0.111111 0.052485
v -0.075421 -0.111111 0.094575
v -0.026918 -0.111111 0.117933
v 0.026918 -0.111111 0.117933
v 0.075421 -0.111111 0.094575
v 0.108987 -0.111111 0.052485
v 0.120158 -0.055556 0.000000
v 0.108259 -0.055556 -0.052135
v 0.074917 -0.055556 -0.093943
v 0.026738 -0.055556 -0.117146
v -0.026738 -0.055556 -0.117146
v -0.074917 -0.055556 -0.093943
v -0.108259 -0.055556 -0.052135
v -0.120158 -0.055556 -0.000000
v -0.108259 -0.055556 0.052135
v -0.074917 -0.055556 0.093943
v -0.026738 -0.055556 0.117146
v 0.026738 -0.055556 0.117146
v 0.074917 -0.055556 0.093943
v 0.108259 -0.055556 0.052135
v 0.113100 0.000000 0.000000
v 0.101900 0.000000 -0.049072
v 0.070517 0.000000 -0.088425
v 0.025167 0.000000 -0.110264
v -0.025167 0.000000 -0.110264
v -0.070517 0.000000 -0.088425
v -0.101900 0.000000 -0.049072
v -0.113100 0.000000 -0.000000
v -0.101900 0.000000 0.049072
v -0.070517 0.000000 0.088425
v -0.025167 0.000000 0.110264
v 0.025167 0.000000 0.110264
v 0.070517 0.000000 0.088425
v 0.101900 0.000000 0.049072
v 0.113357 0.055556 0.000000
v 0.102131 0.055556 -0.049184
v 0.070677 0.055556 -0.088626
v 0.025224 0.055556 -0.110515
v -0.025224 0.055556 -0.110515
v -0.070677 0.055556 -0.088626
v -0.102131 0.055556 -0.049184
v -0.113357 0.055556 -0.000000
v -0.102131 0.055556 0.049184
v -0.070677 0.055556 0.088626
v -0.025224 0.055556 0.110515
v 0.025224 0.055556 0.110515
v 0.070677 0.055556 0.088626
v 0.102131 0.055556 0.049184
v 0.114119 0.111111 0.000000
v 0.102818 0.111111 -0.049514
v 0.071152 0.111111 -0.089222
v 0.025394 0.111111 -0.111258
v -0.025394 0.111111 -0.111258
v -0.071152 0.111111 -0.089222
v -0.102818 0.111111 -0.049514
v -0.114119 0.111111 -0.000000
v -0.102818 0.111111 0.049514
v -0.071152 0.111111 0.089222
v -0.025394 0.111111 0.111258
v 0.025394 0.111111 0.111258
v 0.071152 0.111111 0.089222
v 0.102818 0.111111 0.049514
v 0.122286 0.166667 0.000000
v 0.110176 0.166667 -0.053058
v 0.076244 0.166667 -0.095607
v 0.027211 0.166667 -0.119220
v -0.027211 0.166667 -0.119220
v -0.076244 0.166667 -0.095607
v -0.110176 0.166667 -0.053058
v -0.122286 0.166667 -0.000000
v -0.110176 0.166667 0.053058
v -0.076244 0.166667 0.095607
v -0.027211 0.166667 0.119220
v 0.027211 0.166667 0.119220
v 0.076244 0.166667 0.095607
v 0.110176 0.166667 0.053058
v 0.124077 0.222222 0.000000
v 0.111790 0.222222 -0.053835
v 0.077361 0.222222 -0.097007
v 0.027610 0.222222 -0.120966
v -0.027610 0.222222 -0.120966
v -0.077361 0.222222 -0.097007
v -0.111790 0.222222 -0.053835
v -0.124077 0.222222 -0.000000
v -0.111790 0.222222 0.053835
v -0.077361 0.222222 0.097007
v -0.027610 0.222222 0.120966
v 0.027610 0.222222 0.120966
v 0.077361 0.222222 0.097007
v 0.111790 0.222222 0.053835
v 0.119137 0.277778 0.000000
v 0.107339 0.277778 -0.051692
v 0.074281 0.277778 -0.093145
v 0.026510 0.277778 -0.116150
v -0.026510 0.277778 -0.116150
v -0.074281 0.277778 -0.093145
v -0.107339 0.277778 -0.051692
v -0.119137 0.277778 -0.000000
v -0.107339 0.277778 0.051692
v -0.074281 0.277778 0.093145
v -0.026510 0.277778 0.116150
v 0.026510 0.277778 0.116150
v 0.074281 0.277778 0.093145
v 0.107339 0.277778 0.051692
v 0.121550 0.333333 0.000000
v 0.109513 0.333333 -0.052739
v 0.075785 0.333333 -0.095032
v 0.027047 0.333333 -0.118502
v -0.027047 0.333333 -0.118502
v -0.075785 0.333333 -0.095032
v -0.109513 0.333333 -0.052739
v -0.121550 0.333333 -0.000000
v -0.109513 0.333333 0.052739
v -0.075785 0.333333 0.095032
v -0.027047 0.333333 0.118502
v 0.027047 0.333333 0.118502
v 0.075785 0.333333 0.095032
v 0.109513 0.333333 0.052739
v 0.131673 0.388889 0.000000
v 0.118633 0.388889 -0.057131
v 0.082097 0.388889 -0.102946
v 0.029300 0.388889 -0.128372
v -0.029300 0.388889 -0.128372
v -0.082097 0.388889 -0.102946
v -0.118633 0.388889 -0.057131
v -0.131673 0.388889 -0.000000
v -0.118633 0.388889 0.057131
v -0.082097 0.388889 0.102946
v -0.029300 0.388889 0.128372
v 0.029300 0.388889 0.128372
v 0.082097 0.388889 0.102946
v 0.118633 0.388889 0.057131
v 0.134689 0.444444 0.000000
v 0.121351 0.444444 -0.058439
v 0.083977 0.444444 -0.105304
v 0.029971 0.444444 -0.131312
v -0.029971 0.444444 -0.131312
v -0.083977 0.444444 -0.105304
v -0.121351 0.444444 -0.058439
v -0.134689 0.444444 -0.000000
v -0.121351 0.444444 0.058439
v -0.083977 0.444444 0.105304
v -0.029971 0.444444 0.131312
v 0.029971 0.444444 0.131312
v 0.083977 0.444444 0.105304
v 0.121351 0.444444 0.058439
v 0.123846 -0.500000 0.000000
v 0.129683 -0.494008 0.000000
v 0.128105 -0.498245 0.000000
v 0.111581 -0.500000 -0.053735
v 0.116841 -0.494008 -0.056268
v 0.115418 -0.498245 -0.055583
v 0.077217 -0.500000 -0.096826
v 0.080856 -0.494008 -0.101391
v 0.079872 -0.498245 -0.100156
v 0.027558 -0.500000 -0.120741
v 0.028857 -0.494008 -0.126432
v 0.028506 -0.498245 -0.124893
v -0.027558 -0.500000 -0.120741
v -0.028857 -0.494008 -0.126432
v -0.028506 -0.498245 -0.124893
v -0.077217 -0.500000 -0.096826
v -0.080856 -0.494008 -0.101391
v -0.079872 -0.498245 -0.100156
v -0.111581 -0.500000 -0.053735
v -0.116841 -0.494008 -0.056268
v -0.115418 -0.498245 -0.055583
v -0.123846 -0.500000 -0.000000
v -0.129683 -0.494008 -0.000000
v -0.128105 -0.498245 -0.000000
v -0.111581 -0.500000 0.053735
v -0.116841 -0.494008 0.056268
v -0.115418 -0.498245 0.055583
v -0.077217 -0.500000 0.096826
v -0.080856 -0.494008 0.101391
v -0.079872 -0.498245 0.100156
v -0.027558 -0.500000 0.120741
v -0.028857 -0.494008 0.126432
v -0.028506 -0.498245 0.124893
v 0.027558 -0.500000 0.120741
v 0.028857 -0.494008 0.126432
v 0.028506 -0.498245 0.124893
v 0.077217 -0.500000 0.096826
v 0.080856 -0.494008 0.101391
v 0.079872 -0.498245 0.100156
v 0.111581 -0.500000 0.053735
v 0.116841 -0.494008 0.056268
v 0.115418 -0.498245 0.055583
v 0.123846 0.500000 -0.000000
v 0.130505 0.494020 0.000000
v 0.128345 0.498249 -0.000000
v 0.111581 0.500000 -0.053735
v 0.117581 0.494020 -0.056624
v 0.115635 0.498249 -0.055687
v 0.077217 0.500000 -0.096826
v 0.081368 0.494020 -0.102033
v 0.080022 0.498249 -0.100344
v 0.027558 0.500000 -0.120741
v 0.029040 0.494020 -0.127233
v 0.028560 0.498249 -0.125127
v -0.027558 0.500000 -0.120741
v -0.029040 0.494020 -0.127233
v -0.028560 0.498249 -0.125127
v -0.077217 0.500000 -0.096826
v -0.081368 0.494020 -0.102033
v -0.080022 0.498249 -0.100344
v -0.111581 0.500000 -0.053735
v -0.117581 0.494020 -0.056624
v -0.115635 0.498249 -0.055687
v -0.123846 0.500000 0.000000
v -0.130505 0.494020 -0.000000
v -0.128345 0.498249 0.000000
v -0.111581 0.500000 0.053735
v -0.117581 0.494020 0.056624
v -0.115635 0.498249 0.055687
v -0.077217 0.500000 0.096826
v -0.081368 0.494020 0.102033
v -0.080022 0.498249 0.100344
v -0.027558 0.500000 0.120741
v -0.029040 0.494020 0.127233
v -0.028560 0.498249 0.125127
v 0.027558 0.500000 0.120741
v 0.029040 0.494020 0.127233
v 0.028560 0.498249 0.125127
v 0.077217 0.500000 0.096826
v 0.081368 0.494020 0.102033
v 0.080022 0.498249 0.100344
v 0.111581 0.500000 0.053735
v 0.117581 0.494020 0.056624
v 0.115635 0.498249 0.055687
v 0.035000 3.594678 -0.143090
v 0.035000 3.590923 -0.150280
v 0.050000 3.629172 -0.165681
v 0.035000 3.587499 -0.143916
v 0.043660 3.597607 -0.149196
v 0.045607 3.607918 -0.160243
v 0.045607 3.612565 -0.151345
v 0.035000 3.909077 -0.449720
v 0.035000 3.934863 -0.457973
v 0.050000 3.925067 -0.444170
v 0.035000 3.920921 -0.457125
v 0.043660 3.921903 -0.454054
v 0.045607 3.932227 -0.453201
v 0.045607 3.913994 -0.447365
v 0.035000 4.345138 -0.402027
v 0.035000 4.354429 -0.386073
v 0.050000 4.338938 -0.387733
v 0.035000 4.354146 -0.396590
v 0.043660 4.351231 -0.394893
v 0.045607 4.349762 -0.386483
v 0.045607 4.343192 -0.397764
v 0.035000 4.285571 -0.213927
v 0.035000 4.265029 -0.200936
v 0.050000 4.270104 -0.215648
v 0.035000 4.277349 -0.204191
v 0.043660 4.275922 -0.206448
v 0.045607 4.266412 -0.205407
v 0.045607 4.280937 -0.214594
v 0.050000 3.958903 -0.235098
v 0.035000 3.960000 -0.220000
v 0.045607 3.959679 -0.224422
v -0.035000 3.594678 -0.143090
v -0.050000 3.629172 -0.165681
v -0.035000 3.590923 -0.150280
v -0.045607 3.612565 -0.151345
v -0.043660 3.597607 -0.149196
v -0.045607 3.607918 -0.160243
v -0.035000 3.587499 -0.143916
v -0.035000 3.909077 -0.449720
v -0.050000 3.925067 -0.444170
v -0.035000 3.934863 -0.457973
v -0.045607 3.913994 -0.447365
v -0.043660 3.921903 -0.454054
v -0.045607 3.932227 -0.453201
v -0.035000 3.920921 -0.457125
v -0.035000 4.345138 -0.402027
v -0.050000 4.338938 -0.387733
v -0.035000 4.354429 -0.386073
v -0.045607 4.343192 -0.397764
v -0.043660 4.351231 -0.394893
v -0.045607 4.349762 -0.386483
v -0.035000 4.354146 -0.396590
v -0.035000 4.285571 -0.213927
v -0.050000 4.270104 -0.215648
v -0.035000 4.265029 -0.200936
v -0.045607 4.280938 -0.214594
v -0.043660 4.275923 -0.206448
v -0.045607 4.266413 -0.205407
v -0.035000 4.277350 -0.204191
v -0.035000 3.960000 -0.220000
v -0.050000 3.958903 -0.235098
v -0.045607 3.959679 -0.224422
v -0.141420 3.594678 0.041234
v -0.147647 3.590923 0.044829
v -0.168484 3.629172 0.039539
v -0.142135 3.587499 0.041647
v -0.151037 3.597607 0.036787
v -0.161578 3.607918 0.040625
v -0.153872 3.612565 0.036176
v -0.406969 3.909077 0.194549
v -0.414117 3.934863 0.198676
v -0.409663 3.925067 0.178784
v -0.413382 3.920921 0.198252
v -0.415052 3.921903 0.189216
v -0.415287 3.932227 0.187104
v -0.410232 3.913994 0.184186
v -0.365665 4.345138 0.170702
v -0.351849 4.354429 0.162726
v -0.360787 4.338938 0.150565
v -0.360957 4.354146 0.167984
v -0.363817 4.351231 0.159636
v -0.357508 4.349762 0.153745
v -0.367277 4.343192 0.159386
v -0.202766 4.285571 0.076653
v -0.191515 4.265029 0.070157
v -0.211756 4.270104 0.064523
v -0.194334 4.277349 0.071784
v -0.200619 4.275922 0.065413
v -0.200691 4.266412 0.063207
v -0.208647 4.280937 0.067800
v -0.228601 3.958903 0.074248
v -0.208026 3.960000 0.079689
v -0.217158 3.959679 0.072715
v -0.106420 3.594678 0.101856
v -0.118484 3.629172 0.126142
v -0.112647 3.590923 0.105451
v -0.108266 3.612565 0.115169
v -0.107377 3.597607 0.112409
v -0.115971 3.607918 0.119618
v -0.107135 3.587499 0.102269
v -0.371969 3.909077 0.255171
v -0.359663 3.925067 0.265386
v -0.379117 3.934863 0.259298
v -0.364626 3.913994 0.263179
v -0.371392 3.921903 0.264838
v -0.369680 3.932227 0.266097
v -0.378382 3.920921 0.258873
v -0.330665 4.345138 0.231324
v -0.310787 4.338938 0.237168
v -0.316849 4.354429 0.223347
v -0.321671 4.343192 0.238379
v -0.320157 4.351231 0.235257
v -0.311901 4.349762 0.232738
v -0.325957 4.354146 0.228606
v -0.167766 4.285571 0.137274
v -0.161756 4.270104 0.151125
v -0.156515 4.265029 0.130779
v -0.163040 4.280938 0.146793
v -0.156959 4.275923 0.141035
v -0.155085 4.266413 0.142200
v -0.159334 4.277350 0.132406
v -0.173026 3.960000 0.140311
v -0.178601 3.958903 0.160850
v -0.171552 3.959679 0.151708
v 0.106420 3.594678 0.101856
v 0.112647 3.590923 0.105451
v 0.118484 3.629172 0.126142
v 0.107135 3.587499 0.102269
v 0.107377 3.597607 0.112409
v 0.115971 3.607918 0.119618
v 0.108266 3.612565 0.115169
v 0.371969 3.909077 0.255171
v 0.379117 3.934863 0.259297
v 0.359663 3.925067 0.265386
v 0.378382 3.920921 0.258873
v 0.371392 3.921903 0.264838
v 0.369680 3.932227 0.266097
v 0.364626 3.913994 0.263179
v 0.330665 4.345138 0.231324
v 0.316849 4.354429 0.223347
v 0.310787 4.338938 0.237168
v 0.325957 4.354146 0.228606
v 0.320157 4.351231 0.235257
v 0.311901 4.349762 0.232738
v 0.321671 4.343192 0.238379
v 0.167766 4.285571 0.137274
v 0.156515 4.265029 0.130779
v 0.161756 4.270104 0.151125
v 0.159334 4.277349 0.132406
v 0.156959 4.275922 0.141035
v 0.155085 4.266412 0.142200
v 0.163040 4.280937 0.146793
v 0.178601 3.958903 0.160850
v 0.173026 3.960000 0.140311
v 0.171552 3.959679 0.151707
v 0.141420 3.594678 0.041234
v 0.168484 3.629172 0.039539
v 0.147647 3.590923 0.044829
v 0.153872 3.612565 0.036176
v 0.151037 3.597607 0.036787
v 0.161578 3.607918 0.040625
v 0.142135 3.587499 0.041647
v 0.406969 3.909077 0.194549
v 0.409663 3.925067 0.178784
v 0.414117 3.934863 0.198676
v 0.410232 3.913994 0.184186
v 0.415052 3.921903 0.189216
v 0.415287 3.932227 0.187104
v 0.413382 3.920921 0.198252
v 0.365665 4.345138 0.170702
v 0.360787 4.338938 0.150565
v 0.351849 4.354429 0.162726
v 0.367277 4.343192 0.159386
v 0.363817 4.351231 0.159636
v 0.357508 4.349762 0.153745
v 0.360957 4.354146 0.167984
v 0.202766 4.285571 0.076653
v 0.211756 4.270104 0.064523
v 0.191515 4.265029 0.070157
v 0.208647 4.280938 0.067800
v 0.200619 4.275923 0.065413
v 0.200691 4.266413 0.063207
v 0.194334 4.277350 0.071784
v 0.208026 3.960000 0.079689
v 0.228601 3.958903 0.074248
v 0.217158 3.959679 0.072715
v 0.000000 3.720000 0.000000
v 0.260499 3.919001 0.189261
v -0.099500 3.919001 0.306234
v -0.321993 3.919002 0.000000
v -0.099500 3.919001 -0.306234
v 0.260499 3.919001 -0.189261
v 0.099500 4.240999 0.306234
v -0.260499 4.240999 0.189261
v -0.260499 4.240999 -0.189261
v 0.099500 4.240999 -0.306234
v 0.321993 4.240997 0.000000
v 0.000000 4.440000 0.000000
v -0.083816 3.843293 0.257963
v -0.058484 3.773764 0.179998
v -0.027938 3.731538 0.085987
v 0.073145 3.731538 0.053142
v 0.153116 3.773764 0.111244
v 0.219437 3.843293 0.159428
v 0.191499 3.899171 0.245417
v 0.094633 3.890734 0.291244
v -0.010670 3.899171 0.311106
v 0.292583 3.899172 -0.106286
v 0.306233 3.890735 0.000000
v 0.292583 3.899172 0.106286
v 0.073145 3.731538 -0.053142
v 0.153116 3.773764 -0.111244
v 0.219437 3.843293 -0.159428
v -0.271239 3.843295 0.000000
v -0.189263 3.773765 0.000000
v -0.090413 3.731538 0.000000
v -0.174230 3.899171 0.257963
v -0.247748 3.890735 0.179999
v -0.299178 3.899172 0.085987
v -0.083816 3.843293 -0.257963
v -0.058484 3.773764 -0.179998
v -0.027938 3.731538 -0.085987
v -0.299178 3.899172 -0.085987
v -0.247748 3.890735 -0.179999
v -0.174230 3.899171 -0.257963
v -0.010670 3.899171 -0.311106
v 0.094633 3.890734 -0.291244
v 0.191499 3.899171 -0.245417
v 0.344385 4.170414 0.053143
v 0.342381 4.080000 0.111245
v 0.309851 3.989586 0.159429
v 0.309851 3.989586 -0.159429
v 0.342381 4.080000 -0.111245
v 0.344385 4.170414 -0.053143
v 0.055877 4.170414 0.343952
v -0.000000 4.080000 0.360000
v -0.055877 3.989585 0.343952
v 0.247377 3.989585 0.245418
v 0.211603 4.080000 0.291246
v 0.156962 4.170414 0.311108
v -0.309851 4.170414 0.159429
v -0.342381 4.080000 0.111245
v -0.344385 3.989586 0.053143
v -0.156962 3.989585 0.311108
v -0.211603 4.080000 0.291246
v -0.247377 4.170414 0.245418
v -0.247377 4.170414 -0.245418
v -0.211603 4.080000 -0.291246
v -0.156962 3.989585 -0.311108
v -0.344385 3.989586 -0.053143
v -0.342381 4.080000 -0.111245
v -0.309851 4.170414 -0.159429
v 0.156962 4.170414 -0.311108
v 0.211603 4.080000 -0.291246
v 0.247377 3.989585 -0.245418
v -0.055877 3.989585 -0.343952
v 0.000000 4.080000 -0.360000
v 0.055877 4.170414 -0.343952
v 0.299178 4.260828 0.085987
v 0.247748 4.269265 0.179999
v 0.174230 4.260828 0.257963
v 0.010670 4.260828 0.311106
v -0.094633 4.269266 0.291244
v -0.191499 4.260828 0.245417
v -0.292583 4.260828 0.106286
v -0.306233 4.269265 -0.000000
v -0.292583 4.260828 -0.106286
v -0.191499 4.260828 -0.245417
v -0.094633 4.269266 -0.291244
v 0.010670 4.260828 -0.311106
v 0.174230 4.260828 -0.257963
v 0.247748 4.269265 -0.179999
v 0.299178 4.260828 -0.085987
v 0.027938 4.428462 0.085987
v 0.058484 4.386236 0.179998
v 0.083816 4.316707 0.257963
v 0.271239 4.316705 0.000000
v 0.189263 4.386234 0.000000
v 0.090413 4.428462 0.000000
v -0.073145 4.428462 0.053142
v -0.153116 4.386235 0.111244
v -0.219437 4.316707 0.159428
v -0.073145 4.428462 -0.053142
v -0.153116 4.386235 -0.111244
v -0.219437 4.316707 -0.159428
v 0.027938 4.428462 -0.085987
v 0.058484 4.386236 -0.179998
v 0.083816 4.316707 -0.257963
v 0.130248 4.401994 -0.094631
v 0.229750 4.340499 -0.094631
v 0.160995 4.340500 -0.189262
v -0.049751 4.401995 -0.153115
v -0.019004 4.340500 -0.247747
v -0.130249 4.340500 -0.211600
v -0.160996 4.401994 0.000000
v -0.241494 4.340500 -0.058485
v -0.241494 4.340500 0.058485
v -0.049751 4.401995 0.153115
v -0.130249 4.340500 0.211600
v -0.019004 4.340500 0.247747
v 0.130248 4.401994 0.094631
v 0.160995 4.340500 0.189262
v 0.229750 4.340499 0.094631
v 0.310249 4.179502 -0.153116
v 0.291247 4.080000 -0.211602
v 0.241495 4.179503 -0.247748
v -0.049751 4.179503 -0.342380
v -0.111246 4.080000 -0.342380
v -0.160997 4.179503 -0.306234
v -0.340997 4.179502 -0.058485
v -0.360000 4.080000 0.000000
v -0.340997 4.179502 0.058485
v -0.160998 4.179503 0.306233
v -0.111246 4.079999 0.342380
v -0.049752 4.179503 0.342380
v 0.241495 4.179502 0.247748
v 0.291247 4.079999 0.211602
v 0.310249 4.179502 0.153116
v 0.111246 4.080000 -0.342380
v 0.160998 3.980497 -0.306233
v 0.049752 3.980497 -0.342380
v -0.291247 4.080000 -0.211602
v -0.241495 3.980497 -0.247749
v -0.310249 3.980497 -0.153117
v -0.291247 4.080000 0.211602
v -0.310249 3.980497 0.153117
v -0.241495 3.980497 0.247749
v 0.111246 4.080000 0.342380
v 0.049752 3.980497 0.342380
v 0.160998 3.980497 0.306233
v 0.360000 4.080000 0.000000
v 0.340997 3.980497 0.058485
v 0.340997 3.980497 -0.058485
v 0.130249 3.819500 -0.211601
v 0.049751 3.758005 -0.153116
v 0.019004 3.819500 -0.247747
v -0.160996 3.819500 -0.189262
v -0.130248 3.758006 -0.094631
v -0.229750 3.819500 -0.094631
v -0.229750 3.819500 0.094631
v -0.130248 3.758006 0.094631
v -0.160996 3.819500 0.189262
v 0.241494 3.819500 -0.058484
v 0.241494 3.819500 0.058485
v 0.160996 3.758006 0.000000
v 0.019005 3.819500 0.247747
v 0.049752 3.758005 0.153115
v 0.130250 3.819500 0.211601
v -0.061100 3.480000 0.061100
v -0.061100 3.484200 0.065000
v -0.065000 3.484200 0.061100
v -0.061100 3.481230 0.063858
v -0.063352 3.481775 0.063352
v -0.063858 3.484200 0.063858
v -0.063858 3.481230 0.061100
v -0.061100 3.615800 0.065000
v -0.061100 3.620000 0.061100
v -0.065000 3.615800 0.061100
v -0.061100 3.618770 0.063858
v -0.063352 3.618225 0.063352
v -0.063858 3.618770 0.061100
v -0.063858 3.615800 0.063858
v -0.061100 3.480000 -0.061100
v -0.065000 3.484200 -0.061100
v -0.061100 3.484200 -0.065000
v -0.063858 3.481230 -0.061100
v -0.063352 3.481775 -0.063352
v -0.063858 3.484200 -0.063858
v -0.061100 3.481230 -0.063858
v -0.061100 3.620000 -0.061100
v -0.061100 3.615800 -0.065000
v -0.065000 3.615800 -0.061100
v -0.061100 3.618770 -0.063858
v -0.063352 3.618225 -0.063352
v -0.063858 3.615800 -0.063858
v -0.063858 3.618770 -0.061100
v 0.061100 3.480000 0.061100
v 0.065000 3.484200 0.061100
v 0.061100 3.484200 0.065000
v 0.063858 3.481230 0.061100
v 0.063352 3.481775 0.063352
v 0.063858 3.484200 0.063858
v 0.061100 3.481230 0.063858
v 0.061100 3.620000 0.061100
v 0.061100 3.615800 0.065000
v 0.065000 3.615800 0.061100
v 0.061100 3.618770 0.063858
v 0.063352 3.618225 0.063352
v 0.063858 3.615800 0.063858
v 0.063858 3.618770 0.061100
v 0.061100 3.480000 -0.061100
v 0.061100 3.484200 -0.065000
v 0.065000 3.484200 -0.061100
v 0.061100 3.481230 -0.063858
v 0.063352 3.481775 -0.063352
v 0.063858 3.484200 -0.063858
v 0.063858 3.481230 -0.061100
v 0.061100 3.620000 -0.061100
v 0.065000 3.615800 -0.061100
v 0.061100 3.615800 -0.065000
v 0.063858 3.618770 -0.061100
v 0.063352 3.618225 -0.063352
v 0.063858 3.615800 -0.063858
v 0.061100 3.618770 -0.063858
vn 1.0000 0.0020 -0.0000
vn 0.8660 0.0020 -0.5000
vn 0.5000 0.0020 -0.8660
vn -0.0000 0.0020 -1.0000
vn -0.5000 0.0020 -0.8660
vn -0.8660 0.0020 -0.5000
vn -1.0000 0.0020 -0.0000
vn -0.8660 0.0020 0.5000
vn -0.5000 0.0020 0.8660
vn -0.0000 0.0020 1.0000
vn 0.5000 0.0020 0.8660
vn 0.8660 0.0020 0.5000
vn 0.2193 -0.9757 -0.0000
vn 0.1899 -0.9757 -0.1097
vn 0.3219 -0.9283 -0.1859
vn 0.3717 -0.9283 -0.0000
vn 0.9197 -0.3926 -0.0000
vn 0.7965 -0.3926 -0.4599
vn 0.8497 -0.1932 -0.4906
vn 0.9812 -0.1932 -0.0000
vn 0.1097 -0.9757 -0.1899
vn 0.1859 -0.9283 -0.3219
vn 0.4599 -0.3926 -0.7965
vn 0.4906 -0.1932 -0.8497
vn -0.0000 -0.9757 -0.2193
vn -0.0000 -0.9283 -0.3717
vn -0.0000 -0.3926 -0.9197
vn -0.0000 -0.1932 -0.9812
vn -0.1097 -0.9757 -0.1899
vn -0.1859 -0.9283 -0.3219
vn -0.4599 -0.3926 -0.7965
vn -0.4906 -0.1932 -0.8497
vn -0.1899 -0.9757 -0.1097
vn -0.3219 -0.9283 -0.1859
vn -0.7965 -0.3926 -0.4599
vn -0.8497 -0.1932 -0.4906
vn -0.2193 -0.9757 -0.0000
vn -0.3717 -0.9283 -0.0000
vn -0.9197 -0.3926 -0.0000
vn -0.9812 -0.1932 -0.0000
vn -0.1899 -0.9757 0.1097
vn -0.3219 -0.9283 0.1859
vn -0.7965 -0.3926 0.4599
vn -0.8497 -0.1932 0.4906
vn -0.1097 -0.9757 0.1899
vn -0.1859 -0.9283 0.3219
vn -0.4599 -0.3926 0.7965
vn -0.4906 -0.1932 0.8497
vn -0.0000 -0.9757 0.2193
vn -0.0000 -0.9283 0.3717
vn -0.0000 -0.3926 0.9197
vn -0.0000 -0.1932 0.9812
vn 0.1097 -0.9757 0.1899
vn 0.1859 -0.9283 0.3219
vn 0.4599 -0.3926 0.7965
vn 0.4906 -0.1932 0.8497
vn 0.1899 -0.9757 0.1097
vn 0.3219 -0.9283 0.1859
vn 0.7965 -0.3926 0.4599
vn 0.8497 -0.1932 0.4906
vn 0.9805 0.1967 -0.0000
vn 0.8491 0.1966 -0.4902
vn 0.7954 0.3956 -0.4592
vn 0.9184 0.3956 -0.0000
vn 0.3712 0.9285 -0.0000
vn 0.3215 0.9285 -0.1856
vn 0.1897 0.9757 -0.1095
vn 0.2190 0.9757 -0.0000
vn 0.4902 0.1966 -0.8491
vn 0.4592 0.3956 -0.7954
vn 0.1856 0.9285 -0.3215
vn 0.1095 0.9757 -0.1897
vn -0.0000 0.1967 -0.9805
vn -0.0000 0.3956 -0.9184
vn -0.0000 0.9285 -0.3712
vn -0.0000 0.9757 -0.2190
vn -0.4902 0.1966 -0.8491
vn -0.4592 0.3956 -0.7954
vn -0.1856 0.9285 -0.3215
vn -0.1095 0.9757 -0.1897
vn -0.8491 0.1966 -0.4902
vn -0.7954 0.3956 -0.4592
vn -0.3215 0.9285 -0.1856
vn -0.1897 0.9757 -0.1095
vn -0.9805 0.1967 -0.0000
vn -0.9184 0.3956 -0.0000
vn -0.3712 0.9285 -0.0000
vn -0.2190 0.9757 -0.0000
vn -0.8491 0.1966 0.4902
vn -0.7954 0.3956 0.4592
vn -0.3215 0.9285 0.1856
vn -0.1897 0.9757 0.1095
vn -0.4902 0.1966 0.8491
vn -0.4592 0.3956 0.7954
vn -0.1856 0.9285 0.3215
vn -0.1095 0.9757 0.1897
vn -0.0000 0.1967 0.9805
vn -0.0000 0.3956 0.9184
vn -0.0000 0.9285 0.3712
vn -0.0000 0.9757 0.2190
vn 0.4902 0.1966 0.8491
vn 0.4592 0.3956 0.7954
vn 0.1856 0.9285 0.3215
vn 0.1095 0.9757 0.1897
vn 0.8491 0.1966 0.4902
vn 0.7954 0.3956 0.4592
vn 0.3215 0.9285 0.1856
vn 0.1897 0.9757 0.1095
vn 0.9986 0.0520 -0.0000
vn 0.8998 0.0520 -0.4333
vn 0.9009 -0.0161 -0.4338
vn 0.9999 -0.0161 -0.0000
vn 0.6226 0.0520 -0.7808
vn 0.6234 -0.0161 -0.7817
vn 0.2222 0.0520 -0.9736
vn 0.2225 -0.0161 -0.9748
vn -0.2222 0.0520 -0.9736
vn -0.2225 -0.0161 -0.9748
vn -0.6226 0.0520 -0.7808
vn -0.6234 -0.0161 -0.7817
vn -0.8998 0.0520 -0.4333
vn -0.9009 -0.0161 -0.4338
vn -0.9986 0.0520 -0.0000
vn -0.9999 -0.0161 -0.0000
vn -0.8998 0.0520 0.4333
vn -0.9009 -0.0161 0.4338
vn -0.6226 0.0520 0.7808
vn -0.6234 -0.0161 0.7817
vn -0.2222 0.0520 0.9736
vn -0.2225 -0.0161 0.9748
vn 0.2222 0.0520 0.9736
vn 0.2225 -0.0161 0.9748
vn 0.6226 0.0520 0.7808
vn 0.6234 -0.0161 0.7817
vn 0.8998 0.0520 0.4333
vn 0.9009 -0.0161 0.4338
vn 0.9008 -0.0183 -0.4338
vn 0.9998 -0.0183 -0.0000
vn 0.6234 -0.0183 -0.7817
vn 0.2225 -0.0183 -0.9748
vn -0.2225 -0.0183 -0.9748
vn -0.6234 -0.0183 -0.7817
vn -0.9008 -0.0183 -0.4338
vn -0.9998 -0.0183 -0.0000
vn -0.9008 -0.0183 0.4338
vn -0.6234 -0.0183 0.7817
vn -0.2225 -0.0183 0.9748
vn 0.2225 -0.0183 0.9748
vn 0.6234 -0.0183 0.7817
vn 0.9008 -0.0183 0.4338
vn 0.8961 0.1043 -0.4315
vn 0.9945 0.1043 -0.0000
vn 0.6201 0.1043 -0.7776
vn 0.2213 0.1043 -0.9696
vn -0.2213 0.1043 -0.9696
vn -0.6201 0.1043 -0.7776
vn -0.8961 0.1043 -0.4315
vn -0.9945 0.1043 -0.0000
vn -0.8961 0.1043 0.4315
vn -0.6201 0.1043 0.7776
vn -0.2213 0.1043 0.9696
vn 0.2213 0.1043 0.9696
vn 0.6201 0.1043 0.7776
vn 0.8961 0.1043 0.4315
vn 0.8966 0.0983 -0.4318
vn 0.9952 0.0983 -0.0000
vn 0.6205 0.0983 -0.7780
vn 0.2214 0.0983 -0.9702
vn -0.2214 0.0983 -0.9702
vn -0.6205 0.0983 -0.7780
vn -0.8966 0.0983 -0.4318
vn -0.9952 0.0983 -0.0000
vn -0.8966 0.0983 0.4318
vn -0.6205 0.0983 0.7780
vn -0.2214 0.0983 0.9702
vn 0.2214 0.0983 0.9702
vn 0.6205 0.0983 0.7780
vn 0.8966 0.0983 0.4318
vn 0.9004 -0.0354 -0.4336
vn 0.9994 -0.0354 -0.0000
vn 0.6231 -0.0354 -0.7813
vn 0.2224 -0.0354 -0.9743
vn -0.2224 -0.0354 -0.9743
vn -0.6231 -0.0354 -0.7813
vn -0.9004 -0.0354 -0.4336
vn -0.9994 -0.0354 -0.0000
vn -0.9004 -0.0354 0.4336
vn -0.6231 -0.0354 0.7813
vn -0.2224 -0.0354 0.9743
vn 0.2224 -0.0354 0.9743
vn 0.6231 -0.0354 0.7813
vn 0.9004 -0.0354 0.4336
vn 0.9002 -0.0426 -0.4335
vn 0.9991 -0.0426 -0.0000
vn 0.6229 -0.0426 -0.7811
vn 0.2223 -0.0426 -0.9740
vn -0.2223 -0.0426 -0.9740
vn -0.6229 -0.0426 -0.7811
vn -0.9002 -0.0426 -0.4335
vn -0.9991 -0.0426 -0.0000
vn -0.9002 -0.0426 0.4335
vn -0.6229 -0.0426 0.7811
vn -0.2223 -0.0426 0.9740
vn 0.2223 -0.0426 0.9740
vn 0.6229 -0.0426 0.7811
vn 0.9002 -0.0426 0.4335
vn 0.8988 0.0699 -0.4328
vn 0.9976 0.0699 -0.0000
vn 0.6220 0.0699 -0.7799
vn 0.2220 0.0699 -0.9725
vn -0.2220 0.0699 -0.9725
vn -0.6220 0.0699 -0.7799
vn -0.8988 0.0699 -0.4328
vn -0.9976 0.0699 -0.0000
vn -0.8988 0.0699 0.4328
vn -0.6220 0.0699 0.7799
vn -0.2220 0.0699 0.9725
vn 0.2220 0.0699 0.9725
vn 0.6220 0.0699 0.7799
vn 0.8988 0.0699 0.4328
vn 0.8993 0.0614 -0.4331
vn 0.9981 0.0614 -0.0000
vn 0.6223 0.0614 -0.7804
vn 0.2221 0.0614 -0.9731
vn -0.2221 0.0614 -0.9731
vn -0.6223 0.0614 -0.7804
vn -0.8993 0.0614 -0.4331
vn -0.9981 0.0614 -0.0000
vn -0.8993 0.0614 0.4331
vn -0.6223 0.0614 0.7804
vn -0.2221 0.0614 0.9731
vn 0.2221 0.0614 0.9731
vn 0.6223 0.0614 0.7804
vn 0.8993 0.0614 0.4331
vn 0.9009 -0.0092 -0.4339
vn 1.0000 -0.0092 -0.0000
vn 0.6235 -0.0092 -0.7818
vn 0.2225 -0.0092 -0.9749
vn -0.2225 -0.0092 -0.9749
vn -0.6235 -0.0092 -0.7818
vn -0.9009 -0.0092 -0.4339
vn -1.0000 -0.0092 -0.0000
vn -0.9009 -0.0092 0.4339
vn -0.6235 -0.0092 0.7818
vn -0.2225 -0.0092 0.9749
vn 0.2225 -0.0092 0.9749
vn 0.6235 -0.0092 0.7818
vn 0.9009 -0.0092 0.4339
vn 0.8980 -0.0805 -0.4325
vn 0.9968 -0.0805 -0.0000
vn 0.6215 -0.0805 -0.7793
vn 0.2218 -0.0805 -0.9718
vn -0.2218 -0.0805 -0.9718
vn -0.6215 -0.0805 -0.7793
vn -0.8980 -0.0805 -0.4325
vn -0.9968 -0.0805 -0.0000
vn -0.8980 -0.0805 0.4325
vn -0.6215 -0.0805 0.7793
vn -0.2218 -0.0805 0.9718
vn 0.2218 -0.0805 0.9718
vn 0.6215 -0.0805 0.7793
vn 0.8980 -0.0805 0.4325
vn 0.8975 -0.0883 -0.4322
vn 0.9961 -0.0883 -0.0000
vn 0.6211 -0.0883 -0.7788
vn 0.2217 -0.0883 -0.9711
vn -0.2217 -0.0883 -0.9711
vn -0.6211 -0.0883 -0.7788
vn -0.8975 -0.0883 -0.4322
vn -0.9961 -0.0883 -0.0000
vn -0.8975 -0.0883 0.4322
vn -0.6211 -0.0883 0.7788
vn -0.2217 -0.0883 0.9711
vn 0.2217 -0.0883 0.9711
vn 0.6211 -0.0883 0.7788
vn 0.8975 -0.0883 0.4322
vn 0.9006 0.0280 -0.4337
vn 0.9996 0.0280 -0.0000
vn 0.6232 0.0280 -0.7815
vn 0.2224 0.0280 -0.9745
vn -0.2224 0.0280 -0.9745
vn -0.6232 0.0280 -0.7815
vn -0.9006 0.0280 -0.4337
vn -0.9996 0.0280 -0.0000
vn -0.9006 0.0280 0.4337
vn -0.6232 0.0280 0.7815
vn -0.2224 0.0280 0.9745
vn 0.2224 0.0280 0.9745
vn 0.6232 0.0280 0.7815
vn 0.9006 0.0280 0.4337
vn 0.9007 0.0229 -0.4338
vn 0.9997 0.0229 -0.0000
vn 0.6233 0.0229 -0.7816
vn 0.2225 0.0229 -0.9747
vn -0.2225 0.0229 -0.9747
vn -0.6233 0.0229 -0.7816
vn -0.9007 0.0229 -0.4338
vn -0.9997 0.0229 -0.0000
vn -0.9007 0.0229 0.4338
vn -0.6233 0.0229 0.7816
vn -0.2225 0.0229 0.9747
vn 0.2225 0.0229 0.9747
vn 0.6233 0.0229 0.7816
vn 0.9007 0.0229 0.4338
vn 0.8952 -0.1127 -0.4311
vn 0.9936 -0.1127 -0.0000
vn 0.6195 -0.1127 -0.7769
vn 0.2211 -0.1127 -0.9687
vn -0.2211 -0.1127 -0.9687
vn -0.6195 -0.1127 -0.7769
vn -0.8952 -0.1127 -0.4311
vn -0.9936 -0.1127 -0.0000
vn -0.8952 -0.1127 0.4311
vn -0.6195 -0.1127 0.7769
vn -0.2211 -0.1127 0.9687
vn 0.2211 -0.1127 0.9687
vn 0.6195 -0.1127 0.7769
vn 0.8952 -0.1127 0.4311
vn 0.8949 -0.1159 -0.4310
vn 0.9933 -0.1159 -0.0000
vn 0.6193 -0.1159 -0.7766
vn 0.2210 -0.1159 -0.9684
vn -0.2210 -0.1159 -0.9684
vn -0.6193 -0.1159 -0.7766
vn -0.8949 -0.1159 -0.4310
vn -0.9933 -0.1159 -0.0000
vn -0.8949 -0.1159 0.4310
vn -0.6193 -0.1159 0.7766
vn -0.2210 -0.1159 0.9684
vn 0.2210 -0.1159 0.9684
vn 0.6193 -0.1159 0.7766
vn 0.8949 -0.1159 0.4310
vn 0.9009 0.0148 -0.4338
vn 0.9999 0.0148 -0.0000
vn 0.6234 0.0148 -0.7817
vn 0.2225 0.0148 -0.9748
vn -0.2225 0.0148 -0.9748
vn -0.6234 0.0148 -0.7817
vn -0.9009 0.0148 -0.4338
vn -0.9999 0.0148 -0.0000
vn -0.9009 0.0148 0.4338
vn -0.6234 0.0148 0.7817
vn -0.2225 0.0148 0.9748
vn 0.2225 0.0148 0.9748
vn 0.6234 0.0148 0.7817
vn 0.9009 0.0148 0.4338
vn 0.2206 -0.9754 -0.0000
vn 0.1987 -0.9754 -0.0957
vn 0.3433 -0.9246 -0.1653
vn 0.3810 -0.9246 -0.0000
vn 0.9371 -0.3492 -0.0000
vn 0.8443 -0.3492 -0.4066
vn 0.8912 -0.1472 -0.4292
vn 0.9891 -0.1472 -0.0000
vn 0.1375 -0.9754 -0.1725
vn 0.2375 -0.9246 -0.2979
vn 0.5843 -0.3492 -0.7326
vn 0.6167 -0.1472 -0.7733
vn 0.0491 -0.9754 -0.2150
vn 0.0848 -0.9246 -0.3714
vn 0.2085 -0.3492 -0.9136
vn 0.2201 -0.1472 -0.9643
vn -0.0491 -0.9754 -0.2150
vn -0.0848 -0.9246 -0.3714
vn -0.2085 -0.3492 -0.9136
vn -0.2201 -0.1472 -0.9643
vn -0.1375 -0.9754 -0.1725
vn -0.2375 -0.9246 -0.2979
vn -0.5843 -0.3492 -0.7326
vn -0.6167 -0.1472 -0.7733
vn -0.1987 -0.9754 -0.0957
vn -0.3433 -0.9246 -0.1653
vn -0.8443 -0.3492 -0.4066
vn -0.8912 -0.1472 -0.4292
vn -0.2206 -0.9754 -0.0000
vn -0.3810 -0.9246 -0.0000
vn -0.9371 -0.3492 -0.0000
vn -0.9891 -0.1472 -0.0000
vn -0.1987 -0.9754 0.0957
vn -0.3433 -0.9246 0.1653
vn -0.8443 -0.3492 0.4066
vn -0.8912 -0.1472 0.4292
vn -0.1375 -0.9754 0.1725
vn -0.2375 -0.9246 0.2979
vn -0.5843 -0.3492 0.7326
vn -0.6167 -0.1472 0.7733
vn -0.0491 -0.9754 0.2150
vn -0.0848 -0.9246 0.3714
vn -0.2085 -0.3492 0.9136
vn -0.2201 -0.1472 0.9643
vn 0.0491 -0.9754 0.2150
vn 0.0848 -0.9246 0.3714
vn 0.2085 -0.3492 0.9136
vn 0.2201 -0.1472 0.9643
vn 0.1375 -0.9754 0.1725
vn 0.2375 -0.9246 0.2979
vn 0.5843 -0.3492 0.7326
vn 0.6167 -0.1472 0.7733
vn 0.1987 -0.9754 0.0957
vn 0.3433 -0.9246 0.1653
vn 0.8443 -0.3492 0.4066
vn 0.8912 -0.1472 0.4292
vn 0.9635 0.2677 -0.0000
vn 0.8681 0.2677 -0.4181
vn 0.8024 0.4548 -0.3864
vn 0.8906 0.4548 -0.0000
vn 0.3627 0.9319 -0.0000
vn 0.3268 0.9319 -0.1574
vn 0.1890 0.9778 -0.0910
vn 0.2097 0.9778 -0.0000
vn 0.6007 0.2677 -0.7533
vn 0.5553 0.4548 -0.6963
vn 0.2262 0.9319 -0.2836
vn 0.1308 0.9778 -0.1640
vn 0.2144 0.2677 -0.9394
vn 0.1982 0.4548 -0.8683
vn 0.0807 0.9319 -0.3536
vn 0.0467 0.9778 -0.2045
vn -0.2144 0.2677 -0.9394
vn -0.1982 0.4548 -0.8683
vn -0.0807 0.9319 -0.3536
vn -0.0467 0.9778 -0.2045
vn -0.6007 0.2677 -0.7533
vn -0.5553 0.4548 -0.6963
vn -0.2262 0.9319 -0.2836
vn -0.1308 0.9778 -0.1640
vn -0.8681 0.2677 -0.4181
vn -0.8024 0.4548 -0.3864
vn -0.3268 0.9319 -0.1574
vn -0.1890 0.9778 -0.0910
vn -0.9635 0.2677 -0.0000
vn -0.8906 0.4548 -0.0000
vn -0.3627 0.9319 -0.0000
vn -0.2097 0.9778 -0.0000
vn -0.8681 0.2677 0.4181
vn -0.8024 0.4548 0.3864
vn -0.3268 0.9319 0.1574
vn -0.1890 0.9778 0.0910
vn -0.6007 0.2677 0.7533
vn -0.5553 0.4548 0.6963
vn -0.2262 0.9319 0.2836
vn -0.1308 0.9778 0.1640
vn -0.2144 0.2677 0.9394
vn -0.1982 0.4548 0.8683
vn -0.0807 0.9319 0.3536
vn -0.0467 0.9778 0.2045
vn 0.2144 0.2677 0.9394
vn 0.1982 0.4548 0.8683
vn 0.0807 0.9319 0.3536
vn 0.0467 0.9778 0.2045
vn 0.6007 0.2677 0.7533
vn 0.5553 0.4548 0.6963
vn 0.2262 0.9319 0.2836
vn 0.1308 0.9778 0.1640
vn 0.8681 0.2677 0.4181
vn 0.8024 0.4548 0.3864
vn 0.3268 0.9319 0.1574
vn 0.1890 0.9778 0.0910
vn 0.2766 0.0418 0.9601
vn 0.2119 -0.0782 0.9742
vn 0.5766 -0.0018 0.8170
vn 0.4138 0.1625 0.8958
vn 0.2790 -0.7636 -0.5824
vn 0.4345 -0.6352 -0.6386
vn 0.5766 -0.6716 -0.4653
vn 0.2119 -0.8442 -0.4924
vn 0.9942 -0.0974 0.0454
vn 0.9843 -0.1160 0.1333
vn 0.9845 -0.1554 0.0811
vn 0.9840 -0.1770 0.0178
vn 0.1988 -0.6075 -0.7690
vn 0.1918 -0.2992 -0.9347
vn 0.3874 -0.2811 -0.8780
vn 0.3912 -0.5679 -0.7242
vn 0.2000 0.0479 -0.9786
vn 0.3930 0.0417 -0.9186
vn 0.9592 -0.0861 -0.2692
vn 0.9024 -0.2326 -0.3628
vn 0.8534 -0.1589 -0.4965
vn 0.9020 -0.0211 -0.4312
vn 0.1959 0.3182 -0.9276
vn 0.1748 0.4898 -0.8541
vn 0.3649 0.4412 -0.8199
vn 0.3962 0.2667 -0.8786
vn 0.1909 0.9647 0.1814
vn 0.3852 0.9002 0.2030
vn 0.3649 0.9308 0.0208
vn 0.1748 0.9846 -0.0046
vn 0.9734 0.1970 -0.1172
vn 0.9300 0.2248 -0.2909
vn 0.9134 0.3518 -0.2049
vn 0.9313 0.3603 -0.0534
vn 0.1821 0.8500 0.4943
vn 0.1672 0.5270 0.8333
vn 0.3401 0.5026 0.7948
vn 0.3600 0.8053 0.4711
vn 0.1811 0.0823 0.9800
vn 0.3583 0.0804 0.9302
vn 0.9611 0.1478 0.2334
vn 0.9088 0.3262 0.2602
vn 0.8641 0.2690 0.4254
vn 0.9092 0.0953 0.4054
vn -0.2766 0.0418 0.9601
vn -0.4138 0.1625 0.8958
vn -0.5766 -0.0018 0.8170
vn -0.2119 -0.0782 0.9742
vn -0.9942 -0.0974 0.0454
vn -0.9840 -0.1770 0.0178
vn -0.9845 -0.1554 0.0811
vn -0.9843 -0.1160 0.1333
vn -0.2790 -0.7636 -0.5824
vn -0.2119 -0.8442 -0.4924
vn -0.5766 -0.6716 -0.4653
vn -0.4345 -0.6352 -0.6386
vn -0.1988 -0.6075 -0.7690
vn -0.3912 -0.5679 -0.7242
vn -0.3874 -0.2811 -0.8780
vn -0.1918 -0.2992 -0.9347
vn -0.9592 -0.0861 -0.2692
vn -0.9020 -0.0211 -0.4312
vn -0.8534 -0.1589 -0.4965
vn -0.9024 -0.2326 -0.3628
vn -0.2000 0.0480 -0.9786
vn -0.3930 0.0417 -0.9186
vn -0.1959 0.3182 -0.9276
vn -0.3962 0.2667 -0.8786
vn -0.3649 0.4412 -0.8199
vn -0.1748 0.4898 -0.8541
vn -0.9734 0.1970 -0.1172
vn -0.9313 0.3603 -0.0534
vn -0.9134 0.3518 -0.2049
vn -0.9300 0.2248 -0.2909
vn -0.1909 0.9647 0.1814
vn -0.1748 0.9846 -0.0046
vn -0.3649 0.9308 0.0208
vn -0.3852 0.9002 0.2030
vn -0.1821 0.8500 0.4943
vn -0.3600 0.8053 0.4710
vn -0.3401 0.5027 0.7948
vn -0.1672 0.5270 0.8333
vn -0.9611 0.1478 0.2334
vn -0.9092 0.0953 0.4054
vn -0.8641 0.2690 0.4253
vn -0.9088 0.3262 0.2602
vn -0.1811 0.0823 0.9800
vn -0.3583 0.0804 0.9302
vn 0.9809 0.0141 0.1942
vn 0.9246 0.0275 0.3799
vn 0.3886 0.0671 0.9190
vn 0.2016 0.0711 0.9769
vn -0.2016 0.0711 0.9769
vn -0.3886 0.0671 0.9190
vn -0.9246 0.0275 0.3799
vn -0.9809 0.0141 0.1942
vn 0.6932 0.0418 -0.7196
vn 0.7377 -0.0782 -0.6706
vn 0.4193 -0.0018 -0.9079
vn 0.5688 0.1625 -0.8062
vn -0.6438 -0.7636 0.0496
vn -0.7703 -0.6352 -0.0571
vn -0.6913 -0.6716 -0.2667
vn -0.5324 -0.8442 0.0627
vn -0.4578 -0.0974 -0.8837
vn -0.3767 -0.1161 -0.9190
vn -0.4220 -0.1554 -0.8932
vn -0.4766 -0.1770 -0.8611
vn -0.7654 -0.6075 0.2123
vn -0.9054 -0.2992 0.3012
vn -0.9541 -0.2811 0.1035
vn -0.8228 -0.5679 0.0233
vn -0.9475 0.0479 0.3161
vn -0.9920 0.0417 0.1189
vn -0.7128 -0.0861 -0.6961
vn -0.7654 -0.2326 -0.6001
vn -0.8567 -0.1589 -0.4908
vn -0.8245 -0.0211 -0.5655
vn -0.9012 0.3182 0.2941
vn -0.8271 0.4898 0.2757
vn -0.8925 0.4412 0.0939
vn -0.9590 0.2667 0.0962
vn 0.0616 0.9647 -0.2560
vn -0.0168 0.9002 -0.4351
vn -0.1645 0.9308 -0.3264
vn -0.0913 0.9846 -0.1491
vn -0.5882 0.1970 -0.7844
vn -0.7169 0.2248 -0.6599
vn -0.6341 0.3518 -0.6886
vn -0.5119 0.3603 -0.7798
vn 0.3371 0.8500 -0.4049
vn 0.6380 0.5270 -0.5614
vn 0.5182 0.5026 -0.6920
vn 0.2280 0.8053 -0.5473
vn 0.7582 0.0823 -0.6468
vn 0.6264 0.0804 -0.7753
vn -0.2784 0.1478 -0.9490
vn -0.2291 0.3262 -0.9171
vn -0.0637 0.2690 -0.9610
vn -0.1035 0.0953 -0.9900
vn 0.9697 0.0418 -0.2405
vn 0.9826 0.1625 -0.0895
vn 0.9959 -0.0018 0.0908
vn 0.9496 -0.0782 -0.3035
vn 0.5364 -0.0974 0.8383
vn 0.5074 -0.1770 0.8433
vn 0.5625 -0.1554 0.8121
vn 0.6075 -0.1161 0.7858
vn -0.3649 -0.7636 0.5328
vn -0.3205 -0.8442 0.4297
vn -0.1146 -0.6716 0.7320
vn -0.3357 -0.6352 0.6956
vn -0.5666 -0.6075 0.5567
vn -0.4316 -0.5679 0.7009
vn -0.5667 -0.2811 0.7745
vn -0.7136 -0.2992 0.6335
vn 0.2465 -0.0861 0.9653
vn 0.0775 -0.0211 0.9968
vn -0.0033 -0.1589 0.9873
vn 0.1370 -0.2326 0.9629
vn -0.7475 0.0480 0.6625
vn -0.5990 0.0417 0.7997
vn -0.7053 0.3182 0.6334
vn -0.5627 0.2667 0.7824
vn -0.5275 0.4412 0.7260
vn -0.6523 0.4898 0.5784
vn 0.3852 0.1970 0.9016
vn 0.4194 0.3603 0.8332
vn 0.2793 0.3517 0.8935
vn 0.2130 0.2248 0.9508
vn 0.2525 0.9647 0.0747
vn 0.0834 0.9846 0.1536
vn 0.2004 0.9308 0.3056
vn 0.3684 0.9002 0.2321
vn 0.5191 0.8500 -0.0895
vn 0.5879 0.8053 0.0762
vn 0.8584 0.5027 -0.1028
vn 0.8052 0.5270 -0.2718
vn 0.6826 0.1478 0.7156
vn 0.8056 0.0953 0.5847
vn 0.8004 0.2690 0.5357
vn 0.6797 0.3262 0.6570
vn 0.9393 0.0823 -0.3332
vn 0.9847 0.0804 -0.1548
vn -0.3222 0.0141 -0.9466
vn -0.1333 0.0275 -0.9907
vn 0.6016 0.0671 -0.7960
vn 0.7452 0.0711 -0.6630
vn 0.9468 0.0711 -0.3139
vn 0.9901 0.0671 -0.1230
vn 0.7913 0.0275 0.6108
vn 0.6586 0.0141 0.7523
vn -0.9697 0.0418 -0.2405
vn -0.9496 -0.0782 -0.3035
vn -0.9959 -0.0018 0.0908
vn -0.9826 0.1625 -0.0895
vn 0.3649 -0.7636 0.5328
vn 0.3357 -0.6352 0.6956
vn 0.1146 -0.6716 0.7320
vn 0.3205 -0.8442 0.4298
vn -0.5364 -0.0974 0.8383
vn -0.6076 -0.1160 0.7858
vn -0.5625 -0.1554 0.8120
vn -0.5074 -0.1770 0.8433
vn 0.5666 -0.6075 0.5567
vn 0.7136 -0.2992 0.6335
vn 0.5667 -0.2811 0.7745
vn 0.4316 -0.5679 0.7009
vn 0.7475 0.0479 0.6625
vn 0.5990 0.0417 0.7997
vn -0.2465 -0.0861 0.9653
vn -0.1370 -0.2326 0.9629
vn 0.0033 -0.1589 0.9873
vn -0.0775 -0.0211 0.9968
vn 0.7053 0.3182 0.6334
vn 0.6523 0.4898 0.5784
vn 0.5276 0.4412 0.7260
vn 0.5628 0.2667 0.7824
vn -0.2525 0.9647 0.0747
vn -0.3684 0.9002 0.2321
vn -0.2005 0.9308 0.3056
vn -0.0834 0.9846 0.1536
vn -0.3852 0.1970 0.9016
vn -0.2130 0.2248 0.9508
vn -0.2793 0.3517 0.8935
vn -0.4194 0.3603 0.8332
vn -0.5192 0.8500 -0.0895
vn -0.8052 0.5270 -0.2718
vn -0.8584 0.5026 -0.1028
vn -0.5879 0.8053 0.0762
vn -0.9393 0.0823 -0.3332
vn -0.9847 0.0804 -0.1548
vn -0.6826 0.1478 0.7156
vn -0.6797 0.3262 0.6570
vn -0.8004 0.2690 0.5357
vn -0.8056 0.0953 0.5847
vn -0.6932 0.0418 -0.7196
vn -0.5688 0.1625 -0.8062
vn -0.4193 -0.0018 -0.9079
vn -0.7377 -0.0782 -0.6706
vn 0.4578 -0.0974 -0.8837
vn 0.4766 -0.1770 -0.8611
vn 0.4220 -0.1554 -0.8932
vn 0.3767 -0.1161 -0.9190
vn 0.6438 -0.7636 0.0496
vn 0.5324 -0.8442 0.0627
vn 0.6913 -0.6716 -0.2667
vn 0.7703 -0.6352 -0.0571
vn 0.7654 -0.6075 0.2123
vn 0.8228 -0.5679 0.0233
vn 0.9541 -0.2811 0.1035
vn 0.9054 -0.2992 0.3012
vn 0.7128 -0.0861 -0.6961
vn 0.8245 -0.0211 -0.5655
vn 0.8567 -0.1589 -0.4908
vn 0.7654 -0.2326 -0.6001
vn 0.9475 0.0479 0.3161
vn 0.9920 0.0417 0.1189
vn 0.9012 0.3182 0.2941
vn 0.9590 0.2667 0.0962
vn 0.8925 0.4412 0.0939
vn 0.8271 0.4898 0.2757
vn 0.5882 0.1970 -0.7844
vn 0.5119 0.3603 -0.7798
vn 0.6341 0.3518 -0.6886
vn 0.7169 0.2248 -0.6599
vn -0.0616 0.9647 -0.2560
vn 0.0913 0.9846 -0.1491
vn 0.1644 0.9308 -0.3264
vn 0.0168 0.9002 -0.4351
vn -0.3371 0.8500 -0.4048
vn -0.2280 0.8053 -0.5472
vn -0.5182 0.5027 -0.6919
vn -0.6380 0.5270 -0.5614
vn 0.2784 0.1478 -0.9490
vn 0.1035 0.0953 -0.9900
vn 0.0637 0.2690 -0.9610
vn 0.2291 0.3262 -0.9171
vn -0.7582 0.0823 -0.6468
vn -0.6264 0.0804 -0.7753
vn -0.6586 0.0141 0.7523
vn -0.7913 0.0275 0.6108
vn -0.9901 0.0671 -0.1230
vn -0.9468 0.0711 -0.3139
vn -0.7452 0.0711 -0.6630
vn -0.6016 0.0671 -0.7960
vn 0.1333 0.0275 -0.9907
vn 0.3222 0.0141 -0.9466
vn -0.0000 -1.0000 -0.0000
vn 0.2109 -0.9654 0.1533
vn -0.0806 -0.9654 0.2480
vn 0.7236 -0.4472 0.5257
vn 0.6042 -0.6650 0.4390
vn 0.8152 -0.5038 0.2857
vn -0.2607 -0.9654 -0.0000
vn -0.0806 -0.9654 -0.2480
vn 0.2110 -0.9654 -0.1533
vn 0.8650 -0.2431 0.4390
vn -0.2764 -0.4472 0.8506
vn -0.0198 -0.5038 0.8636
vn -0.1502 -0.2431 0.9583
vn -0.8944 -0.4472 -0.0000
vn -0.8274 -0.5038 0.2480
vn -0.9578 -0.2431 0.1533
vn -0.2764 -0.4472 -0.8506
vn -0.4915 -0.5038 -0.7103
vn -0.4417 -0.2431 -0.8636
vn 0.7236 -0.4472 -0.5257
vn 0.5237 -0.5038 -0.6870
vn 0.6848 -0.2431 -0.6870
vn 0.6848 -0.2431 0.6870
vn -0.4417 -0.2431 0.8636
vn -0.9578 -0.2431 -0.1533
vn -0.1502 -0.2431 -0.9583
vn 0.8650 -0.2431 -0.4390
vn 0.2764 0.4472 0.8506
vn 0.4915 0.5038 0.7103
vn 0.2308 0.6650 0.7103
vn -0.7236 0.4472 0.5257
vn -0.5237 0.5038 0.6870
vn -0.6042 0.6650 0.4390
vn -0.7236 0.4472 -0.5257
vn -0.8152 0.5038 -0.2857
vn -0.6042 0.6650 -0.4390
vn 0.2764 0.4472 -0.8506
vn 0.0198 0.5038 -0.8636
vn 0.2308 0.6650 -0.7103
vn 0.8944 0.4472 -0.0000
vn 0.8274 0.5038 -0.2480
vn 0.7469 0.6650 -0.0000
vn 0.2607 0.9654 -0.0000
vn 0.0806 0.9654 -0.2480
vn -0.0000 1.0000 -0.0000
vn 0.5257 0.8507 -0.0000
vn 0.3682 0.8904 -0.2675
vn 0.6317 0.7275 -0.2675
vn 0.1625 0.8507 -0.5000
vn 0.4496 0.7276 -0.5182
vn 0.6882 0.5257 -0.5000
vn 0.4915 0.5038 -0.7103
vn -0.2110 0.9654 -0.1533
vn -0.1406 0.8904 -0.4329
vn -0.0592 0.7276 -0.6835
vn -0.4253 0.8507 -0.3090
vn -0.3539 0.7276 -0.5878
vn -0.2629 0.5257 -0.8090
vn -0.5237 0.5038 -0.6870
vn -0.2110 0.9654 0.1533
vn -0.4551 0.8904 -0.0000
vn -0.6683 0.7276 -0.1549
vn -0.4253 0.8507 0.3090
vn -0.6683 0.7276 0.1549
vn -0.8506 0.5257 -0.0000
vn -0.8152 0.5038 0.2857
vn 0.0806 0.9654 0.2480
vn -0.1406 0.8904 0.4329
vn -0.3539 0.7276 0.5878
vn 0.1625 0.8507 0.5000
vn -0.0592 0.7276 0.6835
vn -0.2629 0.5257 0.8090
vn 0.0198 0.5038 0.8636
vn 0.3682 0.8904 0.2675
vn 0.4496 0.7276 0.5182
vn 0.6317 0.7275 0.2675
vn 0.6882 0.5257 0.5000
vn 0.8274 0.5038 0.2480
vn 0.9578 0.2431 -0.1533
vn 0.9511 -0.0000 -0.3090
vn 0.8593 0.2724 -0.4329
vn 0.8090 0.0089 -0.5878
vn 0.6772 0.2724 -0.6835
vn 0.5878 -0.0000 -0.8090
vn 0.4417 0.2431 -0.8636
vn 0.1502 0.2431 -0.9583
vn -0.0000 -0.0000 -1.0000
vn -0.1461 0.2724 -0.9510
vn -0.3090 0.0089 -0.9510
vn -0.4408 0.2724 -0.8553
vn -0.5878 -0.0000 -0.8090
vn -0.6848 0.2431 -0.6870
vn -0.8650 0.2431 -0.4390
vn -0.9511 -0.0000 -0.3090
vn -0.9496 0.2724 -0.1549
vn -1.0000 0.0089 -0.0000
vn -0.9496 0.2724 0.1549
vn -0.9511 -0.0000 0.3090
vn -0.8650 0.2431 0.4390
vn -0.6848 0.2431 0.6870
vn -0.5878 -0.0000 0.8090
vn -0.4408 0.2724 0.8553
vn -0.3090 0.0089 0.9510
vn -0.1461 0.2724 0.9510
vn -0.0000 -0.0000 1.0000
vn 0.1502 0.2431 0.9583
vn 0.4417 0.2431 0.8636
vn 0.5878 -0.0000 0.8090
vn 0.6772 0.2724 0.6835
vn 0.8090 0.0089 0.5878
vn 0.8593 0.2724 0.4329
vn 0.9511 -0.0000 0.3090
vn 0.9578 0.2431 0.1533
vn 0.3090 -0.0089 -0.9510
vn 0.4408 -0.2724 -0.8553
vn 0.1461 -0.2724 -0.9510
vn 0.2629 -0.5257 -0.8090
vn -0.0198 -0.5038 -0.8636
vn -0.8090 -0.0089 -0.5878
vn -0.6772 -0.2724 -0.6835
vn -0.8593 -0.2724 -0.4329
vn -0.6882 -0.5257 -0.5000
vn -0.8274 -0.5038 -0.2480
vn -0.8090 -0.0089 0.5878
vn -0.8593 -0.2724 0.4329
vn -0.6772 -0.2724 0.6835
vn -0.6882 -0.5257 0.5000
vn -0.4915 -0.5038 0.7103
vn 0.3090 -0.0089 0.9510
vn 0.1461 -0.2724 0.9510
vn 0.4408 -0.2724 0.8553
vn 0.2629 -0.5257 0.8090
vn 0.5237 -0.5038 0.6870
vn 1.0000 -0.0089 -0.0000
vn 0.9496 -0.2724 0.1549
vn 0.9496 -0.2724 -0.1549
vn 0.8506 -0.5257 -0.0000
vn 0.8152 -0.5038 -0.2857
vn 0.6042 -0.6650 -0.4390
vn 0.4253 -0.8507 -0.3090
vn 0.3539 -0.7276 -0.5878
vn 0.1406 -0.8904 -0.4329
vn 0.0592 -0.7276 -0.6835
vn -0.1625 -0.8507 -0.5000
vn -0.2308 -0.6650 -0.7103
vn -0.4496 -0.7276 -0.5182
vn -0.3682 -0.8904 -0.2675
vn -0.6318 -0.7275 -0.2675
vn -0.5257 -0.8507 -0.0000
vn -0.7469 -0.6650 -0.0000
vn -0.6317 -0.7275 0.2675
vn -0.3682 -0.8904 0.2675
vn -0.4496 -0.7275 0.5182
vn -0.1625 -0.8507 0.5000
vn -0.2308 -0.6650 0.7103
vn 0.6683 -0.7276 -0.1549
vn 0.6683 -0.7275 0.1549
vn 0.4551 -0.8904 -0.0000
vn 0.4253 -0.8507 0.3090
vn 0.0592 -0.7276 0.6835
vn 0.1406 -0.8904 0.4329
vn 0.3539 -0.7276 0.5878
vn -0.1909 -0.9629 0.1909
vn -0.1690 -0.9082 0.3828
vn -0.3443 -0.8735 0.3443
vn -0.3829 -0.9082 0.1690
vn -0.1798 -0.1679 0.9693
vn -0.3604 -0.1484 0.9209
vn -0.3274 -0.3041 0.8946
vn -0.1584 -0.3375 0.9279
vn -0.9693 -0.1679 0.1798
vn -0.9279 -0.3375 0.1584
vn -0.8946 -0.3041 0.3275
vn -0.9209 -0.1484 0.3604
vn -0.1798 0.1679 0.9693
vn -0.1584 0.3375 0.9279
vn -0.3274 0.3041 0.8946
vn -0.3604 0.1484 0.9209
vn -0.1909 0.9629 0.1909
vn -0.3828 0.9082 0.1690
vn -0.3443 0.8734 0.3443
vn -0.1691 0.9082 0.3828
vn -0.9693 0.1679 0.1798
vn -0.9209 0.1484 0.3604
vn -0.8946 0.3041 0.3275
vn -0.9279 0.3375 0.1584
vn -0.1909 -0.9629 -0.1909
vn -0.3829 -0.9082 -0.1690
vn -0.3443 -0.8735 -0.3443
vn -0.1690 -0.9082 -0.3828
vn -0.9693 -0.1679 -0.1798
vn -0.9209 -0.1484 -0.3604
vn -0.8946 -0.3041 -0.3275
vn -0.9279 -0.3375 -0.1584
vn -0.1798 -0.1679 -0.9693
vn -0.1584 -0.3375 -0.9279
vn -0.3274 -0.3041 -0.8946
vn -0.3604 -0.1484 -0.9209
vn -0.1909 0.9629 -0.1909
vn -0.1690 0.9082 -0.3828
vn -0.3443 0.8735 -0.3443
vn -0.3828 0.9082 -0.1690
vn -0.1798 0.1679 -0.9693
vn -0.3604 0.1484 -0.9209
vn -0.3274 0.3041 -0.8946
vn -0.1584 0.3375 -0.9279
vn -0.9693 0.1679 -0.1798
vn -0.9279 0.3375 -0.1584
vn -0.8946 0.3041 -0.3275
vn -0.9209 0.1484 -0.3604
vn 0.1909 -0.9629 0.1909
vn 0.3829 -0.9082 0.1690
vn 0.3443 -0.8735 0.3443
vn 0.1690 -0.9082 0.3828
vn 0.9693 -0.1679 0.1798
vn 0.9209 -0.1484 0.3604
vn 0.8946 -0.3041 0.3275
vn 0.9279 -0.3375 0.1584
vn 0.1798 -0.1679 0.9693
vn 0.1584 -0.3375 0.9279
vn 0.3274 -0.3041 0.8946
vn 0.3604 -0.1484 0.9209
vn 0.1909 0.9629 0.1909
vn 0.1690 0.9082 0.3828
vn 0.3443 0.8735 0.3443
vn 0.3828 0.9082 0.1690
vn 0.1798 0.1679 0.9693
vn 0.3604 0.1484 0.9209
vn 0.3274 0.3041 0.8946
vn 0.1584 0.3375 0.9279
vn 0.9693 0.1679 0.1798
vn 0.9279 0.3375 0.1584
vn 0.8946 0.3041 0.3275
vn 0.9209 0.1484 0.3604
vn 0.1909 -0.9629 -0.1909
vn 0.1690 -0.9082 -0.3828
vn 0.3443 -0.8735 -0.3443
vn 0.3829 -0.9082 -0.1690
vn 0.1798 -0.1679 -0.9693
vn 0.3604 -0.1484 -0.9209
vn 0.3274 -0.3041 -0.8946
vn 0.1584 -0.3375 -0.9279
vn 0.9693 -0.1679 -0.1798
vn 0.9279 -0.3375 -0.1584
vn 0.8946 -0.3041 -0.3275
vn 0.9209 -0.1484 -0.3604
vn 0.1909 0.9629 -0.1909
vn 0.3828 0.9082 -0.1690
vn 0.3443 0.8734 -0.3443
vn 0.1691 0.9082 -0.3828
vn 0.9693 0.1679 -0.1798
vn 0.9209 0.1484 -0.3604
vn 0.8946 0.3041 -0.3275
vn 0.9279 0.3375 -0.1584
vn 0.1798 0.1679 -0.9693
vn 0.1584 0.3375 -0.9279
vn 0.3274 0.3041 -0.8946
vn 0.3604 0.1484 -0.9209
s 1
f 1//1 2//2 14//2 13//1
f 2//2 3//3 15//3 14//2
f 3//3 4//4 16//4 15//3
f 4//4 5//5 17//5 16//4
f 5//5 6//6 18//6 17//5
f 6//6 7//7 19//7 18//6
f 7//7 8//8 20//8 19//7
f 8//8 9//9 21//9 20//8
f 9//9 10//10 22//10 21//9
f 10//10 11//11 23//11 22//10
f 11//11 12//12 24//12 23//11
f 12//12 1//1 13//1 24//12
f 13//1 14//2 26//2 25//1
f 14//2 15//3 27//3 26//2
f 15//3 16//4 28//4 27//3
f 16//4 17//5 29//5 28//4
f 17//5 18//6 30//6 29//5
f 18//6 19//7 31//7 30//6
f 19//7 20//8 32//8 31//7
f 20//8 21//9 33//9 32//8
f 21//9 22//10 34//10 33//9
f 22//10 23//11 35//11 34//10
f 23//11 24//12 36//12 35//11
f 24//12 13//1 25//1 36//12
f 25//1 26//2 38//2 37//1
f 26//2 27//3 39//3 38//2
f 27//3 28//4 40//4 39//3
f 28//4 29//5 41//5 40//4
f 29//5 30//6 42//6 41//5
f 30//6 31//7 43//7 42//6
f 31//7 32//8 44//8 43//7
f 32//8 33//9 45//9 44//8
f 33//9 34//10 46//10 45//9
f 34//10 35//11 47//11 46//10
f 35//11 36//12 48//12 47//11
f 36//12 25//1 37//1 48//12
f 37//1 38//2 50//2 49//1
f 38//2 39//3 51//3 50//2
f 39//3 40//4 52//4 51//3
f 40//4 41//5 53//5 52//4
f 41//5 42//6 54//6 53//5
f 42//6 43//7 55//7 54//6
f 43//7 44//8 56//8 55//7
f 44//8 45//9 57//9 56//8
f 45//9 46//10 58//10 57//9
f 46//10 47//11 59//11 58//10
f 47//11 48//12 60//12 59//11
f 48//12 37//1 49//1 60//12
f 49//1 50//2 62//2 61//1
f 50//2 51//3 63//3 62//2
f 51//3 52//4 64//4 63//3
f 52//4 53//5 65//5 64//4
f 53//5 54//6 66//6 65//5
f 54//6 55//7 67//7 66//6
f 55//7 56//8 68//8 67//7
f 56//8 57//9 69//9 68//8
f 57//9 58//10 70//10 69//9
f 58//10 59//11 71//11 70//10
f 59//11 60//12 72//12 71//11
f 60//12 49//1 61//1 72//12
f 61//1 62//2 74//2 73//1
f 62//2 63//3 75//3 74//2
f 63//3 64//4 76//4 75//3
f 64//4 65//5 77//5 76//4
f 65//5 66//6 78//6 77//5
f 66//6 67//7 79//7 78//6
f 67//7 68//8 80//8 79//7
f 68//8 69//9 81//9 80//8
f 69//9 70//10 82//10 81//9
f 70//10 71//11 83//11 82//10
f 71//11 72//12 84//12 83//11
f 72//12 61//1 73//1 84//12
f 73//1 74//2 86//2 85//1
f 74//2 75//3 87//3 86//2
f 75//3 76//4 88//4 87//3
f 76//4 77//5 89//5 88//4
f 77//5 78//6 90//6 89//5
f 78//6 79//7 91//7 90//6
f 79//7 80//8 92//8 91//7
f 80//8 81//9 93//9 92//8
f 81//9 82//10 94//10 93//9
f 82//10 83//11 95//11 94//10
f 83//11 84//12 96//12 95//11
f 84//12 73//1 85//1 96//12
f 85//1 86//2 98//2 97//1
f 86//2 87//3 99//3 98//2
f 87//3 88//4 100//4 99//3
f 88//4 89//5 101//5 100//4
f 89//5 90//6 102//6 101//5
f 90//6 91//7 103//7 102//6
f 91//7 92//8 104//8 103//7
f 92//8 93//9 105//9 104//8
f 93//9 94//10 106//10 105//9
f 94//10 95//11 107//11 106//10
f 95//11 96//12 108//12 107//11
f 96//12 85//1 97//1 108//12
f 109//13 112//14 114//15 111//16
f 111//17 114//18 113//19 110//20
f 112//14 115//21 117//22 114//15
f 114//18 117//23 116//24 113//19
f 115//21 118//25 120//26 117//22
f 117//23 120//27 119//28 116//24
f 118//25 121//29 123//30 120//26
f 120//27 123//31 122//32 119//28
f 121//29 124//33 126//34 123//30
f 123//31 126//35 125//36 122//32
f 124//33 127//37 129//38 126//34
f 126//35 129//39 128//40 125//36
f 127//37 130//41 132//42 129//38
f 129//39 132//43 131//44 128//40
f 130//41 133//45 135//46 132//42
f 132//43 135//47 134//48 131//44
f 133//45 136//49 138//50 135//46
f 135//47 138//51 137//52 134//48
f 136//49 139//53 141//54 138//50
f 138//51 141//55 140//56 137//52
f 139//53 142//57 144//58 141//54
f 141//55 144//59 143//60 140//56
f 110//20 143//60 144//59 111//17
f 111//16 144//58 142//57 109//13
f 146//61 149//62 150//63 147//64
f 147//65 150//66 148//67 145//68
f 149//62 152//69 153//70 150//63
f 150//66 153//71 151//72 148//67
f 152//69 155//73 156//74 153//70
f 153//71 156//75 154//76 151//72
f 155//73 158//77 159//78 156//74
f 156//75 159//79 157//80 154//76
f 158//77 161//81 162//82 159//78
f 159//79 162//83 160//84 157//80
f 161//81 164//85 165//86 162//82
f 162//83 165//87 163//88 160//84
f 164//85 167//89 168//90 165//86
f 165//87 168//91 166//92 163//88
f 167//89 170//93 171//94 168//90
f 168//91 171//95 169//96 166//92
f 170//93 173//97 174//98 171//94
f 171//95 174//99 172//100 169//96
f 173//97 176//101 177//102 174//98
f 174//99 177//103 175//104 172//100
f 176//101 179//105 180//106 177//102
f 177//103 180//107 178//108 175//104
f 145//68 178//108 180//107 147//65
f 147//64 180//106 179//105 146//61
f 143//60 110//20 1//1 12//12
f 110//20 113//19 2//2 1//1
f 142//57 139//53 136//49 133//45 130//41 127//37 124//33 121//29 118//25 115//21 112//14 109//13
f 113//19 116//24 3//3 2//2
f 116//24 119//28 4//4 3//3
f 119//28 122//32 5//5 4//4
f 122//32 125//36 6//6 5//5
f 125//36 128//40 7//7 6//6
f 128//40 131//44 8//8 7//7
f 131//44 134//48 9//9 8//8
f 134//48 137//52 10//10 9//9
f 137//52 140//56 11//11 10//10
f 140//56 143//60 12//12 11//11
f 108//12 97//1 146//61 179//105
f 97//1 98//2 149//62 146//61
f 145//68 148//67 151//72 154//76 157//80 160//84 163//88 166//92 169//96 172//100 175//104 178//108
f 98//2 99//3 152//69 149//62
f 99//3 100//4 155//73 152//69
f 100//4 101//5 158//77 155//73
f 101//5 102//6 161//81 158//77
f 102//6 103//7 164//85 161//81
f 103//7 104//8 167//89 164//85
f 104//8 105//9 170//93 167//89
f 105//9 106//10 173//97 170//93
f 106//10 107//11 176//101 173//97
f 107//11 108//12 179//105 176//101
f 181//109 182//110 196//111 195//112
f 182//110 183//113 197//114 196//111
f 183//113 184//115 198//116 197//114
f 184//115 185//117 199//118 198//116
f 185//117 186//119 200//120 199//118
f 186//119 187//121 201//122 200//120
f 187//121 188//123 202//124 201//122
f 188//123 189//125 203//126 202//124
f 189//125 190//127 204//128 203//126
f 190//127 191//129 205//130 204//128
f 191//129 192//131 206//132 205//130
f 192//131 193//133 207//134 206//132
f 193//133 194//135 208//136 207//134
f 194//135 181//109 195//112 208//136
f 195//112 196//111 210//137 209//138
f 196//111 197//114 211//139 210//137
f 197//114 198//116 212//140 211//139
f 198//116 199//118 213//141 212//140
f 199//118 200//120 214//142 213//141
f 200//120 201//122 215//143 214//142
f 201//122 202//124 216//144 215//143
f 202//124 203//126 217//145 216//144
f 203//126 204//128 218//146 217//145
f 204//128 205//130 219//147 218//146
f 205//130 206//132 220//148 219//147
f 206//132 207//134 221//149 220//148
f 207//134 208//136 222//150 221//149
f 208//136 195//112 209//138 222//150
f 209//138 210//137 224//151 223//152
f 210//137 211//139 225//153 224//151
f 211//139 212//140 226//154 225//153
f 212//140 213//141 227//155 226//154
f 213//141 214//142 228//156 227//155
f 214//142 215//143 229//157 228//156
f 215//143 216//144 230//158 229//157
f 216//144 217//145 231//159 230//158
f 217//145 218//146 232//160 231//159
f 218//146 219//147 233//161 232//160
f 219//147 220//148 234//162 233//161
f 220//148 221//149 235//163 234//162
f 221//149 222//150 236//164 235//163
f 222//150 209//138 223//152 236//164
f 223//152 224//151 238//165 237//166
f 224//151 225//153 239//167 238//165
f 225//153 226//154 240//168 239//167
f 226//154 227//155 241//169 240//168
f 227//155 228//156 242//170 241//169
f 228//156 229//157 243//171 242//170
f 229//157 230//158 244//172 243//171
f 230//158 231//159 245//173 244//172
f 231//159 232//160 246//174 245//173
f 232//160 233//161 247//175 246//174
f 233//161 234//162 248//176 247//175
f 234//162 235//163 249//177 248//176
f 235//163 236//164 250//178 249//177
f 236//164 223//152 237//166 250//178
f 237//166 238//165 252//179 251//180
f 238//165 239//167 253//181 252//179
f 239//167 240//168 254//182 253//181
f 240//168 241//169 255//183 254//182
f 241//169 242//170 256//184 255//183
f 242//170 243//171 257//185 256//184
f 243//171 244//172 258//186 257//185
f 244//172 245//173 259//187 258//186
f 245//173 246//174 260//188 259//187
f 246//174 247//175 261//189 260//188
f 247//175 248//176 262//190 261//189
f 248//176 249//177 263//191 262//190
f 249//177 250//178 264//192 263//191
f 250//178 237//166 251//180 264//192
f 251//180 252//179 266//193 265//194
f 252//179 253//181 267//195 266//193
f 253//181 254//182 268//196 267//195
f 254//182 255//183 269//197 268//196
f 255//183 256//184 270//198 269//197
f 256//184 257//185 271//199 270//198
f 257//185 258//186 272//200 271//199
f 258//186 259//187 273//201 272//200
f 259//187 260//188 274//202 273//201
f 260//188 261//189 275//203 274//202
f 261//189 262//190 276//204 275//203
f 262//190 263//191 277//205 276//204
f 263//191 264//192 278//206 277//205
f 264//192 251//180 265//194 278//206
f 265//194 266//193 280//207 279//208
f 266//193 267//195 281//209 280//207
f 267//195 268//196 282//210 281//209
f 268//196 269//197 283//211 282//210
f 269//197 270//198 284//212 283//211
f 270//198 271//199 285//213 284//212
f 271//199 272//200 286//214 285//213
f 272//200 273//201 287//215 286//214
f 273//201 274//202 288//216 287//215
f 274//202 275//203 289//217 288//216
f 275//203 276//204 290//218 289//217
f 276//204 277//205 291//219 290//218
f 277//205 278//206 292//220 291//219
f 278//206 265//194 279//208 292//220
f 279//208 280//207 294//221 293//222
f 280//207 281//209 295//223 294//221
f 281//209 282//210 296//224 295//223
f 282//210 283//211 297//225 296//224
f 283//211 284//212 298//226 297//225
f 284//212 285//213 299//227 298//226
f 285//213 286//214 300//228 299//227
f 286//214 287//215 301//229 300//228
f 287//215 288//216 302//230 301//229
f 288//216 289//217 303//231 302//230
f 289//217 290//218 304//232 303//231
f 290//218 291//219 305//233 304//232
f 291//219 292//220 306//234 305//233
f 292//220 279//208 293//222 306//234
f 293//222 294//221 308//235 307//236
f 294//221 295//223 309//237 308//235
f 295//223 296//224 310//238 309//237
f 296//224 297//225 311//239 310//238
f 297//225 298//226 312//240 311//239
f 298//226 299//227 313//241 312//240
f 299//227 300//228 314//242 313//241
f 300//228 301//229 315//243 314//242
f 301//229 302//230 316//244 315//243
f 302//230 303//231 317//245 316//244
f 303//231 304//232 318//246 317//245
f 304//232 305//233 319//247 318//246
f 305//233 306//234 320//248 319//247
f 306//234 293//222 307//236 320//248
f 307//236 308//235 322//249 321//250
f 308//235 309//237 323//251 322//249
f 309//237 310//238 324//252 323//251
f 310//238 311//239 325//253 324//252
f 311//239 312//240 326//254 325//253
f 312//240 313//241 327//255 326//254
f 313//241 314//242 328//256 327//255
f 314//242 315//243 329//257 328//256
f 315//243 316//244 330//258 329//257
f 316//244 317//245 331//259 330//258
f 317//245 318//246 332//260 331//259
f 318//246 319//247 333//261 332//260
f 319//247 320//248 334//262 333//261
f 320//248 307//236 321//250 334//262
f 321//250 322//249 336//263 335//264
f 322//249 323//251 337//265 336//263
f 323//251 324//252 338//266 337//265
f 324//252 325//253 339//267 338//266
f 325//253 326//254 340//268 339//267
f 326//254 327//255 341//269 340//268
f 327//255 328//256 342//270 341//269
f 328//256 329//257 343//271 342//270
f 329//257 330//258 344//272 343//271
f 330//258 331//259 345//273 344//272
f 331//259 332//260 346//274 345//273
f 332//260 333//261 347//275 346//274
f 333//261 334//262 348//276 347//275
f 334//262 321//250 335//264 348//276
f 335//264 336//263 350//277 349//278
f 336//263 337//265 351//279 350//277
f 337//265 338//266 352//280 351//279
f 338//266 339//267 353//281 352//280
f 339//267 340//268 354//282 353//281
f 340//268 341//269 355//283 354//282
f 341//269 342//270 356//284 355//283
f 342//270 343//271 357//285 356//284
f 343//271 344//272 358//286 357//285
f 344//272 345//273 359//287 358//286
f 345//273 346//274 360//288 359//287
f 346//274 347//275 361//289 360//288
f 347//275 348//276 362//290 361//289
f 348//276 335//264 349//278 362//290
f 349//278 350//277 364//291 363//292
f 350//277 351//279 365//293 364//291
f 351//279 352//280 366//294 365//293
f 352//280 353//281 367//295 366//294
f 353//281 354//282 368//296 367//295
f 354//282 355//283 369//297 368//296
f 355//283 356//284 370//298 369//297
f 356//284 357//285 371//299 370//298
f 357//285 358//286 372//300 371//299
f 358//286 359//287 373//301 372//300
f 359//287 360//288 374//302 373//301
f 360//288 361//289 375//303 374//302
f 361//289 362//290 376//304 375//303
f 362//290 349//278 363//292 376//304
f 363//292 364//291 378//305 377//306
f 364//291 365//293 379//307 378//305
f 365//293 366//294 380//308 379//307
f 366//294 367//295 381//309 380//308
f 367//295 368//296 382//310 381//309
f 368//296 369//297 383//311 382//310
f 369//297 370//298 384//312 383//311
f 370//298 371//299 385//313 384//312
f 371//299 372//300 386//314 385//313
f 372//300 373//301 387//315 386//314
f 373//301 374//302 388//316 387//315
f 374//302 375//303 389//317 388//316
f 375//303 376//304 390//318 389//317
f 376//304 363//292 377//306 390//318
f 377//306 378//305 392//319 391//320
f 378//305 379//307 393//321 392//319
f 379//307 380//308 394//322 393//321
f 380//308 381//309 395//323 394//322
f 381//309 382//310 396//324 395//323
f 382//310 383//311 397//325 396//324
f 383//311 384//312 398//326 397//325
f 384//312 385//313 399//327 398//326
f 385//313 386//314 400//328 399//327
f 386//314 387//315 401//329 400//328
f 387//315 388//316 402//330 401//329
f 388//316 389//317 403//331 402//330
f 389//317 390//318 404//332 403//331
f 390//318 377//306 391//320 404//332
f 391//320 392//319 406//333 405//334
f 392//319 393//321 407//335 406//333
f 393//321 394//322 408//336 407//335
f 394//322 395//323 409//337 408//336
f 395//323 396//324 410//338 409//337
f 396//324 397//325 411//339 410//338
f 397//325 398//326 412//340 411//339
f 398//326 399//327 413//341 412//340
f 399//327 400//328 414//342 413//341
f 400//328 401//329 415//343 414//342
f 401//329 402//330 416//344 415//343
f 402//330 403//331 417//345 416//344
f 403//331 404//332 418//346 417//345
f 404//332 391//320 405//334 418//346
f 419//347 422//348 424//349 421//350
f 421//351 424//352 423//353 420//354
f 422//348 425//355 427//356 424//349
f 424//352 427//357 426//358 423//353
f 425//355 428//359 430//360 427//356
f 427//357 430//361 429//362 426//358
f 428//359 431//363 433//364 430//360
f 430//361 433//365 432//366 429//362
f 431//363 434//367 436//368 433//364
f 433//365 436//369 435//370 432//366
f 434//367 437//371 439//372 436//368
f 436//369 439//373 438//374 435//370
f 437//371 440//375 442//376 439//372
f 439//373 442//377 441//378 438//374
f 440//375 443//379 445//380 442//376
f 442//377 445//381 444//382 441//378
f 443//379 446//383 448//384 445//380
f 445//381 448//385 447//386 444//382
f 446//383 449//387 451//388 448//384
f 448//385 451//389 450//390 447//386
f 449//387 452//391 454//392 451//388
f 451//389 454//393 453//394 450//390
f 452//391 455//395 457//396 454//392
f 454//393 457//397 456//398 453//394
f 455//395 458//399 460//400 457//396
f 457//397 460//401 459//402 456//398
f 420//354 459//402 460//401 421//351
f 421//350 460//400 458//399 419//347
f 462//403 465//404 466//405 463//406
f 463//407 466//408 464//409 461//410
f 465//404 468//411 469//412 466//405
f 466//408 469//413 467//414 464//409
f 468//411 471//415 472//416 469//412
f 469//413 472//417 470//418 467//414
f 471//415 474//419 475//420 472//416
f 472//417 475//421 473//422 470//418
f 474//419 477//423 478//424 475//420
f 475//421 478//425 476//426 473//422
f 477//423 480//427 481//428 478//424
f 478//425 481//429 479//430 476//426
f 480//427 483//431 484//432 481//428
f 481//429 484//433 482//434 479//430
f 483//431 486//435 487//436 484//432
f 484//433 487//437 485//438 482//434
f 486//435 489//439 490//440 487//436
f 487//437 490//441 488//442 485//438
f 489//439 492//443 493//444 490//440
f 490//441 493//445 491//446 488//442
f 492//443 495//447 496//448 493//444
f 493//445 496//449 494//450 491//446
f 495//447 498//451 499//452 496//448
f 496//449 499//453 497//454 494//450
f 498//451 501//455 502//456 499//452
f 499//453 502//457 500//458 497//454
f 461//410 500//458 502//457 463//407
f 463//406 502//456 501//455 462//403
f 459//402 420//354 181//109 194//135
f 420//354 423//353 182//110 181//109
f 458//399 455//395 452//391 449//387 446//383 443//379 440//375 437//371 434//367 431//363 428//359 425//355 422//348 419//347
f 423//353 426//358 183//113 182//110
f 426//358 429//362 184//115 183//113
f 429//362 432//366 185//117 184//115
f 432//366 435//370 186//119 185//117
f 435//370 438//374 187//121 186//119
f 438//374 441//378 188//123 187//121
f 441//378 444//382 189//125 188//123
f 444//382 447//386 190//127 189//125
f 447//386 450//390 191//129 190//127
f 450//390 453//394 192//131 191//129
f 453//394 456//398 193//133 192//131
f 456//398 459//402 194//135 193//133
f 418//346 405//334 462//403 501//455
f 405//334 406//333 465//404 462//403
f 461//410 464//409 467//414 470//418 473//422 476//426 479//430 482//434 485//438 488//442 491//446 494//450 497//454 500//458
f 406//333 407//335 468//411 465//404
f 407//335 408//336 471//415 468//411
f 408//336 409//337 474//419 471//415
f 409//337 410//338 477//423 474//419
f 410//338 411//339 480//427 477//423
f 411//339 412//340 483//431 480//427
f 412//340 413//341 486//435 483//431
f 413//341 414//342 489//439 486//435
f 414//342 415//343 492//443 489//439
f 415//343 416//344 495//447 492//443
f 416//344 417//345 498//451 495//447
f 417//345 418//346 501//455 498//451
f 503//459 506//460 507//461 509//462
f 504//463 508//464 507//465 506//466
f 505//467 509//468 507//469 508//470
f 510//471 513//472 514//473 516//474
f 511//475 515//476 514//473 513//472
f 512//477 516//478 514//479 515//480
f 517//481 520//482 521//483 523//484
f 518//485 522//486 521//487 520//488
f 519//489 523//490 521//491 522//492
f 524//493 527//494 528//495 530//496
f 525//497 529//498 528//495 527//494
f 526//499 530//500 528//501 529//502
f 534//503 537//504 538//505 540//506
f 535//507 539//508 538//509 537//510
f 536//511 540//512 538//513 539//514
f 541//515 544//516 545//517 547//518
f 542//519 546//520 545//521 544//522
f 543//523 547//518 545//517 546//524
f 548//525 551//526 552//527 554//528
f 549//529 553//530 552//531 551//532
f 550//533 554//534 552//535 553//536
f 555//537 558//538 559//539 561//540
f 556//541 560//542 559//543 558//544
f 557//545 561//540 559//539 560//546
f 505//467 531//547 533//548 509//468
f 509//462 533//549 532//550 503//459
f 504//463 510//471 516//474 508//464
f 508//470 516//478 512//477 505//467
f 511//475 517//481 523//484 515//476
f 515//480 523//490 519//489 512//477
f 518//485 524//493 530//496 522//486
f 522//492 530//500 526//499 519//489
f 525//497 532//550 533//549 529//498
f 529//502 533//548 531//547 526//499
f 534//503 562//551 564//552 537//504
f 537//510 564//553 563//554 535//507
f 535//507 542//519 544//522 539//508
f 539//514 544//516 541//515 536//511
f 542//519 549//529 551//532 546//520
f 546//524 551//526 548//525 543//523
f 549//529 556//541 558//544 553//530
f 553//536 558//538 555//537 550//533
f 556//541 563//554 564//553 560//542
f 560//546 564//552 562//551 557//545
f 503//459 534//503 540//506 506//460
f 506//466 540//512 536//511 504//463
f 510//471 541//515 547//518 513//472
f 513//472 547//518 543//523 511//475
f 517//481 548//525 554//528 520//482
f 520//488 554//534 550//533 518//485
f 524//493 555//537 561//540 527//494
f 527//494 561//540 557//545 525//497
f 503//459 532//550 562//551 534//503
f 505//467 512//477 519//489 526//499 531//547
f 510//471 504//463 536//511 541//515
f 517//481 511//475 543//523 548//525
f 524//493 518//485 550//533 555//537
f 532//550 525//497 557//545 562//551
f 535//507 563//554 556//541 549//529 542//519
f 565//555 568//556 569//557 571//558
f 566//559 570//560 569//561 568//562
f 567//563 571//564 569//565 570//566
f 572//567 575//568 576//569 578//570
f 573//571 577//572 576//569 575//568
f 574//573 578//574 576//575 577//576
f 579//577 582//578 583//579 585//580
f 580//581 584//582 583//583 582//584
f 581//585 585//586 583//587 584//588
f 586//589 589//590 590//591 592//592
f 587//593 591//594 590//591 589//590
f 588//595 592//596 590//597 591//598
f 596//599 599//600 600//601 602//602
f 597//603 601//604 600//605 599//606
f 598//607 602//608 600//609 601//610
f 603//611 606//612 607//613 609//614
f 604//615 608//616 607//617 606//618
f 605//619 609//614 607//613 608//620
f 610//621 613//622 614//623 616//624
f 611//625 615//626 614//627 613//628
f 612//629 616//630 614//631 615//632
f 617//633 620//634 621//635 623//636
f 618//637 622//638 621//639 620//640
f 619//641 623//636 621//635 622//642
f 567//563 593//643 595//644 571//564
f 571//558 595//645 594//646 565//555
f 566//559 572//567 578//570 570//560
f 570//566 578//574 574//573 567//563
f 573//571 579//577 585//580 577//572
f 577//576 585//586 581//585 574//573
f 580//581 586//589 592//592 584//582
f 584//588 592//596 588//595 581//585
f 587//593 594//646 595//645 591//594
f 591//598 595//644 593//643 588//595
f 596//599 624//647 626//648 599//600
f 599//606 626//649 625//650 597//603
f 597//603 604//615 606//618 601//604
f 601//610 606//612 603//611 598//607
f 604//615 611//625 613//628 608//616
f 608//620 613//622 610//621 605//619
f 611//625 618//637 620//640 615//626
f 615//632 620//634 617//633 612//629
f 618//637 625//650 626//649 622//638
f 622//642 626//648 624//647 619//641
f 565//555 596//599 602//602 568//556
f 568//562 602//608 598//607 566//559
f 572//567 603//611 609//614 575//568
f 575//568 609//614 605//619 573//571
f 579//577 610//621 616//624 582//578
f 582//584 616//630 612//629 580//581
f 586//589 617//633 623//636 589//590
f 589//590 623//636 619//641 587//593
f 565//555 594//646 624//647 596//599
f 567//563 574//573 581//585 588//595 593//643
f 572//567 566//559 598//607 603//611
f 579//577 573//571 605//619 610//621
f 586//589 580//581 612//629 617//633
f 594//646 587//593 619//641 624//647
f 597//603 625//650 618//637 611//625 604//615
f 627//651 630//652 631//653 633//654
f 628//655 632//656 631//657 630//658
f 629//659 633//660 631//661 632//662
f 634//663 637//664 638//665 640//666
f 635//667 639//668 638//665 637//664
f 636//669 640//670 638//671 639//672
f 641//673 644//674 645//675 647//676
f 642//677 646//678 645//679 644//680
f 643//681 647//682 645//683 646//684
f 648//685 651//686 652//687 654//688
f 649//689 653//690 652//687 651//686
f 650//691 654//692 652//693 653//694
f 658//695 661//696 662//697 664//698
f 659//699 663//700 662//701 661//702
f 660//703 664//704 662//705 663//706
f 665//707 668//708 669//709 671//710
f 666//711 670//712 669//713 668//714
f 667//715 671//710 669//709 670//716
f 672//717 675//718 676//719 678//720
f 673//721 677//722 676//723 675//724
f 674//725 678//726 676//727 677//728
f 679//729 682//730 683//731 685//732
f 680//733 684//734 683//735 682//736
f 681//737 685//732 683//731 684//738
f 629//659 655//739 657//740 633//660
f 633//654 657//741 656//742 627//651
f 628//655 634//663 640//666 632//656
f 632//662 640//670 636//669 629//659
f 635//667 641//673 647//676 639//668
f 639//672 647//682 643//681 636//669
f 642//677 648//685 654//688 646//678
f 646//684 654//692 650//691 643//681
f 649//689 656//742 657//741 653//690
f 653//694 657//740 655//739 650//691
f 658//695 686//743 688//744 661//696
f 661//702 688//745 687//746 659//699
f 659//699 666//711 668//714 663//700
f 663//706 668//708 665//707 660//703
f 666//711 673//721 675//724 670//712
f 670//716 675//718 672//717 667//715
f 673//721 680//733 682//736 677//722
f 677//728 682//730 679//729 674//725
f 680//733 687//746 688//745 684//734
f 684//738 688//744 686//743 681//737
f 627//651 658//695 664//698 630//652
f 630//658 664//704 660//703 628//655
f 634//663 665//707 671//710 637//664
f 637//664 671//710 667//715 635//667
f 641//673 672//717 678//720 644//674
f 644//680 678//726 674//725 642//677
f 648//685 679//729 685//732 651//686
f 651//686 685//732 681//737 649//689
f 627//651 656//742 686//743 658//695
f 629//659 636//669 643//681 650//691 655//739
f 634//663 628//655 660//703 665//707
f 641//673 635//667 667//715 672//717
f 648//685 642//677 674//725 679//729
f 656//742 649//689 681//737 686//743
f 659//699 687//746 680//733 673//721 666//711
f 689//747 704//748 703//749
f 690//750 706//751 712//752
f 689//747 703//749 718//753
f 689//747 718//753 724//754
f 689//747 724//754 713//755
f 690//750 712//752 733//756
f 691//757 709//758 739//759
f 692//760 721//761 745//762
f 693//763 727//764 751//765
f 694//766 730//767 757//768
f 690//750 733//756 740//769
f 691//757 739//759 746//770
f 692//760 745//762 752//771
f 693//763 751//765 758//772
f 694//766 757//768 734//773
f 695//774 763//775 778//776
f 696//777 766//778 784//779
f 697//780 769//781 787//782
f 698//783 772//784 790//785
f 699//786 775//787 779//788
f 781//789 788//790 700//791
f 780//792 791//793 781//789
f 779//788 792//794 780//792
f 781//789 791//793 788//790
f 791//793 789//795 788//790
f 780//792 792//794 791//793
f 792//794 793//796 791//793
f 791//793 793//796 789//795
f 793//796 790//785 789//795
f 779//788 775//787 792//794
f 775//787 774//797 792//794
f 792//794 774//797 793//796
f 774//797 773//798 793//796
f 793//796 773//798 790//785
f 773//798 698//783 790//785
f 788//790 785//799 700//791
f 789//795 794//800 788//790
f 790//785 795//801 789//795
f 788//790 794//800 785//799
f 794//800 786//802 785//799
f 789//795 795//801 794//800
f 795//801 796//803 794//800
f 794//800 796//803 786//802
f 796//803 787//782 786//802
f 790//785 772//784 795//801
f 772//784 771//804 795//801
f 795//801 771//804 796//803
f 771//804 770//805 796//803
f 796//803 770//805 787//782
f 770//805 697//780 787//782
f 785//799 782//806 700//791
f 786//802 797//807 785//799
f 787//782 798//808 786//802
f 785//799 797//807 782//806
f 797//807 783//809 782//806
f 786//802 798//808 797//807
f 798//808 799//810 797//807
f 797//807 799//810 783//809
f 799//810 784//779 783//809
f 787//782 769//781 798//808
f 769//781 768//811 798//808
f 798//808 768//811 799//810
f 768//811 767//812 799//810
f 799//810 767//812 784//779
f 767//812 696//777 784//779
f 782//806 776//813 700//791
f 783//809 800//814 782//806
f 784//779 801//815 783//809
f 782//806 800//814 776//813
f 800//814 777//816 776//813
f 783//809 801//815 800//814
f 801//815 802//817 800//814
f 800//814 802//817 777//816
f 802//817 778//776 777//816
f 784//779 766//778 801//815
f 766//778 765//818 801//815
f 801//815 765//818 802//817
f 765//818 764//819 802//817
f 802//817 764//819 778//776
f 764//819 695//774 778//776
f 776//813 781//789 700//791
f 777//816 803//820 776//813
f 778//776 804//821 777//816
f 776//813 803//820 781//789
f 803//820 780//792 781//789
f 777//816 804//821 803//820
f 804//821 805//822 803//820
f 803//820 805//822 780//792
f 805//822 779//788 780//792
f 778//776 763//775 804//821
f 763//775 762//823 804//821
f 804//821 762//823 805//822
f 762//823 761//824 805//822
f 805//822 761//824 779//788
f 761//824 699//786 779//788
f 736//825 775//787 699//786
f 735//826 806//827 736//825
f 734//773 807//828 735//826
f 736//825 806//827 775//787
f 806//827 774//797 775//787
f 735//826 807//828 806//827
f 807//828 808//829 806//827
f 806//827 808//829 774//797
f 808//829 773//798 774//797
f 734//773 757//768 807//828
f 757//768 756//830 807//828
f 807//828 756//830 808//829
f 756//830 755//831 808//829
f 808//829 755//831 773//798
f 755//831 698//783 773//798
f 760//832 772//784 698//783
f 759//833 809//834 760//832
f 758//772 810//835 759//833
f 760//832 809//834 772//784
f 809//834 771//804 772//784
f 759//833 810//835 809//834
f 810//835 811//836 809//834
f 809//834 811//836 771//804
f 811//836 770//805 771//804
f 758//772 751//765 810//835
f 751//765 750//837 810//835
f 810//835 750//837 811//836
f 750//837 749//838 811//836
f 811//836 749//838 770//805
f 749//838 697//780 770//805
f 754//839 769//781 697//780
f 753//840 812//841 754//839
f 752//771 813//842 753//840
f 754//839 812//841 769//781
f 812//841 768//811 769//781
f 753//840 813//842 812//841
f 813//842 814//843 812//841
f 812//841 814//843 768//811
f 814//843 767//812 768//811
f 752//771 745//762 813//842
f 745//762 744//844 813//842
f 813//842 744//844 814//843
f 744//844 743//845 814//843
f 814//843 743//845 767//812
f 743//845 696//777 767//812
f 748//846 766//778 696//777
f 747//847 815//848 748//846
f 746//770 816//849 747//847
f 748//846 815//848 766//778
f 815//848 765//818 766//778
f 747//847 816//849 815//848
f 816//849 817//850 815//848
f 815//848 817//850 765//818
f 817//850 764//819 765//818
f 746//770 739//759 816//849
f 739//759 738//851 816//849
f 816//849 738//851 817//850
f 738//851 737//852 817//850
f 817//850 737//852 764//819
f 737//852 695//774 764//819
f 742//853 763//775 695//774
f 741//854 818//855 742//853
f 740//769 819//856 741//854
f 742//853 818//855 763//775
f 818//855 762//823 763//775
f 741//854 819//856 818//855
f 819//856 820//857 818//855
f 818//855 820//857 762//823
f 820//857 761//824 762//823
f 740//769 733//756 819//856
f 733//756 732//858 819//856
f 819//856 732//858 820//857
f 732//858 731//859 820//857
f 820//857 731//859 761//824
f 731//859 699//786 761//824
f 755//831 760//832 698//783
f 756//830 821//860 755//831
f 757//768 822//861 756//830
f 755//831 821//860 760//832
f 821//860 759//833 760//832
f 756//830 822//861 821//860
f 822//861 823//862 821//860
f 821//860 823//862 759//833
f 823//862 758//772 759//833
f 757//768 730//767 822//861
f 730//767 729//863 822//861
f 822//861 729//863 823//862
f 729//863 728//864 823//862
f 823//862 728//864 758//772
f 728//864 693//763 758//772
f 749//838 754//839 697//780
f 750//837 824//865 749//838
f 751//765 825//866 750//837
f 749//838 824//865 754//839
f 824//865 753//840 754//839
f 750//837 825//866 824//865
f 825//866 826//867 824//865
f 824//865 826//867 753//840
f 826//867 752//771 753//840
f 751//765 727//764 825//866
f 727//764 726//868 825//866
f 825//866 726//868 826//867
f 726//868 725//869 826//867
f 826//867 725//869 752//771
f 725//869 692//760 752//771
f 743//845 748//846 696//777
f 744//844 827//870 743//845
f 745//762 828//871 744//844
f 743//845 827//870 748//846
f 827//870 747//847 748//846
f 744//844 828//871 827//870
f 828//871 829//872 827//870
f 827//870 829//872 747//847
f 829//872 746//770 747//847
f 745//762 721//761 828//871
f 721//761 720//873 828//871
f 828//871 720//873 829//872
f 720//873 719//874 829//872
f 829//872 719//874 746//770
f 719//874 691//757 746//770
f 737//852 742//853 695//774
f 738//851 830//875 737//852
f 739//759 831//876 738//851
f 737//852 830//875 742//853
f 830//875 741//854 742//853
f 738//851 831//876 830//875
f 831//876 832//877 830//875
f 830//875 832//877 741//854
f 832//877 740//769 741//854
f 739//759 709//758 831//876
f 709//758 708//878 831//876
f 831//876 708//878 832//877
f 708//878 707//879 832//877
f 832//877 707//879 740//769
f 707//879 690//750 740//769
f 731//859 736//825 699//786
f 732//858 833//880 731//859
f 733//756 834//881 732//858
f 731//859 833//880 736//825
f 833//880 735//826 736//825
f 732//858 834//881 833//880
f 834//881 835//882 833//880
f 833//880 835//882 735//826
f 835//882 734//773 735//826
f 733//756 712//752 834//881
f 712//752 711//883 834//881
f 834//881 711//883 835//882
f 711//883 710//884 835//882
f 835//882 710//884 734//773
f 710//884 694//766 734//773
f 715//885 730//767 694//766
f 714//886 836//887 715//885
f 713//755 837//888 714//886
f 715//885 836//887 730//767
f 836//887 729//863 730//767
f 714//886 837//888 836//887
f 837//888 838//889 836//887
f 836//887 838//889 729//863
f 838//889 728//864 729//863
f 713//755 724//754 837//888
f 724//754 723//890 837//888
f 837//888 723//890 838//889
f 723//890 722//891 838//889
f 838//889 722//891 728//864
f 722//891 693//763 728//864
f 722//891 727//764 693//763
f 723//890 839//892 722//891
f 724//754 840//893 723//890
f 722//891 839//892 727//764
f 839//892 726//868 727//764
f 723//890 840//893 839//892
f 840//893 841//894 839//892
f 839//892 841//894 726//868
f 841//894 725//869 726//868
f 724//754 718//753 840//893
f 718//753 717//895 840//893
f 840//893 717//895 841//894
f 717//895 716//896 841//894
f 841//894 716//896 725//869
f 716//896 692//760 725//869
f 716//896 721//761 692//760
f 717//895 842//897 716//896
f 718//753 843//898 717//895
f 716//896 842//897 721//761
f 842//897 720//873 721//761
f 717//895 843//898 842//897
f 843//898 844//899 842//897
f 842//897 844//899 720//873
f 844//899 719//874 720//873
f 718//753 703//749 843//898
f 703//749 702//900 843//898
f 843//898 702//900 844//899
f 702//900 701//901 844//899
f 844//899 701//901 719//874
f 701//901 691//757 719//874
f 710//884 715//885 694//766
f 711//883 845//902 710//884
f 712//752 846//903 711//883
f 710//884 845//902 715//885
f 845//902 714//886 715//885
f 711//883 846//903 845//902
f 846//903 847//904 845//902
f 845//902 847//904 714//886
f 847//904 713//755 714//886
f 712//752 706//751 846//903
f 706//751 705//905 846//903
f 846//903 705//905 847//904
f 705//905 704//748 847//904
f 847//904 704//748 713//755
f 704//748 689//747 713//755
f 701//901 709//758 691//757
f 702//900 848//906 701//901
f 703//749 849//907 702//900
f 701//901 848//906 709//758
f 848//906 708//878 709//758
f 702//900 849//907 848//906
f 849//907 850//908 848//906
f 848//906 850//908 708//878
f 850//908 707//879 708//878
f 703//749 704//748 849//907
f 704//748 705//905 849//907
f 849//907 705//905 850//908
f 705//905 706//751 850//908
f 850//908 706//751 707//879
f 706//751 690//750 707//879
f 851//909 854//910 855//911 857//912
f 852//913 856//914 855//915 854//916
f 853//917 857//918 855//919 856//920
f 858//921 861//922 862//923 864//924
f 859//925 863//926 862//927 861//928
f 860//929 864//930 862//931 863//932
f 865//933 868//934 869//935 871//936
f 866//937 870//938 869//939 868//940
f 867//941 871//942 869//943 870//944
f 872//945 875//946 876//947 878//948
f 873//949 877//950 876//951 875//952
f 874//953 878//954 876//955 877//956
f 879//957 882//958 883//959 885//960
f 880//961 884//962 883//963 882//964
f 881//965 885//966 883//967 884//968
f 886//969 889//970 890//971 892//972
f 887//973 891//974 890//975 889//976
f 888//977 892//978 890//979 891//980
f 893//981 896//982 897//983 899//984
f 894//985 898//986 897//987 896//988
f 895//989 899//990 897//991 898//992
f 900//993 903//994 904//995 906//996
f 901//997 905//998 904//999 903//1000
f 902//1001 906//1002 904//1003 905//1004
f 865//933 851//909 857//912 868//934
f 868//940 857//918 853//917 866//937
f 852//913 858//921 864//924 856//914
f 856//920 864//930 860//929 853//917
f 859//925 872//945 878//948 863//926
f 863//932 878//954 874//953 860//929
f 873//949 867//941 870//944 877//950
f 877//956 870//938 866//937 874//953
f 893//981 865//933 871//936 896//982
f 896//988 871//942 867//941 894//985
f 872//945 900//993 906//996 875//946
f 875//952 906//1002 902//1001 873//949
f 901//997 895//989 898//992 905//998
f 905//1004 898//986 894//985 902//1001
f 879//957 893//981 899//984 882//958
f 882//964 899//990 895//989 880//961
f 900//993 886//969 892//972 903//994
f 903//1000 892//978 888//977 901//997
f 887//973 881//965 884//968 891//974
f 891//980 884//962 880//961 888//977
f 851//909 879//957 885//960 854//910
f 854//916 885//966 881//965 852//913
f 886//969 859//925 861//928 889//970
f 889//976 861//922 858//921 887//973
f 865//933 893//981 879//957 851//909
f 853//917 860//929 874//953 866//937
f 881//965 887//973 858//921 852//913
f 900//993 872//945 859//925 886//969
f 867//941 873//949 902//1001 894//985
f 895//989 901//997 888//977 880//961
