# Blender 5.2.0 LTS
# www.blender.org
o PaladinBlade
v 0.131952 -0.466667 0.000000
v 0.118885 -0.466667 -0.057252
v 0.082271 -0.466667 -0.103165
v 0.029362 -0.466667 -0.128644
v -0.029362 -0.466667 -0.128644
v -0.082271 -0.466667 -0.103165
v -0.118885 -0.466667 -0.057252
v -0.131952 -0.466667 -0.000000
v -0.118885 -0.466667 0.057252
v -0.082271 -0.466667 0.103165
v -0.029362 -0.466667 0.128644
v 0.029362 -0.466667 0.128644
v 0.082271 -0.466667 0.103165
v 0.118885 -0.466667 0.057252
v 0.128998 -0.408333 0.000000
v 0.116223 -0.408333 -0.055970
v 0.080429 -0.408333 -0.100854
v 0.028705 -0.408333 -0.125763
v -0.028705 -0.408333 -0.125763
v -0.080429 -0.408333 -0.100854
v -0.116223 -0.408333 -0.055970
v -0.128998 -0.408333 -0.000000
v -0.116223 -0.408333 0.055970
v -0.080429 -0.408333 0.100854
v -0.028705 -0.408333 0.125763
v 0.028705 -0.408333 0.125763
v 0.080429 -0.408333 0.100854
v 0.116223 -0.408333 0.055970
v 0.133798 -0.350000 0.000000
v 0.120548 -0.350000 -0.058053
v 0.083422 -0.350000 -0.104608
v 0.029773 -0.350000 -0.130444
v -0.029773 -0.350000 -0.130444
v -0.083422 -0.350000 -0.104608
v -0.120548 -0.350000 -0.058053
v -0.133798 -0.350000 -0.000000
v -0.120548 -0.350000 0.058053
v -0.083422 -0.350000 0.104608
v -0.029773 -0.350000 0.130444
v 0.029773 -0.350000 0.130444
v 0.083422 -0.350000 0.104608
v 0.120548 -0.350000 0.058053
v 0.131142 -0.291667 0.000000
v 0.118155 -0.291667 -0.056900
v 0.081766 -0.291667 -0.102531
v 0.029182 -0.291667 -0.127854
v -0.029182 -0.291667 -0.127854
v -0.081766 -0.291667 -0.102531
v -0.118155 -0.291667 -0.056900
v -0.131142 -0.291667 -0.000000
v -0.118155 -0.291667 0.056900
v -0.081766 -0.291667 0.102531
v -0.029182 -0.291667 0.127854
v 0.029182 -0.291667 0.127854
v 0.081766 -0.291667 0.102531
v 0.118155 -0.291667 0.056900
v 0.121556 -0.233333 0.000000
v 0.109518 -0.233333 -0.052741
v 0.075789 -0.233333 -0.095036
v 0.027049 -0.233333 -0.118508
v -0.027049 -0.233333 -0.118508
v -0.075789 -0.233333 -0.095036
v -0.109518 -0.233333 -0.052741
v -0.121556 -0.233333 -0.000000
v -0.109518 -0.233333 0.052741
v -0.075789 -0.233333 0.095036
v -0.027049 -0.233333 0.118508
v 0.027049 -0.233333 0.118508
v 0.075789 -0.233333 0.095036
v 0.109518 -0.233333 0.052741
v 0.119801 -0.175000 0.000000
v 0.107937 -0.175000 -0.051980
v 0.074695 -0.175000 -0.093664
v 0.026658 -0.175000 -0.116798
v -0.026658 -0.175000 -0.116798
v -0.074695 -0.175000 -0.093664
v -0.107937 -0.175000 -0.051980
v -0.119801 -0.175000 -0.000000
v -0.107937 -0.175000 0.051980
v -0.074695 -0.175000 0.093664
v -0.026658 -0.175000 0.116798
v 0.026658 -0.175000 0.116798
v 0.074695 -0.175000 0.093664
v 0.107937 -0.175000 0.051980
v 0.125619 -0.116667 0.000000
v 0.113179 -0.116667 -0.054504
v 0.078322 -0.116667 -0.098213
v 0.027953 -0.116667 -0.122469
v -0.027953 -0.116667 -0.122469
v -0.078322 -0.116667 -0.098213
v -0.113179 -0.116667 -0.054504
v -0.125619 -0.116667 -0.000000
v -0.113179 -0.116667 0.054504
v -0.078322 -0.116667 0.098213
v -0.027953 -0.116667 0.122469
v 0.027953 -0.116667 0.122469
v 0.078322 -0.116667 0.098213
v 0.113179 -0.116667 0.054504
v 0.124780 -0.058333 0.000000
v 0.112423 -0.058333 -0.054140
v 0.077799 -0.058333 -0.097557
v 0.027766 -0.058333 -0.121651
v -0.027766 -0.058333 -0.121651
v -0.077799 -0.058333 -0.097557
v -0.112423 -0.058333 -0.054140
v -0.124780 -0.058333 -0.000000
v -0.112423 -0.058333 0.054140
v -0.077799 -0.058333 0.097557
v -0.027766 -0.058333 0.121651
v 0.027766 -0.058333 0.121651
v 0.077799 -0.058333 0.097557
v 0.112423 -0.058333 0.054140
v 0.117450 0.000000 0.000000
v 0.105819 0.000000 -0.050960
v 0.073229 0.000000 -0.091826
v 0.026135 0.000000 -0.114505
v -0.026135 0.000000 -0.114505
v -0.073229 0.000000 -0.091826
v -0.105819 0.000000 -0.050960
v -0.117450 0.000000 -0.000000
v -0.105819 0.000000 0.050960
v -0.073229 0.000000 0.091826
v -0.026135 0.000000 0.114505
v 0.026135 0.000000 0.114505
v 0.073229 0.000000 0.091826
v 0.105819 0.000000 0.050960
v 0.117717 0.058333 0.000000
v 0.106059 0.058333 -0.051075
v 0.073395 0.058333 -0.092035
v 0.026194 0.058333 -0.114765
v -0.026194 0.058333 -0.114765
v -0.073395 0.058333 -0.092035
v -0.106059 0.058333 -0.051075
v -0.117717 0.058333 -0.000000
v -0.106059 0.058333 0.051075
v -0.073395 0.058333 0.092035
v -0.026194 0.058333 0.114765
v 0.026194 0.058333 0.114765
v 0.073395 0.058333 0.092035
v 0.106059 0.058333 0.051075
v 0.118508 0.116667 0.000000
v 0.106772 0.116667 -0.051419
v 0.073889 0.116667 -0.092654
v 0.026371 0.116667 -0.115537
v -0.026371 0.116667 -0.115537
v -0.073889 0.116667 -0.092654
v -0.106772 0.116667 -0.051419
v -0.118508 0.116667 -0.000000
v -0.106772 0.116667 0.051419
v -0.073889 0.116667 0.092654
v -0.026371 0.116667 0.115537
v 0.026371 0.116667 0.115537
v 0.073889 0.116667 0.092654
v 0.106772 0.116667 0.051419
v 0.126989 0.175000 0.000000
v 0.114413 0.175000 -0.055099
v 0.079177 0.175000 -0.099284
v 0.028258 0.175000 -0.123805
v -0.028258 0.175000 -0.123805
v -0.079177 0.175000 -0.099284
v -0.114413 0.175000 -0.055099
v -0.126989 0.175000 -0.000000
v -0.114413 0.175000 0.055099
v -0.079177 0.175000 0.099284
v -0.028258 0.175000 0.123805
v 0.028258 0.175000 0.123805
v 0.079177 0.175000 0.099284
v 0.114413 0.175000 0.055099
v 0.128849 0.233333 0.000000
v 0.116089 0.233333 -0.055906
v 0.080336 0.233333 -0.100738
v 0.028672 0.233333 -0.125619
v -0.028672 0.233333 -0.125619
v -0.080336 0.233333 -0.100738
v -0.116089 0.233333 -0.055906
v -0.128849 0.233333 -0.000000
v -0.116089 0.233333 0.055906
v -0.080336 0.233333 0.100738
v -0.028672 0.233333 0.125619
v 0.028672 0.233333 0.125619
v 0.080336 0.233333 0.100738
v 0.116089 0.233333 0.055906
v 0.123719 0.291667 0.000000
v 0.111467 0.291667 -0.053680
v 0.077138 0.291667 -0.096727
v 0.027530 0.291667 -0.120617
v -0.027530 0.291667 -0.120617
v -0.077138 0.291667 -0.096727
v -0.111467 0.291667 -0.053680
v -0.123719 0.291667 -0.000000
v -0.111467 0.291667 0.053680
v -0.077138 0.291667 0.096727
v -0.027530 0.291667 0.120617
v 0.027530 0.291667 0.120617
v 0.077138 0.291667 0.096727
v 0.111467 0.291667 0.053680
v 0.126225 0.350000 0.000000
v 0.113725 0.350000 -0.054767
v 0.078700 0.350000 -0.098687
v 0.028088 0.350000 -0.123060
v -0.028088 0.350000 -0.123060
v -0.078700 0.350000 -0.098687
v -0.113725 0.350000 -0.054767
v -0.126225 0.350000 -0.000000
v -0.113725 0.350000 0.054767
v -0.078700 0.350000 0.098687
v -0.028088 0.350000 0.123060
v 0.028088 0.350000 0.123060
v 0.078700 0.350000 0.098687
v 0.113725 0.350000 0.054767
v 0.136737 0.408333 0.000000
v 0.123196 0.408333 -0.059328
v 0.085254 0.408333 -0.106906
v 0.030427 0.408333 -0.133309
v -0.030427 0.408333 -0.133309
v -0.085254 0.408333 -0.106906
v -0.123196 0.408333 -0.059328
v -0.136737 0.408333 -0.000000
v -0.123196 0.408333 0.059328
v -0.085254 0.408333 0.106906
v -0.030427 0.408333 0.133309
v 0.030427 0.408333 0.133309
v 0.085254 0.408333 0.106906
v 0.123196 0.408333 0.059328
v 0.139870 0.466667 0.000000
v 0.126018 0.466667 -0.060687
v 0.087207 0.466667 -0.109354
v 0.031124 0.466667 -0.136363
v -0.031124 0.466667 -0.136363
v -0.087207 0.466667 -0.109354
v -0.126018 0.466667 -0.060687
v -0.139870 0.466667 -0.000000
v -0.126018 0.466667 0.060687
v -0.087207 0.466667 0.109354
v -0.031124 0.466667 0.136363
v 0.031124 0.466667 0.136363
v 0.087207 0.466667 0.109354
v 0.126018 0.466667 0.060687
v 0.128846 -0.525000 -0.000000
v 0.134687 -0.519008 0.000000
v 0.133106 -0.523245 -0.000000
v 0.116086 -0.525000 -0.055904
v 0.121349 -0.519008 -0.058438
v 0.119924 -0.523245 -0.057752
v 0.080334 -0.525000 -0.100736
v 0.083976 -0.519008 -0.105302
v 0.082990 -0.523245 -0.104066
v 0.028671 -0.525000 -0.125615
v 0.029971 -0.519008 -0.131310
v 0.029619 -0.523245 -0.129769
v -0.028671 -0.525000 -0.125615
v -0.029971 -0.519008 -0.131310
v -0.029619 -0.523245 -0.129769
v -0.080334 -0.525000 -0.100736
v -0.083976 -0.519008 -0.105302
v -0.082990 -0.523245 -0.104066
v -0.116086 -0.525000 -0.055904
v -0.121349 -0.519008 -0.058438
v -0.119924 -0.523245 -0.057752
v -0.128846 -0.525000 0.000000
v -0.134687 -0.519008 -0.000000
v -0.133106 -0.523245 0.000000
v -0.116086 -0.525000 0.055904
v -0.121349 -0.519008 0.058438
v -0.119924 -0.523245 0.057752
v -0.080334 -0.525000 0.100736
v -0.083976 -0.519008 0.105302
v -0.082990 -0.523245 0.104066
v -0.028671 -0.525000 0.125615
v -0.029971 -0.519008 0.131310
v -0.029619 -0.523245 0.129769
v 0.028671 -0.525000 0.125615
v 0.029971 -0.519008 0.131310
v 0.029619 -0.523245 0.129769
v 0.080334 -0.525000 0.100736
v 0.083976 -0.519008 0.105302
v 0.082990 -0.523245 0.104066
v 0.116086 -0.525000 0.055904
v 0.121349 -0.519008 0.058438
v 0.119924 -0.523245 0.057752
v 0.128846 0.525000 0.000000
v 0.135499 0.519020 0.000000
v 0.133344 0.523248 0.000000
v 0.116086 0.525000 -0.055904
v 0.122081 0.519020 -0.058791
v 0.120138 0.523248 -0.057856
v 0.080334 0.525000 -0.100736
v 0.084482 0.519020 -0.105938
v 0.083138 0.523248 -0.104252
v 0.028671 0.525000 -0.125615
v 0.030151 0.519020 -0.132102
v 0.029672 0.523248 -0.130000
v -0.028671 0.525000 -0.125615
v -0.030151 0.519020 -0.132102
v -0.029672 0.523248 -0.130000
v -0.080334 0.525000 -0.100736
v -0.084482 0.519020 -0.105938
v -0.083138 0.523248 -0.104252
v -0.116086 0.525000 -0.055904
v -0.122081 0.519020 -0.058791
v -0.120138 0.523248 -0.057856
v -0.128846 0.525000 -0.000000
v -0.135499 0.519020 -0.000000
v -0.133344 0.523248 -0.000000
v -0.116086 0.525000 0.055904
v -0.122081 0.519020 0.058791
v -0.120138 0.523248 0.057856
v -0.080334 0.525000 0.100736
v -0.084482 0.519020 0.105938
v -0.083138 0.523248 0.104252
v -0.028671 0.525000 0.125615
v -0.030151 0.519020 0.132102
v -0.029672 0.523248 0.130000
v 0.028671 0.525000 0.125615
v 0.030151 0.519020 0.132102
v 0.029672 0.523248 0.130000
v 0.080334 0.525000 0.100736
v 0.084482 0.519020 0.105938
v 0.083138 0.523248 0.104252
v 0.116086 0.525000 0.055904
v 0.122081 0.519020 0.058791
v 0.120138 0.523248 0.057856
v 0.020000 -0.790000 0.000000
v 0.018019 -0.790000 -0.008678
v 0.012470 -0.790000 -0.015637
v 0.004450 -0.790000 -0.019499
v -0.004450 -0.790000 -0.019499
v -0.012470 -0.790000 -0.015637
v -0.018019 -0.790000 -0.008678
v -0.020000 -0.790000 -0.000000
v -0.018019 -0.790000 0.008678
v -0.012470 -0.790000 0.015637
v -0.004450 -0.790000 0.019499
v 0.004450 -0.790000 0.019499
v 0.012470 -0.790000 0.015637
v 0.018019 -0.790000 0.008678
v 0.110080 -0.748000 0.000000
v 0.099179 -0.748000 -0.047762
v 0.068634 -0.748000 -0.086064
v 0.024495 -0.748000 -0.107320
v -0.024495 -0.748000 -0.107320
v -0.068634 -0.748000 -0.086064
v -0.099179 -0.748000 -0.047762
v -0.110080 -0.748000 -0.000000
v -0.099179 -0.748000 0.047762
v -0.068634 -0.748000 0.086064
v -0.024495 -0.748000 0.107320
v 0.024495 -0.748000 0.107320
v 0.068634 -0.748000 0.086064
v 0.099179 -0.748000 0.047762
v 0.156780 -0.706000 0.000000
v 0.141254 -0.706000 -0.068024
v 0.097750 -0.706000 -0.122575
v 0.034887 -0.706000 -0.152849
v -0.034887 -0.706000 -0.152849
v -0.097750 -0.706000 -0.122575
v -0.141254 -0.706000 -0.068024
v -0.156780 -0.706000 -0.000000
v -0.141254 -0.706000 0.068024
v -0.097750 -0.706000 0.122575
v -0.034887 -0.706000 0.152849
v 0.034887 -0.706000 0.152849
v 0.097750 -0.706000 0.122575
v 0.141254 -0.706000 0.068024
v 0.186894 -0.664000 0.000000
v 0.168386 -0.664000 -0.081090
v 0.116527 -0.664000 -0.146120
v 0.041588 -0.664000 -0.182208
v -0.041588 -0.664000 -0.182208
v -0.116527 -0.664000 -0.146120
v -0.168386 -0.664000 -0.081090
v -0.186894 -0.664000 -0.000000
v -0.168386 -0.664000 0.081090
v -0.116527 -0.664000 0.146120
v -0.041588 -0.664000 0.182208
v 0.041588 -0.664000 0.182208
v 0.116527 -0.664000 0.146120
v 0.168386 -0.664000 0.081090
v 0.204283 -0.622000 0.000000
v 0.184053 -0.622000 -0.088635
v 0.127369 -0.622000 -0.159715
v 0.045457 -0.622000 -0.199161
v -0.045457 -0.622000 -0.199161
v -0.127369 -0.622000 -0.159715
v -0.184053 -0.622000 -0.088635
v -0.204283 -0.622000 -0.000000
v -0.184053 -0.622000 0.088635
v -0.127369 -0.622000 0.159715
v -0.045457 -0.622000 0.199161
v 0.045457 -0.622000 0.199161
v 0.127369 -0.622000 0.159715
v 0.184053 -0.622000 0.088635
v 0.210000 -0.580000 0.000000
v 0.189203 -0.580000 -0.091116
v 0.130933 -0.580000 -0.164185
v 0.046729 -0.580000 -0.204735
v -0.046729 -0.580000 -0.204735
v -0.130933 -0.580000 -0.164185
v -0.189203 -0.580000 -0.091116
v -0.210000 -0.580000 -0.000000
v -0.189203 -0.580000 0.091116
v -0.130933 -0.580000 0.164185
v -0.046729 -0.580000 0.204735
v 0.046729 -0.580000 0.204735
v 0.130933 -0.580000 0.164185
v 0.189203 -0.580000 0.091116
v 0.204283 -0.538000 0.000000
v 0.184053 -0.538000 -0.088635
v 0.127369 -0.538000 -0.159715
v 0.045457 -0.538000 -0.199161
v -0.045457 -0.538000 -0.199161
v -0.127369 -0.538000 -0.159715
v -0.184053 -0.538000 -0.088635
v -0.204283 -0.538000 -0.000000
v -0.184053 -0.538000 0.088635
v -0.127369 -0.538000 0.159715
v -0.045457 -0.538000 0.199161
v 0.045457 -0.538000 0.199161
v 0.127369 -0.538000 0.159715
v 0.184053 -0.538000 0.088635
v 0.186894 -0.496000 0.000000
v 0.168386 -0.496000 -0.081090
v 0.116527 -0.496000 -0.146120
v 0.041588 -0.496000 -0.182208
v -0.041588 -0.496000 -0.182208
v -0.116527 -0.496000 -0.146120
v -0.168386 -0.496000 -0.081090
v -0.186894 -0.496000 -0.000000
v -0.168386 -0.496000 0.081090
v -0.116527 -0.496000 0.146120
v -0.041588 -0.496000 0.182208
v 0.041588 -0.496000 0.182208
v 0.116527 -0.496000 0.146120
v 0.168386 -0.496000 0.081090
v 0.156780 -0.454000 0.000000
v 0.141254 -0.454000 -0.068024
v 0.097750 -0.454000 -0.122575
v 0.034887 -0.454000 -0.152849
v -0.034887 -0.454000 -0.152849
v -0.097750 -0.454000 -0.122575
v -0.141254 -0.454000 -0.068024
v -0.156780 -0.454000 -0.000000
v -0.141254 -0.454000 0.068024
v -0.097750 -0.454000 0.122575
v -0.034887 -0.454000 0.152849
v 0.034887 -0.454000 0.152849
v 0.097750 -0.454000 0.122575
v 0.141254 -0.454000 0.068024
v 0.110080 -0.412000 0.000000
v 0.099179 -0.412000 -0.047762
v 0.068634 -0.412000 -0.086064
v 0.024495 -0.412000 -0.107320
v -0.024495 -0.412000 -0.107320
v -0.068634 -0.412000 -0.086064
v -0.099179 -0.412000 -0.047762
v -0.110080 -0.412000 -0.000000
v -0.099179 -0.412000 0.047762
v -0.068634 -0.412000 0.086064
v -0.024495 -0.412000 0.107320
v 0.024495 -0.412000 0.107320
v 0.068634 -0.412000 0.086064
v 0.099179 -0.412000 0.047762
v 0.020000 -0.370000 0.000000
v 0.018019 -0.370000 -0.008678
v 0.012470 -0.370000 -0.015637
v 0.004450 -0.370000 -0.019499
v -0.004450 -0.370000 -0.019499
v -0.012470 -0.370000 -0.015637
v -0.018019 -0.370000 -0.008678
v -0.020000 -0.370000 -0.000000
v -0.018019 -0.370000 0.008678
v -0.012470 -0.370000 0.015637
v -0.004450 -0.370000 0.019499
v 0.004450 -0.370000 0.019499
v 0.012470 -0.370000 0.015637
v 0.018019 -0.370000 0.008678
v 0.060000 0.460000 -0.050000
v 0.060000 0.447938 -0.068357
v 0.080000 0.470439 -0.070000
v 0.060000 0.447665 -0.055036
v 0.071547 0.452336 -0.058106
v 0.074142 0.455046 -0.069179
v 0.074142 0.463575 -0.056198
v 0.060000 0.592062 -0.401643
v 0.060000 0.619767 -0.423041
v 0.080000 0.613969 -0.401914
v 0.060000 0.603022 -0.416088
v 0.071547 0.605452 -0.412941
v 0.074142 0.618512 -0.416279
v 0.074142 0.598921 -0.401148
v 0.060000 0.840233 -0.456959
v 0.060000 0.854847 -0.440675
v 0.080000 0.832789 -0.435578
v 0.060000 0.853175 -0.453875
v 0.071547 0.848983 -0.450113
v 0.074142 0.847912 -0.438757
v 0.074142 0.837578 -0.450271
v 0.060000 0.780000 -0.160000
v 0.080000 0.762579 -0.172294
v 0.074142 0.774898 -0.163601
v 0.080000 0.613788 -0.070000
v 0.060000 0.620000 -0.050000
v 0.074142 0.618181 -0.055858
v -0.060000 0.460000 -0.050000
v -0.080000 0.470439 -0.070000
v -0.060000 0.447938 -0.068357
v -0.074142 0.463575 -0.056198
v -0.071547 0.452336 -0.058106
v -0.074142 0.455046 -0.069179
v -0.060000 0.447665 -0.055036
v -0.060000 0.592062 -0.401643
v -0.080000 0.613969 -0.401914
v -0.060000 0.619767 -0.423041
v -0.074142 0.598921 -0.401148
v -0.071547 0.605452 -0.412941
v -0.074142 0.618512 -0.416279
v -0.060000 0.603022 -0.416088
v -0.060000 0.840233 -0.456959
v -0.080000 0.832789 -0.435578
v -0.060000 0.854847 -0.440675
v -0.074142 0.837578 -0.450271
v -0.071547 0.848983 -0.450113
v -0.074142 0.847912 -0.438757
v -0.060000 0.853175 -0.453875
v -0.080000 0.762579 -0.172294
v -0.060000 0.780000 -0.160000
v -0.074142 0.774898 -0.163601
v -0.060000 0.620000 -0.050000
v -0.080000 0.613788 -0.070000
v -0.074142 0.618181 -0.055858
v -0.060000 0.460000 0.050000
v -0.060000 0.447938 0.068357
v -0.080000 0.470439 0.070000
v -0.060000 0.447665 0.055036
v -0.071547 0.452336 0.058106
v -0.074142 0.455046 0.069179
v -0.074142 0.463575 0.056198
v -0.060000 0.592062 0.401643
v -0.060000 0.619767 0.423041
v -0.080000 0.613969 0.401914
v -0.060000 0.603022 0.416088
v -0.071547 0.605452 0.412941
v -0.074142 0.618512 0.416279
v -0.074142 0.598921 0.401148
v -0.060000 0.840233 0.456959
v -0.060000 0.854847 0.440675
v -0.080000 0.832789 0.435578
v -0.060000 0.853175 0.453875
v -0.071547 0.848983 0.450113
v -0.074142 0.847912 0.438757
v -0.074142 0.837578 0.450271
v -0.060000 0.780000 0.160000
v -0.080000 0.762579 0.172294
v -0.074142 0.774898 0.163601
v -0.080000 0.613788 0.070000
v -0.060000 0.620000 0.050000
v -0.074142 0.618181 0.055858
v 0.060000 0.460000 0.050000
v 0.080000 0.470439 0.070000
v 0.060000 0.447938 0.068357
v 0.074142 0.463575 0.056198
v 0.071547 0.452336 0.058106
v 0.074142 0.455046 0.069179
v 0.060000 0.447665 0.055036
v 0.060000 0.592062 0.401643
v 0.080000 0.613969 0.401914
v 0.060000 0.619767 0.423041
v 0.074142 0.598921 0.401148
v 0.071547 0.605452 0.412941
v 0.074142 0.618512 0.416279
v 0.060000 0.603022 0.416088
v 0.060000 0.840233 0.456959
v 0.080000 0.832789 0.435578
v 0.060000 0.854847 0.440675
v 0.074142 0.837578 0.450271
v 0.071547 0.848983 0.450113
v 0.074142 0.847912 0.438757
v 0.060000 0.853175 0.453875
v 0.080000 0.762579 0.172294
v 0.060000 0.780000 0.160000
v 0.074142 0.774898 0.163601
v 0.060000 0.620000 0.050000
v 0.080000 0.613788 0.070000
v 0.074142 0.618181 0.055858
v 0.089000 0.638714 0.484126
v 0.071000 0.637600 0.500000
v 0.072885 0.654762 0.484042
v 0.082923 0.637916 0.495368
v 0.081059 0.647319 0.493273
v 0.071528 0.649264 0.495309
v 0.084256 0.650052 0.484084
v -0.071000 0.637600 0.500000
v -0.089000 0.638714 0.484126
v -0.072885 0.654762 0.484042
v -0.082923 0.637916 0.495368
v -0.081059 0.647319 0.493273
v -0.084256 0.650052 0.484084
v -0.071528 0.649264 0.495309
v -0.071000 0.482400 0.500000
v -0.072885 0.465238 0.484042
v -0.089000 0.481286 0.484126
v -0.071528 0.470736 0.495309
v -0.081059 0.472681 0.493273
v -0.084256 0.469948 0.484084
v -0.082923 0.482084 0.495368
v 0.071000 0.482400 0.500000
v 0.089000 0.481286 0.484126
v 0.072885 0.465238 0.484042
v 0.082923 0.482084 0.495368
v 0.081059 0.472681 0.493273
v 0.084256 0.469948 0.484084
v 0.071528 0.470736 0.495309
v 0.081374 0.659667 0.416667
v 0.097500 0.643625 0.416667
v 0.092777 0.654968 0.416667
v -0.097500 0.643625 0.416667
v -0.081374 0.659667 0.416667
v -0.092777 0.654968 0.416667
v -0.081374 0.460333 0.416667
v -0.097500 0.476375 0.416667
v -0.092777 0.465032 0.416667
v 0.097500 0.476375 0.416667
v 0.081374 0.460333 0.416667
v 0.092777 0.465032 0.416667
v 0.091874 0.665733 0.333333
v 0.108000 0.649692 0.333333
v 0.103277 0.661035 0.333333
v -0.108000 0.649692 0.333333
v -0.091874 0.665733 0.333333
v -0.103277 0.661035 0.333333
v -0.091874 0.454267 0.333333
v -0.108000 0.470308 0.333333
v -0.103277 0.458965 0.333333
v 0.108000 0.470308 0.333333
v 0.091874 0.454267 0.333333
v 0.103277 0.458965 0.333333
v 0.102374 0.671800 0.250000
v 0.118500 0.655758 0.250000
v 0.113777 0.667102 0.250000
v -0.118500 0.655758 0.250000
v -0.102374 0.671800 0.250000
v -0.113777 0.667102 0.250000
v -0.102374 0.448200 0.250000
v -0.118500 0.464242 0.250000
v -0.113777 0.452899 0.250000
v 0.118500 0.464242 0.250000
v 0.102374 0.448200 0.250000
v 0.113777 0.452899 0.250000
v 0.112874 0.677867 0.166667
v 0.129000 0.661825 0.166667
v 0.124277 0.673168 0.166667
v -0.129000 0.661825 0.166667
v -0.112874 0.677867 0.166667
v -0.124277 0.673168 0.166667
v -0.112874 0.442133 0.166667
v -0.129000 0.458175 0.166667
v -0.124277 0.446832 0.166667
v 0.129000 0.458175 0.166667
v 0.112874 0.442133 0.166667
v 0.124277 0.446832 0.166667
v 0.123374 0.683933 0.083333
v 0.139500 0.667892 0.083333
v 0.134777 0.679235 0.083333
v -0.139500 0.667892 0.083333
v -0.123374 0.683933 0.083333
v -0.134777 0.679235 0.083333
v -0.123374 0.436067 0.083333
v -0.139500 0.452108 0.083333
v -0.134777 0.440765 0.083333
v 0.139500 0.452108 0.083333
v 0.123374 0.436067 0.083333
v 0.134777 0.440765 0.083333
v 0.133874 0.690000 0.000000
v 0.150000 0.673958 0.000000
v 0.145277 0.685302 0.000000
v -0.150000 0.673958 0.000000
v -0.133874 0.690000 0.000000
v -0.145277 0.685302 0.000000
v -0.133874 0.430000 0.000000
v -0.150000 0.446042 0.000000
v -0.145277 0.434699 0.000000
v 0.150000 0.446042 0.000000
v 0.133874 0.430000 0.000000
v 0.145277 0.434699 0.000000
v 0.123374 0.683933 -0.083333
v 0.139500 0.667892 -0.083333
v 0.134777 0.679235 -0.083333
v -0.139500 0.667892 -0.083333
v -0.123374 0.683933 -0.083333
v -0.134777 0.679235 -0.083333
v -0.123374 0.436067 -0.083333
v -0.139500 0.452108 -0.083333
v -0.134777 0.440765 -0.083333
v 0.139500 0.452108 -0.083333
v 0.123374 0.436067 -0.083333
v 0.134777 0.440765 -0.083333
v 0.112874 0.677867 -0.166667
v 0.129000 0.661825 -0.166667
v 0.124277 0.673168 -0.166667
v -0.129000 0.661825 -0.166667
v -0.112874 0.677867 -0.166667
v -0.124277 0.673168 -0.166667
v -0.112874 0.442133 -0.166667
v -0.129000 0.458175 -0.166667
v -0.124277 0.446832 -0.166667
v 0.129000 0.458175 -0.166667
v 0.112874 0.442133 -0.166667
v 0.124277 0.446832 -0.166667
v 0.102374 0.671800 -0.250000
v 0.118500 0.655758 -0.250000
v 0.113777 0.667101 -0.250000
v -0.118500 0.655758 -0.250000
v -0.102374 0.671800 -0.250000
v -0.113777 0.667101 -0.250000
v -0.102374 0.448200 -0.250000
v -0.118500 0.464242 -0.250000
v -0.113777 0.452899 -0.250000
v 0.118500 0.464242 -0.250000
v 0.102374 0.448200 -0.250000
v 0.113777 0.452899 -0.250000
v 0.091874 0.665733 -0.333333
v 0.108000 0.649692 -0.333333
v 0.103277 0.661035 -0.333333
v -0.108000 0.649692 -0.333333
v -0.091874 0.665733 -0.333333
v -0.103277 0.661035 -0.333333
v -0.091874 0.454267 -0.333333
v -0.108000 0.470308 -0.333333
v -0.103277 0.458965 -0.333333
v 0.108000 0.470308 -0.333333
v 0.091874 0.454267 -0.333333
v 0.103277 0.458965 -0.333333
v 0.081374 0.659667 -0.416667
v 0.097500 0.643625 -0.416667
v 0.092777 0.654968 -0.416667
v -0.097500 0.643625 -0.416667
v -0.081374 0.659667 -0.416667
v -0.092777 0.654968 -0.416667
v -0.081374 0.460333 -0.416667
v -0.097500 0.476375 -0.416667
v -0.092777 0.465032 -0.416667
v 0.097500 0.476375 -0.416667
v 0.081374 0.460333 -0.416667
v 0.092777 0.465032 -0.416667
v 0.089000 0.638714 -0.484126
v 0.072885 0.654762 -0.484042
v 0.071000 0.637600 -0.500000
v 0.084256 0.650051 -0.484084
v 0.081059 0.647318 -0.493273
v 0.071528 0.649264 -0.495309
v 0.082923 0.637916 -0.495368
v -0.089000 0.638714 -0.484126
v -0.071000 0.637600 -0.500000
v -0.072885 0.654762 -0.484042
v -0.082923 0.637916 -0.495368
v -0.081059 0.647319 -0.493273
v -0.071528 0.649264 -0.495309
v -0.084256 0.650052 -0.484084
v -0.072885 0.465238 -0.484042
v -0.071000 0.482400 -0.500000
v -0.089000 0.481286 -0.484126
v -0.071528 0.470736 -0.495309
v -0.081059 0.472681 -0.493273
v -0.082923 0.482084 -0.495368
v -0.084256 0.469948 -0.484084
v 0.089000 0.481286 -0.484126
v 0.071000 0.482400 -0.500000
v 0.072885 0.465238 -0.484042
v 0.082923 0.482084 -0.495368
v 0.081059 0.472681 -0.493273
v 0.071528 0.470736 -0.495309
v 0.084256 0.469948 -0.484084
v 0.177188 1.033750 -0.110400
v 0.000000 1.033750 -0.086112
v -0.177188 1.033750 -0.110400
v -0.177188 1.033750 0.110400
v 0.000000 1.033750 0.086112
v 0.177188 1.033750 0.110400
v 0.165375 1.427500 -0.105800
v 0.000000 1.427500 -0.082524
v -0.165375 1.427500 -0.105800
v -0.165375 1.427500 0.105800
v 0.000000 1.427500 0.082524
v 0.165375 1.427500 0.105800
v 0.153563 1.821250 -0.101200
v 0.000000 1.821250 -0.078936
v -0.153563 1.821250 -0.101200
v -0.153563 1.821250 0.101200
v 0.000000 1.821250 0.078936
v 0.153563 1.821250 0.101200
v 0.141750 2.215000 -0.096600
v 0.000000 2.215000 -0.075348
v -0.141750 2.215000 -0.096600
v -0.141750 2.215000 0.096600
v 0.000000 2.215000 0.075348
v 0.141750 2.215000 0.096600
v 0.129937 2.608750 -0.092000
v 0.000000 2.608750 -0.071760
v -0.129937 2.608750 -0.092000
v -0.129937 2.608750 0.092000
v 0.000000 2.608750 0.071760
v 0.129937 2.608750 0.092000
v 0.118125 3.002500 -0.087400
v 0.000000 3.002500 -0.068172
v -0.118125 3.002500 -0.087400
v -0.118125 3.002500 0.087400
v 0.000000 3.002500 0.068172
v 0.118125 3.002500 0.087400
v 0.106312 3.396250 -0.082800
v 0.000000 3.396250 -0.064584
v -0.106312 3.396250 -0.082800
v -0.106312 3.396250 0.082800
v 0.000000 3.396250 0.064584
v 0.106312 3.396250 0.082800
v 0.094500 3.790000 -0.078200
v 0.000000 3.790000 -0.060996
v -0.094500 3.790000 -0.078200
v -0.094500 3.790000 0.078200
v 0.000000 3.790000 0.060996
v 0.094500 3.790000 0.078200
v 0.079937 4.020000 -0.060312
v 0.000000 4.020000 -0.047044
v -0.079937 4.020000 -0.060312
v -0.079937 4.020000 0.060312
v 0.000000 4.020000 0.047044
v 0.079937 4.020000 0.060312
v 0.064424 4.250000 -0.048607
v 0.000000 4.250000 -0.037914
v -0.064424 4.250000 -0.048607
v -0.064424 4.250000 0.048607
v 0.000000 4.250000 0.037914
v 0.064424 4.250000 0.048607
v 0.047531 4.480000 -0.035862
v 0.000000 4.480000 -0.027972
v -0.047531 4.480000 -0.035862
v -0.047531 4.480000 0.035862
v 0.000000 4.480000 0.027972
v 0.047531 4.480000 0.035862
v 0.028262 4.710000 -0.021324
v 0.000000 4.710000 -0.016632
v -0.028262 4.710000 -0.021324
v -0.028262 4.710000 0.021324
v 0.000000 4.710000 0.016632
v 0.028262 4.710000 0.021324
v 0.418347 0.641713 0.000766
v 0.416154 0.640000 -0.000000
v 0.418347 0.641713 -0.000766
v 0.417414 0.640502 0.000710
v 0.418381 0.640733 0.000000
v 0.417414 0.640502 -0.000710
v 0.418982 0.641756 0.000000
v 0.188707 0.640000 -0.113232
v 0.188949 0.641714 -0.114980
v 0.188899 0.640502 -0.114476
v -0.000000 0.640000 -0.087971
v 0.000000 0.641714 -0.089684
v -0.000000 0.640502 -0.089189
v -0.188707 0.640000 -0.113232
v -0.188949 0.641714 -0.114980
v -0.188899 0.640502 -0.114476
v -0.416154 0.640000 0.000000
v -0.418347 0.641713 0.000766
v -0.418347 0.641713 -0.000766
v -0.417414 0.640502 0.000710
v -0.418381 0.640733 -0.000000
v -0.418982 0.641756 -0.000000
v -0.417414 0.640502 -0.000710
v -0.188707 0.640000 0.113232
v -0.188949 0.641714 0.114980
v -0.188899 0.640502 0.114476
v 0.000000 0.640000 0.087971
v 0.000000 0.641714 0.089684
v 0.000000 0.640502 0.089189
v 0.188707 0.640000 0.113232
v 0.188949 0.641714 0.114980
v 0.188899 0.640502 0.114476
v 0.392219 1.033750 -0.000780
v 0.392219 1.033750 0.000780
v 0.392853 1.033750 0.000000
v -0.392219 1.033750 0.000780
v -0.392219 1.033750 -0.000780
v -0.392853 1.033750 0.000000
v 0.365977 1.427500 -0.000797
v 0.365977 1.427500 0.000797
v 0.366608 1.427500 0.000000
v -0.365977 1.427500 0.000797
v -0.365977 1.427500 -0.000797
v -0.366608 1.427500 0.000000
v 0.339737 1.821250 -0.000816
v 0.339737 1.821250 0.000816
v 0.340364 1.821250 0.000000
v -0.339737 1.821250 0.000816
v -0.339737 1.821250 -0.000816
v -0.340364 1.821250 0.000000
v 0.313498 2.215000 -0.000837
v 0.313498 2.215000 0.000837
v 0.314120 2.215000 0.000000
v -0.313498 2.215000 0.000837
v -0.313498 2.215000 -0.000837
v -0.314120 2.215000 0.000000
v 0.287262 2.608750 -0.000862
v 0.287262 2.608750 0.000862
v 0.287878 2.608750 0.000000
v -0.287262 2.608750 0.000862
v -0.287262 2.608750 -0.000862
v -0.287878 2.608750 0.000000
v 0.261028 3.002500 -0.000891
v 0.261028 3.002500 0.000891
v 0.261638 3.002500 0.000000
v -0.261028 3.002500 0.000891
v -0.261028 3.002500 -0.000891
v -0.261638 3.002500 0.000000
v 0.234798 3.396250 -0.000925
v 0.234798 3.396250 0.000925
v 0.235399 3.396250 0.000000
v -0.234798 3.396250 0.000925
v -0.234798 3.396250 -0.000925
v -0.235399 3.396250 0.000000
v 0.208573 3.790000 -0.000966
v 0.208573 3.790000 0.000966
v 0.209164 3.790000 0.000000
v -0.208573 3.790000 0.000966
v -0.208573 3.790000 -0.000966
v -0.209164 3.790000 0.000000
v 0.176169 4.020000 -0.000907
v 0.176169 4.020000 0.000907
v 0.176778 4.020000 0.000000
v -0.176169 4.020000 0.000907
v -0.176169 4.020000 -0.000907
v -0.176778 4.020000 0.000000
v 0.141693 4.250000 -0.000908
v 0.141693 4.250000 0.000908
v 0.142302 4.250000 -0.000000
v -0.141693 4.250000 0.000908
v -0.141693 4.250000 -0.000908
v -0.142302 4.250000 0.000000
v 0.104152 4.480000 -0.000909
v 0.104152 4.480000 0.000909
v 0.104762 4.480000 0.000000
v -0.104152 4.480000 0.000909
v -0.104152 4.480000 -0.000909
v -0.104762 4.480000 0.000000
v 0.061331 4.710000 -0.000910
v 0.061331 4.710000 0.000910
v 0.061941 4.710000 0.000000
v -0.061331 4.710000 0.000910
v -0.061331 4.710000 -0.000910
v -0.061941 4.710000 0.000000
v 0.003418 4.938314 0.001381
v 0.003418 4.938314 -0.001381
v 0.001875 4.940000 -0.000000
v 0.003812 4.938415 -0.000000
v 0.003340 4.939310 -0.000000
v 0.002875 4.939506 -0.000858
v 0.002875 4.939506 0.000858
v 0.001180 4.940000 -0.000947
v 0.001996 4.938295 -0.003136
v 0.001676 4.939501 -0.002439
v 0.000000 4.940000 -0.000515
v 0.000000 4.938297 -0.002446
v 0.000000 4.939501 -0.001836
v -0.001180 4.940000 -0.000947
v -0.001996 4.938295 -0.003136
v -0.001676 4.939501 -0.002439
v -0.003418 4.938314 0.001381
v -0.001875 4.940000 0.000000
v -0.003418 4.938314 -0.001381
v -0.002875 4.939506 0.000858
v -0.003340 4.939310 0.000000
v -0.002875 4.939506 -0.000858
v -0.003812 4.938415 0.000000
v -0.001180 4.940000 0.000947
v -0.001996 4.938295 0.003136
v -0.001676 4.939501 0.002439
v -0.000000 4.940000 0.000515
v 0.000000 4.938297 0.002446
v -0.000000 4.939501 0.001836
v 0.001180 4.940000 0.000947
v 0.001996 4.938295 0.003136
v 0.001676 4.939501 0.002439
vn 0.9987 0.0514 -0.0000
vn 0.8998 0.0514 -0.4333
vn 0.9009 -0.0159 -0.4338
vn 0.9999 -0.0159 -0.0000
vn 0.6227 0.0514 -0.7808
vn 0.6234 -0.0159 -0.7817
vn 0.2222 0.0514 -0.9736
vn 0.2225 -0.0159 -0.9748
vn -0.2222 0.0514 -0.9736
vn -0.2225 -0.0159 -0.9748
vn -0.6227 0.0514 -0.7808
vn -0.6234 -0.0159 -0.7817
vn -0.8998 0.0514 -0.4333
vn -0.9009 -0.0159 -0.4338
vn -0.9987 0.0514 -0.0000
vn -0.9999 -0.0159 -0.0000
vn -0.8998 0.0514 0.4333
vn -0.9009 -0.0159 0.4338
vn -0.6227 0.0514 0.7808
vn -0.6234 -0.0159 0.7817
vn -0.2222 0.0514 0.9736
vn -0.2225 -0.0159 0.9748
vn 0.2222 0.0514 0.9736
vn 0.2225 -0.0159 0.9748
vn 0.6227 0.0514 0.7808
vn 0.6234 -0.0159 0.7817
vn 0.8998 0.0514 0.4333
vn 0.9009 -0.0159 0.4338
vn 0.9008 -0.0181 -0.4338
vn 0.9998 -0.0181 -0.0000
vn 0.6234 -0.0181 -0.7817
vn 0.2225 -0.0181 -0.9748
vn -0.2225 -0.0181 -0.9748
vn -0.6234 -0.0181 -0.7817
vn -0.9008 -0.0181 -0.4338
vn -0.9998 -0.0181 -0.0000
vn -0.9008 -0.0181 0.4338
vn -0.6234 -0.0181 0.7817
vn -0.2225 -0.0181 0.9748
vn 0.2225 -0.0181 0.9748
vn 0.6234 -0.0181 0.7817
vn 0.9008 -0.0181 0.4338
vn 0.8962 0.1032 -0.4316
vn 0.9947 0.1032 -0.0000
vn 0.6202 0.1032 -0.7777
vn 0.2213 0.1032 -0.9697
vn -0.2213 0.1032 -0.9697
vn -0.6202 0.1032 -0.7777
vn -0.8962 0.1032 -0.4316
vn -0.9947 0.1032 -0.0000
vn -0.8962 0.1032 0.4316
vn -0.6202 0.1032 0.7777
vn -0.2213 0.1032 0.9697
vn 0.2213 0.1032 0.9697
vn 0.6202 0.1032 0.7777
vn 0.8962 0.1032 0.4316
vn 0.8967 0.0972 -0.4318
vn 0.9953 0.0972 -0.0000
vn 0.6205 0.0972 -0.7781
vn 0.2215 0.0972 -0.9703
vn -0.2215 0.0972 -0.9703
vn -0.6205 0.0972 -0.7781
vn -0.8967 0.0972 -0.4318
vn -0.9953 0.0972 -0.0000
vn -0.8967 0.0972 0.4318
vn -0.6205 0.0972 0.7781
vn -0.2215 0.0972 0.9703
vn 0.2215 0.0972 0.9703
vn 0.6205 0.0972 0.7781
vn 0.8967 0.0972 0.4318
vn 0.9004 -0.0350 -0.4336
vn 0.9994 -0.0350 -0.0000
vn 0.6231 -0.0350 -0.7814
vn 0.2224 -0.0350 -0.9743
vn -0.2224 -0.0350 -0.9743
vn -0.6231 -0.0350 -0.7814
vn -0.9004 -0.0350 -0.4336
vn -0.9994 -0.0350 -0.0000
vn -0.9004 -0.0350 0.4336
vn -0.6231 -0.0350 0.7814
vn -0.2224 -0.0350 0.9743
vn 0.2224 -0.0350 0.9743
vn 0.6231 -0.0350 0.7814
vn 0.9004 -0.0350 0.4336
vn 0.9002 -0.0422 -0.4335
vn 0.9991 -0.0422 -0.0000
vn 0.6229 -0.0422 -0.7811
vn 0.2223 -0.0422 -0.9741
vn -0.2223 -0.0422 -0.9741
vn -0.6229 -0.0422 -0.7811
vn -0.9002 -0.0422 -0.4335
vn -0.9991 -0.0422 -0.0000
vn -0.9002 -0.0422 0.4335
vn -0.6229 -0.0422 0.7811
vn -0.2223 -0.0422 0.9741
vn 0.2223 -0.0422 0.9741
vn 0.6229 -0.0422 0.7811
vn 0.9002 -0.0422 0.4335
vn 0.8988 0.0691 -0.4328
vn 0.9976 0.0691 -0.0000
vn 0.6220 0.0691 -0.7800
vn 0.2220 0.0691 -0.9726
vn -0.2220 0.0691 -0.9726
vn -0.6220 0.0691 -0.7800
vn -0.8988 0.0691 -0.4328
vn -0.9976 0.0691 -0.0000
vn -0.8988 0.0691 0.4328
vn -0.6220 0.0691 0.7800
vn -0.2220 0.0691 0.9726
vn 0.2220 0.0691 0.9726
vn 0.6220 0.0691 0.7800
vn 0.8988 0.0691 0.4328
vn 0.8993 0.0607 -0.4331
vn 0.9982 0.0607 -0.0000
vn 0.6223 0.0607 -0.7804
vn 0.2221 0.0607 -0.9731
vn -0.2221 0.0607 -0.9731
vn -0.6223 0.0607 -0.7804
vn -0.8993 0.0607 -0.4331
vn -0.9982 0.0607 -0.0000
vn -0.8993 0.0607 0.4331
vn -0.6223 0.0607 0.7804
vn -0.2221 0.0607 0.9731
vn 0.2221 0.0607 0.9731
vn 0.6223 0.0607 0.7804
vn 0.8993 0.0607 0.4331
vn 0.9009 -0.0091 -0.4339
vn 1.0000 -0.0091 -0.0000
vn 0.6235 -0.0091 -0.7818
vn 0.2225 -0.0091 -0.9749
vn -0.2225 -0.0091 -0.9749
vn -0.6235 -0.0091 -0.7818
vn -0.9009 -0.0091 -0.4339
vn -1.0000 -0.0091 -0.0000
vn -0.9009 -0.0091 0.4339
vn -0.6235 -0.0091 0.7818
vn -0.2225 -0.0091 0.9749
vn 0.2225 -0.0091 0.9749
vn 0.6235 -0.0091 0.7818
vn 0.9009 -0.0091 0.4339
vn 0.8981 -0.0796 -0.4325
vn 0.9968 -0.0796 -0.0000
vn 0.6215 -0.0796 -0.7793
vn 0.2218 -0.0796 -0.9718
vn -0.2218 -0.0796 -0.9718
vn -0.6215 -0.0796 -0.7793
vn -0.8981 -0.0796 -0.4325
vn -0.9968 -0.0796 -0.0000
vn -0.8981 -0.0796 0.4325
vn -0.6215 -0.0796 0.7793
vn -0.2218 -0.0796 0.9718
vn 0.2218 -0.0796 0.9718
vn 0.6215 -0.0796 0.7793
vn 0.8981 -0.0796 0.4325
vn 0.8975 -0.0873 -0.4322
vn 0.9962 -0.0873 -0.0000
vn 0.6211 -0.0873 -0.7788
vn 0.2217 -0.0873 -0.9712
vn -0.2217 -0.0873 -0.9712
vn -0.6211 -0.0873 -0.7788
vn -0.8975 -0.0873 -0.4322
vn -0.9962 -0.0873 -0.0000
vn -0.8975 -0.0873 0.4322
vn -0.6211 -0.0873 0.7788
vn -0.2217 -0.0873 0.9712
vn 0.2217 -0.0873 0.9712
vn 0.6211 -0.0873 0.7788
vn 0.8975 -0.0873 0.4322
vn 0.9006 0.0277 -0.4337
vn 0.9996 0.0277 -0.0000
vn 0.6233 0.0277 -0.7815
vn 0.2224 0.0277 -0.9746
vn -0.2224 0.0277 -0.9746
vn -0.6233 0.0277 -0.7815
vn -0.9006 0.0277 -0.4337
vn -0.9996 0.0277 -0.0000
vn -0.9006 0.0277 0.4337
vn -0.6233 0.0277 0.7815
vn -0.2224 0.0277 0.9746
vn 0.2224 0.0277 0.9746
vn 0.6233 0.0277 0.7815
vn 0.9006 0.0277 0.4337
vn 0.9007 0.0226 -0.4338
vn 0.9997 0.0226 -0.0000
vn 0.6233 0.0226 -0.7816
vn 0.2225 0.0226 -0.9747
vn -0.2225 0.0226 -0.9747
vn -0.6233 0.0226 -0.7816
vn -0.9007 0.0226 -0.4338
vn -0.9997 0.0226 -0.0000
vn -0.9007 0.0226 0.4338
vn -0.6233 0.0226 0.7816
vn -0.2225 0.0226 0.9747
vn 0.2225 0.0226 0.9747
vn 0.6233 0.0226 0.7816
vn 0.9007 0.0226 0.4338
vn 0.8954 -0.1115 -0.4312
vn 0.9938 -0.1115 -0.0000
vn 0.6196 -0.1115 -0.7770
vn 0.2211 -0.1115 -0.9689
vn -0.2211 -0.1115 -0.9689
vn -0.6196 -0.1115 -0.7770
vn -0.8954 -0.1115 -0.4312
vn -0.9938 -0.1115 -0.0000
vn -0.8954 -0.1115 0.4312
vn -0.6196 -0.1115 0.7770
vn -0.2211 -0.1115 0.9689
vn 0.2211 -0.1115 0.9689
vn 0.6196 -0.1115 0.7770
vn 0.8954 -0.1115 0.4312
vn 0.8950 -0.1147 -0.4310
vn 0.9934 -0.1147 -0.0000
vn 0.6194 -0.1147 -0.7767
vn 0.2211 -0.1147 -0.9685
vn -0.2211 -0.1147 -0.9685
vn -0.6194 -0.1147 -0.7767
vn -0.8950 -0.1147 -0.4310
vn -0.9934 -0.1147 -0.0000
vn -0.8950 -0.1147 0.4310
vn -0.6194 -0.1147 0.7767
vn -0.2211 -0.1147 0.9685
vn 0.2211 -0.1147 0.9685
vn 0.6194 -0.1147 0.7767
vn 0.8950 -0.1147 0.4310
vn 0.9009 0.0147 -0.4338
vn 0.9999 0.0147 -0.0000
vn 0.6234 0.0147 -0.7817
vn 0.2225 0.0147 -0.9748
vn -0.2225 0.0147 -0.9748
vn -0.6234 0.0147 -0.7817
vn -0.9009 0.0147 -0.4338
vn -0.9999 0.0147 -0.0000
vn -0.9009 0.0147 0.4338
vn -0.6234 0.0147 0.7817
vn -0.2225 0.0147 0.9748
vn 0.2225 0.0147 0.9748
vn 0.6234 0.0147 0.7817
vn 0.9009 0.0147 0.4338
vn 0.2205 -0.9754 -0.0000
vn 0.1987 -0.9754 -0.0957
vn 0.3432 -0.9246 -0.1653
vn 0.3809 -0.9246 -0.0000
vn 0.9369 -0.3496 -0.0000
vn 0.8441 -0.3496 -0.4065
vn 0.8911 -0.1477 -0.4291
vn 0.9890 -0.1477 -0.0000
vn 0.1375 -0.9754 -0.1724
vn 0.2375 -0.9246 -0.2978
vn 0.5841 -0.3496 -0.7325
vn 0.6166 -0.1477 -0.7733
vn 0.0491 -0.9754 -0.2150
vn 0.0848 -0.9246 -0.3714
vn 0.2085 -0.3496 -0.9134
vn 0.2201 -0.1477 -0.9642
vn -0.0491 -0.9754 -0.2150
vn -0.0848 -0.9246 -0.3714
vn -0.2085 -0.3496 -0.9134
vn -0.2201 -0.1477 -0.9642
vn -0.1375 -0.9754 -0.1724
vn -0.2375 -0.9246 -0.2978
vn -0.5841 -0.3496 -0.7325
vn -0.6166 -0.1477 -0.7733
vn -0.1987 -0.9754 -0.0957
vn -0.3432 -0.9246 -0.1653
vn -0.8441 -0.3496 -0.4065
vn -0.8911 -0.1477 -0.4291
vn -0.2205 -0.9754 -0.0000
vn -0.3809 -0.9246 -0.0000
vn -0.9369 -0.3496 -0.0000
vn -0.9890 -0.1477 -0.0000
vn -0.1987 -0.9754 0.0957
vn -0.3432 -0.9246 0.1653
vn -0.8441 -0.3496 0.4065
vn -0.8911 -0.1477 0.4291
vn -0.1375 -0.9754 0.1724
vn -0.2375 -0.9246 0.2978
vn -0.5841 -0.3496 0.7325
vn -0.6166 -0.1477 0.7733
vn -0.0491 -0.9754 0.2150
vn -0.0848 -0.9246 0.3714
vn -0.2085 -0.3496 0.9134
vn -0.2201 -0.1477 0.9642
vn 0.0491 -0.9754 0.2150
vn 0.0848 -0.9246 0.3714
vn 0.2085 -0.3496 0.9134
vn 0.2201 -0.1477 0.9642
vn 0.1375 -0.9754 0.1724
vn 0.2375 -0.9246 0.2978
vn 0.5841 -0.3496 0.7325
vn 0.6166 -0.1477 0.7733
vn 0.1987 -0.9754 0.0957
vn 0.3432 -0.9246 0.1653
vn 0.8441 -0.3496 0.4065
vn 0.8911 -0.1477 0.4291
vn 0.9637 0.2669 -0.0000
vn 0.8683 0.2669 -0.4181
vn 0.8027 0.4541 -0.3866
vn 0.8909 0.4541 -0.0000
vn 0.3629 0.9318 -0.0000
vn 0.3269 0.9318 -0.1574
vn 0.1890 0.9777 -0.0910
vn 0.2098 0.9777 -0.0000
vn 0.6009 0.2669 -0.7535
vn 0.5555 0.4542 -0.6966
vn 0.2262 0.9318 -0.2837
vn 0.1308 0.9777 -0.1640
vn 0.2145 0.2669 -0.9396
vn 0.1982 0.4542 -0.8686
vn 0.0807 0.9318 -0.3538
vn 0.0467 0.9777 -0.2046
vn -0.2145 0.2669 -0.9396
vn -0.1983 0.4542 -0.8686
vn -0.0807 0.9318 -0.3538
vn -0.0467 0.9777 -0.2046
vn -0.6009 0.2669 -0.7535
vn -0.5555 0.4541 -0.6966
vn -0.2262 0.9318 -0.2837
vn -0.1308 0.9777 -0.1640
vn -0.8683 0.2669 -0.4181
vn -0.8027 0.4541 -0.3866
vn -0.3269 0.9318 -0.1574
vn -0.1890 0.9777 -0.0910
vn -0.9637 0.2669 -0.0000
vn -0.8909 0.4541 -0.0000
vn -0.3629 0.9318 -0.0000
vn -0.2098 0.9777 -0.0000
vn -0.8683 0.2669 0.4181
vn -0.8027 0.4541 0.3866
vn -0.3269 0.9318 0.1574
vn -0.1890 0.9777 0.0910
vn -0.6009 0.2669 0.7535
vn -0.5555 0.4542 0.6966
vn -0.2262 0.9318 0.2837
vn -0.1308 0.9777 0.1640
vn -0.2145 0.2669 0.9396
vn -0.1982 0.4542 0.8686
vn -0.0807 0.9318 0.3538
vn -0.0467 0.9777 0.2046
vn 0.2145 0.2669 0.9396
vn 0.1983 0.4542 0.8686
vn 0.0807 0.9318 0.3538
vn 0.0467 0.9777 0.2046
vn 0.6009 0.2669 0.7535
vn 0.5555 0.4541 0.6966
vn 0.2262 0.9318 0.2837
vn 0.1308 0.9777 0.1640
vn 0.8683 0.2669 0.4181
vn 0.8027 0.4541 0.3866
vn 0.3269 0.9318 0.1574
vn 0.1890 0.9777 0.0910
vn 0.2455 -0.9694 -0.0000
vn 0.2212 -0.9694 -0.1065
vn 0.5099 -0.8244 -0.2456
vn 0.5660 -0.8244 -0.0000
vn 0.1530 -0.9694 -0.1919
vn 0.3529 -0.8244 -0.4425
vn 0.0546 -0.9694 -0.2393
vn 0.1259 -0.8244 -0.5518
vn -0.0546 -0.9694 -0.2393
vn -0.1259 -0.8244 -0.5518
vn -0.1530 -0.9694 -0.1919
vn -0.3529 -0.8244 -0.4425
vn -0.2212 -0.9694 -0.1065
vn -0.5099 -0.8244 -0.2456
vn -0.2455 -0.9694 -0.0000
vn -0.5660 -0.8244 -0.0000
vn -0.2212 -0.9694 0.1065
vn -0.5099 -0.8244 0.2456
vn -0.1530 -0.9694 0.1919
vn -0.3529 -0.8244 0.4425
vn -0.0546 -0.9694 0.2393
vn -0.1259 -0.8244 0.5518
vn 0.0546 -0.9694 0.2393
vn 0.1259 -0.8244 0.5518
vn 0.1530 -0.9694 0.1919
vn 0.3529 -0.8244 0.4425
vn 0.2212 -0.9694 0.1065
vn 0.5099 -0.8244 0.2456
vn 0.6773 -0.6595 -0.3262
vn 0.7517 -0.6595 -0.0000
vn 0.4687 -0.6595 -0.5877
vn 0.1673 -0.6595 -0.7329
vn -0.1673 -0.6595 -0.7329
vn -0.4687 -0.6595 -0.5877
vn -0.6773 -0.6595 -0.3262
vn -0.7517 -0.6595 -0.0000
vn -0.6773 -0.6595 0.3262
vn -0.4687 -0.6595 0.5877
vn -0.1673 -0.6595 0.7329
vn 0.1673 -0.6595 0.7329
vn 0.4687 -0.6595 0.5877
vn 0.6773 -0.6595 0.3262
vn 0.7909 -0.4790 -0.3809
vn 0.8778 -0.4790 -0.0000
vn 0.5473 -0.4790 -0.6863
vn 0.1953 -0.4790 -0.8558
vn -0.1953 -0.4790 -0.8558
vn -0.5473 -0.4790 -0.6863
vn -0.7909 -0.4790 -0.3809
vn -0.8778 -0.4790 -0.0000
vn -0.7909 -0.4790 0.3809
vn -0.5473 -0.4790 0.6863
vn -0.1953 -0.4790 0.8558
vn 0.1953 -0.4790 0.8558
vn 0.5473 -0.4790 0.6863
vn 0.7909 -0.4790 0.3809
vn 0.8709 -0.2564 -0.4194
vn 0.9666 -0.2564 -0.0000
vn 0.6026 -0.2564 -0.7557
vn 0.2151 -0.2564 -0.9423
vn -0.2151 -0.2564 -0.9423
vn -0.6026 -0.2564 -0.7557
vn -0.8709 -0.2564 -0.4194
vn -0.9666 -0.2564 -0.0000
vn -0.8709 -0.2564 0.4194
vn -0.6026 -0.2564 0.7557
vn -0.2151 -0.2564 0.9423
vn 0.2151 -0.2564 0.9423
vn 0.6026 -0.2564 0.7557
vn 0.8709 -0.2564 0.4194
vn 0.9010 -0.0000 -0.4339
vn 1.0000 -0.0000 -0.0000
vn 0.6235 -0.0000 -0.7818
vn 0.2225 -0.0000 -0.9749
vn -0.2225 -0.0000 -0.9749
vn -0.6235 -0.0000 -0.7818
vn -0.9010 -0.0000 -0.4339
vn -1.0000 -0.0000 -0.0000
vn -0.9010 -0.0000 0.4339
vn -0.6235 -0.0000 0.7818
vn -0.2225 -0.0000 0.9749
vn 0.2225 -0.0000 0.9749
vn 0.6235 -0.0000 0.7818
vn 0.9010 -0.0000 0.4339
vn 0.8709 0.2564 -0.4194
vn 0.9666 0.2564 -0.0000
vn 0.6026 0.2564 -0.7557
vn 0.2151 0.2564 -0.9423
vn -0.2151 0.2564 -0.9423
vn -0.6026 0.2564 -0.7557
vn -0.8709 0.2564 -0.4194
vn -0.9666 0.2564 -0.0000
vn -0.8709 0.2564 0.4194
vn -0.6026 0.2564 0.7557
vn -0.2151 0.2564 0.9423
vn 0.2151 0.2564 0.9423
vn 0.6026 0.2564 0.7557
vn 0.8709 0.2564 0.4194
vn 0.7909 0.4790 -0.3809
vn 0.8778 0.4790 -0.0000
vn 0.5473 0.4790 -0.6863
vn 0.1953 0.4790 -0.8558
vn -0.1953 0.4790 -0.8558
vn -0.5473 0.4790 -0.6863
vn -0.7909 0.4790 -0.3809
vn -0.8778 0.4790 -0.0000
vn -0.7909 0.4790 0.3809
vn -0.5473 0.4790 0.6863
vn -0.1953 0.4790 0.8558
vn 0.1953 0.4790 0.8558
vn 0.5473 0.4790 0.6863
vn 0.7909 0.4790 0.3809
vn 0.6773 0.6595 -0.3262
vn 0.7517 0.6595 -0.0000
vn 0.4687 0.6595 -0.5877
vn 0.1673 0.6595 -0.7329
vn -0.1673 0.6595 -0.7329
vn -0.4687 0.6595 -0.5877
vn -0.6773 0.6595 -0.3262
vn -0.7517 0.6595 -0.0000
vn -0.6773 0.6595 0.3262
vn -0.4687 0.6595 0.5877
vn -0.1673 0.6595 0.7329
vn 0.1673 0.6595 0.7329
vn 0.4687 0.6595 0.5877
vn 0.6773 0.6595 0.3262
vn 0.5099 0.8244 -0.2456
vn 0.5660 0.8244 -0.0000
vn 0.3529 0.8244 -0.4425
vn 0.1259 0.8244 -0.5518
vn -0.1259 0.8244 -0.5518
vn -0.3529 0.8244 -0.4425
vn -0.5099 0.8244 -0.2456
vn -0.5660 0.8244 -0.0000
vn -0.5099 0.8244 0.2456
vn -0.3529 0.8244 0.4425
vn -0.1259 0.8244 0.5518
vn 0.1259 0.8244 0.5518
vn 0.3529 0.8244 0.4425
vn 0.5099 0.8244 0.2456
vn 0.2212 0.9694 -0.1065
vn 0.2455 0.9694 -0.0000
vn 0.1530 0.9694 -0.1919
vn 0.0546 0.9694 -0.2393
vn -0.0546 0.9694 -0.2393
vn -0.1530 0.9694 -0.1919
vn -0.2212 0.9694 -0.1065
vn -0.2455 0.9694 -0.0000
vn -0.2212 0.9694 0.1065
vn -0.1530 0.9694 0.1919
vn -0.0546 0.9694 0.2393
vn 0.0546 0.9694 0.2393
vn 0.1530 0.9694 0.1919
vn 0.2212 0.9694 0.1065
vn 0.2022 -0.1838 0.9620
vn 0.1903 -0.3497 0.9173
vn 0.4073 -0.2990 0.8629
vn 0.4028 -0.1224 0.9071
vn 0.2063 -0.9551 -0.2129
vn 0.4131 -0.8766 -0.2467
vn 0.4073 -0.9108 -0.0680
vn 0.1903 -0.9808 -0.0432
vn 0.9785 -0.1738 0.1114
vn 0.9422 -0.1935 0.2735
vn 0.9316 -0.3038 0.1996
vn 0.9413 -0.3305 0.0679
vn 0.1943 -0.8533 -0.4839
vn 0.1810 -0.6012 -0.7784
vn 0.3663 -0.5688 -0.7364
vn 0.3814 -0.8020 -0.4598
vn 0.1943 -0.2526 -0.9479
vn 0.3815 -0.2423 -0.8920
vn 0.9589 -0.1735 -0.2246
vn 0.9031 -0.3484 -0.2511
vn 0.8550 -0.3170 -0.4105
vn 0.9030 -0.1550 -0.4006
vn 0.2067 0.0349 -0.9778
vn 0.1908 0.2050 -0.9600
vn 0.4088 0.1631 -0.8979
vn 0.4138 -0.0182 -0.9102
vn 0.2026 0.9767 0.0708
vn 0.4034 0.9076 0.1166
vn 0.4088 0.9103 -0.0654
vn 0.1908 0.9765 -0.1004
vn 0.9786 0.1515 -0.1390
vn 0.9417 0.1496 -0.3013
vn 0.9321 0.2695 -0.2419
vn 0.9426 0.3128 -0.1170
vn -0.2022 -0.1838 0.9620
vn -0.4028 -0.1224 0.9071
vn -0.4073 -0.2990 0.8629
vn -0.1903 -0.3497 0.9173
vn -0.9785 -0.1738 0.1114
vn -0.9413 -0.3305 0.0679
vn -0.9316 -0.3038 0.1996
vn -0.9422 -0.1935 0.2735
vn -0.2063 -0.9551 -0.2129
vn -0.1903 -0.9808 -0.0432
vn -0.4073 -0.9108 -0.0680
vn -0.4131 -0.8766 -0.2467
vn -0.1943 -0.8533 -0.4839
vn -0.3814 -0.8020 -0.4598
vn -0.3663 -0.5688 -0.7364
vn -0.1810 -0.6012 -0.7784
vn -0.9589 -0.1735 -0.2246
vn -0.9030 -0.1550 -0.4006
vn -0.8550 -0.3170 -0.4105
vn -0.9031 -0.3484 -0.2511
vn -0.1943 -0.2526 -0.9479
vn -0.3815 -0.2423 -0.8920
vn -0.2067 0.0349 -0.9778
vn -0.4138 -0.0182 -0.9102
vn -0.4088 0.1631 -0.8979
vn -0.1908 0.2050 -0.9600
vn -0.9786 0.1515 -0.1390
vn -0.9426 0.3128 -0.1170
vn -0.9321 0.2695 -0.2419
vn -0.9417 0.1496 -0.3013
vn -0.2026 0.9767 0.0708
vn -0.1908 0.9765 -0.1004
vn -0.4088 0.9103 -0.0654
vn -0.4034 0.9076 0.1166
vn 0.9749 0.0655 0.2126
vn 0.9292 0.1090 0.3533
vn 0.4028 0.2715 0.8741
vn 0.1985 0.2908 0.9360
vn 0.2004 0.8003 0.5651
vn 0.4090 0.7453 0.5265
vn 0.9314 0.2979 0.2093
vn 0.9744 0.1840 0.1292
vn -0.1985 0.2908 0.9360
vn -0.4028 0.2715 0.8741
vn -0.9292 0.1090 0.3533
vn -0.9749 0.0655 0.2126
vn -0.9744 0.1840 0.1292
vn -0.9314 0.2979 0.2093
vn -0.4090 0.7453 0.5265
vn -0.2004 0.8003 0.5651
vn -0.2022 -0.1838 -0.9620
vn -0.1903 -0.3497 -0.9173
vn -0.4073 -0.2990 -0.8629
vn -0.4028 -0.1224 -0.9071
vn -0.2063 -0.9551 0.2129
vn -0.4131 -0.8766 0.2467
vn -0.4073 -0.9108 0.0680
vn -0.1903 -0.9808 0.0432
vn -0.9785 -0.1738 -0.1114
vn -0.9422 -0.1935 -0.2735
vn -0.9316 -0.3038 -0.1996
vn -0.9413 -0.3305 -0.0679
vn -0.1943 -0.8533 0.4839
vn -0.1810 -0.6012 0.7784
vn -0.3663 -0.5688 0.7364
vn -0.3814 -0.8020 0.4598
vn -0.1943 -0.2526 0.9479
vn -0.3815 -0.2423 0.8920
vn -0.9589 -0.1735 0.2246
vn -0.9031 -0.3484 0.2511
vn -0.8550 -0.3170 0.4105
vn -0.9030 -0.1550 0.4006
vn -0.2067 0.0349 0.9778
vn -0.1908 0.2050 0.9600
vn -0.4088 0.1631 0.8979
vn -0.4138 -0.0182 0.9102
vn -0.2026 0.9767 -0.0708
vn -0.4034 0.9076 -0.1166
vn -0.4088 0.9103 0.0654
vn -0.1908 0.9765 0.1004
vn -0.9786 0.1515 0.1390
vn -0.9417 0.1496 0.3013
vn -0.9321 0.2695 0.2419
vn -0.9426 0.3128 0.1170
vn 0.2022 -0.1838 -0.9620
vn 0.4028 -0.1224 -0.9071
vn 0.4073 -0.2990 -0.8629
vn 0.1903 -0.3497 -0.9173
vn 0.9785 -0.1738 -0.1114
vn 0.9413 -0.3305 -0.0679
vn 0.9316 -0.3038 -0.1996
vn 0.9422 -0.1935 -0.2735
vn 0.2063 -0.9551 0.2129
vn 0.1903 -0.9808 0.0432
vn 0.4073 -0.9108 0.0680
vn 0.4131 -0.8766 0.2467
vn 0.1943 -0.8533 0.4839
vn 0.3814 -0.8020 0.4598
vn 0.3663 -0.5688 0.7364
vn 0.1810 -0.6012 0.7784
vn 0.9589 -0.1735 0.2246
vn 0.9030 -0.1550 0.4006
vn 0.8550 -0.3170 0.4105
vn 0.9031 -0.3484 0.2511
vn 0.1943 -0.2526 0.9479
vn 0.3815 -0.2423 0.8920
vn 0.2067 0.0349 0.9778
vn 0.4138 -0.0182 0.9102
vn 0.4088 0.1631 0.8979
vn 0.1908 0.2050 0.9600
vn 0.9786 0.1515 0.1390
vn 0.9426 0.3128 0.1170
vn 0.9321 0.2695 0.2419
vn 0.9417 0.1496 0.3013
vn 0.2026 0.9767 -0.0708
vn 0.1908 0.9765 0.1004
vn 0.4088 0.9103 0.0654
vn 0.4034 0.9076 -0.1166
vn -0.9749 0.0655 -0.2126
vn -0.9292 0.1090 -0.3533
vn -0.4028 0.2715 -0.8741
vn -0.1985 0.2908 -0.9360
vn -0.2004 0.8003 -0.5651
vn -0.4090 0.7453 -0.5265
vn -0.9314 0.2979 -0.2093
vn -0.9744 0.1840 -0.1292
vn 0.1985 0.2908 -0.9360
vn 0.4028 0.2715 -0.8741
vn 0.9292 0.1090 -0.3533
vn 0.9749 0.0655 -0.2126
vn 0.9744 0.1840 -0.1292
vn 0.9314 0.2979 -0.2093
vn 0.4090 0.7453 -0.5265
vn 0.2004 0.8003 -0.5651
vn -0.9383 -0.1753 -0.2981
vn -0.8738 -0.1474 -0.4635
vn -0.8431 -0.3136 -0.4369
vn -0.8906 -0.3535 -0.2860
vn -0.1667 -0.1721 -0.9709
vn -0.1525 -0.3458 -0.9258
vn -0.3036 -0.3095 -0.9011
vn -0.3376 -0.1541 -0.9286
vn -0.1732 -0.9496 -0.2613
vn -0.3528 -0.9006 -0.2539
vn -0.3118 -0.8554 -0.4136
vn -0.1418 -0.8903 -0.4327
vn 0.1667 -0.1721 -0.9709
vn 0.3376 -0.1541 -0.9286
vn 0.3036 -0.3095 -0.9011
vn 0.1525 -0.3458 -0.9258
vn 0.9383 -0.1753 -0.2981
vn 0.8906 -0.3535 -0.2860
vn 0.8431 -0.3137 -0.4369
vn 0.8738 -0.1474 -0.4635
vn 0.1732 -0.9496 -0.2613
vn 0.1418 -0.8903 -0.4327
vn 0.3118 -0.8554 -0.4136
vn 0.3528 -0.9006 -0.2539
vn 0.1667 0.1721 -0.9709
vn 0.1525 0.3458 -0.9258
vn 0.3036 0.3095 -0.9011
vn 0.3376 0.1541 -0.9286
vn 0.1732 0.9496 -0.2613
vn 0.3528 0.9006 -0.2539
vn 0.3118 0.8554 -0.4136
vn 0.1418 0.8903 -0.4327
vn 0.9383 0.1753 -0.2981
vn 0.8738 0.1474 -0.4635
vn 0.8431 0.3136 -0.4369
vn 0.8906 0.3535 -0.2860
vn -0.1667 0.1721 -0.9709
vn -0.3376 0.1541 -0.9286
vn -0.3036 0.3095 -0.9011
vn -0.1525 0.3458 -0.9258
vn -0.9383 0.1753 -0.2981
vn -0.8906 0.3535 -0.2860
vn -0.8431 0.3137 -0.4369
vn -0.8738 0.1474 -0.4635
vn -0.1732 0.9496 -0.2613
vn -0.1418 0.8903 -0.4327
vn -0.3118 0.8554 -0.4136
vn -0.3528 0.9006 -0.2539
vn -0.9383 -0.1753 0.2981
vn -0.8906 -0.3535 0.2860
vn -0.8431 -0.3136 0.4369
vn -0.8738 -0.1474 0.4635
vn -0.1732 -0.9496 0.2613
vn -0.1418 -0.8903 0.4327
vn -0.3118 -0.8554 0.4136
vn -0.3528 -0.9006 0.2539
vn -0.1667 -0.1721 0.9709
vn -0.3376 -0.1541 0.9286
vn -0.3036 -0.3095 0.9011
vn -0.1525 -0.3458 0.9258
vn 0.9383 -0.1753 0.2981
vn 0.8738 -0.1474 0.4635
vn 0.8431 -0.3136 0.4369
vn 0.8906 -0.3535 0.2860
vn 0.1667 -0.1721 0.9709
vn 0.1525 -0.3458 0.9258
vn 0.3036 -0.3095 0.9011
vn 0.3376 -0.1541 0.9286
vn 0.1732 -0.9496 0.2613
vn 0.3528 -0.9006 0.2539
vn 0.3118 -0.8554 0.4136
vn 0.1418 -0.8903 0.4327
vn 0.1732 0.9496 0.2613
vn 0.1418 0.8903 0.4327
vn 0.3118 0.8554 0.4136
vn 0.3528 0.9006 0.2539
vn 0.1667 0.1721 0.9709
vn 0.3376 0.1541 0.9286
vn 0.3036 0.3095 0.9011
vn 0.1525 0.3458 0.9258
vn 0.9383 0.1753 0.2981
vn 0.8906 0.3535 0.2860
vn 0.8431 0.3136 0.4369
vn 0.8738 0.1474 0.4635
vn -0.9383 0.1753 0.2981
vn -0.8738 0.1474 0.4635
vn -0.8431 0.3137 0.4369
vn -0.8906 0.3535 0.2860
vn -0.1667 0.1721 0.9709
vn -0.1525 0.3458 0.9258
vn -0.3036 0.3095 0.9011
vn -0.3376 0.1541 0.9286
vn -0.1732 0.9496 0.2613
vn -0.3528 0.9006 0.2539
vn -0.3118 0.8554 0.4136
vn -0.1418 0.8903 0.4327
vn -0.1931 -0.9765 -0.0955
vn -0.3788 -0.9184 -0.1146
vn -0.9135 -0.3810 -0.1429
vn -0.9714 -0.1942 -0.1366
vn 0.9714 -0.1942 -0.1366
vn 0.9135 -0.3810 -0.1429
vn 0.3788 -0.9184 -0.1146
vn 0.1931 -0.9765 -0.0955
vn 0.1931 0.9765 -0.0955
vn 0.3788 0.9184 -0.1146
vn 0.9135 0.3810 -0.1429
vn 0.9714 0.1942 -0.1366
vn -0.9714 0.1942 -0.1366
vn -0.9135 0.3810 -0.1429
vn -0.3788 0.9184 -0.1146
vn -0.1931 0.9765 -0.0955
vn -0.1929 -0.9766 -0.0954
vn -0.3785 -0.9185 -0.1146
vn -0.9137 -0.3805 -0.1428
vn -0.9715 -0.1939 -0.1365
vn 0.9715 -0.1939 -0.1365
vn 0.9137 -0.3805 -0.1428
vn 0.3785 -0.9185 -0.1146
vn 0.1929 -0.9766 -0.0954
vn 0.1929 0.9766 -0.0954
vn 0.3785 0.9185 -0.1146
vn 0.9137 0.3805 -0.1428
vn 0.9715 0.1939 -0.1365
vn -0.9715 0.1939 -0.1365
vn -0.9137 0.3805 -0.1428
vn -0.3785 0.9185 -0.1146
vn -0.1929 0.9766 -0.0954
vn -0.2071 -0.9783 -0.0000
vn -0.3810 -0.9246 -0.0000
vn -0.9232 -0.3844 -0.0000
vn -0.9795 -0.2015 -0.0000
vn 0.9795 -0.2015 -0.0000
vn 0.9232 -0.3844 -0.0000
vn 0.3810 -0.9246 -0.0000
vn 0.2071 -0.9783 -0.0000
vn 0.2071 0.9783 -0.0000
vn 0.3810 0.9246 -0.0000
vn 0.9232 0.3844 -0.0000
vn 0.9795 0.2015 -0.0000
vn -0.9795 0.2015 -0.0000
vn -0.9232 0.3844 -0.0000
vn -0.3810 0.9246 -0.0000
vn -0.2071 0.9783 -0.0000
vn -0.1929 -0.9766 0.0954
vn -0.3785 -0.9185 0.1146
vn -0.9137 -0.3805 0.1428
vn -0.9715 -0.1939 0.1365
vn 0.9715 -0.1939 0.1365
vn 0.9137 -0.3805 0.1428
vn 0.3785 -0.9185 0.1146
vn 0.1929 -0.9766 0.0954
vn 0.1929 0.9766 0.0954
vn 0.3785 0.9185 0.1146
vn 0.9137 0.3805 0.1428
vn 0.9715 0.1939 0.1365
vn -0.9715 0.1939 0.1365
vn -0.9137 0.3805 0.1428
vn -0.3785 0.9185 0.1146
vn -0.1929 0.9766 0.0954
vn -0.1931 -0.9765 0.0955
vn -0.3788 -0.9184 0.1146
vn -0.9135 -0.3810 0.1429
vn -0.9714 -0.1942 0.1366
vn 0.9714 -0.1942 0.1366
vn 0.9135 -0.3810 0.1429
vn 0.3788 -0.9184 0.1146
vn 0.1931 -0.9765 0.0955
vn 0.1931 0.9765 0.0955
vn 0.3788 0.9184 0.1146
vn 0.9135 0.3810 0.1429
vn 0.9714 0.1942 0.1366
vn -0.9714 0.1942 0.1366
vn -0.9135 0.3810 0.1429
vn -0.3788 0.9184 0.1146
vn -0.1931 0.9765 0.0955
vn 0.1668 0.0185 -0.9858
vn -0.0000 0.0083 -1.0000
vn 0.1704 0.0188 -0.9852
vn -0.1668 0.0185 -0.9858
vn -0.1704 0.0188 -0.9852
vn -0.1668 0.0185 0.9858
vn -0.0000 0.0083 1.0000
vn -0.1704 0.0188 0.9852
vn 0.1668 0.0185 0.9858
vn 0.1704 0.0188 0.9852
vn -0.0000 0.0082 -1.0000
vn 0.1744 0.0191 -0.9845
vn -0.1744 0.0191 -0.9845
vn -0.0000 0.0082 1.0000
vn -0.1744 0.0191 0.9845
vn 0.1744 0.0191 0.9845
vn -0.0000 0.0081 -1.0000
vn 0.1790 0.0194 -0.9837
vn -0.1790 0.0194 -0.9837
vn -0.0000 0.0081 1.0000
vn -0.1790 0.0194 0.9837
vn 0.1790 0.0194 0.9837
vn -0.1540 0.0080 -0.9880
vn 0.1540 0.0080 -0.9880
vn 0.1540 0.0080 0.9880
vn -0.1540 0.0080 0.9880
vn -0.0000 0.0080 -1.0000
vn -0.1608 0.0079 -0.9870
vn 0.1608 0.0079 -0.9870
vn -0.0000 0.0080 1.0000
vn 0.1608 0.0079 0.9870
vn -0.1608 0.0079 0.9870
vn -0.0000 0.0078 -1.0000
vn -0.1690 0.0077 -0.9856
vn 0.1690 0.0077 -0.9856
vn -0.0000 0.0078 1.0000
vn 0.1690 0.0077 0.9856
vn -0.1690 0.0077 0.9856
vn -0.0000 0.0358 -0.9994
vn -0.1728 0.0342 -0.9844
vn 0.1728 0.0342 -0.9844
vn -0.0000 0.0358 0.9994
vn 0.1728 0.0342 0.9844
vn -0.1728 0.0342 0.9844
vn -0.0000 0.0515 -0.9987
vn -0.1679 0.0514 -0.9845
vn 0.1679 0.0514 -0.9845
vn -0.0000 0.0515 0.9987
vn 0.1679 0.0514 0.9845
vn -0.1679 0.0514 0.9845
vn -0.0000 0.0414 -0.9991
vn -0.1636 0.0408 -0.9857
vn 0.1636 0.0408 -0.9857
vn -0.0000 0.0414 0.9991
vn 0.1636 0.0408 0.9857
vn -0.1636 0.0408 0.9857
vn -0.0000 0.0462 -0.9989
vn -0.1636 0.0454 -0.9855
vn 0.1636 0.0454 -0.9855
vn -0.0000 0.0462 0.9989
vn 0.1636 0.0454 0.9855
vn -0.1636 0.0454 0.9855
vn -0.0000 0.0549 -0.9985
vn -0.1688 0.0537 -0.9842
vn 0.1688 0.0537 -0.9842
vn -0.0000 0.0549 0.9985
vn 0.1688 0.0537 0.9842
vn -0.1688 0.0537 0.9842
vn 0.6188 -0.1983 0.7601
vn 0.4897 -0.3948 0.7774
vn 0.6437 -0.4575 0.6135
vn 0.7416 -0.1753 0.6476
vn 0.1766 -0.9843 -0.0000
vn 0.2702 -0.9557 -0.1169
vn 0.3127 -0.9499 -0.0000
vn 0.2702 -0.9557 0.1169
vn 0.6188 -0.1983 -0.7602
vn 0.7416 -0.1753 -0.6476
vn 0.6436 -0.4575 -0.6135
vn 0.4897 -0.3948 -0.7774
vn -0.1766 -0.9843 -0.0000
vn -0.2702 -0.9557 0.1169
vn -0.3127 -0.9499 -0.0000
vn -0.2702 -0.9557 -0.1169
vn -0.6188 -0.1983 0.7602
vn -0.7416 -0.1753 0.6476
vn -0.6436 -0.4575 0.6135
vn -0.4897 -0.3948 0.7774
vn -0.6187 -0.1983 -0.7602
vn -0.4897 -0.3948 -0.7774
vn -0.6436 -0.4575 -0.6136
vn -0.7416 -0.1753 -0.6476
vn 0.7549 0.3415 0.5599
vn 0.9266 0.3761 -0.0000
vn 0.8663 0.4995 0.0001
vn 0.7586 0.5001 0.4176
vn 0.7550 0.3414 -0.5598
vn 0.7589 0.4999 -0.4174
vn 0.2338 0.9723 -0.0000
vn 0.3538 0.9283 0.1145
vn 0.4260 0.9047 -0.0000
vn 0.3538 0.9283 -0.1145
vn -0.7550 0.3414 0.5598
vn -0.7589 0.4999 0.4174
vn -0.8664 0.4994 -0.0000
vn -0.9266 0.3760 -0.0000
vn -0.2338 0.9723 -0.0000
vn -0.3537 0.9283 -0.1145
vn -0.4258 0.9048 -0.0000
vn -0.3537 0.9283 0.1145
vn -0.7550 0.3415 -0.5599
vn -0.7587 0.5000 -0.4175
vn 0.6284 0.0403 -0.7769
vn 0.7752 0.0517 -0.6296
vn 0.7752 0.0517 0.6296
vn 0.6284 0.0403 0.7769
vn 0.0370 -0.9749 -0.2195
vn 0.0601 -0.9288 -0.3655
vn 0.1562 -0.3832 -0.9104
vn 0.1626 -0.1797 -0.9702
vn -0.0000 -0.9809 -0.1947
vn -0.0000 -0.9246 -0.3809
vn -0.0000 -0.3790 -0.9254
vn -0.0000 -0.1922 -0.9814
vn -0.0370 -0.9749 -0.2195
vn -0.0601 -0.9289 -0.3655
vn -0.1562 -0.3832 -0.9104
vn -0.1626 -0.1797 -0.9702
vn -0.6284 0.0403 0.7769
vn -0.7752 0.0517 0.6296
vn -0.7752 0.0517 -0.6296
vn -0.6284 0.0403 -0.7769
vn -0.0370 -0.9749 0.2195
vn -0.0601 -0.9288 0.3655
vn -0.1562 -0.3832 0.9104
vn -0.1626 -0.1797 0.9702
vn -0.0000 -0.9809 0.1947
vn -0.0000 -0.9246 0.3809
vn -0.0000 -0.3790 0.9254
vn -0.0000 -0.1922 0.9814
vn 0.0370 -0.9749 0.2195
vn 0.0601 -0.9288 0.3655
vn 0.1562 -0.3832 0.9104
vn 0.1626 -0.1797 0.9702
vn 0.6375 0.0408 -0.7694
vn 0.7833 0.0522 -0.6195
vn 0.7833 0.0522 0.6195
vn 0.6375 0.0408 0.7694
vn -0.6375 0.0408 0.7694
vn -0.7833 0.0522 0.6195
vn -0.7833 0.0522 -0.6195
vn -0.6375 0.0408 -0.7694
vn 0.6477 0.0413 -0.7607
vn 0.7921 0.0528 -0.6081
vn 0.7921 0.0528 0.6081
vn 0.6477 0.0413 0.7607
vn -0.6477 0.0413 0.7607
vn -0.7921 0.0528 0.6081
vn -0.7921 0.0528 -0.6081
vn -0.6477 0.0413 -0.7607
vn 0.6592 0.0420 -0.7508
vn 0.8018 0.0534 -0.5952
vn 0.8018 0.0534 0.5952
vn 0.6592 0.0420 0.7508
vn -0.6592 0.0420 0.7508
vn -0.8018 0.0534 0.5952
vn -0.8018 0.0534 -0.5952
vn -0.6592 0.0420 -0.7508
vn 0.6722 0.0427 -0.7392
vn 0.8125 0.0541 -0.5804
vn 0.8125 0.0541 0.5804
vn 0.6722 0.0427 0.7392
vn -0.6722 0.0427 0.7392
vn -0.8125 0.0541 0.5804
vn -0.8125 0.0541 -0.5804
vn -0.6722 0.0427 -0.7392
vn 0.6868 0.0434 -0.7255
vn 0.8244 0.0549 -0.5633
vn 0.8244 0.0549 0.5633
vn 0.6868 0.0434 0.7255
vn -0.6868 0.0434 0.7255
vn -0.8244 0.0549 0.5633
vn -0.8244 0.0549 -0.5633
vn -0.6868 0.0434 -0.7255
vn 0.7037 0.0443 -0.7092
vn 0.8376 0.0558 -0.5435
vn 0.8376 0.0558 0.5435
vn 0.7037 0.0443 0.7092
vn -0.7037 0.0443 0.7092
vn -0.8376 0.0558 0.5435
vn -0.8376 0.0558 -0.5435
vn -0.7037 0.0443 -0.7092
vn 0.7116 0.0750 -0.6985
vn 0.8410 0.0860 -0.5342
vn 0.8410 0.0860 0.5342
vn 0.7116 0.0750 0.6985
vn -0.7116 0.0750 0.6985
vn -0.8410 0.0860 0.5342
vn -0.8410 0.0860 -0.5342
vn -0.7116 0.0750 -0.6985
vn 0.6978 0.1046 -0.7086
vn 0.8305 0.1205 -0.5438
vn 0.8305 0.1205 0.5438
vn 0.6978 0.1046 0.7086
vn -0.6978 0.1046 0.7086
vn -0.8305 0.1205 0.5438
vn -0.8305 0.1205 -0.5438
vn -0.6978 0.1046 -0.7086
vn 0.6896 0.1080 -0.7161
vn 0.8235 0.1286 -0.5525
vn 0.8235 0.1286 0.5525
vn 0.6896 0.1080 0.7161
vn -0.6896 0.1080 0.7161
vn -0.8235 0.1286 0.5525
vn -0.8235 0.1286 -0.5525
vn -0.6896 0.1080 -0.7161
vn 0.6888 0.1203 -0.7149
vn 0.8219 0.1430 -0.5514
vn 0.8219 0.1430 0.5514
vn 0.6888 0.1203 0.7149
vn -0.6888 0.1203 0.7149
vn -0.8219 0.1430 0.5514
vn -0.8219 0.1430 -0.5514
vn -0.6888 0.1203 -0.7149
vn 0.7200 0.1580 -0.6757
vn 0.8555 0.1870 -0.4828
vn 0.8555 0.1870 0.4828
vn 0.7200 0.1580 0.6757
vn -0.7200 0.1580 0.6757
vn -0.8555 0.1870 0.4828
vn -0.8555 0.1870 -0.4828
vn -0.7200 0.1580 -0.6757
vn 0.6187 0.3162 -0.7192
vn 0.6732 0.5133 -0.5323
vn 0.0867 0.9538 -0.2877
vn 0.0547 0.9773 -0.2046
vn -0.2311 0.2134 -0.9492
vn -0.0000 0.2644 -0.9644
vn -0.0000 0.4439 -0.8961
vn -0.3005 0.4234 -0.8547
vn -0.0000 0.9351 -0.3544
vn -0.0000 0.9835 -0.1811
vn 0.2311 0.2134 -0.9492
vn 0.3005 0.4234 -0.8547
vn -0.0867 0.9538 -0.2877
vn -0.0548 0.9773 -0.2046
vn -0.6186 0.3163 -0.7192
vn -0.6729 0.5135 -0.5325
vn -0.6187 0.3162 0.7192
vn -0.6732 0.5133 0.5323
vn -0.0867 0.9538 0.2877
vn -0.0548 0.9773 0.2046
vn 0.2311 0.2134 0.9492
vn -0.0000 0.2644 0.9644
vn -0.0000 0.4439 0.8961
vn 0.3005 0.4234 0.8547
vn -0.0000 0.9351 0.3544
vn -0.0000 0.9835 0.1811
vn -0.2311 0.2134 0.9492
vn -0.3005 0.4234 0.8547
vn 0.0867 0.9538 0.2877
vn 0.0547 0.9773 0.2046
vn 0.6729 0.5135 0.5325
vn 0.6186 0.3163 0.7193
vn 0.5015 0.0292 0.8647
vn 0.5015 0.0292 -0.8647
vn -0.5015 0.0292 0.8647
vn -0.5015 0.0292 -0.8647
vn 0.5181 0.0300 0.8548
vn 0.5181 0.0300 -0.8548
vn -0.5181 0.0300 0.8548
vn -0.5181 0.0300 -0.8548
vn 0.5378 0.0309 0.8425
vn 0.5378 0.0309 -0.8425
vn -0.5378 0.0309 0.8425
vn -0.5378 0.0309 -0.8425
vn 0.5457 0.0599 0.8359
vn 0.5457 0.0599 -0.8359
vn -0.5457 0.0599 0.8359
vn -0.5457 0.0599 -0.8359
vn 0.5331 0.0832 0.8420
vn 0.5331 0.0832 -0.8420
vn -0.5331 0.0832 0.8420
vn -0.5331 0.0832 -0.8420
vn 0.5235 0.0820 0.8481
vn 0.5235 0.0820 -0.8481
vn -0.5235 0.0820 0.8481
vn -0.5235 0.0820 -0.8481
vn 0.5231 0.0915 0.8474
vn 0.5231 0.0915 -0.8474
vn -0.5231 0.0915 0.8474
vn -0.5231 0.0915 -0.8474
vn 0.5297 0.1148 0.8404
vn 0.5297 0.1148 -0.8404
vn -0.5297 0.1148 0.8404
vn -0.5297 0.1148 -0.8404
s 1
f 1//1 2//2 16//3 15//4
f 2//2 3//5 17//6 16//3
f 3//5 4//7 18//8 17//6
f 4//7 5//9 19//10 18//8
f 5//9 6//11 20//12 19//10
f 6//11 7//13 21//14 20//12
f 7//13 8//15 22//16 21//14
f 8//15 9//17 23//18 22//16
f 9//17 10//19 24//20 23//18
f 10//19 11//21 25//22 24//20
f 11//21 12//23 26//24 25//22
f 12//23 13//25 27//26 26//24
f 13//25 14//27 28//28 27//26
f 14//27 1//1 15//4 28//28
f 15//4 16//3 30//29 29//30
f 16//3 17//6 31//31 30//29
f 17//6 18//8 32//32 31//31
f 18//8 19//10 33//33 32//32
f 19//10 20//12 34//34 33//33
f 20//12 21//14 35//35 34//34
f 21//14 22//16 36//36 35//35
f 22//16 23//18 37//37 36//36
f 23//18 24//20 38//38 37//37
f 24//20 25//22 39//39 38//38
f 25//22 26//24 40//40 39//39
f 26//24 27//26 41//41 40//40
f 27//26 28//28 42//42 41//41
f 28//28 15//4 29//30 42//42
f 29//30 30//29 44//43 43//44
f 30//29 31//31 45//45 44//43
f 31//31 32//32 46//46 45//45
f 32//32 33//33 47//47 46//46
f 33//33 34//34 48//48 47//47
f 34//34 35//35 49//49 48//48
f 35//35 36//36 50//50 49//49
f 36//36 37//37 51//51 50//50
f 37//37 38//38 52//52 51//51
f 38//38 39//39 53//53 52//52
f 39//39 40//40 54//54 53//53
f 40//40 41//41 55//55 54//54
f 41//41 42//42 56//56 55//55
f 42//42 29//30 43//44 56//56
f 43//44 44//43 58//57 57//58
f 44//43 45//45 59//59 58//57
f 45//45 46//46 60//60 59//59
f 46//46 47//47 61//61 60//60
f 47//47 48//48 62//62 61//61
f 48//48 49//49 63//63 62//62
f 49//49 50//50 64//64 63//63
f 50//50 51//51 65//65 64//64
f 51//51 52//52 66//66 65//65
f 52//52 53//53 67//67 66//66
f 53//53 54//54 68//68 67//67
f 54//54 55//55 69//69 68//68
f 55//55 56//56 70//70 69//69
f 56//56 43//44 57//58 70//70
f 57//58 58//57 72//71 71//72
f 58//57 59//59 73//73 72//71
f 59//59 60//60 74//74 73//73
f 60//60 61//61 75//75 74//74
f 61//61 62//62 76//76 75//75
f 62//62 63//63 77//77 76//76
f 63//63 64//64 78//78 77//77
f 64//64 65//65 79//79 78//78
f 65//65 66//66 80//80 79//79
f 66//66 67//67 81//81 80//80
f 67//67 68//68 82//82 81//81
f 68//68 69//69 83//83 82//82
f 69//69 70//70 84//84 83//83
f 70//70 57//58 71//72 84//84
f 71//72 72//71 86//85 85//86
f 72//71 73//73 87//87 86//85
f 73//73 74//74 88//88 87//87
f 74//74 75//75 89//89 88//88
f 75//75 76//76 90//90 89//89
f 76//76 77//77 91//91 90//90
f 77//77 78//78 92//92 91//91
f 78//78 79//79 93//93 92//92
f 79//79 80//80 94//94 93//93
f 80//80 81//81 95//95 94//94
f 81//81 82//82 96//96 95//95
f 82//82 83//83 97//97 96//96
f 83//83 84//84 98//98 97//97
f 84//84 71//72 85//86 98//98
f 85//86 86//85 100//99 99//100
f 86//85 87//87 101//101 100//99
f 87//87 88//88 102//102 101//101
f 88//88 89//89 103//103 102//102
f 89//89 90//90 104//104 103//103
f 90//90 91//91 105//105 104//104
f 91//91 92//92 106//106 105//105
f 92//92 93//93 107//107 106//106
f 93//93 94//94 108//108 107//107
f 94//94 95//95 109//109 108//108
f 95//95 96//96 110//110 109//109
f 96//96 97//97 111//111 110//110
f 97//97 98//98 112//112 111//111
f 98//98 85//86 99//100 112//112
f 99//100 100//99 114//113 113//114
f 100//99 101//101 115//115 114//113
f 101//101 102//102 116//116 115//115
f 102//102 103//103 117//117 116//116
f 103//103 104//104 118//118 117//117
f 104//104 105//105 119//119 118//118
f 105//105 106//106 120//120 119//119
f 106//106 107//107 121//121 120//120
f 107//107 108//108 122//122 121//121
f 108//108 109//109 123//123 122//122
f 109//109 110//110 124//124 123//123
f 110//110 111//111 125//125 124//124
f 111//111 112//112 126//126 125//125
f 112//112 99//100 113//114 126//126
f 113//114 114//113 128//127 127//128
f 114//113 115//115 129//129 128//127
f 115//115 116//116 130//130 129//129
f 116//116 117//117 131//131 130//130
f 117//117 118//118 132//132 131//131
f 118//118 119//119 133//133 132//132
f 119//119 120//120 134//134 133//133
f 120//120 121//121 135//135 134//134
f 121//121 122//122 136//136 135//135
f 122//122 123//123 137//137 136//136
f 123//123 124//124 138//138 137//137
f 124//124 125//125 139//139 138//138
f 125//125 126//126 140//140 139//139
f 126//126 113//114 127//128 140//140
f 127//128 128//127 142//141 141//142
f 128//127 129//129 143//143 142//141
f 129//129 130//130 144//144 143//143
f 130//130 131//131 145//145 144//144
f 131//131 132//132 146//146 145//145
f 132//132 133//133 147//147 146//146
f 133//133 134//134 148//148 147//147
f 134//134 135//135 149//149 148//148
f 135//135 136//136 150//150 149//149
f 136//136 137//137 151//151 150//150
f 137//137 138//138 152//152 151//151
f 138//138 139//139 153//153 152//152
f 139//139 140//140 154//154 153//153
f 140//140 127//128 141//142 154//154
f 141//142 142//141 156//155 155//156
f 142//141 143//143 157//157 156//155
f 143//143 144//144 158//158 157//157
f 144//144 145//145 159//159 158//158
f 145//145 146//146 160//160 159//159
f 146//146 147//147 161//161 160//160
f 147//147 148//148 162//162 161//161
f 148//148 149//149 163//163 162//162
f 149//149 150//150 164//164 163//163
f 150//150 151//151 165//165 164//164
f 151//151 152//152 166//166 165//165
f 152//152 153//153 167//167 166//166
f 153//153 154//154 168//168 167//167
f 154//154 141//142 155//156 168//168
f 155//156 156//155 170//169 169//170
f 156//155 157//157 171//171 170//169
f 157//157 158//158 172//172 171//171
f 158//158 159//159 173//173 172//172
f 159//159 160//160 174//174 173//173
f 160//160 161//161 175//175 174//174
f 161//161 162//162 176//176 175//175
f 162//162 163//163 177//177 176//176
f 163//163 164//164 178//178 177//177
f 164//164 165//165 179//179 178//178
f 165//165 166//166 180//180 179//179
f 166//166 167//167 181//181 180//180
f 167//167 168//168 182//182 181//181
f 168//168 155//156 169//170 182//182
f 169//170 170//169 184//183 183//184
f 170//169 171//171 185//185 184//183
f 171//171 172//172 186//186 185//185
f 172//172 173//173 187//187 186//186
f 173//173 174//174 188//188 187//187
f 174//174 175//175 189//189 188//188
f 175//175 176//176 190//190 189//189
f 176//176 177//177 191//191 190//190
f 177//177 178//178 192//192 191//191
f 178//178 179//179 193//193 192//192
f 179//179 180//180 194//194 193//193
f 180//180 181//181 195//195 194//194
f 181//181 182//182 196//196 195//195
f 182//182 169//170 183//184 196//196
f 183//184 184//183 198//197 197//198
f 184//183 185//185 199//199 198//197
f 185//185 186//186 200//200 199//199
f 186//186 187//187 201//201 200//200
f 187//187 188//188 202//202 201//201
f 188//188 189//189 203//203 202//202
f 189//189 190//190 204//204 203//203
f 190//190 191//191 205//205 204//204
f 191//191 192//192 206//206 205//205
f 192//192 193//193 207//207 206//206
f 193//193 194//194 208//208 207//207
f 194//194 195//195 209//209 208//208
f 195//195 196//196 210//210 209//209
f 196//196 183//184 197//198 210//210
f 197//198 198//197 212//211 211//212
f 198//197 199//199 213//213 212//211
f 199//199 200//200 214//214 213//213
f 200//200 201//201 215//215 214//214
f 201//201 202//202 216//216 215//215
f 202//202 203//203 217//217 216//216
f 203//203 204//204 218//218 217//217
f 204//204 205//205 219//219 218//218
f 205//205 206//206 220//220 219//219
f 206//206 207//207 221//221 220//220
f 207//207 208//208 222//222 221//221
f 208//208 209//209 223//223 222//222
f 209//209 210//210 224//224 223//223
f 210//210 197//198 211//212 224//224
f 211//212 212//211 226//225 225//226
f 212//211 213//213 227//227 226//225
f 213//213 214//214 228//228 227//227
f 214//214 215//215 229//229 228//228
f 215//215 216//216 230//230 229//229
f 216//216 217//217 231//231 230//230
f 217//217 218//218 232//232 231//231
f 218//218 219//219 233//233 232//232
f 219//219 220//220 234//234 233//233
f 220//220 221//221 235//235 234//234
f 221//221 222//222 236//236 235//235
f 222//222 223//223 237//237 236//236
f 223//223 224//224 238//238 237//237
f 224//224 211//212 225//226 238//238
f 239//239 242//240 244//241 241//242
f 241//243 244//244 243//245 240//246
f 242//240 245//247 247//248 244//241
f 244//244 247//249 246//250 243//245
f 245//247 248//251 250//252 247//248
f 247//249 250//253 249//254 246//250
f 248//251 251//255 253//256 250//252
f 250//253 253//257 252//258 249//254
f 251//255 254//259 256//260 253//256
f 253//257 256//261 255//262 252//258
f 254//259 257//263 259//264 256//260
f 256//261 259//265 258//266 255//262
f 257//263 260//267 262//268 259//264
f 259//265 262//269 261//270 258//266
f 260//267 263//271 265//272 262//268
f 262//269 265//273 264//274 261//270
f 263//271 266//275 268//276 265//272
f 265//273 268//277 267//278 264//274
f 266//275 269//279 271//280 268//276
f 268//277 271//281 270//282 267//278
f 269//279 272//283 274//284 271//280
f 271//281 274//285 273//286 270//282
f 272//283 275//287 277//288 274//284
f 274//285 277//289 276//290 273//286
f 275//287 278//291 280//292 277//288
f 277//289 280//293 279//294 276//290
f 240//246 279//294 280//293 241//243
f 241//242 280//292 278//291 239//239
f 282//295 285//296 286//297 283//298
f 283//299 286//300 284//301 281//302
f 285//296 288//303 289//304 286//297
f 286//300 289//305 287//306 284//301
f 288//303 291//307 292//308 289//304
f 289//305 292//309 290//310 287//306
f 291//307 294//311 295//312 292//308
f 292//309 295//313 293//314 290//310
f 294//311 297//315 298//316 295//312
f 295//313 298//317 296//318 293//314
f 297//315 300//319 301//320 298//316
f 298//317 301//321 299//322 296//318
f 300//319 303//323 304//324 301//320
f 301//321 304//325 302//326 299//322
f 303//323 306//327 307//328 304//324
f 304//325 307//329 305//330 302//326
f 306//327 309//331 310//332 307//328
f 307//329 310//333 308//334 305//330
f 309//331 312//335 313//336 310//332
f 310//333 313//337 311//338 308//334
f 312//335 315//339 316//340 313//336
f 313//337 316//341 314//342 311//338
f 315//339 318//343 319//344 316//340
f 316//341 319//345 317//346 314//342
f 318//343 321//347 322//348 319//344
f 319//345 322//349 320//350 317//346
f 281//302 320//350 322//349 283//299
f 283//298 322//348 321//347 282//295
f 279//294 240//246 1//1 14//27
f 240//246 243//245 2//2 1//1
f 278//291 275//287 272//283 269//279 266//275 263//271 260//267 257//263 254//259 251//255 248//251 245//247 242//240 239//239
f 243//245 246//250 3//5 2//2
f 246//250 249//254 4//7 3//5
f 249//254 252//258 5//9 4//7
f 252//258 255//262 6//11 5//9
f 255//262 258//266 7//13 6//11
f 258//266 261//270 8//15 7//13
f 261//270 264//274 9//17 8//15
f 264//274 267//278 10//19 9//17
f 267//278 270//282 11//21 10//19
f 270//282 273//286 12//23 11//21
f 273//286 276//290 13//25 12//23
f 276//290 279//294 14//27 13//25
f 238//238 225//226 282//295 321//347
f 225//226 226//225 285//296 282//295
f 281//302 284//301 287//306 290//310 293//314 296//318 299//322 302//326 305//330 308//334 311//338 314//342 317//346 320//350
f 226//225 227//227 288//303 285//296
f 227//227 228//228 291//307 288//303
f 228//228 229//229 294//311 291//307
f 229//229 230//230 297//315 294//311
f 230//230 231//231 300//319 297//315
f 231//231 232//232 303//323 300//319
f 232//232 233//233 306//327 303//323
f 233//233 234//234 309//331 306//327
f 234//234 235//235 312//335 309//331
f 235//235 236//236 315//339 312//335
f 236//236 237//237 318//343 315//339
f 237//237 238//238 321//347 318//343
f 323//351 324//352 338//353 337//354
f 324//352 325//355 339//356 338//353
f 325//355 326//357 340//358 339//356
f 326//357 327//359 341//360 340//358
f 327//359 328//361 342//362 341//360
f 328//361 329//363 343//364 342//362
f 329//363 330//365 344//366 343//364
f 330//365 331//367 345//368 344//366
f 331//367 332//369 346//370 345//368
f 332//369 333//371 347//372 346//370
f 333//371 334//373 348//374 347//372
f 334//373 335//375 349//376 348//374
f 335//375 336//377 350//378 349//376
f 336//377 323//351 337//354 350//378
f 337//354 338//353 352//379 351//380
f 338//353 339//356 353//381 352//379
f 339//356 340//358 354//382 353//381
f 340//358 341//360 355//383 354//382
f 341//360 342//362 356//384 355//383
f 342//362 343//364 357//385 356//384
f 343//364 344//366 358//386 357//385
f 344//366 345//368 359//387 358//386
f 345//368 346//370 360//388 359//387
f 346//370 347//372 361//389 360//388
f 347//372 348//374 362//390 361//389
f 348//374 349//376 363//391 362//390
f 349//376 350//378 364//392 363//391
f 350//378 337//354 351//380 364//392
f 351//380 352//379 366//393 365//394
f 352//379 353//381 367//395 366//393
f 353//381 354//382 368//396 367//395
f 354//382 355//383 369//397 368//396
f 355//383 356//384 370//398 369//397
f 356//384 357//385 371//399 370//398
f 357//385 358//386 372//400 371//399
f 358//386 359//387 373//401 372//400
f 359//387 360//388 374//402 373//401
f 360//388 361//389 375//403 374//402
f 361//389 362//390 376//404 375//403
f 362//390 363//391 377//405 376//404
f 363//391 364//392 378//406 377//405
f 364//392 351//380 365//394 378//406
f 365//394 366//393 380//407 379//408
f 366//393 367//395 381//409 380//407
f 367//395 368//396 382//410 381//409
f 368//396 369//397 383//411 382//410
f 369//397 370//398 384//412 383//411
f 370//398 371//399 385//413 384//412
f 371//399 372//400 386//414 385//413
f 372//400 373//401 387//415 386//414
f 373//401 374//402 388//416 387//415
f 374//402 375//403 389//417 388//416
f 375//403 376//404 390//418 389//417
f 376//404 377//405 391//419 390//418
f 377//405 378//406 392//420 391//419
f 378//406 365//394 379//408 392//420
f 379//408 380//407 394//421 393//422
f 380//407 381//409 395//423 394//421
f 381//409 382//410 396//424 395//423
f 382//410 383//411 397//425 396//424
f 383//411 384//412 398//426 397//425
f 384//412 385//413 399//427 398//426
f 385//413 386//414 400//428 399//427
f 386//414 387//415 401//429 400//428
f 387//415 388//416 402//430 401//429
f 388//416 389//417 403//431 402//430
f 389//417 390//418 404//432 403//431
f 390//418 391//419 405//433 404//432
f 391//419 392//420 406//434 405//433
f 392//420 379//408 393//422 406//434
f 393//422 394//421 408//435 407//436
f 394//421 395//423 409//437 408//435
f 395//423 396//424 410//438 409//437
f 396//424 397//425 411//439 410//438
f 397//425 398//426 412//440 411//439
f 398//426 399//427 413//441 412//440
f 399//427 400//428 414//442 413//441
f 400//428 401//429 415//443 414//442
f 401//429 402//430 416//444 415//443
f 402//430 403//431 417//445 416//444
f 403//431 404//432 418//446 417//445
f 404//432 405//433 419//447 418//446
f 405//433 406//434 420//448 419//447
f 406//434 393//422 407//436 420//448
f 407//436 408//435 422//449 421//450
f 408//435 409//437 423//451 422//449
f 409//437 410//438 424//452 423//451
f 410//438 411//439 425//453 424//452
f 411//439 412//440 426//454 425//453
f 412//440 413//441 427//455 426//454
f 413//441 414//442 428//456 427//455
f 414//442 415//443 429//457 428//456
f 415//443 416//444 430//458 429//457
f 416//444 417//445 431//459 430//458
f 417//445 418//446 432//460 431//459
f 418//446 419//447 433//461 432//460
f 419//447 420//448 434//462 433//461
f 420//448 407//436 421//450 434//462
f 421//450 422//449 436//463 435//464
f 422//449 423//451 437//465 436//463
f 423//451 424//452 438//466 437//465
f 424//452 425//453 439//467 438//466
f 425//453 426//454 440//468 439//467
f 426//454 427//455 441//469 440//468
f 427//455 428//456 442//470 441//469
f 428//456 429//457 443//471 442//470
f 429//457 430//458 444//472 443//471
f 430//458 431//459 445//473 444//472
f 431//459 432//460 446//474 445//473
f 432//460 433//461 447//475 446//474
f 433//461 434//462 448//476 447//475
f 434//462 421//450 435//464 448//476
f 435//464 436//463 450//477 449//478
f 436//463 437//465 451//479 450//477
f 437//465 438//466 452//480 451//479
f 438//466 439//467 453//481 452//480
f 439//467 440//468 454//482 453//481
f 440//468 441//469 455//483 454//482
f 441//469 442//470 456//484 455//483
f 442//470 443//471 457//485 456//484
f 443//471 444//472 458//486 457//485
f 444//472 445//473 459//487 458//486
f 445//473 446//474 460//488 459//487
f 446//474 447//475 461//489 460//488
f 447//475 448//476 462//490 461//489
f 448//476 435//464 449//478 462//490
f 449//478 450//477 464//491 463//492
f 450//477 451//479 465//493 464//491
f 451//479 452//480 466//494 465//493
f 452//480 453//481 467//495 466//494
f 453//481 454//482 468//496 467//495
f 454//482 455//483 469//497 468//496
f 455//483 456//484 470//498 469//497
f 456//484 457//485 471//499 470//498
f 457//485 458//486 472//500 471//499
f 458//486 459//487 473//501 472//500
f 459//487 460//488 474//502 473//501
f 460//488 461//489 475//503 474//502
f 461//489 462//490 476//504 475//503
f 462//490 449//478 463//492 476//504
f 336//377 335//375 334//373 333//371 332//369 331//367 330//365 329//363 328//361 327//359 326//357 325//355 324//352 323//351
f 463//492 464//491 465//493 466//494 467//495 468//496 469//497 470//498 471//499 472//500 473//501 474//502 475//503 476//504
f 477//505 480//506 481//507 483//508
f 478//509 482//510 481//511 480//512
f 479//513 483//514 481//515 482//516
f 484//517 487//518 488//519 490//520
f 485//521 489//522 488//519 487//518
f 486//523 490//524 488//525 489//526
f 491//527 494//528 495//529 497//530
f 492//531 496//532 495//533 494//534
f 493//535 497//536 495//537 496//538
f 504//539 507//540 508//541 510//542
f 505//543 509//544 508//545 507//546
f 506//547 510//548 508//549 509//550
f 511//551 514//552 515//553 517//554
f 512//555 516//556 515//557 514//558
f 513//559 517//554 515//553 516//560
f 518//561 521//562 522//563 524//564
f 519//565 523//566 522//567 521//568
f 520//569 524//570 522//571 523//572
f 479//513 501//573 503//574 483//514
f 483//508 503//575 502//576 477//505
f 478//509 484//517 490//520 482//510
f 482//516 490//524 486//523 479//513
f 485//521 491//527 497//530 489//522
f 489//526 497//536 493//535 486//523
f 492//531 498//577 500//578 496//532
f 496//538 500//579 499//580 493//535
f 498//577 502//576 503//575 500//578
f 500//579 503//574 501//573 499//580
f 504//539 528//581 530//582 507//540
f 507//546 530//583 529//584 505//543
f 505//543 512//555 514//558 509//544
f 509//550 514//552 511//551 506//547
f 512//555 519//565 521//568 516//556
f 516//560 521//562 518//561 513//559
f 519//565 525//585 527//586 523//566
f 523//572 527//587 526//588 520//569
f 525//585 529//584 530//583 527//586
f 527//587 530//582 528//581 526//588
f 477//505 504//539 510//542 480//506
f 480//512 510//548 506//547 478//509
f 484//517 511//551 517//554 487//518
f 487//518 517//554 513//559 485//521
f 491//527 518//561 524//564 494//528
f 494//534 524//570 520//569 492//531
f 477//505 502//576 528//581 504//539
f 479//513 486//523 493//535 499//580 501//573
f 484//517 478//509 506//547 511//551
f 491//527 485//521 513//559 518//561
f 498//577 492//531 520//569 526//588
f 502//576 498//577 526//588 528//581
f 505//543 529//584 525//585 519//565 512//555
f 531//589 534//590 535//591 537//592
f 532//593 536//594 535//595 534//596
f 533//597 537//598 535//599 536//600
f 538//601 541//602 542//603 544//604
f 539//605 543//606 542//603 541//602
f 540//607 544//608 542//609 543//610
f 545//611 548//612 549//613 551//614
f 546//615 550//616 549//617 548//618
f 547//619 551//620 549//621 550//622
f 558//623 561//624 562//625 564//626
f 559//627 563//628 562//629 561//630
f 560//631 564//632 562//633 563//634
f 565//635 568//636 569//637 571//638
f 566//639 570//640 569//641 568//642
f 567//643 571//638 569//637 570//644
f 572//645 575//646 576//647 578//648
f 573//649 577//650 576//651 575//652
f 574//653 578//654 576//655 577//656
f 533//597 555//657 557//658 537//598
f 537//592 557//659 556//660 531//589
f 532//593 538//601 544//604 536//594
f 536//600 544//608 540//607 533//597
f 539//605 545//611 551//614 543//606
f 543//610 551//620 547//619 540//607
f 546//615 552//661 554//662 550//616
f 550//622 554//663 553//664 547//619
f 552//661 556//660 557//659 554//662
f 554//663 557//658 555//657 553//664
f 558//623 582//665 584//666 561//624
f 561//630 584//667 583//668 559//627
f 559//627 566//639 568//642 563//628
f 563//634 568//636 565//635 560//631
f 566//639 573//649 575//652 570//640
f 570//644 575//646 572//645 567//643
f 573//649 579//669 581//670 577//650
f 577//656 581//671 580//672 574//653
f 579//669 583//668 584//667 581//670
f 581//671 584//666 582//665 580//672
f 531//589 558//623 564//626 534//590
f 534//596 564//632 560//631 532//593
f 538//601 565//635 571//638 541//602
f 541//602 571//638 567//643 539//605
f 545//611 572//645 578//648 548//612
f 548//618 578//654 574//653 546//615
f 531//589 556//660 582//665 558//623
f 533//597 540//607 547//619 553//664 555//657
f 538//601 532//593 560//631 565//635
f 545//611 539//605 567//643 572//645
f 552//661 546//615 574//653 580//672
f 556//660 552//661 580//672 582//665
f 559//627 583//668 579//669 573//649 566//639
f 585//673 588//674 589//675 591//676
f 586//677 590//678 589//679 588//680
f 587//681 591//682 589//683 590//684
f 592//685 595//686 596//687 598//688
f 593//689 597//690 596//691 595//692
f 594//693 598//694 596//695 597//696
f 599//697 602//698 603//699 605//700
f 600//701 604//702 603//703 602//704
f 601//705 605//706 603//707 604//708
f 606//709 609//710 610//711 612//712
f 607//713 611//714 610//715 609//716
f 608//717 612//718 610//719 611//720
f 745//721 748//722 749//723 751//724
f 746//725 750//726 749//727 748//728
f 747//729 751//730 749//731 750//732
f 752//733 755//734 756//735 758//736
f 753//737 757//738 756//739 755//740
f 754//741 758//742 756//743 757//744
f 759//745 762//746 763//747 765//748
f 760//749 764//750 763//751 762//752
f 761//753 765//754 763//755 764//756
f 766//757 769//758 770//759 772//760
f 767//761 771//762 770//763 769//764
f 768//765 772//766 770//767 771//768
f 587//681 613//769 615//770 591//682
f 591//676 615//771 614//772 585//673
f 586//677 592//685 598//688 590//678
f 590//684 598//694 594//693 587//681
f 593//689 616//773 618//774 597//690
f 597//696 618//775 617//776 594//693
f 592//685 599//697 605//700 595//686
f 595//692 605//706 601//705 593//689
f 600//701 619//777 621//778 604//702
f 604//708 621//779 620//780 601//705
f 599//697 606//709 612//712 602//698
f 602//704 612//718 608//717 600//701
f 607//713 622//781 624//782 611//714
f 611//720 624//783 623//784 608//717
f 585//673 607//713 609//716 588//674
f 588//680 609//710 606//709 586//677
f 613//769 625//785 627//786 615//770
f 615//771 627//787 626//788 614//772
f 616//773 628//789 630//790 618//774
f 618//775 630//791 629//792 617//776
f 619//777 631//793 633//794 621//778
f 621//779 633//795 632//796 620//780
f 622//781 634//797 636//798 624//782
f 624//783 636//799 635//800 623//784
f 625//785 637//785 639//786 627//786
f 627//787 639//787 638//788 626//788
f 628//789 640//789 642//790 630//790
f 630//791 642//791 641//792 629//792
f 631//793 643//793 645//794 633//794
f 633//795 645//795 644//796 632//796
f 634//797 646//797 648//798 636//798
f 636//799 648//799 647//800 635//800
f 637//785 649//785 651//786 639//786
f 639//787 651//787 650//788 638//788
f 640//789 652//789 654//790 642//790
f 642//791 654//791 653//792 641//792
f 643//793 655//793 657//794 645//794
f 645//795 657//795 656//796 644//796
f 646//797 658//797 660//798 648//798
f 648//799 660//799 659//800 647//800
f 649//785 661//785 663//786 651//786
f 651//787 663//787 662//788 650//788
f 652//789 664//789 666//790 654//790
f 654//791 666//791 665//792 653//792
f 655//793 667//793 669//794 657//794
f 657//795 669//795 668//796 656//796
f 658//797 670//797 672//798 660//798
f 660//799 672//799 671//800 659//800
f 661//785 673//801 675//802 663//786
f 663//787 675//803 674//804 662//788
f 664//789 676//805 678//806 666//790
f 666//791 678//807 677//808 665//792
f 667//793 679//809 681//810 669//794
f 669//795 681//811 680//812 668//796
f 670//797 682//813 684//814 672//798
f 672//799 684//815 683//816 671//800
f 673//801 685//817 687//818 675//802
f 675//803 687//819 686//820 674//804
f 676//805 688//821 690//822 678//806
f 678//807 690//823 689//824 677//808
f 679//809 691//825 693//826 681//810
f 681//811 693//827 692//828 680//812
f 682//813 694//829 696//830 684//814
f 684//815 696//831 695//832 683//816
f 685//817 697//817 699//818 687//818
f 687//819 699//819 698//820 686//820
f 688//821 700//821 702//822 690//822
f 690//823 702//823 701//824 689//824
f 691//825 703//825 705//826 693//826
f 693//827 705//827 704//828 692//828
f 694//829 706//829 708//830 696//830
f 696//831 708//831 707//832 695//832
f 697//817 709//817 711//818 699//818
f 699//819 711//819 710//820 698//820
f 700//821 712//821 714//822 702//822
f 702//823 714//823 713//824 701//824
f 703//825 715//825 717//826 705//826
f 705//827 717//827 716//828 704//828
f 706//829 718//829 720//830 708//830
f 708//831 720//831 719//832 707//832
f 709//817 721//817 723//818 711//818
f 711//819 723//819 722//820 710//820
f 712//821 724//821 726//822 714//822
f 714//823 726//823 725//824 713//824
f 715//825 727//825 729//826 717//826
f 717//827 729//827 728//828 716//828
f 718//829 730//829 732//830 720//830
f 720//831 732//831 731//832 719//832
f 721//817 733//833 735//834 723//818
f 723//819 735//835 734//836 722//820
f 724//821 736//837 738//838 726//822
f 726//823 738//839 737//840 725//824
f 727//825 739//841 741//842 729//826
f 729//827 741//843 740//844 728//828
f 730//829 742//845 744//846 732//830
f 732//831 744//847 743//848 731//832
f 733//833 746//725 748//728 735//834
f 735//835 748//722 745//721 734//836
f 736//837 752//733 758//736 738//838
f 738//839 758//742 754//741 737//840
f 746//725 754//741 757//744 750//726
f 750//732 757//738 753//737 747//729
f 739//841 759//745 765//748 741//842
f 741//843 765//754 761//753 740//844
f 752//733 761//753 764//756 755//734
f 755//740 764//750 760//749 753//737
f 742//845 766//757 772//760 744//846
f 744//847 772//766 768//765 743//848
f 759//745 768//765 771//768 762//746
f 762//752 771//762 767//761 760//749
f 747//729 767//761 769//764 751//730
f 751//724 769//758 766//757 745//721
f 607//713 585//673 614//772 622//781
f 587//681 594//693 617//776 613//769
f 606//709 599//697 592//685 586//677
f 593//689 601//705 620//780 616//773
f 600//701 608//717 623//784 619//777
f 622//781 614//772 626//788 634//797
f 613//769 617//776 629//792 625//785
f 616//773 620//780 632//796 628//789
f 619//777 623//784 635//800 631//793
f 634//797 626//788 638//788 646//797
f 625//785 629//792 641//792 637//785
f 628//789 632//796 644//796 640//789
f 631//793 635//800 647//800 643//793
f 646//797 638//788 650//788 658//797
f 637//785 641//792 653//792 649//785
f 640//789 644//796 656//796 652//789
f 643//793 647//800 659//800 655//793
f 658//797 650//788 662//788 670//797
f 649//785 653//792 665//792 661//785
f 652//789 656//796 668//796 664//789
f 655//793 659//800 671//800 667//793
f 670//797 662//788 674//804 682//813
f 661//785 665//792 677//808 673//801
f 664//789 668//796 680//812 676//805
f 667//793 671//800 683//816 679//809
f 682//813 674//804 686//820 694//829
f 673//801 677//808 689//824 685//817
f 676//805 680//812 692//828 688//821
f 679//809 683//816 695//832 691//825
f 694//829 686//820 698//820 706//829
f 685//817 689//824 701//824 697//817
f 688//821 692//828 704//828 700//821
f 691//825 695//832 707//832 703//825
f 706//829 698//820 710//820 718//829
f 697//817 701//824 713//824 709//817
f 700//821 704//828 716//828 712//821
f 703//825 707//832 719//832 715//825
f 718//829 710//820 722//820 730//829
f 709//817 713//824 725//824 721//817
f 712//821 716//828 728//828 724//821
f 715//825 719//832 731//832 727//825
f 730//829 722//820 734//836 742//845
f 721//817 725//824 737//840 733//833
f 724//821 728//828 740//844 736//837
f 727//825 731//832 743//848 739//841
f 742//845 734//836 745//721 766//757
f 733//833 737//840 754//741 746//725
f 736//837 740//844 761//753 752//733
f 739//841 743//848 768//765 759//745
f 747//729 753//737 760//749 767//761
f 773//849 774//850 780//850 779//851
f 774//850 775//852 781//853 780//850
f 776//854 777//855 783//855 782//856
f 777//855 778//857 784//858 783//855
f 779//851 780//850 786//859 785//860
f 780//850 781//853 787//861 786//859
f 782//856 783//855 789//862 788//863
f 783//855 784//858 790//864 789//862
f 785//860 786//859 792//865 791//866
f 786//859 787//861 793//867 792//865
f 788//863 789//862 795//868 794//869
f 789//862 790//864 796//870 795//868
f 791//866 792//865 798//865 797//871
f 792//865 793//867 799//872 798//865
f 794//869 795//868 801//868 800//873
f 795//868 796//870 802//874 801//868
f 797//871 798//865 804//875 803//876
f 798//865 799//872 805//877 804//875
f 800//873 801//868 807//878 806//879
f 801//868 802//874 808//880 807//878
f 803//876 804//875 810//881 809//882
f 804//875 805//877 811//883 810//881
f 806//879 807//878 813//884 812//885
f 807//878 808//880 814//886 813//884
f 809//882 810//881 816//887 815//888
f 810//881 811//883 817//889 816//887
f 812//885 813//884 819//890 818//891
f 813//884 814//886 820//892 819//890
f 815//888 816//887 822//893 821//894
f 816//887 817//889 823//895 822//893
f 818//891 819//890 825//896 824//897
f 819//890 820//892 826//898 825//896
f 821//894 822//893 828//899 827//900
f 822//893 823//895 829//901 828//899
f 824//897 825//896 831//902 830//903
f 825//896 826//898 832//904 831//902
f 827//900 828//899 834//905 833//906
f 828//899 829//901 835//907 834//905
f 830//903 831//902 837//908 836//909
f 831//902 832//904 838//910 837//908
f 833//906 834//905 840//911 839//912
f 834//905 835//907 841//913 840//911
f 836//909 837//908 843//914 842//915
f 837//908 838//910 844//916 843//914
f 845//917 848//918 849//919 851//920
f 846//921 850//922 849//923 848//924
f 847//925 851//926 849//927 850//928
f 861//929 864//930 865//931 867//932
f 862//933 866//934 865//935 864//936
f 863//937 867//938 865//939 866//940
f 949//941 952//942 953//943 955//944
f 950//945 954//946 953//943 952//942
f 951//947 955//948 953//949 954//950
f 965//951 968//952 969//953 971//954
f 966//955 970//956 969//957 968//958
f 967//959 971//954 969//953 970//960
f 847//925 877//961 879//962 851//926
f 851//920 879//963 878//964 845//917
f 846//921 852//965 854//966 850//922
f 850//928 854//967 853//968 847//925
f 852//965 855//969 857//970 854//966
f 854//967 857//971 856//972 853//968
f 855//969 858//973 860//974 857//970
f 857//971 860//975 859//976 856//972
f 858//973 861//929 867//932 860//974
f 860//975 867//938 863//937 859//976
f 862//933 880//977 882//978 866//934
f 866//940 882//979 881//980 863//937
f 861//929 868//981 870//982 864//930
f 864//936 870//983 869//984 862//933
f 868//981 871//985 873//986 870//982
f 870//983 873//987 872//988 869//984
f 871//985 874//989 876//990 873//986
f 873//987 876//991 875//992 872//988
f 845//917 875//992 876//991 848//918
f 848//924 876//990 874//989 846//921
f 877//961 883//993 885//994 879//962
f 879//963 885//995 884//996 878//964
f 880//977 886//997 888//998 882//978
f 882//979 888//999 887//1000 881//980
f 883//993 889//1001 891//1002 885//994
f 885//995 891//1003 890//1004 884//996
f 886//997 892//1005 894//1006 888//998
f 888//999 894//1007 893//1008 887//1000
f 889//1001 895//1009 897//1010 891//1002
f 891//1003 897//1011 896//1012 890//1004
f 892//1005 898//1013 900//1014 894//1006
f 894//1007 900//1015 899//1016 893//1008
f 895//1009 901//1017 903//1018 897//1010
f 897//1011 903//1019 902//1020 896//1012
f 898//1013 904//1021 906//1022 900//1014
f 900//1015 906//1023 905//1024 899//1016
f 901//1017 907//1025 909//1026 903//1018
f 903//1019 909//1027 908//1028 902//1020
f 904//1021 910//1029 912//1030 906//1022
f 906//1023 912//1031 911//1032 905//1024
f 907//1025 913//1033 915//1034 909//1026
f 909//1027 915//1035 914//1036 908//1028
f 910//1029 916//1037 918//1038 912//1030
f 912//1031 918//1039 917//1040 911//1032
f 913//1033 919//1041 921//1042 915//1034
f 915//1035 921//1043 920//1044 914//1036
f 916//1037 922//1045 924//1046 918//1038
f 918//1039 924//1047 923//1048 917//1040
f 919//1041 925//1049 927//1050 921//1042
f 921//1043 927//1051 926//1052 920//1044
f 922//1045 928//1053 930//1054 924//1046
f 924//1047 930//1055 929//1056 923//1048
f 925//1049 931//1057 933//1058 927//1050
f 927//1051 933//1059 932//1060 926//1052
f 928//1053 934//1061 936//1062 930//1054
f 930//1055 936//1063 935//1064 929//1056
f 931//1057 937//1065 939//1066 933//1058
f 933//1059 939//1067 938//1068 932//1060
f 934//1061 940//1069 942//1070 936//1062
f 936//1063 942//1071 941//1072 935//1064
f 937//1065 943//1073 945//1074 939//1066
f 939//1067 945//1075 944//1076 938//1068
f 940//1069 946//1077 948//1078 942//1070
f 942//1071 948//1079 947//1080 941//1072
f 943//1073 950//945 952//942 945//1074
f 945//1075 952//942 949//941 944//1076
f 950//945 957//1081 958//1082 954//946
f 954//950 958//1083 956//1084 951//947
f 957//1085 960//1086 961//1087 958//1088
f 958//1083 961//1089 959//1090 956//1084
f 960//1086 963//1091 964//1092 961//1087
f 961//1089 964//1093 962//1094 959//1090
f 946//1077 965//951 971//954 948//1078
f 948//1079 971//954 967//959 947//1080
f 963//1095 967//959 970//960 964//1096
f 964//1093 970//956 966//955 962//1094
f 965//951 973//1097 974//1098 968//952
f 968//958 974//1099 972//1100 966//955
f 973//1101 976//1102 977//1103 974//1104
f 974//1099 977//1105 975//1106 972//1100
f 976//1102 979//1107 980//1108 977//1103
f 977//1105 980//1109 978//1110 975//1106
f 951//947 978//1110 980//1109 955//948
f 955//944 980//1111 979//1112 949//941
f 875//992 845//917 878//964 778//857
f 847//925 853//968 773//849 877//961
f 874//989 871//985 868//981 861//929 858//973 855//969 852//965 846//921
f 853//968 856//972 774//850 773//849
f 856//972 859//976 775//852 774//850
f 859//976 863//937 881//980 775//852
f 862//933 869//984 776//854 880//977
f 869//984 872//988 777//855 776//854
f 872//988 875//992 778//857 777//855
f 778//857 878//964 884//996 784//858
f 877//961 773//849 779//851 883//993
f 880//977 776//854 782//856 886//997
f 775//852 881//980 887//1000 781//853
f 784//858 884//996 890//1004 790//864
f 883//993 779//851 785//860 889//1001
f 886//997 782//856 788//863 892//1005
f 781//853 887//1000 893//1008 787//861
f 790//864 890//1004 896//1012 796//870
f 889//1001 785//860 791//866 895//1009
f 892//1005 788//863 794//869 898//1013
f 787//861 893//1008 899//1016 793//867
f 796//870 896//1012 902//1020 802//1113
f 895//1009 791//866 797//1114 901//1017
f 898//1013 794//869 800//1115 904//1021
f 793//867 899//1016 905//1024 799//1116
f 802//1113 902//1020 908//1028 808//1117
f 901//1017 797//1114 803//1118 907//1025
f 904//1021 800//1115 806//1119 910//1029
f 799//1116 905//1024 911//1032 805//1120
f 808//1117 908//1028 914//1036 814//1121
f 907//1025 803//1118 809//1122 913//1033
f 910//1029 806//1119 812//1123 916//1037
f 805//1120 911//1032 917//1040 811//1124
f 814//1121 914//1036 920//1044 820//1125
f 913//1033 809//1122 815//1126 919//1041
f 916//1037 812//1123 818//1127 922//1045
f 811//1124 917//1040 923//1048 817//1128
f 820//1125 920//1044 926//1052 826//1129
f 919//1041 815//1126 821//1130 925//1049
f 922//1045 818//1127 824//1131 928//1053
f 817//1128 923//1048 929//1056 823//1132
f 826//1129 926//1052 932//1060 832//1133
f 925//1049 821//1130 827//1134 931//1057
f 928//1053 824//1131 830//1135 934//1061
f 823//1132 929//1056 935//1064 829//1136
f 832//1133 932//1060 938//1068 838//1137
f 931//1057 827//1134 833//1138 937//1065
f 934//1061 830//1135 836//1139 940//1069
f 829//1136 935//1064 941//1072 835//1140
f 838//1137 938//1068 944//1076 844//1141
f 937//1065 833//1138 839//1142 943//1073
f 940//1069 836//1139 842//1143 946//1077
f 835//1140 941//1072 947//1080 841//1144
f 844//1141 944//1076 949//941 979//1112
f 943//1073 839//1142 957//1081 950//945
f 946//1077 842//1143 973//1097 965//951
f 841//1144 947//1080 967//959 963//1095
f 951//947 956//1084 959//1090 962//1094 966//955 972//1100 975//1106 978//1110
f 839//912 840//911 960//1086 957//1085
f 840//911 841//913 963//1091 960//1086
f 842//915 843//914 976//1102 973//1101
f 843//914 844//916 979//1107 976//1102
