# Blender 5.2.0 LTS
# www.blender.org
o Shield
v -0.040000 1.050000 -1.020000
v -0.040000 1.020018 -1.048946
v -0.070000 1.020000 -1.018927
v -0.040000 1.041222 -1.040909
v -0.057321 1.037324 -1.036871
v -0.061213 1.020009 -1.040149
v -0.061213 1.041209 -1.019682
v -0.040000 0.835000 -1.042440
v -0.070000 0.837104 -1.012496
v -0.061213 0.835616 -1.033669
v -0.040000 0.620000 -1.019760
v -0.070000 0.624176 -0.990034
v -0.061213 0.621223 -1.011053
v -0.040000 0.405000 -0.981960
v -0.070000 0.411189 -0.952588
v -0.061213 0.406813 -0.973357
v -0.040000 0.190000 -0.929040
v -0.070000 0.198120 -0.900143
v -0.061213 0.192378 -0.920576
v -0.040000 -0.025000 -0.861000
v -0.070000 -0.015054 -0.832681
v -0.061213 -0.022087 -0.852706
v -0.040000 -0.240000 -0.777840
v -0.070000 -0.228342 -0.750183
v -0.061213 -0.236585 -0.769740
v -0.040000 -0.455000 -0.679560
v -0.070000 -0.437527 -0.654562
v -0.061213 -0.449882 -0.672238
v -0.040000 -0.670000 -0.462000
v -0.070000 -0.648341 -0.441237
v -0.061213 -0.663656 -0.455919
v -0.040000 -0.885000 -0.231000
v -0.070000 -0.863040 -0.210561
v -0.061213 -0.878568 -0.225014
v -0.040000 -1.079561 -0.021960
v -0.070000 -1.100000 0.000000
v -0.070000 -1.100000 0.000000
v -0.055000 -1.089781 -0.010980
v -0.062370 -1.094802 -0.005585
v -0.070000 -1.100000 0.000000
v -0.055000 -1.089781 -0.010980
v -0.070000 -1.100000 0.000000
v -0.040000 -1.079561 0.021960
v -0.070000 -1.100000 0.000000
v -0.055000 -1.089781 0.010980
v -0.062370 -1.094802 0.005585
v -0.055000 -1.089781 0.010980
v -0.070000 -1.100000 0.000000
v -0.040000 -0.885000 0.231000
v -0.070000 -0.863040 0.210561
v -0.061213 -0.878568 0.225014
v -0.040000 -0.670000 0.462000
v -0.070000 -0.648341 0.441237
v -0.061213 -0.663656 0.455919
v -0.040000 -0.455000 0.679560
v -0.070000 -0.437527 0.654562
v -0.061213 -0.449882 0.672238
v -0.040000 -0.240000 0.777840
v -0.070000 -0.228342 0.750183
v -0.061213 -0.236585 0.769740
v -0.040000 -0.025000 0.861000
v -0.070000 -0.015054 0.832681
v -0.061213 -0.022087 0.852706
v -0.040000 0.190000 0.929040
v -0.070000 0.198120 0.900143
v -0.061213 0.192378 0.920576
v -0.040000 0.405000 0.981960
v -0.070000 0.411189 0.952588
v -0.061213 0.406813 0.973357
v -0.040000 0.620000 1.019760
v -0.070000 0.624176 0.990034
v -0.061213 0.621223 1.011053
v -0.040000 0.835000 1.042440
v -0.070000 0.837104 1.012496
v -0.061213 0.835616 1.033669
v -0.040000 1.050000 1.020000
v -0.070000 1.020000 1.018927
v -0.040000 1.020018 1.048946
v -0.061213 1.041209 1.019682
v -0.057321 1.037324 1.036871
v -0.061213 1.020009 1.040149
v -0.040000 1.041222 1.040909
v 0.040000 1.050000 -1.020000
v 0.070000 1.020000 -1.018927
v 0.040000 1.020018 -1.048946
v 0.061213 1.041209 -1.019682
v 0.057321 1.037324 -1.036871
v 0.061213 1.020009 -1.040149
v 0.040000 1.041222 -1.040909
v 0.070000 0.837104 -1.012496
v 0.040000 0.835000 -1.042440
v 0.061213 0.835616 -1.033669
v 0.070000 0.624176 -0.990034
v 0.040000 0.620000 -1.019760
v 0.061213 0.621223 -1.011053
v 0.070000 0.411189 -0.952588
v 0.040000 0.405000 -0.981960
v 0.061213 0.406813 -0.973357
v 0.070000 0.198120 -0.900143
v 0.040000 0.190000 -0.929040
v 0.061213 0.192378 -0.920576
v 0.070000 -0.015054 -0.832681
v 0.040000 -0.025000 -0.861000
v 0.061213 -0.022087 -0.852706
v 0.070000 -0.228342 -0.750183
v 0.040000 -0.240000 -0.777840
v 0.061213 -0.236585 -0.769740
v 0.070000 -0.437527 -0.654562
v 0.040000 -0.455000 -0.679560
v 0.061213 -0.449882 -0.672238
v 0.070000 -0.648341 -0.441237
v 0.040000 -0.670000 -0.462000
v 0.061213 -0.663656 -0.455919
v 0.070000 -0.863040 -0.210561
v 0.040000 -0.885000 -0.231000
v 0.061213 -0.878568 -0.225014
v 0.040000 -1.079561 -0.021960
v 0.070000 -1.100000 0.000000
v 0.070000 -1.100000 0.000000
v 0.055000 -1.089781 -0.010980
v 0.062370 -1.094802 -0.005585
v 0.070000 -1.100000 0.000000
v 0.055000 -1.089781 -0.010980
v 0.070000 -1.100000 0.000000
v 0.070000 -1.100000 0.000000
v 0.040000 -1.079561 0.021960
v 0.070000 -1.100000 0.000000
v 0.062370 -1.094802 0.005585
v 0.055000 -1.089781 0.010980
v 0.055000 -1.089781 0.010980
v 0.070000 -0.863040 0.210561
v 0.040000 -0.885000 0.231000
v 0.061213 -0.878568 0.225014
v 0.070000 -0.648341 0.441237
v 0.040000 -0.670000 0.462000
v 0.061213 -0.663656 0.455919
v 0.070000 -0.437527 0.654562
v 0.040000 -0.455000 0.679560
v 0.061213 -0.449882 0.672238
v 0.070000 -0.228342 0.750183
v 0.040000 -0.240000 0.777840
v 0.061213 -0.236585 0.769740
v 0.070000 -0.015054 0.832681
v 0.040000 -0.025000 0.861000
v 0.061213 -0.022087 0.852706
v 0.070000 0.198120 0.900143
v 0.040000 0.190000 0.929040
v 0.061213 0.192378 0.920576
v 0.070000 0.411189 0.952588
v 0.040000 0.405000 0.981960
v 0.061213 0.406813 0.973357
v 0.070000 0.624176 0.990034
v 0.040000 0.620000 1.019760
v 0.061213 0.621223 1.011053
v 0.070000 0.837104 1.012496
v 0.040000 0.835000 1.042440
v 0.061213 0.835616 1.033669
v 0.040000 1.050000 1.020000
v 0.040000 1.020018 1.048946
v 0.070000 1.020000 1.018927
v 0.040000 1.041222 1.040909
v 0.057321 1.037324 1.036871
v 0.061213 1.020009 1.040149
v 0.061213 1.041209 1.019682
v 0.000000 -0.240000 0.000000
v 0.173666 -0.107333 0.126174
v -0.066333 -0.107333 0.204156
v -0.214662 -0.107332 0.000000
v -0.066333 -0.107333 -0.204156
v 0.173666 -0.107333 -0.126174
v 0.066333 0.107333 0.204156
v -0.173666 0.107333 0.126174
v -0.173666 0.107333 -0.126174
v 0.066333 0.107333 -0.204156
v 0.214662 0.107332 0.000000
v 0.000000 0.240000 0.000000
v -0.055877 -0.157805 0.171975
v -0.038989 -0.204157 0.119999
v -0.018626 -0.232308 0.057325
v 0.048763 -0.232308 0.035428
v 0.102077 -0.204157 0.074163
v 0.146291 -0.157805 0.106286
v 0.127666 -0.120552 0.163611
v 0.063089 -0.126177 0.194163
v -0.007113 -0.120552 0.207404
v 0.195055 -0.120552 -0.070857
v 0.204155 -0.126177 0.000000
v 0.195055 -0.120552 0.070857
v 0.048763 -0.232308 -0.035428
v 0.102077 -0.204157 -0.074163
v 0.146291 -0.157805 -0.106286
v -0.180826 -0.157804 0.000000
v -0.126175 -0.204156 0.000000
v -0.060275 -0.232308 0.000000
v -0.116153 -0.120552 0.171975
v -0.165165 -0.126177 0.119999
v -0.199452 -0.120552 0.057325
v -0.055877 -0.157805 -0.171975
v -0.038989 -0.204157 -0.119999
v -0.018626 -0.232308 -0.057325
v -0.199452 -0.120552 -0.057325
v -0.165165 -0.126177 -0.119999
v -0.116153 -0.120552 -0.171975
v -0.007113 -0.120552 -0.207404
v 0.063089 -0.126177 -0.194163
v 0.127666 -0.120552 -0.163611
v 0.229590 0.060276 0.035428
v 0.228254 0.000000 0.074163
v 0.206567 -0.060276 0.106286
v 0.206567 -0.060276 -0.106286
v 0.228254 0.000000 -0.074163
v 0.229590 0.060276 -0.035428
v 0.037252 0.060276 0.229301
v 0.000000 0.000000 0.240000
v -0.037252 -0.060276 0.229301
v 0.164918 -0.060276 0.163612
v 0.141069 0.000000 0.194164
v 0.104642 0.060276 0.207405
v -0.206567 0.060276 0.106286
v -0.228254 0.000000 0.074163
v -0.229590 -0.060276 0.035428
v -0.104642 -0.060276 0.207405
v -0.141069 0.000000 0.194164
v -0.164918 0.060276 0.163612
v -0.164918 0.060276 -0.163612
v -0.141069 0.000000 -0.194164
v -0.104642 -0.060276 -0.207405
v -0.229590 -0.060276 -0.035428
v -0.228254 0.000000 -0.074163
v -0.206567 0.060276 -0.106286
v 0.104642 0.060276 -0.207405
v 0.141069 0.000000 -0.194164
v 0.164918 -0.060276 -0.163612
v -0.037252 -0.060276 -0.229301
v 0.000000 0.000000 -0.240000
v 0.037252 0.060276 -0.229301
v 0.199452 0.120552 0.057325
v 0.165165 0.126177 0.119999
v 0.116153 0.120552 0.171975
v 0.007113 0.120552 0.207404
v -0.063089 0.126177 0.194163
v -0.127666 0.120552 0.163611
v -0.195055 0.120552 0.070857
v -0.204155 0.126177 -0.000000
v -0.195055 0.120552 -0.070857
v -0.127666 0.120552 -0.163611
v -0.063089 0.126177 -0.194163
v 0.007113 0.120552 -0.207404
v 0.116153 0.120552 -0.171975
v 0.165165 0.126177 -0.119999
v 0.199452 0.120552 -0.057325
v 0.018626 0.232308 0.057325
v 0.038989 0.204157 0.119999
v 0.055877 0.157805 0.171975
v 0.180826 0.157804 0.000000
v 0.126175 0.204156 0.000000
v 0.060275 0.232308 0.000000
v -0.048763 0.232308 0.035428
v -0.102077 0.204157 0.074163
v -0.146291 0.157805 0.106286
v -0.048763 0.232308 -0.035428
v -0.102077 0.204157 -0.074163
v -0.146291 0.157805 -0.106286
v 0.018626 0.232308 -0.057325
v 0.038989 0.204157 -0.119999
v 0.055877 0.157805 -0.171975
v 0.086832 0.214663 -0.063087
v 0.153166 0.173666 -0.063087
v 0.107330 0.173667 -0.126175
v -0.033167 0.214663 -0.102077
v -0.012670 0.173667 -0.165164
v -0.086833 0.173667 -0.141067
v -0.107330 0.214663 0.000000
v -0.160996 0.173667 -0.038990
v -0.160996 0.173667 0.038990
v -0.033167 0.214663 0.102077
v -0.086833 0.173667 0.141067
v -0.012669 0.173667 0.165164
v 0.086832 0.214663 0.063087
v 0.107330 0.173667 0.126175
v 0.153166 0.173666 0.063087
v 0.206833 0.066335 -0.102077
v 0.194165 -0.000000 -0.141068
v 0.160997 0.066335 -0.165165
v -0.033168 0.066335 -0.228253
v -0.074164 -0.000000 -0.228254
v -0.107332 0.066335 -0.204156
v -0.227331 0.066335 -0.038990
v -0.240000 0.000000 0.000000
v -0.227331 0.066335 0.038990
v -0.107332 0.066335 0.204156
v -0.074164 -0.000000 0.228254
v -0.033168 0.066335 0.228253
v 0.160997 0.066335 0.165166
v 0.194164 -0.000000 0.141068
v 0.206833 0.066335 0.102078
v 0.074164 0.000000 -0.228254
v 0.107332 -0.066335 -0.204156
v 0.033168 -0.066335 -0.228253
v -0.194164 0.000000 -0.141068
v -0.160997 -0.066335 -0.165166
v -0.206833 -0.066335 -0.102078
v -0.194164 0.000000 0.141068
v -0.206833 -0.066335 0.102078
v -0.160997 -0.066335 0.165166
v 0.074164 0.000000 0.228254
v 0.033168 -0.066335 0.228253
v 0.107332 -0.066335 0.204156
v 0.240000 0.000000 0.000000
v 0.227331 -0.066335 0.038990
v 0.227331 -0.066335 -0.038990
v 0.086833 -0.173667 -0.141067
v 0.033167 -0.214663 -0.102077
v 0.012669 -0.173667 -0.165165
v -0.107331 -0.173667 -0.126175
v -0.086832 -0.214663 -0.063087
v -0.153167 -0.173666 -0.063087
v -0.153167 -0.173666 0.063087
v -0.086832 -0.214663 0.063087
v -0.107331 -0.173667 0.126175
v 0.160996 -0.173667 -0.038990
v 0.160996 -0.173666 0.038990
v 0.107331 -0.214663 0.000000
v 0.012670 -0.173667 0.165165
v 0.033168 -0.214663 0.102077
v 0.086833 -0.173667 0.141067
vn -0.1802 0.9666 -0.1820
vn -0.1600 0.9176 -0.3639
vn -0.3287 0.8857 -0.3280
vn -0.3622 0.9186 -0.1584
vn -0.1802 0.1479 -0.9724
vn -0.3621 0.1260 -0.9236
vn -0.3287 0.2966 -0.8966
vn -0.1600 0.3314 -0.9298
vn -0.9682 0.1738 -0.1800
vn -0.9209 0.3543 -0.1625
vn -0.8914 0.3147 -0.3260
vn -0.9209 0.1499 -0.3598
vn -0.0000 1.0000 -0.0000
vn 0.6642 0.0208 0.7472
vn -0.6911 -0.1941 -0.6962
vn -0.5802 -0.5732 -0.5787
vn -0.6641 -0.0259 -0.7472
vn -0.6642 0.0234 -0.7472
vn 0.2939 -0.2523 0.9219
vn 0.6642 -0.0208 0.7472
vn -0.5802 -0.5732 0.5787
vn -0.1802 0.9666 0.1820
vn -0.3622 0.9186 0.1584
vn -0.3287 0.8857 0.3280
vn -0.1600 0.9176 0.3639
vn -0.9682 0.1738 0.1800
vn -0.9209 0.1499 0.3598
vn -0.8914 0.3147 0.3260
vn -0.9209 0.3543 0.1625
vn -0.1802 0.1479 0.9724
vn -0.1600 0.3314 0.9298
vn -0.3287 0.2966 0.8966
vn -0.3621 0.1260 0.9236
vn 0.1802 0.9666 -0.1820
vn 0.3622 0.9186 -0.1584
vn 0.3287 0.8857 -0.3280
vn 0.1600 0.9176 -0.3639
vn 0.9682 0.1738 -0.1800
vn 0.9209 0.1499 -0.3598
vn 0.8914 0.3147 -0.3260
vn 0.9209 0.3543 -0.1625
vn 0.1802 0.1479 -0.9724
vn 0.1600 0.3314 -0.9298
vn 0.3287 0.2966 -0.8966
vn 0.3621 0.1260 -0.9236
vn -0.2939 -0.2523 -0.9219
vn -0.6642 -0.0208 -0.7472
vn 0.5802 -0.5732 -0.5787
vn 0.6642 0.0234 0.7472
vn -0.6642 0.0208 -0.7472
vn 0.6911 -0.1941 0.6962
vn 0.5802 -0.5732 0.5787
vn 0.6641 -0.0259 0.7472
vn 0.1802 0.9666 0.1820
vn 0.1600 0.9176 0.3639
vn 0.3287 0.8857 0.3280
vn 0.3622 0.9186 0.1584
vn 0.1802 0.1479 0.9724
vn 0.3621 0.1260 0.9236
vn 0.3287 0.2966 0.8966
vn 0.1600 0.3314 0.9298
vn 0.9682 0.1738 0.1800
vn 0.9209 0.3543 0.1625
vn 0.8914 0.3147 0.3260
vn 0.9209 0.1499 0.3598
vn -0.1944 -0.0687 -0.9785
vn -0.3829 -0.0647 -0.9215
vn -0.9240 -0.0268 -0.3816
vn -0.9800 -0.0140 -0.1987
vn -0.1944 -0.1365 -0.9714
vn -0.3829 -0.1285 -0.9148
vn -0.9240 -0.0532 -0.3788
vn -0.9800 -0.0277 -0.1972
vn -0.1944 -0.2023 -0.9598
vn -0.3829 -0.1905 -0.9040
vn -0.9240 -0.0789 -0.3743
vn -0.9800 -0.0410 -0.1947
vn -0.1944 -0.2653 -0.9443
vn -0.3829 -0.2499 -0.8894
vn -0.9240 -0.1035 -0.3682
vn -0.9800 -0.0538 -0.1915
vn -0.1944 -0.3251 -0.9255
vn -0.3828 -0.3061 -0.8716
vn -0.9239 -0.1268 -0.3609
vn -0.9801 -0.0659 -0.1875
vn -0.1945 -0.3810 -0.9039
vn -0.3828 -0.3588 -0.8513
vn -0.9239 -0.1486 -0.3525
vn -0.9801 -0.0771 -0.1830
vn -0.1937 -0.5620 -0.8041
vn -0.3881 -0.5280 -0.7554
vn -0.9261 -0.2162 -0.3093
vn -0.9770 -0.1223 -0.1749
vn -0.1948 -0.7079 -0.6789
vn -0.3827 -0.6668 -0.6395
vn -0.9239 -0.2762 -0.2649
vn -0.9804 -0.1421 -0.1363
vn -0.1580 -0.7207 -0.6750
vn -0.5966 -0.5780 -0.5569
vn -0.9560 -0.2078 -0.2072
vn -0.0908 -0.7259 -0.6818
vn -0.0908 -0.7259 0.6818
vn -0.1580 -0.7207 0.6750
vn -0.5966 -0.5780 0.5569
vn -0.9560 -0.2078 0.2072
vn -0.1948 -0.7079 0.6789
vn -0.3827 -0.6668 0.6395
vn -0.9239 -0.2762 0.2649
vn -0.9804 -0.1421 0.1363
vn -0.1937 -0.5620 0.8041
vn -0.3881 -0.5280 0.7554
vn -0.9261 -0.2162 0.3093
vn -0.9770 -0.1223 0.1749
vn -0.1945 -0.3810 0.9039
vn -0.3828 -0.3588 0.8513
vn -0.9239 -0.1486 0.3525
vn -0.9801 -0.0771 0.1830
vn -0.1944 -0.3251 0.9255
vn -0.3828 -0.3061 0.8716
vn -0.9239 -0.1268 0.3609
vn -0.9801 -0.0659 0.1875
vn -0.1944 -0.2653 0.9443
vn -0.3829 -0.2499 0.8894
vn -0.9240 -0.1035 0.3682
vn -0.9800 -0.0538 0.1915
vn -0.1944 -0.2023 0.9598
vn -0.3829 -0.1905 0.9040
vn -0.9240 -0.0789 0.3743
vn -0.9800 -0.0410 0.1947
vn -0.1944 -0.1365 0.9714
vn -0.3829 -0.1285 0.9148
vn -0.9240 -0.0532 0.3788
vn -0.9800 -0.0277 0.1972
vn -0.1944 -0.0687 0.9785
vn -0.3829 -0.0647 0.9215
vn -0.9240 -0.0268 0.3816
vn -0.9800 -0.0140 0.1987
vn 0.9800 -0.0140 -0.1987
vn 0.9240 -0.0268 -0.3816
vn 0.3829 -0.0647 -0.9215
vn 0.1944 -0.0687 -0.9785
vn 0.9800 -0.0277 -0.1972
vn 0.9240 -0.0532 -0.3788
vn 0.3829 -0.1285 -0.9148
vn 0.1944 -0.1365 -0.9714
vn 0.9800 -0.0410 -0.1947
vn 0.9240 -0.0789 -0.3743
vn 0.3829 -0.1905 -0.9040
vn 0.1944 -0.2023 -0.9598
vn 0.9800 -0.0538 -0.1915
vn 0.9240 -0.1035 -0.3682
vn 0.3829 -0.2499 -0.8894
vn 0.1944 -0.2653 -0.9443
vn 0.9801 -0.0659 -0.1875
vn 0.9239 -0.1268 -0.3609
vn 0.3828 -0.3061 -0.8716
vn 0.1944 -0.3251 -0.9255
vn 0.9801 -0.0771 -0.1830
vn 0.9239 -0.1486 -0.3525
vn 0.3828 -0.3588 -0.8513
vn 0.1945 -0.3810 -0.9039
vn 0.9770 -0.1223 -0.1749
vn 0.9261 -0.2162 -0.3093
vn 0.3881 -0.5280 -0.7554
vn 0.1937 -0.5620 -0.8041
vn 0.9804 -0.1421 -0.1363
vn 0.9239 -0.2762 -0.2649
vn 0.3827 -0.6668 -0.6395
vn 0.1948 -0.7079 -0.6789
vn 0.9560 -0.2078 -0.2072
vn 0.5966 -0.5780 -0.5569
vn 0.1580 -0.7207 -0.6750
vn 0.0908 -0.7259 -0.6818
vn 0.9560 -0.2078 0.2072
vn 0.5966 -0.5780 0.5569
vn 0.1580 -0.7207 0.6750
vn 0.0908 -0.7259 0.6818
vn 0.9804 -0.1421 0.1363
vn 0.9239 -0.2762 0.2649
vn 0.3827 -0.6668 0.6395
vn 0.1948 -0.7079 0.6789
vn 0.9770 -0.1223 0.1749
vn 0.9261 -0.2162 0.3093
vn 0.3881 -0.5280 0.7554
vn 0.1937 -0.5620 0.8041
vn 0.9801 -0.0771 0.1830
vn 0.9239 -0.1486 0.3525
vn 0.3828 -0.3588 0.8513
vn 0.1945 -0.3810 0.9039
vn 0.9801 -0.0659 0.1875
vn 0.9239 -0.1268 0.3609
vn 0.3828 -0.3061 0.8716
vn 0.1944 -0.3251 0.9255
vn 0.9800 -0.0538 0.1915
vn 0.9240 -0.1035 0.3682
vn 0.3829 -0.2499 0.8894
vn 0.1944 -0.2653 0.9443
vn 0.9800 -0.0410 0.1947
vn 0.9240 -0.0789 0.3743
vn 0.3829 -0.1905 0.9040
vn 0.1944 -0.2023 0.9598
vn 0.9800 -0.0277 0.1972
vn 0.9240 -0.0532 0.3788
vn 0.3829 -0.1285 0.9148
vn 0.1944 -0.1365 0.9714
vn 0.9800 -0.0140 0.1987
vn 0.9240 -0.0268 0.3816
vn 0.3829 -0.0647 0.9215
vn 0.1944 -0.0687 0.9785
vn -0.0000 -0.7320 -0.6813
vn -0.0000 -0.7320 0.6813
vn -1.0000 -0.0000 -0.0000
vn 1.0000 -0.0000 -0.0000
vn -0.0000 -1.0000 -0.0000
vn 0.2110 -0.9654 0.1533
vn -0.0806 -0.9654 0.2480
vn 0.7236 -0.4472 0.5257
vn 0.6042 -0.6650 0.4390
vn 0.8152 -0.5038 0.2857
vn -0.2608 -0.9654 -0.0000
vn -0.0806 -0.9654 -0.2480
vn 0.2110 -0.9654 -0.1533
vn 0.8650 -0.2431 0.4390
vn -0.2764 -0.4472 0.8506
vn -0.0198 -0.5038 0.8636
vn -0.1502 -0.2431 0.9583
vn -0.8944 -0.4472 -0.0000
vn -0.8274 -0.5038 0.2480
vn -0.9578 -0.2431 0.1533
vn -0.2764 -0.4472 -0.8506
vn -0.4915 -0.5038 -0.7103
vn -0.4417 -0.2431 -0.8636
vn 0.7236 -0.4472 -0.5257
vn 0.5237 -0.5038 -0.6870
vn 0.6848 -0.2431 -0.6870
vn 0.6848 -0.2431 0.6870
vn -0.4417 -0.2431 0.8636
vn -0.9578 -0.2431 -0.1533
vn -0.1502 -0.2431 -0.9583
vn 0.8650 -0.2431 -0.4390
vn 0.2764 0.4472 0.8506
vn 0.4915 0.5038 0.7103
vn 0.2308 0.6650 0.7103
vn -0.7236 0.4472 0.5257
vn -0.5237 0.5038 0.6870
vn -0.6042 0.6650 0.4390
vn -0.7236 0.4472 -0.5257
vn -0.8152 0.5038 -0.2857
vn -0.6042 0.6650 -0.4390
vn 0.2764 0.4472 -0.8506
vn 0.0198 0.5038 -0.8636
vn 0.2308 0.6650 -0.7103
vn 0.8944 0.4472 -0.0000
vn 0.8274 0.5038 -0.2480
vn 0.7469 0.6650 -0.0000
vn 0.2608 0.9654 -0.0000
vn 0.0806 0.9654 -0.2480
vn 0.5257 0.8507 -0.0000
vn 0.3682 0.8904 -0.2675
vn 0.6317 0.7275 -0.2675
vn 0.1625 0.8507 -0.5000
vn 0.4496 0.7276 -0.5182
vn 0.6882 0.5257 -0.5000
vn 0.4915 0.5038 -0.7103
vn -0.2110 0.9654 -0.1533
vn -0.1406 0.8904 -0.4329
vn -0.0592 0.7276 -0.6835
vn -0.4253 0.8507 -0.3090
vn -0.3539 0.7276 -0.5878
vn -0.2629 0.5257 -0.8090
vn -0.5237 0.5038 -0.6870
vn -0.2110 0.9654 0.1533
vn -0.4551 0.8904 -0.0000
vn -0.6683 0.7276 -0.1549
vn -0.4253 0.8507 0.3090
vn -0.6683 0.7276 0.1549
vn -0.8506 0.5257 -0.0000
vn -0.8152 0.5038 0.2857
vn 0.0806 0.9654 0.2480
vn -0.1406 0.8904 0.4329
vn -0.3539 0.7276 0.5878
vn 0.1625 0.8507 0.5000
vn -0.0592 0.7276 0.6835
vn -0.2629 0.5257 0.8090
vn 0.0198 0.5038 0.8636
vn 0.3682 0.8904 0.2675
vn 0.4496 0.7276 0.5182
vn 0.6317 0.7275 0.2675
vn 0.6882 0.5257 0.5000
vn 0.8274 0.5038 0.2480
vn 0.9578 0.2431 -0.1533
vn 0.9511 -0.0000 -0.3090
vn 0.8593 0.2724 -0.4329
vn 0.8090 0.0089 -0.5878
vn 0.6772 0.2724 -0.6835
vn 0.5878 -0.0000 -0.8090
vn 0.4417 0.2431 -0.8636
vn 0.1502 0.2431 -0.9583
vn -0.0000 -0.0000 -1.0000
vn -0.1461 0.2724 -0.9510
vn -0.3090 0.0089 -0.9510
vn -0.4408 0.2724 -0.8553
vn -0.5878 -0.0000 -0.8090
vn -0.6848 0.2431 -0.6870
vn -0.8650 0.2431 -0.4390
vn -0.9511 -0.0000 -0.3090
vn -0.9496 0.2724 -0.1549
vn -1.0000 0.0089 -0.0000
vn -0.9496 0.2724 0.1549
vn -0.9511 -0.0000 0.3090
vn -0.8650 0.2431 0.4390
vn -0.6848 0.2431 0.6870
vn -0.5878 -0.0000 0.8090
vn -0.4408 0.2724 0.8553
vn -0.3090 0.0089 0.9510
vn -0.1461 0.2724 0.9510
vn -0.0000 -0.0000 1.0000
vn 0.1502 0.2431 0.9583
vn 0.4417 0.2431 0.8636
vn 0.5878 -0.0000 0.8090
vn 0.6772 0.2724 0.6835
vn 0.8090 0.0089 0.5878
vn 0.8593 0.2724 0.4329
vn 0.9511 -0.0000 0.3090
vn 0.9578 0.2431 0.1533
vn 0.3090 -0.0089 -0.9510
vn 0.4408 -0.2724 -0.8553
vn 0.1461 -0.2724 -0.9510
vn 0.2629 -0.5257 -0.8090
vn -0.0198 -0.5038 -0.8636
vn -0.8090 -0.0089 -0.5878
vn -0.6772 -0.2724 -0.6835
vn -0.8593 -0.2724 -0.4329
vn -0.6882 -0.5257 -0.5000
vn -0.8274 -0.5038 -0.2480
vn -0.8090 -0.0089 0.5878
vn -0.8593 -0.2724 0.4329
vn -0.6772 -0.2724 0.6835
vn -0.6882 -0.5257 0.5000
vn -0.4915 -0.5038 0.7103
vn 0.3090 -0.0089 0.9510
vn 0.1461 -0.2724 0.9510
vn 0.4408 -0.2724 0.8553
vn 0.2629 -0.5257 0.8090
vn 0.5237 -0.5038 0.6870
vn 1.0000 -0.0089 -0.0000
vn 0.9496 -0.2724 0.1549
vn 0.9496 -0.2724 -0.1549
vn 0.8506 -0.5257 -0.0000
vn 0.8152 -0.5038 -0.2857
vn 0.6042 -0.6650 -0.4390
vn 0.4253 -0.8507 -0.3090
vn 0.3539 -0.7276 -0.5878
vn 0.1406 -0.8904 -0.4329
vn 0.0592 -0.7276 -0.6835
vn -0.1625 -0.8507 -0.5000
vn -0.2308 -0.6650 -0.7103
vn -0.4496 -0.7276 -0.5182
vn -0.3682 -0.8904 -0.2675
vn -0.6317 -0.7275 -0.2675
vn -0.5257 -0.8507 -0.0000
vn -0.7469 -0.6650 -0.0000
vn -0.6317 -0.7275 0.2675
vn -0.3682 -0.8904 0.2675
vn -0.4496 -0.7275 0.5182
vn -0.1625 -0.8507 0.5000
vn -0.2308 -0.6650 0.7103
vn 0.6683 -0.7275 -0.1549
vn 0.6683 -0.7275 0.1549
vn 0.4551 -0.8904 -0.0000
vn 0.4253 -0.8507 0.3090
vn 0.0592 -0.7276 0.6835
vn 0.1406 -0.8904 0.4329
vn 0.3539 -0.7276 0.5878
s 1
f 1//1 4//2 5//3 7//4
f 2//5 6//6 5//7 4//8
f 3//9 7//10 5//11 6//12
f 35//13 38//13 39//13 41//13
f 36//14 40//14 39//14 38//14
f 37//15 41//16 39//17 40//17
f 42//18 45//18 46//18 48//18
f 43//13 47//13 46//13 45//13
f 44//19 48//20 46//20 47//21
f 76//22 79//23 80//24 82//25
f 77//26 81//27 80//28 79//29
f 78//30 82//31 80//32 81//33
f 83//34 86//35 87//36 89//37
f 84//38 88//39 87//40 86//41
f 85//42 89//43 87//44 88//45
f 117//13 120//13 121//13 123//13
f 118//46 122//47 121//47 120//48
f 119//49 123//49 121//49 122//49
f 124//50 127//50 128//50 130//50
f 125//51 129//52 128//53 127//53
f 126//13 130//13 128//13 129//13
f 158//54 161//55 162//56 164//57
f 159//58 163//59 162//60 161//61
f 160//62 164//63 162//64 163//65
f 3//9 77//26 79//29 7//10
f 7//4 79//23 76//22 1//1
f 2//5 8//66 10//67 6//6
f 6//12 10//68 9//69 3//9
f 8//66 11//70 13//71 10//67
f 10//68 13//72 12//73 9//69
f 11//70 14//74 16//75 13//71
f 13//72 16//76 15//77 12//73
f 14//74 17//78 19//79 16//75
f 16//76 19//80 18//81 15//77
f 17//78 20//82 22//83 19//79
f 19//80 22//84 21//85 18//81
f 20//82 23//86 25//87 22//83
f 22//84 25//88 24//89 21//85
f 23//86 26//90 28//91 25//87
f 25//88 28//92 27//93 24//89
f 26//90 29//94 31//95 28//91
f 28//92 31//96 30//97 27//93
f 29//94 32//98 34//99 31//95
f 31//96 34//99 33//100 30//97
f 32//98 35//101 41//16 34//99
f 34//99 41//16 37//15 33//100
f 36//13 42//13 48//13 40//13
f 40//13 48//13 44//13 37//13
f 43//102 49//103 51//104 47//21
f 47//21 51//104 50//105 44//19
f 49//103 52//106 54//107 51//104
f 51//104 54//108 53//109 50//105
f 52//106 55//110 57//111 54//107
f 54//108 57//112 56//113 53//109
f 55//110 58//114 60//115 57//111
f 57//112 60//116 59//117 56//113
f 58//114 61//118 63//119 60//115
f 60//116 63//120 62//121 59//117
f 61//118 64//122 66//123 63//119
f 63//120 66//124 65//125 62//121
f 64//122 67//126 69//127 66//123
f 66//124 69//128 68//129 65//125
f 67//126 70//130 72//131 69//127
f 69//128 72//132 71//133 68//129
f 70//130 73//134 75//135 72//131
f 72//132 75//136 74//137 71//133
f 73//134 78//30 81//33 75//135
f 75//136 81//27 77//26 74//137
f 83//34 158//54 164//57 86//35
f 86//41 164//63 160//62 84//38
f 84//38 90//138 92//139 88//39
f 88//45 92//140 91//141 85//42
f 90//138 93//142 95//143 92//139
f 92//140 95//144 94//145 91//141
f 93//142 96//146 98//147 95//143
f 95//144 98//148 97//149 94//145
f 96//146 99//150 101//151 98//147
f 98//148 101//152 100//153 97//149
f 99//150 102//154 104//155 101//151
f 101//152 104//156 103//157 100//153
f 102//154 105//158 107//159 104//155
f 104//156 107//160 106//161 103//157
f 105//158 108//162 110//163 107//159
f 107//160 110//164 109//165 106//161
f 108//162 111//166 113//167 110//163
f 110//164 113//168 112//169 109//165
f 111//166 114//170 116//171 113//167
f 113//168 116//171 115//172 112//169
f 114//170 118//46 120//48 116//171
f 116//171 120//48 117//173 115//172
f 118//13 125//13 127//13 122//13
f 122//13 127//13 124//13 119//13
f 125//51 131//174 133//175 129//52
f 129//52 133//175 132//176 126//177
f 131//174 134//178 136//179 133//175
f 133//175 136//180 135//181 132//176
f 134//178 137//182 139//183 136//179
f 136//180 139//184 138//185 135//181
f 137//182 140//186 142//187 139//183
f 139//184 142//188 141//189 138//185
f 140//186 143//190 145//191 142//187
f 142//188 145//192 144//193 141//189
f 143//190 146//194 148//195 145//191
f 145//192 148//196 147//197 144//193
f 146//194 149//198 151//199 148//195
f 148//196 151//200 150//201 147//197
f 149//198 152//202 154//203 151//199
f 151//200 154//204 153//205 150//201
f 152//202 155//206 157//207 154//203
f 154//204 157//208 156//209 153//205
f 155//206 160//62 163//65 157//207
f 157//208 163//59 159//58 156//209
f 1//1 83//34 89//37 4//2
f 4//8 89//43 85//42 2//5
f 35//101 117//173 123//210 38//210
f 38//210 123//210 119//210 36//210
f 42//211 124//211 130//211 45//211
f 45//211 130//211 126//177 43//102
f 78//30 159//58 161//61 82//31
f 82//25 161//55 158//54 76//22
f 1//1 76//22 158//54 83//34
f 3//9 9//69 12//73 15//77 18//81 21//85 24//89 27//93 30//97 33//100 37//212 44//212 50//105 53//109 56//113 59//117 62//121 65//125 68//129 71//133 74//137 77//26
f 8//66 2//5 85//42 91//141
f 11//70 8//66 91//141 94//145
f 14//74 11//70 94//145 97//149
f 17//78 14//74 97//149 100//153
f 20//82 17//78 100//153 103//157
f 23//86 20//82 103//157 106//161
f 26//90 23//86 106//161 109//165
f 29//94 26//90 109//165 112//169
f 32//98 29//94 112//169 115//172
f 35//101 32//98 115//172 117//173
f 42//13 36//13 119//13 124//13
f 49//103 43//102 126//177 132//176
f 52//106 49//103 132//176 135//181
f 55//110 52//106 135//181 138//185
f 58//114 55//110 138//185 141//189
f 61//118 58//114 141//189 144//193
f 64//122 61//118 144//193 147//197
f 67//126 64//122 147//197 150//201
f 70//130 67//126 150//201 153//205
f 73//134 70//130 153//205 156//209
f 78//30 73//134 156//209 159//58
f 84//38 160//62 155//206 152//202 149//198 146//194 143//190 140//186 137//182 134//178 131//174 125//213 118//213 114//170 111//166 108//162 105//158 102//154 99//150 96//146 93//142 90//138
f 165//214 180//215 179//216
f 166//217 182//218 188//219
f 165//214 179//216 194//220
f 165//214 194//220 200//221
f 165//214 200//221 189//222
f 166//217 188//219 209//223
f 167//224 185//225 215//226
f 168//227 197//228 221//229
f 169//230 203//231 227//232
f 170//233 206//234 233//235
f 166//217 209//223 216//236
f 167//224 215//226 222//237
f 168//227 221//229 228//238
f 169//230 227//232 234//239
f 170//233 233//235 210//240
f 171//241 239//242 254//243
f 172//244 242//245 260//246
f 173//247 245//248 263//249
f 174//250 248//251 266//252
f 175//253 251//254 255//255
f 257//256 264//257 176//13
f 256//258 267//259 257//256
f 255//255 268//260 256//258
f 257//256 267//259 264//257
f 267//259 265//261 264//257
f 256//258 268//260 267//259
f 268//260 269//262 267//259
f 267//259 269//262 265//261
f 269//262 266//252 265//261
f 255//255 251//254 268//260
f 251//254 250//263 268//260
f 268//260 250//263 269//262
f 250//263 249//264 269//262
f 269//262 249//264 266//252
f 249//264 174//250 266//252
f 264//257 261//265 176//13
f 265//261 270//266 264//257
f 266//252 271//267 265//261
f 264//257 270//266 261//265
f 270//266 262//268 261//265
f 265//261 271//267 270//266
f 271//267 272//269 270//266
f 270//266 272//269 262//268
f 272//269 263//249 262//268
f 266//252 248//251 271//267
f 248//251 247//270 271//267
f 271//267 247//270 272//269
f 247//270 246//271 272//269
f 272//269 246//271 263//249
f 246//271 173//247 263//249
f 261//265 258//272 176//13
f 262//268 273//273 261//265
f 263//249 274//274 262//268
f 261//265 273//273 258//272
f 273//273 259//275 258//272
f 262//268 274//274 273//273
f 274//274 275//276 273//273
f 273//273 275//276 259//275
f 275//276 260//246 259//275
f 263//249 245//248 274//274
f 245//248 244//277 274//274
f 274//274 244//277 275//276
f 244//277 243//278 275//276
f 275//276 243//278 260//246
f 243//278 172//244 260//246
f 258//272 252//279 176//13
f 259//275 276//280 258//272
f 260//246 277//281 259//275
f 258//272 276//280 252//279
f 276//280 253//282 252//279
f 259//275 277//281 276//280
f 277//281 278//283 276//280
f 276//280 278//283 253//282
f 278//283 254//243 253//282
f 260//246 242//245 277//281
f 242//245 241//284 277//281
f 277//281 241//284 278//283
f 241//284 240//285 278//283
f 278//283 240//285 254//243
f 240//285 171//241 254//243
f 252//279 257//256 176//13
f 253//282 279//286 252//279
f 254//243 280//287 253//282
f 252//279 279//286 257//256
f 279//286 256//258 257//256
f 253//282 280//287 279//286
f 280//287 281//288 279//286
f 279//286 281//288 256//258
f 281//288 255//255 256//258
f 254//243 239//242 280//287
f 239//242 238//289 280//287
f 280//287 238//289 281//288
f 238//289 237//290 281//288
f 281//288 237//290 255//255
f 237//290 175//253 255//255
f 212//291 251//254 175//253
f 211//292 282//293 212//291
f 210//240 283//294 211//292
f 212//291 282//293 251//254
f 282//293 250//263 251//254
f 211//292 283//294 282//293
f 283//294 284//295 282//293
f 282//293 284//295 250//263
f 284//295 249//264 250//263
f 210//240 233//235 283//294
f 233//235 232//296 283//294
f 283//294 232//296 284//295
f 232//296 231//297 284//295
f 284//295 231//297 249//264
f 231//297 174//250 249//264
f 236//298 248//251 174//250
f 235//299 285//300 236//298
f 234//239 286//301 235//299
f 236//298 285//300 248//251
f 285//300 247//270 248//251
f 235//299 286//301 285//300
f 286//301 287//302 285//300
f 285//300 287//302 247//270
f 287//302 246//271 247//270
f 234//239 227//232 286//301
f 227//232 226//303 286//301
f 286//301 226//303 287//302
f 226//303 225//304 287//302
f 287//302 225//304 246//271
f 225//304 173//247 246//271
f 230//305 245//248 173//247
f 229//306 288//307 230//305
f 228//238 289//308 229//306
f 230//305 288//307 245//248
f 288//307 244//277 245//248
f 229//306 289//308 288//307
f 289//308 290//309 288//307
f 288//307 290//309 244//277
f 290//309 243//278 244//277
f 228//238 221//229 289//308
f 221//229 220//310 289//308
f 289//308 220//310 290//309
f 220//310 219//311 290//309
f 290//309 219//311 243//278
f 219//311 172//244 243//278
f 224//312 242//245 172//244
f 223//313 291//314 224//312
f 222//237 292//315 223//313
f 224//312 291//314 242//245
f 291//314 241//284 242//245
f 223//313 292//315 291//314
f 292//315 293//316 291//314
f 291//314 293//316 241//284
f 293//316 240//285 241//284
f 222//237 215//226 292//315
f 215//226 214//317 292//315
f 292//315 214//317 293//316
f 214//317 213//318 293//316
f 293//316 213//318 240//285
f 213//318 171//241 240//285
f 218//319 239//242 171//241
f 217//320 294//321 218//319
f 216//236 295//322 217//320
f 218//319 294//321 239//242
f 294//321 238//289 239//242
f 217//320 295//322 294//321
f 295//322 296//323 294//321
f 294//321 296//323 238//289
f 296//323 237//290 238//289
f 216//236 209//223 295//322
f 209//223 208//324 295//322
f 295//322 208//324 296//323
f 208//324 207//325 296//323
f 296//323 207//325 237//290
f 207//325 175//253 237//290
f 231//297 236//298 174//250
f 232//296 297//326 231//297
f 233//235 298//327 232//296
f 231//297 297//326 236//298
f 297//326 235//299 236//298
f 232//296 298//327 297//326
f 298//327 299//328 297//326
f 297//326 299//328 235//299
f 299//328 234//239 235//299
f 233//235 206//234 298//327
f 206//234 205//329 298//327
f 298//327 205//329 299//328
f 205//329 204//330 299//328
f 299//328 204//330 234//239
f 204//330 169//230 234//239
f 225//304 230//305 173//247
f 226//303 300//331 225//304
f 227//232 301//332 226//303
f 225//304 300//331 230//305
f 300//331 229//306 230//305
f 226//303 301//332 300//331
f 301//332 302//333 300//331
f 300//331 302//333 229//306
f 302//333 228//238 229//306
f 227//232 203//231 301//332
f 203//231 202//334 301//332
f 301//332 202//334 302//333
f 202//334 201//335 302//333
f 302//333 201//335 228//238
f 201//335 168//227 228//238
f 219//311 224//312 172//244
f 220//310 303//336 219//311
f 221//229 304//337 220//310
f 219//311 303//336 224//312
f 303//336 223//313 224//312
f 220//310 304//337 303//336
f 304//337 305//338 303//336
f 303//336 305//338 223//313
f 305//338 222//237 223//313
f 221//229 197//228 304//337
f 197//228 196//339 304//337
f 304//337 196//339 305//338
f 196//339 195//340 305//338
f 305//338 195//340 222//237
f 195//340 167//224 222//237
f 213//318 218//319 171//241
f 214//317 306//341 213//318
f 215//226 307//342 214//317
f 213//318 306//341 218//319
f 306//341 217//320 218//319
f 214//317 307//342 306//341
f 307//342 308//343 306//341
f 306//341 308//343 217//320
f 308//343 216//236 217//320
f 215//226 185//225 307//342
f 185//225 184//344 307//342
f 307//342 184//344 308//343
f 184//344 183//345 308//343
f 308//343 183//345 216//236
f 183//345 166//217 216//236
f 207//325 212//291 175//253
f 208//324 309//346 207//325
f 209//223 310//347 208//324
f 207//325 309//346 212//291
f 309//346 211//292 212//291
f 208//324 310//347 309//346
f 310//347 311//348 309//346
f 309//346 311//348 211//292
f 311//348 210//240 211//292
f 209//223 188//219 310//347
f 188//219 187//349 310//347
f 310//347 187//349 311//348
f 187//349 186//350 311//348
f 311//348 186//350 210//240
f 186//350 170//233 210//240
f 191//351 206//234 170//233
f 190//352 312//353 191//351
f 189//222 313//354 190//352
f 191//351 312//353 206//234
f 312//353 205//329 206//234
f 190//352 313//354 312//353
f 313//354 314//355 312//353
f 312//353 314//355 205//329
f 314//355 204//330 205//329
f 189//222 200//221 313//354
f 200//221 199//356 313//354
f 313//354 199//356 314//355
f 199//356 198//357 314//355
f 314//355 198//357 204//330
f 198//357 169//230 204//330
f 198//357 203//231 169//230
f 199//356 315//358 198//357
f 200//221 316//359 199//356
f 198//357 315//358 203//231
f 315//358 202//334 203//231
f 199//356 316//359 315//358
f 316//359 317//360 315//358
f 315//358 317//360 202//334
f 317//360 201//335 202//334
f 200//221 194//220 316//359
f 194//220 193//361 316//359
f 316//359 193//361 317//360
f 193//361 192//362 317//360
f 317//360 192//362 201//335
f 192//362 168//227 201//335
f 192//362 197//228 168//227
f 193//361 318//363 192//362
f 194//220 319//364 193//361
f 192//362 318//363 197//228
f 318//363 196//339 197//228
f 193//361 319//364 318//363
f 319//364 320//365 318//363
f 318//363 320//365 196//339
f 320//365 195//340 196//339
f 194//220 179//216 319//364
f 179//216 178//366 319//364
f 319//364 178//366 320//365
f 178//366 177//367 320//365
f 320//365 177//367 195//340
f 177//367 167//224 195//340
f 186//350 191//351 170//233
f 187//349 321//368 186//350
f 188//219 322//369 187//349
f 186//350 321//368 191//351
f 321//368 190//352 191//351
f 187//349 322//369 321//368
f 322//369 323//370 321//368
f 321//368 323//370 190//352
f 323//370 189//222 190//352
f 188//219 182//218 322//369
f 182//218 181//371 322//369
f 322//369 181//371 323//370
f 181//371 180//215 323//370
f 323//370 180//215 189//222
f 180//215 165//214 189//222
f 177//367 185//225 167//224
f 178//366 324//372 177//367
f 179//216 325//373 178//366
f 177//367 324//372 185//225
f 324//372 184//344 185//225
f 178//366 325//373 324//372
f 325//373 326//374 324//372
f 324//372 326//374 184//344
f 326//374 183//345 184//344
f 179//216 180//215 325//373
f 180//215 181//371 325//373
f 325//373 181//371 326//374
f 181//371 182//218 326//374
f 326//374 182//218 183//345
f 182//218 166//217 183//345
