# Blender 5.2.0 LTS
# www.blender.org
o Staff
v 0.118800 -0.210000 0.000000
v 0.102884 -0.210000 -0.059400
v 0.059400 -0.210000 -0.102884
v 0.000000 -0.210000 -0.118800
v -0.059400 -0.210000 -0.102884
v -0.102884 -0.210000 -0.059400
v -0.118800 -0.210000 -0.000000
v -0.102884 -0.210000 0.059400
v -0.059400 -0.210000 0.102884
v -0.000000 -0.210000 0.118800
v 0.059400 -0.210000 0.102884
v 0.102884 -0.210000 0.059400
v 0.117600 0.280000 0.000000
v 0.101845 0.280000 -0.058800
v 0.058800 0.280000 -0.101845
v 0.000000 0.280000 -0.117600
v -0.058800 0.280000 -0.101845
v -0.101845 0.280000 -0.058800
v -0.117600 0.280000 -0.000000
v -0.101845 0.280000 0.058800
v -0.058800 0.280000 0.101845
v -0.000000 0.280000 0.117600
v 0.058800 0.280000 0.101845
v 0.101845 0.280000 0.058800
v 0.116400 0.770000 0.000000
v 0.100805 0.770000 -0.058200
v 0.058200 0.770000 -0.100805
v 0.000000 0.770000 -0.116400
v -0.058200 0.770000 -0.100805
v -0.100805 0.770000 -0.058200
v -0.116400 0.770000 -0.000000
v -0.100805 0.770000 0.058200
v -0.058200 0.770000 0.100805
v -0.000000 0.770000 0.116400
v 0.058200 0.770000 0.100805
v 0.100805 0.770000 0.058200
v 0.115200 1.260000 0.000000
v 0.099766 1.260000 -0.057600
v 0.057600 1.260000 -0.099766
v 0.000000 1.260000 -0.115200
v -0.057600 1.260000 -0.099766
v -0.099766 1.260000 -0.057600
v -0.115200 1.260000 -0.000000
v -0.099766 1.260000 0.057600
v -0.057600 1.260000 0.099766
v -0.000000 1.260000 0.115200
v 0.057600 1.260000 0.099766
v 0.099766 1.260000 0.057600
v 0.114000 1.750000 0.000000
v 0.098727 1.750000 -0.057000
v 0.057000 1.750000 -0.098727
v 0.000000 1.750000 -0.114000
v -0.057000 1.750000 -0.098727
v -0.098727 1.750000 -0.057000
v -0.114000 1.750000 -0.000000
v -0.098727 1.750000 0.057000
v -0.057000 1.750000 0.098727
v -0.000000 1.750000 0.114000
v 0.057000 1.750000 0.098727
v 0.098727 1.750000 0.057000
v 0.112800 2.240000 0.000000
v 0.097688 2.240000 -0.056400
v 0.056400 2.240000 -0.097688
v 0.000000 2.240000 -0.112800
v -0.056400 2.240000 -0.097688
v -0.097688 2.240000 -0.056400
v -0.112800 2.240000 -0.000000
v -0.097688 2.240000 0.056400
v -0.056400 2.240000 0.097688
v -0.000000 2.240000 0.112800
v 0.056400 2.240000 0.097688
v 0.097688 2.240000 0.056400
v 0.111600 2.730000 0.000000
v 0.096648 2.730000 -0.055800
v 0.055800 2.730000 -0.096648
v 0.000000 2.730000 -0.111600
v -0.055800 2.730000 -0.096648
v -0.096648 2.730000 -0.055800
v -0.111600 2.730000 -0.000000
v -0.096648 2.730000 0.055800
v -0.055800 2.730000 0.096648
v -0.000000 2.730000 0.111600
v 0.055800 2.730000 0.096648
v 0.096648 2.730000 0.055800
v 0.110400 3.220000 0.000000
v 0.095609 3.220000 -0.055200
v 0.055200 3.220000 -0.095609
v 0.000000 3.220000 -0.110400
v -0.055200 3.220000 -0.095609
v -0.095609 3.220000 -0.055200
v -0.110400 3.220000 -0.000000
v -0.095609 3.220000 0.055200
v -0.055200 3.220000 0.095609
v -0.000000 3.220000 0.110400
v 0.055200 3.220000 0.095609
v 0.095609 3.220000 0.055200
v 0.109200 3.710000 0.000000
v 0.094570 3.710000 -0.054600
v 0.054600 3.710000 -0.094570
v 0.000000 3.710000 -0.109200
v -0.054600 3.710000 -0.094570
v -0.094570 3.710000 -0.054600
v -0.109200 3.710000 -0.000000
v -0.094570 3.710000 0.054600
v -0.054600 3.710000 0.094570
v -0.000000 3.710000 0.109200
v 0.054600 3.710000 0.094570
v 0.094570 3.710000 0.054600
v 0.113788 -0.700000 0.000000
v 0.119985 -0.694000 0.000000
v 0.118176 -0.698243 0.000000
v 0.098544 -0.700000 -0.056894
v 0.103910 -0.694000 -0.059993
v 0.102344 -0.698243 -0.059088
v 0.056894 -0.700000 -0.098544
v 0.059993 -0.694000 -0.103910
v 0.059088 -0.698243 -0.102344
v 0.000000 -0.700000 -0.113788
v 0.000000 -0.694000 -0.119985
v 0.000000 -0.698243 -0.118176
v -0.056894 -0.700000 -0.098544
v -0.059993 -0.694000 -0.103910
v -0.059088 -0.698243 -0.102344
v -0.098544 -0.700000 -0.056894
v -0.103910 -0.694000 -0.059993
v -0.102344 -0.698243 -0.059088
v -0.113788 -0.700000 -0.000000
v -0.119985 -0.694000 -0.000000
v -0.118176 -0.698243 -0.000000
v -0.098544 -0.700000 0.056894
v -0.103910 -0.694000 0.059993
v -0.102344 -0.698243 0.059088
v -0.056894 -0.700000 0.098544
v -0.059993 -0.694000 0.103910
v -0.059088 -0.698243 0.102344
v -0.000000 -0.700000 0.113788
v -0.000000 -0.694000 0.119985
v -0.000000 -0.698243 0.118176
v 0.056894 -0.700000 0.098544
v 0.059993 -0.694000 0.103910
v 0.059088 -0.698243 0.102344
v 0.098544 -0.700000 0.056894
v 0.103910 -0.694000 0.059993
v 0.102344 -0.698243 0.059088
v 0.101788 4.200000 0.000000
v 0.108015 4.194000 0.000000
v 0.106185 4.198242 0.000000
v 0.088151 4.200000 -0.050894
v 0.093543 4.194000 -0.054007
v 0.091959 4.198242 -0.053092
v 0.050894 4.200000 -0.088151
v 0.054007 4.194000 -0.093543
v 0.053092 4.198242 -0.091959
v 0.000000 4.200000 -0.101788
v 0.000000 4.194000 -0.108015
v 0.000000 4.198242 -0.106185
v -0.050894 4.200000 -0.088151
v -0.054007 4.194000 -0.093543
v -0.053092 4.198242 -0.091959
v -0.088151 4.200000 -0.050894
v -0.093543 4.194000 -0.054007
v -0.091959 4.198242 -0.053092
v -0.101788 4.200000 0.000000
v -0.108015 4.194000 -0.000000
v -0.106185 4.198242 0.000000
v -0.088151 4.200000 0.050894
v -0.093543 4.194000 0.054007
v -0.091959 4.198242 0.053092
v -0.050894 4.200000 0.088151
v -0.054007 4.194000 0.093543
v -0.053092 4.198242 0.091959
v 0.000000 4.200000 0.101788
v -0.000000 4.194000 0.108015
v 0.000000 4.198242 0.106185
v 0.050894 4.200000 0.088151
v 0.054007 4.194000 0.093543
v 0.053092 4.198242 0.091959
v 0.088151 4.200000 0.050894
v 0.093543 4.194000 0.054007
v 0.091959 4.198242 0.053092
v 0.136840 -0.444444 0.000000
v 0.123288 -0.444444 -0.059372
v 0.085318 -0.444444 -0.106986
v 0.030450 -0.444444 -0.133409
v -0.030450 -0.444444 -0.133409
v -0.085318 -0.444444 -0.106986
v -0.123288 -0.444444 -0.059372
v -0.136840 -0.444444 -0.000000
v -0.123288 -0.444444 0.059372
v -0.085318 -0.444444 0.106986
v -0.030450 -0.444444 0.133409
v 0.030450 -0.444444 0.133409
v 0.085318 -0.444444 0.106986
v 0.123288 -0.444444 0.059372
v 0.133775 -0.388889 0.000000
v 0.120527 -0.388889 -0.058043
v 0.083407 -0.388889 -0.104590
v 0.029768 -0.388889 -0.130421
v -0.029768 -0.388889 -0.130421
v -0.083407 -0.388889 -0.104590
v -0.120527 -0.388889 -0.058043
v -0.133775 -0.388889 -0.000000
v -0.120527 -0.388889 0.058043
v -0.083407 -0.388889 0.104590
v -0.029768 -0.388889 0.130421
v 0.029768 -0.388889 0.130421
v 0.083407 -0.388889 0.104590
v 0.120527 -0.388889 0.058043
v 0.138754 -0.333333 0.000000
v 0.125013 -0.333333 -0.060203
v 0.086512 -0.333333 -0.108482
v 0.030876 -0.333333 -0.135275
v -0.030876 -0.333333 -0.135275
v -0.086512 -0.333333 -0.108482
v -0.125013 -0.333333 -0.060203
v -0.138754 -0.333333 -0.000000
v -0.125013 -0.333333 0.060203
v -0.086512 -0.333333 0.108482
v -0.030876 -0.333333 0.135275
v 0.030876 -0.333333 0.135275
v 0.086512 -0.333333 0.108482
v 0.125013 -0.333333 0.060203
v 0.135999 -0.277778 0.000000
v 0.122531 -0.277778 -0.059008
v 0.084794 -0.277778 -0.106329
v 0.030263 -0.277778 -0.132590
v -0.030263 -0.277778 -0.132590
v -0.084794 -0.277778 -0.106329
v -0.122531 -0.277778 -0.059008
v -0.135999 -0.277778 -0.000000
v -0.122531 -0.277778 0.059008
v -0.084794 -0.277778 0.106329
v -0.030263 -0.277778 0.132590
v 0.030263 -0.277778 0.132590
v 0.084794 -0.277778 0.106329
v 0.122531 -0.277778 0.059008
v 0.126058 -0.222222 0.000000
v 0.113574 -0.222222 -0.054695
v 0.078596 -0.222222 -0.098556
v 0.028051 -0.222222 -0.122897
v -0.028051 -0.222222 -0.122897
v -0.078596 -0.222222 -0.098556
v -0.113574 -0.222222 -0.054695
v -0.126058 -0.222222 -0.000000
v -0.113574 -0.222222 0.054695
v -0.078596 -0.222222 0.098556
v -0.028051 -0.222222 0.122897
v 0.028051 -0.222222 0.122897
v 0.078596 -0.222222 0.098556
v 0.113574 -0.222222 0.054695
v 0.124238 -0.166667 0.000000
v 0.111935 -0.166667 -0.053905
v 0.077461 -0.166667 -0.097133
v 0.027646 -0.166667 -0.121123
v -0.027646 -0.166667 -0.121123
v -0.077461 -0.166667 -0.097133
v -0.111935 -0.166667 -0.053905
v -0.124238 -0.166667 -0.000000
v -0.111935 -0.166667 0.053905
v -0.077461 -0.166667 0.097133
v -0.027646 -0.166667 0.121123
v 0.027646 -0.166667 0.121123
v 0.077461 -0.166667 0.097133
v 0.111935 -0.166667 0.053905
v 0.130271 -0.111111 0.000000
v 0.117371 -0.111111 -0.056523
v 0.081223 -0.111111 -0.101850
v 0.028988 -0.111111 -0.127005
v -0.028988 -0.111111 -0.127005
v -0.081223 -0.111111 -0.101850
v -0.117371 -0.111111 -0.056523
v -0.130271 -0.111111 -0.000000
v -0.117371 -0.111111 0.056523
v -0.081223 -0.111111 0.101850
v -0.028988 -0.111111 0.127005
v 0.028988 -0.111111 0.127005
v 0.081223 -0.111111 0.101850
v 0.117371 -0.111111 0.056523
v 0.129401 -0.055556 0.000000
v 0.116586 -0.055556 -0.056145
v 0.080680 -0.055556 -0.101170
v 0.028794 -0.055556 -0.126157
v -0.028794 -0.055556 -0.126157
v -0.080680 -0.055556 -0.101170
v -0.116586 -0.055556 -0.056145
v -0.129401 -0.055556 -0.000000
v -0.116586 -0.055556 0.056145
v -0.080680 -0.055556 0.101170
v -0.028794 -0.055556 0.126157
v 0.028794 -0.055556 0.126157
v 0.080680 -0.055556 0.101170
v 0.116586 -0.055556 0.056145
v 0.121800 0.000000 0.000000
v 0.109738 0.000000 -0.052847
v 0.075941 0.000000 -0.095227
v 0.027103 0.000000 -0.118746
v -0.027103 0.000000 -0.118746
v -0.075941 0.000000 -0.095227
v -0.109738 0.000000 -0.052847
v -0.121800 0.000000 -0.000000
v -0.109738 0.000000 0.052847
v -0.075941 0.000000 0.095227
v -0.027103 0.000000 0.118746
v 0.027103 0.000000 0.118746
v 0.075941 0.000000 0.095227
v 0.109738 0.000000 0.052847
v 0.122076 0.055556 0.000000
v 0.109987 0.055556 -0.052967
v 0.076113 0.055556 -0.095443
v 0.027165 0.055556 -0.119016
v -0.027165 0.055556 -0.119016
v -0.076113 0.055556 -0.095443
v -0.109987 0.055556 -0.052967
v -0.122076 0.055556 -0.000000
v -0.109987 0.055556 0.052967
v -0.076113 0.055556 0.095443
v -0.027165 0.055556 0.119016
v 0.027165 0.055556 0.119016
v 0.076113 0.055556 0.095443
v 0.109987 0.055556 0.052967
v 0.122898 0.111111 0.000000
v 0.110727 0.111111 -0.053323
v 0.076625 0.111111 -0.096085
v 0.027347 0.111111 -0.119816
v -0.027347 0.111111 -0.119816
v -0.076625 0.111111 -0.096085
v -0.110727 0.111111 -0.053323
v -0.122898 0.111111 -0.000000
v -0.110727 0.111111 0.053323
v -0.076625 0.111111 0.096085
v -0.027347 0.111111 0.119816
v 0.027347 0.111111 0.119816
v 0.076625 0.111111 0.096085
v 0.110727 0.111111 0.053323
v 0.131693 0.166667 0.000000
v 0.118651 0.166667 -0.057139
v 0.082109 0.166667 -0.102961
v 0.029304 0.166667 -0.128391
v -0.029304 0.166667 -0.128391
v -0.082109 0.166667 -0.102961
v -0.118651 0.166667 -0.057139
v -0.131693 0.166667 -0.000000
v -0.118651 0.166667 0.057139
v -0.082109 0.166667 0.102961
v -0.029304 0.166667 0.128391
v 0.029304 0.166667 0.128391
v 0.082109 0.166667 0.102961
v 0.118651 0.166667 0.057139
v 0.133621 0.222222 0.000000
v 0.120389 0.222222 -0.057976
v 0.083312 0.222222 -0.104469
v 0.029734 0.222222 -0.130271
v -0.029734 0.222222 -0.130271
v -0.083312 0.222222 -0.104469
v -0.120389 0.222222 -0.057976
v -0.133621 0.222222 -0.000000
v -0.120389 0.222222 0.057976
v -0.083312 0.222222 0.104469
v -0.029734 0.222222 0.130271
v 0.029734 0.222222 0.130271
v 0.083312 0.222222 0.104469
v 0.120389 0.222222 0.057976
v 0.128301 0.277778 0.000000
v 0.115595 0.277778 -0.055668
v 0.079995 0.277778 -0.100310
v 0.028550 0.277778 -0.125084
v -0.028550 0.277778 -0.125084
v -0.079995 0.277778 -0.100310
v -0.115595 0.277778 -0.055668
v -0.128301 0.277778 -0.000000
v -0.115595 0.277778 0.055668
v -0.079995 0.277778 0.100310
v -0.028550 0.277778 0.125084
v 0.028550 0.277778 0.125084
v 0.079995 0.277778 0.100310
v 0.115595 0.277778 0.055668
v 0.130900 0.333333 0.000000
v 0.117937 0.333333 -0.056795
v 0.081615 0.333333 -0.102342
v 0.029128 0.333333 -0.127618
v -0.029128 0.333333 -0.127618
v -0.081615 0.333333 -0.102342
v -0.117937 0.333333 -0.056795
v -0.130900 0.333333 -0.000000
v -0.117937 0.333333 0.056795
v -0.081615 0.333333 0.102342
v -0.029128 0.333333 0.127618
v 0.029128 0.333333 0.127618
v 0.081615 0.333333 0.102342
v 0.117937 0.333333 0.056795
v 0.141802 0.388889 0.000000
v 0.127759 0.388889 -0.061525
v 0.088412 0.388889 -0.110865
v 0.031554 0.388889 -0.138246
v -0.031554 0.388889 -0.138246
v -0.088412 0.388889 -0.110865
v -0.127759 0.388889 -0.061525
v -0.141802 0.388889 -0.000000
v -0.127759 0.388889 0.061525
v -0.088412 0.388889 0.110865
v -0.031554 0.388889 0.138246
v 0.031554 0.388889 0.138246
v 0.088412 0.388889 0.110865
v 0.127759 0.388889 0.061525
v 0.145050 0.444444 0.000000
v 0.130686 0.444444 -0.062935
v 0.090437 0.444444 -0.113405
v 0.032277 0.444444 -0.141413
v -0.032277 0.444444 -0.141413
v -0.090437 0.444444 -0.113405
v -0.130686 0.444444 -0.062935
v -0.145050 0.444444 -0.000000
v -0.130686 0.444444 0.062935
v -0.090437 0.444444 0.113405
v -0.032277 0.444444 0.141413
v 0.032277 0.444444 0.141413
v 0.090437 0.444444 0.113405
v 0.130686 0.444444 0.062935
v 0.133846 -0.500000 0.000000
v 0.139659 -0.494009 0.000000
v 0.138098 -0.498245 0.000000
v 0.120591 -0.500000 -0.058073
v 0.125829 -0.494009 -0.060596
v 0.124422 -0.498245 -0.059918
v 0.083451 -0.500000 -0.104645
v 0.087076 -0.494009 -0.109190
v 0.086102 -0.498245 -0.107969
v 0.029783 -0.500000 -0.130490
v 0.031077 -0.494009 -0.136158
v 0.030730 -0.498245 -0.134635
v -0.029783 -0.500000 -0.130490
v -0.031077 -0.494009 -0.136158
v -0.030730 -0.498245 -0.134635
v -0.083451 -0.500000 -0.104645
v -0.087076 -0.494009 -0.109190
v -0.086102 -0.498245 -0.107969
v -0.120591 -0.500000 -0.058073
v -0.125829 -0.494009 -0.060596
v -0.124422 -0.498245 -0.059918
v -0.133846 -0.500000 0.000000
v -0.139659 -0.494009 -0.000000
v -0.138098 -0.498245 0.000000
v -0.120591 -0.500000 0.058073
v -0.125829 -0.494009 0.060596
v -0.124422 -0.498245 0.059918
v -0.083451 -0.500000 0.104645
v -0.087076 -0.494009 0.109190
v -0.086102 -0.498245 0.107969
v -0.029783 -0.500000 0.130490
v -0.031077 -0.494009 0.136158
v -0.030730 -0.498245 0.134635
v 0.029783 -0.500000 0.130490
v 0.031077 -0.494009 0.136158
v 0.030730 -0.498245 0.134635
v 0.083451 -0.500000 0.104645
v 0.087076 -0.494009 0.109190
v 0.086102 -0.498245 0.107969
v 0.120591 -0.500000 0.058073
v 0.125829 -0.494009 0.060596
v 0.124422 -0.498245 0.059918
v 0.133846 0.500000 0.000000
v 0.140543 0.494023 0.000000
v 0.138357 0.498250 0.000000
v 0.120591 0.500000 -0.058073
v 0.126625 0.494023 -0.060979
v 0.124655 0.498250 -0.060031
v 0.083451 0.500000 -0.104645
v 0.087627 0.494023 -0.109881
v 0.086264 0.498250 -0.108172
v 0.029783 0.500000 -0.130490
v 0.031274 0.494023 -0.137020
v 0.030787 0.498250 -0.134888
v -0.029783 0.500000 -0.130490
v -0.031274 0.494023 -0.137020
v -0.030787 0.498250 -0.134888
v -0.083451 0.500000 -0.104645
v -0.087627 0.494023 -0.109881
v -0.086264 0.498250 -0.108172
v -0.120591 0.500000 -0.058073
v -0.126625 0.494023 -0.060979
v -0.124655 0.498250 -0.060031
v -0.133846 0.500000 0.000000
v -0.140543 0.494023 -0.000000
v -0.138357 0.498250 0.000000
v -0.120591 0.500000 0.058073
v -0.126625 0.494023 0.060979
v -0.124655 0.498250 0.060031
v -0.083451 0.500000 0.104645
v -0.087627 0.494023 0.109881
v -0.086264 0.498250 0.108172
v -0.029783 0.500000 0.130490
v -0.031274 0.494023 0.137020
v -0.030787 0.498250 0.134888
v 0.029783 0.500000 0.130490
v 0.031274 0.494023 0.137020
v 0.030787 0.498250 0.134888
v 0.083451 0.500000 0.104645
v 0.087627 0.494023 0.109881
v 0.086264 0.498250 0.108172
v 0.120591 0.500000 0.058073
v 0.126625 0.494023 0.060979
v 0.124655 0.498250 0.060031
v 0.000000 4.110000 0.000000
v 0.246027 4.297945 0.178747
v -0.093972 4.297945 0.289221
v -0.304105 4.297946 0.000000
v -0.093972 4.297945 -0.289221
v 0.246027 4.297945 -0.178747
v 0.093972 4.602055 0.289221
v -0.246027 4.602055 0.178747
v -0.246027 4.602055 -0.178747
v 0.093972 4.602055 -0.289221
v 0.304105 4.602053 0.000000
v 0.000000 4.790000 0.000000
v -0.079159 4.226443 0.243631
v -0.055235 4.160777 0.169998
v -0.026386 4.120897 0.081210
v 0.069082 4.120897 0.050190
v 0.144610 4.160778 0.105064
v 0.207246 4.226443 0.150571
v 0.180860 4.279217 0.231782
v 0.089375 4.271249 0.275064
v -0.010077 4.279217 0.293823
v 0.276328 4.279218 -0.100381
v 0.289220 4.271250 0.000000
v 0.276328 4.279218 0.100381
v 0.069082 4.120897 -0.050190
v 0.144610 4.160778 -0.105064
v 0.207246 4.226443 -0.150571
v -0.256170 4.226445 0.000000
v -0.178748 4.160778 0.000000
v -0.085390 4.120897 0.000000
v -0.164550 4.279217 0.243632
v -0.233984 4.271249 0.169999
v -0.282557 4.279218 0.081210
v -0.079159 4.226443 -0.243631
v -0.055235 4.160777 -0.169998
v -0.026386 4.120897 -0.081210
v -0.282557 4.279218 -0.081210
v -0.233984 4.271249 -0.169999
v -0.164550 4.279217 -0.243632
v -0.010077 4.279217 -0.293823
v 0.089375 4.271249 -0.275064
v 0.180860 4.279217 -0.231782
v 0.325253 4.535391 0.050190
v 0.323360 4.450000 0.105064
v 0.292637 4.364608 0.150572
v 0.292637 4.364608 -0.150572
v 0.323360 4.450000 -0.105064
v 0.325253 4.535391 -0.050190
v 0.052773 4.535391 0.324843
v -0.000000 4.450000 0.340000
v -0.052773 4.364608 0.324843
v 0.233634 4.364608 0.231783
v 0.199847 4.450000 0.275066
v 0.148242 4.535391 0.293824
v -0.292637 4.535391 0.150572
v -0.323360 4.450000 0.105064
v -0.325253 4.364609 0.050190
v -0.148242 4.364608 0.293824
v -0.199847 4.450000 0.275066
v -0.233634 4.535391 0.231783
v -0.233634 4.535391 -0.231783
v -0.199847 4.450000 -0.275066
v -0.148242 4.364608 -0.293824
v -0.325253 4.364609 -0.050190
v -0.323360 4.450000 -0.105064
v -0.292637 4.535391 -0.150572
v 0.148242 4.535391 -0.293824
v 0.199847 4.450000 -0.275066
v 0.233634 4.364608 -0.231783
v -0.052773 4.364608 -0.324843
v 0.000000 4.450000 -0.340000
v 0.052773 4.535391 -0.324843
v 0.282557 4.620781 0.081210
v 0.233984 4.628750 0.169999
v 0.164550 4.620782 0.243632
v 0.010077 4.620782 0.293823
v -0.089375 4.628751 0.275064
v -0.180860 4.620782 0.231782
v -0.276328 4.620782 0.100381
v -0.289220 4.628750 0.000000
v -0.276328 4.620782 -0.100381
v -0.180860 4.620782 -0.231782
v -0.089375 4.628751 -0.275064
v 0.010077 4.620782 -0.293823
v 0.164550 4.620782 -0.243632
v 0.233984 4.628750 -0.169999
v 0.282557 4.620781 -0.081210
v 0.026386 4.779103 0.081210
v 0.055235 4.739223 0.169998
v 0.079159 4.673556 0.243631
v 0.256170 4.673555 0.000000
v 0.178748 4.739222 0.000000
v 0.085390 4.779102 0.000000
v -0.069082 4.779103 0.050190
v -0.144610 4.739222 0.105064
v -0.207246 4.673556 0.150571
v -0.069082 4.779103 -0.050190
v -0.144610 4.739222 -0.105064
v -0.207246 4.673556 -0.150571
v 0.026386 4.779103 -0.081210
v 0.055235 4.739223 -0.169998
v 0.079159 4.673556 -0.243631
v 0.123012 4.754106 -0.089373
v 0.216986 4.696027 -0.089374
v 0.152051 4.696028 -0.178748
v -0.046987 4.754106 -0.144609
v -0.017948 4.696028 -0.233983
v -0.123013 4.696028 -0.199845
v -0.152051 4.754106 0.000000
v -0.228078 4.696027 -0.055235
v -0.228078 4.696027 0.055235
v -0.046987 4.754106 0.144609
v -0.123013 4.696028 0.199845
v -0.017948 4.696028 0.233983
v 0.123012 4.754106 0.089373
v 0.152051 4.696028 0.178748
v 0.216986 4.696027 0.089374
v 0.293013 4.543974 -0.144609
v 0.275067 4.450000 -0.199846
v 0.228079 4.543975 -0.233984
v -0.046988 4.543975 -0.323359
v -0.105066 4.450000 -0.323359
v -0.152053 4.543975 -0.289221
v -0.322052 4.543974 -0.055236
v -0.340000 4.450000 0.000000
v -0.322052 4.543975 0.055236
v -0.152053 4.543975 0.289220
v -0.105066 4.449999 0.323359
v -0.046988 4.543975 0.323359
v 0.228079 4.543974 0.233985
v 0.275066 4.449999 0.199846
v 0.293013 4.543974 0.144610
v 0.105066 4.450000 -0.323359
v 0.152053 4.356025 -0.289220
v 0.046988 4.356025 -0.323359
v -0.275066 4.450000 -0.199846
v -0.228078 4.356025 -0.233985
v -0.293013 4.356025 -0.144610
v -0.275066 4.450000 0.199846
v -0.293013 4.356025 0.144610
v -0.228078 4.356025 0.233985
v 0.105066 4.450000 0.323359
v 0.046988 4.356025 0.323359
v 0.152053 4.356025 0.289220
v 0.340000 4.450000 0.000000
v 0.322052 4.356025 0.055236
v 0.322052 4.356025 -0.055236
v 0.123013 4.203972 -0.199845
v 0.046987 4.145894 -0.144609
v 0.017948 4.203972 -0.233983
v -0.152052 4.203972 -0.178747
v -0.123012 4.145894 -0.089373
v -0.216986 4.203973 -0.089373
v -0.216986 4.203973 0.089374
v -0.123012 4.145894 0.089374
v -0.152052 4.203972 0.178748
v 0.228078 4.203972 -0.055235
v 0.228078 4.203972 0.055236
v 0.152052 4.145894 0.000000
v 0.017949 4.203972 0.233983
v 0.046988 4.145894 0.144609
v 0.123014 4.203972 0.199845
v -0.065800 3.940000 0.065800
v -0.065800 3.944800 0.070000
v -0.070000 3.944800 0.065800
v -0.065800 3.941406 0.068770
v -0.068225 3.942029 0.068225
v -0.068770 3.944800 0.068770
v -0.068770 3.941406 0.065800
v -0.065800 4.095200 0.070000
v -0.065800 4.100000 0.065800
v -0.070000 4.095200 0.065800
v -0.065800 4.098594 0.068770
v -0.068225 4.097971 0.068225
v -0.068770 4.098594 0.065800
v -0.068770 4.095200 0.068770
v -0.065800 3.940000 -0.065800
v -0.070000 3.944800 -0.065800
v -0.065800 3.944800 -0.070000
v -0.068770 3.941406 -0.065800
v -0.068225 3.942029 -0.068225
v -0.068770 3.944800 -0.068770
v -0.065800 3.941406 -0.068770
v -0.065800 4.100000 -0.065800
v -0.065800 4.095200 -0.070000
v -0.070000 4.095200 -0.065800
v -0.065800 4.098594 -0.068770
v -0.068225 4.097971 -0.068225
v -0.068770 4.095200 -0.068770
v -0.068770 4.098594 -0.065800
v 0.065800 3.940000 0.065800
v 0.070000 3.944800 0.065800
v 0.065800 3.944800 0.070000
v 0.068770 3.941406 0.065800
v 0.068225 3.942029 0.068225
v 0.068770 3.944800 0.068770
v 0.065800 3.941406 0.068770
v 0.065800 4.100000 0.065800
v 0.065800 4.095200 0.070000
v 0.070000 4.095200 0.065800
v 0.065800 4.098594 0.068770
v 0.068225 4.097971 0.068225
v 0.068770 4.095200 0.068770
v 0.068770 4.098594 0.065800
v 0.065800 3.940000 -0.065800
v 0.065800 3.944800 -0.070000
v 0.070000 3.944800 -0.065800
v 0.065800 3.941406 -0.068770
v 0.068225 3.942029 -0.068225
v 0.068770 3.944800 -0.068770
v 0.068770 3.941406 -0.065800
v 0.065800 4.100000 -0.065800
v 0.070000 4.095200 -0.065800
v 0.065800 4.095200 -0.070000
v 0.068770 4.098594 -0.065800
v 0.068225 4.097971 -0.068225
v 0.068770 4.095200 -0.068770
v 0.065800 4.098594 -0.068770
vn 1.0000 0.0024 -0.0000
vn 0.8660 0.0024 -0.5000
vn 0.5000 0.0024 -0.8660
vn -0.0000 0.0024 -1.0000
vn -0.5000 0.0024 -0.8660
vn -0.8660 0.0024 -0.5000
vn -1.0000 0.0024 -0.0000
vn -0.8660 0.0024 0.5000
vn -0.5000 0.0024 0.8660
vn -0.0000 0.0024 1.0000
vn 0.5000 0.0024 0.8660
vn 0.8660 0.0024 0.5000
vn 0.2193 -0.9756 -0.0000
vn 0.1900 -0.9756 -0.1097
vn 0.3220 -0.9283 -0.1859
vn 0.3718 -0.9283 -0.0000
vn 0.9199 -0.3922 -0.0000
vn 0.7966 -0.3922 -0.4599
vn 0.8498 -0.1928 -0.4906
vn 0.9812 -0.1928 -0.0000
vn 0.1097 -0.9756 -0.1900
vn 0.1859 -0.9283 -0.3220
vn 0.4599 -0.3922 -0.7966
vn 0.4906 -0.1928 -0.8498
vn -0.0000 -0.9756 -0.2193
vn -0.0000 -0.9283 -0.3718
vn -0.0000 -0.3922 -0.9199
vn -0.0000 -0.1928 -0.9812
vn -0.1097 -0.9756 -0.1900
vn -0.1859 -0.9283 -0.3220
vn -0.4599 -0.3922 -0.7966
vn -0.4906 -0.1928 -0.8498
vn -0.1900 -0.9756 -0.1097
vn -0.3220 -0.9283 -0.1859
vn -0.7966 -0.3922 -0.4599
vn -0.8498 -0.1928 -0.4906
vn -0.2193 -0.9756 -0.0000
vn -0.3718 -0.9283 -0.0000
vn -0.9199 -0.3922 -0.0000
vn -0.9812 -0.1928 -0.0000
vn -0.1900 -0.9756 0.1097
vn -0.3220 -0.9283 0.1859
vn -0.7966 -0.3922 0.4599
vn -0.8498 -0.1928 0.4906
vn -0.1097 -0.9756 0.1900
vn -0.1859 -0.9283 0.3220
vn -0.4599 -0.3922 0.7966
vn -0.4906 -0.1928 0.8498
vn -0.0000 -0.9756 0.2193
vn -0.0000 -0.9283 0.3718
vn -0.0000 -0.3922 0.9199
vn -0.0000 -0.1928 0.9812
vn 0.1097 -0.9756 0.1900
vn 0.1859 -0.9283 0.3220
vn 0.4599 -0.3922 0.7966
vn 0.4906 -0.1928 0.8498
vn 0.1900 -0.9756 0.1097
vn 0.3220 -0.9283 0.1859
vn 0.7966 -0.3922 0.4599
vn 0.8498 -0.1928 0.4906
vn 0.9804 0.1971 -0.0000
vn 0.8490 0.1971 -0.4902
vn 0.7952 0.3960 -0.4591
vn 0.9182 0.3960 -0.0000
vn 0.3712 0.9285 -0.0000
vn 0.3215 0.9286 -0.1856
vn 0.1896 0.9757 -0.1095
vn 0.2190 0.9757 -0.0000
vn 0.4902 0.1971 -0.8490
vn 0.4591 0.3960 -0.7952
vn 0.1856 0.9286 -0.3215
vn 0.1095 0.9757 -0.1897
vn -0.0000 0.1971 -0.9804
vn -0.0000 0.3960 -0.9182
vn -0.0000 0.9286 -0.3712
vn -0.0000 0.9757 -0.2190
vn -0.4902 0.1971 -0.8490
vn -0.4591 0.3960 -0.7952
vn -0.1856 0.9286 -0.3215
vn -0.1095 0.9757 -0.1897
vn -0.8490 0.1971 -0.4902
vn -0.7952 0.3960 -0.4591
vn -0.3215 0.9286 -0.1856
vn -0.1896 0.9757 -0.1095
vn -0.9804 0.1971 -0.0000
vn -0.9182 0.3960 -0.0000
vn -0.3712 0.9285 -0.0000
vn -0.2190 0.9757 -0.0000
vn -0.8490 0.1971 0.4902
vn -0.7952 0.3960 0.4591
vn -0.3215 0.9286 0.1856
vn -0.1896 0.9757 0.1095
vn -0.4902 0.1971 0.8490
vn -0.4591 0.3960 0.7952
vn -0.1856 0.9286 0.3215
vn -0.1095 0.9757 0.1897
vn -0.0000 0.1971 0.9804
vn -0.0000 0.3960 0.9182
vn -0.0000 0.9286 0.3712
vn -0.0000 0.9757 0.2190
vn 0.4902 0.1971 0.8490
vn 0.4591 0.3960 0.7952
vn 0.1856 0.9286 0.3215
vn 0.1095 0.9757 0.1897
vn 0.8490 0.1971 0.4902
vn 0.7952 0.3960 0.4591
vn 0.3215 0.9286 0.1856
vn 0.1896 0.9757 0.1095
vn 0.9984 0.0559 -0.0000
vn 0.8996 0.0559 -0.4332
vn 0.9008 -0.0173 -0.4338
vn 0.9999 -0.0173 -0.0000
vn 0.6225 0.0559 -0.7806
vn 0.6234 -0.0173 -0.7817
vn 0.2222 0.0559 -0.9734
vn 0.2225 -0.0173 -0.9748
vn -0.2222 0.0559 -0.9734
vn -0.2225 -0.0173 -0.9748
vn -0.6225 0.0559 -0.7806
vn -0.6234 -0.0173 -0.7817
vn -0.8996 0.0559 -0.4332
vn -0.9008 -0.0173 -0.4338
vn -0.9984 0.0559 -0.0000
vn -0.9999 -0.0173 -0.0000
vn -0.8996 0.0559 0.4332
vn -0.9008 -0.0173 0.4338
vn -0.6225 0.0559 0.7806
vn -0.6234 -0.0173 0.7817
vn -0.2222 0.0559 0.9734
vn -0.2225 -0.0173 0.9748
vn 0.2222 0.0559 0.9734
vn 0.2225 -0.0173 0.9748
vn 0.6225 0.0559 0.7806
vn 0.6234 -0.0173 0.7817
vn 0.8996 0.0559 0.4332
vn 0.9008 -0.0173 0.4338
vn 0.9008 -0.0197 -0.4338
vn 0.9998 -0.0197 -0.0000
vn 0.6234 -0.0197 -0.7817
vn 0.2225 -0.0197 -0.9747
vn -0.2225 -0.0197 -0.9747
vn -0.6234 -0.0197 -0.7817
vn -0.9008 -0.0197 -0.4338
vn -0.9998 -0.0197 -0.0000
vn -0.9008 -0.0197 0.4338
vn -0.6234 -0.0197 0.7817
vn -0.2225 -0.0197 0.9747
vn 0.2225 -0.0197 0.9747
vn 0.6234 -0.0197 0.7817
vn 0.9008 -0.0197 0.4338
vn 0.8953 0.1121 -0.4312
vn 0.9937 0.1121 -0.0000
vn 0.6196 0.1121 -0.7769
vn 0.2211 0.1121 -0.9688
vn -0.2211 0.1121 -0.9688
vn -0.6196 0.1121 -0.7769
vn -0.8953 0.1121 -0.4312
vn -0.9937 0.1121 -0.0000
vn -0.8953 0.1121 0.4312
vn -0.6196 0.1121 0.7769
vn -0.2211 0.1121 0.9688
vn 0.2211 0.1121 0.9688
vn 0.6196 0.1121 0.7769
vn 0.8953 0.1121 0.4312
vn 0.8959 0.1058 -0.4314
vn 0.9944 0.1058 -0.0000
vn 0.6200 0.1058 -0.7774
vn 0.2213 0.1058 -0.9695
vn -0.2213 0.1058 -0.9695
vn -0.6200 0.1058 -0.7774
vn -0.8959 0.1058 -0.4314
vn -0.9944 0.1058 -0.0000
vn -0.8959 0.1058 0.4314
vn -0.6200 0.1058 0.7774
vn -0.2213 0.1058 0.9695
vn 0.2213 0.1058 0.9695
vn 0.6200 0.1058 0.7774
vn 0.8959 0.1058 0.4314
vn 0.9003 -0.0381 -0.4336
vn 0.9993 -0.0381 -0.0000
vn 0.6230 -0.0381 -0.7813
vn 0.2224 -0.0381 -0.9742
vn -0.2224 -0.0381 -0.9742
vn -0.6230 -0.0381 -0.7813
vn -0.9003 -0.0381 -0.4336
vn -0.9993 -0.0381 -0.0000
vn -0.9003 -0.0381 0.4336
vn -0.6230 -0.0381 0.7813
vn -0.2224 -0.0381 0.9742
vn 0.2224 -0.0381 0.9742
vn 0.6230 -0.0381 0.7813
vn 0.9003 -0.0381 0.4336
vn 0.9000 -0.0458 -0.4334
vn 0.9989 -0.0458 -0.0000
vn 0.6228 -0.0458 -0.7810
vn 0.2223 -0.0458 -0.9739
vn -0.2223 -0.0458 -0.9739
vn -0.6228 -0.0458 -0.7810
vn -0.9000 -0.0458 -0.4334
vn -0.9989 -0.0458 -0.0000
vn -0.9000 -0.0458 0.4334
vn -0.6228 -0.0458 0.7810
vn -0.2223 -0.0458 0.9739
vn 0.2223 -0.0458 0.9739
vn 0.6228 -0.0458 0.7810
vn 0.9000 -0.0458 0.4334
vn 0.8984 0.0751 -0.4327
vn 0.9972 0.0751 -0.0000
vn 0.6217 0.0751 -0.7796
vn 0.2219 0.0751 -0.9722
vn -0.2219 0.0751 -0.9722
vn -0.6217 0.0751 -0.7796
vn -0.8984 0.0751 -0.4327
vn -0.9972 0.0751 -0.0000
vn -0.8984 0.0751 0.4327
vn -0.6217 0.0751 0.7796
vn -0.2219 0.0751 0.9722
vn 0.2219 0.0751 0.9722
vn 0.6217 0.0751 0.7796
vn 0.8984 0.0751 0.4327
vn 0.8990 0.0661 -0.4329
vn 0.9978 0.0661 -0.0000
vn 0.6221 0.0661 -0.7801
vn 0.2220 0.0661 -0.9728
vn -0.2220 0.0661 -0.9728
vn -0.6221 0.0661 -0.7801
vn -0.8990 0.0661 -0.4329
vn -0.9978 0.0661 -0.0000
vn -0.8990 0.0661 0.4329
vn -0.6221 0.0661 0.7801
vn -0.2220 0.0661 0.9728
vn 0.2220 0.0661 0.9728
vn 0.6221 0.0661 0.7801
vn 0.8990 0.0661 0.4329
vn 0.9009 -0.0099 -0.4339
vn 1.0000 -0.0099 -0.0000
vn 0.6235 -0.0099 -0.7818
vn 0.2225 -0.0099 -0.9749
vn -0.2225 -0.0099 -0.9749
vn -0.6235 -0.0099 -0.7818
vn -0.9009 -0.0099 -0.4339
vn -1.0000 -0.0099 -0.0000
vn -0.9009 -0.0099 0.4339
vn -0.6235 -0.0099 0.7818
vn -0.2225 -0.0099 0.9749
vn 0.2225 -0.0099 0.9749
vn 0.6235 -0.0099 0.7818
vn 0.9009 -0.0099 0.4339
vn 0.8976 -0.0867 -0.4323
vn 0.9962 -0.0867 -0.0000
vn 0.6211 -0.0867 -0.7789
vn 0.2217 -0.0867 -0.9713
vn -0.2217 -0.0867 -0.9713
vn -0.6211 -0.0867 -0.7789
vn -0.8976 -0.0867 -0.4323
vn -0.9962 -0.0867 -0.0000
vn -0.8976 -0.0867 0.4323
vn -0.6211 -0.0867 0.7789
vn -0.2217 -0.0867 0.9713
vn 0.2217 -0.0867 0.9713
vn 0.6211 -0.0867 0.7789
vn 0.8976 -0.0867 0.4323
vn 0.8969 -0.0949 -0.4319
vn 0.9955 -0.0949 -0.0000
vn 0.6207 -0.0949 -0.7783
vn 0.2215 -0.0949 -0.9705
vn -0.2215 -0.0949 -0.9705
vn -0.6207 -0.0949 -0.7783
vn -0.8969 -0.0949 -0.4319
vn -0.9955 -0.0949 -0.0000
vn -0.8969 -0.0949 0.4319
vn -0.6207 -0.0949 0.7783
vn -0.2215 -0.0949 0.9705
vn 0.2215 -0.0949 0.9705
vn 0.6207 -0.0949 0.7783
vn 0.8969 -0.0949 0.4319
vn 0.9006 0.0301 -0.4337
vn 0.9995 0.0301 -0.0000
vn 0.6232 0.0301 -0.7815
vn 0.2224 0.0301 -0.9745
vn -0.2224 0.0301 -0.9745
vn -0.6232 0.0301 -0.7815
vn -0.9006 0.0301 -0.4337
vn -0.9995 0.0301 -0.0000
vn -0.9006 0.0301 0.4337
vn -0.6232 0.0301 0.7815
vn -0.2224 0.0301 0.9745
vn 0.2224 0.0301 0.9745
vn 0.6232 0.0301 0.7815
vn 0.9006 0.0301 0.4337
vn 0.9007 0.0246 -0.4338
vn 0.9997 0.0246 -0.0000
vn 0.6233 0.0246 -0.7816
vn 0.2225 0.0246 -0.9746
vn -0.2225 0.0246 -0.9746
vn -0.6233 0.0246 -0.7816
vn -0.9007 0.0246 -0.4338
vn -0.9997 0.0246 -0.0000
vn -0.9007 0.0246 0.4338
vn -0.6233 0.0246 0.7816
vn -0.2225 0.0246 0.9746
vn 0.2225 0.0246 0.9746
vn 0.6233 0.0246 0.7816
vn 0.9007 0.0246 0.4338
vn 0.8943 -0.1212 -0.4307
vn 0.9926 -0.1212 -0.0000
vn 0.6189 -0.1212 -0.7761
vn 0.2209 -0.1212 -0.9677
vn -0.2209 -0.1212 -0.9677
vn -0.6189 -0.1212 -0.7761
vn -0.8943 -0.1212 -0.4307
vn -0.9926 -0.1212 -0.0000
vn -0.8943 -0.1212 0.4307
vn -0.6189 -0.1212 0.7761
vn -0.2209 -0.1212 0.9677
vn 0.2209 -0.1212 0.9677
vn 0.6189 -0.1212 0.7761
vn 0.8943 -0.1212 0.4307
vn 0.8940 -0.1246 -0.4305
vn 0.9922 -0.1246 -0.0000
vn 0.6186 -0.1246 -0.7757
vn 0.2208 -0.1246 -0.9673
vn -0.2208 -0.1246 -0.9673
vn -0.6186 -0.1246 -0.7757
vn -0.8940 -0.1246 -0.4305
vn -0.9922 -0.1246 -0.0000
vn -0.8940 -0.1246 0.4305
vn -0.6186 -0.1246 0.7757
vn -0.2208 -0.1246 0.9673
vn 0.2208 -0.1246 0.9673
vn 0.6186 -0.1246 0.7757
vn 0.8940 -0.1246 0.4305
vn 0.9009 0.0160 -0.4338
vn 0.9999 0.0160 -0.0000
vn 0.6234 0.0160 -0.7817
vn 0.2225 0.0160 -0.9748
vn -0.2225 0.0160 -0.9748
vn -0.6234 0.0160 -0.7817
vn -0.9009 0.0160 -0.4338
vn -0.9999 0.0160 -0.0000
vn -0.9009 0.0160 0.4338
vn -0.6234 0.0160 0.7817
vn -0.2225 0.0160 0.9748
vn 0.2225 0.0160 0.9748
vn 0.6234 0.0160 0.7817
vn 0.9009 0.0160 0.4338
vn 0.2209 -0.9753 -0.0000
vn 0.1990 -0.9753 -0.0958
vn 0.3437 -0.9244 -0.1655
vn 0.3815 -0.9244 -0.0000
vn 0.9383 -0.3459 -0.0000
vn 0.8454 -0.3459 -0.4071
vn 0.8916 -0.1436 -0.4294
vn 0.9896 -0.1436 -0.0000
vn 0.1377 -0.9753 -0.1727
vn 0.2378 -0.9244 -0.2982
vn 0.5850 -0.3459 -0.7336
vn 0.6170 -0.1436 -0.7737
vn 0.0491 -0.9753 -0.2153
vn 0.0849 -0.9244 -0.3719
vn 0.2088 -0.3459 -0.9148
vn 0.2202 -0.1436 -0.9648
vn -0.0491 -0.9753 -0.2153
vn -0.0849 -0.9244 -0.3719
vn -0.2088 -0.3459 -0.9148
vn -0.2202 -0.1436 -0.9648
vn -0.1377 -0.9753 -0.1727
vn -0.2378 -0.9244 -0.2982
vn -0.5850 -0.3459 -0.7336
vn -0.6170 -0.1436 -0.7737
vn -0.1990 -0.9753 -0.0958
vn -0.3437 -0.9244 -0.1655
vn -0.8454 -0.3459 -0.4071
vn -0.8916 -0.1436 -0.4294
vn -0.2209 -0.9753 -0.0000
vn -0.3815 -0.9244 -0.0000
vn -0.9383 -0.3459 -0.0000
vn -0.9896 -0.1436 -0.0000
vn -0.1990 -0.9753 0.0958
vn -0.3437 -0.9244 0.1655
vn -0.8454 -0.3459 0.4071
vn -0.8916 -0.1436 0.4294
vn -0.1377 -0.9753 0.1727
vn -0.2378 -0.9244 0.2982
vn -0.5850 -0.3459 0.7336
vn -0.6170 -0.1436 0.7737
vn -0.0491 -0.9753 0.2153
vn -0.0849 -0.9244 0.3719
vn -0.2088 -0.3459 0.9148
vn -0.2202 -0.1436 0.9648
vn 0.0491 -0.9753 0.2153
vn 0.0849 -0.9244 0.3719
vn 0.2088 -0.3459 0.9148
vn 0.2202 -0.1436 0.9648
vn 0.1377 -0.9753 0.1727
vn 0.2378 -0.9244 0.2982
vn 0.5850 -0.3459 0.7336
vn 0.6170 -0.1436 0.7737
vn 0.1990 -0.9753 0.0958
vn 0.3437 -0.9244 0.1655
vn 0.8454 -0.3459 0.4071
vn 0.8916 -0.1436 0.4294
vn 0.9620 0.2732 -0.0000
vn 0.8667 0.2732 -0.4174
vn 0.8002 0.4596 -0.3854
vn 0.8882 0.4596 -0.0000
vn 0.3618 0.9323 -0.0000
vn 0.3259 0.9323 -0.1570
vn 0.1885 0.9779 -0.0908
vn 0.2092 0.9779 -0.0000
vn 0.5998 0.2732 -0.7521
vn 0.5538 0.4596 -0.6944
vn 0.2256 0.9323 -0.2828
vn 0.1304 0.9779 -0.1635
vn 0.2141 0.2732 -0.9378
vn 0.1976 0.4596 -0.8659
vn 0.0805 0.9323 -0.3527
vn 0.0465 0.9779 -0.2039
vn -0.2141 0.2732 -0.9378
vn -0.1976 0.4596 -0.8659
vn -0.0805 0.9323 -0.3527
vn -0.0465 0.9779 -0.2039
vn -0.5998 0.2732 -0.7521
vn -0.5538 0.4596 -0.6944
vn -0.2256 0.9323 -0.2828
vn -0.1304 0.9779 -0.1635
vn -0.8667 0.2732 -0.4174
vn -0.8002 0.4596 -0.3854
vn -0.3259 0.9323 -0.1570
vn -0.1885 0.9779 -0.0908
vn -0.9620 0.2732 -0.0000
vn -0.8882 0.4596 -0.0000
vn -0.3618 0.9323 -0.0000
vn -0.2092 0.9779 -0.0000
vn -0.8667 0.2732 0.4174
vn -0.8002 0.4596 0.3854
vn -0.3259 0.9323 0.1570
vn -0.1885 0.9779 0.0908
vn -0.5998 0.2732 0.7521
vn -0.5538 0.4596 0.6944
vn -0.2256 0.9323 0.2828
vn -0.1304 0.9779 0.1635
vn -0.2141 0.2732 0.9378
vn -0.1976 0.4596 0.8659
vn -0.0805 0.9323 0.3527
vn -0.0465 0.9779 0.2039
vn 0.2141 0.2732 0.9378
vn 0.1976 0.4596 0.8659
vn 0.0805 0.9323 0.3527
vn 0.0465 0.9779 0.2039
vn 0.5998 0.2732 0.7521
vn 0.5538 0.4596 0.6944
vn 0.2256 0.9323 0.2828
vn 0.1304 0.9779 0.1635
vn 0.8667 0.2732 0.4174
vn 0.8002 0.4596 0.3854
vn 0.3259 0.9323 0.1570
vn 0.1885 0.9779 0.0908
vn -0.0000 -1.0000 -0.0000
vn 0.2110 -0.9654 0.1533
vn -0.0806 -0.9654 0.2480
vn 0.7236 -0.4472 0.5257
vn 0.6042 -0.6650 0.4390
vn 0.8152 -0.5038 0.2857
vn -0.2608 -0.9654 -0.0000
vn -0.0806 -0.9654 -0.2480
vn 0.2110 -0.9654 -0.1533
vn 0.8650 -0.2431 0.4390
vn -0.2764 -0.4472 0.8506
vn -0.0198 -0.5038 0.8636
vn -0.1502 -0.2431 0.9583
vn -0.8944 -0.4472 -0.0000
vn -0.8274 -0.5038 0.2480
vn -0.9578 -0.2431 0.1533
vn -0.2764 -0.4472 -0.8506
vn -0.4915 -0.5038 -0.7103
vn -0.4417 -0.2431 -0.8636
vn 0.7236 -0.4472 -0.5257
vn 0.5237 -0.5038 -0.6870
vn 0.6848 -0.2431 -0.6870
vn 0.6848 -0.2431 0.6870
vn -0.4417 -0.2431 0.8636
vn -0.9578 -0.2431 -0.1533
vn -0.1502 -0.2431 -0.9583
vn 0.8650 -0.2431 -0.4390
vn 0.2764 0.4472 0.8506
vn 0.4915 0.5038 0.7103
vn 0.2308 0.6650 0.7103
vn -0.7236 0.4472 0.5257
vn -0.5237 0.5038 0.6870
vn -0.6042 0.6650 0.4390
vn -0.7236 0.4472 -0.5257
vn -0.8152 0.5038 -0.2857
vn -0.6042 0.6650 -0.4390
vn 0.2764 0.4472 -0.8506
vn 0.0198 0.5038 -0.8636
vn 0.2308 0.6650 -0.7103
vn 0.8944 0.4472 -0.0000
vn 0.8274 0.5038 -0.2480
vn 0.7469 0.6650 -0.0000
vn 0.2608 0.9654 -0.0000
vn 0.0806 0.9654 -0.2480
vn -0.0000 1.0000 -0.0000
vn 0.5257 0.8507 -0.0000
vn 0.3682 0.8904 -0.2675
vn 0.6317 0.7275 -0.2675
vn 0.1625 0.8507 -0.5000
vn 0.4496 0.7276 -0.5182
vn 0.6882 0.5257 -0.5000
vn 0.4915 0.5038 -0.7103
vn -0.2110 0.9654 -0.1533
vn -0.1406 0.8904 -0.4329
vn -0.0592 0.7276 -0.6835
vn -0.4253 0.8507 -0.3090
vn -0.3539 0.7276 -0.5878
vn -0.2629 0.5257 -0.8090
vn -0.5237 0.5038 -0.6870
vn -0.2110 0.9654 0.1533
vn -0.4551 0.8904 -0.0000
vn -0.6683 0.7276 -0.1549
vn -0.4253 0.8507 0.3090
vn -0.6683 0.7276 0.1549
vn -0.8506 0.5257 -0.0000
vn -0.8152 0.5038 0.2857
vn 0.0806 0.9654 0.2480
vn -0.1406 0.8904 0.4329
vn -0.3539 0.7276 0.5878
vn 0.1625 0.8507 0.5000
vn -0.0592 0.7276 0.6835
vn -0.2629 0.5257 0.8090
vn 0.0198 0.5038 0.8636
vn 0.3682 0.8904 0.2675
vn 0.4496 0.7276 0.5182
vn 0.6317 0.7275 0.2675
vn 0.6882 0.5257 0.5000
vn 0.8274 0.5038 0.2480
vn 0.9578 0.2431 -0.1533
vn 0.9511 -0.0000 -0.3090
vn 0.8593 0.2724 -0.4329
vn 0.8090 0.0089 -0.5878
vn 0.6772 0.2724 -0.6835
vn 0.5878 -0.0000 -0.8090
vn 0.4417 0.2431 -0.8636
vn 0.1502 0.2431 -0.9583
vn -0.0000 -0.0000 -1.0000
vn -0.1461 0.2724 -0.9510
vn -0.3090 0.0089 -0.9510
vn -0.4408 0.2724 -0.8553
vn -0.5878 -0.0000 -0.8090
vn -0.6848 0.2431 -0.6870
vn -0.8650 0.2431 -0.4390
vn -0.9511 -0.0000 -0.3090
vn -0.9496 0.2724 -0.1549
vn -1.0000 0.0089 -0.0000
vn -0.9496 0.2724 0.1549
vn -0.9511 -0.0000 0.3090
vn -0.8650 0.2431 0.4390
vn -0.6848 0.2431 0.6870
vn -0.5878 -0.0000 0.8090
vn -0.4408 0.2724 0.8553
vn -0.3090 0.0089 0.9510
vn -0.1461 0.2724 0.9510
vn -0.0000 -0.0000 1.0000
vn 0.1502 0.2431 0.9583
vn 0.4417 0.2431 0.8636
vn 0.5878 -0.0000 0.8090
vn 0.6772 0.2724 0.6835
vn 0.8090 0.0089 0.5878
vn 0.8593 0.2724 0.4329
vn 0.9511 -0.0000 0.3090
vn 0.9578 0.2431 0.1533
vn 0.3090 -0.0089 -0.9510
vn 0.4408 -0.2724 -0.8553
vn 0.1461 -0.2724 -0.9510
vn 0.2629 -0.5257 -0.8090
vn -0.0198 -0.5038 -0.8636
vn -0.8090 -0.0089 -0.5878
vn -0.6772 -0.2724 -0.6835
vn -0.8593 -0.2724 -0.4329
vn -0.6882 -0.5257 -0.5000
vn -0.8274 -0.5038 -0.2480
vn -0.8090 -0.0089 0.5878
vn -0.8593 -0.2724 0.4329
vn -0.6772 -0.2724 0.6835
vn -0.6882 -0.5257 0.5000
vn -0.4915 -0.5038 0.7103
vn 0.3090 -0.0089 0.9510
vn 0.1461 -0.2724 0.9510
vn 0.4408 -0.2724 0.8553
vn 0.2629 -0.5257 0.8090
vn 0.5237 -0.5038 0.6870
vn 1.0000 -0.0089 -0.0000
vn 0.9496 -0.2724 0.1549
vn 0.9496 -0.2724 -0.1549
vn 0.8506 -0.5257 -0.0000
vn 0.8152 -0.5038 -0.2857
vn 0.6042 -0.6650 -0.4390
vn 0.4253 -0.8507 -0.3090
vn 0.3539 -0.7276 -0.5878
vn 0.1406 -0.8904 -0.4329
vn 0.0592 -0.7276 -0.6835
vn -0.1625 -0.8507 -0.5000
vn -0.2308 -0.6650 -0.7103
vn -0.4496 -0.7276 -0.5182
vn -0.3682 -0.8904 -0.2675
vn -0.6317 -0.7275 -0.2675
vn -0.5257 -0.8507 -0.0000
vn -0.7469 -0.6650 -0.0000
vn -0.6317 -0.7275 0.2675
vn -0.3682 -0.8904 0.2675
vn -0.4496 -0.7275 0.5182
vn -0.1625 -0.8507 0.5000
vn -0.2308 -0.6650 0.7103
vn 0.6683 -0.7275 -0.1549
vn 0.6683 -0.7275 0.1549
vn 0.4551 -0.8904 -0.0000
vn 0.4253 -0.8507 0.3090
vn 0.0592 -0.7276 0.6835
vn 0.1406 -0.8904 0.4329
vn 0.3539 -0.7276 0.5878
vn -0.2004 -0.9590 0.2004
vn -0.1778 -0.8983 0.4018
vn -0.3600 -0.8607 0.3600
vn -0.4018 -0.8983 0.1779
vn -0.1801 -0.1592 0.9707
vn -0.3607 -0.1407 0.9220
vn -0.3292 -0.2880 0.8993
vn -0.1582 -0.3203 0.9340
vn -0.9707 -0.1592 0.1801
vn -0.9340 -0.3203 0.1582
vn -0.8993 -0.2880 0.3292
vn -0.9220 -0.1407 0.3607
vn -0.1801 0.1592 0.9707
vn -0.1582 0.3203 0.9340
vn -0.3292 0.2880 0.8993
vn -0.3607 0.1407 0.9220
vn -0.2004 0.9590 0.2004
vn -0.4018 0.8983 0.1778
vn -0.3600 0.8607 0.3600
vn -0.1778 0.8983 0.4018
vn -0.9707 0.1592 0.1801
vn -0.9220 0.1407 0.3607
vn -0.8993 0.2880 0.3292
vn -0.9340 0.3203 0.1582
vn -0.2004 -0.9590 -0.2004
vn -0.4018 -0.8983 -0.1779
vn -0.3600 -0.8607 -0.3600
vn -0.1778 -0.8983 -0.4018
vn -0.9707 -0.1592 -0.1801
vn -0.9220 -0.1407 -0.3607
vn -0.8993 -0.2880 -0.3292
vn -0.9340 -0.3203 -0.1582
vn -0.1801 -0.1592 -0.9707
vn -0.1582 -0.3203 -0.9340
vn -0.3292 -0.2880 -0.8993
vn -0.3607 -0.1407 -0.9220
vn -0.2004 0.9590 -0.2004
vn -0.1778 0.8983 -0.4018
vn -0.3600 0.8607 -0.3600
vn -0.4018 0.8983 -0.1778
vn -0.1801 0.1592 -0.9707
vn -0.3607 0.1407 -0.9220
vn -0.3292 0.2880 -0.8993
vn -0.1582 0.3203 -0.9340
vn -0.9707 0.1592 -0.1801
vn -0.9340 0.3203 -0.1582
vn -0.8993 0.2880 -0.3292
vn -0.9220 0.1407 -0.3607
vn 0.2004 -0.9590 0.2004
vn 0.4018 -0.8983 0.1779
vn 0.3600 -0.8607 0.3600
vn 0.1778 -0.8983 0.4018
vn 0.9707 -0.1592 0.1801
vn 0.9220 -0.1407 0.3607
vn 0.8993 -0.2880 0.3292
vn 0.9340 -0.3203 0.1582
vn 0.1801 -0.1592 0.9707
vn 0.1582 -0.3203 0.9340
vn 0.3292 -0.2880 0.8993
vn 0.3607 -0.1407 0.9220
vn 0.2004 0.9590 0.2004
vn 0.1778 0.8983 0.4018
vn 0.3600 0.8607 0.3600
vn 0.4018 0.8983 0.1778
vn 0.1801 0.1592 0.9707
vn 0.3607 0.1407 0.9220
vn 0.3292 0.2880 0.8993
vn 0.1582 0.3203 0.9340
vn 0.9707 0.1592 0.1801
vn 0.9340 0.3203 0.1582
vn 0.8993 0.2880 0.3292
vn 0.9220 0.1407 0.3607
vn 0.2004 -0.9590 -0.2004
vn 0.1778 -0.8983 -0.4018
vn 0.3600 -0.8607 -0.3600
vn 0.4018 -0.8983 -0.1779
vn 0.1801 -0.1592 -0.9707
vn 0.3607 -0.1407 -0.9220
vn 0.3292 -0.2880 -0.8993
vn 0.1582 -0.3203 -0.9340
vn 0.9707 -0.1592 -0.1801
vn 0.9340 -0.3203 -0.1582
vn 0.8993 -0.2880 -0.3292
vn 0.9220 -0.1407 -0.3607
vn 0.2004 0.9590 -0.2004
vn 0.4018 0.8983 -0.1778
vn 0.3600 0.8607 -0.3600
vn 0.1778 0.8983 -0.4018
vn 0.9707 0.1592 -0.1801
vn 0.9220 0.1407 -0.3607
vn 0.8993 0.2880 -0.3292
vn 0.9340 0.3203 -0.1582
vn 0.1801 0.1592 -0.9707
vn 0.1582 0.3203 -0.9340
vn 0.3292 0.2880 -0.8993
vn 0.3607 0.1407 -0.9220
s 1
f 1//1 2//2 14//2 13//1
f 2//2 3//3 15//3 14//2
f 3//3 4//4 16//4 15//3
f 4//4 5//5 17//5 16//4
f 5//5 6//6 18//6 17//5
f 6//6 7//7 19//7 18//6
f 7//7 8//8 20//8 19//7
f 8//8 9//9 21//9 20//8
f 9//9 10//10 22//10 21//9
f 10//10 11//11 23//11 22//10
f 11//11 12//12 24//12 23//11
f 12//12 1//1 13//1 24//12
f 13//1 14//2 26//2 25//1
f 14//2 15//3 27//3 26//2
f 15//3 16//4 28//4 27//3
f 16//4 17//5 29//5 28//4
f 17//5 18//6 30//6 29//5
f 18//6 19//7 31//7 30//6
f 19//7 20//8 32//8 31//7
f 20//8 21//9 33//9 32//8
f 21//9 22//10 34//10 33//9
f 22//10 23//11 35//11 34//10
f 23//11 24//12 36//12 35//11
f 24//12 13//1 25//1 36//12
f 25//1 26//2 38//2 37//1
f 26//2 27//3 39//3 38//2
f 27//3 28//4 40//4 39//3
f 28//4 29//5 41//5 40//4
f 29//5 30//6 42//6 41//5
f 30//6 31//7 43//7 42//6
f 31//7 32//8 44//8 43//7
f 32//8 33//9 45//9 44//8
f 33//9 34//10 46//10 45//9
f 34//10 35//11 47//11 46//10
f 35//11 36//12 48//12 47//11
f 36//12 25//1 37//1 48//12
f 37//1 38//2 50//2 49//1
f 38//2 39//3 51//3 50//2
f 39//3 40//4 52//4 51//3
f 40//4 41//5 53//5 52//4
f 41//5 42//6 54//6 53//5
f 42//6 43//7 55//7 54//6
f 43//7 44//8 56//8 55//7
f 44//8 45//9 57//9 56//8
f 45//9 46//10 58//10 57//9
f 46//10 47//11 59//11 58//10
f 47//11 48//12 60//12 59//11
f 48//12 37//1 49//1 60//12
f 49//1 50//2 62//2 61//1
f 50//2 51//3 63//3 62//2
f 51//3 52//4 64//4 63//3
f 52//4 53//5 65//5 64//4
f 53//5 54//6 66//6 65//5
f 54//6 55//7 67//7 66//6
f 55//7 56//8 68//8 67//7
f 56//8 57//9 69//9 68//8
f 57//9 58//10 70//10 69//9
f 58//10 59//11 71//11 70//10
f 59//11 60//12 72//12 71//11
f 60//12 49//1 61//1 72//12
f 61//1 62//2 74//2 73//1
f 62//2 63//3 75//3 74//2
f 63//3 64//4 76//4 75//3
f 64//4 65//5 77//5 76//4
f 65//5 66//6 78//6 77//5
f 66//6 67//7 79//7 78//6
f 67//7 68//8 80//8 79//7
f 68//8 69//9 81//9 80//8
f 69//9 70//10 82//10 81//9
f 70//10 71//11 83//11 82//10
f 71//11 72//12 84//12 83//11
f 72//12 61//1 73//1 84//12
f 73//1 74//2 86//2 85//1
f 74//2 75//3 87//3 86//2
f 75//3 76//4 88//4 87//3
f 76//4 77//5 89//5 88//4
f 77//5 78//6 90//6 89//5
f 78//6 79//7 91//7 90//6
f 79//7 80//8 92//8 91//7
f 80//8 81//9 93//9 92//8
f 81//9 82//10 94//10 93//9
f 82//10 83//11 95//11 94//10
f 83//11 84//12 96//12 95//11
f 84//12 73//1 85//1 96//12
f 85//1 86//2 98//2 97//1
f 86//2 87//3 99//3 98//2
f 87//3 88//4 100//4 99//3
f 88//4 89//5 101//5 100//4
f 89//5 90//6 102//6 101//5
f 90//6 91//7 103//7 102//6
f 91//7 92//8 104//8 103//7
f 92//8 93//9 105//9 104//8
f 93//9 94//10 106//10 105//9
f 94//10 95//11 107//11 106//10
f 95//11 96//12 108//12 107//11
f 96//12 85//1 97//1 108//12
f 109//13 112//14 114//15 111//16
f 111//17 114//18 113//19 110//20
f 112//14 115//21 117//22 114//15
f 114//18 117//23 116//24 113//19
f 115//21 118//25 120//26 117//22
f 117//23 120//27 119//28 116//24
f 118//25 121//29 123//30 120//26
f 120//27 123//31 122//32 119//28
f 121//29 124//33 126//34 123//30
f 123//31 126//35 125//36 122//32
f 124//33 127//37 129//38 126//34
f 126//35 129//39 128//40 125//36
f 127//37 130//41 132//42 129//38
f 129//39 132//43 131//44 128//40
f 130//41 133//45 135//46 132//42
f 132//43 135//47 134//48 131//44
f 133//45 136//49 138//50 135//46
f 135//47 138//51 137//52 134//48
f 136//49 139//53 141//54 138//50
f 138//51 141//55 140//56 137//52
f 139//53 142//57 144//58 141//54
f 141//55 144//59 143//60 140//56
f 110//20 143//60 144//59 111//17
f 111//16 144//58 142//57 109//13
f 146//61 149//62 150//63 147//64
f 147//65 150//66 148//67 145//68
f 149//62 152//69 153//70 150//63
f 150//66 153//71 151//72 148//67
f 152//69 155//73 156//74 153//70
f 153//71 156//75 154//76 151//72
f 155//73 158//77 159//78 156//74
f 156//75 159//79 157//80 154//76
f 158//77 161//81 162//82 159//78
f 159//79 162//83 160//84 157//80
f 161//81 164//85 165//86 162//82
f 162//83 165//87 163//88 160//84
f 164//85 167//89 168//90 165//86
f 165//87 168//91 166//92 163//88
f 167//89 170//93 171//94 168//90
f 168//91 171//95 169//96 166//92
f 170//93 173//97 174//98 171//94
f 171//95 174//99 172//100 169//96
f 173//97 176//101 177//102 174//98
f 174//99 177//103 175//104 172//100
f 176//101 179//105 180//106 177//102
f 177//103 180//107 178//108 175//104
f 145//68 178//108 180//107 147//65
f 147//64 180//106 179//105 146//61
f 143//60 110//20 1//1 12//12
f 110//20 113//19 2//2 1//1
f 142//57 139//53 136//49 133//45 130//41 127//37 124//33 121//29 118//25 115//21 112//14 109//13
f 113//19 116//24 3//3 2//2
f 116//24 119//28 4//4 3//3
f 119//28 122//32 5//5 4//4
f 122//32 125//36 6//6 5//5
f 125//36 128//40 7//7 6//6
f 128//40 131//44 8//8 7//7
f 131//44 134//48 9//9 8//8
f 134//48 137//52 10//10 9//9
f 137//52 140//56 11//11 10//10
f 140//56 143//60 12//12 11//11
f 108//12 97//1 146//61 179//105
f 97//1 98//2 149//62 146//61
f 145//68 148//67 151//72 154//76 157//80 160//84 163//88 166//92 169//96 172//100 175//104 178//108
f 98//2 99//3 152//69 149//62
f 99//3 100//4 155//73 152//69
f 100//4 101//5 158//77 155//73
f 101//5 102//6 161//81 158//77
f 102//6 103//7 164//85 161//81
f 103//7 104//8 167//89 164//85
f 104//8 105//9 170//93 167//89
f 105//9 106//10 173//97 170//93
f 106//10 107//11 176//101 173//97
f 107//11 108//12 179//105 176//101
f 181//109 182//110 196//111 195//112
f 182//110 183//113 197//114 196//111
f 183//113 184//115 198//116 197//114
f 184//115 185//117 199//118 198//116
f 185//117 186//119 200//120 199//118
f 186//119 187//121 201//122 200//120
f 187//121 188//123 202//124 201//122
f 188//123 189//125 203//126 202//124
f 189//125 190//127 204//128 203//126
f 190//127 191//129 205//130 204//128
f 191//129 192//131 206//132 205//130
f 192//131 193//133 207//134 206//132
f 193//133 194//135 208//136 207//134
f 194//135 181//109 195//112 208//136
f 195//112 196//111 210//137 209//138
f 196//111 197//114 211//139 210//137
f 197//114 198//116 212//140 211//139
f 198//116 199//118 213//141 212//140
f 199//118 200//120 214//142 213//141
f 200//120 201//122 215//143 214//142
f 201//122 202//124 216//144 215//143
f 202//124 203//126 217//145 216//144
f 203//126 204//128 218//146 217//145
f 204//128 205//130 219//147 218//146
f 205//130 206//132 220//148 219//147
f 206//132 207//134 221//149 220//148
f 207//134 208//136 222//150 221//149
f 208//136 195//112 209//138 222//150
f 209//138 210//137 224//151 223//152
f 210//137 211//139 225//153 224//151
f 211//139 212//140 226//154 225//153
f 212//140 213//141 227//155 226//154
f 213//141 214//142 228//156 227//155
f 214//142 215//143 229//157 228//156
f 215//143 216//144 230//158 229//157
f 216//144 217//145 231//159 230//158
f 217//145 218//146 232//160 231//159
f 218//146 219//147 233//161 232//160
f 219//147 220//148 234//162 233//161
f 220//148 221//149 235//163 234//162
f 221//149 222//150 236//164 235//163
f 222//150 209//138 223//152 236//164
f 223//152 224//151 238//165 237//166
f 224//151 225//153 239//167 238//165
f 225//153 226//154 240//168 239//167
f 226//154 227//155 241//169 240//168
f 227//155 228//156 242//170 241//169
f 228//156 229//157 243//171 242//170
f 229//157 230//158 244//172 243//171
f 230//158 231//159 245//173 244//172
f 231//159 232//160 246//174 245//173
f 232//160 233//161 247//175 246//174
f 233//161 234//162 248//176 247//175
f 234//162 235//163 249//177 248//176
f 235//163 236//164 250//178 249//177
f 236//164 223//152 237//166 250//178
f 237//166 238//165 252//179 251//180
f 238//165 239//167 253//181 252//179
f 239//167 240//168 254//182 253//181
f 240//168 241//169 255//183 254//182
f 241//169 242//170 256//184 255//183
f 242//170 243//171 257//185 256//184
f 243//171 244//172 258//186 257//185
f 244//172 245//173 259//187 258//186
f 245//173 246//174 260//188 259//187
f 246//174 247//175 261//189 260//188
f 247//175 248//176 262//190 261//189
f 248//176 249//177 263//191 262//190
f 249//177 250//178 264//192 263//191
f 250//178 237//166 251//180 264//192
f 251//180 252//179 266//193 265//194
f 252//179 253//181 267//195 266//193
f 253//181 254//182 268//196 267//195
f 254//182 255//183 269//197 268//196
f 255//183 256//184 270//198 269//197
f 256//184 257//185 271//199 270//198
f 257//185 258//186 272//200 271//199
f 258//186 259//187 273//201 272//200
f 259//187 260//188 274//202 273//201
f 260//188 261//189 275//203 274//202
f 261//189 262//190 276//204 275//203
f 262//190 263//191 277//205 276//204
f 263//191 264//192 278//206 277//205
f 264//192 251//180 265//194 278//206
f 265//194 266//193 280//207 279//208
f 266//193 267//195 281//209 280//207
f 267//195 268//196 282//210 281//209
f 268//196 269//197 283//211 282//210
f 269//197 270//198 284//212 283//211
f 270//198 271//199 285//213 284//212
f 271//199 272//200 286//214 285//213
f 272//200 273//201 287//215 286//214
f 273//201 274//202 288//216 287//215
f 274//202 275//203 289//217 288//216
f 275//203 276//204 290//218 289//217
f 276//204 277//205 291//219 290//218
f 277//205 278//206 292//220 291//219
f 278//206 265//194 279//208 292//220
f 279//208 280//207 294//221 293//222
f 280//207 281//209 295//223 294//221
f 281//209 282//210 296//224 295//223
f 282//210 283//211 297//225 296//224
f 283//211 284//212 298//226 297//225
f 284//212 285//213 299//227 298//226
f 285//213 286//214 300//228 299//227
f 286//214 287//215 301//229 300//228
f 287//215 288//216 302//230 301//229
f 288//216 289//217 303//231 302//230
f 289//217 290//218 304//232 303//231
f 290//218 291//219 305//233 304//232
f 291//219 292//220 306//234 305//233
f 292//220 279//208 293//222 306//234
f 293//222 294//221 308//235 307//236
f 294//221 295//223 309//237 308//235
f 295//223 296//224 310//238 309//237
f 296//224 297//225 311//239 310//238
f 297//225 298//226 312//240 311//239
f 298//226 299//227 313//241 312//240
f 299//227 300//228 314//242 313//241
f 300//228 301//229 315//243 314//242
f 301//229 302//230 316//244 315//243
f 302//230 303//231 317//245 316//244
f 303//231 304//232 318//246 317//245
f 304//232 305//233 319//247 318//246
f 305//233 306//234 320//248 319//247
f 306//234 293//222 307//236 320//248
f 307//236 308//235 322//249 321//250
f 308//235 309//237 323//251 322//249
f 309//237 310//238 324//252 323//251
f 310//238 311//239 325//253 324//252
f 311//239 312//240 326//254 325//253
f 312//240 313//241 327//255 326//254
f 313//241 314//242 328//256 327//255
f 314//242 315//243 329//257 328//256
f 315//243 316//244 330//258 329//257
f 316//244 317//245 331//259 330//258
f 317//245 318//246 332//260 331//259
f 318//246 319//247 333//261 332//260
f 319//247 320//248 334//262 333//261
f 320//248 307//236 321//250 334//262
f 321//250 322//249 336//263 335//264
f 322//249 323//251 337//265 336//263
f 323//251 324//252 338//266 337//265
f 324//252 325//253 339//267 338//266
f 325//253 326//254 340//268 339//267
f 326//254 327//255 341//269 340//268
f 327//255 328//256 342//270 341//269
f 328//256 329//257 343//271 342//270
f 329//257 330//258 344//272 343//271
f 330//258 331//259 345//273 344//272
f 331//259 332//260 346//274 345//273
f 332//260 333//261 347//275 346//274
f 333//261 334//262 348//276 347//275
f 334//262 321//250 335//264 348//276
f 335//264 336//263 350//277 349//278
f 336//263 337//265 351//279 350//277
f 337//265 338//266 352//280 351//279
f 338//266 339//267 353//281 352//280
f 339//267 340//268 354//282 353//281
f 340//268 341//269 355//283 354//282
f 341//269 342//270 356//284 355//283
f 342//270 343//271 357//285 356//284
f 343//271 344//272 358//286 357//285
f 344//272 345//273 359//287 358//286
f 345//273 346//274 360//288 359//287
f 346//274 347//275 361//289 360//288
f 347//275 348//276 362//290 361//289
f 348//276 335//264 349//278 362//290
f 349//278 350//277 364//291 363//292
f 350//277 351//279 365//293 364//291
f 351//279 352//280 366//294 365//293
f 352//280 353//281 367//295 366//294
f 353//281 354//282 368//296 367//295
f 354//282 355//283 369//297 368//296
f 355//283 356//284 370//298 369//297
f 356//284 357//285 371//299 370//298
f 357//285 358//286 372//300 371//299
f 358//286 359//287 373//301 372//300
f 359//287 360//288 374//302 373//301
f 360//288 361//289 375//303 374//302
f 361//289 362//290 376//304 375//303
f 362//290 349//278 363//292 376//304
f 363//292 364//291 378//305 377//306
f 364//291 365//293 379//307 378//305
f 365//293 366//294 380//308 379//307
f 366//294 367//295 381//309 380//308
f 367//295 368//296 382//310 381//309
f 368//296 369//297 383//311 382//310
f 369//297 370//298 384//312 383//311
f 370//298 371//299 385//313 384//312
f 371//299 372//300 386//314 385//313
f 372//300 373//301 387//315 386//314
f 373//301 374//302 388//316 387//315
f 374//302 375//303 389//317 388//316
f 375//303 376//304 390//318 389//317
f 376//304 363//292 377//306 390//318
f 377//306 378//305 392//319 391//320
f 378//305 379//307 393//321 392//319
f 379//307 380//308 394//322 393//321
f 380//308 381//309 395//323 394//322
f 381//309 382//310 396//324 395//323
f 382//310 383//311 397//325 396//324
f 383//311 384//312 398//326 397//325
f 384//312 385//313 399//327 398//326
f 385//313 386//314 400//328 399//327
f 386//314 387//315 401//329 400//328
f 387//315 388//316 402//330 401//329
f 388//316 389//317 403//331 402//330
f 389//317 390//318 404//332 403//331
f 390//318 377//306 391//320 404//332
f 391//320 392//319 406//333 405//334
f 392//319 393//321 407//335 406//333
f 393//321 394//322 408//336 407//335
f 394//322 395//323 409//337 408//336
f 395//323 396//324 410//338 409//337
f 396//324 397//325 411//339 410//338
f 397//325 398//326 412//340 411//339
f 398//326 399//327 413//341 412//340
f 399//327 400//328 414//342 413//341
f 400//328 401//329 415//343 414//342
f 401//329 402//330 416//344 415//343
f 402//330 403//331 417//345 416//344
f 403//331 404//332 418//346 417//345
f 404//332 391//320 405//334 418//346
f 419//347 422//348 424//349 421//350
f 421//351 424//352 423//353 420//354
f 422//348 425//355 427//356 424//349
f 424//352 427//357 426//358 423//353
f 425//355 428//359 430//360 427//356
f 427//357 430//361 429//362 426//358
f 428//359 431//363 433//364 430//360
f 430//361 433//365 432//366 429//362
f 431//363 434//367 436//368 433//364
f 433//365 436//369 435//370 432//366
f 434//367 437//371 439//372 436//368
f 436//369 439//373 438//374 435//370
f 437//371 440//375 442//376 439//372
f 439//373 442//377 441//378 438//374
f 440//375 443//379 445//380 442//376
f 442//377 445//381 444//382 441//378
f 443//379 446//383 448//384 445//380
f 445//381 448//385 447//386 444//382
f 446//383 449//387 451//388 448//384
f 448//385 451//389 450//390 447//386
f 449//387 452//391 454//392 451//388
f 451//389 454//393 453//394 450//390
f 452//391 455//395 457//396 454//392
f 454//393 457//397 456//398 453//394
f 455//395 458//399 460//400 457//396
f 457//397 460//401 459//402 456//398
f 420//354 459//402 460//401 421//351
f 421//350 460//400 458//399 419//347
f 462//403 465//404 466//405 463//406
f 463//407 466//408 464//409 461//410
f 465//404 468//411 469//412 466//405
f 466//408 469//413 467//414 464//409
f 468//411 471//415 472//416 469//412
f 469//413 472//417 470//418 467//414
f 471//415 474//419 475//420 472//416
f 472//417 475//421 473//422 470//418
f 474//419 477//423 478//424 475//420
f 475//421 478//425 476//426 473//422
f 477//423 480//427 481//428 478//424
f 478//425 481//429 479//430 476//426
f 480//427 483//431 484//432 481//428
f 481//429 484//433 482//434 479//430
f 483//431 486//435 487//436 484//432
f 484//433 487//437 485//438 482//434
f 486//435 489//439 490//440 487//436
f 487//437 490//441 488//442 485//438
f 489//439 492//443 493//444 490//440
f 490//441 493//445 491//446 488//442
f 492//443 495//447 496//448 493//444
f 493//445 496//449 494//450 491//446
f 495//447 498//451 499//452 496//448
f 496//449 499//453 497//454 494//450
f 498//451 501//455 502//456 499//452
f 499//453 502//457 500//458 497//454
f 461//410 500//458 502//457 463//407
f 463//406 502//456 501//455 462//403
f 459//402 420//354 181//109 194//135
f 420//354 423//353 182//110 181//109
f 458//399 455//395 452//391 449//387 446//383 443//379 440//375 437//371 434//367 431//363 428//359 425//355 422//348 419//347
f 423//353 426//358 183//113 182//110
f 426//358 429//362 184//115 183//113
f 429//362 432//366 185//117 184//115
f 432//366 435//370 186//119 185//117
f 435//370 438//374 187//121 186//119
f 438//374 441//378 188//123 187//121
f 441//378 444//382 189//125 188//123
f 444//382 447//386 190//127 189//125
f 447//386 450//390 191//129 190//127
f 450//390 453//394 192//131 191//129
f 453//394 456//398 193//133 192//131
f 456//398 459//402 194//135 193//133
f 418//346 405//334 462//403 501//455
f 405//334 406//333 465//404 462//403
f 461//410 464//409 467//414 470//418 473//422 476//426 479//430 482//434 485//438 488//442 491//446 494//450 497//454 500//458
f 406//333 407//335 468//411 465//404
f 407//335 408//336 471//415 468//411
f 408//336 409//337 474//419 471//415
f 409//337 410//338 477//423 474//419
f 410//338 411//339 480//427 477//423
f 411//339 412//340 483//431 480//427
f 412//340 413//341 486//435 483//431
f 413//341 414//342 489//439 486//435
f 414//342 415//343 492//443 489//439
f 415//343 416//344 495//447 492//443
f 416//344 417//345 498//451 495//447
f 417//345 418//346 501//455 498//451
f 503//459 518//460 517//461
f 504//462 520//463 526//464
f 503//459 517//461 532//465
f 503//459 532//465 538//466
f 503//459 538//466 527//467
f 504//462 526//464 547//468
f 505//469 523//470 553//471
f 506//472 535//473 559//474
f 507//475 541//476 565//477
f 508//478 544//479 571//480
f 504//462 547//468 554//481
f 505//469 553//471 560//482
f 506//472 559//474 566//483
f 507//475 565//477 572//484
f 508//478 571//480 548//485
f 509//486 577//487 592//488
f 510//489 580//490 598//491
f 511//492 583//493 601//494
f 512//495 586//496 604//497
f 513//498 589//499 593//500
f 595//501 602//502 514//503
f 594//504 605//505 595//501
f 593//500 606//506 594//504
f 595//501 605//505 602//502
f 605//505 603//507 602//502
f 594//504 606//506 605//505
f 606//506 607//508 605//505
f 605//505 607//508 603//507
f 607//508 604//497 603//507
f 593//500 589//499 606//506
f 589//499 588//509 606//506
f 606//506 588//509 607//508
f 588//509 587//510 607//508
f 607//508 587//510 604//497
f 587//510 512//495 604//497
f 602//502 599//511 514//503
f 603//507 608//512 602//502
f 604//497 609//513 603//507
f 602//502 608//512 599//511
f 608//512 600//514 599//511
f 603//507 609//513 608//512
f 609//513 610//515 608//512
f 608//512 610//515 600//514
f 610//515 601//494 600//514
f 604//497 586//496 609//513
f 586//496 585//516 609//513
f 609//513 585//516 610//515
f 585//516 584//517 610//515
f 610//515 584//517 601//494
f 584//517 511//492 601//494
f 599//511 596//518 514//503
f 600//514 611//519 599//511
f 601//494 612//520 600//514
f 599//511 611//519 596//518
f 611//519 597//521 596//518
f 600//514 612//520 611//519
f 612//520 613//522 611//519
f 611//519 613//522 597//521
f 613//522 598//491 597//521
f 601//494 583//493 612//520
f 583//493 582//523 612//520
f 612//520 582//523 613//522
f 582//523 581//524 613//522
f 613//522 581//524 598//491
f 581//524 510//489 598//491
f 596//518 590//525 514//503
f 597//521 614//526 596//518
f 598//491 615//527 597//521
f 596//518 614//526 590//525
f 614//526 591//528 590//525
f 597//521 615//527 614//526
f 615//527 616//529 614//526
f 614//526 616//529 591//528
f 616//529 592//488 591//528
f 598//491 580//490 615//527
f 580//490 579//530 615//527
f 615//527 579//530 616//529
f 579//530 578//531 616//529
f 616//529 578//531 592//488
f 578//531 509//486 592//488
f 590//525 595//501 514//503
f 591//528 617//532 590//525
f 592//488 618//533 591//528
f 590//525 617//532 595//501
f 617//532 594//504 595//501
f 591//528 618//533 617//532
f 618//533 619//534 617//532
f 617//532 619//534 594//504
f 619//534 593//500 594//504
f 592//488 577//487 618//533
f 577//487 576//535 618//533
f 618//533 576//535 619//534
f 576//535 575//536 619//534
f 619//534 575//536 593//500
f 575//536 513//498 593//500
f 550//537 589//499 513//498
f 549//538 620//539 550//537
f 548//485 621//540 549//538
f 550//537 620//539 589//499
f 620//539 588//509 589//499
f 549//538 621//540 620//539
f 621//540 622//541 620//539
f 620//539 622//541 588//509
f 622//541 587//510 588//509
f 548//485 571//480 621//540
f 571//480 570//542 621//540
f 621//540 570//542 622//541
f 570//542 569//543 622//541
f 622//541 569//543 587//510
f 569//543 512//495 587//510
f 574//544 586//496 512//495
f 573//545 623//546 574//544
f 572//484 624//547 573//545
f 574//544 623//546 586//496
f 623//546 585//516 586//496
f 573//545 624//547 623//546
f 624//547 625//548 623//546
f 623//546 625//548 585//516
f 625//548 584//517 585//516
f 572//484 565//477 624//547
f 565//477 564//549 624//547
f 624//547 564//549 625//548
f 564//549 563//550 625//548
f 625//548 563//550 584//517
f 563//550 511//492 584//517
f 568//551 583//493 511//492
f 567//552 626//553 568//551
f 566//483 627//554 567//552
f 568//551 626//553 583//493
f 626//553 582//523 583//493
f 567//552 627//554 626//553
f 627//554 628//555 626//553
f 626//553 628//555 582//523
f 628//555 581//524 582//523
f 566//483 559//474 627//554
f 559//474 558//556 627//554
f 627//554 558//556 628//555
f 558//556 557//557 628//555
f 628//555 557//557 581//524
f 557//557 510//489 581//524
f 562//558 580//490 510//489
f 561//559 629//560 562//558
f 560//482 630//561 561//559
f 562//558 629//560 580//490
f 629//560 579//530 580//490
f 561//559 630//561 629//560
f 630//561 631//562 629//560
f 629//560 631//562 579//530
f 631//562 578//531 579//530
f 560//482 553//471 630//561
f 553//471 552//563 630//561
f 630//561 552//563 631//562
f 552//563 551//564 631//562
f 631//562 551//564 578//531
f 551//564 509//486 578//531
f 556//565 577//487 509//486
f 555//566 632//567 556//565
f 554//481 633//568 555//566
f 556//565 632//567 577//487
f 632//567 576//535 577//487
f 555//566 633//568 632//567
f 633//568 634//569 632//567
f 632//567 634//569 576//535
f 634//569 575//536 576//535
f 554//481 547//468 633//568
f 547//468 546//570 633//568
f 633//568 546//570 634//569
f 546//570 545//571 634//569
f 634//569 545//571 575//536
f 545//571 513//498 575//536
f 569//543 574//544 512//495
f 570//542 635//572 569//543
f 571//480 636//573 570//542
f 569//543 635//572 574//544
f 635//572 573//545 574//544
f 570//542 636//573 635//572
f 636//573 637//574 635//572
f 635//572 637//574 573//545
f 637//574 572//484 573//545
f 571//480 544//479 636//573
f 544//479 543//575 636//573
f 636//573 543//575 637//574
f 543//575 542//576 637//574
f 637//574 542//576 572//484
f 542//576 507//475 572//484
f 563//550 568//551 511//492
f 564//549 638//577 563//550
f 565//477 639//578 564//549
f 563//550 638//577 568//551
f 638//577 567//552 568//551
f 564//549 639//578 638//577
f 639//578 640//579 638//577
f 638//577 640//579 567//552
f 640//579 566//483 567//552
f 565//477 541//476 639//578
f 541//476 540//580 639//578
f 639//578 540//580 640//579
f 540//580 539//581 640//579
f 640//579 539//581 566//483
f 539//581 506//472 566//483
f 557//557 562//558 510//489
f 558//556 641//582 557//557
f 559//474 642//583 558//556
f 557//557 641//582 562//558
f 641//582 561//559 562//558
f 558//556 642//583 641//582
f 642//583 643//584 641//582
f 641//582 643//584 561//559
f 643//584 560//482 561//559
f 559//474 535//473 642//583
f 535//473 534//585 642//583
f 642//583 534//585 643//584
f 534//585 533//586 643//584
f 643//584 533//586 560//482
f 533//586 505//469 560//482
f 551//564 556//565 509//486
f 552//563 644//587 551//564
f 553//471 645//588 552//563
f 551//564 644//587 556//565
f 644//587 555//566 556//565
f 552//563 645//588 644//587
f 645//588 646//589 644//587
f 644//587 646//589 555//566
f 646//589 554//481 555//566
f 553//471 523//470 645//588
f 523//470 522//590 645//588
f 645//588 522//590 646//589
f 522//590 521//591 646//589
f 646//589 521//591 554//481
f 521//591 504//462 554//481
f 545//571 550//537 513//498
f 546//570 647//592 545//571
f 547//468 648//593 546//570
f 545//571 647//592 550//537
f 647//592 549//538 550//537
f 546//570 648//593 647//592
f 648//593 649//594 647//592
f 647//592 649//594 549//538
f 649//594 548//485 549//538
f 547//468 526//464 648//593
f 526//464 525//595 648//593
f 648//593 525//595 649//594
f 525//595 524//596 649//594
f 649//594 524//596 548//485
f 524//596 508//478 548//485
f 529//597 544//479 508//478
f 528//598 650//599 529//597
f 527//467 651//600 528//598
f 529//597 650//599 544//479
f 650//599 543//575 544//479
f 528//598 651//600 650//599
f 651//600 652//601 650//599
f 650//599 652//601 543//575
f 652//601 542//576 543//575
f 527//467 538//466 651//600
f 538//466 537//602 651//600
f 651//600 537//602 652//601
f 537//602 536//603 652//601
f 652//601 536//603 542//576
f 536//603 507//475 542//576
f 536//603 541//476 507//475
f 537//602 653//604 536//603
f 538//466 654//605 537//602
f 536//603 653//604 541//476
f 653//604 540//580 541//476
f 537//602 654//605 653//604
f 654//605 655//606 653//604
f 653//604 655//606 540//580
f 655//606 539//581 540//580
f 538//466 532//465 654//605
f 532//465 531//607 654//605
f 654//605 531//607 655//606
f 531//607 530//608 655//606
f 655//606 530//608 539//581
f 530//608 506//472 539//581
f 530//608 535//473 506//472
f 531//607 656//609 530//608
f 532//465 657//610 531//607
f 530//608 656//609 535//473
f 656//609 534//585 535//473
f 531//607 657//610 656//609
f 657//610 658//611 656//609
f 656//609 658//611 534//585
f 658//611 533//586 534//585
f 532//465 517//461 657//610
f 517//461 516//612 657//610
f 657//610 516//612 658//611
f 516//612 515//613 658//611
f 658//611 515//613 533//586
f 515//613 505//469 533//586
f 524//596 529//597 508//478
f 525//595 659//614 524//596
f 526//464 660//615 525//595
f 524//596 659//614 529//597
f 659//614 528//598 529//597
f 525//595 660//615 659//614
f 660//615 661//616 659//614
f 659//614 661//616 528//598
f 661//616 527//467 528//598
f 526//464 520//463 660//615
f 520//463 519//617 660//615
f 660//615 519//617 661//616
f 519//617 518//460 661//616
f 661//616 518//460 527//467
f 518//460 503//459 527//467
f 515//613 523//470 505//469
f 516//612 662//618 515//613
f 517//461 663//619 516//612
f 515//613 662//618 523//470
f 662//618 522//590 523//470
f 516//612 663//619 662//618
f 663//619 664//620 662//618
f 662//618 664//620 522//590
f 664//620 521//591 522//590
f 517//461 518//460 663//619
f 518//460 519//617 663//619
f 663//619 519//617 664//620
f 519//617 520//463 664//620
f 664//620 520//463 521//591
f 520//463 504//462 521//591
f 665//621 668//622 669//623 671//624
f 666//625 670//626 669//627 668//628
f 667//629 671//630 669//631 670//632
f 672//633 675//634 676//635 678//636
f 673//637 677//638 676//639 675//640
f 674//641 678//642 676//643 677//644
f 679//645 682//646 683//647 685//648
f 680//649 684//650 683//651 682//652
f 681//653 685//654 683//655 684//656
f 686//657 689//658 690//659 692//660
f 687//661 691//662 690//663 689//664
f 688//665 692//666 690//667 691//668
f 693//669 696//670 697//671 699//672
f 694//673 698//674 697//675 696//676
f 695//677 699//678 697//679 698//680
f 700//681 703//682 704//683 706//684
f 701//685 705//686 704//687 703//688
f 702//689 706//690 704//691 705//692
f 707//693 710//694 711//695 713//696
f 708//697 712//698 711//699 710//700
f 709//701 713//702 711//703 712//704
f 714//705 717//706 718//707 720//708
f 715//709 719//710 718//711 717//712
f 716//713 720//714 718//715 719//716
f 679//645 665//621 671//624 682//646
f 682//652 671//630 667//629 680//649
f 666//625 672//633 678//636 670//626
f 670//632 678//642 674//641 667//629
f 673//637 686//657 692//660 677//638
f 677//644 692//666 688//665 674//641
f 687//661 681//653 684//656 691//662
f 691//668 684//650 680//649 688//665
f 707//693 679//645 685//648 710//694
f 710//700 685//654 681//653 708//697
f 686//657 714//705 720//708 689//658
f 689//664 720//714 716//713 687//661
f 715//709 709//701 712//704 719//710
f 719//716 712//698 708//697 716//713
f 693//669 707//693 713//696 696//670
f 696//676 713//702 709//701 694//673
f 714//705 700//681 706//684 717//706
f 717//712 706//690 702//689 715//709
f 701//685 695//677 698//680 705//686
f 705//692 698//674 694//673 702//689
f 665//621 693//669 699//672 668//622
f 668//628 699//678 695//677 666//625
f 700//681 673//637 675//640 703//682
f 703//688 675//634 672//633 701//685
f 679//645 707//693 693//669 665//621
f 667//629 674//641 688//665 680//649
f 695//677 701//685 672//633 666//625
f 714//705 686//657 673//637 700//681
f 681//653 687//661 716//713 708//697
f 709//701 715//709 702//689 694//673
