# Blender 5.2.0 LTS
# www.blender.org
o Sword
v 0.127065 -0.444444 0.000000
v 0.114482 -0.444444 -0.055132
v 0.079224 -0.444444 -0.099344
v 0.028275 -0.444444 -0.123880
v -0.028275 -0.444444 -0.123880
v -0.079224 -0.444444 -0.099344
v -0.114482 -0.444444 -0.055132
v -0.127065 -0.444444 -0.000000
v -0.114482 -0.444444 0.055132
v -0.079224 -0.444444 0.099344
v -0.028275 -0.444444 0.123880
v 0.028275 -0.444444 0.123880
v 0.079224 -0.444444 0.099344
v 0.114482 -0.444444 0.055132
v 0.124220 -0.388889 0.000000
v 0.111918 -0.388889 -0.053897
v 0.077450 -0.388889 -0.097119
v 0.027642 -0.388889 -0.121105
v -0.027642 -0.388889 -0.121105
v -0.077450 -0.388889 -0.097119
v -0.111918 -0.388889 -0.053897
v -0.124220 -0.388889 -0.000000
v -0.111918 -0.388889 0.053897
v -0.077450 -0.388889 0.097119
v -0.027642 -0.388889 0.121105
v 0.027642 -0.388889 0.121105
v 0.077450 -0.388889 0.097119
v 0.111918 -0.388889 0.053897
v 0.128843 -0.333333 0.000000
v 0.116084 -0.333333 -0.055903
v 0.080332 -0.333333 -0.100734
v 0.028670 -0.333333 -0.125613
v -0.028670 -0.333333 -0.125613
v -0.080332 -0.333333 -0.100734
v -0.116084 -0.333333 -0.055903
v -0.128843 -0.333333 -0.000000
v -0.116084 -0.333333 0.055903
v -0.080332 -0.333333 0.100734
v -0.028670 -0.333333 0.125613
v 0.028670 -0.333333 0.125613
v 0.080332 -0.333333 0.100734
v 0.116084 -0.333333 0.055903
v 0.126285 -0.277778 0.000000
v 0.113779 -0.277778 -0.054793
v 0.078737 -0.277778 -0.098734
v 0.028101 -0.277778 -0.123119
v -0.028101 -0.277778 -0.123119
v -0.078737 -0.277778 -0.098734
v -0.113779 -0.277778 -0.054793
v -0.126285 -0.277778 -0.000000
v -0.113779 -0.277778 0.054793
v -0.078737 -0.277778 0.098734
v -0.028101 -0.277778 0.123119
v 0.028101 -0.277778 0.123119
v 0.078737 -0.277778 0.098734
v 0.113779 -0.277778 0.054793
v 0.117054 -0.222222 0.000000
v 0.105462 -0.222222 -0.050788
v 0.072982 -0.222222 -0.091516
v 0.026047 -0.222222 -0.114119
v -0.026047 -0.222222 -0.114119
v -0.072982 -0.222222 -0.091516
v -0.105462 -0.222222 -0.050788
v -0.117054 -0.222222 -0.000000
v -0.105462 -0.222222 0.050788
v -0.072982 -0.222222 0.091516
v -0.026047 -0.222222 0.114119
v 0.026047 -0.222222 0.114119
v 0.072982 -0.222222 0.091516
v 0.105462 -0.222222 0.050788
v 0.115364 -0.166667 0.000000
v 0.103940 -0.166667 -0.050055
v 0.071928 -0.166667 -0.090195
v 0.025671 -0.166667 -0.112472
v -0.025671 -0.166667 -0.112472
v -0.071928 -0.166667 -0.090195
v -0.103940 -0.166667 -0.050055
v -0.115364 -0.166667 -0.000000
v -0.103940 -0.166667 0.050055
v -0.071928 -0.166667 0.090195
v -0.025671 -0.166667 0.112472
v 0.025671 -0.166667 0.112472
v 0.071928 -0.166667 0.090195
v 0.103940 -0.166667 0.050055
v 0.120966 -0.111111 0.000000
v 0.108987 -0.111111 -0.052485
v 0.075421 -0.111111 -0.094575
v 0.026918 -0.111111 -0.117933
v -0.026918 -0.111111 -0.117933
v -0.075421 -0.111111 -0.094575
v -0.108987 -0.111111 -0.052485
v -0.120966 -0.111111 -0.000000
v -0.108987 -0.111111 0.052485
v -0.075421 -0.111111 0.094575
v -0.026918 -0.111111 0.117933
v 0.026918 -0.111111 0.117933
v 0.075421 -0.111111 0.094575
v 0.108987 -0.111111 0.052485
v 0.120158 -0.055556 0.000000
v 0.108259 -0.055556 -0.052135
v 0.074917 -0.055556 -0.093943
v 0.026738 -0.055556 -0.117146
v -0.026738 -0.055556 -0.117146
v -0.074917 -0.055556 -0.093943
v -0.108259 -0.055556 -0.052135
v -0.120158 -0.055556 -0.000000
v -0.108259 -0.055556 0.052135
v -0.074917 -0.055556 0.093943
v -0.026738 -0.055556 0.117146
v 0.026738 -0.055556 0.117146
v 0.074917 -0.055556 0.093943
v 0.108259 -0.055556 0.052135
v 0.113100 0.000000 0.000000
v 0.101900 0.000000 -0.049072
v 0.070517 0.000000 -0.088425
v 0.025167 0.000000 -0.110264
v -0.025167 0.000000 -0.110264
v -0.070517 0.000000 -0.088425
v -0.101900 0.000000 -0.049072
v -0.113100 0.000000 -0.000000
v -0.101900 0.000000 0.049072
v -0.070517 0.000000 0.088425
v -0.025167 0.000000 0.110264
v 0.025167 0.000000 0.110264
v 0.070517 0.000000 0.088425
v 0.101900 0.000000 0.049072
v 0.113357 0.055556 0.000000
v 0.102131 0.055556 -0.049184
v 0.070677 0.055556 -0.088626
v 0.025224 0.055556 -0.110515
v -0.025224 0.055556 -0.110515
v -0.070677 0.055556 -0.088626
v -0.102131 0.055556 -0.049184
v -0.113357 0.055556 -0.000000
v -0.102131 0.055556 0.049184
v -0.070677 0.055556 0.088626
v -0.025224 0.055556 0.110515
v 0.025224 0.055556 0.110515
v 0.070677 0.055556 0.088626
v 0.102131 0.055556 0.049184
v 0.114119 0.111111 0.000000
v 0.102818 0.111111 -0.049514
v 0.071152 0.111111 -0.089222
v 0.025394 0.111111 -0.111258
v -0.025394 0.111111 -0.111258
v -0.071152 0.111111 -0.089222
v -0.102818 0.111111 -0.049514
v -0.114119 0.111111 -0.000000
v -0.102818 0.111111 0.049514
v -0.071152 0.111111 0.089222
v -0.025394 0.111111 0.111258
v 0.025394 0.111111 0.111258
v 0.071152 0.111111 0.089222
v 0.102818 0.111111 0.049514
v 0.122286 0.166667 0.000000
v 0.110176 0.166667 -0.053058
v 0.076244 0.166667 -0.095607
v 0.027211 0.166667 -0.119220
v -0.027211 0.166667 -0.119220
v -0.076244 0.166667 -0.095607
v -0.110176 0.166667 -0.053058
v -0.122286 0.166667 -0.000000
v -0.110176 0.166667 0.053058
v -0.076244 0.166667 0.095607
v -0.027211 0.166667 0.119220
v 0.027211 0.166667 0.119220
v 0.076244 0.166667 0.095607
v 0.110176 0.166667 0.053058
v 0.124077 0.222222 0.000000
v 0.111790 0.222222 -0.053835
v 0.077361 0.222222 -0.097007
v 0.027610 0.222222 -0.120966
v -0.027610 0.222222 -0.120966
v -0.077361 0.222222 -0.097007
v -0.111790 0.222222 -0.053835
v -0.124077 0.222222 -0.000000
v -0.111790 0.222222 0.053835
v -0.077361 0.222222 0.097007
v -0.027610 0.222222 0.120966
v 0.027610 0.222222 0.120966
v 0.077361 0.222222 0.097007
v 0.111790 0.222222 0.053835
v 0.119137 0.277778 0.000000
v 0.107339 0.277778 -0.051692
v 0.074281 0.277778 -0.093145
v 0.026510 0.277778 -0.116150
v -0.026510 0.277778 -0.116150
v -0.074281 0.277778 -0.093145
v -0.107339 0.277778 -0.051692
v -0.119137 0.277778 -0.000000
v -0.107339 0.277778 0.051692
v -0.074281 0.277778 0.093145
v -0.026510 0.277778 0.116150
v 0.026510 0.277778 0.116150
v 0.074281 0.277778 0.093145
v 0.107339 0.277778 0.051692
v 0.121550 0.333333 0.000000
v 0.109513 0.333333 -0.052739
v 0.075785 0.333333 -0.095032
v 0.027047 0.333333 -0.118502
v -0.027047 0.333333 -0.118502
v -0.075785 0.333333 -0.095032
v -0.109513 0.333333 -0.052739
v -0.121550 0.333333 -0.000000
v -0.109513 0.333333 0.052739
v -0.075785 0.333333 0.095032
v -0.027047 0.333333 0.118502
v 0.027047 0.333333 0.118502
v 0.075785 0.333333 0.095032
v 0.109513 0.333333 0.052739
v 0.131673 0.388889 0.000000
v 0.118633 0.388889 -0.057131
v 0.082097 0.388889 -0.102946
v 0.029300 0.388889 -0.128372
v -0.029300 0.388889 -0.128372
v -0.082097 0.388889 -0.102946
v -0.118633 0.388889 -0.057131
v -0.131673 0.388889 -0.000000
v -0.118633 0.388889 0.057131
v -0.082097 0.388889 0.102946
v -0.029300 0.388889 0.128372
v 0.029300 0.388889 0.128372
v 0.082097 0.388889 0.102946
v 0.118633 0.388889 0.057131
v 0.134689 0.444444 0.000000
v 0.121351 0.444444 -0.058439
v 0.083977 0.444444 -0.105304
v 0.029971 0.444444 -0.131312
v -0.029971 0.444444 -0.131312
v -0.083977 0.444444 -0.105304
v -0.121351 0.444444 -0.058439
v -0.134689 0.444444 -0.000000
v -0.121351 0.444444 0.058439
v -0.083977 0.444444 0.105304
v -0.029971 0.444444 0.131312
v 0.029971 0.444444 0.131312
v 0.083977 0.444444 0.105304
v 0.121351 0.444444 0.058439
v 0.123846 -0.500000 0.000000
v 0.129683 -0.494008 0.000000
v 0.128105 -0.498245 0.000000
v 0.111581 -0.500000 -0.053735
v 0.116841 -0.494008 -0.056268
v 0.115418 -0.498245 -0.055583
v 0.077217 -0.500000 -0.096826
v 0.080856 -0.494008 -0.101391
v 0.079872 -0.498245 -0.100156
v 0.027558 -0.500000 -0.120741
v 0.028857 -0.494008 -0.126432
v 0.028506 -0.498245 -0.124893
v -0.027558 -0.500000 -0.120741
v -0.028857 -0.494008 -0.126432
v -0.028506 -0.498245 -0.124893
v -0.077217 -0.500000 -0.096826
v -0.080856 -0.494008 -0.101391
v -0.079872 -0.498245 -0.100156
v -0.111581 -0.500000 -0.053735
v -0.116841 -0.494008 -0.056268
v -0.115418 -0.498245 -0.055583
v -0.123846 -0.500000 -0.000000
v -0.129683 -0.494008 -0.000000
v -0.128105 -0.498245 -0.000000
v -0.111581 -0.500000 0.053735
v -0.116841 -0.494008 0.056268
v -0.115418 -0.498245 0.055583
v -0.077217 -0.500000 0.096826
v -0.080856 -0.494008 0.101391
v -0.079872 -0.498245 0.100156
v -0.027558 -0.500000 0.120741
v -0.028857 -0.494008 0.126432
v -0.028506 -0.498245 0.124893
v 0.027558 -0.500000 0.120741
v 0.028857 -0.494008 0.126432
v 0.028506 -0.498245 0.124893
v 0.077217 -0.500000 0.096826
v 0.080856 -0.494008 0.101391
v 0.079872 -0.498245 0.100156
v 0.111581 -0.500000 0.053735
v 0.116841 -0.494008 0.056268
v 0.115418 -0.498245 0.055583
v 0.123846 0.500000 -0.000000
v 0.130505 0.494020 0.000000
v 0.128345 0.498249 -0.000000
v 0.111581 0.500000 -0.053735
v 0.117581 0.494020 -0.056624
v 0.115635 0.498249 -0.055687
v 0.077217 0.500000 -0.096826
v 0.081368 0.494020 -0.102033
v 0.080022 0.498249 -0.100344
v 0.027558 0.500000 -0.120741
v 0.029040 0.494020 -0.127233
v 0.028560 0.498249 -0.125127
v -0.027558 0.500000 -0.120741
v -0.029040 0.494020 -0.127233
v -0.028560 0.498249 -0.125127
v -0.077217 0.500000 -0.096826
v -0.081368 0.494020 -0.102033
v -0.080022 0.498249 -0.100344
v -0.111581 0.500000 -0.053735
v -0.117581 0.494020 -0.056624
v -0.115635 0.498249 -0.055687
v -0.123846 0.500000 0.000000
v -0.130505 0.494020 -0.000000
v -0.128345 0.498249 0.000000
v -0.111581 0.500000 0.053735
v -0.117581 0.494020 0.056624
v -0.115635 0.498249 0.055687
v -0.077217 0.500000 0.096826
v -0.081368 0.494020 0.102033
v -0.080022 0.498249 0.100344
v -0.027558 0.500000 0.120741
v -0.029040 0.494020 0.127233
v -0.028560 0.498249 0.125127
v 0.027558 0.500000 0.120741
v 0.029040 0.494020 0.127233
v 0.028560 0.498249 0.125127
v 0.077217 0.500000 0.096826
v 0.081368 0.494020 0.102033
v 0.080022 0.498249 0.100344
v 0.111581 0.500000 0.053735
v 0.117581 0.494020 0.056624
v 0.115635 0.498249 0.055687
v 0.020000 -0.750000 0.000000
v 0.018019 -0.750000 -0.008678
v 0.012470 -0.750000 -0.015637
v 0.004450 -0.750000 -0.019499
v -0.004450 -0.750000 -0.019499
v -0.012470 -0.750000 -0.015637
v -0.018019 -0.750000 -0.008678
v -0.020000 -0.750000 -0.000000
v -0.018019 -0.750000 0.008678
v -0.012470 -0.750000 0.015637
v -0.004450 -0.750000 0.019499
v 0.004450 -0.750000 0.019499
v 0.012470 -0.750000 0.015637
v 0.018019 -0.750000 0.008678
v 0.099596 -0.712000 0.000000
v 0.089733 -0.712000 -0.043213
v 0.062097 -0.712000 -0.077868
v 0.022162 -0.712000 -0.097099
v -0.022162 -0.712000 -0.097099
v -0.062097 -0.712000 -0.077868
v -0.089733 -0.712000 -0.043213
v -0.099596 -0.712000 -0.000000
v -0.089733 -0.712000 0.043213
v -0.062097 -0.712000 0.077868
v -0.022162 -0.712000 0.097099
v 0.022162 -0.712000 0.097099
v 0.062097 -0.712000 0.077868
v 0.089733 -0.712000 0.043213
v 0.141848 -0.674000 0.000000
v 0.127801 -0.674000 -0.061546
v 0.088441 -0.674000 -0.110901
v 0.031564 -0.674000 -0.138292
v -0.031564 -0.674000 -0.138292
v -0.088441 -0.674000 -0.110901
v -0.127801 -0.674000 -0.061546
v -0.141848 -0.674000 -0.000000
v -0.127801 -0.674000 0.061546
v -0.088441 -0.674000 0.110901
v -0.031564 -0.674000 0.138292
v 0.031564 -0.674000 0.138292
v 0.088441 -0.674000 0.110901
v 0.127801 -0.674000 0.061546
v 0.169095 -0.636000 0.000000
v 0.152349 -0.636000 -0.073367
v 0.105429 -0.636000 -0.132204
v 0.037627 -0.636000 -0.164855
v -0.037627 -0.636000 -0.164855
v -0.105429 -0.636000 -0.132204
v -0.152349 -0.636000 -0.073367
v -0.169095 -0.636000 -0.000000
v -0.152349 -0.636000 0.073367
v -0.105429 -0.636000 0.132204
v -0.037627 -0.636000 0.164855
v 0.037627 -0.636000 0.164855
v 0.105429 -0.636000 0.132204
v 0.152349 -0.636000 0.073367
v 0.184828 -0.598000 0.000000
v 0.166524 -0.598000 -0.080194
v 0.115238 -0.598000 -0.144504
v 0.041128 -0.598000 -0.180194
v -0.041128 -0.598000 -0.180194
v -0.115238 -0.598000 -0.144504
v -0.166524 -0.598000 -0.080194
v -0.184828 -0.598000 -0.000000
v -0.166524 -0.598000 0.080194
v -0.115238 -0.598000 0.144504
v -0.041128 -0.598000 0.180194
v 0.041128 -0.598000 0.180194
v 0.115238 -0.598000 0.144504
v 0.166524 -0.598000 0.080194
v 0.190000 -0.560000 0.000000
v 0.171184 -0.560000 -0.082438
v 0.118463 -0.560000 -0.148548
v 0.042279 -0.560000 -0.185236
v -0.042279 -0.560000 -0.185236
v -0.118463 -0.560000 -0.148548
v -0.171184 -0.560000 -0.082438
v -0.190000 -0.560000 -0.000000
v -0.171184 -0.560000 0.082438
v -0.118463 -0.560000 0.148548
v -0.042279 -0.560000 0.185236
v 0.042279 -0.560000 0.185236
v 0.118463 -0.560000 0.148548
v 0.171184 -0.560000 0.082438
v 0.184828 -0.522000 0.000000
v 0.166524 -0.522000 -0.080194
v 0.115238 -0.522000 -0.144504
v 0.041128 -0.522000 -0.180194
v -0.041128 -0.522000 -0.180194
v -0.115238 -0.522000 -0.144504
v -0.166524 -0.522000 -0.080194
v -0.184828 -0.522000 -0.000000
v -0.166524 -0.522000 0.080194
v -0.115238 -0.522000 0.144504
v -0.041128 -0.522000 0.180194
v 0.041128 -0.522000 0.180194
v 0.115238 -0.522000 0.144504
v 0.166524 -0.522000 0.080194
v 0.169095 -0.484000 0.000000
v 0.152349 -0.484000 -0.073367
v 0.105429 -0.484000 -0.132204
v 0.037627 -0.484000 -0.164855
v -0.037627 -0.484000 -0.164855
v -0.105429 -0.484000 -0.132204
v -0.152349 -0.484000 -0.073367
v -0.169095 -0.484000 -0.000000
v -0.152349 -0.484000 0.073367
v -0.105429 -0.484000 0.132204
v -0.037627 -0.484000 0.164855
v 0.037627 -0.484000 0.164855
v 0.105429 -0.484000 0.132204
v 0.152349 -0.484000 0.073367
v 0.141848 -0.446000 0.000000
v 0.127801 -0.446000 -0.061546
v 0.088441 -0.446000 -0.110901
v 0.031564 -0.446000 -0.138292
v -0.031564 -0.446000 -0.138292
v -0.088441 -0.446000 -0.110901
v -0.127801 -0.446000 -0.061546
v -0.141848 -0.446000 -0.000000
v -0.127801 -0.446000 0.061546
v -0.088441 -0.446000 0.110901
v -0.031564 -0.446000 0.138292
v 0.031564 -0.446000 0.138292
v 0.088441 -0.446000 0.110901
v 0.127801 -0.446000 0.061546
v 0.099596 -0.408000 0.000000
v 0.089733 -0.408000 -0.043213
v 0.062097 -0.408000 -0.077868
v 0.022162 -0.408000 -0.097099
v -0.022162 -0.408000 -0.097099
v -0.062097 -0.408000 -0.077868
v -0.089733 -0.408000 -0.043213
v -0.099596 -0.408000 -0.000000
v -0.089733 -0.408000 0.043213
v -0.062097 -0.408000 0.077868
v -0.022162 -0.408000 0.097099
v 0.022162 -0.408000 0.097099
v 0.062097 -0.408000 0.077868
v 0.089733 -0.408000 0.043213
v 0.020000 -0.370000 0.000000
v 0.018019 -0.370000 -0.008678
v 0.012470 -0.370000 -0.015637
v 0.004450 -0.370000 -0.019499
v -0.004450 -0.370000 -0.019499
v -0.012470 -0.370000 -0.015637
v -0.018019 -0.370000 -0.008678
v -0.020000 -0.370000 -0.000000
v -0.018019 -0.370000 0.008678
v -0.012470 -0.370000 0.015637
v -0.004450 -0.370000 0.019499
v 0.004450 -0.370000 0.019499
v 0.012470 -0.370000 0.015637
v 0.018019 -0.370000 0.008678
v 0.082304 0.524192 0.834038
v 0.065200 0.520400 0.850000
v 0.066236 0.540357 0.834497
v 0.076837 0.522296 0.845325
v 0.074921 0.531396 0.843564
v 0.065718 0.532873 0.845459
v 0.077523 0.535381 0.835293
v -0.065200 0.520400 0.850000
v -0.082304 0.524192 0.834038
v -0.066236 0.540357 0.834497
v -0.076837 0.522296 0.845325
v -0.074921 0.531396 0.843564
v -0.077523 0.535381 0.835293
v -0.065718 0.532873 0.845459
v -0.065200 0.379600 0.850000
v -0.066252 0.366376 0.834243
v -0.082304 0.382524 0.834038
v -0.065497 0.369069 0.845427
v -0.074893 0.371567 0.843297
v -0.077592 0.371136 0.834140
v -0.076848 0.380487 0.845283
v 0.065200 0.379600 0.850000
v 0.082304 0.382524 0.834038
v 0.066252 0.366376 0.834243
v 0.076837 0.381062 0.845325
v 0.074945 0.371700 0.843224
v 0.077626 0.371177 0.833788
v 0.065726 0.369099 0.845385
v 0.074963 0.572556 0.708333
v 0.091000 0.556283 0.708333
v 0.086303 0.567789 0.708333
v -0.091000 0.556283 0.708333
v -0.074963 0.572556 0.708333
v -0.086303 0.567789 0.708333
v -0.074962 0.388556 0.708333
v -0.091000 0.404662 0.708333
v -0.086303 0.393273 0.708333
v 0.091000 0.404662 0.708333
v 0.074962 0.388556 0.708333
v 0.086303 0.393273 0.708333
v 0.084763 0.603156 0.566667
v 0.100800 0.586905 0.566667
v 0.096103 0.598396 0.566667
v -0.100800 0.586905 0.566667
v -0.084763 0.603156 0.566667
v -0.096103 0.598396 0.566667
v -0.084762 0.407956 0.566667
v -0.100800 0.424050 0.566667
v -0.096103 0.412669 0.566667
v 0.100800 0.424050 0.566667
v 0.084762 0.407956 0.566667
v 0.096103 0.412669 0.566667
v 0.094563 0.628200 0.425000
v 0.110600 0.611975 0.425000
v 0.105903 0.623448 0.425000
v -0.110600 0.611975 0.425000
v -0.094563 0.628200 0.425000
v -0.105903 0.623448 0.425000
v -0.094562 0.421800 0.425000
v -0.110600 0.437880 0.425000
v -0.105903 0.426510 0.425000
v 0.110600 0.437880 0.425000
v 0.094562 0.421800 0.425000
v 0.105903 0.426510 0.425000
v 0.104363 0.647689 0.283333
v 0.120400 0.631488 0.283333
v 0.115703 0.642944 0.283333
v -0.120400 0.631488 0.283333
v -0.104363 0.647689 0.283333
v -0.115703 0.642944 0.283333
v -0.104362 0.430089 0.283333
v -0.120400 0.446158 0.283333
v -0.115703 0.434795 0.283333
v 0.120400 0.446158 0.283333
v 0.104362 0.430089 0.283333
v 0.115703 0.434795 0.283333
v 0.114163 0.661622 0.141667
v 0.130200 0.645438 0.141667
v 0.125503 0.656882 0.141667
v -0.130200 0.645438 0.141667
v -0.114163 0.661622 0.141667
v -0.125503 0.656882 0.141667
v -0.114162 0.432822 0.141667
v -0.130200 0.448884 0.141667
v -0.125503 0.437527 0.141667
v 0.130200 0.448884 0.141667
v 0.114162 0.432822 0.141667
v 0.125503 0.437527 0.141667
v 0.123963 0.670000 0.000000
v 0.140000 0.653822 0.000000
v 0.135303 0.665262 0.000000
v -0.140000 0.653822 0.000000
v -0.123963 0.670000 0.000000
v -0.135303 0.665262 0.000000
v -0.123962 0.430000 0.000000
v -0.140000 0.446060 0.000000
v -0.135303 0.434704 0.000000
v 0.140000 0.446060 0.000000
v 0.123962 0.430000 0.000000
v 0.135303 0.434704 0.000000
v 0.114163 0.661622 -0.141667
v 0.130200 0.645438 -0.141667
v 0.125503 0.656882 -0.141667
v -0.130200 0.645438 -0.141667
v -0.114163 0.661622 -0.141667
v -0.125503 0.656882 -0.141667
v -0.114162 0.432822 -0.141667
v -0.130200 0.448884 -0.141667
v -0.125503 0.437527 -0.141667
v 0.130200 0.448884 -0.141667
v 0.114162 0.432822 -0.141667
v 0.125503 0.437527 -0.141667
v 0.104363 0.647689 -0.283333
v 0.120400 0.631488 -0.283333
v 0.115703 0.642944 -0.283333
v -0.120400 0.631488 -0.283333
v -0.104363 0.647689 -0.283333
v -0.115703 0.642944 -0.283333
v -0.104362 0.430089 -0.283333
v -0.120400 0.446158 -0.283333
v -0.115703 0.434795 -0.283333
v 0.120400 0.446158 -0.283333
v 0.104362 0.430089 -0.283333
v 0.115703 0.434795 -0.283333
v 0.094563 0.628200 -0.425000
v 0.110600 0.611975 -0.425000
v 0.105903 0.623448 -0.425000
v -0.110600 0.611975 -0.425000
v -0.094563 0.628200 -0.425000
v -0.105903 0.623448 -0.425000
v -0.094562 0.421800 -0.425000
v -0.110600 0.437880 -0.425000
v -0.105903 0.426510 -0.425000
v 0.110600 0.437880 -0.425000
v 0.094562 0.421800 -0.425000
v 0.105903 0.426510 -0.425000
v 0.084763 0.603156 -0.566667
v 0.100800 0.586905 -0.566667
v 0.096103 0.598396 -0.566667
v -0.100800 0.586905 -0.566667
v -0.084763 0.603156 -0.566667
v -0.096103 0.598396 -0.566667
v -0.084762 0.407956 -0.566667
v -0.100800 0.424050 -0.566667
v -0.096103 0.412669 -0.566667
v 0.100800 0.424050 -0.566667
v 0.084762 0.407956 -0.566667
v 0.096103 0.412669 -0.566667
v 0.074963 0.572556 -0.708333
v 0.091000 0.556283 -0.708333
v 0.086303 0.567789 -0.708333
v -0.091000 0.556283 -0.708333
v -0.074963 0.572556 -0.708333
v -0.086303 0.567789 -0.708333
v -0.074962 0.388556 -0.708333
v -0.091000 0.404662 -0.708333
v -0.086303 0.393273 -0.708333
v 0.091000 0.404662 -0.708333
v 0.074962 0.388556 -0.708333
v 0.086303 0.393273 -0.708333
v 0.082304 0.524192 -0.834038
v 0.066236 0.540357 -0.834497
v 0.065200 0.520400 -0.850000
v 0.077523 0.535381 -0.835293
v 0.074921 0.531396 -0.843564
v 0.065718 0.532873 -0.845459
v 0.076837 0.522296 -0.845325
v -0.082304 0.524192 -0.834038
v -0.065200 0.520400 -0.850000
v -0.066236 0.540357 -0.834497
v -0.076837 0.522296 -0.845325
v -0.074921 0.531396 -0.843564
v -0.065718 0.532873 -0.845459
v -0.077523 0.535381 -0.835293
v -0.066252 0.366376 -0.834243
v -0.065200 0.379600 -0.850000
v -0.082304 0.382524 -0.834038
v -0.065726 0.369099 -0.845385
v -0.074945 0.371700 -0.843224
v -0.076837 0.381062 -0.845325
v -0.077626 0.371177 -0.833788
v 0.082304 0.382524 -0.834038
v 0.065200 0.379600 -0.850000
v 0.066252 0.366376 -0.834243
v 0.076848 0.380487 -0.845282
v 0.074893 0.371567 -0.843297
v 0.065497 0.369069 -0.845427
v 0.077592 0.371136 -0.834140
v 0.148050 1.013750 -0.105600
v 0.000000 1.013750 -0.082368
v -0.148050 1.013750 -0.105600
v -0.148050 1.013750 0.105600
v 0.000000 1.013750 0.082368
v 0.148050 1.013750 0.105600
v 0.138600 1.407500 -0.101200
v 0.000000 1.407500 -0.078936
v -0.138600 1.407500 -0.101200
v -0.138600 1.407500 0.101200
v 0.000000 1.407500 0.078936
v 0.138600 1.407500 0.101200
v 0.129150 1.801250 -0.096800
v 0.000000 1.801250 -0.075504
v -0.129150 1.801250 -0.096800
v -0.129150 1.801250 0.096800
v 0.000000 1.801250 0.075504
v 0.129150 1.801250 0.096800
v 0.119700 2.195000 -0.092400
v 0.000000 2.195000 -0.072072
v -0.119700 2.195000 -0.092400
v -0.119700 2.195000 0.092400
v 0.000000 2.195000 0.072072
v 0.119700 2.195000 0.092400
v 0.110250 2.588750 -0.088000
v 0.000000 2.588750 -0.068640
v -0.110250 2.588750 -0.088000
v -0.110250 2.588750 0.088000
v 0.000000 2.588750 0.068640
v 0.110250 2.588750 0.088000
v 0.100800 2.982500 -0.083600
v 0.000000 2.982500 -0.065208
v -0.100800 2.982500 -0.083600
v -0.100800 2.982500 0.083600
v 0.000000 2.982500 0.065208
v 0.100800 2.982500 0.083600
v 0.091350 3.376250 -0.079200
v 0.000000 3.376250 -0.061776
v -0.091350 3.376250 -0.079200
v -0.091350 3.376250 0.079200
v 0.000000 3.376250 0.061776
v 0.091350 3.376250 0.079200
v 0.081900 3.770000 -0.074800
v 0.000000 3.770000 -0.058344
v -0.081900 3.770000 -0.074800
v -0.081900 3.770000 0.074800
v 0.000000 3.770000 0.058344
v 0.081900 3.770000 0.074800
v 0.069279 3.980000 -0.057690
v 0.000000 3.980000 -0.044998
v -0.069279 3.980000 -0.057690
v -0.069279 3.980000 0.057690
v 0.000000 3.980000 0.044998
v 0.069279 3.980000 0.057690
v 0.055834 4.190000 -0.046494
v 0.000000 4.190000 -0.036265
v -0.055834 4.190000 -0.046494
v -0.055834 4.190000 0.046494
v 0.000000 4.190000 0.036265
v 0.055834 4.190000 0.046494
v 0.041194 4.400000 -0.034303
v 0.000000 4.400000 -0.026756
v -0.041194 4.400000 -0.034303
v -0.041194 4.400000 0.034303
v 0.000000 4.400000 0.026756
v 0.041194 4.400000 0.034303
v 0.024494 4.610000 -0.020397
v 0.000000 4.610000 -0.015909
v -0.024494 4.610000 -0.020397
v -0.024494 4.610000 0.020397
v 0.000000 4.610000 0.015909
v 0.024494 4.610000 0.020397
v 0.348418 0.621713 0.000852
v 0.346546 0.620000 -0.000000
v 0.348418 0.621713 -0.000852
v 0.347662 0.620502 0.000742
v 0.348520 0.620731 0.000000
v 0.347662 0.620502 -0.000742
v 0.349034 0.621746 0.000000
v 0.157169 0.620000 -0.108215
v 0.157459 0.621714 -0.109981
v 0.157391 0.620502 -0.109472
v 0.000000 0.620000 -0.084066
v 0.000000 0.621714 -0.085785
v 0.000000 0.620502 -0.085288
v -0.157169 0.620000 -0.108215
v -0.157459 0.621714 -0.109981
v -0.157391 0.620502 -0.109472
v -0.346546 0.620000 0.000000
v -0.348418 0.621713 0.000852
v -0.348418 0.621713 -0.000852
v -0.347662 0.620502 0.000742
v -0.348520 0.620731 -0.000000
v -0.349034 0.621746 -0.000000
v -0.347662 0.620502 -0.000742
v -0.157169 0.620000 0.108215
v -0.157459 0.621714 0.109981
v -0.157391 0.620502 0.109472
v 0.000000 0.620000 0.084066
v 0.000000 0.621714 0.085785
v 0.000000 0.620502 0.085288
v 0.157169 0.620000 0.108215
v 0.157459 0.621714 0.109981
v 0.157391 0.620502 0.109472
v 0.327517 1.013750 -0.000865
v 0.327517 1.013750 0.000865
v 0.328131 1.013750 0.000000
v -0.327517 1.013750 0.000865
v -0.327517 1.013750 -0.000865
v -0.328131 1.013750 0.000000
v 0.306526 1.407500 -0.000881
v 0.306526 1.407500 0.000881
v 0.307136 1.407500 0.000000
v -0.306526 1.407500 0.000881
v -0.306526 1.407500 -0.000881
v -0.307136 1.407500 0.000000
v 0.285536 1.801250 -0.000898
v 0.285536 1.801250 0.000898
v 0.286142 1.801250 0.000000
v -0.285536 1.801250 0.000898
v -0.285536 1.801250 -0.000898
v -0.286142 1.801250 0.000000
v 0.264548 2.195000 -0.000917
v 0.264548 2.195000 0.000917
v 0.265149 2.195000 0.000000
v -0.264548 2.195000 0.000917
v -0.264548 2.195000 -0.000917
v -0.265149 2.195000 0.000000
v 0.243561 2.588750 -0.000940
v 0.243561 2.588750 0.000940
v 0.244157 2.588750 0.000000
v -0.243561 2.588750 0.000940
v -0.243561 2.588750 -0.000940
v -0.244157 2.588750 0.000000
v 0.222577 2.982500 -0.000965
v 0.222577 2.982500 0.000965
v 0.223167 2.982500 0.000000
v -0.222577 2.982500 0.000965
v -0.222577 2.982500 -0.000965
v -0.223167 2.982500 0.000000
v 0.201597 3.376250 -0.000995
v 0.201597 3.376250 0.000995
v 0.202178 3.376250 0.000000
v -0.201597 3.376250 0.000995
v -0.201597 3.376250 -0.000995
v -0.202178 3.376250 0.000000
v 0.180621 3.770000 -0.001031
v 0.180621 3.770000 0.001031
v 0.181192 3.770000 0.000000
v -0.180621 3.770000 0.001031
v -0.180621 3.770000 -0.001031
v -0.181192 3.770000 0.000000
v 0.152528 3.980000 -0.000971
v 0.152528 3.980000 0.000971
v 0.153119 3.980000 -0.000000
v -0.152528 3.980000 0.000971
v -0.152528 3.980000 -0.000971
v -0.153119 3.980000 0.000000
v 0.122649 4.190000 -0.000972
v 0.122649 4.190000 0.000972
v 0.123240 4.190000 0.000000
v -0.122649 4.190000 0.000972
v -0.122649 4.190000 -0.000972
v -0.123240 4.190000 0.000000
v 0.090113 4.400000 -0.000973
v 0.090113 4.400000 0.000973
v 0.090705 4.400000 0.000000
v -0.090113 4.400000 0.000973
v -0.090113 4.400000 -0.000973
v -0.090705 4.400000 0.000000
v 0.053002 4.610000 -0.000974
v 0.053002 4.610000 0.000974
v 0.053594 4.610000 0.000000
v -0.053002 4.610000 0.000974
v -0.053002 4.610000 -0.000974
v -0.053594 4.610000 0.000000
v 0.003392 4.818311 0.001382
v 0.003392 4.818311 -0.001382
v 0.001875 4.820000 -0.000000
v 0.003789 4.818406 0.000000
v 0.003329 4.819306 0.000000
v 0.002865 4.819506 -0.000861
v 0.002865 4.819506 0.000861
v 0.001180 4.820000 -0.000947
v 0.001984 4.818295 -0.003141
v 0.001672 4.819501 -0.002440
v 0.000000 4.820000 -0.000515
v 0.000000 4.818296 -0.002450
v 0.000000 4.819500 -0.001838
v -0.001180 4.820000 -0.000947
v -0.001984 4.818295 -0.003141
v -0.001672 4.819501 -0.002440
v -0.003392 4.818311 0.001382
v -0.001875 4.820000 0.000000
v -0.003392 4.818311 -0.001382
v -0.002865 4.819506 0.000861
v -0.003329 4.819306 -0.000000
v -0.002865 4.819506 -0.000861
v -0.003789 4.818406 -0.000000
v -0.001180 4.820000 0.000947
v -0.001984 4.818295 0.003141
v -0.001672 4.819501 0.002440
v -0.000000 4.820000 0.000515
v 0.000000 4.818296 0.002450
v -0.000000 4.819500 0.001838
v 0.001180 4.820000 0.000947
v 0.001984 4.818295 0.003141
v 0.001672 4.819501 0.002440
vn 0.9986 0.0520 -0.0000
vn 0.8998 0.0520 -0.4333
vn 0.9009 -0.0161 -0.4338
vn 0.9999 -0.0161 -0.0000
vn 0.6226 0.0520 -0.7808
vn 0.6234 -0.0161 -0.7817
vn 0.2222 0.0520 -0.9736
vn 0.2225 -0.0161 -0.9748
vn -0.2222 0.0520 -0.9736
vn -0.2225 -0.0161 -0.9748
vn -0.6226 0.0520 -0.7808
vn -0.6234 -0.0161 -0.7817
vn -0.8998 0.0520 -0.4333
vn -0.9009 -0.0161 -0.4338
vn -0.9986 0.0520 -0.0000
vn -0.9999 -0.0161 -0.0000
vn -0.8998 0.0520 0.4333
vn -0.9009 -0.0161 0.4338
vn -0.6226 0.0520 0.7808
vn -0.6234 -0.0161 0.7817
vn -0.2222 0.0520 0.9736
vn -0.2225 -0.0161 0.9748
vn 0.2222 0.0520 0.9736
vn 0.2225 -0.0161 0.9748
vn 0.6226 0.0520 0.7808
vn 0.6234 -0.0161 0.7817
vn 0.8998 0.0520 0.4333
vn 0.9009 -0.0161 0.4338
vn 0.9008 -0.0183 -0.4338
vn 0.9998 -0.0183 -0.0000
vn 0.6234 -0.0183 -0.7817
vn 0.2225 -0.0183 -0.9748
vn -0.2225 -0.0183 -0.9748
vn -0.6234 -0.0183 -0.7817
vn -0.9008 -0.0183 -0.4338
vn -0.9998 -0.0183 -0.0000
vn -0.9008 -0.0183 0.4338
vn -0.6234 -0.0183 0.7817
vn -0.2225 -0.0183 0.9748
vn 0.2225 -0.0183 0.9748
vn 0.6234 -0.0183 0.7817
vn 0.9008 -0.0183 0.4338
vn 0.8961 0.1043 -0.4315
vn 0.9945 0.1043 -0.0000
vn 0.6201 0.1043 -0.7776
vn 0.2213 0.1043 -0.9696
vn -0.2213 0.1043 -0.9696
vn -0.6201 0.1043 -0.7776
vn -0.8961 0.1043 -0.4315
vn -0.9945 0.1043 -0.0000
vn -0.8961 0.1043 0.4315
vn -0.6201 0.1043 0.7776
vn -0.2213 0.1043 0.9696
vn 0.2213 0.1043 0.9696
vn 0.6201 0.1043 0.7776
vn 0.8961 0.1043 0.4315
vn 0.8966 0.0983 -0.4318
vn 0.9952 0.0983 -0.0000
vn 0.6205 0.0983 -0.7780
vn 0.2214 0.0983 -0.9702
vn -0.2214 0.0983 -0.9702
vn -0.6205 0.0983 -0.7780
vn -0.8966 0.0983 -0.4318
vn -0.9952 0.0983 -0.0000
vn -0.8966 0.0983 0.4318
vn -0.6205 0.0983 0.7780
vn -0.2214 0.0983 0.9702
vn 0.2214 0.0983 0.9702
vn 0.6205 0.0983 0.7780
vn 0.8966 0.0983 0.4318
vn 0.9004 -0.0354 -0.4336
vn 0.9994 -0.0354 -0.0000
vn 0.6231 -0.0354 -0.7813
vn 0.2224 -0.0354 -0.9743
vn -0.2224 -0.0354 -0.9743
vn -0.6231 -0.0354 -0.7813
vn -0.9004 -0.0354 -0.4336
vn -0.9994 -0.0354 -0.0000
vn -0.9004 -0.0354 0.4336
vn -0.6231 -0.0354 0.7813
vn -0.2224 -0.0354 0.9743
vn 0.2224 -0.0354 0.9743
vn 0.6231 -0.0354 0.7813
vn 0.9004 -0.0354 0.4336
vn 0.9002 -0.0426 -0.4335
vn 0.9991 -0.0426 -0.0000
vn 0.6229 -0.0426 -0.7811
vn 0.2223 -0.0426 -0.9740
vn -0.2223 -0.0426 -0.9740
vn -0.6229 -0.0426 -0.7811
vn -0.9002 -0.0426 -0.4335
vn -0.9991 -0.0426 -0.0000
vn -0.9002 -0.0426 0.4335
vn -0.6229 -0.0426 0.7811
vn -0.2223 -0.0426 0.9740
vn 0.2223 -0.0426 0.9740
vn 0.6229 -0.0426 0.7811
vn 0.9002 -0.0426 0.4335
vn 0.8988 0.0699 -0.4328
vn 0.9976 0.0699 -0.0000
vn 0.6220 0.0699 -0.7799
vn 0.2220 0.0699 -0.9725
vn -0.2220 0.0699 -0.9725
vn -0.6220 0.0699 -0.7799
vn -0.8988 0.0699 -0.4328
vn -0.9976 0.0699 -0.0000
vn -0.8988 0.0699 0.4328
vn -0.6220 0.0699 0.7799
vn -0.2220 0.0699 0.9725
vn 0.2220 0.0699 0.9725
vn 0.6220 0.0699 0.7799
vn 0.8988 0.0699 0.4328
vn 0.8993 0.0614 -0.4331
vn 0.9981 0.0614 -0.0000
vn 0.6223 0.0614 -0.7804
vn 0.2221 0.0614 -0.9731
vn -0.2221 0.0614 -0.9731
vn -0.6223 0.0614 -0.7804
vn -0.8993 0.0614 -0.4331
vn -0.9981 0.0614 -0.0000
vn -0.8993 0.0614 0.4331
vn -0.6223 0.0614 0.7804
vn -0.2221 0.0614 0.9731
vn 0.2221 0.0614 0.9731
vn 0.6223 0.0614 0.7804
vn 0.8993 0.0614 0.4331
vn 0.9009 -0.0092 -0.4339
vn 1.0000 -0.0092 -0.0000
vn 0.6235 -0.0092 -0.7818
vn 0.2225 -0.0092 -0.9749
vn -0.2225 -0.0092 -0.9749
vn -0.6235 -0.0092 -0.7818
vn -0.9009 -0.0092 -0.4339
vn -1.0000 -0.0092 -0.0000
vn -0.9009 -0.0092 0.4339
vn -0.6235 -0.0092 0.7818
vn -0.2225 -0.0092 0.9749
vn 0.2225 -0.0092 0.9749
vn 0.6235 -0.0092 0.7818
vn 0.9009 -0.0092 0.4339
vn 0.8980 -0.0805 -0.4325
vn 0.9968 -0.0805 -0.0000
vn 0.6215 -0.0805 -0.7793
vn 0.2218 -0.0805 -0.9718
vn -0.2218 -0.0805 -0.9718
vn -0.6215 -0.0805 -0.7793
vn -0.8980 -0.0805 -0.4325
vn -0.9968 -0.0805 -0.0000
vn -0.8980 -0.0805 0.4325
vn -0.6215 -0.0805 0.7793
vn -0.2218 -0.0805 0.9718
vn 0.2218 -0.0805 0.9718
vn 0.6215 -0.0805 0.7793
vn 0.8980 -0.0805 0.4325
vn 0.8975 -0.0883 -0.4322
vn 0.9961 -0.0883 -0.0000
vn 0.6211 -0.0883 -0.7788
vn 0.2217 -0.0883 -0.9711
vn -0.2217 -0.0883 -0.9711
vn -0.6211 -0.0883 -0.7788
vn -0.8975 -0.0883 -0.4322
vn -0.9961 -0.0883 -0.0000
vn -0.8975 -0.0883 0.4322
vn -0.6211 -0.0883 0.7788
vn -0.2217 -0.0883 0.9711
vn 0.2217 -0.0883 0.9711
vn 0.6211 -0.0883 0.7788
vn 0.8975 -0.0883 0.4322
vn 0.9006 0.0280 -0.4337
vn 0.9996 0.0280 -0.0000
vn 0.6232 0.0280 -0.7815
vn 0.2224 0.0280 -0.9745
vn -0.2224 0.0280 -0.9745
vn -0.6232 0.0280 -0.7815
vn -0.9006 0.0280 -0.4337
vn -0.9996 0.0280 -0.0000
vn -0.9006 0.0280 0.4337
vn -0.6232 0.0280 0.7815
vn -0.2224 0.0280 0.9745
vn 0.2224 0.0280 0.9745
vn 0.6232 0.0280 0.7815
vn 0.9006 0.0280 0.4337
vn 0.9007 0.0229 -0.4338
vn 0.9997 0.0229 -0.0000
vn 0.6233 0.0229 -0.7816
vn 0.2225 0.0229 -0.9747
vn -0.2225 0.0229 -0.9747
vn -0.6233 0.0229 -0.7816
vn -0.9007 0.0229 -0.4338
vn -0.9997 0.0229 -0.0000
vn -0.9007 0.0229 0.4338
vn -0.6233 0.0229 0.7816
vn -0.2225 0.0229 0.9747
vn 0.2225 0.0229 0.9747
vn 0.6233 0.0229 0.7816
vn 0.9007 0.0229 0.4338
vn 0.8952 -0.1127 -0.4311
vn 0.9936 -0.1127 -0.0000
vn 0.6195 -0.1127 -0.7769
vn 0.2211 -0.1127 -0.9687
vn -0.2211 -0.1127 -0.9687
vn -0.6195 -0.1127 -0.7769
vn -0.8952 -0.1127 -0.4311
vn -0.9936 -0.1127 -0.0000
vn -0.8952 -0.1127 0.4311
vn -0.6195 -0.1127 0.7769
vn -0.2211 -0.1127 0.9687
vn 0.2211 -0.1127 0.9687
vn 0.6195 -0.1127 0.7769
vn 0.8952 -0.1127 0.4311
vn 0.8949 -0.1159 -0.4310
vn 0.9933 -0.1159 -0.0000
vn 0.6193 -0.1159 -0.7766
vn 0.2210 -0.1159 -0.9684
vn -0.2210 -0.1159 -0.9684
vn -0.6193 -0.1159 -0.7766
vn -0.8949 -0.1159 -0.4310
vn -0.9933 -0.1159 -0.0000
vn -0.8949 -0.1159 0.4310
vn -0.6193 -0.1159 0.7766
vn -0.2210 -0.1159 0.9684
vn 0.2210 -0.1159 0.9684
vn 0.6193 -0.1159 0.7766
vn 0.8949 -0.1159 0.4310
vn 0.9009 0.0148 -0.4338
vn 0.9999 0.0148 -0.0000
vn 0.6234 0.0148 -0.7817
vn 0.2225 0.0148 -0.9748
vn -0.2225 0.0148 -0.9748
vn -0.6234 0.0148 -0.7817
vn -0.9009 0.0148 -0.4338
vn -0.9999 0.0148 -0.0000
vn -0.9009 0.0148 0.4338
vn -0.6234 0.0148 0.7817
vn -0.2225 0.0148 0.9748
vn 0.2225 0.0148 0.9748
vn 0.6234 0.0148 0.7817
vn 0.9009 0.0148 0.4338
vn 0.2206 -0.9754 -0.0000
vn 0.1987 -0.9754 -0.0957
vn 0.3433 -0.9246 -0.1653
vn 0.3810 -0.9246 -0.0000
vn 0.9371 -0.3492 -0.0000
vn 0.8443 -0.3492 -0.4066
vn 0.8912 -0.1472 -0.4292
vn 0.9891 -0.1472 -0.0000
vn 0.1375 -0.9754 -0.1725
vn 0.2375 -0.9246 -0.2979
vn 0.5843 -0.3492 -0.7326
vn 0.6167 -0.1472 -0.7733
vn 0.0491 -0.9754 -0.2150
vn 0.0848 -0.9246 -0.3714
vn 0.2085 -0.3492 -0.9136
vn 0.2201 -0.1472 -0.9643
vn -0.0491 -0.9754 -0.2150
vn -0.0848 -0.9246 -0.3714
vn -0.2085 -0.3492 -0.9136
vn -0.2201 -0.1472 -0.9643
vn -0.1375 -0.9754 -0.1725
vn -0.2375 -0.9246 -0.2979
vn -0.5843 -0.3492 -0.7326
vn -0.6167 -0.1472 -0.7733
vn -0.1987 -0.9754 -0.0957
vn -0.3433 -0.9246 -0.1653
vn -0.8443 -0.3492 -0.4066
vn -0.8912 -0.1472 -0.4292
vn -0.2206 -0.9754 -0.0000
vn -0.3810 -0.9246 -0.0000
vn -0.9371 -0.3492 -0.0000
vn -0.9891 -0.1472 -0.0000
vn -0.1987 -0.9754 0.0957
vn -0.3433 -0.9246 0.1653
vn -0.8443 -0.3492 0.4066
vn -0.8912 -0.1472 0.4292
vn -0.1375 -0.9754 0.1725
vn -0.2375 -0.9246 0.2979
vn -0.5843 -0.3492 0.7326
vn -0.6167 -0.1472 0.7733
vn -0.0491 -0.9754 0.2150
vn -0.0848 -0.9246 0.3714
vn -0.2085 -0.3492 0.9136
vn -0.2201 -0.1472 0.9643
vn 0.0491 -0.9754 0.2150
vn 0.0848 -0.9246 0.3714
vn 0.2085 -0.3492 0.9136
vn 0.2201 -0.1472 0.9643
vn 0.1375 -0.9754 0.1725
vn 0.2375 -0.9246 0.2979
vn 0.5843 -0.3492 0.7326
vn 0.6167 -0.1472 0.7733
vn 0.1987 -0.9754 0.0957
vn 0.3433 -0.9246 0.1653
vn 0.8443 -0.3492 0.4066
vn 0.8912 -0.1472 0.4292
vn 0.9635 0.2677 -0.0000
vn 0.8681 0.2677 -0.4181
vn 0.8024 0.4548 -0.3864
vn 0.8906 0.4548 -0.0000
vn 0.3627 0.9319 -0.0000
vn 0.3268 0.9319 -0.1574
vn 0.1890 0.9778 -0.0910
vn 0.2097 0.9778 -0.0000
vn 0.6007 0.2677 -0.7533
vn 0.5553 0.4548 -0.6963
vn 0.2262 0.9319 -0.2836
vn 0.1308 0.9778 -0.1640
vn 0.2144 0.2677 -0.9394
vn 0.1982 0.4548 -0.8683
vn 0.0807 0.9319 -0.3536
vn 0.0467 0.9778 -0.2045
vn -0.2144 0.2677 -0.9394
vn -0.1982 0.4548 -0.8683
vn -0.0807 0.9319 -0.3536
vn -0.0467 0.9778 -0.2045
vn -0.6007 0.2677 -0.7533
vn -0.5553 0.4548 -0.6963
vn -0.2262 0.9319 -0.2836
vn -0.1308 0.9778 -0.1640
vn -0.8681 0.2677 -0.4181
vn -0.8024 0.4548 -0.3864
vn -0.3268 0.9319 -0.1574
vn -0.1890 0.9778 -0.0910
vn -0.9635 0.2677 -0.0000
vn -0.8906 0.4548 -0.0000
vn -0.3627 0.9319 -0.0000
vn -0.2097 0.9778 -0.0000
vn -0.8681 0.2677 0.4181
vn -0.8024 0.4548 0.3864
vn -0.3268 0.9319 0.1574
vn -0.1890 0.9778 0.0910
vn -0.6007 0.2677 0.7533
vn -0.5553 0.4548 0.6963
vn -0.2262 0.9319 0.2836
vn -0.1308 0.9778 0.1640
vn -0.2144 0.2677 0.9394
vn -0.1982 0.4548 0.8683
vn -0.0807 0.9319 0.3536
vn -0.0467 0.9778 0.2045
vn 0.2144 0.2677 0.9394
vn 0.1982 0.4548 0.8683
vn 0.0807 0.9319 0.3536
vn 0.0467 0.9778 0.2045
vn 0.6007 0.2677 0.7533
vn 0.5553 0.4548 0.6963
vn 0.2262 0.9319 0.2836
vn 0.1308 0.9778 0.1640
vn 0.8681 0.2677 0.4181
vn 0.8024 0.4548 0.3864
vn 0.3268 0.9319 0.1574
vn 0.1890 0.9778 0.0910
vn 0.2504 -0.9681 -0.0000
vn 0.2256 -0.9681 -0.1087
vn 0.5129 -0.8222 -0.2470
vn 0.5693 -0.8222 -0.0000
vn 0.1561 -0.9681 -0.1958
vn 0.3549 -0.8222 -0.4451
vn 0.0557 -0.9681 -0.2442
vn 0.1267 -0.8222 -0.5550
vn -0.0557 -0.9681 -0.2442
vn -0.1267 -0.8222 -0.5550
vn -0.1561 -0.9681 -0.1958
vn -0.3549 -0.8222 -0.4451
vn -0.2256 -0.9681 -0.1087
vn -0.5129 -0.8222 -0.2470
vn -0.2504 -0.9681 -0.0000
vn -0.5693 -0.8222 -0.0000
vn -0.2256 -0.9681 0.1087
vn -0.5129 -0.8222 0.2470
vn -0.1561 -0.9681 0.1958
vn -0.3549 -0.8222 0.4451
vn -0.0557 -0.9681 0.2442
vn -0.1267 -0.8222 0.5550
vn 0.0557 -0.9681 0.2442
vn 0.1267 -0.8222 0.5550
vn 0.1561 -0.9681 0.1958
vn 0.3549 -0.8222 0.4451
vn 0.2256 -0.9681 0.1087
vn 0.5129 -0.8222 0.2470
vn 0.6773 -0.6595 -0.3262
vn 0.7517 -0.6595 -0.0000
vn 0.4687 -0.6595 -0.5877
vn 0.1673 -0.6595 -0.7329
vn -0.1673 -0.6595 -0.7329
vn -0.4687 -0.6595 -0.5877
vn -0.6773 -0.6595 -0.3262
vn -0.7517 -0.6595 -0.0000
vn -0.6773 -0.6595 0.3262
vn -0.4687 -0.6595 0.5877
vn -0.1673 -0.6595 0.7329
vn 0.1673 -0.6595 0.7329
vn 0.4687 -0.6595 0.5877
vn 0.6773 -0.6595 0.3262
vn 0.7909 -0.4790 -0.3809
vn 0.8778 -0.4790 -0.0000
vn 0.5473 -0.4790 -0.6863
vn 0.1953 -0.4790 -0.8558
vn -0.1953 -0.4790 -0.8558
vn -0.5473 -0.4790 -0.6863
vn -0.7909 -0.4790 -0.3809
vn -0.8778 -0.4790 -0.0000
vn -0.7909 -0.4790 0.3809
vn -0.5473 -0.4790 0.6863
vn -0.1953 -0.4790 0.8558
vn 0.1953 -0.4790 0.8558
vn 0.5473 -0.4790 0.6863
vn 0.7909 -0.4790 0.3809
vn 0.8709 -0.2564 -0.4194
vn 0.9666 -0.2564 -0.0000
vn 0.6026 -0.2564 -0.7557
vn 0.2151 -0.2564 -0.9423
vn -0.2151 -0.2564 -0.9423
vn -0.6026 -0.2564 -0.7557
vn -0.8709 -0.2564 -0.4194
vn -0.9666 -0.2564 -0.0000
vn -0.8709 -0.2564 0.4194
vn -0.6026 -0.2564 0.7557
vn -0.2151 -0.2564 0.9423
vn 0.2151 -0.2564 0.9423
vn 0.6026 -0.2564 0.7557
vn 0.8709 -0.2564 0.4194
vn 0.9010 -0.0000 -0.4339
vn 1.0000 -0.0000 -0.0000
vn 0.6235 -0.0000 -0.7818
vn 0.2225 -0.0000 -0.9749
vn -0.2225 -0.0000 -0.9749
vn -0.6235 -0.0000 -0.7818
vn -0.9010 -0.0000 -0.4339
vn -1.0000 -0.0000 -0.0000
vn -0.9010 -0.0000 0.4339
vn -0.6235 -0.0000 0.7818
vn -0.2225 -0.0000 0.9749
vn 0.2225 -0.0000 0.9749
vn 0.6235 -0.0000 0.7818
vn 0.9010 -0.0000 0.4339
vn 0.8709 0.2564 -0.4194
vn 0.9666 0.2564 -0.0000
vn 0.6026 0.2564 -0.7557
vn 0.2151 0.2564 -0.9423
vn -0.2151 0.2564 -0.9423
vn -0.6026 0.2564 -0.7557
vn -0.8709 0.2564 -0.4194
vn -0.9666 0.2564 -0.0000
vn -0.8709 0.2564 0.4194
vn -0.6026 0.2564 0.7557
vn -0.2151 0.2564 0.9423
vn 0.2151 0.2564 0.9423
vn 0.6026 0.2564 0.7557
vn 0.8709 0.2564 0.4194
vn 0.7909 0.4790 -0.3809
vn 0.8778 0.4790 -0.0000
vn 0.5473 0.4790 -0.6863
vn 0.1953 0.4790 -0.8558
vn -0.1953 0.4790 -0.8558
vn -0.5473 0.4790 -0.6863
vn -0.7909 0.4790 -0.3809
vn -0.8778 0.4790 -0.0000
vn -0.7909 0.4790 0.3809
vn -0.5473 0.4790 0.6863
vn -0.1953 0.4790 0.8558
vn 0.1953 0.4790 0.8558
vn 0.5473 0.4790 0.6863
vn 0.7909 0.4790 0.3809
vn 0.6773 0.6595 -0.3262
vn 0.7517 0.6595 -0.0000
vn 0.4687 0.6595 -0.5877
vn 0.1673 0.6595 -0.7329
vn -0.1673 0.6595 -0.7329
vn -0.4687 0.6595 -0.5877
vn -0.6773 0.6595 -0.3262
vn -0.7517 0.6595 -0.0000
vn -0.6773 0.6595 0.3262
vn -0.4687 0.6595 0.5877
vn -0.1673 0.6595 0.7329
vn 0.1673 0.6595 0.7329
vn 0.4687 0.6595 0.5877
vn 0.6773 0.6595 0.3262
vn 0.5129 0.8222 -0.2470
vn 0.5693 0.8222 -0.0000
vn 0.3549 0.8222 -0.4451
vn 0.1267 0.8222 -0.5550
vn -0.1267 0.8222 -0.5550
vn -0.3549 0.8222 -0.4451
vn -0.5129 0.8222 -0.2470
vn -0.5693 0.8222 -0.0000
vn -0.5129 0.8222 0.2470
vn -0.3549 0.8222 0.4451
vn -0.1267 0.8222 0.5550
vn 0.1267 0.8222 0.5550
vn 0.3549 0.8222 0.4451
vn 0.5129 0.8222 0.2470
vn 0.2256 0.9681 -0.1087
vn 0.2504 0.9681 -0.0000
vn 0.1561 0.9681 -0.1958
vn 0.0557 0.9681 -0.2442
vn -0.0557 0.9681 -0.2442
vn -0.1561 0.9681 -0.1958
vn -0.2256 0.9681 -0.1087
vn -0.2504 0.9681 -0.0000
vn -0.2256 0.9681 0.1087
vn -0.1561 0.9681 0.1958
vn -0.0557 0.9681 0.2442
vn 0.0557 0.9681 0.2442
vn 0.1561 0.9681 0.1958
vn 0.2256 0.9681 0.1087
vn -0.9491 -0.1625 -0.2700
vn -0.8877 -0.1294 -0.4418
vn -0.8502 -0.2916 -0.4384
vn -0.8951 -0.3399 -0.2884
vn -0.1667 -0.1522 -0.9742
vn -0.1465 -0.6020 -0.7849
vn -0.2981 -0.5806 -0.7577
vn -0.3289 -0.1530 -0.9319
vn -0.1667 -0.9020 -0.3983
vn -0.3306 -0.8562 -0.3970
vn 0.1671 -0.1522 -0.9741
vn 0.3296 -0.1529 -0.9317
vn 0.2981 -0.5806 -0.7577
vn 0.1465 -0.6020 -0.7849
vn 0.9490 -0.1625 -0.2700
vn 0.8951 -0.3399 -0.2884
vn 0.8502 -0.2916 -0.4384
vn 0.8876 -0.1294 -0.4420
vn 0.1667 -0.9020 -0.3983
vn 0.3306 -0.8562 -0.3970
vn 0.1787 0.1887 -0.9657
vn 0.1669 0.3702 -0.9138
vn 0.3395 0.3264 -0.8822
vn 0.3632 0.1517 -0.9193
vn 0.1823 0.9827 -0.0315
vn 0.3699 0.9290 -0.0108
vn 0.3428 0.9180 -0.1992
vn 0.1578 0.9621 -0.2226
vn 0.9603 0.1814 -0.2121
vn 0.9064 0.1750 -0.3846
vn 0.8876 0.3219 -0.3295
vn 0.9175 0.3543 -0.1805
vn -0.1799 0.1902 -0.9651
vn -0.3679 0.1454 -0.9184
vn -0.3509 0.3215 -0.8795
vn -0.1746 0.3678 -0.9134
vn -0.9597 0.1827 -0.2137
vn -0.9181 0.3535 -0.1795
vn -0.8868 0.3193 -0.3342
vn -0.9059 0.1683 -0.3886
vn -0.1838 0.9824 -0.0332
vn -0.1654 0.9608 -0.2226
vn -0.3538 0.9138 -0.1993
vn -0.3744 0.9272 -0.0084
vn -0.9490 -0.1625 0.2700
vn -0.8951 -0.3399 0.2884
vn -0.8502 -0.2916 0.4384
vn -0.8876 -0.1294 0.4420
vn -0.1667 -0.9020 0.3983
vn -0.1465 -0.6020 0.7849
vn -0.2981 -0.5806 0.7577
vn -0.3306 -0.8562 0.3970
vn -0.1671 -0.1522 0.9741
vn -0.3296 -0.1529 0.9317
vn 0.9491 -0.1625 0.2700
vn 0.8877 -0.1294 0.4418
vn 0.8502 -0.2916 0.4384
vn 0.8951 -0.3399 0.2884
vn 0.1667 -0.1522 0.9742
vn 0.1465 -0.6020 0.7849
vn 0.2981 -0.5806 0.7577
vn 0.3289 -0.1530 0.9319
vn 0.1667 -0.9020 0.3983
vn 0.3306 -0.8562 0.3970
vn 0.1838 0.9824 0.0332
vn 0.1654 0.9608 0.2226
vn 0.3538 0.9138 0.1993
vn 0.3744 0.9272 0.0084
vn 0.1799 0.1902 0.9651
vn 0.3679 0.1454 0.9184
vn 0.3509 0.3215 0.8795
vn 0.1746 0.3678 0.9134
vn 0.9597 0.1827 0.2137
vn 0.9181 0.3535 0.1795
vn 0.8868 0.3193 0.3342
vn 0.9059 0.1683 0.3886
vn -0.9603 0.1814 0.2121
vn -0.9064 0.1750 0.3846
vn -0.8876 0.3219 0.3295
vn -0.9175 0.3543 0.1805
vn -0.1787 0.1887 0.9657
vn -0.1669 0.3702 0.9138
vn -0.3396 0.3264 0.8822
vn -0.3632 0.1517 0.9193
vn -0.1823 0.9827 0.0315
vn -0.3699 0.9290 0.0108
vn -0.3428 0.9180 0.1992
vn -0.1578 0.9621 0.2226
vn -0.1913 -0.9525 -0.2370
vn -0.3764 -0.8956 -0.2373
vn -0.9153 -0.3737 -0.1505
vn -0.9747 -0.1926 -0.1133
vn 0.9747 -0.1926 -0.1133
vn 0.9153 -0.3737 -0.1505
vn 0.3764 -0.8956 -0.2373
vn 0.1913 -0.9525 -0.2370
vn 0.1951 0.9709 0.1387
vn 0.3819 0.9169 0.1156
vn 0.9243 0.3816 -0.0034
vn 0.9806 0.1923 -0.0382
vn -0.9806 0.1922 -0.0382
vn -0.9244 0.3813 -0.0035
vn -0.3815 0.9171 0.1157
vn -0.1948 0.9710 0.1388
vn -0.1926 -0.9604 -0.2014
vn -0.3789 -0.9028 -0.2036
vn -0.9170 -0.3749 -0.1364
vn -0.9754 -0.1932 -0.1058
vn 0.9754 -0.1932 -0.1058
vn 0.9170 -0.3749 -0.1364
vn 0.3789 -0.9028 -0.2036
vn 0.1926 -0.9604 -0.2014
vn 0.1955 0.9755 0.1011
vn 0.3826 0.9204 0.0802
vn 0.9242 0.3815 -0.0186
vn 0.9803 0.1922 -0.0456
vn -0.9803 0.1922 -0.0456
vn -0.9242 0.3815 -0.0186
vn -0.3826 0.9204 0.0802
vn -0.1955 0.9755 0.1011
vn -0.1937 -0.9671 -0.1649
vn -0.3809 -0.9090 -0.1692
vn -0.9185 -0.3761 -0.1221
vn -0.9761 -0.1939 -0.0983
vn 0.9761 -0.1939 -0.0983
vn 0.9185 -0.3761 -0.1221
vn 0.3809 -0.9090 -0.1692
vn 0.1937 -0.9671 -0.1649
vn 0.1958 0.9786 0.0630
vn 0.3832 0.9226 0.0445
vn 0.9237 0.3816 -0.0337
vn 0.9799 0.1922 -0.0530
vn -0.9799 0.1922 -0.0530
vn -0.9237 0.3816 -0.0337
vn -0.3832 0.9226 0.0445
vn -0.1958 0.9786 0.0630
vn -0.1946 -0.9725 -0.1278
vn -0.3826 -0.9142 -0.1341
vn -0.9199 -0.3771 -0.1078
vn -0.9767 -0.1945 -0.0907
vn 0.9767 -0.1945 -0.0907
vn 0.9199 -0.3771 -0.1078
vn 0.3826 -0.9142 -0.1341
vn 0.1946 -0.9725 -0.1278
vn 0.1959 0.9803 0.0246
vn 0.3833 0.9236 0.0085
vn 0.9231 0.3816 -0.0487
vn 0.9795 0.1922 -0.0604
vn -0.9795 0.1922 -0.0604
vn -0.9231 0.3816 -0.0487
vn -0.3833 0.9236 0.0085
vn -0.1959 0.9803 0.0246
vn -0.1952 -0.9766 -0.0901
vn -0.3838 -0.9181 -0.0985
vn -0.9211 -0.3780 -0.0933
vn -0.9773 -0.1949 -0.0831
vn 0.9773 -0.1949 -0.0831
vn 0.9211 -0.3780 -0.0933
vn 0.3838 -0.9181 -0.0985
vn 0.1952 -0.9766 -0.0901
vn 0.1958 0.9805 -0.0139
vn 0.3831 0.9233 -0.0275
vn 0.9222 0.3814 -0.0638
vn 0.9790 0.1921 -0.0679
vn -0.9790 0.1921 -0.0679
vn -0.9222 0.3814 -0.0638
vn -0.3831 0.9233 -0.0275
vn -0.1958 0.9805 -0.0139
vn -0.2034 -0.9791 -0.0000
vn -0.3856 -0.9227 -0.0000
vn -0.9251 -0.3798 -0.0000
vn -0.9800 -0.1988 -0.0000
vn 0.9800 -0.1988 -0.0000
vn 0.9251 -0.3798 -0.0000
vn 0.3856 -0.9227 -0.0000
vn 0.2034 -0.9791 -0.0000
vn 0.2031 0.9792 -0.0000
vn 0.3832 0.9237 -0.0000
vn 0.9241 0.3822 -0.0000
vn 0.9807 0.1956 -0.0000
vn -0.9807 0.1956 -0.0000
vn -0.9241 0.3822 -0.0000
vn -0.3832 0.9237 -0.0000
vn -0.2031 0.9792 -0.0000
vn -0.1952 -0.9766 0.0901
vn -0.3838 -0.9181 0.0985
vn -0.9211 -0.3780 0.0933
vn -0.9773 -0.1949 0.0831
vn 0.9773 -0.1949 0.0831
vn 0.9211 -0.3780 0.0933
vn 0.3838 -0.9181 0.0985
vn 0.1952 -0.9766 0.0901
vn 0.1958 0.9805 0.0139
vn 0.3831 0.9233 0.0275
vn 0.9222 0.3814 0.0638
vn 0.9790 0.1921 0.0679
vn -0.9790 0.1921 0.0679
vn -0.9222 0.3814 0.0638
vn -0.3831 0.9233 0.0275
vn -0.1958 0.9805 0.0139
vn -0.1946 -0.9725 0.1278
vn -0.3826 -0.9142 0.1341
vn -0.9199 -0.3771 0.1078
vn -0.9767 -0.1945 0.0907
vn 0.9767 -0.1945 0.0907
vn 0.9199 -0.3771 0.1078
vn 0.3826 -0.9142 0.1341
vn 0.1946 -0.9725 0.1278
vn 0.1959 0.9803 -0.0246
vn 0.3833 0.9236 -0.0085
vn 0.9231 0.3816 0.0487
vn 0.9795 0.1922 0.0604
vn -0.9795 0.1922 0.0604
vn -0.9231 0.3816 0.0487
vn -0.3833 0.9236 -0.0085
vn -0.1959 0.9803 -0.0246
vn -0.1937 -0.9671 0.1649
vn -0.3809 -0.9090 0.1692
vn -0.9185 -0.3761 0.1221
vn -0.9761 -0.1939 0.0983
vn 0.9761 -0.1939 0.0983
vn 0.9185 -0.3761 0.1221
vn 0.3809 -0.9090 0.1692
vn 0.1937 -0.9671 0.1649
vn 0.1958 0.9786 -0.0630
vn 0.3832 0.9226 -0.0445
vn 0.9237 0.3816 0.0337
vn 0.9799 0.1922 0.0530
vn -0.9799 0.1922 0.0530
vn -0.9237 0.3816 0.0337
vn -0.3832 0.9226 -0.0445
vn -0.1958 0.9786 -0.0630
vn -0.1926 -0.9604 0.2014
vn -0.3789 -0.9028 0.2036
vn -0.9170 -0.3749 0.1364
vn -0.9754 -0.1932 0.1058
vn 0.9754 -0.1932 0.1058
vn 0.9170 -0.3749 0.1364
vn 0.3789 -0.9028 0.2036
vn 0.1926 -0.9604 0.2014
vn 0.1955 0.9755 -0.1011
vn 0.3826 0.9204 -0.0802
vn 0.9242 0.3815 0.0186
vn 0.9803 0.1922 0.0456
vn -0.9803 0.1922 0.0456
vn -0.9242 0.3815 0.0186
vn -0.3826 0.9204 -0.0802
vn -0.1955 0.9755 -0.1011
vn -0.1913 -0.9525 0.2370
vn -0.3764 -0.8956 0.2373
vn -0.9153 -0.3737 0.1505
vn -0.9747 -0.1926 0.1133
vn 0.9747 -0.1926 0.1133
vn 0.9153 -0.3737 0.1505
vn 0.3764 -0.8956 0.2373
vn 0.1913 -0.9525 0.2370
vn 0.1948 0.9710 -0.1388
vn 0.3815 0.9171 -0.1157
vn 0.9244 0.3813 0.0035
vn 0.9806 0.1922 0.0382
vn -0.9806 0.1923 0.0382
vn -0.9243 0.3816 0.0034
vn -0.3819 0.9169 -0.1156
vn -0.1951 0.9709 -0.1387
vn -0.1550 0.0080 -0.9879
vn -0.0000 0.0081 -1.0000
vn -0.0000 0.0080 -1.0000
vn -0.1586 0.0079 -0.9873
vn 0.1550 0.0080 -0.9879
vn 0.1586 0.0079 -0.9873
vn 0.1550 0.0080 0.9879
vn -0.0000 0.0081 1.0000
vn -0.0000 0.0080 1.0000
vn 0.1586 0.0079 0.9873
vn -0.1550 0.0080 0.9879
vn -0.1586 0.0079 0.9873
vn -0.1627 0.0079 -0.9866
vn 0.1627 0.0079 -0.9866
vn 0.1627 0.0079 0.9866
vn -0.1627 0.0079 0.9866
vn -0.0000 0.0079 -1.0000
vn -0.1675 0.0078 -0.9858
vn 0.1675 0.0078 -0.9858
vn -0.0000 0.0079 1.0000
vn 0.1675 0.0078 0.9858
vn -0.1675 0.0078 0.9858
vn -0.0000 0.0078 -1.0000
vn -0.1730 0.0077 -0.9849
vn 0.1730 0.0077 -0.9849
vn -0.0000 0.0078 1.0000
vn 0.1730 0.0077 0.9849
vn -0.1730 0.0077 0.9849
vn -0.1796 0.0076 -0.9837
vn 0.1796 0.0076 -0.9837
vn 0.1796 0.0076 0.9837
vn -0.1796 0.0076 0.9837
vn -0.0000 0.0077 -1.0000
vn -0.1875 0.0075 -0.9822
vn 0.1875 0.0075 -0.9822
vn -0.0000 0.0077 1.0000
vn 0.1875 0.0075 0.9822
vn -0.1875 0.0075 0.9822
vn -0.0000 0.0372 -0.9993
vn -0.1905 0.0355 -0.9810
vn 0.1905 0.0355 -0.9810
vn -0.0000 0.0372 0.9993
vn 0.1905 0.0355 0.9810
vn -0.1905 0.0355 0.9810
vn -0.0000 0.0540 -0.9985
vn -0.1847 0.0537 -0.9813
vn 0.1847 0.0537 -0.9813
vn -0.0000 0.0540 0.9985
vn 0.1847 0.0537 0.9813
vn -0.1847 0.0537 0.9813
vn -0.0000 0.0434 -0.9991
vn -0.1800 0.0426 -0.9827
vn 0.1800 0.0426 -0.9827
vn -0.0000 0.0434 0.9991
vn 0.1800 0.0426 0.9827
vn -0.1800 0.0426 0.9827
vn -0.0000 0.0484 -0.9988
vn -0.1800 0.0475 -0.9825
vn 0.1800 0.0475 -0.9825
vn -0.0000 0.0484 0.9988
vn 0.1800 0.0475 0.9825
vn -0.1800 0.0475 0.9825
vn -0.0000 0.0573 -0.9984
vn -0.1854 0.0559 -0.9811
vn 0.1854 0.0559 -0.9811
vn -0.0000 0.0573 0.9984
vn 0.1854 0.0559 0.9811
vn -0.1854 0.0559 0.9811
vn 0.6624 -0.1885 0.7250
vn 0.5497 -0.3900 0.7387
vn 0.6982 -0.4263 0.5751
vn 0.7839 -0.1721 0.5965
vn 0.1952 -0.9808 -0.0000
vn 0.2936 -0.9473 -0.1279
vn 0.3474 -0.9377 -0.0000
vn 0.2936 -0.9473 0.1279
vn 0.6624 -0.1885 -0.7250
vn 0.7839 -0.1721 -0.5965
vn 0.6982 -0.4263 -0.5751
vn 0.5498 -0.3900 -0.7387
vn -0.1952 -0.9808 -0.0000
vn -0.2936 -0.9473 0.1279
vn -0.3473 -0.9377 -0.0000
vn -0.2936 -0.9473 -0.1279
vn -0.6624 -0.1885 0.7250
vn -0.7839 -0.1721 0.5965
vn -0.6982 -0.4263 0.5751
vn -0.5498 -0.3900 0.7387
vn -0.6624 -0.1885 -0.7250
vn -0.5498 -0.3900 -0.7387
vn -0.6982 -0.4263 -0.5751
vn -0.7839 -0.1721 -0.5965
vn 0.7680 0.3341 0.5463
vn 0.9317 0.3631 -0.0000
vn 0.8724 0.4888 -0.0000
vn 0.7643 0.4918 0.4171
vn 0.7681 0.3341 -0.5463
vn 0.7644 0.4917 -0.4170
vn 0.2358 0.9718 -0.0000
vn 0.3565 0.9272 0.1152
vn 0.4308 0.9025 -0.0000
vn 0.3565 0.9272 -0.1152
vn -0.7681 0.3341 0.5463
vn -0.7645 0.4916 0.4170
vn -0.8725 0.4887 -0.0000
vn -0.9318 0.3631 -0.0000
vn -0.2358 0.9718 -0.0000
vn -0.3563 0.9272 -0.1152
vn -0.4305 0.9026 -0.0000
vn -0.3563 0.9272 0.1152
vn -0.7681 0.3341 -0.5463
vn -0.7644 0.4917 -0.4171
vn 0.6746 0.0346 -0.7373
vn 0.8148 0.0434 -0.5781
vn 0.8148 0.0434 0.5781
vn 0.6746 0.0346 0.7373
vn 0.0414 -0.9745 -0.2204
vn 0.0664 -0.9305 -0.3602
vn 0.1724 -0.3886 -0.9051
vn 0.1808 -0.1823 -0.9665
vn -0.0000 -0.9810 -0.1943
vn -0.0000 -0.9250 -0.3799
vn -0.0000 -0.3802 -0.9249
vn -0.0000 -0.1935 -0.9811
vn -0.0414 -0.9745 -0.2204
vn -0.0664 -0.9305 -0.3602
vn -0.1724 -0.3886 -0.9051
vn -0.1808 -0.1823 -0.9665
vn -0.6746 0.0346 0.7373
vn -0.8148 0.0434 0.5781
vn -0.8148 0.0434 -0.5781
vn -0.6746 0.0346 -0.7373
vn -0.0414 -0.9745 0.2204
vn -0.0664 -0.9305 0.3602
vn -0.1724 -0.3886 0.9051
vn -0.1808 -0.1823 0.9665
vn -0.0000 -0.9810 0.1943
vn -0.0000 -0.9250 0.3799
vn -0.0000 -0.3802 0.9249
vn -0.0000 -0.1935 0.9811
vn 0.0414 -0.9745 0.2204
vn 0.0664 -0.9305 0.3602
vn 0.1724 -0.3886 0.9051
vn 0.1808 -0.1823 0.9665
vn 0.6824 0.0350 -0.7301
vn 0.8211 0.0438 -0.5691
vn 0.8211 0.0438 0.5691
vn 0.6824 0.0350 0.7301
vn -0.6824 0.0350 0.7301
vn -0.8211 0.0438 0.5691
vn -0.8211 0.0438 -0.5691
vn -0.6824 0.0350 -0.7301
vn 0.6911 0.0353 -0.7219
vn 0.8280 0.0441 -0.5590
vn 0.8280 0.0441 0.5590
vn 0.6911 0.0353 0.7219
vn -0.6911 0.0353 0.7219
vn -0.8280 0.0441 0.5590
vn -0.8280 0.0441 -0.5590
vn -0.6911 0.0353 -0.7219
vn 0.7007 0.0357 -0.7125
vn 0.8356 0.0445 -0.5476
vn 0.8356 0.0445 0.5476
vn 0.7007 0.0357 0.7125
vn -0.7007 0.0357 0.7125
vn -0.8356 0.0445 0.5476
vn -0.8356 0.0445 -0.5476
vn -0.7007 0.0357 -0.7125
vn 0.7115 0.0362 -0.7017
vn 0.8438 0.0450 -0.5347
vn 0.8438 0.0450 0.5347
vn 0.7115 0.0362 0.7017
vn -0.7115 0.0362 0.7017
vn -0.8438 0.0450 0.5347
vn -0.8438 0.0450 -0.5347
vn -0.7115 0.0362 -0.7017
vn 0.7237 0.0367 -0.6891
vn 0.8529 0.0454 -0.5201
vn 0.8529 0.0454 0.5201
vn 0.7237 0.0367 0.6891
vn -0.7237 0.0367 0.6891
vn -0.8529 0.0454 0.5201
vn -0.8529 0.0454 -0.5201
vn -0.7237 0.0367 -0.6891
vn 0.7375 0.0373 -0.6743
vn 0.8630 0.0460 -0.5032
vn 0.8630 0.0460 0.5032
vn 0.7375 0.0373 0.6743
vn -0.7375 0.0373 0.6743
vn -0.8630 0.0460 0.5032
vn -0.8630 0.0460 -0.5032
vn -0.7375 0.0373 -0.6743
vn 0.7432 0.0710 -0.6653
vn 0.8644 0.0797 -0.4965
vn 0.8644 0.0797 0.4965
vn 0.7432 0.0710 0.6653
vn -0.7432 0.0710 0.6653
vn -0.8644 0.0797 0.4965
vn -0.8644 0.0797 -0.4965
vn -0.7432 0.0710 -0.6653
vn 0.7290 0.1038 -0.6766
vn 0.8540 0.1177 -0.5068
vn 0.8540 0.1177 0.5068
vn 0.7290 0.1038 0.6766
vn -0.7290 0.1038 0.6766
vn -0.8540 0.1177 0.5068
vn -0.8540 0.1177 -0.5068
vn -0.7290 0.1038 -0.6766
vn 0.7211 0.1071 -0.6845
vn 0.8477 0.1257 -0.5154
vn 0.8477 0.1257 0.5154
vn 0.7211 0.1071 0.6845
vn -0.7211 0.1071 0.6845
vn -0.8477 0.1257 0.5154
vn -0.8477 0.1257 -0.5154
vn -0.7211 0.1071 -0.6845
vn 0.7202 0.1194 -0.6834
vn 0.8461 0.1398 -0.5144
vn 0.8461 0.1398 0.5144
vn 0.7202 0.1194 0.6834
vn -0.7202 0.1194 0.6834
vn -0.8461 0.1398 0.5144
vn -0.8461 0.1398 -0.5144
vn -0.7202 0.1194 -0.6834
vn 0.7450 0.1540 -0.6490
vn 0.8720 0.1799 -0.4552
vn 0.8720 0.1799 0.4552
vn 0.7450 0.1540 0.6490
vn -0.7450 0.1540 0.6490
vn -0.8720 0.1799 0.4552
vn -0.8720 0.1799 -0.4552
vn -0.7450 0.1540 -0.6490
vn 0.6392 0.3119 -0.7029
vn 0.6783 0.5075 -0.5313
vn 0.0867 0.9537 -0.2880
vn 0.0553 0.9773 -0.2046
vn -0.2418 0.2163 -0.9459
vn -0.0000 0.2675 -0.9636
vn -0.0000 0.4467 -0.8947
vn -0.3019 0.4259 -0.8529
vn 0.0001 0.9351 -0.3543
vn -0.0000 0.9835 -0.1811
vn 0.2418 0.2163 -0.9459
vn 0.3019 0.4259 -0.8529
vn -0.0867 0.9537 -0.2880
vn -0.0553 0.9773 -0.2046
vn -0.6392 0.3119 -0.7030
vn -0.6782 0.5076 -0.5314
vn -0.6392 0.3119 0.7029
vn -0.6783 0.5075 0.5313
vn -0.0867 0.9537 0.2880
vn -0.0553 0.9773 0.2046
vn 0.2418 0.2163 0.9459
vn -0.0000 0.2675 0.9636
vn -0.0000 0.4467 0.8947
vn 0.3019 0.4259 0.8529
vn -0.0001 0.9351 0.3543
vn -0.0001 0.9835 0.1811
vn -0.2418 0.2163 0.9459
vn -0.3019 0.4259 0.8529
vn 0.0867 0.9537 0.2880
vn 0.0553 0.9773 0.2046
vn 0.6780 0.5077 0.5315
vn 0.6391 0.3119 0.7030
vn 0.5041 0.0243 0.8633
vn 0.5041 0.0243 -0.8633
vn -0.5041 0.0243 -0.8633
vn -0.5041 0.0243 0.8633
vn 0.5129 0.0246 0.8581
vn 0.5129 0.0246 -0.8581
vn -0.5129 0.0246 0.8581
vn -0.5129 0.0246 -0.8581
vn 0.5228 0.0249 0.8521
vn 0.5228 0.0249 -0.8521
vn -0.5228 0.0249 0.8521
vn -0.5228 0.0249 -0.8521
vn 0.5341 0.0253 0.8451
vn 0.5341 0.0253 -0.8451
vn -0.5341 0.0253 0.8451
vn -0.5341 0.0253 -0.8451
vn 0.5469 0.0258 0.8368
vn 0.5469 0.0258 -0.8368
vn -0.5469 0.0258 0.8368
vn -0.5469 0.0258 -0.8368
vn 0.5617 0.0263 0.8269
vn 0.5617 0.0263 -0.8269
vn -0.5617 0.0263 0.8269
vn -0.5617 0.0263 -0.8269
vn 0.5788 0.0269 0.8150
vn 0.5788 0.0269 -0.8150
vn -0.5788 0.0269 0.8150
vn -0.5788 0.0269 -0.8150
vn 0.5845 0.0584 0.8093
vn 0.5845 0.0584 -0.8093
vn -0.5845 0.0584 0.8093
vn -0.5845 0.0584 -0.8093
vn 0.5708 0.0846 0.8167
vn 0.5708 0.0846 -0.8167
vn -0.5708 0.0846 0.8167
vn -0.5708 0.0846 -0.8167
vn 0.5611 0.0834 0.8235
vn 0.5611 0.0834 -0.8235
vn -0.5611 0.0834 0.8235
vn -0.5611 0.0834 -0.8235
vn 0.5606 0.0931 0.8228
vn 0.5606 0.0931 -0.8228
vn -0.5606 0.0931 0.8228
vn -0.5606 0.0931 -0.8228
vn 0.5668 0.1158 0.8157
vn 0.5668 0.1158 -0.8157
vn -0.5668 0.1158 0.8157
vn -0.5668 0.1158 -0.8157
s 1
f 1//1 2//2 16//3 15//4
f 2//2 3//5 17//6 16//3
f 3//5 4//7 18//8 17//6
f 4//7 5//9 19//10 18//8
f 5//9 6//11 20//12 19//10
f 6//11 7//13 21//14 20//12
f 7//13 8//15 22//16 21//14
f 8//15 9//17 23//18 22//16
f 9//17 10//19 24//20 23//18
f 10//19 11//21 25//22 24//20
f 11//21 12//23 26//24 25//22
f 12//23 13//25 27//26 26//24
f 13//25 14//27 28//28 27//26
f 14//27 1//1 15//4 28//28
f 15//4 16//3 30//29 29//30
f 16//3 17//6 31//31 30//29
f 17//6 18//8 32//32 31//31
f 18//8 19//10 33//33 32//32
f 19//10 20//12 34//34 33//33
f 20//12 21//14 35//35 34//34
f 21//14 22//16 36//36 35//35
f 22//16 23//18 37//37 36//36
f 23//18 24//20 38//38 37//37
f 24//20 25//22 39//39 38//38
f 25//22 26//24 40//40 39//39
f 26//24 27//26 41//41 40//40
f 27//26 28//28 42//42 41//41
f 28//28 15//4 29//30 42//42
f 29//30 30//29 44//43 43//44
f 30//29 31//31 45//45 44//43
f 31//31 32//32 46//46 45//45
f 32//32 33//33 47//47 46//46
f 33//33 34//34 48//48 47//47
f 34//34 35//35 49//49 48//48
f 35//35 36//36 50//50 49//49
f 36//36 37//37 51//51 50//50
f 37//37 38//38 52//52 51//51
f 38//38 39//39 53//53 52//52
f 39//39 40//40 54//54 53//53
f 40//40 41//41 55//55 54//54
f 41//41 42//42 56//56 55//55
f 42//42 29//30 43//44 56//56
f 43//44 44//43 58//57 57//58
f 44//43 45//45 59//59 58//57
f 45//45 46//46 60//60 59//59
f 46//46 47//47 61//61 60//60
f 47//47 48//48 62//62 61//61
f 48//48 49//49 63//63 62//62
f 49//49 50//50 64//64 63//63
f 50//50 51//51 65//65 64//64
f 51//51 52//52 66//66 65//65
f 52//52 53//53 67//67 66//66
f 53//53 54//54 68//68 67//67
f 54//54 55//55 69//69 68//68
f 55//55 56//56 70//70 69//69
f 56//56 43//44 57//58 70//70
f 57//58 58//57 72//71 71//72
f 58//57 59//59 73//73 72//71
f 59//59 60//60 74//74 73//73
f 60//60 61//61 75//75 74//74
f 61//61 62//62 76//76 75//75
f 62//62 63//63 77//77 76//76
f 63//63 64//64 78//78 77//77
f 64//64 65//65 79//79 78//78
f 65//65 66//66 80//80 79//79
f 66//66 67//67 81//81 80//80
f 67//67 68//68 82//82 81//81
f 68//68 69//69 83//83 82//82
f 69//69 70//70 84//84 83//83
f 70//70 57//58 71//72 84//84
f 71//72 72//71 86//85 85//86
f 72//71 73//73 87//87 86//85
f 73//73 74//74 88//88 87//87
f 74//74 75//75 89//89 88//88
f 75//75 76//76 90//90 89//89
f 76//76 77//77 91//91 90//90
f 77//77 78//78 92//92 91//91
f 78//78 79//79 93//93 92//92
f 79//79 80//80 94//94 93//93
f 80//80 81//81 95//95 94//94
f 81//81 82//82 96//96 95//95
f 82//82 83//83 97//97 96//96
f 83//83 84//84 98//98 97//97
f 84//84 71//72 85//86 98//98
f 85//86 86//85 100//99 99//100
f 86//85 87//87 101//101 100//99
f 87//87 88//88 102//102 101//101
f 88//88 89//89 103//103 102//102
f 89//89 90//90 104//104 103//103
f 90//90 91//91 105//105 104//104
f 91//91 92//92 106//106 105//105
f 92//92 93//93 107//107 106//106
f 93//93 94//94 108//108 107//107
f 94//94 95//95 109//109 108//108
f 95//95 96//96 110//110 109//109
f 96//96 97//97 111//111 110//110
f 97//97 98//98 112//112 111//111
f 98//98 85//86 99//100 112//112
f 99//100 100//99 114//113 113//114
f 100//99 101//101 115//115 114//113
f 101//101 102//102 116//116 115//115
f 102//102 103//103 117//117 116//116
f 103//103 104//104 118//118 117//117
f 104//104 105//105 119//119 118//118
f 105//105 106//106 120//120 119//119
f 106//106 107//107 121//121 120//120
f 107//107 108//108 122//122 121//121
f 108//108 109//109 123//123 122//122
f 109//109 110//110 124//124 123//123
f 110//110 111//111 125//125 124//124
f 111//111 112//112 126//126 125//125
f 112//112 99//100 113//114 126//126
f 113//114 114//113 128//127 127//128
f 114//113 115//115 129//129 128//127
f 115//115 116//116 130//130 129//129
f 116//116 117//117 131//131 130//130
f 117//117 118//118 132//132 131//131
f 118//118 119//119 133//133 132//132
f 119//119 120//120 134//134 133//133
f 120//120 121//121 135//135 134//134
f 121//121 122//122 136//136 135//135
f 122//122 123//123 137//137 136//136
f 123//123 124//124 138//138 137//137
f 124//124 125//125 139//139 138//138
f 125//125 126//126 140//140 139//139
f 126//126 113//114 127//128 140//140
f 127//128 128//127 142//141 141//142
f 128//127 129//129 143//143 142//141
f 129//129 130//130 144//144 143//143
f 130//130 131//131 145//145 144//144
f 131//131 132//132 146//146 145//145
f 132//132 133//133 147//147 146//146
f 133//133 134//134 148//148 147//147
f 134//134 135//135 149//149 148//148
f 135//135 136//136 150//150 149//149
f 136//136 137//137 151//151 150//150
f 137//137 138//138 152//152 151//151
f 138//138 139//139 153//153 152//152
f 139//139 140//140 154//154 153//153
f 140//140 127//128 141//142 154//154
f 141//142 142//141 156//155 155//156
f 142//141 143//143 157//157 156//155
f 143//143 144//144 158//158 157//157
f 144//144 145//145 159//159 158//158
f 145//145 146//146 160//160 159//159
f 146//146 147//147 161//161 160//160
f 147//147 148//148 162//162 161//161
f 148//148 149//149 163//163 162//162
f 149//149 150//150 164//164 163//163
f 150//150 151//151 165//165 164//164
f 151//151 152//152 166//166 165//165
f 152//152 153//153 167//167 166//166
f 153//153 154//154 168//168 167//167
f 154//154 141//142 155//156 168//168
f 155//156 156//155 170//169 169//170
f 156//155 157//157 171//171 170//169
f 157//157 158//158 172//172 171//171
f 158//158 159//159 173//173 172//172
f 159//159 160//160 174//174 173//173
f 160//160 161//161 175//175 174//174
f 161//161 162//162 176//176 175//175
f 162//162 163//163 177//177 176//176
f 163//163 164//164 178//178 177//177
f 164//164 165//165 179//179 178//178
f 165//165 166//166 180//180 179//179
f 166//166 167//167 181//181 180//180
f 167//167 168//168 182//182 181//181
f 168//168 155//156 169//170 182//182
f 169//170 170//169 184//183 183//184
f 170//169 171//171 185//185 184//183
f 171//171 172//172 186//186 185//185
f 172//172 173//173 187//187 186//186
f 173//173 174//174 188//188 187//187
f 174//174 175//175 189//189 188//188
f 175//175 176//176 190//190 189//189
f 176//176 177//177 191//191 190//190
f 177//177 178//178 192//192 191//191
f 178//178 179//179 193//193 192//192
f 179//179 180//180 194//194 193//193
f 180//180 181//181 195//195 194//194
f 181//181 182//182 196//196 195//195
f 182//182 169//170 183//184 196//196
f 183//184 184//183 198//197 197//198
f 184//183 185//185 199//199 198//197
f 185//185 186//186 200//200 199//199
f 186//186 187//187 201//201 200//200
f 187//187 188//188 202//202 201//201
f 188//188 189//189 203//203 202//202
f 189//189 190//190 204//204 203//203
f 190//190 191//191 205//205 204//204
f 191//191 192//192 206//206 205//205
f 192//192 193//193 207//207 206//206
f 193//193 194//194 208//208 207//207
f 194//194 195//195 209//209 208//208
f 195//195 196//196 210//210 209//209
f 196//196 183//184 197//198 210//210
f 197//198 198//197 212//211 211//212
f 198//197 199//199 213//213 212//211
f 199//199 200//200 214//214 213//213
f 200//200 201//201 215//215 214//214
f 201//201 202//202 216//216 215//215
f 202//202 203//203 217//217 216//216
f 203//203 204//204 218//218 217//217
f 204//204 205//205 219//219 218//218
f 205//205 206//206 220//220 219//219
f 206//206 207//207 221//221 220//220
f 207//207 208//208 222//222 221//221
f 208//208 209//209 223//223 222//222
f 209//209 210//210 224//224 223//223
f 210//210 197//198 211//212 224//224
f 211//212 212//211 226//225 225//226
f 212//211 213//213 227//227 226//225
f 213//213 214//214 228//228 227//227
f 214//214 215//215 229//229 228//228
f 215//215 216//216 230//230 229//229
f 216//216 217//217 231//231 230//230
f 217//217 218//218 232//232 231//231
f 218//218 219//219 233//233 232//232
f 219//219 220//220 234//234 233//233
f 220//220 221//221 235//235 234//234
f 221//221 222//222 236//236 235//235
f 222//222 223//223 237//237 236//236
f 223//223 224//224 238//238 237//237
f 224//224 211//212 225//226 238//238
f 239//239 242//240 244//241 241//242
f 241//243 244//244 243//245 240//246
f 242//240 245//247 247//248 244//241
f 244//244 247//249 246//250 243//245
f 245//247 248//251 250//252 247//248
f 247//249 250//253 249//254 246//250
f 248//251 251//255 253//256 250//252
f 250//253 253//257 252//258 249//254
f 251//255 254//259 256//260 253//256
f 253//257 256//261 255//262 252//258
f 254//259 257//263 259//264 256//260
f 256//261 259//265 258//266 255//262
f 257//263 260//267 262//268 259//264
f 259//265 262//269 261//270 258//266
f 260//267 263//271 265//272 262//268
f 262//269 265//273 264//274 261//270
f 263//271 266//275 268//276 265//272
f 265//273 268//277 267//278 264//274
f 266//275 269//279 271//280 268//276
f 268//277 271//281 270//282 267//278
f 269//279 272//283 274//284 271//280
f 271//281 274//285 273//286 270//282
f 272//283 275//287 277//288 274//284
f 274//285 277//289 276//290 273//286
f 275//287 278//291 280//292 277//288
f 277//289 280//293 279//294 276//290
f 240//246 279//294 280//293 241//243
f 241//242 280//292 278//291 239//239
f 282//295 285//296 286//297 283//298
f 283//299 286//300 284//301 281//302
f 285//296 288//303 289//304 286//297
f 286//300 289//305 287//306 284//301
f 288//303 291//307 292//308 289//304
f 289//305 292//309 290//310 287//306
f 291//307 294//311 295//312 292//308
f 292//309 295//313 293//314 290//310
f 294//311 297//315 298//316 295//312
f 295//313 298//317 296//318 293//314
f 297//315 300//319 301//320 298//316
f 298//317 301//321 299//322 296//318
f 300//319 303//323 304//324 301//320
f 301//321 304//325 302//326 299//322
f 303//323 306//327 307//328 304//324
f 304//325 307//329 305//330 302//326
f 306//327 309//331 310//332 307//328
f 307//329 310//333 308//334 305//330
f 309//331 312//335 313//336 310//332
f 310//333 313//337 311//338 308//334
f 312//335 315//339 316//340 313//336
f 313//337 316//341 314//342 311//338
f 315//339 318//343 319//344 316//340
f 316//341 319//345 317//346 314//342
f 318//343 321//347 322//348 319//344
f 319//345 322//349 320//350 317//346
f 281//302 320//350 322//349 283//299
f 283//298 322//348 321//347 282//295
f 279//294 240//246 1//1 14//27
f 240//246 243//245 2//2 1//1
f 278//291 275//287 272//283 269//279 266//275 263//271 260//267 257//263 254//259 251//255 248//251 245//247 242//240 239//239
f 243//245 246//250 3//5 2//2
f 246//250 249//254 4//7 3//5
f 249//254 252//258 5//9 4//7
f 252//258 255//262 6//11 5//9
f 255//262 258//266 7//13 6//11
f 258//266 261//270 8//15 7//13
f 261//270 264//274 9//17 8//15
f 264//274 267//278 10//19 9//17
f 267//278 270//282 11//21 10//19
f 270//282 273//286 12//23 11//21
f 273//286 276//290 13//25 12//23
f 276//290 279//294 14//27 13//25
f 238//238 225//226 282//295 321//347
f 225//226 226//225 285//296 282//295
f 281//302 284//301 287//306 290//310 293//314 296//318 299//322 302//326 305//330 308//334 311//338 314//342 317//346 320//350
f 226//225 227//227 288//303 285//296
f 227//227 228//228 291//307 288//303
f 228//228 229//229 294//311 291//307
f 229//229 230//230 297//315 294//311
f 230//230 231//231 300//319 297//315
f 231//231 232//232 303//323 300//319
f 232//232 233//233 306//327 303//323
f 233//233 234//234 309//331 306//327
f 234//234 235//235 312//335 309//331
f 235//235 236//236 315//339 312//335
f 236//236 237//237 318//343 315//339
f 237//237 238//238 321//347 318//343
f 323//351 324//352 338//353 337//354
f 324//352 325//355 339//356 338//353
f 325//355 326//357 340//358 339//356
f 326//357 327//359 341//360 340//358
f 327//359 328//361 342//362 341//360
f 328//361 329//363 343//364 342//362
f 329//363 330//365 344//366 343//364
f 330//365 331//367 345//368 344//366
f 331//367 332//369 346//370 345//368
f 332//369 333//371 347//372 346//370
f 333//371 334//373 348//374 347//372
f 334//373 335//375 349//376 348//374
f 335//375 336//377 350//378 349//376
f 336//377 323//351 337//354 350//378
f 337//354 338//353 352//379 351//380
f 338//353 339//356 353//381 352//379
f 339//356 340//358 354//382 353//381
f 340//358 341//360 355//383 354//382
f 341//360 342//362 356//384 355//383
f 342//362 343//364 357//385 356//384
f 343//364 344//366 358//386 357//385
f 344//366 345//368 359//387 358//386
f 345//368 346//370 360//388 359//387
f 346//370 347//372 361//389 360//388
f 347//372 348//374 362//390 361//389
f 348//374 349//376 363//391 362//390
f 349//376 350//378 364//392 363//391
f 350//378 337//354 351//380 364//392
f 351//380 352//379 366//393 365//394
f 352//379 353//381 367//395 366//393
f 353//381 354//382 368//396 367//395
f 354//382 355//383 369//397 368//396
f 355//383 356//384 370//398 369//397
f 356//384 357//385 371//399 370//398
f 357//385 358//386 372//400 371//399
f 358//386 359//387 373//401 372//400
f 359//387 360//388 374//402 373//401
f 360//388 361//389 375//403 374//402
f 361//389 362//390 376//404 375//403
f 362//390 363//391 377//405 376//404
f 363//391 364//392 378//406 377//405
f 364//392 351//380 365//394 378//406
f 365//394 366//393 380//407 379//408
f 366//393 367//395 381//409 380//407
f 367//395 368//396 382//410 381//409
f 368//396 369//397 383//411 382//410
f 369//397 370//398 384//412 383//411
f 370//398 371//399 385//413 384//412
f 371//399 372//400 386//414 385//413
f 372//400 373//401 387//415 386//414
f 373//401 374//402 388//416 387//415
f 374//402 375//403 389//417 388//416
f 375//403 376//404 390//418 389//417
f 376//404 377//405 391//419 390//418
f 377//405 378//406 392//420 391//419
f 378//406 365//394 379//408 392//420
f 379//408 380//407 394//421 393//422
f 380//407 381//409 395//423 394//421
f 381//409 382//410 396//424 395//423
f 382//410 383//411 397//425 396//424
f 383//411 384//412 398//426 397//425
f 384//412 385//413 399//427 398//426
f 385//413 386//414 400//428 399//427
f 386//414 387//415 401//429 400//428
f 387//415 388//416 402//430 401//429
f 388//416 389//417 403//431 402//430
f 389//417 390//418 404//432 403//431
f 390//418 391//419 405//433 404//432
f 391//419 392//420 406//434 405//433
f 392//420 379//408 393//422 406//434
f 393//422 394//421 408//435 407//436
f 394//421 395//423 409//437 408//435
f 395//423 396//424 410//438 409//437
f 396//424 397//425 411//439 410//438
f 397//425 398//426 412//440 411//439
f 398//426 399//427 413//441 412//440
f 399//427 400//428 414//442 413//441
f 400//428 401//429 415//443 414//442
f 401//429 402//430 416//444 415//443
f 402//430 403//431 417//445 416//444
f 403//431 404//432 418//446 417//445
f 404//432 405//433 419//447 418//446
f 405//433 406//434 420//448 419//447
f 406//434 393//422 407//436 420//448
f 407//436 408//435 422//449 421//450
f 408//435 409//437 423//451 422//449
f 409//437 410//438 424//452 423//451
f 410//438 411//439 425//453 424//452
f 411//439 412//440 426//454 425//453
f 412//440 413//441 427//455 426//454
f 413//441 414//442 428//456 427//455
f 414//442 415//443 429//457 428//456
f 415//443 416//444 430//458 429//457
f 416//444 417//445 431//459 430//458
f 417//445 418//446 432//460 431//459
f 418//446 419//447 433//461 432//460
f 419//447 420//448 434//462 433//461
f 420//448 407//436 421//450 434//462
f 421//450 422//449 436//463 435//464
f 422//449 423//451 437//465 436//463
f 423//451 424//452 438//466 437//465
f 424//452 425//453 439//467 438//466
f 425//453 426//454 440//468 439//467
f 426//454 427//455 441//469 440//468
f 427//455 428//456 442//470 441//469
f 428//456 429//457 443//471 442//470
f 429//457 430//458 444//472 443//471
f 430//458 431//459 445//473 444//472
f 431//459 432//460 446//474 445//473
f 432//460 433//461 447//475 446//474
f 433//461 434//462 448//476 447//475
f 434//462 421//450 435//464 448//476
f 435//464 436//463 450//477 449//478
f 436//463 437//465 451//479 450//477
f 437//465 438//466 452//480 451//479
f 438//466 439//467 453//481 452//480
f 439//467 440//468 454//482 453//481
f 440//468 441//469 455//483 454//482
f 441//469 442//470 456//484 455//483
f 442//470 443//471 457//485 456//484
f 443//471 444//472 458//486 457//485
f 444//472 445//473 459//487 458//486
f 445//473 446//474 460//488 459//487
f 446//474 447//475 461//489 460//488
f 447//475 448//476 462//490 461//489
f 448//476 435//464 449//478 462//490
f 449//478 450//477 464//491 463//492
f 450//477 451//479 465//493 464//491
f 451//479 452//480 466//494 465//493
f 452//480 453//481 467//495 466//494
f 453//481 454//482 468//496 467//495
f 454//482 455//483 469//497 468//496
f 455//483 456//484 470//498 469//497
f 456//484 457//485 471//499 470//498
f 457//485 458//486 472//500 471//499
f 458//486 459//487 473//501 472//500
f 459//487 460//488 474//502 473//501
f 460//488 461//489 475//503 474//502
f 461//489 462//490 476//504 475//503
f 462//490 449//478 463//492 476//504
f 336//377 335//375 334//373 333//371 332//369 331//367 330//365 329//363 328//361 327//359 326//357 325//355 324//352 323//351
f 463//492 464//491 465//493 466//494 467//495 468//496 469//497 470//498 471//499 472//500 473//501 474//502 475//503 476//504
f 477//505 480//506 481//507 483//508
f 478//509 482//510 481//511 480//512
f 479//513 483//514 481//511 482//510
f 484//515 487//516 488//517 490//518
f 485//519 489//520 488//521 487//522
f 486//523 490//518 488//517 489//524
f 491//525 494//526 495//527 497//528
f 492//529 496//530 495//531 494//532
f 493//533 497//534 495//535 496//536
f 498//537 501//538 502//539 504//540
f 499//541 503//542 502//543 501//544
f 500//545 504//546 502//547 503//548
f 637//549 640//550 641//551 643//552
f 638//553 642//554 641//555 640//556
f 639//557 643//558 641//555 642//554
f 644//559 647//560 648//561 650//562
f 645//563 649//564 648//565 647//566
f 646//567 650//568 648//565 649//564
f 651//569 654//570 655//571 657//572
f 652//573 656//574 655//575 654//576
f 653//577 657//578 655//579 656//580
f 658//581 661//582 662//583 664//584
f 659//585 663//586 662//587 661//588
f 660//589 664//590 662//591 663//592
f 479//513 505//593 507//594 483//514
f 483//508 507//595 506//596 477//505
f 478//509 484//515 490//518 482//510
f 482//510 490//518 486//523 479//513
f 485//519 508//597 510//598 489//520
f 489//524 510//599 509//600 486//523
f 484//515 491//525 497//528 487//516
f 487//522 497//534 493//533 485//519
f 492//529 511//601 513//602 496//530
f 496//536 513//603 512//604 493//533
f 491//525 498//537 504//540 494//526
f 494//532 504//546 500//545 492//529
f 499//541 514//605 516//606 503//542
f 503//548 516//607 515//608 500//545
f 477//505 499//541 501//544 480//506
f 480//512 501//538 498//537 478//509
f 505//593 517//609 519//610 507//594
f 507//595 519//611 518//612 506//596
f 508//597 520//613 522//614 510//598
f 510//599 522//615 521//616 509//600
f 511//601 523//617 525//618 513//602
f 513//603 525//619 524//620 512//604
f 514//605 526//621 528//622 516//606
f 516//607 528//623 527//624 515//608
f 517//609 529//625 531//626 519//610
f 519//611 531//627 530//628 518//612
f 520//613 532//629 534//630 522//614
f 522//615 534//631 533//632 521//616
f 523//617 535//633 537//634 525//618
f 525//619 537//635 536//636 524//620
f 526//621 538//637 540//638 528//622
f 528//623 540//639 539//640 527//624
f 529//625 541//641 543//642 531//626
f 531//627 543//643 542//644 530//628
f 532//629 544//645 546//646 534//630
f 534//631 546//647 545//648 533//632
f 535//633 547//649 549//650 537//634
f 537//635 549//651 548//652 536//636
f 538//637 550//653 552//654 540//638
f 540//639 552//655 551//656 539//640
f 541//641 553//657 555//658 543//642
f 543//643 555//659 554//660 542//644
f 544//645 556//661 558//662 546//646
f 546//647 558//663 557//664 545//648
f 547//649 559//665 561//666 549//650
f 549//651 561//667 560//668 548//652
f 550//653 562//669 564//670 552//654
f 552//655 564//671 563//672 551//656
f 553//657 565//673 567//674 555//658
f 555//659 567//675 566//676 554//660
f 556//661 568//677 570//678 558//662
f 558//663 570//679 569//680 557//664
f 559//665 571//681 573//682 561//666
f 561//667 573//683 572//684 560//668
f 562//669 574//685 576//686 564//670
f 564//671 576//687 575//688 563//672
f 565//673 577//689 579//690 567//674
f 567//675 579//691 578//692 566//676
f 568//677 580//693 582//694 570//678
f 570//679 582//695 581//696 569//680
f 571//681 583//697 585//698 573//682
f 573//683 585//699 584//700 572//684
f 574//685 586//701 588//702 576//686
f 576//687 588//703 587//704 575//688
f 577//689 589//705 591//706 579//690
f 579//691 591//707 590//708 578//692
f 580//693 592//709 594//710 582//694
f 582//695 594//711 593//712 581//696
f 583//697 595//713 597//714 585//698
f 585//699 597//715 596//716 584//700
f 586//701 598//717 600//718 588//702
f 588//703 600//719 599//720 587//704
f 589//705 601//721 603//722 591//706
f 591//707 603//723 602//724 590//708
f 592//709 604//725 606//726 594//710
f 594//711 606//727 605//728 593//712
f 595//713 607//729 609//730 597//714
f 597//715 609//731 608//732 596//716
f 598//717 610//733 612//734 600//718
f 600//719 612//735 611//736 599//720
f 601//721 613//737 615//738 603//722
f 603//723 615//739 614//740 602//724
f 604//725 616//741 618//742 606//726
f 606//727 618//743 617//744 605//728
f 607//729 619//745 621//746 609//730
f 609//731 621//747 620//748 608//732
f 610//733 622//749 624//750 612//734
f 612//735 624//751 623//752 611//736
f 613//737 625//753 627//754 615//738
f 615//739 627//755 626//756 614//740
f 616//741 628//757 630//758 618//742
f 618//743 630//759 629//760 617//744
f 619//745 631//761 633//762 621//746
f 621//747 633//763 632//764 620//748
f 622//749 634//765 636//766 624//750
f 624//751 636//767 635//768 623//752
f 625//753 638//553 640//556 627//754
f 627//755 640//550 637//549 626//756
f 628//757 644//559 650//562 630//758
f 630//759 650//568 646//567 629//760
f 638//553 646//567 649//564 642//554
f 642//554 649//564 645//563 639//557
f 631//761 651//569 657//572 633//762
f 633//763 657//578 653//577 632//764
f 644//559 653//577 656//580 647//560
f 647//566 656//574 652//573 645//563
f 634//765 658//581 664//584 636//766
f 636//767 664//590 660//589 635//768
f 651//569 660//589 663//592 654//570
f 654//576 663//586 659//585 652//573
f 639//557 659//585 661//588 643//558
f 643//552 661//582 658//581 637//549
f 499//541 477//505 506//596 514//605
f 479//513 486//523 509//600 505//593
f 498//537 491//525 484//515 478//509
f 485//519 493//533 512//604 508//597
f 492//529 500//545 515//608 511//601
f 514//605 506//596 518//612 526//621
f 505//593 509//600 521//616 517//609
f 508//597 512//604 524//620 520//613
f 511//601 515//608 527//624 523//617
f 526//621 518//612 530//628 538//637
f 517//609 521//616 533//632 529//625
f 520//613 524//620 536//636 532//629
f 523//617 527//624 539//640 535//633
f 538//637 530//628 542//644 550//653
f 529//625 533//632 545//648 541//641
f 532//629 536//636 548//652 544//645
f 535//633 539//640 551//656 547//649
f 550//653 542//644 554//660 562//669
f 541//641 545//648 557//664 553//657
f 544//645 548//652 560//668 556//661
f 547//649 551//656 563//672 559//665
f 562//669 554//660 566//676 574//685
f 553//657 557//664 569//680 565//673
f 556//661 560//668 572//684 568//677
f 559//665 563//672 575//688 571//681
f 574//685 566//676 578//692 586//701
f 565//673 569//680 581//696 577//689
f 568//677 572//684 584//700 580//693
f 571//681 575//688 587//704 583//697
f 586//701 578//692 590//708 598//717
f 577//689 581//696 593//712 589//705
f 580//693 584//700 596//716 592//709
f 583//697 587//704 599//720 595//713
f 598//717 590//708 602//724 610//733
f 589//705 593//712 605//728 601//721
f 592//709 596//716 608//732 604//725
f 595//713 599//720 611//736 607//729
f 610//733 602//724 614//740 622//749
f 601//721 605//728 617//744 613//737
f 604//725 608//732 620//748 616//741
f 607//729 611//736 623//752 619//745
f 622//749 614//740 626//756 634//765
f 613//737 617//744 629//760 625//753
f 616//741 620//748 632//764 628//757
f 619//745 623//752 635//768 631//761
f 634//765 626//756 637//549 658//581
f 625//753 629//760 646//567 638//553
f 628//757 632//764 653//577 644//559
f 631//761 635//768 660//589 651//569
f 639//557 645//563 652//573 659//585
f 665//769 666//770 672//771 671//772
f 666//770 667//773 673//774 672//771
f 668//775 669//776 675//777 674//778
f 669//776 670//779 676//780 675//777
f 671//772 672//771 678//771 677//781
f 672//771 673//774 679//782 678//771
f 674//778 675//777 681//777 680//783
f 675//777 676//780 682//784 681//777
f 677//781 678//771 684//785 683//786
f 678//771 679//782 685//787 684//785
f 680//783 681//777 687//788 686//789
f 681//777 682//784 688//790 687//788
f 683//786 684//785 690//791 689//792
f 684//785 685//787 691//793 690//791
f 686//789 687//788 693//794 692//795
f 687//788 688//790 694//796 693//794
f 689//792 690//791 696//791 695//797
f 690//791 691//793 697//798 696//791
f 692//795 693//794 699//794 698//799
f 693//794 694//796 700//800 699//794
f 695//797 696//791 702//801 701//802
f 696//791 697//798 703//803 702//801
f 698//799 699//794 705//804 704//805
f 699//794 700//800 706//806 705//804
f 701//802 702//801 708//807 707//808
f 702//801 703//803 709//809 708//807
f 704//805 705//804 711//810 710//811
f 705//804 706//806 712//812 711//810
f 707//808 708//807 714//813 713//814
f 708//807 709//809 715//815 714//813
f 710//811 711//810 717//816 716//817
f 711//810 712//812 718//818 717//816
f 713//814 714//813 720//819 719//820
f 714//813 715//815 721//821 720//819
f 716//817 717//816 723//822 722//823
f 717//816 718//818 724//824 723//822
f 719//820 720//819 726//825 725//826
f 720//819 721//821 727//827 726//825
f 722//823 723//822 729//828 728//829
f 723//822 724//824 730//830 729//828
f 725//826 726//825 732//831 731//832
f 726//825 727//827 733//833 732//831
f 728//829 729//828 735//834 734//835
f 729//828 730//830 736//836 735//834
f 737//837 740//838 741//839 743//840
f 738//841 742//842 741//843 740//844
f 739//845 743//846 741//847 742//848
f 753//849 756//850 757//851 759//852
f 754//853 758//854 757//855 756//856
f 755//857 759//858 757//859 758//860
f 841//861 844//862 845//863 847//864
f 842//865 846//866 845//863 844//862
f 843//867 847//868 845//869 846//870
f 857//871 860//872 861//873 863//874
f 858//875 862//876 861//877 860//878
f 859//879 863//874 861//873 862//880
f 739//845 769//881 771//882 743//846
f 743//840 771//883 770//884 737//837
f 738//841 744//885 746//886 742//842
f 742//848 746//887 745//888 739//845
f 744//885 747//889 749//890 746//886
f 746//887 749//891 748//892 745//888
f 747//889 750//893 752//894 749//890
f 749//891 752//895 751//896 748//892
f 750//893 753//849 759//852 752//894
f 752//895 759//858 755//857 751//896
f 754//853 772//897 774//898 758//854
f 758//860 774//899 773//900 755//857
f 753//849 760//901 762//902 756//850
f 756//856 762//903 761//904 754//853
f 760//901 763//905 765//906 762//902
f 762//903 765//907 764//908 761//904
f 763//905 766//909 768//910 765//906
f 765//907 768//911 767//912 764//908
f 737//837 767//912 768//911 740//838
f 740//844 768//910 766//909 738//841
f 769//881 775//913 777//914 771//882
f 771//883 777//915 776//916 770//884
f 772//897 778//917 780//918 774//898
f 774//899 780//919 779//920 773//900
f 775//913 781//921 783//922 777//914
f 777//915 783//923 782//924 776//916
f 778//917 784//925 786//926 780//918
f 780//919 786//927 785//928 779//920
f 781//921 787//929 789//930 783//922
f 783//923 789//931 788//932 782//924
f 784//925 790//933 792//934 786//926
f 786//927 792//935 791//936 785//928
f 787//929 793//937 795//938 789//930
f 789//931 795//939 794//940 788//932
f 790//933 796//941 798//942 792//934
f 792//935 798//943 797//944 791//936
f 793//937 799//945 801//946 795//938
f 795//939 801//947 800//948 794//940
f 796//941 802//949 804//950 798//942
f 798//943 804//951 803//952 797//944
f 799//945 805//953 807//954 801//946
f 801//947 807//955 806//956 800//948
f 802//949 808//957 810//958 804//950
f 804//951 810//959 809//960 803//952
f 805//953 811//961 813//962 807//954
f 807//955 813//963 812//964 806//956
f 808//957 814//965 816//966 810//958
f 810//959 816//967 815//968 809//960
f 811//961 817//969 819//970 813//962
f 813//963 819//971 818//972 812//964
f 814//965 820//973 822//974 816//966
f 816//967 822//975 821//976 815//968
f 817//969 823//977 825//978 819//970
f 819//971 825//979 824//980 818//972
f 820//973 826//981 828//982 822//974
f 822//975 828//983 827//984 821//976
f 823//977 829//985 831//986 825//978
f 825//979 831//987 830//988 824//980
f 826//981 832//989 834//990 828//982
f 828//983 834//991 833//992 827//984
f 829//985 835//993 837//994 831//986
f 831//987 837//995 836//996 830//988
f 832//989 838//997 840//998 834//990
f 834//991 840//999 839//1000 833//992
f 835//993 842//865 844//862 837//994
f 837//995 844//862 841//861 836//996
f 842//865 849//1001 850//1002 846//866
f 846//870 850//1003 848//1004 843//867
f 849//1005 852//1006 853//1007 850//1008
f 850//1003 853//1009 851//1010 848//1004
f 852//1006 855//1011 856//1012 853//1007
f 853//1009 856//1013 854//1014 851//1010
f 838//997 857//871 863//874 840//998
f 840//999 863//874 859//879 839//1000
f 855//1015 859//879 862//880 856//1016
f 856//1013 862//876 858//875 854//1014
f 857//871 865//1017 866//1018 860//872
f 860//878 866//1019 864//1020 858//875
f 865//1021 868//1022 869//1023 866//1024
f 866//1019 869//1025 867//1026 864//1020
f 868//1022 871//1027 872//1028 869//1023
f 869//1025 872//1029 870//1030 867//1026
f 843//867 870//1030 872//1029 847//868
f 847//864 872//1031 871//1032 841//861
f 767//912 737//837 770//884 670//1033
f 739//845 745//888 665//1034 769//881
f 766//909 763//905 760//901 753//849 750//893 747//889 744//885 738//841
f 745//888 748//892 666//770 665//769
f 748//892 751//896 667//773 666//770
f 751//896 755//857 773//900 667//1035
f 754//853 761//904 668//1036 772//897
f 761//904 764//908 669//776 668//775
f 764//908 767//912 670//779 669//776
f 670//1033 770//884 776//916 676//1037
f 769//881 665//1034 671//1038 775//913
f 772//897 668//1036 674//1039 778//917
f 667//1035 773//900 779//920 673//1040
f 676//1037 776//916 782//924 682//1041
f 775//913 671//1038 677//1042 781//921
f 778//917 674//1039 680//1043 784//925
f 673//1040 779//920 785//928 679//1044
f 682//1041 782//924 788//932 688//1045
f 781//921 677//1042 683//1046 787//929
f 784//925 680//1043 686//1047 790//933
f 679//1044 785//928 791//936 685//1048
f 688//1045 788//932 794//940 694//1049
f 787//929 683//1046 689//1050 793//937
f 790//933 686//1047 692//1051 796//941
f 685//1048 791//936 797//944 691//1052
f 694//1049 794//940 800//948 700//1053
f 793//937 689//1050 695//1054 799//945
f 796//941 692//1051 698//1055 802//949
f 691//1052 797//944 803//952 697//1056
f 700//1053 800//948 806//956 706//1057
f 799//945 695//1054 701//1058 805//953
f 802//949 698//1055 704//1059 808//957
f 697//1056 803//952 809//960 703//1060
f 706//1057 806//956 812//964 712//1061
f 805//953 701//1058 707//1062 811//961
f 808//957 704//1059 710//1063 814//965
f 703//1060 809//960 815//968 709//1064
f 712//1061 812//964 818//972 718//1065
f 811//961 707//1062 713//1066 817//969
f 814//965 710//1063 716//1067 820//973
f 709//1064 815//968 821//976 715//1068
f 718//1065 818//972 824//980 724//1069
f 817//969 713//1066 719//1070 823//977
f 820//973 716//1067 722//1071 826//981
f 715//1068 821//976 827//984 721//1072
f 724//1069 824//980 830//988 730//1073
f 823//977 719//1070 725//1074 829//985
f 826//981 722//1071 728//1075 832//989
f 721//1072 827//984 833//992 727//1076
f 730//1073 830//988 836//996 736//1077
f 829//985 725//1074 731//1078 835//993
f 832//989 728//1075 734//1079 838//997
f 727//1076 833//992 839//1000 733//1080
f 736//1077 836//996 841//861 871//1032
f 835//993 731//1078 849//1001 842//865
f 838//997 734//1079 865//1017 857//871
f 733//1080 839//1000 859//879 855//1015
f 843//867 848//1004 851//1010 854//1014 858//875 864//1020 867//1026 870//1030
f 731//832 732//831 852//1006 849//1005
f 732//831 733//833 855//1011 852//1006
f 734//835 735//834 868//1022 865//1021
f 735//834 736//836 871//1027 868//1022
